<svg  xmlns="http://www.w3.org/2000/svg" xmlns:xlink="http://www.w3.org/1999/xlink" width="188px" height="37px"><defs><filter id="Filter_0">                <feOffset in="SourceAlpha" dx="0" dy="3" />                <feGaussianBlur result="blurOut" stdDeviation="1.414" />                <feFlood flood-color="rgb(208, 28, 3)" result="floodOut" />                <feComposite operator="out" in="floodOut" in2="blurOut" result="compOut" />                <feComposite operator="in" in="compOut" in2="SourceAlpha" />                <feComponentTransfer><feFuncA type="linear" slope="0.74"/></feComponentTransfer>                <feBlend mode="normal" in2="SourceGraphic" />            </filter><linearGradient id="PSgrad_0" x1="0%" x2="0%" y1="0%" y2="100%">  <stop offset="0%" stop-color="rgb(244,175,138)" stop-opacity="1" />  <stop offset="100%" stop-color="rgb(233,64,41)" stop-opacity="1" /></linearGradient></defs><path fill-rule="evenodd"  fill-opacity="0" fill="rgb(255, 110, 22)" d="M17.391,4.954 L170.1,4.954 C177.397,4.954 183.392,10.949 183.392,18.345 C183.392,25.741 177.397,31.736 170.1,31.736 L17.391,31.736 C9.995,31.736 4.0,25.741 4.0,18.345 C4.0,10.949 9.995,4.954 17.391,4.954 Z"/><g filter="url(#Filter_0)"><path fill-rule="evenodd"  fill-opacity="0" fill="rgb(255, 110, 22)" d="M17.391,4.954 L90.1,4.954 C97.396,4.954 103.392,10.949 103.392,18.345 C103.392,25.741 97.396,31.736 90.1,31.736 L17.391,31.736 C9.995,31.736 4.0,25.741 4.0,18.345 C4.0,10.949 9.995,4.954 17.391,4.954 Z"/></g><path fill-rule="evenodd"  fill="rgb(255, 110, 22)" d="M17.391,4.954 L90.1,4.954 C97.396,4.954 103.392,10.949 103.392,18.345 C103.392,25.741 97.396,31.736 90.1,31.736 L17.391,31.736 C9.995,31.736 4.0,25.741 4.0,18.345 C4.0,10.949 9.995,4.954 17.391,4.954 Z"/><path fill="url(#PSgrad_0)" d="M17.391,4.954 L90.1,4.954 C97.396,4.954 103.392,10.949 103.392,18.345 C103.392,25.741 97.396,31.736 90.1,31.736 L17.391,31.736 C9.995,31.736 4.0,25.741 4.0,18.345 C4.0,10.949 9.995,4.954 17.391,4.954 Z"/><text kerning="auto" font-family="Adobe Heiti Std" fill="rgb(0, 0, 0)" transform="matrix( 0.51055027277728, 0, 0, 0.51055027277728,26.7652902411539, 22.9219599047094)" font-size="27.421px"><tspan font-size="27.421px" font-family="Alibaba PuHuiTi" fill="#FFFFFF">&#31435;&#21363;&#31186;&#26432;</tspan></text></svg>