<svg  xmlns="http://www.w3.org/2000/svg" xmlns:xlink="http://www.w3.org/1999/xlink" width="179px" height="28px"><defs><linearGradient id="PSgrad_0" x1="0%" x2="0%" y1="0%" y2="100%">  <stop offset="0%" stop-color="rgb(244,175,138)" stop-opacity="1" />  <stop offset="100%" stop-color="rgb(233,64,41)" stop-opacity="1" /></linearGradient></defs><path fill-rule="evenodd"  opacity="0.502" fill="rgb(255, 110, 22)" d="M13.391,0.983 L165.1,0.983 C172.397,0.983 178.392,6.979 178.392,14.375 C178.392,21.771 172.397,27.766 165.1,27.766 L13.391,27.766 C5.995,27.766 0.0,21.771 0.0,14.375 C0.0,6.979 5.995,0.983 13.391,0.983 Z"/><path fill="url(#PSgrad_0)" d="M13.391,0.983 L165.1,0.983 C172.397,0.983 178.392,6.979 178.392,14.375 C178.392,21.771 172.397,27.766 165.1,27.766 L13.391,27.766 C5.995,27.766 0.0,21.771 0.0,14.375 C0.0,6.979 5.995,0.983 13.391,0.983 Z"/><text kerning="auto" font-family="Adobe Heiti Std" fill="rgb(0, 0, 0)" transform="matrix( 0.51055027277728, 0, 0, 0.51055027277728,70.671843048334, 18.7823244051049)" font-size="27.421px"><tspan font-size="27.421px" font-family="Alibaba PuHuiTi" fill="#FFFFFF">&#24050;&#25250;&#20809;</tspan></text></svg>