<svg width="26" height="12" viewBox="0 0 26 12" fill="none" xmlns="http://www.w3.org/2000/svg">
<path d="M1.61811 5.87046L6.04562 2.25096L6.0777 9.54035L1.61811 5.87046Z" fill="#FF7329"/>
<rect x="4.0166" y="0.403015" width="21.4143" height="11.194" rx="1" fill="url(#paint0_linear_1102_16688)"/>
<path d="M8.0166 3.50101H8.5906V5.67102H11.4816V3.50101H12.0556V8.49902H11.4816V6.16802H8.5906V8.49902H8.0166V3.50101Z" fill="white"/>
<path d="M14.8887 3.40302C15.6307 3.40302 16.2257 3.64802 16.6597 4.15201C17.0657 4.62802 17.2757 5.24401 17.2757 6.00702C17.2757 6.76302 17.0657 7.37202 16.6597 7.84802C16.2257 8.34502 15.6307 8.59701 14.8817 8.59701C14.1327 8.59701 13.5447 8.34502 13.1107 7.84802C12.6977 7.37202 12.4947 6.75602 12.4947 6.00702C12.4947 5.25102 12.6977 4.63501 13.1107 4.15902C13.5447 3.65501 14.1327 3.40302 14.8887 3.40302ZM14.8887 3.91402C14.3147 3.91402 13.8597 4.11002 13.5307 4.50902C13.2227 4.88702 13.0687 5.38402 13.0687 6.00702C13.0687 6.62302 13.2227 7.12002 13.5307 7.49802C13.8527 7.89002 14.3077 8.08602 14.8817 8.08602C15.4557 8.08602 15.9107 7.89002 16.2327 7.51202C16.5407 7.13402 16.7017 6.63702 16.7017 6.00702C16.7017 5.37002 16.5407 4.86601 16.2327 4.48802C15.9107 4.10302 15.4627 3.91402 14.8887 3.91402Z" fill="white"/>
<path d="M17.3359 3.50101H21.4309V3.99802H19.6669V8.49902H19.0999V3.99802H17.3359V3.50101Z" fill="white"/>
<defs>
<linearGradient id="paint0_linear_1102_16688" x1="23.2752" y1="11.597" x2="3.47911" y2="10.3099" gradientUnits="userSpaceOnUse">
<stop stop-color="#FF594E"/>
<stop offset="1" stop-color="#FF6F26"/>
</linearGradient>
</defs>
</svg>
