<?xml version="1.0" encoding="UTF-8"?>
<svg width="22px" height="22px" viewBox="0 0 22 22" version="1.1" xmlns="http://www.w3.org/2000/svg" xmlns:xlink="http://www.w3.org/1999/xlink">
    <!-- Generator: Sketch 58 (84663) - https://sketch.com -->
    <title>形状</title>
    <desc>Created with Sketch.</desc>
    <g id="欧代/英代" stroke="none" stroke-width="1" fill="none" fill-rule="evenodd">
        <g id="上传资料" transform="translate(-1308.000000, -1441.000000)">
            <g id="编组-9" transform="translate(264.000000, 1338.000000)">
                <g id="编组-13">
                    <g id="Icon/Fill/Check-Circle-Fill备份" transform="translate(1044.000000, 103.000000)">
                        <path d="M11,0.171875 C5.02036133,0.171875 0.171875,5.02036133 0.171875,11 C0.171875,16.9796387 5.02036133,21.828125 11,21.828125 C16.9796387,21.828125 21.828125,16.9796387 21.828125,11 C21.828125,5.02036133 16.9796387,0.171875 11,0.171875 Z" id="形状" fill="#52C41A"></path>
                        <path d="M11.34375,5.171875 C11.7855778,5.171875 12.14375,5.5300472 12.14375,5.971875 L12.142875,10.199875 L16.371875,10.2 C16.8137028,10.2 17.171875,10.5581722 17.171875,11 C17.171875,11.4418278 16.8137028,11.8 16.371875,11.8 L12.142875,11.799875 L12.14375,16.371875 C12.14375,16.8137028 11.7855778,17.171875 11.34375,17.171875 C10.9019222,17.171875 10.54375,16.8137028 10.54375,16.371875 L10.542875,11.799875 L5.971875,11.8 C5.5300472,11.8 5.171875,11.4418278 5.171875,11 C5.171875,10.5581722 5.5300472,10.2 5.971875,10.2 L10.542875,10.199875 L10.54375,5.971875 C10.54375,5.5300472 10.9019222,5.171875 11.34375,5.171875 Z" id="形状结合" fill="#FFFFFF"></path>
                    </g>
                </g>
            </g>
        </g>
    </g>
</svg>