<?xml version="1.0" encoding="UTF-8"?>
<svg width="16px" height="16px" viewBox="0 0 16 16" version="1.1" xmlns="http://www.w3.org/2000/svg" xmlns:xlink="http://www.w3.org/1999/xlink">
    <!-- Generator: Sketch 58 (84663) - https://sketch.com -->
    <title>分组</title>
    <desc>Created with Sketch.</desc>
    <g id="欧代/英代" stroke="none" stroke-width="1" fill="none" fill-rule="evenodd">
        <g id="欧代-注册完成" transform="translate(-1167.000000, -574.000000)">
            <g id="编组-21" transform="translate(232.000000, 263.000000)">
                <g id="编组-7备份-8" transform="translate(795.000000, 308.000000)">
                    <g id="分组" transform="translate(140.000000, 3.000000)">
                        <rect id="矩形" fill="#D8D8D8" opacity="0" x="1" y="1" width="14" height="14"></rect>
                        <path d="M11.5044739,5.35994045 C12.3336935,6.37759623 12.8306099,7.67503049 12.8306099,9.08929533 C12.8306099,12.3544024 10.1829533,15 6.91530495,15 C3.64765665,15 1,12.3544024 1,9.08929533 C1,5.82418825 3.64765665,3.17859066 6.91530495,3.17859066 C8.24133919,3.17859066 9.46520916,3.61415251 10.4510453,4.35079313 C10.507788,4.39319263 13.4694775,1.3080266 13.5894759,1.18812154 C13.8118549,0.946877541 14.2698076,0.911963497 14.5860158,1.23556397 C14.902224,1.55916443 14.8967359,1.97185382 14.6567392,2.21166394 L11.5044739,5.35994045 Z M8.59301941,5.11659636 C8.06160134,4.89178134 7.49705591,4.77868421 6.91456649,4.77868421 C6.33207707,4.77868421 5.76753163,4.89316057 5.23611356,5.11659636 C4.72263948,5.33313597 4.26161704,5.64484268 3.86408872,6.04068262 C3.4679407,6.43652256 3.15599139,6.89856569 2.93928324,7.41164045 C2.71429326,7.94264524 2.60110811,8.50675163 2.60110811,9.08878805 C2.60110811,9.67082448 2.71567356,10.2349309 2.93928324,10.7659357 C3.15599139,11.2790104 3.4679407,11.7396743 3.86408872,12.1368935 C4.26023674,12.5327334 4.72263948,12.8444401 5.23611356,13.0609798 C5.76753163,13.2857948 6.33207707,13.3988919 6.91456649,13.3988919 C7.49705591,13.3988919 8.06160134,13.2844155 8.59301941,13.0609798 C9.1064935,12.8444401 9.56751593,12.5327334 9.96504425,12.1368935 C10.3611923,11.7410536 10.6731416,11.2803897 10.8898497,10.7659357 C11.1148397,10.2349309 11.2280249,9.67082448 11.2280249,9.08878805 C11.2280249,8.50675163 11.1134594,7.94264524 10.8898497,7.41164045 C10.6731416,6.89856569 10.3611923,6.43790179 9.96504425,6.04068262 C9.56751593,5.64484268 9.1064935,5.33451521 8.59301941,5.11659636 L8.59301941,5.11659636 Z" id="Shape" fill="#16ADE9" transform="translate(7.915337, 8.000000) scale(1, -1) translate(-7.915337, -8.000000) "></path>
                    </g>
                </g>
            </g>
        </g>
    </g>
</svg>