<svg width="34" height="34" viewBox="0 0 34 34" fill="none" xmlns="http://www.w3.org/2000/svg">
<g id="Frame" clip-path="url(#clip0_26_2155)">
<g id="Vector">
<path d="M17 0C7.61115 0 0 7.6112 0 17C0 26.3888 7.61115 34 17 34C26.3889 34 34 26.3888 34 17C34 7.6112 26.3888 0 17 0Z" fill="white"/>
<path d="M0.5 17C0.5 7.88734 7.8873 0.5 17 0.5C26.1127 0.5 33.5 7.88734 33.5 17C33.5 26.1127 26.1127 33.5 17 33.5C7.8873 33.5 0.5 26.1127 0.5 17Z" stroke="black" stroke-opacity="0.1"/>
</g>
<g id="Frame_2">
<path id="Vector_2" d="M22.4961 10.5542H11.5041C11.2283 10.5542 11.0051 10.7773 11.0051 11.0531C11.0051 11.3289 11.2283 11.5521 11.5041 11.5521H22.4976C22.7734 11.5521 22.9965 11.3289 22.9965 11.0531C22.9965 10.7773 22.7734 10.5542 22.4961 10.5542ZM17.0001 12.553C16.7444 12.553 16.4887 12.6506 16.2935 12.8459L11.6993 17.4385C11.6094 17.5284 11.5536 17.6539 11.5536 17.7918C11.5536 17.9297 11.6094 18.0552 11.6993 18.1451C11.7892 18.235 11.9147 18.2907 12.0526 18.2907C12.1905 18.2907 12.316 18.235 12.4059 18.1451L16.4996 14.0514V22.9454C16.4996 23.2212 16.7227 23.4443 16.9985 23.4443C17.2743 23.4443 17.4974 23.2212 17.4974 22.9454V14.0514L21.5912 18.1451C21.681 18.235 21.8065 18.2907 21.9444 18.2907C22.0824 18.2907 22.2079 18.235 22.2977 18.1451C22.3876 18.0552 22.4434 17.9297 22.4434 17.7918C22.4434 17.6539 22.3876 17.5284 22.2977 17.4385L17.7066 12.8459C17.5114 12.6506 17.2557 12.553 17.0001 12.553Z" fill="black" fill-opacity="0.4"/>
</g>
</g>
<defs>
<clipPath id="clip0_26_2155">
<rect width="34" height="34" fill="white"/>
</clipPath>
</defs>
</svg>
