<svg width="64" height="64" viewBox="0 0 64 64" fill="none" xmlns="http://www.w3.org/2000/svg">
<g id="Frame" clip-path="url(#clip0_41_10872)">
<g id="Vector">
<path d="M31.9999 0C14.3269 0 0 14.327 0 32C0 49.6731 14.3269 64 32 64C49.6732 64 64 49.6731 64 32C64 14.327 49.6731 0 31.9999 0Z" fill="white"/>
<path d="M0.5 32C0.5 14.6031 14.603 0.5 31.9999 0.5C49.397 0.5 63.5 14.6031 63.5 32C63.5 49.397 49.3971 63.5 32 63.5C14.603 63.5 0.5 49.397 0.5 32Z" stroke="black" stroke-opacity="0.1"/>
</g>
<g id="Frame_2">
<path id="Vector_2" d="M42.3458 19.8667H21.655C21.1358 19.8667 20.7158 20.2867 20.7158 20.8059C20.7158 21.325 21.1358 21.745 21.655 21.745H42.3487C42.8679 21.745 43.2879 21.325 43.2879 20.8059C43.2879 20.2867 42.8679 19.8667 42.3458 19.8667ZM32.0004 23.6292C31.5192 23.6292 31.0379 23.8129 30.6704 24.1804L22.0225 32.8254C21.8533 32.9946 21.7483 33.2309 21.7483 33.4904C21.7483 33.75 21.8533 33.9863 22.0225 34.1554C22.1917 34.3246 22.4279 34.4296 22.6875 34.4296C22.9471 34.4296 23.1833 34.3246 23.3525 34.1554L31.0583 26.4496V43.1913C31.0583 43.7104 31.4783 44.1305 31.9975 44.1305C32.5167 44.1305 32.9367 43.7104 32.9367 43.1913V26.4496L40.6425 34.1554C40.8117 34.3246 41.0479 34.4296 41.3075 34.4296C41.5671 34.4296 41.8033 34.3246 41.9725 34.1554C42.1417 33.9863 42.2467 33.75 42.2467 33.4904C42.2467 33.2309 42.1417 32.9946 41.9725 32.8254L33.3304 24.1804C32.9629 23.8129 32.4817 23.6292 32.0004 23.6292Z" fill="black" fill-opacity="0.4"/>
</g>
</g>
<defs>
<clipPath id="clip0_41_10872">
<rect width="64" height="64" fill="white"/>
</clipPath>
</defs>
</svg>
