<svg width="16" height="16" viewBox="0 0 16 16" fill="none" xmlns="http://www.w3.org/2000/svg">
<g id="Frame">
<path id="Vector" d="M10.2913 5.77637L10.9542 6.43927L7.71588 9.67756L7.05298 9.01466L10.2913 5.77637Z" fill="#3370FF"/>
<path id="Vector_2" d="M7.53123 9.66855C7.41091 9.66855 7.2906 9.62324 7.19998 9.53105L5.43435 7.76543C5.25154 7.58262 5.25154 7.28574 5.43435 7.10293C5.61716 6.92012 5.91404 6.92012 6.09685 7.10293L7.86248 8.86855C8.04529 9.05137 8.04529 9.34824 7.86248 9.53105C7.77185 9.62324 7.65154 9.66855 7.53123 9.66855Z" fill="#3370FF"/>
<path id="Vector_3" d="M10.0369 1.25541L10.069 1.16092L9.97455 1.12862C9.24678 0.87969 8.48427 0.754492 7.70937 0.754492C6.76177 0.754492 5.84228 0.939933 4.97672 1.30612C4.13976 1.65961 3.38991 2.16535 2.74491 2.81034C2.09992 3.45534 1.59418 4.20519 1.24069 5.04215C0.874503 5.90771 0.689062 6.8272 0.689062 7.7748C0.689062 8.72243 0.874511 9.64194 1.24072 10.5075C1.5942 11.3445 2.09993 12.0943 2.74491 12.7393C3.38991 13.3843 4.13976 13.89 4.97672 14.2435C5.84228 14.6097 6.76177 14.7951 7.70937 14.7951C8.65545 14.7951 9.57642 14.6097 10.445 14.2451L10.4452 14.2451C11.2821 13.8916 12.032 13.3858 12.677 12.7408C13.322 12.0958 13.8277 11.346 14.1812 10.509C14.5474 9.64347 14.7328 8.72397 14.7328 7.77637C14.7328 7.08221 14.6314 6.39744 14.4316 5.738L14.4026 5.64228L14.3069 5.67129L13.4101 5.94317L13.3143 5.97219L13.3434 6.06792C13.5108 6.6193 13.5953 7.19388 13.5953 7.77637C13.5953 11.0211 10.9557 13.6607 7.71094 13.6607C4.46617 13.6607 1.82656 11.0211 1.82656 7.77637C1.82656 4.5316 4.46617 1.89199 7.71094 1.89199C8.36091 1.89199 8.99848 1.998 9.60843 2.20542L9.70313 2.23762L9.73531 2.14291L10.0369 1.25541Z" fill="#3370FF" stroke="#3370FF" stroke-width="0.2"/>
</g>
</svg>
