<svg width="16" height="17" viewBox="0 0 16 17" fill="none" xmlns="http://www.w3.org/2000/svg">
<g id="Frame" clip-path="url(#clip0_334_740)">
<path id="Vector" d="M14.1435 3.43262C14.0403 3.33639 13.9249 3.22919 13.8003 3.11375C13.4441 2.78385 13.0849 2.45393 12.7453 2.14581C12.7069 2.11103 12.7069 2.11103 12.6685 2.07626C12.2154 1.66601 11.8374 1.33157 11.558 1.0959C11.3946 0.958013 11.2659 0.854757 11.1714 0.786648C11.1087 0.741443 11.0577 0.708883 11.0074 0.685039C10.944 0.65501 10.885 0.636714 10.8017 0.638276C10.5788 0.642455 10.4 0.822079 10.4 1.04729V1.84682V2.64635V4.24542V4.64519H10.8H14L13.6 4.24542V16.2384L14 15.8387H3.59971C2.936 15.8387 2.4 15.3042 2.4 14.6414V1.04729L2 1.44706H9.2C9.42091 1.44706 9.6 1.26807 9.6 1.04729C9.6 0.826504 9.42091 0.647522 9.2 0.647522H2H1.6V1.04729V14.6414C1.6 15.7462 2.49458 16.6382 3.59971 16.6382H14H14.4V16.2384V4.24542V3.84565H14H10.8L11.2 4.24542V2.64635V1.84682V1.04729C11.2 1.26027 11.0273 1.43372 10.8167 1.43767C10.7454 1.43901 10.7042 1.42625 10.6645 1.40742C10.6603 1.40543 10.6773 1.41626 10.7036 1.43522C10.7778 1.48869 10.8929 1.58107 11.042 1.70684C11.3126 1.9352 11.6846 2.26432 12.1315 2.66883C12.1695 2.70331 12.1695 2.70331 12.2076 2.73782C12.5449 3.04387 12.9022 3.372 13.2565 3.70016C13.3805 3.81504 13.4953 3.9217 13.598 4.0174C13.6595 4.07477 13.7034 4.11577 13.7266 4.13742C13.8878 4.28835 14.1409 4.28008 14.2919 4.11894C14.443 3.9578 14.4347 3.70481 14.2734 3.55388C14.2497 3.53167 14.2055 3.49042 14.1435 3.43262ZM1.6 7.84332H0V14.6394H8H16V7.84332H2.4V7.83398H1.6V7.84332ZM3.25312 11.7476V13.4382H2.4625V8.88818H4.20312C4.71146 8.88818 5.1151 9.02047 5.41406 9.28506C5.71302 9.54964 5.8625 9.89964 5.8625 10.3351C5.8625 10.7809 5.71615 11.1278 5.42344 11.3757C5.13073 11.6236 4.72084 11.7476 4.19375 11.7476H3.25312ZM3.25312 11.1132H4.20312C4.48438 11.1132 4.69896 11.047 4.84688 10.9147C4.99479 10.7825 5.06875 10.5913 5.06875 10.3413C5.06875 10.0955 4.99375 9.89912 4.84375 9.75225C4.69375 9.60537 4.4875 9.52985 4.225 9.52568H3.25312V11.1132ZM6.55312 13.4382V8.88818H7.89687C8.29896 8.88818 8.65573 8.97777 8.96719 9.15693C9.27865 9.3361 9.51979 9.59027 9.69063 9.91943C9.86146 10.2486 9.94687 10.6257 9.94687 11.0507V11.2788C9.94687 11.7101 9.86094 12.0892 9.68906 12.4163C9.51719 12.7434 9.2724 12.9955 8.95469 13.1726C8.63698 13.3496 8.27292 13.4382 7.8625 13.4382H6.55312ZM7.34375 9.52568V12.8069H7.85938C8.27396 12.8069 8.59219 12.6772 8.81406 12.4179C9.03594 12.1585 9.14896 11.7861 9.15312 11.3007V11.0476C9.15312 10.5538 9.04583 10.1767 8.83125 9.91631C8.61667 9.65589 8.30521 9.52568 7.89687 9.52568H7.34375ZM13.3562 11.5101H11.525V13.4382H10.7344V8.88818H13.625V9.52568H11.525V10.8788H13.3562V11.5101Z" fill="#3370FF"/>
</g>
<defs>
<clipPath id="clip0_334_740">
<rect width="16" height="16" fill="white" transform="translate(0 0.638184)"/>
</clipPath>
</defs>
</svg>
