<svg width="18" height="18" viewBox="0 0 18 18" fill="none" xmlns="http://www.w3.org/2000/svg">
<g id="Frame" clip-path="url(#clip0_1_7684)">
<path id="Vector" d="M15.9115 3.14374C15.7953 3.03549 15.6655 2.91488 15.5253 2.78501C15.1246 2.41388 14.7205 2.04272 14.3384 1.69608C14.2953 1.65695 14.2953 1.65695 14.2521 1.61784C13.7423 1.15631 13.317 0.780056 13.0028 0.514927C12.8189 0.359809 12.6742 0.243645 12.5678 0.167023C12.4973 0.116167 12.4399 0.0795365 12.3833 0.0527118C12.312 0.0189297 12.2456 -0.00165285 12.1519 0.00010421C11.9012 0.00480497 11.7 0.206883 11.7 0.460243V1.35972V2.25919V4.05814V4.50788H12.15H15.75L15.3 4.05814V17.5503L15.75 17.1005H4.04967C3.303 17.1005 2.7 16.4992 2.7 15.7536V0.460243L2.25 0.909981H10.35C10.5985 0.909981 10.8 0.708626 10.8 0.460243C10.8 0.21186 10.5985 0.0105059 10.35 0.0105059H2.25H1.8V0.460243V15.7536C1.8 16.9965 2.8064 18 4.04967 18H15.75H16.2V17.5503V4.05814V3.6084H15.75H12.15L12.6 4.05814V2.25919V1.35972V0.460243C12.6 0.699851 12.4057 0.894977 12.1688 0.899421C12.0886 0.900924 12.0422 0.88657 11.9976 0.865392C11.9928 0.863151 12.0119 0.875331 12.0415 0.896665C12.125 0.956821 12.2545 1.06075 12.4222 1.20224C12.7267 1.45914 13.1452 1.82941 13.6479 2.28448C13.6907 2.32327 13.6907 2.32327 13.7335 2.36209C14.1131 2.7064 14.515 3.07555 14.9135 3.44472C15.053 3.57396 15.1822 3.69395 15.2977 3.80162C15.367 3.86616 15.4164 3.91229 15.4424 3.93665C15.6238 4.10644 15.9085 4.09713 16.0784 3.91585C16.2483 3.73457 16.239 3.44996 16.0576 3.28016C16.0309 3.25517 15.9812 3.20876 15.9115 3.14374ZM1.8 8.10578H0V15.7513H9H18V8.10578H2.7V8.09527H1.8V8.10578ZM3.65977 12.498V14.4H2.77031V9.28125H4.72852C5.30039 9.28125 5.75449 9.43008 6.09082 9.72773C6.42715 10.0254 6.59531 10.4191 6.59531 10.909C6.59531 11.4105 6.43067 11.8008 6.10137 12.0797C5.77207 12.3586 5.31094 12.498 4.71797 12.498H3.65977ZM3.65977 11.7844H4.72852C5.04492 11.7844 5.28633 11.71 5.45273 11.5611C5.61914 11.4123 5.70234 11.1973 5.70234 10.916C5.70234 10.6395 5.61797 10.4186 5.44922 10.2533C5.28047 10.0881 5.04844 10.0031 4.75312 9.99844H3.65977V11.7844ZM7.37227 14.4V9.28125H8.88398C9.33633 9.28125 9.73769 9.38203 10.0881 9.58359C10.4385 9.78516 10.7098 10.0711 10.902 10.4414C11.0941 10.8117 11.1902 11.2359 11.1902 11.7141V11.9707C11.1902 12.4559 11.0936 12.8824 10.9002 13.2504C10.7068 13.6184 10.4314 13.902 10.074 14.1012C9.7166 14.3004 9.30703 14.4 8.84531 14.4H7.37227ZM8.26172 9.99844V13.6898H8.8418C9.30821 13.6898 9.66621 13.5439 9.91582 13.2521C10.1654 12.9604 10.2926 12.5414 10.2973 11.9953V11.7105C10.2973 11.1551 10.1766 10.7309 9.93516 10.4379C9.69375 10.1449 9.34336 9.99844 8.88398 9.99844H8.26172ZM15.0258 12.2309H12.9656V14.4H12.0762V9.28125H15.3281V9.99844H12.9656V11.5207H15.0258V12.2309Z" fill="black" fill-opacity="0.4"/>
</g>
<defs>
<clipPath id="clip0_1_7684">
<rect width="18" height="18" fill="white"/>
</clipPath>
</defs>
</svg>
