<svg width="32" height="32" viewBox="0 0 32 32" fill="none" xmlns="http://www.w3.org/2000/svg">
<g id="Frame" clip-path="url(#clip0_41_4414)">
<path id="Vector" d="M28.2871 5.58888C28.0805 5.39642 27.8498 5.18201 27.6005 4.95113C26.8882 4.29134 26.1698 3.63149 25.4906 3.01525C25.4138 2.94568 25.4138 2.94568 25.3371 2.87616C24.4307 2.05566 23.6747 1.38677 23.1161 0.915425C22.7892 0.63966 22.5319 0.433146 22.3428 0.296929C22.2173 0.206519 22.1153 0.141398 22.0147 0.0937098C21.8881 0.0336528 21.7699 -0.00293839 21.6034 0.000185262C21.1577 0.00854217 20.8 0.367792 20.8 0.81821V2.41728V4.01634V7.21447V8.01401H21.6H28L27.2 7.21447V31.2005L28 30.4009H7.19942C5.872 30.4009 4.8 29.332 4.8 28.0065V0.81821L4 1.61774H18.4C18.8418 1.61774 19.2 1.25978 19.2 0.81821C19.2 0.37664 18.8418 0.0186772 18.4 0.0186772H4H3.2V0.81821V28.0065C3.2 30.2159 4.98915 32 7.19942 32H28H28.8V31.2005V7.21447V6.41494H28H21.6L22.4 7.21447V4.01634V2.41728V0.81821C22.4 1.24418 22.0546 1.59107 21.6334 1.59897C21.4908 1.60164 21.4084 1.57612 21.329 1.53848C21.3206 1.53449 21.3545 1.55614 21.4072 1.59407C21.5556 1.70102 21.7858 1.88578 22.084 2.13732C22.6253 2.59404 23.3693 3.25228 24.2629 4.0613C24.3391 4.13025 24.3391 4.13025 24.4152 4.19927C25.0899 4.81138 25.8044 5.46764 26.5129 6.12395C26.761 6.3537 26.9905 6.56703 27.1959 6.75843C27.3191 6.87317 27.4069 6.95518 27.4531 6.99848C27.7756 7.30034 28.2818 7.28379 28.5839 6.96151C28.8859 6.63923 28.8694 6.13326 28.5469 5.8314C28.4994 5.78697 28.4111 5.70447 28.2871 5.58888ZM3.2 14.4103H0V28.0023H16H32V14.4103H4.8V14.3916H3.2V14.4103ZM6.50625 22.2188V25.6H4.925V16.5H8.40625C9.42292 16.5 10.2302 16.7646 10.8281 17.2938C11.426 17.8229 11.725 18.5229 11.725 19.3937C11.725 20.2854 11.4323 20.9792 10.8469 21.475C10.2615 21.9708 9.44167 22.2188 8.3875 22.2188H6.50625ZM6.50625 20.95H8.40625C8.96875 20.95 9.39792 20.8177 9.69375 20.5531C9.98959 20.2885 10.1375 19.9063 10.1375 19.4062C10.1375 18.9146 9.9875 18.5219 9.6875 18.2281C9.3875 17.9344 8.975 17.7833 8.45 17.775H6.50625V20.95ZM13.1062 25.6V16.5H15.7937C16.5979 16.5 17.3115 16.6792 17.9344 17.0375C18.5573 17.3958 19.0396 17.9042 19.3813 18.5625C19.7229 19.2208 19.8937 19.975 19.8937 20.825V21.2812C19.8937 22.1438 19.7219 22.9021 19.3781 23.5562C19.0344 24.2104 18.5448 24.7146 17.9094 25.0688C17.274 25.4229 16.5458 25.6 15.725 25.6H13.1062ZM14.6875 17.775V24.3375H15.7188C16.5479 24.3375 17.1844 24.0781 17.6281 23.5594C18.0719 23.0406 18.2979 22.2958 18.3062 21.325V20.8188C18.3062 19.8312 18.0917 19.0771 17.6625 18.5562C17.2333 18.0354 16.6104 17.775 15.7937 17.775H14.6875ZM26.7125 21.7437H23.05V25.6H21.4688V16.5H27.25V17.775H23.05V20.4813H26.7125V21.7437Z" fill="white" fill-opacity="0.9"/>
</g>
<defs>
<clipPath id="clip0_41_4414">
<rect width="32" height="32" fill="white"/>
</clipPath>
</defs>
</svg>
