<svg width="16" height="17" viewBox="0 0 16 17" fill="none" xmlns="http://www.w3.org/2000/svg">
<g id="Frame" clip-path="url(#clip0_334_744)">
<path id="Vector" d="M15.289 3.12702V7.48257C15.289 7.83813 14.9334 8.19368 14.5778 8.19368C14.2223 8.19368 13.8667 7.92702 13.8667 7.48257V3.2159C13.8667 3.12702 13.7778 3.03813 13.7778 2.94924C13.689 2.86035 13.5112 2.77146 13.3334 2.77146H2.75563C2.57785 2.77146 2.40007 2.86035 2.31118 2.94924C2.22229 2.94924 2.22229 3.03813 2.22229 3.2159V14.1492C2.22229 14.327 2.48896 14.5937 2.84452 14.5937H6.22229C6.66674 14.5937 6.9334 14.8603 6.9334 15.3048C6.9334 15.6603 6.57785 16.0159 6.22229 16.0159H2.75563C1.68896 16.0159 0.711182 15.2159 0.711182 14.2381V3.2159C0.711182 2.77146 0.888959 2.32702 1.24452 1.97146C1.60007 1.6159 2.22229 1.34924 2.75563 1.43813H13.1556C13.689 1.43813 14.2223 1.6159 14.6667 1.97146C15.0223 2.23813 15.2001 2.68257 15.289 3.12702Z" fill="#3370FF"/>
<path id="Vector_2" d="M14.4001 13.9716C14.6668 14.2383 14.6668 14.7716 14.4001 15.0383C14.1335 15.305 13.689 15.305 13.3335 15.0383L11.5557 13.2605L9.7779 15.0383C9.60012 15.2161 9.42234 15.2161 9.24456 15.2161C9.06679 15.2161 8.88901 15.1272 8.71123 15.0383C8.53345 14.8605 8.53345 14.6827 8.53345 14.505C8.53345 14.3272 8.62234 14.1494 8.71123 13.9716L10.489 12.1939L8.71123 10.4161C8.44456 10.1494 8.44456 9.61608 8.71123 9.34941C8.9779 9.08275 9.42234 9.08275 9.7779 9.34941L11.5557 11.1272L13.3335 9.34941C13.6001 9.08275 14.1335 9.08275 14.4001 9.34941C14.6668 9.61608 14.6668 10.1494 14.4001 10.4161L12.6223 12.1939L14.4001 13.9716Z" fill="#3370FF"/>
</g>
<defs>
<clipPath id="clip0_334_744">
<rect width="16" height="16" fill="white" transform="translate(0 0.638184)"/>
</clipPath>
</defs>
</svg>
