<svg width="16" height="17" viewBox="0 0 16 17" fill="none" xmlns="http://www.w3.org/2000/svg">
<g id="Frame" clip-path="url(#clip0_335_57094)">
<path id="Vector" d="M10.0883 12.7277L10.1023 12.7547H10.1327H11.3327H11.4162L11.3768 12.6811L9.40107 8.99308L9.75451 8.81636C10.1457 8.63297 10.4604 8.31842 10.644 7.92729C10.8595 7.53155 10.9758 7.08938 10.9827 6.63879L10.9827 6.63811C10.9835 6.18563 10.8665 5.74073 10.6432 5.34721C10.4414 4.97083 10.133 4.66244 9.75656 4.46075C9.36021 4.2456 8.91782 4.12919 8.46691 4.12136V4.12136H8.46604H5.13271H5.08271V4.17136V12.7047V12.7547H5.13271H6.13271H6.18271V12.7047V9.15469H8.23565L10.0883 12.7277ZM8.53389 8.18804L8.53389 8.18802H8.53271H6.18271V5.22136L8.53271 5.22136L8.53354 5.22135C8.78252 5.21723 9.02753 5.28405 9.23995 5.41401L9.23983 5.4142L9.24411 5.41629C9.34748 5.46676 9.43975 5.53734 9.5155 5.62392C9.59125 5.71049 9.64897 5.81131 9.68526 5.92047L9.68514 5.92051L9.68651 5.9238C9.78989 6.17377 9.85598 6.43757 9.88267 6.70674C9.87805 6.97658 9.81153 7.24176 9.68823 7.48185L9.68819 7.48183L9.68724 7.48389C9.59094 7.69441 9.43533 7.87226 9.23947 7.99567C9.028 8.12708 8.78279 8.19394 8.53389 8.18804ZM1.86036 4.53606C1.04908 5.75023 0.616057 7.17769 0.616043 8.63796L7.99938 15.9714V16.0214C7.99942 16.0214 7.99947 16.0214 7.99951 16.0214C9.45975 16.0213 10.8872 15.5883 12.1013 14.777C13.3155 13.9658 14.2619 12.8126 14.8207 11.4635C15.3795 10.1144 15.5257 8.62983 15.2408 7.19761C14.956 5.76538 14.2528 4.4498 13.2202 3.41722C12.1876 2.38464 10.872 1.68145 9.43979 1.39656C8.00757 1.11167 6.52303 1.25789 5.1739 1.81671C3.82477 2.37554 2.67165 3.32188 1.86036 4.53606ZM2.77498 12.1289C2.08458 11.0956 1.71607 9.88085 1.71604 8.63818C1.72632 6.97487 2.39163 5.3826 3.56779 4.20644C4.74395 3.03027 6.33622 2.36497 7.99953 2.35469C9.2422 2.35472 10.457 2.72323 11.4902 3.41362C12.5235 4.10404 13.3288 5.08537 13.8044 6.2335C14.28 7.38163 14.4044 8.64499 14.162 9.86384C13.9195 11.0827 13.3211 12.2023 12.4424 13.081C11.5636 13.9598 10.444 14.5582 9.22519 14.8006C8.00635 15.0431 6.74298 14.9186 5.59485 14.4431C4.44672 13.9675 3.4654 13.1621 2.77498 12.1289Z" fill="#3370FF" stroke="#3370FF" stroke-width="0.1"/>
</g>
<defs>
<clipPath id="clip0_335_57094">
<rect width="16" height="16" fill="white" transform="translate(0 0.638184)"/>
</clipPath>
</defs>
</svg>
