<svg width="34" height="112" viewBox="0 0 34 112" fill="none" xmlns="http://www.w3.org/2000/svg">
<g id="Frame 427319447">
<path d="M0.5 4C0.5 2.067 2.067 0.5 4 0.5H33.5V111.5H4C2.067 111.5 0.5 109.933 0.5 108V4Z" fill="white"/>
<g id="Frame" clip-path="url(#clip0_1_7694)">
<path id="Vector" d="M11.9097 20.3369C11.9982 20.1648 12.1143 19.9463 12.2004 19.8113C13.2548 18.1575 15.1053 17.0606 17.2121 17.0606C20.4923 17.0606 23.1515 19.7198 23.1515 23C23.1515 26.2803 20.4923 28.9394 17.2121 28.9394C15.0793 28.9394 13.209 27.8152 12.1616 26.1271C12.0186 25.8966 11.9702 25.7825 11.9702 25.7825C11.863 25.573 11.6042 25.4777 11.3873 25.5668C11.169 25.6565 11.0782 25.8967 11.1813 26.1047C11.1813 26.1047 11.2499 26.2606 11.4019 26.5115C12.5914 28.4754 14.7485 29.7879 17.2121 29.7879C20.9609 29.7879 24 26.7489 24 23C24 19.2512 20.9609 16.2122 17.2121 16.2122C14.7833 16.2122 12.6524 17.4878 11.4529 19.4057C11.3922 19.5027 11.3176 19.6385 11.2463 19.7739L11.0171 18.3266C10.9808 18.0973 10.7653 17.9409 10.5323 17.9778C10.3009 18.0145 10.1434 18.234 10.1795 18.462L10.5116 20.5591C10.5849 21.0215 11.0158 21.3375 11.4815 21.2637L13.5786 20.9316C13.8093 20.8951 13.9669 20.6794 13.93 20.4464C13.8934 20.215 13.6747 20.0573 13.4485 20.0931L11.9097 20.3369ZM17.2121 19.1799C17.2121 18.9467 17.0238 18.7576 16.7878 18.7576C16.5535 18.7576 16.3636 18.951 16.3636 19.1829V22.9964C16.3636 23.467 16.7463 23.8485 17.2157 23.8485H21.0292C21.2641 23.8485 21.4545 23.6602 21.4545 23.4243C21.4545 23.19 21.2612 23 21.0322 23H17.6344C17.4012 23 17.2121 22.8067 17.2121 22.5777V19.1799Z" fill="#3370FF"/>
</g>
<path id="&#229;&#142;&#134; &#229;&#143;&#178; &#230;&#138;&#165; &#229;&#145;&#138;" d="M23.02 38.248V39.228H12.814V43.372C12.758 46.284 12.268 48.622 11.316 50.386L10.532 49.686C11.33 48.174 11.75 46.06 11.792 43.372V38.248H23.02ZM22.432 42.406C22.404 46.144 22.222 48.384 21.872 49.126C21.508 49.854 20.892 50.232 20.024 50.232C19.576 50.232 19.016 50.218 18.372 50.19L18.106 49.238C18.792 49.266 19.352 49.294 19.786 49.308C20.486 49.28 20.92 48.958 21.088 48.314C21.27 47.67 21.382 46.004 21.424 43.316H18.176C18.008 44.856 17.658 46.144 17.126 47.18C16.398 48.552 15.222 49.616 13.598 50.372L13.038 49.49C14.62 48.72 15.726 47.698 16.356 46.438C16.748 45.556 17.014 44.52 17.154 43.316H13.864V42.406H17.238L17.28 41.3V39.942H18.302V41.3L18.26 42.406H22.432ZM12.044 55.368H16.608V53.59H17.63V55.368H22.096V60.24H17.574C17.434 61.584 17.056 62.69 16.412 63.558C18.372 64.622 20.682 65.224 23.342 65.35L23.076 66.344C20.262 66.19 17.812 65.518 15.726 64.314C14.69 65.238 13.234 65.938 11.372 66.414L10.798 65.518C12.506 65.084 13.836 64.482 14.802 63.726C13.878 63.096 13.038 62.368 12.282 61.528L13.094 60.954C13.822 61.766 14.62 62.452 15.516 63.026C16.076 62.312 16.412 61.388 16.538 60.24H12.044V55.368ZM21.102 59.274V56.334H17.63V59.274H21.102ZM16.608 59.274V56.334H13.038V59.274H16.608ZM15.418 75.19V76.184C14.886 76.45 14.354 76.702 13.808 76.926V81.098C13.808 81.938 13.402 82.358 12.59 82.358H11.288L11.064 81.392C11.47 81.434 11.862 81.462 12.24 81.462C12.618 81.462 12.814 81.252 12.814 80.86V77.332C12.17 77.57 11.498 77.794 10.826 78.004L10.574 77.01C11.344 76.828 12.086 76.604 12.814 76.352V73.104H10.784V72.138H12.814V69.604H13.808V72.138H15.376V73.104H13.808V75.96C14.354 75.722 14.886 75.47 15.418 75.19ZM17.14 76.072V82.4H16.188V70.136H22.334C22.334 71.69 22.25 72.726 22.096 73.244C21.928 73.748 21.396 74.014 20.5 74.014H19.492L19.212 73.132C19.436 73.132 19.702 73.146 20.038 73.146C20.374 73.146 20.64 73.118 20.808 73.09C20.962 73.034 21.088 72.936 21.186 72.768C21.284 72.502 21.34 71.928 21.368 71.06H17.14V75.148H22.46V76.016C22.18 77.5 21.69 78.774 20.962 79.824C21.634 80.468 22.46 81.056 23.44 81.602L22.768 82.372C21.844 81.784 21.046 81.182 20.402 80.538C19.73 81.308 18.904 81.938 17.952 82.414L17.462 81.532C18.358 81.084 19.114 80.51 19.73 79.81C18.764 78.662 18.176 77.416 17.952 76.072H17.14ZM18.862 76.072C19.058 77.164 19.52 78.172 20.276 79.082C20.836 78.228 21.242 77.22 21.494 76.072H18.862ZM21.606 93.234V98.386H20.584V97.644H13.5V98.386H12.478V93.234H21.606ZM13.5 96.692H20.584V94.2H13.5V96.692ZM13.318 88.502C12.842 89.146 12.282 89.748 11.624 90.294L11.022 89.496C12.282 88.488 13.15 87.242 13.598 85.772L14.606 85.884C14.424 86.472 14.2 87.018 13.92 87.536H16.664V85.548H17.686V87.536H22.264V88.502H17.686V90.77H23.328V91.764H10.672V90.77H16.664V88.502H13.318Z" fill="#3370FF"/>
<path d="M0.5 4C0.5 2.067 2.067 0.5 4 0.5H33.5V111.5H4C2.067 111.5 0.5 109.933 0.5 108V4Z" stroke="#3370FF"/>
</g>
<defs>
<clipPath id="clip0_1_7694">
<rect width="14" height="14" fill="white" transform="translate(10 16)"/>
</clipPath>
</defs>
</svg>
