<?xml version="1.0" standalone="no"?>
<!DOCTYPE svg PUBLIC "-//W3C//DTD SVG 1.1//EN" "http://www.w3.org/Graphics/SVG/1.1/DTD/svg11.dtd" >
<svg xmlns="http://www.w3.org/2000/svg">
  <metadata>Created by iconfont</metadata>
  <defs>
  <font id="iconfont" horiz-adv-x="1024">
    <font-face
      font-family="iconfont"
      font-weight="400"
      font-stretch="normal"
      units-per-em="1024"
      ascent="896"
      descent="-128"
    />
      <missing-glyph />
      
      <glyph glyph-name="logo-wechat" unicode="&#58905;" d="M570.935 384.49c-10.214 0-20.431-9.482-20.431-21.166 0-9.484 10.214-18.967 20.431-18.967 15.332 0 26.277 9.484 26.277 18.967-0.001 11.679-10.945 21.166-26.277 21.166v0 0 0zM503.799 483.015c16.057 0 26.271 10.214 26.271 25.546 0 16.053-10.214 25.541-26.271 25.541-15.328 0-29.925-9.488-29.925-25.541 0-15.336 14.597-25.546 29.925-25.546v0 0 0zM511.826 832.057c-247.386 0-447.935-200.546-447.935-447.93 0-247.389 200.55-447.934 447.935-447.934 247.385 0 447.929 200.546 447.929 447.934 0 247.386-200.541 447.93-447.929 447.93v0 0 0zM427.167 270.637c-27.003 0-46.708 4.379-72.254 11.684l-73.71-37.225 21.171 62.765c-51.817 36.481-82.471 82.463-82.471 138.663 0 99.251 93.416 175.149 207.266 175.149 100.711 0 190.485-59.84 207.999-144.507-7.301 1.47-13.871 2.196-19.706 2.196-99.256 0-175.88-74.44-175.88-164.204 0-15.328 2.187-29.193 5.835-43.795-5.836-0.725-12.41-0.725-18.249-0.725v0 0 0zM731.5 199.119l14.592-52.548-55.464 31.38c-21.163-4.374-41.6-10.945-62.762-10.945-97.795 0-175.154 67.141-175.154 150.338 0 83.198 77.358 150.338 175.154 150.338 92.686 0 175.884-67.141 175.884-150.338 0-46.707-31.381-88.302-72.249-118.225v0 0 0zM359.296 534.102c-15.328 0-31.38-9.488-31.38-25.541 0-15.332 16.053-25.551 31.38-25.551 14.597 0 26.271 10.219 26.271 25.551 0 16.053-11.674 25.541-26.271 25.541v0 0 0zM685.518 384.49c-10.945 0-20.433-9.482-20.433-21.166 0-9.484 9.488-18.967 20.433-18.967 14.596 0 25.545 9.484 25.545 18.967 0 11.679-10.949 21.166-25.545 21.166v0 0 0zM685.518 384.49z"  horiz-adv-x="1025" />
      
      <glyph glyph-name="aixin1" unicode="&#58914;" d="M512 18.612187500000005c-12.735 0-24.489375 3.91875-34.775625 12.2446875-8.326875 6.8578125-211.591875 164.08125-292.8975 291.91875-26.9390625 42.121875-64.1634375 99.4284375-64.1634375 180.735 0 135.673125 101.3878125 245.8771875 225.305625 245.8771875 63.18375 0 123.4284375-28.8984375 166.5309375-79.3471875 42.6121875 50.9390625 102.3675 79.3471875 166.040625 79.3471875 124.408125 0 225.3065625-110.2040625 225.3065625-245.878125 0-79.8365625-34.775625-134.6934375-63.18375-179.265l-0.9796875-1.4690625c-81.3065625-127.8375-284.5715625-285.55125-292.8984375-291.91875-9.7959375-7.8365625-21.5503125-12.24375-34.2853125-12.24375zM345.4690625 710.2040625c-102.856875 0-186.121875-92.5715625-186.121875-206.6934375 0-69.55125 31.8365625-119.510625 57.7959375-159.6740625 77.878125-121.959375 275.754375-275.7553125 284.08125-282.121875 3.4284375-2.4496875 6.856875-3.91875 10.775625-3.91875s7.3471875 1.4690625 10.775625 3.91875c8.326875 6.3665625 206.203125 160.1625 284.08125 282.121875l0.9796875 1.47c26.44875 42.121875 56.81625 89.6325 56.81625 158.203125 0 113.6334375-83.7553125 206.694375-186.121875 206.694375-56.326875 0-108.735-27.4284375-144-75.91875l-5.878125-8.3259375c-3.91875-4.8984375-9.7959375-7.8375-15.673125-7.8375s-12.2446875 2.9390625-15.673125 7.8375l-5.878125 8.3259375c-37.224375 48-90.121875 75.91875-145.959375 75.91875z"  horiz-adv-x="1024" />
      
      <glyph glyph-name="shouye" unicode="&#58937;" d="M98.033 415.789c-10.115 0-20.065 4.783-26.285 13.712-10.102 14.501-6.536 34.446 7.966 44.548l414.033 288.425a32.003 32.003 0 0 0 37.505-0.667l384.137-288.424c14.133-10.612 16.987-30.671 6.376-44.804s-30.67-16.988-44.804-6.375L511.335 696.728l-395.04-275.193a31.845 31.845 0 0 0-18.262-5.746zM831.241-31.64H608.515c-17.673 0-32 14.327-32 32V224.035H448.118V0.36c0-17.673-14.327-32-32-32H188.589c-17.673 0-32 14.327-32 32V382.833c0 17.673 14.327 32 32 32s32-14.327 32-32V32.36h163.529V256.035c0 17.673 14.327 32 32 32h192.397c17.673 0 32-14.327 32-32V32.36h158.727V382.833c0 17.673 14.327 32 32 32s32-14.327 32-32V0.36c-0.001-17.672-14.328-32-32.001-32z"  horiz-adv-x="1024" />
      
      <glyph glyph-name="shuaxin" unicode="&#58945;" d="M927.999436 364.971478a31.998984 31.998984 0 0 1-31.998984-31.998984c0-51.852948-10.147341-102.138098-30.163865-149.461048a385.47252 385.47252 0 0 0-204.377345-204.377345c-47.32295-20.016524-97.6081-30.163865-149.461048-30.163865s-102.138098 10.147341-149.461048 30.163865a385.47252 385.47252 0 0 0-204.377345 204.377345c-20.016524 47.32295-30.163865 97.6081-30.163865 149.461048s10.147341 102.138098 30.163865 149.461048a385.47252 385.47252 0 0 0 204.377345 204.377345c47.32295 20.016524 97.6081 30.163865 149.461048 30.163865a387.379888 387.379888 0 0 0 59.193424-4.533611l-56.538282-22.035878A31.998984 31.998984 0 1 1 537.892156 630.767509l137.041483 53.402685a31.998984 31.998984 0 0 1 18.195855 41.434674L639.723197 862.642739a31.998984 31.998984 0 1 1-59.630529-23.23882l26.695923-68.502679a449.969005 449.969005 0 0 1-94.786785 10.060642c-60.465003 0-119.138236-11.8488-174.390489-35.217667a449.214005 449.214005 0 0 1-238.388457-238.388457c-23.361643-55.252253-35.22128-113.925486-35.22128-174.390489s11.8488-119.138236 35.217668-174.390489a449.214005 449.214005 0 0 1 238.388457-238.388457c55.252253-23.368867 113.925486-35.217667 174.390489-35.217667s119.138236 11.8488 174.390489 35.217667A449.210393 449.210393 0 0 1 924.784365 158.57478c23.368867 55.270316 35.217667 113.925486 35.217667 174.390489a31.998984 31.998984 0 0 1-32.002596 32.006209z"  horiz-adv-x="1024" />
      
      <glyph glyph-name="shoucang" unicode="&#59577;" d="M335.008-20.629333c-35.914667-22.314667-82.88-10.773333-104.693333 25.557333a77.333333 77.333333 0 0 0-8.96 57.429333l46.485333 198.24a13.141333 13.141333 0 0 1-4.021333 12.864l-152.16 132.586667c-31.605333 27.52-35.253333 75.648-8.234667 107.733333a75.68 75.68 0 0 0 51.733333 26.752L354.848 556.8c4.352 0.362667 8.245333 3.232 10.026667 7.594667l76.938666 188.170666c16.032 39.2 60.618667 57.92 99.52 41.461334a76.309333 76.309333 0 0 0 40.832-41.461334l76.938667-188.16c1.781333-4.373333 5.674667-7.253333 10.026667-7.605333l199.712-16.277333c41.877333-3.413333 72.885333-40.458667 69.568-82.517334a76.938667 76.938667 0 0 0-26.08-51.978666l-152.16-132.586667c-3.541333-3.082667-5.141333-8.074667-4.021334-12.853333l46.485334-198.24c9.621333-41.013333-15.36-82.336-56.138667-92.224a75.285333 75.285333 0 0 0-57.525333 9.237333l-170.976 106.24a11.296 11.296 0 0 1-12.010667 0l-170.986667-106.24zM551.786667 139.968l170.976-106.24c2.624-1.621333 5.717333-2.122667 8.650666-1.408 6.410667 1.557333 10.56 8.426667 8.928 15.424l-46.485333 198.24a77.141333 77.141333 0 0 0 24.277333 75.733333L870.293333 454.293333c2.485333 2.165333 4.053333 5.312 4.330667 8.746667 0.565333 7.136-4.490667 13.173333-10.976 13.696l-199.712 16.288a75.989333 75.989333 0 0 0-64.064 47.168l-76.938667 188.16a12.309333 12.309333 0 0 1-6.538666 6.741333c-5.898667 2.496-12.725333-0.373333-15.328-6.741333l-76.949334-188.16a75.989333 75.989333 0 0 0-64.064-47.168l-199.701333-16.288a11.68 11.68 0 0 1-7.978667-4.181333 13.226667 13.226667 0 0 1 1.333334-18.261334l152.16-132.586666a77.141333 77.141333 0 0 0 24.277333-75.733334l-46.485333-198.229333a13.333333 13.333333 0 0 1 1.514666-9.877333c3.488-5.792 10.581333-7.530667 16.064-4.128l170.986667 106.229333a75.296 75.296 0 0 0 79.562667 0z"  horiz-adv-x="1024" />
      
      <glyph glyph-name="shoucang1" unicode="&#59590;" d="M335.008-20.629333c-35.914667-22.314667-82.88-10.773333-104.693333 25.557333a77.333333 77.333333 0 0 0-8.96 57.429333l46.485333 198.24a13.141333 13.141333 0 0 1-4.021333 12.864l-152.16 132.586667c-31.605333 27.52-35.253333 75.648-8.234667 107.733333a75.68 75.68 0 0 0 51.733333 26.752L354.848 556.8c4.352 0.362667 8.245333 3.232 10.026667 7.594667l76.938666 188.170666c16.032 39.2 60.618667 57.92 99.52 41.461334a76.309333 76.309333 0 0 0 40.832-41.461334l76.938667-188.16c1.781333-4.373333 5.674667-7.253333 10.026667-7.605333l199.712-16.277333c41.877333-3.413333 72.885333-40.458667 69.568-82.517334a76.938667 76.938667 0 0 0-26.08-51.978666l-152.16-132.586667c-3.541333-3.082667-5.141333-8.074667-4.021334-12.853333l46.485334-198.24c9.621333-41.013333-15.36-82.336-56.138667-92.224a75.285333 75.285333 0 0 0-57.525333 9.237333l-170.976 106.24a11.296 11.296 0 0 1-12.010667 0l-170.986667-106.24z"  horiz-adv-x="1024" />
      
      <glyph glyph-name="dianzan" unicode="&#58882;" d="M233.20432373 413.27335253c14.20946631 0 25.77832207 11.56975576 25.77832207 25.79271241 0 14.14381026-11.43934453 25.67489239-26.19294082 25.67489238-0.07644815 0-0.15559453 0-0.23204267 0l-53.26728487-0.15559453c-1.37157011 0.18167695-2.76832266 0.28600576-4.19205762 0.28600576-18.71361211 0-33.95827617-15.4137498-33.95827617-34.36030371l-0.28420751-372.52742607c0-19.02480117 14.90739258-33.90701133 33.95827617-33.90701133l1.47410068-0.05036572c0.62147901-0.02608242 1.21777471-0.05216484 1.78618886-0.05216484 0.72400869 0 1.44981738 0.02608242 1.60541192 0.10342968l52.67009004-0.07644814c0.49196602 0 0.88050323 0.10342969 0.95785049 0.10342968 0 0-0.02608242 0-0.10253057-0.05036572l3.31335351 0.12951211 0 0.33637236c11.88094482 1.9660667 20.78310937 12.16515234 20.78310938 24.43283438 0 12.29376445-8.90306367 22.49105098-20.78310938 24.4589168l0 0.67364296-43.7940079 0 1.242058 339.19062891L233.20432373 413.27605078zM869.03632901 450.5314919c-15.99565518 26.07691992-39.7305624 39.39419092-72.2651045 40.71269706-1.65577763 0.22035059-3.33943594 0.36245391-5.07345996 0.36245391l-172.04075596 0.57021328c11.77571602 35.47194961 18.22164609 73.60879307 18.2216461 107.87735918 0 23.95525869-2.64150878 48.06431279-7.81749932 71.66880879l-1.06038105 2.80969541-0.07824727-0.01349121c-10.68925254 41.16598945-47.00213261 69.66136933-89.32024072 69.66136934-48.68579092 0-85.41239063-40.64794102-85.41239063-94.54929522l-0.05216484-2.67838418c-0.05036573-1.95347549-0.10253057-3.86827734 0.05216484-5.42152441-2.45803359-89.39848799-73.71312276-164.70443057-165.72613799-175.18772286l-2.95179873-0.32378026-0.67184473-241.19936719 0-200.82304161 12.24339874-0.00449736 0.51625019-0.09803321 2.79440508 0.02428331 0.01349122 0.07195078 426.8442999-0.17448135 7.63402411 0.20775937c17.44547168 0 27.2803043 4.42589941 42.73362686 14.36506085 14.25983203 9.21335362 25.8044045 22.20684346 33.18030351 37.19248329 2.25207334 3.31335352 3.8835668 6.91001543 4.89178302 10.76749981l66.18252831 295.89038613c0.95785049 3.71358193 1.29422285 7.59714873 1.01001534 11.03911524C884.35744209 413.50719433 879.56998789 433.30636992 869.03632901 450.5314919zM834.68951651 404.38378008l-0.80225596-3.33943594 0.25992333-0.06565518-70.42675078-312.22151367-0.13041122-0.31028993c-2.01823154-4.86570146-5.4080332-8.93004521-9.75748448-11.7253503-3.00216445-1.94178339-6.31551797-3.18384141-9.80964932-3.72617402-0.41371963 0.05036573-0.82743925 0.05036573-1.242058 0.05036572l-2.66579297-0.07644814-406.79599219 0.46588447-0.15559453 344.79472939c69.90870146 31.62885557 130.21461474 65.00342724 160.91080224 147.47930859l0.25992334-0.06565517 0.98393291 2.92571631c3.26028955 9.89958779 5.79746953 19.64358193 7.55757599 28.92438896 4.7874542 25.11727031 4.58149395 49.58967832 4.55541151 51.01341328-1.55234708 11.86745362 1.06038105 21.7427581 7.73925294 29.35069981 7.55757598 8.59367373 19.04908447 12.4376669 27.0212792 12.43766689 19.85134043-0.67364297 40.0138708-27.21644737 40.09211718-42.33159931 0.02608242-0.2338418 4.73618848-23.68274326 4.7622709-48.50411397 0.05036573-24.30332227-2.33031972-39.79441934-3.39160078-45.55231524l-0.43980205 0-0.51804844-2.69187451c-4.91786543-25.94740781-13.63925214-50.79576006-25.85656934-73.83094276l-0.8544208-2.51019844 0.10432969-0.1160209c-1.65757588-4.12820068-2.51019844-8.47585371-2.51019844-12.92783467 0-22.0008832 23.83743779-22.0008832 36.64835244-22.0008832l205.12032803-0.23204268 6.28943555-0.19426816c1.11344502-0.03957276 2.19990849-0.07824727 3.15775898-0.10432969l0-0.374146 4.86749971 0.21855147c9.18727119 0 17.52281982-4.69751484 22.33545645-12.56538077C836.06108662 419.96481562 837.04501953 411.8757 834.68951651 404.38378008z"  horiz-adv-x="1024" />
      
      <glyph glyph-name="pinglun" unicode="&#59381;" d="M520.9888142 42.425071160000016c-61.39359936 0-122.14000348 14.11243793-176.36052947 40.82719234l-105.72642926-22.25630299a26.94846399 26.94846399 0 0 0-31.9462444 31.92826734l17.77987373 84.47687286C177.38241278 234.98344311000005 152.44744353 303.01078686000005 152.44744353 375.0111858 152.44744353 558.41894531 317.76970916 707.5973012100001 520.9888142 707.5973012100001 724.18994141 707.5973012100001 889.53018488 558.41894531 889.53018488 375.0111858 889.53018488 191.62140411999997 724.18994141 42.425071160000016 520.9888142 42.425071160000016z m-172.60320525 96.14435334c4.33260809 0 8.64723913-1.06068011 12.54838452-3.09215191C409.59943147 109.87713102999999 464.95254816 96.35795482000003 520.9888142 96.35795482000003 694.45494489 96.35795482000003 835.59730121 221.35640063999995 835.59730121 375.0111858S694.45494489 653.6644175399999 520.9888142 653.6644175399999C347.50470491 653.6644175399999 206.38032643 528.66597096 206.38032643 375.0111858c0-62.99360767 23.37091584-122.53551129 67.61385886-172.24365234 5.69890837-6.38205773 8.03599957-15.10120746 6.25621443-23.46080428l-12.00905554-57.02503557 74.57120049 15.71244702c1.85169574 0.37752997 3.70339147 0.57528387 5.57306428 0.57528387z m28.76420483 236.4417613a35.95525603 35.95525603 0 1 0-71.9105113 0.03595567 35.95525603 35.95525603 0 0 0 71.9105113-0.03595567z m179.77627785 0a35.95525603 35.95525603 0 1 0-71.9105113 0.03595567 35.95525603 35.95525603 0 0 0 71.91051129-0.03595567z m179.77627861 0a35.95525603 35.95525603 0 1 0-71.91051129 0.03595567 35.95525603 35.95525603 0 0 0 71.91051129-0.03595567z"  horiz-adv-x="1024" />
      
      <glyph glyph-name="position" unicode="&#58892;" d="M670.9944303 328.27163600999995C707.55621147 391.34552443 724.9137516 441.47802258 724.9137516 476.69714356c0 117.58922338-95.32452822 212.9137516-212.9137516 212.9137516S299.0862484 594.28636694 299.0862484 476.69714356c0-35.21984518 17.35754014-85.35161913 53.9193213-148.42550755C388.82432533 266.47740268999996 441.84781564 194.28732954999998 512 112.11348438000005c70.15218436 82.17384517 123.17495048 154.3646425 158.9944303 216.15815163zM539.25875378 43.97529029999998a36.20982171 36.20982171 0 0 0-3.42327655-3.42327654c-15.05459547-13.16371858-37.92978822-11.63059474-51.09423101 3.42327654C317.51922023 235.21384264000005 233.90856933 379.45421898999996 233.90856933 476.69714356 233.90856933 630.28255069 358.41459286 754.78857422 512 754.78857422s278.09143067-124.50602353 278.09143067-278.09143067c0-97.24292457-83.61065089-241.48330092-250.83267689-432.72112906zM512 360.82571411000004c63.99434209 0 115.87142945 51.87708736 115.87142945 115.87142944s-51.87708736 115.87142945-115.87142945 115.87142945-115.87142945-51.87708736-115.87142945-115.87142944 51.87708736-115.87142945 115.87142945-115.87142945z m0 65.17767906c-27.99743414 0-50.69375038 22.69631624-50.69375038 50.69375039s22.69631624 50.69375038 50.69375038 50.69375038 50.69375038-22.69631624 50.69375038-50.69375038-22.69631624-50.69375038-50.69375038-50.69375039z"  horiz-adv-x="1024" />
      
      <glyph glyph-name="zuojiantou" unicode="&#59045;" d="M633.52921408 48.674419899999975L341.65542002 340.54821397c-11.74556092 11.74556092-18.127542 27.29315311-18.12754197 43.92703995s6.4498745 32.18147903 18.12754198 43.92703994L633.52921408 720.20819449c15.1402317 15.1402317 39.71764818 15.1402317 54.85787988 1e-8 15.1402317-15.1402317 15.1402317-39.71764818 0-54.85787988L407.51203324 384.40736049l280.94295414-280.94295411c15.1402317-15.1402317 15.1402317-39.71764818 0-54.85787989-7.60406256-7.60406256-17.51650124-11.33820042-27.49683335-11.33820042-9.91243869 0.06789342-19.82487738 3.80203128-27.42893995 11.40609383z m0 0"  horiz-adv-x="1024" />
      
      <glyph glyph-name="a-activity-time-icon" unicode="&#58910;" d="M510.025143 734.134857c-201.947429 0-365.714286-164.864-365.714286-368.274286 0-203.337143 163.766857-368.201143 365.714286-368.201142s365.714286 164.864 365.714286 368.201142c0 203.410286-163.766857 368.274286-365.714286 368.274286z m0-73.142857c161.426286 0 292.571429-132.022857 292.571428-295.131429 0-163.108571-131.145143-295.058286-292.571428-295.058285s-292.571429 131.949714-292.571429 295.058285c0 163.108571 131.145143 295.131429 292.571429 295.131429zM510.025143 549.814857a36.571429 36.571429 0 0 0 35.986286-29.988571l0.585142-6.582857-0.073142-147.529143h146.285714a36.571429 36.571429 0 0 0 36.059428-29.988572l0.585143-6.582857a36.571429 36.571429 0 0 0-29.988571-36.059428l-6.582857-0.585143h-182.857143a36.571429 36.571429 0 0 0-35.986286 29.988571l-0.585143 6.582857V513.243429a36.571429 36.571429 0 0 0 36.571429 36.571428z"  horiz-adv-x="1024" />
      
      <glyph glyph-name="activity-add-icon" unicode="&#58911;" d="M509.001143 727.405714C347.428571 727.405714 216.429714 595.529143 216.429714 432.786286 216.429714 334.628571 266.898286 228.278857 349.037714 129.097143c31.817143-38.546286 66.779429-73.581714 98.816-100.205714 10.678857-8.777143 20.699429-16.384 29.622857-22.454858l13.531429-8.557714 17.993143-10.166857 23.04 13.165714c10.825143 6.656 23.844571 16.237714 38.034286 28.086857 32.109714 26.550857 67.072 61.586286 98.962285 100.132572C751.104 228.278857 801.572571 334.555429 801.572571 432.786286 801.572571 595.529143 670.573714 727.405714 509.001143 727.405714z m0-73.142857c121.051429 0 219.428571-99.035429 219.428571-221.476571 0-78.189714-43.446857-169.764571-115.785143-257.170286-28.964571-34.962286-60.708571-66.779429-89.234285-90.404571L509.001143 73.801143l-14.482286 11.410286a703.049143 703.049143 0 0 0-89.234286 90.404571C333.092571 263.021714 289.572571 354.596571 289.572571 432.786286 289.572571 555.227429 387.949714 654.262857 509.001143 654.262857zM435.858286 432.932571a73.654857 73.142857 90 1 1 146.285714 0 73.654857 73.142857 90 1 1-146.285714 0Z"  horiz-adv-x="1024" />
      
      <glyph glyph-name="xiazai" unicode="&#58933;" d="M384 448V768h256v-320h192l-320-320-320 320h192z m-192-384h640v-64H192v64z"  horiz-adv-x="1024" />
      
      <glyph glyph-name="caidan" unicode="&#58934;" d="M203.7963283 590.02145081m-59.09998723 0a59.09998723 59.09998723 0 1 1 118.19997446 0 59.09998723 59.09998723 0 1 1-118.19997446 0ZM203.7963283 383.86191591m-59.09998723 0a59.09998723 59.09998723 0 1 1 118.19997446 0 59.09998723 59.09998723 0 1 1-118.19997446 0ZM203.7963283 178.11663327999997m-59.09998723 0a59.09998723 59.09998723 0 1 1 118.19997446 0 59.09998723 59.09998723 0 1 1-118.19997446 0ZM840.08777955 649.12143803H402.91357497c-37.28270222 0-67.66120033-26.51214381-67.66120031-59.09998722 0-32.58784341 30.24041403-59.09998723 67.66120031-59.09998724h437.17420458c37.28270222 0 67.66120033 26.51214381 67.66120033 59.09998724 0 32.58784341-30.24041403 59.09998723-67.66120033 59.09998722zM840.08777955 444.06657581H402.91357497c-37.28270222 0-67.66120033-26.51214381-67.66120031-59.09998722 0-32.58784341 30.24041403-59.09998723 67.66120031-59.09998725h437.17420458c37.28270222 0 67.66120033 26.51214381 67.66120033 59.09998725 0 32.58784341-30.3784981 59.09998723-67.66120033 59.09998722zM840.08777955 237.21662050999998H402.91357497c-37.28270222 0-67.66120033-26.51214381-67.66120031-59.09998723 0-32.58784341 30.24041403-59.09998723 67.66120031-59.09998721h437.17420458c37.28270222 0 67.66120033 26.51214381 67.66120033 59.09998721 0 32.7259275-30.3784981 59.09998723-67.66120033 59.09998723z"  horiz-adv-x="1024" />
      
      <glyph glyph-name="youjiantou" unicode="&#58891;" d="M332.501333 712.832a42.666667 42.666667 0 0 0 57.621334 2.496l2.709333-2.496 298.666667-298.666667a42.666667 42.666667 0 0 0 2.496-57.621333l-2.496-2.709333-298.666667-298.666667a42.666667 42.666667 0 0 0-62.826667 57.621333l2.496 2.709334L600.96 384 332.501333 652.501333a42.666667 42.666667 0 0 0-2.496 57.621334l2.496 2.709333z"  horiz-adv-x="1024" />
      
      <glyph glyph-name="aixin" unicode="&#58895;" d="M516.22704073 23.937043939999967S-63.14739677 411.65564121 189.0360749 689.74098105c15.91885722 17.53772344 35.61506982 31.38802822 57.64964502 40.2917959C356.6787251 774.37174013 439.87049052 729.04346953 482.14090127 695.1372044c18.07734551-14.56980117 43.97921455-14.56980117 62.05656094 0C587.27730606 729.6730292 672.80743496 776.17048067 786.03817344 727.42460244c17.44778672-7.55471162 33.45658066-18.1672831 47.03707354-31.47796494C1102.43669434 432.61097227 516.22704073 23.937043939999967 516.22704073 23.937043939999967"  horiz-adv-x="1024" />
      
      <glyph glyph-name="yanjing" unicode="&#59591;" d="M512 704c156.448 0 296.021333-98.730667 418.410667-291.605333a52.938667 52.938667 0 0 0 0-56.789334C808.021333 162.730667 668.448 64 512 64c-156.448 0-296.021333 98.730667-418.410667 291.605333a52.938667 52.938667 0 0 0 0 56.789334C215.978667 605.269333 355.552 704 512 704z m0-128c-106.037333 0-192-85.962667-192-192s85.962667-192 192-192 192 85.962667 192 192-85.962667 192-192 192z m0-320c70.688 0 128 57.312 128 128s-57.312 128-128 128-128-57.312-128-128 57.312-128 128-128z"  horiz-adv-x="1024" />
      
      <glyph glyph-name="shijian" unicode="&#58881;" d="M774.03509052 646.03643964c-144.48164151 144.50862305-379.58853867 144.50862305-524.07197929 1e-8-144.50772393-144.48164151-144.50772393-379.59033779 0-524.07287842 144.48344062-144.50772393 379.59123691-144.50772393 524.07197929 0C918.5446127 266.44610185 918.5446127 501.55479815 774.03509052 646.03643964zM736.42618935 159.57515977000003c-123.74799873-123.77588027-325.13136065-123.74799873-448.8514787 0-123.77498027 123.74799873-123.77498027 325.10347998 0 448.86496992 123.72101719 123.73540752 325.10437911 123.76148994 448.8514787 0C860.17328808 484.70472217 860.17328808 283.29617695 736.42618935 159.57515977000003zM696.08763828 375.65455840000004L514.99182148 375.65455840000004l0.02518331 200.34546592c0 13.29298769-10.86553301 24.1333374-24.17111192 24.1333374s-24.11984708-10.84035058-24.11984707-24.1333374l0-206.64479443c0-0.73390254-0.89039619-18.005792 10.62989297-30.28696524 7.32283506-7.74285029 17.61185917-11.67948105 30.89225479-11.67948106l187.84034384-0.02788066c13.30737803 0 24.1459295 10.81426816 24.1459295 24.14772774C720.23266865 364.76294297000004 709.42019873 375.57631113 696.08763828 375.65455840000004z"  horiz-adv-x="1024" />
      
      <glyph glyph-name="sanjiaoright" unicode="&#59063;" d="M740.72587625 384L283.27412375 726.2102737499999l0-684.4205475L740.72587625 384"  horiz-adv-x="1024" />
      
      <glyph glyph-name="xiajiantou" unicode="&#58880;" d="M119.64101943 580.17949072l392.35898057-392.35898144 392.35898057 392.35898144z"  horiz-adv-x="1024" />
      
    </font>
</defs>
</svg>
