<svg width="382" height="166" viewBox="0 0 382 166" fill="none" xmlns="http://www.w3.org/2000/svg">
<mask id="mask0_1050_53388" style="mask-type:alpha" maskUnits="userSpaceOnUse" x="0" y="0" width="382" height="166">
<rect width="382" height="166" fill="#D9D9D9"/>
</mask>
<g mask="url(#mask0_1050_53388)">
<path fill-rule="evenodd" clip-rule="evenodd" d="M0 5C0 2.23858 2.23858 0 5 0H377C379.761 0 382 2.23858 382 5V119C381.998 119 381.995 119 381.993 119C376.163 119 371.438 123.477 371.438 129C371.438 134.523 376.163 139 381.993 139C381.995 139 381.998 139 382 139V161C382 163.761 379.761 166 377 166H5C2.23857 166 0 163.761 0 161V139C5.82648 138.996 10.5486 134.521 10.5486 129C10.5486 123.479 5.82648 119.004 0 119V5Z" fill="url(#paint0_linear_1050_53388)"/>
<rect opacity="0.1" x="131.562" y="-76.2" width="88.7872" height="224.857" transform="rotate(60 131.562 -76.2)" fill="white"/>
<rect opacity="0.2" x="110.484" y="-90.6038" width="86.9443" height="224.857" transform="rotate(60 110.484 -90.6038)" fill="white"/>
<rect opacity="0.3" x="90.7344" y="-110" width="86.9443" height="224.857" transform="rotate(60 90.7344 -110)" fill="white"/>
<g opacity="0.1">
<path d="M354.312 105.814C352.788 95.0456 347.427 85.1893 339.215 78.058C331.003 70.9267 320.493 67 309.617 67C298.741 67 288.231 70.9267 280.019 78.058C271.807 85.1893 266.446 95.0456 264.922 105.814C253.699 107.375 243.473 113.1 236.275 121.852C229.078 130.604 225.435 141.743 226.071 153.057C226.707 164.371 231.575 175.031 239.707 182.922C247.84 190.813 258.643 195.356 269.971 195.649H271.159C272.826 195.501 274.377 194.731 275.504 193.494C276.632 192.257 277.253 190.641 277.247 188.967V170.258C277.247 168.486 276.543 166.786 275.29 165.533C274.037 164.28 272.337 163.576 270.565 163.576C268.793 163.576 267.093 164.28 265.84 165.533C264.587 166.786 263.883 168.486 263.883 170.258V181.394C258.841 180.221 254.162 177.833 250.253 174.438C246.344 171.044 243.324 166.746 241.455 161.918C239.586 157.09 238.925 151.879 239.529 146.737C240.133 141.596 241.984 136.679 244.922 132.416C247.859 128.153 251.793 124.673 256.382 122.277C260.972 119.881 266.077 118.643 271.254 118.67C276.431 118.697 281.523 119.988 286.087 122.432C290.651 124.875 294.548 128.397 297.441 132.691C300.981 137.963 302.891 144.159 302.935 150.509C302.933 159.171 305.423 167.651 310.108 174.937C314.793 182.223 321.476 188.007 329.358 191.598C337.24 195.19 345.99 196.438 354.562 195.193C363.134 193.949 371.167 190.264 377.703 184.578C384.238 178.893 389 171.447 391.419 163.13C393.839 154.813 393.814 145.975 391.348 137.671C388.882 129.367 384.079 121.948 377.512 116.3C370.945 110.651 362.891 107.011 354.312 105.814V105.814ZM348.075 182.285C343.902 182.285 339.77 181.463 335.915 179.867C332.06 178.27 328.557 175.929 325.606 172.978C322.655 170.028 320.315 166.525 318.718 162.669C317.121 158.814 316.299 154.682 316.299 150.509C316.299 149.024 316.151 147.539 316.002 146.054C315.854 144.57 315.854 145.163 315.854 144.718L315.408 141.897C315.251 141.365 315.151 140.817 315.111 140.263C314.814 139.372 314.666 138.482 314.369 137.739C314.239 137.125 314.039 136.527 313.775 135.957C313.595 135.194 313.346 134.449 313.032 133.73C312.813 133.173 312.565 132.628 312.29 132.097L311.25 129.869L310.36 128.384C310.053 127.644 309.654 126.946 309.172 126.306C308.912 125.755 308.561 125.253 308.132 124.821L306.647 122.742C306.383 122.281 306.03 121.877 305.608 121.554L303.826 119.475L302.935 118.436L300.114 115.911L299.817 115.614L296.55 113.239L295.362 112.496L292.986 111.011L291.502 110.269L289.274 109.229L287.641 108.487L285.265 107.596L283.483 107.151L281.107 106.557L279.326 106.111H278.435C279.954 98.3653 284.301 91.462 290.631 86.7457C296.96 82.0294 304.819 79.8377 312.676 80.5974C320.532 81.3572 327.825 85.014 333.134 90.8557C338.442 96.6974 341.387 104.306 341.393 112.199C341.393 113.971 342.097 115.671 343.351 116.924C344.604 118.177 346.303 118.881 348.075 118.881C356.503 118.881 364.585 122.229 370.545 128.188C376.504 134.147 379.852 142.23 379.852 150.658C379.852 159.085 376.504 167.168 370.545 173.127C364.585 179.086 356.503 182.434 348.075 182.434V182.285Z" fill="white"/>
<path d="M263.891 150.509C263.891 151.831 264.283 153.123 265.017 154.221C265.751 155.32 266.795 156.177 268.015 156.682C269.236 157.188 270.58 157.32 271.876 157.063C273.172 156.805 274.363 156.168 275.297 155.234C276.232 154.299 276.868 153.109 277.126 151.813C277.384 150.517 277.252 149.173 276.746 147.952C276.24 146.731 275.384 145.687 274.285 144.953C273.186 144.219 271.894 143.827 270.573 143.827C268.8 143.827 267.101 144.531 265.848 145.784C264.595 147.037 263.891 148.737 263.891 150.509V150.509Z" fill="white"/>
<path d="M263.891 150.509C263.891 151.831 264.283 153.123 265.017 154.221C265.751 155.32 266.795 156.177 268.015 156.682C269.236 157.188 270.58 157.32 271.876 157.063C273.172 156.805 274.363 156.168 275.297 155.234C276.232 154.299 276.868 153.109 277.126 151.813C277.384 150.517 277.252 149.173 276.746 147.952C276.24 146.731 275.384 145.687 274.285 144.953C273.186 144.219 271.894 143.827 270.573 143.827C268.8 143.827 267.101 144.531 265.848 145.784C264.595 147.037 263.891 148.737 263.891 150.509V150.509Z" fill="white"/>
</g>
<path d="M359.5 129.5L20.5 129.5" stroke="white" stroke-linecap="round" stroke-dasharray="6 6"/>
</g>
<rect x="248" y="24" width="114" height="32" rx="16" fill="url(#paint1_linear_1050_53388)"/>
<path d="M278.12 35.662H283.314C283.104 34.99 282.88 34.374 282.642 33.8L284.182 33.548C284.378 34.164 284.588 34.878 284.784 35.662H289.922V36.95H278.12V35.662ZM277.644 44.412H284.518C285.33 42.592 286.058 40.31 286.674 37.594L288.088 37.958C287.528 40.38 286.856 42.536 286.058 44.412H290.398V45.7H277.644V44.412ZM281.368 37.594C281.984 39.386 282.516 41.458 282.992 43.796L281.564 44.16C281.144 42.046 280.612 40.016 279.968 38.056L281.368 37.594ZM293.534 37.916V39.54H296.474V37.916H293.534ZM296.474 36.726V35.186H293.534V36.726H296.474ZM292.12 46.05L291.658 44.776C292.036 44.636 292.232 44.412 292.232 44.09V33.996H297.706V40.772H293.534V44.342C294.598 44.034 295.55 43.712 296.39 43.376C296.152 42.984 295.914 42.606 295.676 42.214L296.684 41.57C297.552 42.9 298.21 44.062 298.672 45.042L297.636 45.77C297.44 45.35 297.23 44.93 297.006 44.482C295.578 45.084 293.94 45.602 292.12 46.05ZM302.48 44.524H301.36L301.01 43.236L302.046 43.278C302.438 43.278 302.634 43.082 302.634 42.718V35.256H300.492V46.4H299.162V34.01H303.964V43.012C303.964 44.02 303.46 44.524 302.48 44.524ZM309.788 34.836H313.302V33.52H314.632V34.836H318.398V36.11H314.632V37.216H317.866V41.374H314.576C314.464 42.522 314.254 43.432 313.932 44.09C315.276 44.776 316.802 45.154 318.51 45.238L318.188 46.512C316.284 46.386 314.618 45.924 313.176 45.112C312.42 45.826 311.244 46.288 309.648 46.512L309.074 45.308C310.39 45.196 311.37 44.874 312 44.356C311.23 43.782 310.544 43.11 309.928 42.354L310.95 41.654C311.482 42.312 312.084 42.886 312.756 43.362C312.98 42.83 313.148 42.172 313.232 41.374H310.18V37.216H313.302V36.11H309.788V34.836ZM316.62 40.184V38.392H314.632V40.184H316.62ZM313.302 40.184V38.392H311.426V40.184H313.302ZM307.044 39.106C306.666 39.582 306.26 40.058 305.84 40.52L305.406 39.092C306.778 37.468 307.786 35.578 308.43 33.408L309.69 33.996C309.354 35.06 308.92 36.068 308.388 37.048V46.47H307.044V39.106ZM322.164 38.602V40.744H325.384V38.602H322.164ZM322.094 41.976C321.926 43.74 321.408 45.196 320.54 46.344L319.518 45.434C320.358 44.23 320.792 42.704 320.82 40.856V33.996H331.558V44.538C331.558 45.588 331.012 46.12 329.948 46.12H328.338L327.988 44.818C328.534 44.86 329.038 44.888 329.514 44.888C329.962 44.888 330.2 44.608 330.2 44.062V41.976H326.728V45.966H325.384V41.976H322.094ZM330.2 40.744V38.602H326.728V40.744H330.2ZM330.2 37.384V35.284H326.728V37.384H330.2ZM325.384 35.284H322.164V37.384H325.384V35.284Z" fill="white"/>
<defs>
<linearGradient id="paint0_linear_1050_53388" x1="0" y1="0" x2="372.54" y2="181.326" gradientUnits="userSpaceOnUse">
<stop offset="0.00789421" stop-color="#FFEFC4"/>
<stop offset="1" stop-color="#FFD28E"/>
</linearGradient>
<linearGradient id="paint1_linear_1050_53388" x1="265.5" y1="24" x2="305" y2="56" gradientUnits="userSpaceOnUse">
<stop stop-color="#FE9C09"/>
<stop offset="1" stop-color="#FE7A09"/>
</linearGradient>
</defs>
</svg>
