<svg width="49" height="24" viewBox="0 0 49 24" fill="none" xmlns="http://www.w3.org/2000/svg">
<path d="M14.9766 4.33594H40.3852C44.618 4.33594 48.0494 7.76735 48.0494 12.0002V12.0002C48.0494 16.2331 44.618 19.6645 40.3852 19.6645H14.9766V4.33594Z" fill="url(#paint0_linear_2185_78549)"/>
<g filter="url(#filter0_f_2185_78549)">
<path d="M14.0469 4.90527H39.7404C43.8159 4.90527 47.1197 8.20913 47.1197 12.2846V12.2846C47.1197 16.3602 43.8159 19.664 39.7404 19.664H14.0469V4.90527Z" fill="url(#paint1_linear_2185_78549)"/>
</g>
<path d="M24.1932 5.04395H19.7956L18.8047 19.6178H24.1932V5.04395Z" fill="url(#paint2_linear_2185_78549)"/>
<mask id="mask0_2185_78549" style="mask-type:alpha" maskUnits="userSpaceOnUse" x="22" y="9" width="2" height="6">
<path d="M23.8849 9.33398L22.4922 10.455V14.6673L23.8849 13.4783V9.33398Z" fill="url(#paint3_linear_2185_78549)" stroke="white" stroke-width="0.2"/>
</mask>
<g mask="url(#mask0_2185_78549)">
<path d="M23.8849 9.33398L22.4922 10.455V14.6673L23.8849 13.4783V9.33398Z" fill="url(#paint4_linear_2185_78549)" stroke="white" stroke-width="0.2"/>
<g filter="url(#filter1_f_2185_78549)">
<path d="M23.549 8.95117L22.1562 10.0722V14.2845L23.549 13.0955V8.95117Z" fill="#F0DEF3"/>
</g>
</g>
<mask id="mask1_2185_78549" style="mask-type:alpha" maskUnits="userSpaceOnUse" x="0" y="9" width="2" height="6">
<path d="M0.193228 9.33398L1.58594 10.455V14.6673L0.193228 13.4783V9.33398Z" fill="url(#paint5_linear_2185_78549)" stroke="white" stroke-width="0.2"/>
</mask>
<g mask="url(#mask1_2185_78549)">
<path d="M0.193228 9.33398L1.58594 10.455V14.6673L0.193228 13.4783V9.33398Z" fill="url(#paint6_linear_2185_78549)" stroke="white" stroke-width="0.2"/>
<g filter="url(#filter2_f_2185_78549)">
<path d="M0.529165 8.95117L1.92188 10.0722V14.2845L0.529165 13.0955V8.95117Z" fill="#F0DEF3"/>
</g>
</g>
<path d="M13.0657 0.657973L21.5213 5.51027C22.1116 5.84901 22.4757 6.47762 22.4757 7.15821V16.8418C22.4757 17.5224 22.1116 18.151 21.5213 18.4897L13.0657 23.342C12.48 23.6781 11.76 23.6781 11.1743 23.342L2.7187 18.4897C2.1284 18.151 1.76437 17.5224 1.76437 16.8418V7.15821C1.76437 6.47762 2.1284 5.84901 2.7187 5.51027L11.1743 0.657973C11.76 0.321891 12.48 0.321891 13.0657 0.657973Z" fill="url(#paint7_linear_2185_78549)" stroke="white" stroke-width="0.2"/>
<path d="M20.7973 6.38839L12.6713 1.72525C12.3322 1.53068 11.9153 1.53068 11.5763 1.72525L3.45024 6.38839C3.10849 6.58451 2.89774 6.94844 2.89774 7.34246V16.6582C2.89774 17.0523 3.10849 17.4162 3.45024 17.6123L11.5763 22.2755C11.9153 22.47 12.3322 22.47 12.6713 22.2755L20.7973 17.6123C21.139 17.4162 21.3498 17.0523 21.3498 16.6582V7.34246C21.3498 6.94844 21.139 6.58451 20.7973 6.38839Z" fill="url(#paint8_linear_2185_78549)" stroke="url(#paint9_linear_2185_78549)" stroke-width="0.2"/>
<g filter="url(#filter3_ii_2185_78549)">
<path d="M11.8656 2.50023C12.0197 2.41179 12.2092 2.41179 12.3633 2.50023L20.2641 7.03411C20.4194 7.12326 20.5152 7.28868 20.5152 7.46778V16.5303C20.5152 16.7094 20.4194 16.8748 20.2641 16.964L12.3633 21.4978C12.2092 21.5863 12.0197 21.5863 11.8656 21.4978L3.96481 16.964C3.80946 16.8748 3.71367 16.7094 3.71367 16.5303V7.46778C3.71367 7.28868 3.80946 7.12326 3.96481 7.03411L11.8656 2.50023Z" fill="url(#paint10_linear_2185_78549)"/>
</g>
<g filter="url(#filter4_f_2185_78549)">
<ellipse rx="2.92968" ry="0.0770404" transform="matrix(0.867336 -0.497723 0.502281 0.864705 17.775 18.8624)" fill="white"/>
</g>
<g filter="url(#filter5_f_2185_78549)">
<ellipse rx="1.73388" ry="0.0681841" transform="matrix(0.867336 -0.497723 0.502281 0.864705 17.9131 18.818)" fill="white"/>
</g>
<g filter="url(#filter6_f_2185_78549)">
<ellipse rx="4.38279" ry="0.293392" transform="matrix(0.867336 -0.497723 0.502281 0.864705 8.88622 5.47755)" fill="white"/>
</g>
<ellipse rx="2.82651" ry="0.141208" transform="matrix(0.867336 -0.497723 0.502281 0.864705 8.89746 5.38032)" fill="white"/>
<ellipse rx="1.00875" ry="0.0503954" transform="matrix(0.867336 -0.497723 0.502281 0.864705 8.90023 5.37939)" fill="white"/>
<path d="M11.7825 6.41741C11.9641 6.03927 12.5025 6.03927 12.684 6.41741L14.0058 9.17068C14.079 9.32301 14.2241 9.4281 14.3916 9.45005L17.4295 9.84807C17.8473 9.90282 18.0142 10.4183 17.7076 10.7075L15.4894 12.8005C15.3657 12.9172 15.3098 13.0886 15.3409 13.2558L15.8984 16.2481C15.9754 16.6612 15.5393 16.9792 15.1695 16.7797L12.4707 15.3238C12.3225 15.2439 12.1441 15.2439 11.9959 15.3238L9.29706 16.7797C8.92722 16.9792 8.49117 16.6612 8.56813 16.2481L9.1256 13.2558C9.15673 13.0886 9.10083 12.9172 8.97719 12.8005L6.75891 10.7075C6.45237 10.4183 6.61921 9.90282 7.03709 9.84807L10.0749 9.45005C10.2425 9.4281 10.3876 9.32301 10.4607 9.17068L11.7825 6.41741Z" fill="white"/>
<mask id="mask2_2185_78549" style="mask-type:alpha" maskUnits="userSpaceOnUse" x="7" y="6" width="11" height="11">
<path d="M11.9722 6.92661C12.0812 6.69973 12.4042 6.69973 12.5131 6.92662L13.8061 9.61977C13.8499 9.71116 13.937 9.77422 14.0375 9.78739L17.011 10.177C17.2617 10.2098 17.3618 10.5191 17.1779 10.6926L15.0051 12.7427C14.9309 12.8127 14.8974 12.9156 14.9161 13.0158L15.4619 15.9456C15.5081 16.1935 15.2464 16.3843 15.0245 16.2646L12.3851 14.8407C12.2962 14.7928 12.1891 14.7928 12.1002 14.8407L9.46083 16.2646C9.23893 16.3843 8.9773 16.1935 9.02347 15.9456L9.56929 13.0158C9.58797 12.9156 9.55443 12.8127 9.48024 12.7427L7.30747 10.6926C7.12355 10.5191 7.22366 10.2098 7.47438 10.177L10.4478 9.78739C10.5483 9.77422 10.6354 9.71116 10.6793 9.61977L11.9722 6.92661Z" fill="url(#paint11_linear_2185_78549)"/>
</mask>
<g mask="url(#mask2_2185_78549)">
<path d="M12.2427 6.36328L13.8764 9.76627L17.6374 10.259L14.8861 12.855L15.5768 16.5625L12.2427 14.7639L8.90855 16.5625L9.59926 12.855L6.84794 10.259L10.609 9.76627L12.2427 6.36328Z" fill="#FEF7FF"/>
</g>
<g filter="url(#filter7_d_2185_78549)">
<path d="M31.5381 16.2852H29.6541L28.2981 8.56916H29.9061L29.9781 9.56516L30.7581 14.7972H30.8541L33.1101 9.64916L33.4581 8.56916H35.0061L31.5381 16.2852ZM37.5899 10.1532C38.1259 10.1532 38.5619 10.2812 38.8979 10.5372C39.2419 10.7932 39.4139 11.1372 39.4139 11.5692C39.4139 11.8892 39.2859 12.2292 39.0299 12.5892C38.7739 12.9412 38.3179 13.4452 37.6619 14.1012L36.7499 15.0372L36.7739 15.0972H38.4059L39.4979 15.0012L39.5699 15.0972L39.2339 16.3572L37.8059 16.2852H35.0819L34.6379 16.3092L34.5659 16.2492L34.6859 15.3012L36.4619 13.6692C36.9419 13.2292 37.2859 12.8852 37.4939 12.6372C37.7099 12.3812 37.8179 12.1572 37.8179 11.9652C37.8179 11.8132 37.7619 11.6932 37.6499 11.6052C37.5459 11.5172 37.3899 11.4732 37.1819 11.4732C36.9259 11.4732 36.6499 11.5372 36.3539 11.6652C36.0579 11.7932 35.7739 11.9732 35.5019 12.2052H35.3219L35.2259 10.9932C36.0579 10.4332 36.8459 10.1532 37.5899 10.1532Z" fill="white"/>
</g>
<defs>
<filter id="filter0_f_2185_78549" x="13.5469" y="4.40527" width="34.0703" height="15.7588" filterUnits="userSpaceOnUse" color-interpolation-filters="sRGB">
<feFlood flood-opacity="0" result="BackgroundImageFix"/>
<feBlend mode="normal" in="SourceGraphic" in2="BackgroundImageFix" result="shape"/>
<feGaussianBlur stdDeviation="0.25" result="effect1_foregroundBlur_2185_78549"/>
</filter>
<filter id="filter1_f_2185_78549" x="21.1562" y="7.95117" width="3.39062" height="7.33301" filterUnits="userSpaceOnUse" color-interpolation-filters="sRGB">
<feFlood flood-opacity="0" result="BackgroundImageFix"/>
<feBlend mode="normal" in="SourceGraphic" in2="BackgroundImageFix" result="shape"/>
<feGaussianBlur stdDeviation="0.5" result="effect1_foregroundBlur_2185_78549"/>
</filter>
<filter id="filter2_f_2185_78549" x="-0.46875" y="7.95117" width="3.39062" height="7.33301" filterUnits="userSpaceOnUse" color-interpolation-filters="sRGB">
<feFlood flood-opacity="0" result="BackgroundImageFix"/>
<feBlend mode="normal" in="SourceGraphic" in2="BackgroundImageFix" result="shape"/>
<feGaussianBlur stdDeviation="0.5" result="effect1_foregroundBlur_2185_78549"/>
</filter>
<filter id="filter3_ii_2185_78549" x="3.71094" y="2.43359" width="17.0047" height="19.4309" filterUnits="userSpaceOnUse" color-interpolation-filters="sRGB">
<feFlood flood-opacity="0" result="BackgroundImageFix"/>
<feBlend mode="normal" in="SourceGraphic" in2="BackgroundImageFix" result="shape"/>
<feColorMatrix in="SourceAlpha" type="matrix" values="0 0 0 0 0 0 0 0 0 0 0 0 0 0 0 0 0 0 127 0" result="hardAlpha"/>
<feOffset dy="0.3"/>
<feGaussianBlur stdDeviation="0.25"/>
<feComposite in2="hardAlpha" operator="arithmetic" k2="-1" k3="1"/>
<feColorMatrix type="matrix" values="0 0 0 0 0.624007 0 0 0 0 0.449392 0 0 0 0 0.645833 0 0 0 1 0"/>
<feBlend mode="normal" in2="shape" result="effect1_innerShadow_2185_78549"/>
<feColorMatrix in="SourceAlpha" type="matrix" values="0 0 0 0 0 0 0 0 0 0 0 0 0 0 0 0 0 0 127 0" result="hardAlpha"/>
<feOffset dx="0.2" dy="0.1"/>
<feGaussianBlur stdDeviation="0.5"/>
<feComposite in2="hardAlpha" operator="arithmetic" k2="-1" k3="1"/>
<feColorMatrix type="matrix" values="0 0 0 0 0.572248 0 0 0 0 0.454323 0 0 0 0 0.595833 0 0 0 1 0"/>
<feBlend mode="normal" in2="effect1_innerShadow_2185_78549" result="effect2_innerShadow_2185_78549"/>
</filter>
<filter id="filter4_f_2185_78549" x="14.9344" y="17.1023" width="5.67813" height="3.51992" filterUnits="userSpaceOnUse" color-interpolation-filters="sRGB">
<feFlood flood-opacity="0" result="BackgroundImageFix"/>
<feBlend mode="normal" in="SourceGraphic" in2="BackgroundImageFix" result="shape"/>
<feGaussianBlur stdDeviation="0.15" result="effect1_foregroundBlur_2185_78549"/>
</filter>
<filter id="filter5_f_2185_78549" x="16.1062" y="17.6531" width="3.60781" height="2.32949" filterUnits="userSpaceOnUse" color-interpolation-filters="sRGB">
<feFlood flood-opacity="0" result="BackgroundImageFix"/>
<feBlend mode="normal" in="SourceGraphic" in2="BackgroundImageFix" result="shape"/>
<feGaussianBlur stdDeviation="0.15" result="effect1_foregroundBlur_2185_78549"/>
</filter>
<filter id="filter6_f_2185_78549" x="4.57812" y="2.78125" width="8.60938" height="5.39258" filterUnits="userSpaceOnUse" color-interpolation-filters="sRGB">
<feFlood flood-opacity="0" result="BackgroundImageFix"/>
<feBlend mode="normal" in="SourceGraphic" in2="BackgroundImageFix" result="shape"/>
<feGaussianBlur stdDeviation="0.25" result="effect1_foregroundBlur_2185_78549"/>
</filter>
<filter id="filter7_d_2185_78549" x="28.2969" y="8.56934" width="12.2734" height="8.78809" filterUnits="userSpaceOnUse" color-interpolation-filters="sRGB">
<feFlood flood-opacity="0" result="BackgroundImageFix"/>
<feColorMatrix in="SourceAlpha" type="matrix" values="0 0 0 0 0 0 0 0 0 0 0 0 0 0 0 0 0 0 127 0" result="hardAlpha"/>
<feOffset dx="0.5" dy="0.5"/>
<feGaussianBlur stdDeviation="0.25"/>
<feComposite in2="hardAlpha" operator="out"/>
<feColorMatrix type="matrix" values="0 0 0 0 0.815104 0 0 0 0 0.6875 0 0 0 0 0.833333 0 0 0 1 0"/>
<feBlend mode="normal" in2="BackgroundImageFix" result="effect1_dropShadow_2185_78549"/>
<feBlend mode="normal" in="SourceGraphic" in2="effect1_dropShadow_2185_78549" result="shape"/>
</filter>
<linearGradient id="paint0_linear_2185_78549" x1="34.6555" y1="19.6645" x2="34.6555" y2="4.8324" gradientUnits="userSpaceOnUse">
<stop offset="0.286458" stop-color="#C79BD4"/>
<stop offset="1" stop-color="#FEF7FF"/>
</linearGradient>
<linearGradient id="paint1_linear_2185_78549" x1="18.7969" y1="12.2846" x2="42.6995" y2="19.4981" gradientUnits="userSpaceOnUse">
<stop offset="0.148194" stop-color="#CFADD8"/>
<stop offset="0.957808" stop-color="#F8E2FF"/>
</linearGradient>
<linearGradient id="paint2_linear_2185_78549" x1="16.5802" y1="13.9431" x2="24.1928" y2="13.9193" gradientUnits="userSpaceOnUse">
<stop offset="0.116787" stop-color="#C6B9C8"/>
<stop offset="1" stop-color="#CCBFCE" stop-opacity="0"/>
</linearGradient>
<linearGradient id="paint3_linear_2185_78549" x1="23.1885" y1="9.33398" x2="23.1885" y2="14.6673" gradientUnits="userSpaceOnUse">
<stop stop-color="white"/>
<stop offset="1" stop-color="#C3C3C3"/>
</linearGradient>
<linearGradient id="paint4_linear_2185_78549" x1="23.1885" y1="9.33398" x2="23.1885" y2="14.6673" gradientUnits="userSpaceOnUse">
<stop stop-color="white"/>
<stop offset="1" stop-color="#C6B6C8"/>
</linearGradient>
<linearGradient id="paint5_linear_2185_78549" x1="0.889583" y1="9.33398" x2="0.889583" y2="14.6673" gradientUnits="userSpaceOnUse">
<stop stop-color="white"/>
<stop offset="1" stop-color="#C3C3C3"/>
</linearGradient>
<linearGradient id="paint6_linear_2185_78549" x1="0.889583" y1="9.33398" x2="0.889583" y2="14.6673" gradientUnits="userSpaceOnUse">
<stop stop-color="#F9F1FB"/>
<stop offset="1" stop-color="#C5B6C8"/>
</linearGradient>
<linearGradient id="paint7_linear_2185_78549" x1="12.12" y1="-6.79688e-10" x2="12.0343" y2="23.9997" gradientUnits="userSpaceOnUse">
<stop offset="0.0280412" stop-color="#E9CFF0"/>
<stop offset="0.287783" stop-color="#F9E2FF"/>
<stop offset="0.504302" stop-color="#D1AFDA"/>
<stop offset="0.769003" stop-color="#F9E2FF"/>
<stop offset="1" stop-color="#D1AFDA"/>
</linearGradient>
<linearGradient id="paint8_linear_2185_78549" x1="12.1238" y1="1.52637" x2="12.1238" y2="22.4743" gradientUnits="userSpaceOnUse">
<stop offset="0.107703" stop-color="#B685C4"/>
<stop offset="1" stop-color="#F7DFFE"/>
</linearGradient>
<linearGradient id="paint9_linear_2185_78549" x1="12.1238" y1="1.52637" x2="8.74444" y2="22.1341" gradientUnits="userSpaceOnUse">
<stop stop-color="white"/>
<stop offset="1" stop-color="#EEEEEE"/>
</linearGradient>
<linearGradient id="paint10_linear_2185_78549" x1="10.3" y1="2.35742" x2="15.8899" y2="21.2431" gradientUnits="userSpaceOnUse">
<stop offset="0.341935" stop-color="#F0DDF2"/>
<stop offset="0.907424" stop-color="#D5B4DE"/>
</linearGradient>
<linearGradient id="paint11_linear_2185_78549" x1="11.1817" y1="6.36328" x2="14.4504" y2="17.4068" gradientUnits="userSpaceOnUse">
<stop offset="0.15619" stop-color="#FFD55F"/>
<stop offset="0.907424" stop-color="#FFC21A"/>
</linearGradient>
</defs>
</svg>
