<svg width="14" height="14" viewBox="0 0 14 14" fill="none" xmlns="http://www.w3.org/2000/svg">
<g clip-path="url(#clip0_342_96594)">
<path d="M13.5084 13.4708C13.3877 13.5898 13.1952 13.5898 13.0762 13.4708L11.4881 11.8827C11.6438 11.7506 11.7882 11.6062 11.9203 11.4505L13.5084 13.0386C13.6248 13.1576 13.6248 13.3518 13.5084 13.4708ZM8.90943 12.2283C7.05618 12.2283 5.5538 10.726 5.5538 8.8727C5.5538 7.02033 7.05705 5.51708 8.90943 5.51708C10.7636 5.51708 12.2659 7.02033 12.2659 8.8727C12.2659 10.726 10.7636 12.2283 8.90943 12.2283ZM8.90943 6.12695C7.39393 6.12695 6.16368 7.35633 6.16368 8.8727C6.16368 10.3891 7.39393 11.6193 8.90943 11.6193C10.4258 11.6193 11.6569 10.3891 11.6569 8.8727C11.6569 7.35633 10.4258 6.12695 8.90943 6.12695ZM6.77443 8.8727C6.77443 8.76945 6.78318 8.66795 6.79805 8.5682H9.2148V9.1772H6.79893C6.78318 9.07833 6.77443 8.97683 6.77443 8.8727ZM8.90943 6.7377C9.01355 6.7377 9.11418 6.74733 9.21568 6.76133V7.34758H7.4158C7.80168 6.97045 8.32843 6.7377 8.90943 6.7377ZM2.50268 9.1772V8.5682H4.9588C4.9518 8.66883 4.94393 8.76945 4.94393 8.8727C4.94393 8.97595 4.9518 9.07658 4.9588 9.17808H2.50268V9.1772ZM5.2493 7.34758H2.50268V6.7377H5.5713C5.44793 6.9302 5.33768 7.1332 5.2493 7.34758ZM2.50268 3.0767H5.55293V3.68745H2.50268V3.0767ZM5.55293 5.51708H2.50268V4.90633H5.55293V5.51708ZM10.7382 4.90633H8.29955C7.62493 4.90633 7.07805 4.35945 7.07805 3.68658V0.940828H1.58743C1.25143 0.940828 0.977551 1.2147 0.977551 1.5507V10.7023C0.977551 11.0401 1.25143 11.3122 1.58743 11.3122H5.7883C5.9633 11.5353 6.15843 11.741 6.37718 11.9221H1.58743C0.913676 11.9221 0.367676 11.3752 0.367676 10.7015V1.5507C0.367676 0.876953 0.914551 0.330078 1.58743 0.330078C1.58743 0.330078 3.93155 0.330078 6.1628 0.330078C6.21793 0.330078 6.27218 0.330078 6.3273 0.330078C6.43405 0.330078 6.53643 0.330078 6.64143 0.330078H7.49543L11.2597 4.3857L11.2413 4.49333L11.3498 4.60095V4.74095V5.5162V5.7507C11.1582 5.60195 10.9552 5.46983 10.7382 5.35695V4.90633ZM7.68968 1.44745V3.68658C7.68968 4.02258 7.96268 4.29645 8.29955 4.29645H10.3602L7.68968 1.44745Z" fill="currentColor"/>
</g>
<defs>
<clipPath id="clip0_342_96594">
<rect width="14" height="14" fill="white"/>
</clipPath>
</defs>
</svg>
