<svg width="17" height="17" viewBox="0 0 17 17" fill="currentColor" xmlns="http://www.w3.org/2000/svg">
<path d="M13.7194 4.90249C14.1433 4.79425 14.4757 5.26791 14.2299 5.62969L10.5125 11.1C10.3961 11.2713 10.1629 11.3158 9.9916 11.1994C9.8203 11.083 9.7758 10.8497 9.8922 10.6784L13.2013 5.8089L5.1016 7.87759L7.34357 9.50371C7.41269 9.55385 7.46703 9.6217 7.50085 9.70012L8.7978 12.7075C8.87981 12.8977 8.79213 13.1183 8.60196 13.2003C8.41178 13.2823 8.19113 13.1947 8.10911 13.0045L6.84207 10.0665L4.18691 8.14065C3.86118 7.9044 3.95838 7.39549 4.34825 7.29592L13.7194 4.90249Z" fill="currentColor"/>
</svg>
