<svg width="17" height="17" viewBox="0 0 17 17" fill="currentColor" xmlns="http://www.w3.org/2000/svg">
<path d="M1.55078 7.25416C1.55078 3.84842 4.31171 1.08749 7.71745 1.08749C11.1232 1.08749 13.8841 3.84842 13.8841 7.25416C13.8841 10.6599 11.1232 13.4208 7.71745 13.4208C4.31171 13.4208 1.55078 10.6599 1.55078 7.25416ZM7.71745 2.08749C4.86399 2.08749 2.55078 4.4007 2.55078 7.25416C2.55078 10.1076 4.86399 12.4208 7.71745 12.4208C10.5709 12.4208 12.8841 10.1076 12.8841 7.25416C12.8841 4.4007 10.5709 2.08749 7.71745 2.08749Z" fill="currentColor"/>
<path d="M5.47848 4.68163C5.28322 4.87689 5.28322 5.19347 5.47848 5.38874C5.67374 5.584 5.99032 5.584 6.18558 5.38874C6.57821 4.99611 7.11919 4.75415 7.71763 4.75415C8.31611 4.75415 8.85708 4.99611 9.24971 5.38874C9.44497 5.584 9.76156 5.584 9.95682 5.38874C10.1521 5.19347 10.1521 4.87689 9.95682 4.68163C9.38431 4.10912 8.59196 3.75415 7.71763 3.75415C6.84334 3.75415 6.05098 4.10913 5.47848 4.68163Z" fill="currentColor"/>
<path d="M11.438 10.9745C11.6332 10.7792 11.9498 10.7792 12.1451 10.9745L14.9735 13.8029C15.1688 13.9982 15.1688 14.3148 14.9735 14.5101C14.7782 14.7053 14.4616 14.7053 14.2664 14.5101L11.438 11.6816C11.2427 11.4864 11.2427 11.1698 11.438 10.9745Z" fill="currentColor"/>
</svg>
