<svg width="15" height="14" viewBox="0 0 15 14" fill="none" xmlns="http://www.w3.org/2000/svg">
<g id="Group 427318647">
<g id="Upload">
<path id="Vector" d="M5.35913 3.96905H6.51382V9.25499C6.51382 9.32374 6.57007 9.37999 6.63882 9.37999H7.57632C7.64507 9.37999 7.70132 9.32374 7.70132 9.25499V3.96905H8.85913C8.96382 3.96905 9.02163 3.84874 8.95757 3.76749L7.20757 1.55187C7.19588 1.53693 7.18094 1.52484 7.16388 1.51653C7.14683 1.50822 7.1281 1.50391 7.10913 1.50391C7.09016 1.50391 7.07144 1.50822 7.05438 1.51653C7.03733 1.52484 7.02239 1.53693 7.01069 1.55187L5.26069 3.76593C5.19663 3.84874 5.25444 3.96905 5.35913 3.96905V3.96905ZM12.8279 8.78624H11.8904C11.8216 8.78624 11.7654 8.84249 11.7654 8.91124V11.3175H2.45288V8.91124C2.45288 8.84249 2.39663 8.78624 2.32788 8.78624H1.39038C1.32163 8.78624 1.26538 8.84249 1.26538 8.91124V12.005C1.26538 12.2816 1.48882 12.505 1.76538 12.505H12.4529C12.7294 12.505 12.9529 12.2816 12.9529 12.005V8.91124C12.9529 8.84249 12.8966 8.78624 12.8279 8.78624Z" fill="#00A3FF"/>
</g>
</g>
</svg>
