<svg width="45" height="44" viewBox="0 0 45 44" fill="none" xmlns="http://www.w3.org/2000/svg">
<g id="Group 427318642">
<circle id="Ellipse 149" cx="22.1733" cy="22" r="22" fill="#00A3FF"/>
<path id="Rectangle 575" d="M28.6983 29.75H31.4233C32.5279 29.75 33.4233 28.8546 33.4233 27.75V18.375C33.4233 17.2704 32.5279 16.375 31.4233 16.375H12.9233C11.8188 16.375 10.9233 17.2704 10.9233 18.375V27.75C10.9233 28.8546 11.8188 29.75 12.9233 29.75H15.6483" stroke="white" stroke-width="2"/>
<path id="Rectangle 576" d="M29.9233 15.6875V12.3125C29.9233 11.2079 29.0279 10.3125 27.9233 10.3125H16.4233C15.3188 10.3125 14.4233 11.2079 14.4233 12.3125V15.6875" stroke="white" stroke-width="2"/>
<rect id="Rectangle 577" x="15.4233" y="26.5" width="13.5" height="6.5" rx="1" stroke="white" stroke-width="2"/>
<rect id="Rectangle 578" x="25.4233" y="19.25" width="5.375" height="2" rx="1" fill="white"/>
</g>
</svg>
