<svg width="45" height="44" viewBox="0 0 45 44" fill="none" xmlns="http://www.w3.org/2000/svg">
<g id="Group 427318634">
<circle id="Ellipse 149" opacity="0.07" cx="22.3989" cy="22" r="22" fill="#666666"/>
<g id="2">
<path id="&#232;&#183;&#175;&#229;&#190;&#132;" d="M30.5507 33.5311H13.138C12.5176 33.5311 12.0146 32.9995 12.0146 32.3437V12.75C12.0146 12.0942 12.5176 11.5625 13.138 11.5625H29.4273C30.0477 11.5625 30.5507 12.0942 30.5507 12.75V20.2553V21.0118" stroke="#334966" stroke-opacity="0.3" stroke-width="2" stroke-linecap="round"/>
<rect id="&#231;&#159;&#169;&#229;&#189;&#162;" x="29.9785" y="23.1729" width="1.37304" height="7.55172" rx="0.68652" transform="rotate(12 29.9785 23.1729)" fill="#334966" fill-opacity="0.3"/>
<path id="&#232;&#183;&#175;&#229;&#190;&#132;_2" d="M27.1174 30.2648L24.6902 27.8376C24.4221 27.5695 24.4221 27.1348 24.6902 26.8667L27.1174 24.4395" stroke="#334966" stroke-opacity="0.3" stroke-width="2" stroke-linecap="round"/>
<path id="&#232;&#183;&#175;&#229;&#190;&#132;_3" d="M32.6101 30.2648L35.0373 27.8376C35.3054 27.5695 35.3054 27.1348 35.0373 26.8667L32.6101 24.4395" stroke="#334966" stroke-opacity="0.3" stroke-width="2" stroke-linecap="round"/>
<rect id="&#231;&#159;&#169;&#229;&#189;&#162;_2" x="16.1343" y="14.9951" width="10.9843" height="2.05956" rx="1.02978" fill="#334966" fill-opacity="0.3"/>
<rect id="&#231;&#159;&#169;&#229;&#189;&#162;&#229;&#164;&#135;&#228;&#187;&#189; 2" x="16.1343" y="21.1738" width="8.23824" height="2.05956" rx="1.02978" fill="#334966" fill-opacity="0.3"/>
<rect id="&#231;&#159;&#169;&#229;&#189;&#162;&#229;&#164;&#135;&#228;&#187;&#189; 3" x="16.1343" y="28.0391" width="5.49216" height="2.05956" rx="1.02978" fill="#334966" fill-opacity="0.3"/>
</g>
</g>
</svg>
