<svg width="45" height="44" viewBox="0 0 45 44" fill="none" xmlns="http://www.w3.org/2000/svg">
<g id="Group 427318637">
<circle id="Ellipse 149" cx="22.3989" cy="22" r="22" fill="#00A3FF"/>
<g id="1">
<path id="&#232;&#183;&#175;&#229;&#190;&#132;" d="M25.2087 20.7672C25.6405 20.3354 26.2882 20.3354 26.72 20.7672C27.1518 21.199 27.1518 21.8467 26.72 22.2785L22.4019 26.5966C21.9701 27.0284 21.3224 27.0284 20.8906 26.5966L18.7316 24.4376C18.2998 24.0058 18.2998 23.3581 18.7316 22.9263C19.1634 22.4945 19.8111 22.4945 20.2429 22.9263L21.6463 24.3296L25.2087 20.7672Z" fill="white"/>
<path id="&#232;&#183;&#175;&#229;&#190;&#132;_2" d="M30.9353 21.5232C30.9353 20.8755 31.3671 20.4437 32.0148 20.4437C32.6625 20.4437 33.0944 20.8755 33.0944 21.5232V30.1594C33.0944 31.9946 31.691 33.3979 29.8558 33.3979H14.9422C13.107 33.3979 11.7036 31.9946 11.7036 30.1594V12.887C11.7036 11.0518 13.107 9.64844 14.9422 9.64844H26.0775C26.7252 9.64844 27.3729 9.97229 27.6967 10.4041L32.7705 16.4494C33.2023 16.8812 33.0944 17.6369 32.6625 17.9608C32.2307 18.3926 31.4751 18.2846 31.1512 17.8528L26.0775 11.8075H14.9422C14.2945 11.8075 13.8627 12.2393 13.8627 12.887V30.1594C13.8627 30.8071 14.2945 31.2389 14.9422 31.2389H29.8558C30.5035 31.2389 30.9353 30.8071 30.9353 30.1594V21.5232Z" fill="white"/>
<path id="&#232;&#183;&#175;&#229;&#190;&#132;_3" d="M25.5376 9.64844C26.7251 9.64844 27.6966 10.62 27.6966 11.8075V16.1256H32.0147V18.2846H27.6966C26.5092 18.2846 25.5376 17.313 25.5376 16.1256V9.64844Z" fill="white"/>
</g>
</g>
</svg>
