<svg width="45" height="44" viewBox="0 0 45 44" fill="none" xmlns="http://www.w3.org/2000/svg">
<g id="Group 427318639">
<circle id="Ellipse 149" opacity="0.07" cx="22.3989" cy="22" r="22" fill="#666666"/>
<g id="3">
<path id="Union" fill-rule="evenodd" clip-rule="evenodd" d="M11.1288 19.9247C11.1288 19.2427 11.5835 18.7881 12.2654 18.7881C12.9474 18.7881 13.402 19.2427 13.402 19.9247V20.5878L14.1973 19.925C15.2203 19.1294 16.4705 18.9021 17.6071 19.3567L20.5623 20.607C22.6082 21.5162 23.4038 23.1075 22.6082 24.926C22.5906 24.9633 22.5726 24.9999 22.5541 25.0358L23.6309 25.3804L29.6549 22.3116C31.2461 21.6296 32.6101 21.7433 33.4057 22.8799C34.4286 24.2438 33.8603 25.7214 32.6101 26.858C32.1554 27.3126 29.7686 29.2448 25.2222 32.6546C24.3129 33.3366 23.1763 33.5639 22.1534 33.2229L15.3338 31.0634C14.7655 30.8361 14.4245 30.2678 14.5382 29.5858C14.7655 29.0175 15.3338 28.6765 16.0157 28.7902L22.8353 30.9497C23.1763 31.0634 23.6309 30.9497 23.8583 30.7224C26.9422 28.3501 29.0359 26.6931 30.1776 25.7894C30.6769 25.3943 30.9941 25.1432 31.1325 25.0394C31.7008 24.4711 31.8144 24.2438 31.7008 24.0165C31.5871 23.9028 31.4735 23.9028 30.7915 24.1301L24.1992 27.5399C23.9719 27.6536 23.6309 27.6536 23.29 27.6536L19.6482 26.5071C18.7879 26.4402 17.7936 26.1339 16.6979 25.608C16.1296 25.3807 15.9022 24.6987 16.1296 24.1304C16.3289 23.632 16.8779 23.3959 17.3932 23.4986C17.5651 23.4781 17.7518 23.4965 17.948 23.5618L20.0068 24.2207C20.2304 24.1711 20.3719 24.0565 20.4486 23.9031C20.6759 23.3348 20.5623 22.9938 19.5393 22.6528L16.8115 21.5162C16.4705 21.4026 16.0159 21.4026 15.6749 21.7436L13.402 23.5429V32.4273C13.402 33.1092 12.9474 33.5638 12.2654 33.5638C11.5835 33.5638 11.1288 33.1092 11.1288 32.4273V23.2263C11.1077 23.0876 11.1072 22.9453 11.1288 22.8096V19.9247Z" fill="#334966" fill-opacity="0.3"/>
<path id="Union_2" fill-rule="evenodd" clip-rule="evenodd" d="M27.0549 13.105C27.0503 13.1051 27.0456 13.1051 27.041 13.1051C27.0363 13.1051 27.0317 13.1051 27.027 13.105H24.7677V14.2416H29.3141C30.5644 14.2416 31.5873 15.2646 31.5873 16.5148V17.6514C31.5873 18.9017 30.5644 19.9246 29.3141 19.9246H28.1776V19.9247C28.1776 20.6067 27.723 21.0613 27.041 21.0613C26.3591 21.0613 25.9044 20.6067 25.9044 19.9247V19.9246H23.6311C22.9492 19.9246 22.4945 19.47 22.4945 18.788C22.4945 18.1061 22.9492 17.6514 23.6311 17.6514H29.3141V16.5148H24.7677C23.5175 16.5148 22.4945 15.4919 22.4945 14.2416V13.105C22.4945 11.8548 23.5175 10.8318 24.7677 10.8318H25.9044C25.9044 10.1499 26.359 9.69531 27.041 9.69531C27.7229 9.69531 28.1775 10.1499 28.1776 10.8318H30.4507C31.1327 10.8318 31.5873 11.2865 31.5873 11.9684C31.5873 12.6504 31.1327 13.105 30.4507 13.105H27.0549Z" fill="#334966" fill-opacity="0.3"/>
</g>
</g>
</svg>
