<svg width="45" height="44" viewBox="0 0 45 44" fill="none" xmlns="http://www.w3.org/2000/svg">
<g id="&#231;&#177;&#187;&#229;&#158;&#139;=hover">
<circle id="Ellipse 149" cx="22.3989" cy="22" r="22" fill="#00A3FF"/>
<g id="4">
<path id="Union" fill-rule="evenodd" clip-rule="evenodd" d="M11.3881 18.1771L12.8352 16.73V12.7038C12.8352 11.5067 13.8146 10.5273 15.0116 10.5273H30.2465C31.4435 10.5273 32.4229 11.5067 32.4229 12.7038V16.6218L33.9947 18.1936C34.1917 18.2781 34.3653 18.4131 34.4906 18.5803C34.8171 19.1244 34.5995 19.7774 34.1642 20.1038L23.2821 26.7419C22.9557 26.9595 22.5204 26.9595 22.1939 26.7419L12.8353 21.192V31.2035C12.8353 31.8564 13.2706 32.2917 13.9236 32.2917H31.3348C31.9878 32.2917 32.4231 31.8564 32.4231 31.2035V23.5861C32.4231 22.9331 32.8583 22.4979 33.5113 22.4979C34.1642 22.4979 34.5995 22.9331 34.5995 23.5861V31.2035C34.5995 33.0535 33.1848 34.4681 31.3348 34.4681H13.9236C12.0736 34.4681 10.6589 33.0535 10.6589 31.2035V21.5449C10.6588 21.536 10.6587 21.5271 10.6587 21.5182V19.3418C10.6587 19.3328 10.6588 19.324 10.6589 19.3152V19.2333C10.6589 18.7302 10.986 18.3361 11.3881 18.1771ZM30.2465 17.0389C30.2463 17.0509 30.2463 17.063 30.2465 17.075V19.9149L22.6292 24.5655L15.0116 19.9147V12.7038H30.2465V17.0389Z" fill="white"/>
<path id="Union_2" fill-rule="evenodd" clip-rule="evenodd" d="M22.6297 22.606C23.2826 22.606 23.7179 22.1707 23.7179 21.5178V17.6003L24.0443 17.9268C24.4796 18.362 25.1326 18.362 25.5678 17.9268C26.0031 17.4915 26.0031 16.8385 25.5678 16.4033L23.5809 14.4163C23.4035 14.0938 23.065 13.9004 22.6297 13.9004C22.1947 13.9004 21.8563 14.0936 21.6789 14.4156L19.6912 16.4033C19.2559 16.8386 19.2559 17.4915 19.6912 17.9268C20.1265 18.3621 20.7794 18.3621 21.2147 17.9268L21.5415 17.6V21.5178C21.5415 22.1707 21.9768 22.606 22.6297 22.606Z" fill="white"/>
</g>
</g>
</svg>
