<svg width="45" height="44" viewBox="0 0 45 44" fill="none" xmlns="http://www.w3.org/2000/svg">
<g id="Group 427318636">
<circle id="Ellipse 149" opacity="0.07" cx="22.3989" cy="22" r="22" fill="#666666"/>
<g id="1">
<path id="&#232;&#183;&#175;&#229;&#190;&#132;" d="M25.2087 20.7672C25.6405 20.3354 26.2882 20.3354 26.72 20.7672C27.1518 21.199 27.1518 21.8467 26.72 22.2785L22.4019 26.5966C21.9701 27.0284 21.3224 27.0284 20.8906 26.5966L18.7316 24.4376C18.2998 24.0058 18.2998 23.3581 18.7316 22.9263C19.1634 22.4945 19.8111 22.4945 20.2429 22.9263L21.6463 24.3296L25.2087 20.7672Z" fill="#334966" fill-opacity="0.3"/>
<path id="Union" fill-rule="evenodd" clip-rule="evenodd" d="M32.0148 20.4437C31.3671 20.4437 30.9353 20.8755 30.9353 21.5232V30.1594C30.9353 30.8071 30.5035 31.2389 29.8558 31.2389H14.9422C14.2945 31.2389 13.8627 30.8071 13.8627 30.1594V12.887C13.8627 12.2393 14.2945 11.8075 14.9422 11.8075H25.5376V16.1256C25.5376 17.313 26.5092 18.2846 27.6966 18.2846H32.0147V18.2348C32.2504 18.2254 32.4841 18.1392 32.6625 17.9608C33.0944 17.6369 33.2023 16.8812 32.7705 16.4494L27.6967 10.4041C27.3729 9.97229 26.7252 9.64844 26.0775 9.64844H25.5376H14.9422C13.107 9.64844 11.7036 11.0518 11.7036 12.887V30.1594C11.7036 31.9946 13.107 33.3979 14.9422 33.3979H29.8558C31.691 33.3979 33.0944 31.9946 33.0944 30.1594V21.5232C33.0944 20.8755 32.6625 20.4437 32.0148 20.4437ZM27.6966 13.7367V16.1256H29.7016L27.6966 13.7367Z" fill="#334966" fill-opacity="0.3"/>
</g>
</g>
</svg>
