<svg width="15" height="15" viewBox="0 0 15 15" fill="none" xmlns="http://www.w3.org/2000/svg">
<g id="Group 427318645">
<path id="icon" d="M7.52271 0.360352C3.65708 0.360352 0.522705 3.49473 0.522705 7.36035C0.522705 11.226 3.65708 14.3604 7.52271 14.3604C11.3883 14.3604 14.5227 11.226 14.5227 7.36035C14.5227 3.49473 11.3883 0.360352 7.52271 0.360352ZM7.02271 3.98535C7.02271 3.9166 7.07896 3.86035 7.14771 3.86035H7.89771C7.96645 3.86035 8.02271 3.9166 8.02271 3.98535V8.23535C8.02271 8.3041 7.96645 8.36035 7.89771 8.36035H7.14771C7.07896 8.36035 7.02271 8.3041 7.02271 8.23535V3.98535ZM7.52271 10.8604C7.32644 10.8563 7.13957 10.7756 7.00219 10.6354C6.86481 10.4951 6.78786 10.3067 6.78786 10.1104C6.78786 9.91405 6.86481 9.72557 7.00219 9.58535C7.13957 9.44514 7.32644 9.36436 7.52271 9.36035C7.71897 9.36436 7.90584 9.44514 8.04322 9.58535C8.1806 9.72557 8.25755 9.91405 8.25755 10.1104C8.25755 10.3067 8.1806 10.4951 8.04322 10.6354C7.90584 10.7756 7.71897 10.8563 7.52271 10.8604Z" fill="#FAAD14"/>
</g>
</svg>
