<svg width="15" height="15" viewBox="0 0 15 15" fill="none" xmlns="http://www.w3.org/2000/svg">
<g id="Group 427318643">
<path id="Path" fill-rule="evenodd" clip-rule="evenodd" d="M7.34622 0.360352C3.47225 0.360352 0.33252 3.49395 0.33252 7.36035C0.33252 11.2268 3.47225 14.3604 7.34622 14.3604C11.2202 14.3604 14.3599 11.2268 14.3599 7.36035C14.3599 3.49395 11.2202 0.360352 7.34622 0.360352V0.360352Z" fill="#FAAD14"/>
<path id="&#239;&#188;&#159;" d="M7.45179 3.7207C6.71034 3.7207 6.1292 3.9307 5.70838 4.3607C5.28756 4.7807 5.07715 5.3507 5.07715 6.0807H6.1292C6.1292 5.6407 6.21938 5.3007 6.39973 5.0607C6.60012 4.7707 6.93077 4.6307 7.38165 4.6307C7.74235 4.6307 8.03292 4.7307 8.23331 4.9307C8.42368 5.1307 8.52388 5.4007 8.52388 5.7507C8.52388 6.0107 8.42368 6.2507 8.24333 6.4807L8.073 6.6707C7.45179 7.2207 7.07104 7.6307 6.94079 7.9107C6.80051 8.1707 6.7404 8.4907 6.7404 8.8607V9.0307H7.81249V8.8607C7.81249 8.6207 7.86259 8.4007 7.9728 8.2007C8.06298 8.0207 8.20325 7.8407 8.39362 7.6807C8.86454 7.2707 9.14509 7.0107 9.23527 6.9007C9.48576 6.5807 9.61601 6.1707 9.61601 5.6807C9.61601 5.0807 9.41562 4.6007 9.01484 4.2507C8.61406 3.8907 8.09304 3.7207 7.45179 3.7207ZM7.27143 9.5707C7.07104 9.5707 6.89069 9.6307 6.75042 9.7707C6.61014 9.9007 6.54001 10.0707 6.54001 10.2807C6.54001 10.4807 6.61014 10.6507 6.75042 10.7907C6.89069 10.9307 7.07104 11.0007 7.27143 11.0007C7.47182 11.0007 7.65218 10.9307 7.79245 10.8007C7.93272 10.6607 8.01288 10.4907 8.01288 10.2807C8.01288 10.0707 7.94274 9.9007 7.80247 9.7707C7.6622 9.6307 7.48184 9.5707 7.27143 9.5707Z" fill="white"/>
</g>
</svg>
