<svg width="63" height="63" viewBox="0 0 63 63" fill="none" xmlns="http://www.w3.org/2000/svg">
<g id="check-circle">
<path id="Vector" d="M31.8887 4.35547C16.9094 4.35547 4.76367 16.5012 4.76367 31.4805C4.76367 46.4598 16.9094 58.6055 31.8887 58.6055C46.868 58.6055 59.0137 46.4598 59.0137 31.4805C59.0137 16.5012 46.868 4.35547 31.8887 4.35547ZM43.6045 22.6225L30.8533 40.3021C30.6751 40.5509 30.4402 40.7536 30.168 40.8934C29.8958 41.0332 29.5942 41.1062 29.2882 41.1062C28.9822 41.1062 28.6806 41.0332 28.4084 40.8934C28.1362 40.7536 27.9013 40.5509 27.723 40.3021L20.1729 29.8396C19.9428 29.5187 20.1729 29.0707 20.5664 29.0707H23.4061C24.0236 29.0707 24.6109 29.3674 24.9742 29.876L29.2852 35.858L38.8031 22.6588C39.1664 22.1562 39.7477 21.8535 40.3713 21.8535H43.2109C43.6045 21.8535 43.8346 22.3016 43.6045 22.6225V22.6225Z" fill="#52C41A"/>
</g>
</svg>
