<svg width="16" height="17" viewBox="0 0 16 17" fill="none" xmlns="http://www.w3.org/2000/svg">
<g id="Group 427319051">
<path id="Vector" d="M11.5487 6.38214C11.6533 6.38214 11.7536 6.42369 11.8276 6.49763C11.9015 6.57158 11.943 6.67187 11.943 6.77645C11.943 6.88103 11.9015 6.98132 11.8276 7.05527C11.7536 7.12922 11.6533 7.17076 11.5487 7.17076H11.1544V12.2968C11.1544 12.5985 11.0392 12.8888 10.8322 13.1084C10.6252 13.3279 10.3421 13.46 10.0409 13.4777L9.97151 13.4797H6.02842C5.71469 13.4797 5.41381 13.3551 5.19197 13.1332C4.97013 12.9114 4.8455 12.6105 4.8455 12.2968V7.17076H4.45119C4.34662 7.17076 4.24632 7.12922 4.17237 7.05527C4.09843 6.98132 4.05688 6.88103 4.05688 6.77645C4.05688 6.67187 4.09843 6.57158 4.17237 6.49763C4.24632 6.42369 4.34662 6.38214 4.45119 6.38214H11.5487ZM10.3658 7.17076H5.63412V12.2968C5.63413 12.3933 5.66959 12.4866 5.73376 12.5587C5.79794 12.6309 5.88638 12.677 5.98229 12.6883L6.02842 12.6911H9.97151C10.0761 12.6911 10.1764 12.6495 10.2503 12.5756C10.3243 12.5016 10.3658 12.4013 10.3658 12.2968V7.17076ZM7.21135 8.35368C7.31593 8.35368 7.41622 8.39523 7.49017 8.46917C7.56411 8.54312 7.60566 8.64341 7.60566 8.74799V11.1138C7.60566 11.2184 7.56411 11.3187 7.49017 11.3927C7.41622 11.4666 7.31593 11.5081 7.21135 11.5081C7.10677 11.5081 7.00648 11.4666 6.93253 11.3927C6.85858 11.3187 6.81704 11.2184 6.81704 11.1138V8.74799C6.81704 8.64341 6.85858 8.54312 6.93253 8.46917C7.00648 8.39523 7.10677 8.35368 7.21135 8.35368ZM8.78858 8.35368C8.89316 8.35368 8.99345 8.39523 9.0674 8.46917C9.14135 8.54312 9.18289 8.64341 9.18289 8.74799V11.1138C9.18289 11.2184 9.14135 11.3187 9.0674 11.3927C8.99345 11.4666 8.89316 11.5081 8.78858 11.5081C8.684 11.5081 8.58371 11.4666 8.50976 11.3927C8.43582 11.3187 8.39427 11.2184 8.39427 11.1138V8.74799C8.39427 8.64341 8.43582 8.54312 8.50976 8.46917C8.58371 8.39523 8.684 8.35368 8.78858 8.35368ZM8.78858 5.19922C8.89316 5.19922 8.99345 5.24076 9.0674 5.31471C9.14135 5.38866 9.18289 5.48895 9.18289 5.59353C9.18289 5.6981 9.14135 5.7984 9.0674 5.87234C8.99345 5.94629 8.89316 5.98783 8.78858 5.98783H7.21135C7.10677 5.98783 7.00648 5.94629 6.93253 5.87234C6.85858 5.7984 6.81704 5.6981 6.81704 5.59353C6.81704 5.48895 6.85858 5.38866 6.93253 5.31471C7.00648 5.24076 7.10677 5.19922 7.21135 5.19922H8.78858Z" fill="#626262"/>
</g>
</svg>
