<svg width="16" height="17" viewBox="0 0 16 17" fill="none" xmlns="http://www.w3.org/2000/svg">
<g id="Group 427319051">
<path id="Rectangle 782" d="M4.25 9.38899C4.25 9.09312 4.48985 8.85327 4.78571 8.85327H11.2143C11.5102 8.85327 11.75 9.09312 11.75 9.38899C11.75 9.68485 11.5102 9.9247 11.2143 9.9247H4.78571C4.48985 9.9247 4.25 9.68485 4.25 9.38899Z" fill="#626262"/>
<path id="Rectangle 783" d="M7.93523 5.57422C8.2311 5.57422 8.47095 5.81407 8.47095 6.10993L8.47095 12.5385C8.47095 12.8344 8.2311 13.0742 7.93523 13.0742C7.63937 13.0742 7.39952 12.8344 7.39952 12.5385L7.39952 6.10993C7.39952 5.81407 7.63937 5.57422 7.93523 5.57422Z" fill="#626262"/>
</g>
</svg>
