<svg width="20" height="20" viewBox="0 0 20 20" fill="none" xmlns="http://www.w3.org/2000/svg">
<g id="Group 427319049">
<circle id="Ellipse 160" cx="10" cy="9.99976" r="9.7" fill="url(#paint0_linear_1403_93436)" stroke="url(#paint1_linear_1403_93436)" stroke-width="0.6"/>
<g id="Frame" clip-path="url(#clip0_1403_93436)">
<path id="Subtract" fill-rule="evenodd" clip-rule="evenodd" d="M7.46189 5.25708C7.46126 5.26972 7.46094 5.28245 7.46094 5.29524C7.46094 5.71133 7.79824 6.04864 8.21433 6.04864H11.7857C12.2018 6.04864 12.5391 5.71133 12.5391 5.29524C12.5391 5.28245 12.5387 5.26972 12.5381 5.25708H13.75C14.3023 5.25708 14.75 5.7048 14.75 6.25708V14.156C14.75 14.7083 14.3023 15.156 13.75 15.156H6.25C5.69772 15.156 5.25 14.7083 5.25 14.156V6.25708C5.25 5.7048 5.69772 5.25708 6.25 5.25708H7.46189Z" fill="url(#paint2_linear_1403_93436)"/>
<path id="Vector" d="M11.6965 12.0826C11.5163 12.3857 11.1897 12.5715 10.8371 12.5715H9.16252C8.80984 12.5715 8.48323 12.3857 8.30299 12.0825L7.49139 10.7176C7.3041 10.4026 7.3041 10.0104 7.49139 9.69543L8.30299 8.33048C8.48323 8.02733 8.80984 7.84155 9.16252 7.84155H10.8373C11.19 7.84155 11.5166 8.02733 11.6968 8.33048L12.5084 9.69538C12.6957 10.0104 12.6957 10.4026 12.5083 10.7176L11.6965 12.0826ZM8.9902 10.2384C8.9856 10.4534 9.04515 10.6649 9.16123 10.8458C9.27732 11.0268 9.44469 11.1691 9.64199 11.2546C9.83929 11.34 10.0576 11.3648 10.269 11.3256C10.4804 11.2865 10.6754 11.1853 10.829 11.0349C10.9827 10.8845 11.088 10.6917 11.1317 10.4812C11.1753 10.2706 11.1552 10.0519 11.074 9.8528C10.9928 9.65372 10.8541 9.48335 10.6756 9.36343C10.4972 9.2435 10.287 9.17946 10.072 9.17947C9.78833 9.17675 9.51513 9.28664 9.31233 9.48505C9.10953 9.68347 8.99368 9.95475 8.9902 10.2384Z" fill="#F3EEDF"/>
<rect id="Rectangle 835" x="7.80469" y="4.64038" width="4.39062" height="1.10852" rx="0.55426" fill="#8E673E"/>
</g>
</g>
<defs>
<linearGradient id="paint0_linear_1403_93436" x1="10" y1="-0.000244141" x2="10" y2="19.9998" gradientUnits="userSpaceOnUse">
<stop stop-color="#F3EEDF"/>
<stop offset="1" stop-color="#F5F5F3"/>
</linearGradient>
<linearGradient id="paint1_linear_1403_93436" x1="10" y1="-0.000244141" x2="10" y2="19.9998" gradientUnits="userSpaceOnUse">
<stop stop-color="#886239"/>
<stop offset="1" stop-color="#C2B6A9"/>
</linearGradient>
<linearGradient id="paint2_linear_1403_93436" x1="10" y1="5.25708" x2="10" y2="15.156" gradientUnits="userSpaceOnUse">
<stop stop-color="#886239"/>
<stop offset="1" stop-color="#CEA271"/>
</linearGradient>
<clipPath id="clip0_1403_93436">
<rect width="12" height="11" fill="white" transform="matrix(-1 0 0 1 16 4.49976)"/>
</clipPath>
</defs>
</svg>
