<svg width="325" height="201" viewBox="0 0 325 201" fill="none" xmlns="http://www.w3.org/2000/svg">
<g id="&#233;&#161;&#182;&#233;&#131;&#168;&#232;&#131;&#140;&#230;&#153;&#175;">
<path id="Rectangle 397" d="M0.862793 2.00232C0.862793 0.897748 1.75822 0.00231934 2.86279 0.00231934H322.863C323.967 0.00231934 324.863 0.89775 324.863 2.00232V198.002C324.863 199.107 323.967 200.002 322.863 200.002H2.86279C1.75822 200.002 0.862793 199.107 0.862793 198.002V2.00232Z" fill="url(#paint0_linear_616_49529)"/>
<mask id="mask0_616_49529" style="mask-type:alpha" maskUnits="userSpaceOnUse" x="0" y="0" width="325" height="201">
<path id="Rectangle 398" d="M0.862793 2.00232C0.862793 0.897748 1.75822 0.00231934 2.86279 0.00231934H322.863C323.967 0.00231934 324.863 0.89775 324.863 2.00232V198.002C324.863 199.107 323.967 200.002 322.863 200.002H2.86279C1.75822 200.002 0.862793 199.107 0.862793 198.002V2.00232Z" fill="url(#paint1_linear_616_49529)"/>
</mask>
<g mask="url(#mask0_616_49529)">
<g id="Ellipse 156" filter="url(#filter0_f_616_49529)">
<circle r="6.02258" transform="matrix(1 0 0 -1 221.09 24.9797)" fill="url(#paint2_linear_616_49529)"/>
</g>
<g id="Ellipse 157" filter="url(#filter1_f_616_49529)">
<circle r="13.4814" transform="matrix(1 0 0 -1 305.083 148.935)" fill="url(#paint3_linear_616_49529)" fill-opacity="0.33"/>
</g>
<g id="&#229;&#143;&#179;&#228;&#184;&#138;&#232;&#167;&#146;&#229;&#174;&#162;&#230;&#156;&#141;&#229;&#164;&#180;&#229;&#131;&#143;">
<g id="Rectangle 554" filter="url(#filter2_d_616_49529)">
<rect x="246.052" y="27.6249" width="39.6213" height="48.426" rx="19.8107" fill="url(#paint4_linear_616_49529)"/>
</g>
<path id="Vector 83" d="M261.5 33.2031C258.25 34.0781 253.3 37.0031 251.5 45.2031" stroke="url(#paint5_linear_616_49529)" stroke-width="3" stroke-linecap="round"/>
<path id="Vector 84" d="M251.375 50.9867V53.3617" stroke="url(#paint6_linear_616_49529)" stroke-width="3" stroke-linecap="round"/>
<path id="Vector 82" d="M285.674 49.8202C283.326 55.6241 273.445 58.2182 268.798 58.7898V61.5598C277.162 61.5071 283.534 57.6246 285.674 55.69V49.8202Z" fill="url(#paint7_linear_616_49529)"/>
<rect id="Rectangle 557" x="260.635" y="55.8276" width="16.3254" height="6.69527" rx="3.34763" fill="url(#paint8_linear_616_49529)"/>
<g id="Group 427318599" filter="url(#filter3_d_616_49529)">
<g id="Subtract" filter="url(#filter4_d_616_49529)">
<path fill-rule="evenodd" clip-rule="evenodd" d="M288.975 55.69V46.0497C288.975 33.285 278.627 22.9372 265.863 22.9372C253.098 22.9372 242.75 33.285 242.75 46.0496V55.69H239.815V46.0496C239.815 31.6641 251.477 20.0023 265.863 20.0023C280.248 20.0023 291.91 31.6641 291.91 46.0497V55.69H288.975Z" fill="url(#paint9_linear_616_49529)"/>
</g>
<g id="Subtract_2" filter="url(#filter5_i_616_49529)">
<path fill-rule="evenodd" clip-rule="evenodd" d="M288.975 56.6171C289.547 56.7894 290.156 56.8823 290.787 56.8823C294.142 56.8823 296.863 54.2543 296.863 51.0125C296.863 47.7707 294.142 45.1427 290.787 45.1427C290.156 45.1427 289.547 45.2355 288.975 45.4079V56.6171Z" fill="url(#paint10_linear_616_49529)"/>
</g>
<g id="Subtract_3" filter="url(#filter6_i_616_49529)">
<path fill-rule="evenodd" clip-rule="evenodd" d="M242.75 56.6171C242.178 56.7894 241.57 56.8823 240.939 56.8823C237.583 56.8823 234.863 54.2543 234.863 51.0125C234.863 47.7707 237.583 45.1427 240.939 45.1427C241.57 45.1427 242.178 45.2355 242.75 45.4079V56.6171Z" fill="url(#paint11_linear_616_49529)"/>
</g>
</g>
</g>
<g id="Group 427318600">
<path id="Rectangle 558" opacity="0.47" d="M199.738 48.7677H209.113V50.6273H200.738L199.738 48.7677Z" fill="white" fill-opacity="0.6"/>
<path id="Rectangle 558_2" opacity="0.47" d="M207.253 58.0023L207.253 50.6273L209.113 50.6273L209.113 57.0023L207.253 58.0023Z" fill="white" fill-opacity="0.6"/>
</g>
<g id="Group 427318601">
<path id="Rectangle 559" opacity="0.47" d="M13.2456 69.3147L13.2456 78.6897L15.1052 78.6897L15.1052 70.3147L13.2456 69.3147Z" fill="white" fill-opacity="0.6"/>
<path id="Rectangle 560" opacity="0.47" d="M22.48 76.8303L15.105 76.8303L15.105 78.6899L21.48 78.6899L22.48 76.8303Z" fill="white" fill-opacity="0.6"/>
</g>
<g id="&#228;&#189;&#160;&#231;&#154;&#132;&#230;&#154;&#150;&#229;&#191;&#131;&#231;&#174;&#161;&#229;&#174;&#182;&#229;&#183;&#178;&#228;&#184;&#138;&#231;&#186;&#191;" filter="url(#filter7_d_616_49529)">
<path d="M27.2868 57.8683L25.3948 71.2003H21.4128L23.1948 58.6823L21.8968 58.9243L22.2488 56.4163L27.6388 55.3603L27.2868 57.8683ZM34.3928 69.7483C34.3195 70.1737 34.1141 70.5257 33.7768 70.8043C33.4541 71.0683 33.0801 71.2003 32.6548 71.2003H28.5188L30.4988 69.1543L31.7748 59.9583H35.7568L34.3928 69.7483ZM28.9148 55.9103L28.4748 55.3603H32.4348L31.9288 57.0323H40.5528L39.6728 60.3763H36.3288L36.6588 59.1223H31.3128L30.8288 60.7943H27.4848L28.9148 55.9103ZM39.0788 61.6303L38.7928 69.5943H36.0868L36.3508 61.6303H39.0788ZM30.7188 61.6303L28.7608 69.5723H26.0548L28.0128 61.6303H30.7188ZM56.6771 57.4503H60.9231L59.2511 69.3303C59.1924 69.7557 59.0017 70.115 58.6791 70.4083C58.3564 70.687 57.9824 70.8263 57.5571 70.8263H53.8391L55.7971 68.7363L55.9951 67.2843H52.6291L51.6611 62.2683H55.4231L56.1711 66.1403L57.0951 59.5403H55.4891L54.5431 61.2123H51.1991L49.8571 70.8263H41.4971L43.4331 57.0323H44.8411L45.4351 55.9543L44.9071 55.3603H49.9231L49.0211 57.0323H51.7931L51.4851 59.2543L53.3771 55.9543L52.8491 55.3603H57.8651L56.6771 57.4503ZM46.1391 62.8843H47.4151L47.9431 59.1223H46.6671L46.1391 62.8843ZM46.6011 68.7363L47.1291 64.9743H45.8531L45.3251 68.7363H46.6011ZM72.9334 58.2203L73.1094 59.5183H74.0554L73.8794 58.2203H76.3654L76.5414 59.5183H77.5094L78.0594 58.2203H80.5234L79.9734 59.5183H80.8754L80.6334 61.3003H74.8474L74.5174 62.0703H80.5234L80.2814 63.8083H73.7694L73.4834 64.5123H79.7314L79.3574 67.1743L76.5634 69.1983L79.2914 71.2003H75.4634L74.6274 70.6063L73.8794 71.1563H70.6674L70.6454 71.2003H67.5434L70.6674 63.8083H69.1934L69.4354 62.0703H71.4154L71.7454 61.3003H69.9634L70.2054 59.5183H70.6454L70.4694 58.2203H72.9334ZM63.4074 56.9003L63.0114 56.2623H69.7434L67.7414 70.4743H61.4934L63.4074 56.9003ZM81.1394 57.3843L69.9854 57.8023L70.2714 55.8003L81.4254 55.4043L81.1394 57.3843ZM65.6954 68.3843L66.2674 64.2043H64.7714L64.1994 68.3843H65.6954ZM65.0794 62.1143H66.5754L67.1034 58.3523H65.6074L65.0794 62.1143ZM72.7794 66.1843L72.5814 66.6243H73.7254L73.6594 67.0423L74.9134 67.9883L77.0474 66.4043L77.0914 66.1843H72.7794ZM71.7894 68.5163L70.6894 71.0903L72.9774 69.3963L71.7894 68.5163ZM87.4736 59.8263L85.6256 68.0983H82.2816L84.1296 59.8263H87.4736ZM101.092 59.2983L100.63 69.3083H97.2416L97.7036 59.2983H101.092ZM96.4496 55.4043L96.6696 60.4863H93.3256L93.1056 55.4043H96.4496ZM90.7516 68.2083H95.7676L96.7576 67.1963L96.2516 70.7163H86.6596L88.5516 57.2743L87.8256 56.4603H92.4016L90.7516 68.2083ZM118.536 63.3023L118.074 66.6463H107.602L107.514 67.2623H118.404L117.832 71.2003H102.784L103.906 63.3023H102.234L102.696 59.9583H109.472L109.384 59.3643H114.246L114.334 59.9583H121.088L120.626 63.3023H118.536ZM117.084 56.1963H121.616L121.396 57.8683H119.284L119.966 59.1223H116.622L116.006 58.0223L115.368 59.1223H111.606L113.454 55.9323L112.97 55.3603H117.568L117.084 56.1963ZM108.284 56.1963H112.42L112.2 57.8683H110.484L111.188 59.1223H107.844L107.228 58.0223L106.59 59.1223H102.828L104.676 55.9323L104.192 55.3603H108.79L108.284 56.1963ZM106.502 62.6643H116.534L116.622 62.0483H106.59L106.502 62.6643ZM107.272 68.9343L107.184 69.5723H113.894L113.982 68.9343H107.272ZM107.932 64.3363L107.844 64.9743H114.114L114.202 64.3363H107.932ZM135.166 56.6143H141.854L141.37 59.9583H139.698L139.522 61.2123H133.582L134.704 62.8843L134.66 63.1483L140.358 61.2123L140.006 63.7203L136.728 64.8423L140.688 70.8263H136.508L134.088 67.1743L133.736 69.7483C133.663 70.1737 133.458 70.5257 133.12 70.8043C132.798 71.0683 132.431 71.2003 132.02 71.2003H128.082L130.062 69.1543L130.194 68.1203L126.256 70.8263H122.494L130.59 65.2823L130.678 64.7103L126.278 67.6803H122.516L130.216 62.4443L129.952 62.0263L126.542 64.3363H122.78L127.312 61.2123H125.31L125.486 59.9583H123.814L124.298 56.6143H130.986L131.052 56.1523L130.348 55.3603H135.342L135.166 56.6143ZM127.664 59.3203H137.696L137.784 58.7043H127.752L127.664 59.3203ZM142.996 70.8263L144.47 60.3763L143.744 59.5403H148.76L148.452 61.6303H156.834L157.362 57.8683H144.404L144.69 55.7783H161.828L160.706 63.7203H148.166L147.528 68.3183L159.76 68.3623L161.014 67.4823L160.552 70.8263H142.996ZM169.549 68.7363L171.309 56.1743L170.583 55.3603H175.599L174.785 61.2123H181.891L181.605 63.3023H174.477L173.729 68.7363H181.253L180.967 70.8263H163.411L163.697 68.7363H169.549ZM201.293 66.6463L198.279 67.4603L198.411 68.7363H200.171L201.117 67.9003L200.721 70.8263H194.869L194.627 68.4503L190.447 69.5723L190.733 67.4823L194.429 66.4923L194.121 63.5003H191.283L191.591 61.4103H193.901L193.791 60.3763H191.723L192.031 58.2863H193.571L193.263 55.3603H197.025L197.333 58.2863H202.481L202.173 60.3763H197.553L197.663 61.4103H202.041L201.733 63.5003H197.861L198.081 65.5023L201.601 64.5563L201.293 66.6463ZM184.617 60.3763L187.477 55.9103L186.993 55.3603H191.591L188.379 60.3763H190.887L187.675 65.3923H190.183L189.897 67.4823H183.627L183.913 65.3923L185.805 62.4663H184.331L184.617 60.3763ZM189.479 70.4083L183.165 70.8263L183.451 68.7363L189.787 68.3183L189.479 70.4083ZM202.041 55.3603L202.591 57.4503H198.829L198.279 55.3603H202.041Z" fill="white" fill-opacity="0.9" shape-rendering="crispEdges"/>
</g>
<g id="Rectangle 547" filter="url(#filter8_bi_616_49529)">
<path d="M20.8628 93.0023C20.8628 90.7932 22.6537 89.0023 24.8628 89.0023H300.863C303.072 89.0023 304.863 90.7932 304.863 93.0023V149.002C304.863 151.211 303.072 153.002 300.863 153.002H24.8628C22.6537 153.002 20.8628 151.211 20.8628 149.002V93.0023Z" fill="white" fill-opacity="0.18"/>
</g>
<g id="Group 427318596">
<path id="Vector" d="M43.1183 104.097L38.9921 106.796H36.9336C35.7898 106.796 34.8628 107.729 34.8628 108.897V113.107C34.8628 114.268 35.7785 115.208 36.9336 115.208H38.9921L43.1183 117.906C43.7015 118.163 44.1537 117.888 44.1537 117.303V104.699C44.1537 104.113 43.6902 103.845 43.1183 104.097V104.097ZM46.5952 107.489C46.4011 107.276 46.0738 107.265 45.8664 107.464C45.6578 107.662 45.6475 107.995 45.8416 108.207C45.9376 108.312 46.1017 108.545 46.271 108.896C46.5601 109.495 46.7345 110.199 46.7345 111.002C46.7345 111.806 46.5601 112.51 46.271 113.108C46.1017 113.46 45.9376 113.692 45.8416 113.797C45.6465 114.01 45.6578 114.342 45.8664 114.541C46.0749 114.739 46.4011 114.728 46.5962 114.515C46.7583 114.339 46.9813 114.023 47.1981 113.572C47.5542 112.834 47.7669 111.974 47.7669 111.001C47.7669 110.028 47.5542 109.168 47.1981 108.43C46.9802 107.981 46.7572 107.664 46.5952 107.489V107.489ZM49.7603 106.838C49.3432 106.119 48.922 105.62 48.6268 105.352C48.4141 105.159 48.0879 105.178 47.8979 105.395C47.708 105.613 47.7266 105.944 47.9403 106.138C47.9888 106.182 48.0858 106.281 48.2159 106.434C48.4389 106.697 48.6618 107.01 48.8714 107.372C49.4712 108.409 49.8315 109.621 49.8315 111.002C49.8315 112.383 49.4712 113.595 48.8704 114.633C48.6608 114.995 48.4368 115.308 48.2149 115.571C48.0848 115.725 47.9878 115.823 47.9392 115.868C47.7266 116.061 47.708 116.393 47.8969 116.61C48.0858 116.827 48.4131 116.846 48.6257 116.653C48.921 116.385 49.3422 115.888 49.7592 115.167C50.4488 113.976 50.8628 112.583 50.8628 111.002C50.8638 109.423 50.4499 108.029 49.7603 106.838V106.838Z" fill="url(#paint12_linear_616_49529)"/>
</g>
<rect id="Rectangle 550" x="20.8628" y="169.002" width="284" height="127.194" rx="4" fill="#6694FF"/>
</g>
<defs>
<filter id="filter0_f_616_49529" x="213.068" y="16.9572" width="16.0454" height="16.0452" filterUnits="userSpaceOnUse" color-interpolation-filters="sRGB">
<feFlood flood-opacity="0" result="BackgroundImageFix"/>
<feBlend mode="normal" in="SourceGraphic" in2="BackgroundImageFix" result="shape"/>
<feGaussianBlur stdDeviation="1" result="effect1_foregroundBlur_616_49529"/>
</filter>
<filter id="filter1_f_616_49529" x="289.601" y="133.453" width="30.9629" height="30.9629" filterUnits="userSpaceOnUse" color-interpolation-filters="sRGB">
<feFlood flood-opacity="0" result="BackgroundImageFix"/>
<feBlend mode="normal" in="SourceGraphic" in2="BackgroundImageFix" result="shape"/>
<feGaussianBlur stdDeviation="1" result="effect1_foregroundBlur_616_49529"/>
</filter>
<filter id="filter2_d_616_49529" x="246.052" y="25.6249" width="49.6211" height="58.426" filterUnits="userSpaceOnUse" color-interpolation-filters="sRGB">
<feFlood flood-opacity="0" result="BackgroundImageFix"/>
<feColorMatrix in="SourceAlpha" type="matrix" values="0 0 0 0 0 0 0 0 0 0 0 0 0 0 0 0 0 0 127 0" result="hardAlpha"/>
<feOffset dx="5" dy="3"/>
<feGaussianBlur stdDeviation="2.5"/>
<feComposite in2="hardAlpha" operator="out"/>
<feColorMatrix type="matrix" values="0 0 0 0 0.109804 0 0 0 0 0.282353 0 0 0 0 0.823529 0 0 0 0.35 0"/>
<feBlend mode="normal" in2="BackgroundImageFix" result="effect1_dropShadow_616_49529"/>
<feBlend mode="normal" in="SourceGraphic" in2="effect1_dropShadow_616_49529" result="shape"/>
</filter>
<filter id="filter3_d_616_49529" x="234.863" y="18.0023" width="72" height="46.88" filterUnits="userSpaceOnUse" color-interpolation-filters="sRGB">
<feFlood flood-opacity="0" result="BackgroundImageFix"/>
<feColorMatrix in="SourceAlpha" type="matrix" values="0 0 0 0 0 0 0 0 0 0 0 0 0 0 0 0 0 0 127 0" result="hardAlpha"/>
<feOffset dx="5" dy="3"/>
<feGaussianBlur stdDeviation="2.5"/>
<feComposite in2="hardAlpha" operator="out"/>
<feColorMatrix type="matrix" values="0 0 0 0 0.109804 0 0 0 0 0.282353 0 0 0 0 0.823529 0 0 0 0.35 0"/>
<feBlend mode="normal" in2="BackgroundImageFix" result="effect1_dropShadow_616_49529"/>
<feBlend mode="normal" in="SourceGraphic" in2="effect1_dropShadow_616_49529" result="shape"/>
</filter>
<filter id="filter4_d_616_49529" x="235.815" y="16.0023" width="60.0947" height="43.6876" filterUnits="userSpaceOnUse" color-interpolation-filters="sRGB">
<feFlood flood-opacity="0" result="BackgroundImageFix"/>
<feColorMatrix in="SourceAlpha" type="matrix" values="0 0 0 0 0 0 0 0 0 0 0 0 0 0 0 0 0 0 127 0" result="hardAlpha"/>
<feOffset/>
<feGaussianBlur stdDeviation="2"/>
<feComposite in2="hardAlpha" operator="out"/>
<feColorMatrix type="matrix" values="0 0 0 0 0.123889 0 0 0 0 0.405964 0 0 0 0 0.929167 0 0 0 0.23 0"/>
<feBlend mode="normal" in2="BackgroundImageFix" result="effect1_dropShadow_616_49529"/>
<feBlend mode="normal" in="SourceGraphic" in2="effect1_dropShadow_616_49529" result="shape"/>
</filter>
<filter id="filter5_i_616_49529" x="288.975" y="45.1427" width="7.8877" height="13.7396" filterUnits="userSpaceOnUse" color-interpolation-filters="sRGB">
<feFlood flood-opacity="0" result="BackgroundImageFix"/>
<feBlend mode="normal" in="SourceGraphic" in2="BackgroundImageFix" result="shape"/>
<feColorMatrix in="SourceAlpha" type="matrix" values="0 0 0 0 0 0 0 0 0 0 0 0 0 0 0 0 0 0 127 0" result="hardAlpha"/>
<feOffset dy="2"/>
<feGaussianBlur stdDeviation="1"/>
<feComposite in2="hardAlpha" operator="arithmetic" k2="-1" k3="1"/>
<feColorMatrix type="matrix" values="0 0 0 0 0.564706 0 0 0 0 0.682353 0 0 0 0 1 0 0 0 0.76 0"/>
<feBlend mode="normal" in2="shape" result="effect1_innerShadow_616_49529"/>
</filter>
<filter id="filter6_i_616_49529" x="234.863" y="45.1427" width="7.8877" height="13.7396" filterUnits="userSpaceOnUse" color-interpolation-filters="sRGB">
<feFlood flood-opacity="0" result="BackgroundImageFix"/>
<feBlend mode="normal" in="SourceGraphic" in2="BackgroundImageFix" result="shape"/>
<feColorMatrix in="SourceAlpha" type="matrix" values="0 0 0 0 0 0 0 0 0 0 0 0 0 0 0 0 0 0 127 0" result="hardAlpha"/>
<feOffset dy="2"/>
<feGaussianBlur stdDeviation="1"/>
<feComposite in2="hardAlpha" operator="arithmetic" k2="-1" k3="1"/>
<feColorMatrix type="matrix" values="0 0 0 0 0.564706 0 0 0 0 0.682353 0 0 0 0 1 0 0 0 0.76 0"/>
<feBlend mode="normal" in2="shape" result="effect1_innerShadow_616_49529"/>
</filter>
<filter id="filter7_d_616_49529" x="20.4126" y="55.3604" width="183.178" height="18.84" filterUnits="userSpaceOnUse" color-interpolation-filters="sRGB">
<feFlood flood-opacity="0" result="BackgroundImageFix"/>
<feColorMatrix in="SourceAlpha" type="matrix" values="0 0 0 0 0 0 0 0 0 0 0 0 0 0 0 0 0 0 127 0" result="hardAlpha"/>
<feOffset dy="2"/>
<feGaussianBlur stdDeviation="0.5"/>
<feComposite in2="hardAlpha" operator="out"/>
<feColorMatrix type="matrix" values="0 0 0 0 0.100313 0 0 0 0 0.37707 0 0 0 0 0.891667 0 0 0 1 0"/>
<feBlend mode="normal" in2="BackgroundImageFix" result="effect1_dropShadow_616_49529"/>
<feBlend mode="normal" in="SourceGraphic" in2="effect1_dropShadow_616_49529" result="shape"/>
</filter>
<filter id="filter8_bi_616_49529" x="8.86279" y="77.0023" width="308" height="88" filterUnits="userSpaceOnUse" color-interpolation-filters="sRGB">
<feFlood flood-opacity="0" result="BackgroundImageFix"/>
<feGaussianBlur in="BackgroundImageFix" stdDeviation="6"/>
<feComposite in2="SourceAlpha" operator="in" result="effect1_backgroundBlur_616_49529"/>
<feBlend mode="normal" in="SourceGraphic" in2="effect1_backgroundBlur_616_49529" result="shape"/>
<feColorMatrix in="SourceAlpha" type="matrix" values="0 0 0 0 0 0 0 0 0 0 0 0 0 0 0 0 0 0 127 0" result="hardAlpha"/>
<feOffset dy="1"/>
<feGaussianBlur stdDeviation="0.5"/>
<feComposite in2="hardAlpha" operator="arithmetic" k2="-1" k3="1"/>
<feColorMatrix type="matrix" values="0 0 0 0 1 0 0 0 0 1 0 0 0 0 1 0 0 0 0.25 0"/>
<feBlend mode="normal" in2="shape" result="effect2_innerShadow_616_49529"/>
</filter>
<linearGradient id="paint0_linear_616_49529" x1="162.863" y1="-1.99768" x2="162.863" y2="200.002" gradientUnits="userSpaceOnUse">
<stop stop-color="#3879F4"/>
<stop offset="1" stop-color="#99BFFB"/>
</linearGradient>
<linearGradient id="paint1_linear_616_49529" x1="162.863" y1="-1.99768" x2="162.863" y2="200.002" gradientUnits="userSpaceOnUse">
<stop stop-color="#3879F4"/>
<stop offset="1" stop-color="#99BFFB"/>
</linearGradient>
<linearGradient id="paint2_linear_616_49529" x1="6.02258" y1="2.05375e-07" x2="9.4682" y2="9.55203" gradientUnits="userSpaceOnUse">
<stop stop-color="#66A4FF"/>
<stop offset="1" stop-color="#3B79EE"/>
</linearGradient>
<linearGradient id="paint3_linear_616_49529" x1="13.4814" y1="4.59728e-07" x2="21.1944" y2="21.382" gradientUnits="userSpaceOnUse">
<stop stop-color="#66A4FF"/>
<stop offset="1" stop-color="#3B79EE"/>
</linearGradient>
<linearGradient id="paint4_linear_616_49529" x1="265.863" y1="27.6249" x2="265.863" y2="76.0509" gradientUnits="userSpaceOnUse">
<stop stop-color="#7BADFF"/>
<stop offset="0.458333" stop-color="#6AA7FF"/>
<stop offset="1" stop-color="#336DED"/>
</linearGradient>
<linearGradient id="paint5_linear_616_49529" x1="256.5" y1="33.2031" x2="256.5" y2="45.2031" gradientUnits="userSpaceOnUse">
<stop stop-color="#A6C8FF"/>
<stop offset="1" stop-color="#77AEFF"/>
</linearGradient>
<linearGradient id="paint6_linear_616_49529" x1="251.875" y1="50.9867" x2="251.875" y2="55.3617" gradientUnits="userSpaceOnUse">
<stop stop-color="#92BAFB"/>
<stop offset="1" stop-color="#7AB0FF"/>
</linearGradient>
<linearGradient id="paint7_linear_616_49529" x1="277.236" y1="49.8202" x2="277.236" y2="61.5598" gradientUnits="userSpaceOnUse">
<stop stop-color="#76A9F4"/>
<stop offset="1" stop-color="#ADC9F9"/>
</linearGradient>
<linearGradient id="paint8_linear_616_49529" x1="268.797" y1="55.8276" x2="268.797" y2="62.5229" gradientUnits="userSpaceOnUse">
<stop stop-color="#D3EAFD"/>
<stop offset="1" stop-color="#76A1F8"/>
</linearGradient>
<linearGradient id="paint9_linear_616_49529" x1="248.62" y1="26.8912" x2="287.141" y2="35.8794" gradientUnits="userSpaceOnUse">
<stop stop-color="#93B2FF"/>
<stop offset="0.246575" stop-color="#95B3FF"/>
<stop offset="0.499312" stop-color="#9AB7FF"/>
<stop offset="0.815595" stop-color="#87A7FD"/>
<stop offset="1" stop-color="#8FADFF"/>
</linearGradient>
<linearGradient id="paint10_linear_616_49529" x1="292.575" y1="45.1427" x2="292.575" y2="56.8823" gradientUnits="userSpaceOnUse">
<stop stop-color="#94B3FF"/>
<stop offset="1" stop-color="#3565F2"/>
</linearGradient>
<linearGradient id="paint11_linear_616_49529" x1="239.151" y1="45.1427" x2="239.151" y2="56.8823" gradientUnits="userSpaceOnUse">
<stop stop-color="#94B3FF"/>
<stop offset="1" stop-color="#3565F2"/>
</linearGradient>
<linearGradient id="paint12_linear_616_49529" x1="42.8628" y1="104.002" x2="42.8628" y2="118.002" gradientUnits="userSpaceOnUse">
<stop stop-color="#FFE8BF"/>
<stop offset="1" stop-color="#F9DCA9"/>
</linearGradient>
</defs>
</svg>
