<svg width="21" height="20" viewBox="0 0 21 20" fill="none" xmlns="http://www.w3.org/2000/svg">
<g id="Group 427319049">
<circle id="Ellipse 160" cx="10.5" cy="9.99982" r="9.7" fill="url(#paint0_linear_1185_114675)" stroke="url(#paint1_linear_1185_114675)" stroke-width="0.6"/>
<g id="Frame" clip-path="url(#clip0_1185_114675)">
<g id="Frame_2" clip-path="url(#clip1_1185_114675)">
<path id="Subtract" fill-rule="evenodd" clip-rule="evenodd" d="M13.5396 3.99982H7.45533C7.45546 4.34053 7.33439 4.67977 7.11595 4.94147C6.89671 5.20732 6.58198 5.39321 6.24234 5.45321C5.94501 5.50732 5.63109 5.46861 5.35693 5.34084V10.9843C5.3722 11.4211 5.43528 11.8567 5.55742 12.2766C5.70126 12.7766 5.92238 13.2543 6.20992 13.6878C6.73332 14.4797 7.47984 15.1226 8.34207 15.5201C9.35028 15.9898 10.513 16.1134 11.5989 15.8755C12.4513 15.6912 13.2531 15.2828 13.9053 14.7042C14.5296 14.1532 15.0177 13.4487 15.3114 12.6695C15.5206 12.1195 15.6301 11.5332 15.6426 10.9454V5.3387C15.3568 5.47317 15.0272 5.5104 14.7181 5.44651C14.483 5.39883 14.2609 5.29102 14.076 5.13834C13.7399 4.86299 13.5374 4.43455 13.5396 3.99982ZM10.6807 7.80744C10.3854 7.78703 10.0825 7.81031 9.80312 7.91291C9.30229 8.09251 8.90245 8.57006 8.87076 9.10885C8.85751 9.20088 8.9277 9.27931 9.00935 9.30993C9.16209 9.3683 9.33327 9.36562 9.49102 9.32999C9.55047 9.31405 9.616 9.29614 9.65647 9.24654C9.66882 9.21976 9.67545 9.191 9.6821 9.1622C9.68857 9.13419 9.69504 9.10615 9.70679 9.07984C9.77644 8.89595 9.87403 8.70811 10.0434 8.59781C10.2438 8.46298 10.5 8.43791 10.7333 8.47981C10.9131 8.51133 11.0823 8.61214 11.1846 8.76487C11.3409 8.98368 11.2963 9.31065 11.0916 9.48362C10.995 9.57544 10.8923 9.66023 10.7896 9.74503C10.6997 9.81932 10.6097 9.89361 10.5238 9.97263C10.3695 10.1184 10.2207 10.2824 10.1512 10.4871C10.0696 10.7159 10.0717 10.9623 10.0785 11.2019C10.3421 11.2029 10.6057 11.2033 10.8691 11.2017C10.8662 11.0644 10.87 10.925 10.9004 10.7906C10.9205 10.6962 10.9801 10.6176 11.0444 10.5483C11.1314 10.4555 11.2287 10.3737 11.3261 10.2919C11.3848 10.2427 11.4435 10.1934 11.4999 10.1417C11.5089 10.1333 11.518 10.125 11.5271 10.1166C11.7014 9.95622 11.8792 9.79261 11.9979 9.58532C12.1513 9.31942 12.1617 8.98583 12.0525 8.70202C11.9645 8.47157 11.7982 8.27783 11.605 8.12814C11.3412 7.92509 11.0093 7.82965 10.6807 7.80744ZM11.017 12.0614C10.9631 11.7711 10.6472 11.5722 10.3614 11.6384C10.2603 11.6587 10.1655 11.7075 10.0905 11.7781C9.91593 11.9362 9.86776 12.2136 9.98272 12.42C10.1079 12.6635 10.4262 12.7778 10.6787 12.673C10.9194 12.5855 11.0752 12.3129 11.017 12.0614Z" fill="url(#paint2_linear_1185_114675)"/>
</g>
</g>
</g>
<defs>
<linearGradient id="paint0_linear_1185_114675" x1="10.5" y1="-0.000183105" x2="10.5" y2="19.9998" gradientUnits="userSpaceOnUse">
<stop stop-color="#F3EEDF"/>
<stop offset="1" stop-color="#F5F5F3"/>
</linearGradient>
<linearGradient id="paint1_linear_1185_114675" x1="10.5" y1="-0.000183105" x2="10.5" y2="19.9998" gradientUnits="userSpaceOnUse">
<stop stop-color="#886239"/>
<stop offset="1" stop-color="#C2B6A9"/>
</linearGradient>
<linearGradient id="paint2_linear_1185_114675" x1="10.4998" y1="3.99982" x2="10.4998" y2="15.9935" gradientUnits="userSpaceOnUse">
<stop stop-color="#886239"/>
<stop offset="1" stop-color="#CEA271"/>
</linearGradient>
<clipPath id="clip0_1185_114675">
<rect width="12" height="12" fill="white" transform="translate(4.5 3.99982)"/>
</clipPath>
<clipPath id="clip1_1185_114675">
<rect width="12" height="12" fill="white" transform="translate(4.5 3.99982)"/>
</clipPath>
</defs>
</svg>
