<svg width="100" height="28" viewBox="0 0 100 28" fill="none" xmlns="http://www.w3.org/2000/svg">
<path d="M27.1385 8.41796C26.809 6.07947 25.6782 3.94197 23.9528 2.39629C22.2274 0.850603 20.0228 0 17.7419 0C15.461 0 13.2563 0.850603 11.531 2.39629C9.80559 3.94197 8.67477 6.07947 8.34527 8.41796C5.95407 8.71268 3.76125 9.94086 2.21351 11.8523C0.665769 13.7638 -0.120457 16.2147 0.0149936 18.7058C0.150444 21.1969 1.19738 23.5408 2.94253 25.2601C4.68769 26.9793 6.99977 27.9445 9.40779 27.9591H9.64021C9.99254 27.9329 10.3222 27.7693 10.5625 27.5011C10.8029 27.2329 10.9361 26.8801 10.9352 26.5141V22.4201C10.9352 22.0369 10.7882 21.6694 10.5267 21.3984C10.2652 21.1274 9.91046 20.9752 9.5406 20.9752C9.17074 20.9752 8.81603 21.1274 8.55451 21.3984C8.29298 21.6694 8.14605 22.0369 8.14605 22.4201V24.8628C7.08578 24.6093 6.10141 24.091 5.2787 23.3531C4.45599 22.6152 3.81988 21.6801 3.4258 20.6291C3.03172 19.5782 2.89162 18.4434 3.0177 17.3236C3.14378 16.2037 3.53221 15.1328 4.14916 14.204C4.76612 13.2753 5.59288 12.517 6.55742 11.9951C7.52196 11.4732 8.59503 11.2036 9.68315 11.2098C10.7713 11.216 11.8414 11.4977 12.8004 12.0305C13.7594 12.5632 14.5781 13.3309 15.1852 14.2665C15.9341 15.4134 16.3279 16.7695 16.3141 18.1541C16.3129 20.0417 16.8358 21.8898 17.8202 23.478C18.8047 25.0662 20.2094 26.3274 21.8666 27.1113C23.5238 27.8952 25.3636 28.1687 27.1667 27.8991C28.9697 27.6295 30.6599 26.8283 32.0356 25.5909C33.4113 24.3535 34.4144 22.7322 34.9254 20.9204C35.4364 19.1086 35.4336 17.1828 34.9174 15.3726C34.4012 13.5624 33.3933 11.9442 32.0141 10.7111C30.6348 9.47798 28.9423 8.68196 27.1385 8.41796ZM25.8104 25.0692C24.0403 25.0692 22.3428 24.3407 21.0912 23.0438C19.8396 21.747 19.1364 19.9881 19.1364 18.1541C19.1364 17.8101 19.1032 17.5005 19.1032 17.1908C19.1032 16.9997 19.0204 16.5269 18.9704 16.2619L18.8708 15.8835C18.8422 15.7076 18.7977 15.5348 18.738 15.3674L18.6384 14.989L18.4392 14.473L18.3063 14.1289L18.0739 13.6473C18.012 13.5362 17.9565 13.4213 17.9079 13.3032L17.6423 12.856L17.4431 12.5464L17.111 12.0991L16.9118 11.8239L16.5134 11.4111L16.3141 11.1702C16.1424 10.9695 15.9535 10.7852 15.7497 10.6198C15.7165 10.5854 15.6833 10.5854 15.6833 10.551L14.986 10.0349L14.7204 9.86291L14.2555 9.55328L13.9235 9.38126L13.4586 9.14044L13.0934 9.00282L12.6285 8.8308L12.2633 8.69319L11.7652 8.58998L11.4 8.48677H11.1676C11.4554 6.77071 12.3576 5.23039 13.6939 4.17367C15.0303 3.11695 16.7022 2.62166 18.3757 2.7868C20.0492 2.95194 21.6008 3.76533 22.7206 5.06442C23.8404 6.36351 24.4458 8.0526 24.4158 9.7941C24.4114 9.98673 24.4442 10.1783 24.5123 10.3576C24.5804 10.5369 24.6824 10.7003 24.8123 10.8381C24.9423 10.976 25.0975 11.0855 25.2689 11.1603C25.4403 11.235 25.6244 11.2735 25.8104 11.2734C27.5804 11.2734 29.2779 12.002 30.5295 13.2988C31.7811 14.5957 32.4843 16.3545 32.4843 18.1885C32.4843 20.0225 31.7811 21.7814 30.5295 23.0782C29.2779 24.3751 27.5804 25.1036 25.8104 25.1036V25.0692Z" fill="url(#paint0_linear_1313_9858)"/>
<path d="M8.14637 18.154C8.14637 18.5372 8.2933 18.9047 8.55483 19.1757C8.81636 19.4467 9.17107 19.5989 9.54092 19.5989C9.82603 19.6057 10.1066 19.5239 10.3464 19.364C10.5862 19.2041 10.7743 18.9734 10.8865 18.7018C10.9986 18.4301 11.0297 18.1298 10.9756 17.8397C10.9216 17.5496 10.785 17.2829 10.5833 17.0739C10.3817 16.865 10.1243 16.7234 9.84424 16.6674C9.56422 16.6114 9.27444 16.6436 9.01224 16.7598C8.75004 16.876 8.52744 17.0709 8.37311 17.3194C8.21879 17.5679 8.13982 17.8586 8.14637 18.154V18.154Z" fill="white"/>
<path d="M8.14637 18.154C8.14637 18.5372 8.2933 18.9047 8.55483 19.1757C8.81636 19.4467 9.17107 19.5989 9.54092 19.5989C9.82603 19.6057 10.1066 19.5239 10.3464 19.364C10.5862 19.2041 10.7743 18.9734 10.8865 18.7018C10.9986 18.4301 11.0297 18.1298 10.9756 17.8397C10.9216 17.5496 10.785 17.2829 10.5833 17.0739C10.3817 16.865 10.1243 16.7234 9.84424 16.6674C9.56422 16.6114 9.27444 16.6436 9.01224 16.7598C8.75004 16.876 8.52744 17.0709 8.37311 17.3194C8.21879 17.5679 8.13982 17.8586 8.14637 18.154V18.154Z" fill="#F6C749"/>
<path d="M97.4313 2.61475H85.1792V4.04937H97.4313V2.61475Z" fill="#666464"/>
<path d="M98.8247 6.84668H83.7834V8.2813H98.8247V6.84668Z" fill="#666464"/>
<path d="M97.299 17.2024H85.1133C84.9978 17.2041 84.8841 17.1729 84.7846 17.1123C84.6851 17.0516 84.6035 16.9638 84.5488 16.8584C84.4801 16.76 84.4378 16.6445 84.4261 16.5237C84.4145 16.4028 84.4339 16.2809 84.4824 16.1703L88.6329 7.01904L89.8946 7.6383L86.209 15.7575H96.3361L94.842 11.0442L96.1701 10.597L97.9299 16.2736C97.9718 16.3759 97.9847 16.4885 97.9671 16.5982C97.9494 16.7079 97.902 16.8101 97.8303 16.8928C97.7767 16.9891 97.6991 17.0686 97.6056 17.1231C97.5121 17.1776 97.4062 17.205 97.299 17.2024V17.2024Z" fill="#666464"/>
<path d="M67.0161 2.89014H65.6216V17.7765H67.0161V2.89014Z" fill="#666464"/>
<path d="M69.8059 8.73877H68.4114V15.5231H69.8059V8.73877Z" fill="#666464"/>
<path d="M73.8009 1.40431L72.5422 2.02637L73.5314 4.17516L74.7901 3.5531L73.8009 1.40431Z" fill="#666464"/>
<path d="M77.2901 1.30111L75.9028 4.9502L77.1911 5.47599L78.5784 1.8269L77.2901 1.30111Z" fill="#666464"/>
<path d="M64.2603 17.2024H62.8657V7.29425C62.8657 7.10264 62.9392 6.91887 63.07 6.78339C63.2007 6.6479 63.3781 6.57178 63.563 6.57178H69.8717V8.01672H64.2603V17.2024Z" fill="#666464"/>
<path d="M69.6068 2.37451H63.2649V3.80913H69.6068V2.37451Z" fill="#666464"/>
<path d="M80.2645 17.6835H76.5125C76.3301 17.6751 76.1575 17.5963 76.0284 17.4626C75.8994 17.3289 75.8233 17.15 75.8152 16.9611V10.1836H77.2097V16.2386H80.2645V17.6835Z" fill="#666464"/>
<path d="M70.2373 17.9248L69.7393 16.583L72.3955 15.4821L72.96 10.0464L74.3214 10.184L73.7237 16.067C73.7273 16.201 73.6864 16.3322 73.6078 16.4386C73.5293 16.5451 73.4178 16.6204 73.292 16.6518L70.2373 17.9248Z" fill="#666464"/>
<path d="M57.1216 6.57178H52.2075V8.0064H57.1216V6.57178Z" fill="#666464"/>
<path d="M59.3129 8.84229H50.0159V10.2769H59.3129V8.84229Z" fill="#666464"/>
<path d="M59.3129 2.9248H50.0159V4.35943H59.3129V2.9248Z" fill="#666464"/>
<path d="M55.3611 1.34229H53.9666V3.43745H55.3611V1.34229Z" fill="#666464"/>
<path d="M53.7974 3.12628L49.4507 7.32617L50.3972 8.3779L54.744 4.17802L53.7974 3.12628Z" fill="#666464"/>
<path d="M58.9153 8.36066L54.5989 4.16345L55.5286 3.13135L59.8782 7.32856L58.9153 8.36066Z" fill="#666464"/>
<path d="M48.4219 9.63379H45.666V11.0684H48.4219V9.63379Z" fill="#666464"/>
<path d="M43.874 7.56898H42.4795V3.16534C42.4795 2.97373 42.553 2.78997 42.6837 2.65448C42.8145 2.51899 42.9918 2.44287 43.1768 2.44287H47.7257V3.88781H43.874V7.56898Z" fill="#666464"/>
<path d="M53.2028 17.9251L53.2147 16.2108L57.6189 14.7944V13.1774H51.1774C51.0544 13.1746 50.9344 13.1381 50.8294 13.0716C50.7244 13.0052 50.6383 12.9111 50.5797 12.799C50.5266 12.6853 50.5019 12.5596 50.5077 12.4334C50.5135 12.3072 50.5497 12.1845 50.6129 12.0765L52.1735 9.39307L53.3688 10.1155L52.4059 11.7325H58.3162C58.5011 11.7325 58.6785 11.8086 58.8092 11.9441C58.94 12.0796 59.0135 12.2634 59.0135 12.455V15.3104C59.0102 15.4599 58.9643 15.605 58.8816 15.7274C58.7989 15.8499 58.683 15.9442 58.5486 15.9985L53.2028 17.9251Z" fill="#666464"/>
<path d="M43.1768 17.2021C43.0449 17.193 42.9182 17.1453 42.8115 17.0645C42.7142 17.0026 42.633 16.9169 42.5751 16.815C42.5172 16.713 42.4844 16.5978 42.4795 16.4796V10.1494H43.874V15.3787L48.9542 13.1081L48.929 14.737L43.4424 17.1333L43.1768 17.2021Z" fill="#666464"/>
<path d="M46.364 8.05078H44.9695V15.1379H46.364V8.05078Z" fill="#666464"/>
<path d="M47.7257 8.29145H42.4795V6.84651H47.0284V2.44287H48.4229V7.56898C48.4229 7.76059 48.3495 7.94435 48.2187 8.07984C48.0879 8.21533 47.9106 8.29145 47.7257 8.29145Z" fill="#666464"/>
<path d="M72.261 9.97769H70.8665V5.19562C70.8665 5.004 70.9399 4.82024 71.0707 4.68475C71.2014 4.54926 71.3788 4.47314 71.5637 4.47314H79.1009V5.91809H72.261V9.97769Z" fill="#666464"/>
<path d="M78.9017 10.4937H70.8665V9.0488H78.2044V4.47314H79.5658V9.77127C79.566 9.95706 79.4971 10.1358 79.3734 10.2703C79.2498 10.4049 79.0808 10.4849 78.9017 10.4937V10.4937Z" fill="#666464"/>
<path d="M42.4795 20.9264C42.4795 20.7804 42.5355 20.6404 42.6351 20.5372C42.7347 20.434 42.8698 20.376 43.0107 20.376C43.1516 20.376 43.2868 20.434 43.3864 20.5372C43.486 20.6404 43.542 20.7804 43.542 20.9264C43.542 21.0724 43.486 21.2124 43.3864 21.3157C43.2868 21.4189 43.1516 21.4769 43.0107 21.4769C42.8698 21.4769 42.7347 21.4189 42.6351 21.3157C42.5355 21.2124 42.4795 21.0724 42.4795 20.9264V20.9264ZM42.6455 22.4058H43.4092V27.119H42.6455V22.4058Z" fill="#666464"/>
<path d="M47.5925 25.6743V23.0596H46.8953V22.4404H47.6257L47.7254 21.0986H48.3562V22.4404H49.5847V23.094H48.3562V25.7087C48.3562 26.2935 48.5222 26.6376 49.0535 26.6376C49.237 26.6245 49.4169 26.5779 49.5847 26.5L49.7176 27.0848C49.4526 27.1915 49.1717 27.2497 48.8875 27.2568C47.9246 27.2224 47.5925 26.6032 47.5925 25.6743Z" fill="#666464"/>
<path d="M52.6378 25.8804C52.6378 24.8827 53.5011 24.3667 55.4269 24.1258C55.4269 23.5066 55.2609 22.9561 54.4972 22.9561C54.0083 22.9784 53.5358 23.1455 53.1358 23.4378L52.837 22.8873C53.3658 22.5088 53.9877 22.294 54.63 22.2681C55.7257 22.2681 56.1906 23.0593 56.1906 24.2291V27.1189H55.5597L55.4933 26.5685C55.063 26.9471 54.5286 27.1757 53.9659 27.2222C53.7907 27.2372 53.6143 27.2131 53.4488 27.1515C53.2834 27.0899 53.1325 26.9922 53.0066 26.865C52.8807 26.7378 52.7826 26.5841 52.719 26.4142C52.6554 26.2444 52.6277 26.0623 52.6378 25.8804V25.8804ZM55.4269 25.9836V24.6419C53.8995 24.8483 53.3683 25.2268 53.3683 25.846C53.3683 26.4653 53.7335 26.6029 54.1983 26.6029C54.6632 26.6029 54.9952 26.3621 55.4269 25.9836Z" fill="#666464"/>
<path d="M61.0066 24.6764L59.6453 22.4058H60.4754L61.073 23.4379C61.2058 23.7131 61.3718 23.9539 61.5379 24.2291H61.5711L61.9695 23.4379L62.534 22.4058H63.3309L61.9363 24.7452L63.4305 27.119H62.6004L61.9363 26.0181L61.4383 25.158H61.4051L60.9402 26.0181L60.3425 27.119H59.5125L61.0066 24.6764Z" fill="#666464"/>
<path d="M66.3523 26.5685L66.7175 26.0524C67.0876 26.408 67.5742 26.6047 68.0789 26.6029C68.6765 26.6029 68.9754 26.2933 68.9754 25.8804C68.9754 25.4676 68.4441 25.1924 67.9461 24.9859C67.448 24.7795 66.5847 24.4011 66.5847 23.6098C66.5847 22.8185 67.1492 22.2681 68.1453 22.2681C68.6591 22.2708 69.1545 22.4664 69.5398 22.8185L69.1746 23.3346C68.887 23.0794 68.5238 22.9337 68.1453 22.9217C67.5808 22.9217 67.3152 23.2314 67.3152 23.5754C67.3152 23.9194 67.8133 24.1947 68.3113 24.4011C68.8094 24.6075 69.7059 24.9515 69.7059 25.846C69.7059 26.7405 69.1082 27.2222 68.0457 27.2222C67.4258 27.2104 66.8285 26.9798 66.3523 26.5685V26.5685Z" fill="#666464"/>
<path d="M73.127 26.6376C73.127 26.4825 73.1864 26.3337 73.2923 26.224C73.3981 26.1144 73.5417 26.0527 73.6914 26.0527C73.8411 26.0527 73.9847 26.1144 74.0905 26.224C74.1964 26.3337 74.2559 26.4825 74.2559 26.6376C74.2559 26.7927 74.1964 26.9415 74.0905 27.0511C73.9847 27.1608 73.8411 27.2224 73.6914 27.2224C73.5417 27.2224 73.3981 27.1608 73.2923 27.0511C73.1864 26.9415 73.127 26.7927 73.127 26.6376Z" fill="#666464"/>
<path d="M77.6746 24.7795C77.6746 23.197 78.7039 22.2681 79.8992 22.2681C80.3906 22.2841 80.8608 22.479 81.2273 22.8185L80.8289 23.369C80.5798 23.1157 80.248 22.9683 79.8992 22.9561C79.1023 22.9561 78.4715 23.6786 78.4715 24.7795C78.4715 25.8804 79.0691 26.5685 79.8992 26.5685C80.2999 26.5553 80.6804 26.3829 80.9617 26.0868L81.2938 26.6373C80.8929 27.0121 80.3727 27.2203 79.8328 27.2222C78.6043 27.2222 77.6746 26.3277 77.6746 24.7795Z" fill="#666464"/>
<path d="M85.0005 24.7795C85.0005 23.197 85.9966 22.2681 87.0923 22.2681C88.188 22.2681 89.2173 23.197 89.2173 24.7795C89.2173 26.3621 88.2212 27.2222 87.0923 27.2222C85.9634 27.2222 85.0005 26.3277 85.0005 24.7795ZM88.4205 24.7795C88.4205 23.6786 87.8892 22.9561 87.0923 22.9561C86.2954 22.9561 85.7974 23.6786 85.7974 24.7795C85.7974 25.8804 86.2954 26.5685 87.0923 26.5685C87.8892 26.5685 88.4205 25.846 88.4205 24.7795Z" fill="#666464"/>
<path d="M92.2185 22.4059H92.8494L92.9158 23.094C93.3142 22.6467 93.8123 22.2683 94.3435 22.2683C94.626 22.2429 94.908 22.3224 95.1391 22.4926C95.3702 22.6627 95.5354 22.9125 95.6053 23.1972C96.0701 22.6467 96.535 22.2683 97.0994 22.2683C97.6639 22.2683 98.494 22.922 98.494 24.1261V27.1192H97.7303V24.2293C97.7303 23.3348 97.4647 22.9908 96.867 22.9908C96.2693 22.9908 96.1697 23.1972 95.7381 23.6788V27.1192H94.9744V24.2293C94.9744 23.3348 94.7088 22.9908 94.1111 22.9908C93.8866 23.0161 93.6699 23.0905 93.4753 23.2091C93.2807 23.3277 93.1126 23.4878 92.9822 23.6788V27.1192H92.2185V22.4059Z" fill="#666464"/>
<defs>
<linearGradient id="paint0_linear_1313_9858" x1="-2.66111e-09" y1="16.1875" x2="34.9994" y2="16.054" gradientUnits="userSpaceOnUse">
<stop offset="0.275564" stop-color="#55AAE3"/>
</linearGradient>
</defs>
</svg>
