<svg width="118" height="32" viewBox="0 0 118 32" fill="none" xmlns="http://www.w3.org/2000/svg">
<path d="M32.0234 9.62053C31.6346 6.94796 30.3003 4.50511 28.2643 2.73862C26.2284 0.972118 23.6268 0 20.9354 0C18.244 0 15.6425 0.972118 13.6065 2.73862C11.5706 4.50511 10.2362 6.94796 9.84742 9.62053C7.0258 9.95735 4.43828 11.361 2.61194 13.5455C0.785607 15.73 -0.142139 18.5311 0.0176925 21.3781C0.177524 24.2251 1.41291 26.9038 3.47219 28.8687C5.53147 30.8335 8.25973 31.9366 11.1012 31.9532H11.3755C11.7912 31.9234 12.1802 31.7363 12.4638 31.4298C12.7474 31.1233 12.9045 30.7202 12.9035 30.3019V25.623C12.9035 25.1851 12.7301 24.765 12.4215 24.4553C12.1129 24.1456 11.6943 23.9717 11.2579 23.9717C10.8215 23.9717 10.4029 24.1456 10.0943 24.4553C9.78571 24.765 9.61234 25.1851 9.61234 25.623V28.4146C8.36122 28.1249 7.19967 27.5326 6.22887 26.6893C5.25807 25.8459 4.50746 24.7772 4.04245 23.5762C3.57744 22.3751 3.41211 21.0782 3.56088 19.7983C3.70966 18.5185 4.16801 17.2946 4.89601 16.2332C5.62402 15.1718 6.59959 14.3051 7.73775 13.7087C8.87591 13.1123 10.1421 12.8041 11.4261 12.8112C12.7101 12.8182 13.9729 13.1402 15.1045 13.7491C16.2361 14.358 17.2021 15.2353 17.9185 16.3046C18.8023 17.6153 19.2669 19.1651 19.2507 20.7476C19.2493 22.9048 19.8662 25.0169 21.0279 26.832C22.1896 28.647 23.847 30.0885 25.8025 30.9844C27.758 31.8803 29.9291 32.1928 32.0567 31.8847C34.1843 31.5766 36.1787 30.6609 37.802 29.2467C39.4253 27.8325 40.609 25.9797 41.212 23.909C41.8149 21.8384 41.8116 19.6374 41.2025 17.5686C40.5934 15.4998 39.4041 13.6505 37.7766 12.2413C36.1491 10.832 34.152 9.92224 32.0234 9.62053ZM30.4562 28.6505C28.3676 28.6505 26.3645 27.8179 24.8876 26.3358C23.4107 24.8537 22.581 22.8436 22.581 20.7476C22.581 20.3544 22.5418 20.0005 22.5418 19.6467C22.5418 19.4282 22.4441 18.8879 22.3851 18.5851L22.2676 18.1526C22.2338 17.9515 22.1813 17.754 22.1108 17.5628L21.9933 17.1303L21.7582 16.5405L21.6015 16.1473L21.3272 15.5969C21.2541 15.4699 21.1887 15.3386 21.1313 15.2037L20.8179 14.6926L20.5828 14.3387L20.191 13.8276L19.9559 13.513L19.4858 13.0412L19.2507 12.766C19.0481 12.5365 18.8251 12.326 18.5846 12.1369C18.5454 12.0976 18.5063 12.0976 18.5063 12.0583L17.6835 11.4685L17.37 11.2719L16.8215 10.918L16.4297 10.7214L15.8812 10.4462L15.4502 10.2889L14.9017 10.0923L14.4707 9.93508L13.883 9.81712L13.452 9.69917H13.1777C13.5174 7.73795 14.582 5.97759 16.1589 4.76991C17.7357 3.56223 19.7086 2.99619 21.6833 3.18491C23.658 3.37364 25.489 4.30324 26.8103 5.78791C28.1317 7.27258 28.846 9.20297 28.8106 11.1933C28.8054 11.4134 28.8441 11.6324 28.9245 11.8373C29.0048 12.0422 29.1252 12.2289 29.2785 12.3864C29.4319 12.544 29.6151 12.6691 29.8173 12.7546C30.0195 12.84 30.2368 12.884 30.4562 12.8839C32.5449 12.8839 34.548 13.7166 36.0248 15.1987C37.5017 16.6807 38.3314 18.6909 38.3314 20.7869C38.3314 22.8829 37.5017 24.893 36.0248 26.3751C34.548 27.8572 32.5449 28.6898 30.4562 28.6898V28.6505Z" fill="url(#paint0_linear_1306_12105)"/>
<path d="M9.61263 20.7476C9.61263 21.1856 9.786 21.6056 10.0946 21.9153C10.4032 22.225 10.8218 22.399 11.2582 22.399C11.5946 22.4067 11.9257 22.3132 12.2086 22.1305C12.4916 21.9477 12.7136 21.6841 12.8459 21.3737C12.9783 21.0632 13.0149 20.72 12.9512 20.3885C12.8874 20.0569 12.7262 19.752 12.4882 19.5133C12.2503 19.2745 11.9465 19.1127 11.6161 19.0487C11.2857 18.9847 10.9437 19.0215 10.6344 19.1543C10.325 19.2871 10.0623 19.5099 9.88018 19.7938C9.69808 20.0778 9.60489 20.41 9.61263 20.7476Z" fill="white"/>
<path d="M9.61263 20.7476C9.61263 21.1856 9.786 21.6056 10.0946 21.9153C10.4032 22.225 10.8218 22.399 11.2582 22.399C11.5946 22.4067 11.9257 22.3132 12.2086 22.1305C12.4916 21.9477 12.7136 21.6841 12.8459 21.3737C12.9783 21.0632 13.0149 20.72 12.9512 20.3885C12.8874 20.0569 12.7262 19.752 12.4882 19.5133C12.2503 19.2745 11.9465 19.1127 11.6161 19.0487C11.2857 18.9847 10.9437 19.0215 10.6344 19.1543C10.325 19.2871 10.0623 19.5099 9.88018 19.7938C9.69808 20.0778 9.60489 20.41 9.61263 20.7476Z" fill="#F6C749"/>
<path d="M114.969 2.98853H100.511V4.62809H114.969V2.98853Z" fill="#666464"/>
<path d="M116.614 7.82483H98.865V9.4644H116.614V7.82483Z" fill="#666464"/>
<path d="M114.813 19.66H100.434C100.297 19.6619 100.163 19.6263 100.046 19.557C99.9283 19.4876 99.8321 19.3873 99.7676 19.2668C99.6865 19.1544 99.6365 19.0224 99.6228 18.8843C99.609 18.7461 99.6319 18.6068 99.6892 18.4805L104.587 8.02185L106.076 8.72958L101.727 18.0087H113.677L111.913 12.6221L113.481 12.1109L115.557 18.5984C115.607 18.7154 115.622 18.8441 115.601 18.9695C115.58 19.0948 115.524 19.2116 115.44 19.3062C115.376 19.4162 115.285 19.5071 115.175 19.5693C115.064 19.6316 114.939 19.6629 114.813 19.66Z" fill="#666464"/>
<path d="M79.0789 3.30322H77.4333V20.3162H79.0789V3.30322Z" fill="#666464"/>
<path d="M82.3709 9.98743H80.7253V17.741H82.3709V9.98743Z" fill="#666464"/>
<path d="M87.0846 1.60511L85.5994 2.31604L86.7666 4.77181L88.2519 4.06088L87.0846 1.60511Z" fill="#666464"/>
<path d="M91.2022 1.48721L89.5652 5.65759L91.0853 6.2585L92.7223 2.08811L91.2022 1.48721Z" fill="#666464"/>
<path d="M75.827 19.6598H74.1814V8.33618C74.1814 8.11719 74.2681 7.90718 74.4224 7.75234C74.5767 7.59749 74.786 7.5105 75.0042 7.5105H82.4484V9.16186H75.827V19.6598Z" fill="#666464"/>
<path d="M82.1355 2.71375H74.6521V4.35331H82.1355V2.71375Z" fill="#666464"/>
<path d="M94.7119 20.2098H90.2846C90.0694 20.2002 89.8657 20.1101 89.7134 19.9573C89.5611 19.8045 89.4714 19.6 89.4618 19.3841V11.6384H91.1074V18.5584H94.7119V20.2098Z" fill="#666464"/>
<path d="M82.8795 20.4852L82.2917 18.9518L85.4262 17.6936L86.0922 11.4813L87.6986 11.6386L86.9934 18.362C86.9976 18.5151 86.9494 18.6651 86.8567 18.7867C86.764 18.9084 86.6324 18.9944 86.484 19.0304L82.8795 20.4852Z" fill="#666464"/>
<path d="M67.4029 7.51062H61.6042V9.15019H67.4029V7.51062Z" fill="#666464"/>
<path d="M69.989 10.1056H59.0186V11.7452H69.989V10.1056Z" fill="#666464"/>
<path d="M69.989 3.34265H59.0186V4.98222H69.989V3.34265Z" fill="#666464"/>
<path d="M65.3261 1.53406H63.6805V3.92853H65.3261V1.53406Z" fill="#666464"/>
<path d="M63.4815 3.57305L58.3523 8.37292L59.4692 9.5749L64.5984 4.77503L63.4815 3.57305Z" fill="#666464"/>
<path d="M69.5199 9.55522L64.4265 4.7584L65.5236 3.57886L70.6562 8.37568L69.5199 9.55522Z" fill="#666464"/>
<path d="M57.1375 11.01H53.8855V12.6496H57.1375V11.01Z" fill="#666464"/>
<path d="M51.7713 8.65028H50.1257V3.61755C50.1257 3.39857 50.2124 3.18855 50.3667 3.03371C50.521 2.87886 50.7303 2.79187 50.9485 2.79187H56.3162V4.44323H51.7713V8.65028Z" fill="#666464"/>
<path d="M62.7797 20.4856L62.7937 18.5265L67.9906 16.9077V15.0597H60.3897C60.2445 15.0565 60.1029 15.0148 59.979 14.9388C59.8551 14.8628 59.7535 14.7554 59.6844 14.6272C59.6218 14.4973 59.5925 14.3536 59.5994 14.2094C59.6062 14.0652 59.6489 13.925 59.7236 13.8016L61.5651 10.7347L62.9756 11.5604L61.8393 13.4084H68.8134C69.0316 13.4084 69.2409 13.4954 69.3952 13.6502C69.5495 13.8051 69.6362 14.0151 69.6362 14.2341V17.4975C69.6324 17.6682 69.5782 17.8341 69.4806 17.974C69.383 18.1139 69.2463 18.2218 69.0877 18.2838L62.7797 20.4856Z" fill="#666464"/>
<path d="M50.9485 19.6595C50.7929 19.6491 50.6434 19.5945 50.5175 19.5022C50.4027 19.4315 50.3069 19.3336 50.2386 19.217C50.1703 19.1005 50.1315 18.9689 50.1257 18.8338V11.5992H51.7713V17.5756L57.7659 14.9806L57.7361 16.8423L51.262 19.5808L50.9485 19.6595Z" fill="#666464"/>
<path d="M54.7098 9.20105H53.0642V17.3006H54.7098V9.20105Z" fill="#666464"/>
<path d="M56.3162 9.47596H50.1257V7.8246H55.4934V2.79187H57.139V8.65028C57.139 8.86926 57.0523 9.07928 56.898 9.23412C56.7437 9.38897 56.5344 9.47596 56.3162 9.47596Z" fill="#666464"/>
<path d="M85.2684 11.4031H83.6228V5.93786C83.6228 5.71888 83.7095 5.50886 83.8638 5.35402C84.0181 5.19917 84.2274 5.11218 84.4456 5.11218H93.3395V6.76355H85.2684V11.4031Z" fill="#666464"/>
<path d="M93.1044 11.9929H83.6228V10.3415H92.2816V5.11218H93.888V11.1672C93.8883 11.3795 93.807 11.5838 93.661 11.7376C93.5151 11.8913 93.3158 11.9828 93.1044 11.9929Z" fill="#666464"/>
<path d="M50.1257 23.9158C50.1257 23.749 50.1918 23.589 50.3093 23.471C50.4269 23.353 50.5864 23.2867 50.7526 23.2867C50.9189 23.2867 51.0783 23.353 51.1959 23.471C51.3135 23.589 51.3795 23.749 51.3795 23.9158C51.3795 24.0827 51.3135 24.2427 51.1959 24.3607C51.0783 24.4786 50.9189 24.5449 50.7526 24.5449C50.5864 24.5449 50.4269 24.4786 50.3093 24.3607C50.1918 24.2427 50.1257 24.0827 50.1257 23.9158ZM50.3216 25.6065H51.2228V30.9931H50.3216V25.6065Z" fill="#666464"/>
<path d="M56.1592 29.342V26.3538H55.3364V25.6461H56.1984L56.3159 24.1127H57.0604V25.6461H58.51V26.3931H57.0604V29.3813C57.0604 30.0497 57.2563 30.4429 57.8831 30.4429C58.0997 30.428 58.3119 30.3747 58.51 30.2856L58.6667 30.954C58.354 31.0759 58.0226 31.1425 57.6872 31.1506C56.551 31.1113 56.1592 30.4036 56.1592 29.342Z" fill="#666464"/>
<path d="M62.1125 29.5777C62.1125 28.4375 63.1312 27.8477 65.4037 27.5725C65.4037 26.8648 65.2077 26.2357 64.3066 26.2357C63.7297 26.2611 63.1721 26.4522 62.7002 26.7862L62.3476 26.1571C62.9716 25.7245 63.7054 25.479 64.4633 25.4493C65.7563 25.4493 66.3048 26.3537 66.3048 27.6905V30.9932H65.5604L65.482 30.3641C64.9743 30.7968 64.3437 31.0581 63.6797 31.1112C63.4729 31.1284 63.2649 31.1009 63.0696 31.0304C62.8743 30.96 62.6963 30.8484 62.5478 30.703C62.3992 30.5576 62.2834 30.3819 62.2084 30.1878C62.1333 29.9937 62.1006 29.7856 62.1125 29.5777ZM65.4037 29.6957V28.1623C63.6014 28.3982 62.9745 28.8307 62.9745 29.5384C62.9745 30.2462 63.4055 30.4034 63.954 30.4034C64.5025 30.4034 64.8943 30.1282 65.4037 29.6957Z" fill="#666464"/>
<path d="M71.9875 28.2017L70.3811 25.6067H71.3606L72.0658 26.7862C72.2226 27.1008 72.4185 27.376 72.6144 27.6906H72.6535L73.1237 26.7862L73.7898 25.6067H74.7301L73.0845 28.2803L74.8476 30.9933H73.8681L73.0845 29.7351L72.4968 28.7521H72.4576L71.9091 29.7351L71.2039 30.9933H70.2244L71.9875 28.2017Z" fill="#666464"/>
<path d="M78.2957 30.3641L78.7266 29.7743C79.1634 30.1807 79.7375 30.4055 80.333 30.4034C81.0383 30.4034 81.3909 30.0496 81.3909 29.5777C81.3909 29.1059 80.764 28.7914 80.1763 28.5555C79.5886 28.3196 78.5699 27.8871 78.5699 26.9827C78.5699 26.0784 79.236 25.4493 80.4114 25.4493C81.0177 25.4525 81.6022 25.676 82.0569 26.0784L81.626 26.6682C81.2866 26.3765 80.858 26.21 80.4114 26.1964C79.7453 26.1964 79.4319 26.5502 79.4319 26.9434C79.4319 27.3366 80.0196 27.6512 80.6073 27.8871C81.195 28.123 82.2529 28.5162 82.2529 29.5384C82.2529 30.5607 81.5476 31.1112 80.2938 31.1112C79.5624 31.0977 78.8575 30.8341 78.2957 30.3641Z" fill="#666464"/>
<path d="M86.2898 30.4426C86.2898 30.2653 86.36 30.0953 86.4849 29.9699C86.6098 29.8446 86.7792 29.7742 86.9558 29.7742C87.1325 29.7742 87.3019 29.8446 87.4268 29.9699C87.5517 30.0953 87.6219 30.2653 87.6219 30.4426C87.6219 30.6199 87.5517 30.7899 87.4268 30.9152C87.3019 31.0406 87.1325 31.111 86.9558 31.111C86.7792 31.111 86.6098 31.0406 86.4849 30.9152C86.36 30.7899 86.2898 30.6199 86.2898 30.4426Z" fill="#666464"/>
<path d="M91.656 28.3196C91.656 26.5109 92.8706 25.4493 94.2811 25.4493C94.8609 25.4677 95.4158 25.6904 95.8483 26.0784L95.3781 26.7075C95.0842 26.418 94.6927 26.2497 94.2811 26.2357C93.3408 26.2357 92.5963 27.0614 92.5963 28.3196C92.5963 29.5777 93.3016 30.3641 94.2811 30.3641C94.754 30.3491 95.2029 30.152 95.5349 29.8137L95.9267 30.4427C95.4537 30.871 94.8398 31.1091 94.2027 31.1112C92.7531 31.1112 91.656 30.0889 91.656 28.3196Z" fill="#666464"/>
<path d="M100.3 28.3194C100.3 26.5108 101.476 25.4492 102.769 25.4492C104.062 25.4492 105.276 26.5108 105.276 28.3194C105.276 30.1281 104.101 31.111 102.769 31.111C101.437 31.111 100.3 30.0888 100.3 28.3194ZM104.336 28.3194C104.336 27.0613 103.709 26.2356 102.769 26.2356C101.828 26.2356 101.241 27.0613 101.241 28.3194C101.241 29.5776 101.828 30.364 102.769 30.364C103.709 30.364 104.336 29.5383 104.336 28.3194Z" fill="#666464"/>
<path d="M108.818 25.6065H109.562L109.641 26.3929C110.111 25.8818 110.699 25.4493 111.325 25.4493C111.659 25.4203 111.991 25.5111 112.264 25.7056C112.537 25.9 112.732 26.1855 112.814 26.5108C113.363 25.8818 113.911 25.4493 114.577 25.4493C115.243 25.4493 116.223 26.1963 116.223 27.5724V30.9931H115.322V27.6904C115.322 26.6681 115.008 26.2749 114.303 26.2749C113.598 26.2749 113.48 26.5108 112.971 27.0613V30.9931H112.07V27.6904C112.07 26.6681 111.756 26.2749 111.051 26.2749C110.786 26.3038 110.531 26.3889 110.301 26.5245C110.071 26.66 109.873 26.843 109.719 27.0613V30.9931H108.818V25.6065Z" fill="#666464"/>
<defs>
<linearGradient id="paint0_linear_1306_12105" x1="-3.14011e-09" y1="18.5" x2="41.2993" y2="18.3373" gradientUnits="userSpaceOnUse">
<stop offset="0.275564" stop-color="#55AAE3"/>
</linearGradient>
</defs>
</svg>
