<svg width="285" height="101" viewBox="0 0 285 101" fill="none" xmlns="http://www.w3.org/2000/svg">
<g id="Group 427318602">
<g id="&#228;&#184;&#147;&#229;&#177;&#158;">
<g id="Rectangle 552" filter="url(#filter0_i_629_40900)">
<path d="M190.863 13.0023C190.863 10.7932 192.654 9.00232 194.863 9.00232H234.863C237.072 9.00232 238.863 10.7932 238.863 13.0023V29.1266C238.863 31.3357 237.072 33.1266 234.863 33.1266H197.113L191.779 36.4342C191.379 36.682 190.863 36.3946 190.863 35.9242V28.1602V13.0023Z" fill="url(#paint0_linear_629_40900)"/>
</g>
<g id="Ellipse 154" filter="url(#filter1_f_629_40900)">
<ellipse cx="215.113" cy="10.604" rx="14.75" ry="1.60168" fill="#FFF5EC" fill-opacity="0.74"/>
</g>
<g id="&#228;&#184;&#147;&#229;&#177;&#158;_2" filter="url(#filter2_d_629_40900)">
<path d="M203.439 18.7143V19.8063H206.499C206.247 20.6343 205.983 21.4263 205.695 22.1943H211.503C210.915 22.8663 210.111 23.5143 209.091 24.1623C208.323 23.8983 207.519 23.6703 206.679 23.4543L206.079 24.3423C207.951 24.8223 209.787 25.4943 211.575 26.3343L212.199 25.3503C211.599 25.0863 210.975 24.8343 210.327 24.5943C211.479 23.7663 212.331 22.9503 212.883 22.1343V21.1503H207.327C207.471 20.7303 207.603 20.2863 207.747 19.8063H214.287V18.7143H208.047C208.143 18.3303 208.239 17.9223 208.335 17.5023H213.579V16.4343H208.563C208.635 16.0263 208.719 15.5943 208.803 15.1503L207.627 15.0543C207.531 15.5103 207.447 15.9783 207.351 16.4343H204.255V17.5023H207.111C207.015 17.9103 206.907 18.3063 206.811 18.7143H203.439ZM218.427 19.7463V21.9783H221.235V22.4943H217.851V26.2383H218.895V23.4063H221.235V24.2703C220.659 24.3183 220.059 24.3543 219.447 24.4023L219.675 25.3383C221.043 25.1943 222.351 25.0383 223.587 24.8583C223.635 24.9783 223.683 25.1223 223.731 25.2663L223.419 25.2543L223.671 26.2023H224.907C225.627 26.2023 225.987 25.8183 225.987 25.0623V22.4943H222.315V21.9783H225.171V19.7463H222.315V19.2543C223.551 19.2063 224.643 19.1223 225.591 19.0143L225.123 18.1983C223.155 18.3903 220.743 18.4983 217.887 18.4983L218.175 19.3383C219.255 19.3383 220.275 19.3143 221.235 19.2903V19.7463H218.427ZM222.243 23.4063H223.011C223.107 23.5983 223.203 23.8263 223.299 24.0663L222.243 24.1863V23.4063ZM224.151 21.1863H222.315V20.5743H224.151V21.1863ZM221.235 21.1863H219.459V20.5743H221.235V21.1863ZM223.851 25.2663L224.523 24.9783C224.331 24.4383 224.115 23.9103 223.875 23.4063H224.967V24.8463C224.967 25.1343 224.835 25.2903 224.595 25.2903L223.851 25.2663ZM224.667 16.4583V17.1303H217.563V16.4583H224.667ZM217.563 17.9703H225.747V15.5583H216.459V19.1703C216.447 21.6663 216.063 23.7063 215.319 25.2783L216.171 26.0463C217.083 24.1383 217.551 21.8463 217.563 19.1703V17.9703Z" fill="white" fill-opacity="0.9" shape-rendering="crispEdges"/>
</g>
</g>
<g id="&#228;&#184;&#128;&#229;&#175;&#185;&#228;&#184;&#128;">
<g id="Rectangle 552_2" filter="url(#filter3_i_629_40900)">
<path d="M94.8628 35.0023C94.8628 32.7932 93.0719 31.0023 90.8628 31.0023H38.8628C36.6537 31.0023 34.8628 32.7932 34.8628 35.0023V51.1266C34.8628 53.3357 36.6537 55.1266 38.8628 55.1266H88.6128L93.9466 58.4342C94.3463 58.682 94.8628 58.3946 94.8628 57.9242V50.1602V35.0023Z" fill="url(#paint1_linear_629_40900)"/>
</g>
<g id="Ellipse 154_2" filter="url(#filter4_f_629_40900)">
<ellipse cx="64.6128" cy="32.604" rx="23" ry="1.60168" fill="#C8E1FF"/>
</g>
<g id="&#228;&#184;&#128;&#229;&#175;&#185;&#228;&#184;&#128;_2" filter="url(#filter5_d_629_40900)">
<path d="M47.4268 42.0343V43.1623H58.2868V42.0343H47.4268ZM64.5748 39.4063V40.5103H67.9348V46.5343C67.9348 46.9423 67.7068 47.1583 67.2628 47.1583C66.7348 47.1583 66.1708 47.1343 65.5948 47.0863L65.8348 48.2023H67.6588C68.6068 48.2023 69.0868 47.7343 69.0868 46.8223V40.5103H70.3228V39.4063H69.0868V37.1383H67.9348V39.4063H64.5748ZM60.4228 40.2583L59.6548 40.9783C60.4708 41.8903 61.2148 42.7903 61.8628 43.6543C61.2508 44.7343 60.4108 45.6943 59.3308 46.5103L59.9788 47.5063C61.0348 46.6183 61.8988 45.6583 62.5468 44.6023C62.9188 45.1423 63.2548 45.6703 63.5548 46.1983L64.3948 45.3583C63.9988 44.7463 63.5788 44.1343 63.1228 43.5103C63.7348 42.1783 64.0468 40.7143 64.0708 39.1183V38.2783H59.8588V39.3823H63.0508C62.9908 40.5103 62.7748 41.5663 62.3908 42.5503C61.7788 41.7823 61.1188 41.0263 60.4228 40.2583ZM65.3788 41.7223L64.5148 42.3583C65.2468 43.2823 65.8348 44.1343 66.2788 44.9143L67.1788 44.2903C66.7588 43.5463 66.1588 42.6823 65.3788 41.7223ZM71.4268 42.0343V43.1623H82.2868V42.0343H71.4268Z" fill="white" fill-opacity="0.9" shape-rendering="crispEdges"/>
</g>
</g>
<g id="&#228;&#184;&#128;&#229;&#175;&#185;&#228;&#184;&#128;_3">
<g id="Rectangle 552_3" filter="url(#filter6_i_629_40900)">
<path d="M190.863 56.0023C190.863 53.7932 192.654 52.0023 194.863 52.0023H258.863C261.072 52.0023 262.863 53.7932 262.863 56.0023V72.1266C262.863 74.3357 261.072 76.1266 258.863 76.1266H197.113L191.779 79.4342C191.379 79.682 190.863 79.3946 190.863 78.9242V71.1602V56.0023Z" fill="url(#paint2_linear_629_40900)"/>
</g>
<g id="Ellipse 154_3" filter="url(#filter7_f_629_40900)">
<ellipse rx="23" ry="1.60168" transform="matrix(-1 0 0 1 221.113 53.604)" fill="#C8E1FF"/>
</g>
<g id="&#231;&#156;&#159;&#229;&#174;&#158;&#228;&#184;&#147;&#228;&#184;&#154;" filter="url(#filter8_d_629_40900)">
<path d="M203.967 58.9423V59.9263H208.287C208.251 60.1303 208.215 60.3343 208.167 60.5383H205.227V66.1423H203.523V67.1503H206.691C205.899 67.6303 204.927 68.0383 203.775 68.3503L204.243 69.3223C205.587 68.9023 206.727 68.3743 207.663 67.7263L207.159 67.1503H210.495L210.111 67.7383C211.263 68.1223 212.391 68.6503 213.495 69.3223L214.083 68.4223C213.195 67.9423 212.223 67.5103 211.155 67.1503H214.203V66.1423H212.679V60.5383H209.319C209.367 60.3463 209.403 60.1423 209.451 59.9263H213.759V58.9423H209.619C209.643 58.7263 209.679 58.5103 209.703 58.2703L208.551 58.1143C208.527 58.3783 208.491 58.6543 208.443 58.9423H203.967ZM206.319 66.1423V65.5663H211.599V66.1423H206.319ZM206.319 64.7263V64.1983H211.599V64.7263H206.319ZM206.319 63.3583V62.8303H211.599V63.3583H206.319ZM206.319 61.9783V61.4383H211.599V61.9783H206.319ZM220.947 66.8743C222.507 67.4983 224.031 68.3023 225.519 69.3103L226.143 68.3263C224.751 67.4623 223.227 66.6943 221.571 66.0463C221.619 65.9503 221.679 65.8543 221.739 65.7583H225.975V64.6783H222.207C222.447 63.9583 222.579 63.1543 222.615 62.2663V60.8023H221.511V62.2663C221.463 63.1543 221.295 63.9583 221.007 64.6783H215.763V65.7583H220.419L220.215 66.0343C219.411 66.9463 217.887 67.6903 215.655 68.2783L216.279 69.2503C218.415 68.6983 219.975 67.9063 220.947 66.8743ZM217.479 62.3983L216.915 63.2503C217.707 63.5623 218.487 63.9943 219.231 64.5583L219.819 63.6583C219.111 63.1663 218.331 62.7463 217.479 62.3983ZM218.655 60.7183L218.091 61.5583C218.883 61.8703 219.651 62.3143 220.395 62.8663L220.983 61.9663C220.287 61.4743 219.507 61.0543 218.655 60.7183ZM225.867 59.2183H221.487C221.367 58.7983 221.235 58.4263 221.091 58.0903L219.927 58.2823C220.071 58.5703 220.203 58.8823 220.335 59.2183H215.835V61.6783H216.939V60.2623H224.763V61.6783H225.867V59.2183ZM227.439 61.7143V62.8063H230.499C230.247 63.6343 229.983 64.4263 229.695 65.1943H235.503C234.915 65.8663 234.111 66.5143 233.091 67.1623C232.323 66.8983 231.519 66.6703 230.679 66.4543L230.079 67.3423C231.951 67.8223 233.787 68.4943 235.575 69.3343L236.199 68.3503C235.599 68.0863 234.975 67.8343 234.327 67.5943C235.479 66.7663 236.331 65.9503 236.883 65.1343V64.1503H231.327C231.471 63.7303 231.603 63.2863 231.747 62.8063H238.287V61.7143H232.047C232.143 61.3303 232.239 60.9223 232.335 60.5023H237.579V59.4343H232.563C232.635 59.0263 232.719 58.5943 232.803 58.1503L231.627 58.0543C231.531 58.5103 231.447 58.9783 231.351 59.4343H228.255V60.5023H231.111C231.015 60.9103 230.907 61.3063 230.811 61.7143H227.439ZM242.991 58.2583V67.6903H239.511V68.8063H250.215V67.6903H246.711V58.2583H245.571V67.6903H244.131V58.2583H242.991ZM248.955 60.4903C248.451 62.6503 247.851 64.4383 247.179 65.8303L248.199 66.1903C248.919 64.6423 249.507 62.8423 249.963 60.7783L248.955 60.4903ZM240.723 60.4663L239.751 60.7783C240.375 62.5303 240.903 64.3543 241.311 66.2383L242.355 65.9743C241.875 63.9103 241.335 62.0743 240.723 60.4663Z" fill="white" fill-opacity="0.9" shape-rendering="crispEdges"/>
</g>
</g>
<g id="Group 427318598">
<mask id="mask0_629_40900" style="mask-type:alpha" maskUnits="userSpaceOnUse" x="110" y="9" width="65" height="65">
<circle id="Ellipse 152" cx="142.863" cy="41.0023" r="32" fill="#D9D9D9"/>
</mask>
<g mask="url(#mask0_629_40900)">
<g id="Group 427318597">
<path id="Vector" d="M112.918 5.50232H172.807C178.511 5.50232 181.363 8.35417 181.363 14.0579V73.9467C181.363 79.6504 178.511 82.5023 172.807 82.5023H112.918C107.215 82.5023 104.363 79.6504 104.363 73.9467V14.0579C104.363 8.35417 107.215 5.50232 112.918 5.50232V5.50232Z" fill="url(#paint3_linear_629_40900)"/>
<path id="Vector_2" d="M158.38 44.5014C158.002 42.7465 157.717 40.9731 157.524 39.1884C157.424 38.0476 157.404 36.9069 157.114 35.8061C156.62 33.9495 155.516 32.5236 155.374 30.5786C155.237 28.7221 153.831 28.049 152.371 27.0937C150.848 26.0955 149.011 25.24 147.175 25.0974C143.681 24.8122 140.71 27.55 137.316 28.4369C135.89 28.8105 134.33 28.8647 133.038 29.6119C132.091 30.1822 131.327 30.995 130.4 31.5711C129.545 32.0958 129.066 32.2156 128.755 33.1966C128.361 34.4757 128.119 35.7966 128.033 37.1322C127.688 42.2655 127.748 47.4473 127.597 52.5864C127.557 53.8127 127.525 55.038 127.5 56.2624C127.5 56.6474 127.68 62.4538 127.443 62.5764C130.26 61.1163 133.617 58.5097 136.783 58.7264C140.205 58.9603 143.627 59.1219 147.049 59.2112C148.25 59.2426 149.445 59.3624 150.646 59.3823C151.521 59.3823 152.539 59.1485 153.4 59.311C154.142 59.4536 154.37 59.9727 154.966 60.3406C155.651 60.7626 156.962 60.8396 157.721 60.6257C158.434 60.4375 158.773 60.4917 159.498 60.5573C159.638 60.5799 159.783 60.5655 159.916 60.5155C160.05 60.4655 160.168 60.3816 160.259 60.2721C160.37 60.0549 160.401 59.8052 160.345 59.5677C159.934 56.117 159.327 52.7233 159.09 49.2668C158.688 43.5992 157.768 37.9804 156.341 32.4808C156.144 31.7165 155.93 30.9323 155.439 30.3163C154.949 29.7003 154.108 29.2896 153.36 29.5377" fill="#423B38"/>
<path id="Vector_3" d="M135.323 57.9537C135.323 57.9537 124.041 70.6273 122.295 82.5024H163.884C162.524 79.277 156.549 65.4284 151.016 57.8767C150.899 57.6942 150.731 57.4803 150.446 56.9726C149.73 55.6693 149.148 50.7813 149.685 48.8677C149.864 48.226 150.195 47.1765 149.87 46.6119C149.268 45.5595 148.33 44.5471 147.303 44.1336C145.8 43.5319 144.811 43.5233 143.182 43.7172C141.551 43.5233 140.564 43.5319 139.059 44.1336C138.032 44.5471 137.094 45.5595 136.492 46.6119C136.167 47.1822 136.492 48.226 136.677 48.8677C137.213 50.7813 136.632 55.6693 135.916 56.9726C135.608 57.5516 135.448 57.7455 135.323 57.9537Z" fill="#FECDB4"/>
<path id="Vector_4" d="M133.266 45.2144C134.407 48.6851 137.082 52.6293 140.801 54.1521C145.363 56.0116 149.114 52.5637 151.258 49.1329C153.514 45.5281 153.734 40.4376 153.16 36.3937C152.747 33.4791 151.692 30.3877 149.079 28.6937C147.24 27.5073 144.853 27.1993 142.629 27.5016C140.404 27.8039 138.319 28.6623 136.34 29.6405C134.467 30.5673 133.283 32.4923 132.767 34.4202C132.578 35.2227 132.489 36.0455 132.502 36.8699C132.459 39.4623 132.408 42.5765 133.266 45.2144V45.2144Z" fill="#FEE1D2"/>
<path id="Vector_5" d="M130.546 41.3987C131.564 43.4235 132.955 45.2201 134.002 43.4891C134.601 42.4995 134.167 41.1306 133.82 40.1382C133.512 39.2655 133.42 37.9479 132.893 37.2036C131.997 35.9345 128.829 35.7777 129.208 37.9337C129.531 39.1324 129.979 40.2938 130.546 41.3987V41.3987ZM155.613 41.3987C154.598 43.4235 153.204 45.2201 152.157 43.4891C151.558 42.4995 151.992 41.1306 152.342 40.1382C152.647 39.2655 152.742 37.9479 153.266 37.2036C154.165 35.9345 157.33 35.7777 156.951 37.9337C156.629 39.1329 156.181 40.2944 155.613 41.3987V41.3987Z" fill="#FEE1D2"/>
<path id="Vector_6" d="M156.167 30.8325C156.263 31.3977 156.284 31.973 156.23 32.5436C156.155 33.1768 155.702 33.7043 155.488 34.2975C155.255 35.0582 154.88 35.7676 154.382 36.3879C154.285 36.5039 154.19 36.6237 154.096 36.7473C153.669 37.3547 153.386 38.0163 152.99 38.6637C153.047 35.9488 151.652 33.5446 150.281 31.2974C149.445 29.9285 148.47 28.6081 148.045 27.0624C147.169 28.0976 145.686 29.2383 144.574 30.0283C142.256 31.6622 139.824 33.1271 137.296 34.4116C135.451 35.3499 132.208 35.9773 132.245 38.5981C131.974 37.7206 131.388 36.9743 130.6 36.502C130.106 36.2405 129.548 36.1248 128.992 36.1683C128.552 36.1683 128.421 36.348 128.307 35.6978C128.267 35.2442 128.291 34.7872 128.378 34.3403C128.576 32.5359 129.036 30.77 129.744 29.0986C131.148 25.7676 133.535 22.7903 136.703 20.9993C138.47 19.9984 140.464 19.4681 142.495 19.4594C143.693 19.4594 144.777 19.4793 145.954 19.8472C146.828 20.1483 147.613 20.6641 148.236 21.3473C148.283 21.4151 148.347 21.4692 148.421 21.5041C148.497 21.5255 148.577 21.5255 148.652 21.5041C149.6 21.3321 150.579 21.4712 151.441 21.9005C156.255 24.4672 157.248 32.2299 157.282 37.0809C156.291 35.295 155.493 33.4089 154.901 31.4542" fill="#423B38"/>
<path id="Vector_7" d="M133.774 61.5812H150.392V82.5024H133.774V61.5812Z" fill="#E2E6E6"/>
<path id="Vector_8" d="M128.783 58.4013C129.638 58.1018 130.36 57.6427 131.167 57.2605C131.834 56.9525 132.468 56.8128 133.135 56.4335C133.555 56.1547 134.058 56.0279 134.561 56.0741C134.63 56.0839 134.696 56.1114 134.752 56.154C134.83 56.2397 134.874 56.3515 134.874 56.4677L135.131 58.6237L138.907 79.9555C139.209 80.7427 140.153 81.5754 140.116 82.4908H115.123C115.622 78.1817 116.095 73.8611 116.432 69.5263C116.637 66.9169 116.862 64.0622 118.67 62.1685C120.013 60.7626 121.981 60.1722 123.866 59.6903C125.466 59.291 127.177 58.9659 128.783 58.4013V58.4013Z" fill="#404863"/>
<path id="Vector_9" d="M136.398 54.1235C136.352 56.1198 137.418 58.099 139.155 59.5649C140.068 60.3282 141.106 60.9275 142.224 61.3359C142.509 61.4357 143.365 61.4813 143.151 61.852C143.067 61.9629 142.956 62.0503 142.828 62.1059C142.054 62.5779 141.376 63.1935 140.832 63.9196C140.245 64.6298 139.572 65.2686 138.984 65.973C138.859 66.1605 138.671 66.2971 138.454 66.358C138.066 66.435 138.092 66.1726 137.997 66.0186C137.828 65.7484 137.637 65.4919 137.427 65.2515L135.987 63.5717C135.151 62.5964 134.307 61.6068 133.828 60.4946C133.349 59.3823 133.258 58.1133 133.951 57.0723C134.569 56.117 135.762 55.4211 136.269 54.4258" fill="#F3F9FE"/>
<path id="Vector_10" d="M150.158 54.1235C150.204 56.04 149.231 57.9251 147.631 59.3652C146.78 60.1245 145.808 60.7348 144.754 61.1705C144.323 61.3473 143.781 61.3615 143.376 61.5868C142.72 61.9519 143.932 62.2542 144.257 62.4595C145.843 63.4662 146.824 64.818 147.777 66.2125C147.82 66.2791 147.884 66.3292 147.959 66.3546C148.034 66.3799 148.116 66.3791 148.19 66.3523C148.228 66.3238 148.259 66.2879 148.281 66.2468C148.581 65.784 148.918 65.3463 149.288 64.9378C149.739 64.5014 150.175 64.028 150.574 63.5603C151.41 62.585 152.254 61.5954 152.733 60.4832C153.212 59.3709 153.304 58.1019 152.613 57.0609C151.992 56.1056 150.802 55.4097 150.292 54.4144" fill="#F3F9FE"/>
<path id="Vector_11" d="M140.279 80.506C139.959 79.044 139.66 77.5781 139.38 76.1084C138.24 70.1566 137.455 64.1506 136.814 58.1418C136.663 56.6902 136.856 55.2215 136.705 53.787C136.705 53.7442 136.705 53.7385 136.665 53.7157C136.56 53.653 135.371 54.8108 135.2 54.9506C134.578 55.4582 133.902 55.8945 133.243 56.3537C131.551 57.5438 129.985 58.9035 128.569 60.4119C128.284 60.7142 128.212 60.9309 128.267 61.0992C128.364 61.3986 128.874 61.544 129.345 61.7351C129.721 61.8863 130.072 62.1515 130.437 62.334C130.722 62.4795 132.542 63.489 132.793 63.3065C131.272 64.4144 129.572 65.2518 127.768 65.7819C128.603 70.5245 132.835 77.4602 134.432 82.5023H140.866C140.652 81.7751 140.401 81.0764 140.279 80.506V80.506Z" fill="#373952"/>
<path id="Vector_12" d="M157.521 58.4014C156.666 58.102 155.941 57.6428 155.137 57.2607C154.47 56.9527 153.837 56.8129 153.167 56.4336C152.747 56.1538 152.243 56.0269 151.741 56.0743C151.671 56.0846 151.604 56.1121 151.547 56.1542C151.47 56.2408 151.428 56.3523 151.427 56.4679C151.341 57.1865 151.255 57.9052 151.167 58.6239L147.394 79.9557C147.089 80.7428 146.145 81.5756 146.185 82.491H171.182C170.68 78.1819 170.209 73.8613 169.87 69.5265C169.667 66.917 169.439 64.0623 167.634 62.1687C166.288 60.7627 164.323 60.1724 162.435 59.6904C160.83 59.2912 159.118 58.9661 157.521 58.4014V58.4014Z" fill="#404863"/>
<path id="Vector_13" d="M158.001 61.0622C156.626 60.0355 155.457 58.7807 154.273 57.5715C153.001 56.2568 151.45 55.1645 149.995 54.0324C149.921 53.9725 149.727 53.8042 149.71 53.8955C149.71 54.2719 149.628 54.5799 149.591 54.9193C149.525 55.5353 149.456 56.1513 149.391 56.7673C149.251 58.0335 149.106 59.3026 148.997 60.5717C148.404 67.0682 146.222 75.8462 145.25 82.5024H151.376C152.745 77.4575 157.695 70.7927 158.554 65.782C156.749 65.2524 155.049 64.415 153.529 63.3066C155.128 62.7972 156.637 62.0398 158.001 61.0622V61.0622Z" fill="#373952"/>
<path id="Vector_14" d="M142.036 65.0888C142.036 65.4284 142.171 65.7541 142.411 65.9943C142.651 66.2344 142.977 66.3693 143.316 66.3693C143.656 66.3693 143.981 66.2344 144.222 65.9943C144.462 65.7541 144.597 65.4284 144.597 65.0888C144.597 64.7492 144.462 64.4235 144.222 64.1834C143.981 63.9433 143.656 63.8083 143.316 63.8083C142.977 63.8083 142.651 63.9433 142.411 64.1834C142.171 64.4235 142.036 64.7492 142.036 65.0888V65.0888Z" fill="#404863"/>
</g>
</g>
</g>
</g>
<defs>
<filter id="filter0_i_629_40900" x="190.863" y="9.00232" width="48" height="29.5228" filterUnits="userSpaceOnUse" color-interpolation-filters="sRGB">
<feFlood flood-opacity="0" result="BackgroundImageFix"/>
<feBlend mode="normal" in="SourceGraphic" in2="BackgroundImageFix" result="shape"/>
<feColorMatrix in="SourceAlpha" type="matrix" values="0 0 0 0 0 0 0 0 0 0 0 0 0 0 0 0 0 0 127 0" result="hardAlpha"/>
<feOffset dy="2"/>
<feGaussianBlur stdDeviation="1"/>
<feComposite in2="hardAlpha" operator="arithmetic" k2="-1" k3="1"/>
<feColorMatrix type="matrix" values="0 0 0 0 0.995833 0 0 0 0 0.804043 0 0 0 0 0.663889 0 0 0 0.8 0"/>
<feBlend mode="normal" in2="shape" result="effect1_innerShadow_629_40900"/>
</filter>
<filter id="filter1_f_629_40900" x="195.363" y="4.00232" width="39.5" height="13.2034" filterUnits="userSpaceOnUse" color-interpolation-filters="sRGB">
<feFlood flood-opacity="0" result="BackgroundImageFix"/>
<feBlend mode="normal" in="SourceGraphic" in2="BackgroundImageFix" result="shape"/>
<feGaussianBlur stdDeviation="2.5" result="effect1_foregroundBlur_629_40900"/>
</filter>
<filter id="filter2_d_629_40900" x="202.439" y="15.0543" width="24.5479" height="13.28" filterUnits="userSpaceOnUse" color-interpolation-filters="sRGB">
<feFlood flood-opacity="0" result="BackgroundImageFix"/>
<feColorMatrix in="SourceAlpha" type="matrix" values="0 0 0 0 0 0 0 0 0 0 0 0 0 0 0 0 0 0 127 0" result="hardAlpha"/>
<feOffset dy="1"/>
<feGaussianBlur stdDeviation="0.5"/>
<feComposite in2="hardAlpha" operator="out"/>
<feColorMatrix type="matrix" values="0 0 0 0 0.979167 0 0 0 0 0.63265 0 0 0 0 0.379427 0 0 0 0.52 0"/>
<feBlend mode="normal" in2="BackgroundImageFix" result="effect1_dropShadow_629_40900"/>
<feBlend mode="normal" in="SourceGraphic" in2="effect1_dropShadow_629_40900" result="shape"/>
</filter>
<filter id="filter3_i_629_40900" x="34.8628" y="31.0023" width="60" height="29.5228" filterUnits="userSpaceOnUse" color-interpolation-filters="sRGB">
<feFlood flood-opacity="0" result="BackgroundImageFix"/>
<feBlend mode="normal" in="SourceGraphic" in2="BackgroundImageFix" result="shape"/>
<feColorMatrix in="SourceAlpha" type="matrix" values="0 0 0 0 0 0 0 0 0 0 0 0 0 0 0 0 0 0 127 0" result="hardAlpha"/>
<feOffset dy="2"/>
<feGaussianBlur stdDeviation="1"/>
<feComposite in2="hardAlpha" operator="arithmetic" k2="-1" k3="1"/>
<feColorMatrix type="matrix" values="0 0 0 0 0.521569 0 0 0 0 0.72549 0 0 0 0 0.952941 0 0 0 1 0"/>
<feBlend mode="normal" in2="shape" result="effect1_innerShadow_629_40900"/>
</filter>
<filter id="filter4_f_629_40900" x="36.6128" y="26.0023" width="56" height="13.2034" filterUnits="userSpaceOnUse" color-interpolation-filters="sRGB">
<feFlood flood-opacity="0" result="BackgroundImageFix"/>
<feBlend mode="normal" in="SourceGraphic" in2="BackgroundImageFix" result="shape"/>
<feGaussianBlur stdDeviation="2.5" result="effect1_foregroundBlur_629_40900"/>
</filter>
<filter id="filter5_d_629_40900" x="46.4268" y="37.1383" width="36.8599" height="13.064" filterUnits="userSpaceOnUse" color-interpolation-filters="sRGB">
<feFlood flood-opacity="0" result="BackgroundImageFix"/>
<feColorMatrix in="SourceAlpha" type="matrix" values="0 0 0 0 0 0 0 0 0 0 0 0 0 0 0 0 0 0 127 0" result="hardAlpha"/>
<feOffset dy="1"/>
<feGaussianBlur stdDeviation="0.5"/>
<feComposite in2="hardAlpha" operator="out"/>
<feColorMatrix type="matrix" values="0 0 0 0 0.290764 0 0 0 0 0.570888 0 0 0 0 0.883333 0 0 0 0.52 0"/>
<feBlend mode="normal" in2="BackgroundImageFix" result="effect1_dropShadow_629_40900"/>
<feBlend mode="normal" in="SourceGraphic" in2="effect1_dropShadow_629_40900" result="shape"/>
</filter>
<filter id="filter6_i_629_40900" x="190.863" y="52.0023" width="72" height="29.5228" filterUnits="userSpaceOnUse" color-interpolation-filters="sRGB">
<feFlood flood-opacity="0" result="BackgroundImageFix"/>
<feBlend mode="normal" in="SourceGraphic" in2="BackgroundImageFix" result="shape"/>
<feColorMatrix in="SourceAlpha" type="matrix" values="0 0 0 0 0 0 0 0 0 0 0 0 0 0 0 0 0 0 127 0" result="hardAlpha"/>
<feOffset dy="2"/>
<feGaussianBlur stdDeviation="1"/>
<feComposite in2="hardAlpha" operator="arithmetic" k2="-1" k3="1"/>
<feColorMatrix type="matrix" values="0 0 0 0 0.521569 0 0 0 0 0.72549 0 0 0 0 0.952941 0 0 0 0.8 0"/>
<feBlend mode="normal" in2="shape" result="effect1_innerShadow_629_40900"/>
</filter>
<filter id="filter7_f_629_40900" x="193.113" y="47.0023" width="56" height="13.2034" filterUnits="userSpaceOnUse" color-interpolation-filters="sRGB">
<feFlood flood-opacity="0" result="BackgroundImageFix"/>
<feBlend mode="normal" in="SourceGraphic" in2="BackgroundImageFix" result="shape"/>
<feGaussianBlur stdDeviation="2.5" result="effect1_foregroundBlur_629_40900"/>
</filter>
<filter id="filter8_d_629_40900" x="202.523" y="58.0543" width="48.6919" height="13.28" filterUnits="userSpaceOnUse" color-interpolation-filters="sRGB">
<feFlood flood-opacity="0" result="BackgroundImageFix"/>
<feColorMatrix in="SourceAlpha" type="matrix" values="0 0 0 0 0 0 0 0 0 0 0 0 0 0 0 0 0 0 127 0" result="hardAlpha"/>
<feOffset dy="1"/>
<feGaussianBlur stdDeviation="0.5"/>
<feComposite in2="hardAlpha" operator="out"/>
<feColorMatrix type="matrix" values="0 0 0 0 0.290764 0 0 0 0 0.570888 0 0 0 0 0.883333 0 0 0 0.52 0"/>
<feBlend mode="normal" in2="BackgroundImageFix" result="effect1_dropShadow_629_40900"/>
<feBlend mode="normal" in="SourceGraphic" in2="effect1_dropShadow_629_40900" result="shape"/>
</filter>
<linearGradient id="paint0_linear_629_40900" x1="218.863" y1="9.00232" x2="218.863" y2="30.1792" gradientUnits="userSpaceOnUse">
<stop stop-color="#FAD8BB"/>
<stop offset="1" stop-color="#F9C59E"/>
</linearGradient>
<linearGradient id="paint1_linear_629_40900" x1="60.8628" y1="31.0023" x2="60.8628" y2="52.1792" gradientUnits="userSpaceOnUse">
<stop stop-color="#B1D2FB"/>
<stop offset="1" stop-color="#85B8F2"/>
</linearGradient>
<linearGradient id="paint2_linear_629_40900" x1="224.863" y1="52.0023" x2="224.863" y2="73.1792" gradientUnits="userSpaceOnUse">
<stop stop-color="#B1D2FB"/>
<stop offset="1" stop-color="#85B8F2"/>
</linearGradient>
<linearGradient id="paint3_linear_629_40900" x1="142.863" y1="11.0023" x2="142.863" y2="70.0023" gradientUnits="userSpaceOnUse">
<stop stop-color="#DFEDFD"/>
<stop offset="1" stop-color="#C3D9F2"/>
</linearGradient>
</defs>
</svg>
