<svg width="20" height="20" viewBox="0 0 20 20" fill="none" xmlns="http://www.w3.org/2000/svg">
<g id="Group 427319049">
<circle id="Ellipse 160" cx="10" cy="9.99976" r="9.7" fill="url(#paint0_linear_1403_93426)" stroke="url(#paint1_linear_1403_93426)" stroke-width="0.6"/>
<g id="Frame" clip-path="url(#clip0_1403_93426)">
<path id="Subtract" d="M6.95535 3.99976H13.0397C13.0375 4.43449 13.24 4.86293 13.576 5.13829C13.761 5.29097 13.9831 5.39879 14.2182 5.44647C14.5273 5.51035 14.8569 5.47312 15.1428 5.33865V10.9454C15.1302 11.5332 15.0207 12.1195 14.8115 12.6696C14.5178 13.4488 14.0297 14.1533 13.4054 14.7042C12.7532 15.2828 11.9513 15.6913 11.099 15.8756C10.0131 16.1135 8.85032 15.9898 7.8421 15.5201C6.97986 15.1226 6.23333 14.4798 5.70993 13.6878C5.42239 13.2543 5.20127 12.7766 5.05743 12.2766C4.93528 11.8568 4.8722 11.4211 4.85693 10.9843V5.3408C5.13109 5.46857 5.44502 5.50727 5.74234 5.45316C6.08199 5.39316 6.39673 5.20727 6.61597 4.94142C6.83441 4.67972 6.95548 4.34047 6.95535 3.99976Z" fill="url(#paint2_linear_1403_93426)"/>
<path id="Star 1" d="M9.82805 8.91107C9.90555 8.78058 10.0944 8.78058 10.172 8.91107L10.8139 9.9918C10.842 10.0391 10.8882 10.0727 10.9419 10.0848L12.1681 10.3613C12.3161 10.3947 12.3745 10.5744 12.2743 10.6884L11.4449 11.6329C11.4086 11.6742 11.3909 11.7286 11.396 11.7833L11.5119 13.035C11.5259 13.1861 11.3731 13.2971 11.2337 13.2371L10.0791 12.7401C10.0286 12.7184 9.9714 12.7184 9.92092 12.7401L8.76633 13.2371C8.62693 13.2971 8.47411 13.1861 8.48811 13.035L8.604 11.7833C8.60906 11.7286 8.59139 11.6742 8.55512 11.6329L7.72566 10.6884C7.62551 10.5744 7.68388 10.3947 7.83193 10.3613L9.05815 10.0848C9.11176 10.0727 9.15803 10.0391 9.18609 9.9918L9.82805 8.91107Z" fill="#F3EEDF"/>
<rect id="Rectangle 833" x="7.5625" y="6.62036" width="5.0625" height="1" rx="0.5" fill="#F3EEDF"/>
</g>
</g>
<defs>
<linearGradient id="paint0_linear_1403_93426" x1="10" y1="-0.000244141" x2="10" y2="19.9998" gradientUnits="userSpaceOnUse">
<stop stop-color="#F3EEDF"/>
<stop offset="1" stop-color="#F5F5F3"/>
</linearGradient>
<linearGradient id="paint1_linear_1403_93426" x1="10" y1="-0.000244141" x2="10" y2="19.9998" gradientUnits="userSpaceOnUse">
<stop stop-color="#886239"/>
<stop offset="1" stop-color="#C2B6A9"/>
</linearGradient>
<linearGradient id="paint2_linear_1403_93426" x1="9.99991" y1="3.99976" x2="9.99991" y2="15.9934" gradientUnits="userSpaceOnUse">
<stop stop-color="#886239"/>
<stop offset="1" stop-color="#CEA271"/>
</linearGradient>
<clipPath id="clip0_1403_93426">
<rect width="12" height="12" fill="white" transform="translate(4 3.99976)"/>
</clipPath>
</defs>
</svg>
