<svg width="26" height="25" viewBox="0 0 26 25" fill="none" xmlns="http://www.w3.org/2000/svg">
<g id="NO2">
<path id="Rectangle 981" d="M0.806152 11.125H25.1716L24.6387 21.6754C24.6118 22.2074 24.1727 22.625 23.64 22.625H2.6312C2.10918 22.625 1.67499 22.2235 1.63425 21.703L0.806152 11.125Z" fill="url(#paint0_linear_100_78568)"/>
<g id="Polygon 12" filter="url(#filter0_ii_100_78568)">
<path d="M11.5596 1.94822C12.3382 1.15128 13.618 1.14422 14.4053 1.93254L21.1254 8.66093C21.2035 8.73918 21.2535 8.84113 21.2676 8.95083L22.1079 15.5207C22.1212 15.625 22.1671 15.7225 22.239 15.7992L24.6808 18.4043C24.7719 18.5015 24.8204 18.631 24.8157 18.7641L24.6951 22.1365C24.6855 22.4055 24.4646 22.6187 24.1954 22.6187H2.06341C1.79214 22.6187 1.57035 22.4023 1.56357 22.1312L1.4796 18.7752C1.47611 18.6356 1.53118 18.5009 1.63149 18.4037L4.30226 15.8155C4.39149 15.7291 4.44532 15.6125 4.45328 15.4885L4.87159 8.96652C4.87924 8.84722 4.92938 8.73461 5.01292 8.64911L11.5596 1.94822Z" fill="url(#paint1_linear_100_78568)"/>
</g>
<path id="Union" d="M1.07652 13.8268L4.12297 15.5265L1.34889 18.2087L1.32259 18.2341L1.30317 18.2651C1.21711 18.4025 1.17431 18.5631 1.17835 18.7247L1.26382 22.1406C1.27416 22.5538 1.59412 22.9197 2.02821 22.9197H24.2309C24.6613 22.9197 24.9804 22.5595 24.995 22.1496L25.1177 18.7185C25.1231 18.566 25.0868 18.4138 25.0114 18.2806L24.9952 18.252L24.9732 18.2275L22.5406 15.5293C22.5339 15.5201 22.5283 15.5129 22.5251 15.5088L22.5246 15.5082C22.5142 15.495 22.5022 15.4804 22.4903 15.4663C22.4785 15.4522 22.4647 15.436 22.4502 15.419L24.9395 13.8171L24.9572 13.8057L24.9732 13.7919C25.2479 13.5547 25.4091 13.2069 25.4238 12.8402L25.6751 6.61045C25.6976 6.05257 25.4013 5.60137 24.9873 5.38724C24.5703 5.17158 24.0372 5.20051 23.63 5.58335L20.78 8.26261L13.1405 14.7175C13.0097 14.7896 12.9722 14.7916 12.9629 14.7914C12.955 14.7913 12.9289 14.7901 12.8158 14.724L5.28795 8.32671L2.36984 5.58335L2.16435 5.80193L2.36984 5.58335C1.96262 5.20051 1.42948 5.17158 1.01252 5.38724C0.598513 5.60137 0.302234 6.05257 0.324733 6.61045L0.575973 12.8402C0.590761 13.2069 0.751878 13.5547 1.02666 13.7919L1.04981 13.8119L1.07652 13.8268Z" fill="url(#paint2_linear_100_78568)" stroke="url(#paint3_linear_100_78568)" stroke-width="0.6"/>
<g id="2" filter="url(#filter1_d_100_78568)">
<path d="M13.5788 9.529C14.2615 9.529 14.8215 9.69967 15.2588 10.041C15.6962 10.3717 15.9148 10.8197 15.9148 11.385C15.9148 11.8117 15.7655 12.2863 15.4668 12.809C15.1788 13.3317 14.7095 13.9557 14.0588 14.681L12.6348 16.297L12.6668 16.377H15.2748L16.6668 16.249L16.7788 16.361L16.5708 17.705L14.8108 17.625H11.1948L10.6028 17.657L10.5228 17.593V16.585L12.7148 14.281C13.2695 13.6837 13.6748 13.193 13.9308 12.809C14.1868 12.425 14.3148 12.0837 14.3148 11.785C14.3148 11.529 14.2188 11.321 14.0268 11.161C13.8348 11.001 13.5682 10.921 13.2268 10.921C12.8642 10.921 12.4908 11.0117 12.1068 11.193C11.7335 11.3743 11.3868 11.625 11.0668 11.945H10.8908L10.6188 10.681C11.6002 9.913 12.5868 9.529 13.5788 9.529Z" fill="#FFFDF5"/>
<path d="M15.2588 10.041L15.1358 10.1987L15.1382 10.2005L15.2588 10.041ZM15.4668 12.809L15.2932 12.7098L15.2917 12.7125L15.4668 12.809ZM14.0588 14.681L13.91 14.5474L13.9088 14.5488L14.0588 14.681ZM12.6348 16.297L12.4848 16.1648L12.4035 16.2571L12.4492 16.3713L12.6348 16.297ZM12.6668 16.377L12.4812 16.4513L12.5314 16.577H12.6668V16.377ZM15.2748 16.377V16.577H15.284L15.2932 16.5762L15.2748 16.377ZM16.6668 16.249L16.8083 16.1076L16.7419 16.0413L16.6485 16.0498L16.6668 16.249ZM16.7788 16.361L16.9765 16.3916L16.992 16.2913L16.9203 16.2196L16.7788 16.361ZM16.5708 17.705L16.5618 17.9048L16.741 17.9129L16.7685 17.7356L16.5708 17.705ZM14.8108 17.625L14.8199 17.425H14.8108V17.625ZM11.1948 17.625V17.4247L11.1841 17.4253L11.1948 17.625ZM10.6028 17.657L10.4779 17.8132L10.5375 17.8608L10.6136 17.8567L10.6028 17.657ZM10.5228 17.593H10.3228V17.6891L10.3979 17.7492L10.5228 17.593ZM10.5228 16.585L10.3779 16.4471L10.3228 16.5051V16.585H10.5228ZM12.7148 14.281L12.8598 14.4189L12.8614 14.4171L12.7148 14.281ZM13.9308 12.809L13.7644 12.6981L13.7644 12.6981L13.9308 12.809ZM14.0268 11.161L13.8988 11.3146L13.8988 11.3146L14.0268 11.161ZM12.1068 11.193L12.0214 11.0121L12.0195 11.0131L12.1068 11.193ZM11.0668 11.945V12.145H11.1497L11.2083 12.0864L11.0668 11.945ZM10.8908 11.945L10.6953 11.9871L10.7293 12.145H10.8908V11.945ZM10.6188 10.681L10.4956 10.5235L10.397 10.6007L10.4233 10.7231L10.6188 10.681ZM13.5788 9.729C14.2275 9.729 14.7411 9.89061 15.1358 10.1987L15.3819 9.88334C14.9019 9.50872 14.2956 9.329 13.5788 9.329V9.729ZM15.1382 10.2005C15.5238 10.492 15.7148 10.8801 15.7148 11.385H16.1148C16.1148 10.7593 15.8686 10.2513 15.3795 9.88147L15.1382 10.2005ZM15.7148 11.385C15.7148 11.7654 15.5813 12.2056 15.2932 12.7098L15.6405 12.9082C15.9497 12.3671 16.1148 11.8579 16.1148 11.385H15.7148ZM15.2917 12.7125C15.0141 13.2162 14.556 13.8273 13.91 14.5474L14.2077 14.8146C14.863 14.0841 15.3436 13.4472 15.642 12.9055L15.2917 12.7125ZM13.9088 14.5488L12.4848 16.1648L12.7849 16.4292L14.2089 14.8132L13.9088 14.5488ZM12.4492 16.3713L12.4812 16.4513L12.8525 16.3027L12.8205 16.2227L12.4492 16.3713ZM12.6668 16.577H15.2748V16.177H12.6668V16.577ZM15.2932 16.5762L16.6852 16.4482L16.6485 16.0498L15.2565 16.1778L15.2932 16.5762ZM16.5254 16.3904L16.6374 16.5024L16.9203 16.2196L16.8083 16.1076L16.5254 16.3904ZM16.5812 16.3304L16.3732 17.6744L16.7685 17.7356L16.9765 16.3916L16.5812 16.3304ZM16.5799 17.5052L14.8199 17.4252L14.8018 17.8248L16.5618 17.9048L16.5799 17.5052ZM14.8108 17.425H11.1948V17.825H14.8108V17.425ZM11.1841 17.4253L10.5921 17.4573L10.6136 17.8567L11.2056 17.8247L11.1841 17.4253ZM10.7278 17.5008L10.6478 17.4368L10.3979 17.7492L10.4779 17.8132L10.7278 17.5008ZM10.7228 17.593V16.585H10.3228V17.593H10.7228ZM10.6677 16.7229L12.8597 14.4189L12.5699 14.1431L10.3779 16.4471L10.6677 16.7229ZM12.8614 14.4171C13.4187 13.8169 13.8325 13.3171 14.0973 12.9199L13.7644 12.6981C13.5172 13.0689 13.1203 13.5504 12.5683 14.1449L12.8614 14.4171ZM14.0973 12.9199C14.3641 12.5197 14.5148 12.1393 14.5148 11.785H14.1148C14.1148 12.0281 14.0096 12.3303 13.7644 12.6981L14.0973 12.9199ZM14.5148 11.785C14.5148 11.4713 14.3937 11.2064 14.1549 11.0074L13.8988 11.3146C14.0439 11.4356 14.1148 11.5867 14.1148 11.785H14.5148ZM14.1549 11.0074C13.9157 10.808 13.5979 10.721 13.2268 10.721V11.121C13.5385 11.121 13.754 11.194 13.8988 11.3146L14.1549 11.0074ZM13.2268 10.721C12.83 10.721 12.4276 10.8203 12.0214 11.0122L12.1922 11.3738C12.5541 11.203 12.8983 11.121 13.2268 11.121V10.721ZM12.0195 11.0131C11.6244 11.205 11.2598 11.4693 10.9254 11.8036L11.2083 12.0864C11.5139 11.7807 11.8427 11.5437 12.1942 11.3729L12.0195 11.0131ZM11.0668 11.745H10.8908V12.145H11.0668V11.745ZM11.0864 11.9029L10.8144 10.6389L10.4233 10.7231L10.6953 11.9871L11.0864 11.9029ZM10.7421 10.8385C11.6974 10.0909 12.6419 9.729 13.5788 9.729V9.329C12.5318 9.329 11.5029 9.73515 10.4956 10.5235L10.7421 10.8385Z" fill="white"/>
</g>
<g id="Group 427319164">
<g id="Ellipse 147" filter="url(#filter2_f_100_78568)">
<ellipse cx="4.38279" cy="0.293392" rx="4.38279" ry="0.293392" transform="matrix(0.675867 -0.737023 0.74057 0.671979 6.31201 8.83398)" fill="white"/>
</g>
<g id="Ellipse 148" filter="url(#filter3_f_100_78568)">
<ellipse cx="2.82651" cy="0.141208" rx="2.82651" ry="0.141208" transform="matrix(0.675867 -0.737023 0.74057 0.671979 7.45752 7.69336)" fill="white"/>
</g>
<g id="Ellipse 149" filter="url(#filter4_f_100_78568)">
<ellipse cx="1.00875" cy="0.0503954" rx="1.00875" ry="0.0503954" transform="matrix(0.675867 -0.737023 0.74057 0.671979 8.75537 6.41211)" fill="white"/>
</g>
</g>
</g>
<defs>
<filter id="filter0_ii_100_78568" x="1.47949" y="1.34589" width="23.5364" height="21.5728" filterUnits="userSpaceOnUse" color-interpolation-filters="sRGB">
<feFlood flood-opacity="0" result="BackgroundImageFix"/>
<feBlend mode="normal" in="SourceGraphic" in2="BackgroundImageFix" result="shape"/>
<feColorMatrix in="SourceAlpha" type="matrix" values="0 0 0 0 0 0 0 0 0 0 0 0 0 0 0 0 0 0 127 0" result="hardAlpha"/>
<feOffset dy="0.3"/>
<feGaussianBlur stdDeviation="0.25"/>
<feComposite in2="hardAlpha" operator="arithmetic" k2="-1" k3="1"/>
<feColorMatrix type="matrix" values="0 0 0 0 0.487448 0 0 0 0 0.62978 0 0 0 0 0.795833 0 0 0 1 0"/>
<feBlend mode="normal" in2="shape" result="effect1_innerShadow_100_78568"/>
<feColorMatrix in="SourceAlpha" type="matrix" values="0 0 0 0 0 0 0 0 0 0 0 0 0 0 0 0 0 0 127 0" result="hardAlpha"/>
<feOffset dx="0.2" dy="0.1"/>
<feGaussianBlur stdDeviation="0.5"/>
<feComposite in2="hardAlpha" operator="arithmetic" k2="-1" k3="1"/>
<feColorMatrix type="matrix" values="0 0 0 0 0.55099 0 0 0 0 0.678318 0 0 0 0 0.8875 0 0 0 1 0"/>
<feBlend mode="normal" in2="effect1_innerShadow_100_78568" result="effect2_innerShadow_100_78568"/>
</filter>
<filter id="filter1_d_100_78568" x="8.52295" y="9.52899" width="10.2559" height="12.176" filterUnits="userSpaceOnUse" color-interpolation-filters="sRGB">
<feFlood flood-opacity="0" result="BackgroundImageFix"/>
<feColorMatrix in="SourceAlpha" type="matrix" values="0 0 0 0 0 0 0 0 0 0 0 0 0 0 0 0 0 0 127 0" result="hardAlpha"/>
<feOffset dy="2"/>
<feGaussianBlur stdDeviation="1"/>
<feComposite in2="hardAlpha" operator="out"/>
<feColorMatrix type="matrix" values="0 0 0 0 0.2875 0 0 0 0 0.567628 0 0 0 0 0.8625 0 0 0 0.33 0"/>
<feBlend mode="normal" in2="BackgroundImageFix" result="effect1_dropShadow_100_78568"/>
<feBlend mode="normal" in="SourceGraphic" in2="effect1_dropShadow_100_78568" result="shape"/>
</filter>
<filter id="filter2_f_100_78568" x="5.52124" y="1.56458" width="7.94043" height="8.47266" filterUnits="userSpaceOnUse" color-interpolation-filters="sRGB">
<feFlood flood-opacity="0" result="BackgroundImageFix"/>
<feBlend mode="normal" in="SourceGraphic" in2="BackgroundImageFix" result="shape"/>
<feGaussianBlur stdDeviation="0.5" result="effect1_foregroundBlur_100_78568"/>
</filter>
<filter id="filter3_f_100_78568" x="7.05908" y="3.11963" width="4.82666" height="5.17084" filterUnits="userSpaceOnUse" color-interpolation-filters="sRGB">
<feFlood flood-opacity="0" result="BackgroundImageFix"/>
<feBlend mode="normal" in="SourceGraphic" in2="BackgroundImageFix" result="shape"/>
<feGaussianBlur stdDeviation="0.25" result="effect1_foregroundBlur_100_78568"/>
</filter>
<filter id="filter4_f_100_78568" x="8.29175" y="4.45825" width="2.36548" height="2.48853" filterUnits="userSpaceOnUse" color-interpolation-filters="sRGB">
<feFlood flood-opacity="0" result="BackgroundImageFix"/>
<feBlend mode="normal" in="SourceGraphic" in2="BackgroundImageFix" result="shape"/>
<feGaussianBlur stdDeviation="0.25" result="effect1_foregroundBlur_100_78568"/>
</filter>
<linearGradient id="paint0_linear_100_78568" x1="1.82259" y1="16.875" x2="25.1716" y2="16.875" gradientUnits="userSpaceOnUse">
<stop stop-color="#E1F0FF"/>
<stop offset="1" stop-color="#AFD0FF"/>
</linearGradient>
<linearGradient id="paint1_linear_100_78568" x1="10.9649" y1="0.5" x2="17.1214" y2="22.3237" gradientUnits="userSpaceOnUse">
<stop offset="0.238864" stop-color="#CBDDF1"/>
<stop offset="0.907424" stop-color="#86AEF1"/>
</linearGradient>
<linearGradient id="paint2_linear_100_78568" x1="23.0972" y1="21.75" x2="1.84357" y2="9.84543" gradientUnits="userSpaceOnUse">
<stop stop-color="#77A5E9"/>
<stop offset="0.498951" stop-color="#B6CFF1"/>
<stop offset="0.95838" stop-color="#C9DCF1"/>
</linearGradient>
<linearGradient id="paint3_linear_100_78568" x1="24.0972" y1="20" x2="3.45759" y2="3.25649" gradientUnits="userSpaceOnUse">
<stop stop-color="white"/>
<stop offset="0.480755" stop-color="white" stop-opacity="0.5"/>
<stop offset="1" stop-color="white"/>
</linearGradient>
</defs>
</svg>
