<svg width="26" height="25" viewBox="0 0 26 25" fill="none" xmlns="http://www.w3.org/2000/svg">
<g id="NO3">
<path id="Rectangle 982" d="M0.806152 11.125H25.1716L24.6387 21.6754C24.6118 22.2074 24.1727 22.625 23.64 22.625H2.6312C2.10918 22.625 1.67499 22.2235 1.63425 21.703L0.806152 11.125Z" fill="url(#paint0_linear_100_78581)"/>
<g id="Polygon 13" filter="url(#filter0_ii_100_78581)">
<path d="M11.5596 1.94822C12.3382 1.15128 13.618 1.14422 14.4053 1.93254L21.1254 8.66093C21.2035 8.73918 21.2535 8.84113 21.2676 8.95083L22.1079 15.5207C22.1212 15.625 22.1671 15.7225 22.239 15.7992L24.6808 18.4043C24.7719 18.5015 24.8204 18.631 24.8157 18.7641L24.6951 22.1365C24.6855 22.4055 24.4646 22.6187 24.1954 22.6187H2.06341C1.79214 22.6187 1.57035 22.4023 1.56357 22.1312L1.4796 18.7752C1.47611 18.6356 1.53118 18.5009 1.63149 18.4037L4.30226 15.8155C4.39149 15.7291 4.44532 15.6125 4.45328 15.4885L4.87159 8.96652C4.87924 8.84722 4.92938 8.73461 5.01292 8.64911L11.5596 1.94822Z" fill="url(#paint1_linear_100_78581)"/>
</g>
<path id="Union" d="M22.2409 15.3837L22.1597 15.2493L22.2443 15.3809L22.3219 15.5014C22.3196 15.503 22.3173 15.5046 22.3149 15.506L22.2409 15.3837ZM22.4502 15.4191L24.9395 13.8171L24.9572 13.8057L24.9732 13.7919C25.2479 13.5547 25.4091 13.2069 25.4238 12.8402L25.6751 6.61045C25.6976 6.05257 25.4013 5.60137 24.9873 5.38724C24.5703 5.17158 24.0372 5.20051 23.63 5.58335L20.78 8.26261L13.1895 14.6761C13.1539 14.7062 13.1226 14.7277 13.0937 14.7425C12.9991 14.791 12.9689 14.7915 12.963 14.7914L12.9629 14.7914C12.9585 14.7914 12.9364 14.7911 12.8573 14.7477C12.8317 14.7336 12.8039 14.7139 12.7721 14.6869L5.28795 8.32671L2.36984 5.58335L2.16435 5.80193L2.36984 5.58335C1.96262 5.20051 1.42948 5.17158 1.01252 5.38724C0.598513 5.60137 0.302234 6.05257 0.324733 6.61045L0.575973 12.8402C0.58895 13.162 0.714465 13.4686 0.930137 13.6992C1.00725 13.7816 1.09508 13.8372 1.16554 13.8765L4.12297 15.5265L1.43657 18.1239C1.37431 18.1841 1.27143 18.2887 1.22106 18.4392C1.19048 18.5306 1.17592 18.6274 1.17835 18.7247L1.26382 22.1406C1.27416 22.5538 1.59412 22.9197 2.02821 22.9197H24.2309C24.6613 22.9197 24.9804 22.5595 24.995 22.1496L25.1177 18.7185C25.121 18.6236 25.1083 18.529 25.0801 18.4392C25.0376 18.3033 24.952 18.2041 24.8997 18.1461L22.557 15.5475C22.5489 15.5384 22.5436 15.5318 22.5346 15.5206C22.5286 15.513 22.5209 15.5033 22.5095 15.4894C22.4974 15.4746 22.4752 15.4485 22.4502 15.4191Z" fill="url(#paint2_linear_100_78581)" stroke="url(#paint3_linear_100_78581)" stroke-width="0.6"/>
<g id="3" filter="url(#filter1_d_100_78581)">
<path d="M12.9548 9.41534C13.7335 9.41534 14.3575 9.60734 14.8268 9.99134C15.3068 10.3753 15.5468 10.882 15.5468 11.5113C15.5468 11.9593 15.4188 12.3967 15.1628 12.8233C14.9068 13.2393 14.5122 13.586 13.9788 13.8633V13.9273C14.5868 14.0873 15.0455 14.3487 15.3548 14.7113C15.6748 15.0633 15.8348 15.506 15.8348 16.0393C15.8348 16.6367 15.6748 17.1647 15.3548 17.6233C15.0455 18.082 14.6028 18.434 14.0268 18.6793C13.4508 18.9353 12.7895 19.0633 12.0428 19.0633C11.5415 19.0633 10.9922 19.0153 10.3948 18.9193L10.3148 17.5753L10.4268 17.4633C10.9708 17.698 11.5362 17.8153 12.1228 17.8153C12.7842 17.8153 13.3068 17.6713 13.6908 17.3833C14.0855 17.0847 14.2828 16.6793 14.2828 16.1673C14.2828 15.73 14.1282 15.3887 13.8188 15.1433C13.5095 14.8873 13.0615 14.7487 12.4748 14.7273H11.4668L11.3708 14.6153L11.4188 13.4953L12.1228 13.4793C12.4002 13.4793 12.6775 13.41 12.9548 13.2713C13.2322 13.1327 13.4562 12.9407 13.6268 12.6953C13.8082 12.45 13.8988 12.1727 13.8988 11.8633C13.8988 11.5113 13.7815 11.2393 13.5468 11.0473C13.3228 10.8447 13.0188 10.7433 12.6348 10.7433C12.3148 10.7433 12.0002 10.818 11.6908 10.9673C11.3815 11.106 11.0455 11.3247 10.6828 11.6233H10.5068L10.2668 10.3913C11.1095 9.74068 12.0055 9.41534 12.9548 9.41534Z" fill="#FFFDF5"/>
<path d="M14.8268 9.99134L14.7002 10.1461L14.7019 10.1475L14.8268 9.99134ZM15.1628 12.8233L15.3332 12.9282L15.3343 12.9262L15.1628 12.8233ZM13.9788 13.8633L13.8866 13.6859L13.7788 13.7419V13.8633H13.9788ZM13.9788 13.9273H13.7788V14.0815L13.9279 14.1208L13.9788 13.9273ZM15.3548 14.7113L15.2026 14.8412L15.2069 14.8459L15.3548 14.7113ZM15.3548 17.6233L15.1908 17.5089L15.189 17.5115L15.3548 17.6233ZM14.0268 18.6793L13.9485 18.4953L13.9456 18.4966L14.0268 18.6793ZM10.3948 18.9193L10.1952 18.9312L10.2047 19.0914L10.3631 19.1168L10.3948 18.9193ZM10.3148 17.5753L10.1734 17.4339L10.1099 17.4975L10.1152 17.5872L10.3148 17.5753ZM10.4268 17.4633L10.5061 17.2797L10.3814 17.2259L10.2854 17.3219L10.4268 17.4633ZM13.6908 17.3833L13.8108 17.5433L13.8115 17.5428L13.6908 17.3833ZM13.8188 15.1433L13.6913 15.2975L13.6946 15.3L13.8188 15.1433ZM12.4748 14.7273L12.4821 14.5273H12.4748V14.7273ZM11.4668 14.7273L11.315 14.8575L11.3749 14.9273H11.4668V14.7273ZM11.3708 14.6153L11.171 14.6068L11.1677 14.6856L11.219 14.7455L11.3708 14.6153ZM11.4188 13.4953L11.4143 13.2954L11.2271 13.2997L11.219 13.4868L11.4188 13.4953ZM12.1228 13.4793V13.2793L12.1183 13.2794L12.1228 13.4793ZM12.9548 13.2713L13.0443 13.4502L13.0443 13.4502L12.9548 13.2713ZM13.6268 12.6953L13.4659 12.5764L13.4627 12.5811L13.6268 12.6953ZM13.5468 11.0473L13.4125 11.1958L13.4202 11.2021L13.5468 11.0473ZM11.6908 10.9673L11.7727 11.1499L11.7778 11.1475L11.6908 10.9673ZM10.6828 11.6233V11.8233H10.7546L10.81 11.7777L10.6828 11.6233ZM10.5068 11.6233L10.3105 11.6616L10.342 11.8233H10.5068V11.6233ZM10.2668 10.3913L10.1446 10.233L10.0469 10.3085L10.0705 10.4296L10.2668 10.3913ZM12.9548 9.61534C13.7007 9.61534 14.2757 9.79883 14.7002 10.1461L14.9535 9.83655C14.4393 9.41586 13.7663 9.21534 12.9548 9.21534V9.61534ZM14.7019 10.1475C15.1332 10.4925 15.3468 10.9411 15.3468 11.5113H15.7468C15.7468 10.8229 15.4805 10.2582 14.9518 9.83517L14.7019 10.1475ZM15.3468 11.5113C15.3468 11.9192 15.2308 12.3213 14.9913 12.7204L15.3343 12.9262C15.6069 12.472 15.7468 11.9995 15.7468 11.5113H15.3468ZM14.9925 12.7185C14.7594 13.0973 14.3952 13.4214 13.8866 13.6859L14.0711 14.0408C14.6292 13.7506 15.0543 13.3814 15.3332 12.9282L14.9925 12.7185ZM13.7788 13.8633V13.9273H14.1788V13.8633H13.7788ZM13.9279 14.1208C14.5089 14.2736 14.9271 14.518 15.2027 14.8411L15.507 14.5816C15.1639 14.1793 14.6648 13.901 14.0297 13.7339L13.9279 14.1208ZM15.2069 14.8459C15.4893 15.1565 15.6348 15.5493 15.6348 16.0393H16.0348C16.0348 15.4627 15.8604 14.9702 15.5028 14.5768L15.2069 14.8459ZM15.6348 16.0393C15.6348 16.5987 15.4858 17.0861 15.1908 17.5089L15.5189 17.7378C15.8639 17.2432 16.0348 16.6747 16.0348 16.0393H15.6348ZM15.189 17.5115C14.904 17.9341 14.4938 18.2631 13.9485 18.4953L14.1052 18.8633C14.7119 18.6049 15.187 18.2299 15.5207 17.7352L15.189 17.5115ZM13.9456 18.4966C13.3995 18.7393 12.7666 18.8633 12.0428 18.8633V19.2633C12.8124 19.2633 13.5022 19.1314 14.1081 18.8621L13.9456 18.4966ZM12.0428 18.8633C11.5541 18.8633 11.0155 18.8165 10.4266 18.7219L10.3631 19.1168C10.9689 19.2142 11.529 19.2633 12.0428 19.2633V18.8633ZM10.5945 18.9075L10.5145 17.5635L10.1152 17.5872L10.1952 18.9312L10.5945 18.9075ZM10.4563 17.7168L10.5683 17.6048L10.2854 17.3219L10.1734 17.4339L10.4563 17.7168ZM10.3476 17.647C10.9164 17.8923 11.5087 18.0153 12.1228 18.0153V17.6153C11.5637 17.6153 11.0253 17.5037 10.5061 17.2797L10.3476 17.647ZM12.1228 18.0153C12.8114 18.0153 13.3813 17.8655 13.8108 17.5433L13.5708 17.2233C13.2324 17.4772 12.757 17.6153 12.1228 17.6153V18.0153ZM13.8115 17.5428C14.2581 17.2049 14.4828 16.7395 14.4828 16.1673H14.0828C14.0828 16.6192 13.9129 16.9645 13.5702 17.2239L13.8115 17.5428ZM14.4828 16.1673C14.4828 15.6765 14.3059 15.2743 13.9431 14.9866L13.6946 15.3C13.9505 15.503 14.0828 15.7836 14.0828 16.1673H14.4828ZM13.9464 14.9893C13.5906 14.6948 13.0932 14.5497 12.4821 14.5275L12.4676 14.9272C13.0298 14.9477 13.4285 15.0799 13.6913 15.2974L13.9464 14.9893ZM12.4748 14.5273H11.4668V14.9273H12.4748V14.5273ZM11.6187 14.5972L11.5227 14.4852L11.219 14.7455L11.315 14.8575L11.6187 14.5972ZM11.5707 14.6239L11.6187 13.5039L11.219 13.4868L11.171 14.6068L11.5707 14.6239ZM11.4234 13.6953L12.1274 13.6793L12.1183 13.2794L11.4143 13.2954L11.4234 13.6953ZM12.1228 13.6793C12.4347 13.6793 12.7425 13.6011 13.0443 13.4502L12.8654 13.0925C12.6125 13.2189 12.3656 13.2793 12.1228 13.2793V13.6793ZM13.0443 13.4502C13.3504 13.2972 13.6005 13.0834 13.791 12.8096L13.4627 12.5811C13.3118 12.7979 13.114 12.9682 12.8654 13.0925L13.0443 13.4502ZM13.7877 12.8142C13.9948 12.534 14.0988 12.2148 14.0988 11.8633H13.6988C13.6988 12.1305 13.6215 12.3661 13.466 12.5765L13.7877 12.8142ZM14.0988 11.8633C14.0988 11.4622 13.9623 11.1289 13.6735 10.8926L13.4202 11.2021C13.6007 11.3498 13.6988 11.5605 13.6988 11.8633H14.0988ZM13.681 10.899C13.4111 10.6548 13.0545 10.5433 12.6348 10.5433V10.9433C12.9832 10.9433 13.2346 11.0345 13.4127 11.1957L13.681 10.899ZM12.6348 10.5433C12.2826 10.5433 11.9383 10.6258 11.6039 10.7872L11.7778 11.1475C12.062 11.0102 12.3471 10.9433 12.6348 10.9433V10.5433ZM11.609 10.7848C11.2785 10.933 10.9273 11.163 10.5557 11.469L10.81 11.7777C11.1638 11.4864 11.4845 11.279 11.7727 11.1498L11.609 10.7848ZM10.6828 11.4233H10.5068V11.8233H10.6828V11.4233ZM10.7032 11.5851L10.4632 10.3531L10.0705 10.4296L10.3105 11.6616L10.7032 11.5851ZM10.3891 10.5496C11.2012 9.92255 12.0551 9.61534 12.9548 9.61534V9.21534C11.9559 9.21534 11.0178 9.5588 10.1446 10.233L10.3891 10.5496Z" fill="white"/>
</g>
<g id="Group 427319165">
<g id="Ellipse 147" filter="url(#filter2_f_100_78581)">
<ellipse cx="4.38279" cy="0.293392" rx="4.38279" ry="0.293392" transform="matrix(0.675867 -0.737023 0.74057 0.671979 6.31201 8.83398)" fill="white"/>
</g>
<g id="Ellipse 148" filter="url(#filter3_f_100_78581)">
<ellipse cx="2.82651" cy="0.141208" rx="2.82651" ry="0.141208" transform="matrix(0.675867 -0.737023 0.74057 0.671979 7.45752 7.69336)" fill="white"/>
</g>
<g id="Ellipse 149" filter="url(#filter4_f_100_78581)">
<ellipse cx="1.00875" cy="0.0503954" rx="1.00875" ry="0.0503954" transform="matrix(0.675867 -0.737023 0.74057 0.671979 8.75537 6.41211)" fill="white"/>
</g>
</g>
</g>
<defs>
<filter id="filter0_ii_100_78581" x="1.47949" y="1.34589" width="23.5364" height="21.5728" filterUnits="userSpaceOnUse" color-interpolation-filters="sRGB">
<feFlood flood-opacity="0" result="BackgroundImageFix"/>
<feBlend mode="normal" in="SourceGraphic" in2="BackgroundImageFix" result="shape"/>
<feColorMatrix in="SourceAlpha" type="matrix" values="0 0 0 0 0 0 0 0 0 0 0 0 0 0 0 0 0 0 127 0" result="hardAlpha"/>
<feOffset dy="0.3"/>
<feGaussianBlur stdDeviation="0.25"/>
<feComposite in2="hardAlpha" operator="arithmetic" k2="-1" k3="1"/>
<feColorMatrix type="matrix" values="0 0 0 0 0.6 0 0 0 0 0.287838 0 0 0 0 0 0 0 0 1 0"/>
<feBlend mode="normal" in2="shape" result="effect1_innerShadow_100_78581"/>
<feColorMatrix in="SourceAlpha" type="matrix" values="0 0 0 0 0 0 0 0 0 0 0 0 0 0 0 0 0 0 127 0" result="hardAlpha"/>
<feOffset dx="0.2" dy="0.1"/>
<feGaussianBlur stdDeviation="0.5"/>
<feComposite in2="hardAlpha" operator="arithmetic" k2="-1" k3="1"/>
<feColorMatrix type="matrix" values="0 0 0 0 0.720833 0 0 0 0 0.452184 0 0 0 0 0.20724 0 0 0 1 0"/>
<feBlend mode="normal" in2="effect1_innerShadow_100_78581" result="effect2_innerShadow_100_78581"/>
</filter>
<filter id="filter1_d_100_78581" x="8.26685" y="9.41534" width="9.56812" height="13.648" filterUnits="userSpaceOnUse" color-interpolation-filters="sRGB">
<feFlood flood-opacity="0" result="BackgroundImageFix"/>
<feColorMatrix in="SourceAlpha" type="matrix" values="0 0 0 0 0 0 0 0 0 0 0 0 0 0 0 0 0 0 127 0" result="hardAlpha"/>
<feOffset dy="2"/>
<feGaussianBlur stdDeviation="1"/>
<feComposite in2="hardAlpha" operator="out"/>
<feColorMatrix type="matrix" values="0 0 0 0 0.807843 0 0 0 0 0.505882 0 0 0 0 0.156863 0 0 0 1 0"/>
<feBlend mode="normal" in2="BackgroundImageFix" result="effect1_dropShadow_100_78581"/>
<feBlend mode="normal" in="SourceGraphic" in2="effect1_dropShadow_100_78581" result="shape"/>
</filter>
<filter id="filter2_f_100_78581" x="5.52124" y="1.56458" width="7.94043" height="8.47266" filterUnits="userSpaceOnUse" color-interpolation-filters="sRGB">
<feFlood flood-opacity="0" result="BackgroundImageFix"/>
<feBlend mode="normal" in="SourceGraphic" in2="BackgroundImageFix" result="shape"/>
<feGaussianBlur stdDeviation="0.5" result="effect1_foregroundBlur_100_78581"/>
</filter>
<filter id="filter3_f_100_78581" x="7.05908" y="3.11963" width="4.82666" height="5.17084" filterUnits="userSpaceOnUse" color-interpolation-filters="sRGB">
<feFlood flood-opacity="0" result="BackgroundImageFix"/>
<feBlend mode="normal" in="SourceGraphic" in2="BackgroundImageFix" result="shape"/>
<feGaussianBlur stdDeviation="0.25" result="effect1_foregroundBlur_100_78581"/>
</filter>
<filter id="filter4_f_100_78581" x="8.29175" y="4.45825" width="2.36548" height="2.48853" filterUnits="userSpaceOnUse" color-interpolation-filters="sRGB">
<feFlood flood-opacity="0" result="BackgroundImageFix"/>
<feBlend mode="normal" in="SourceGraphic" in2="BackgroundImageFix" result="shape"/>
<feGaussianBlur stdDeviation="0.25" result="effect1_foregroundBlur_100_78581"/>
</filter>
<linearGradient id="paint0_linear_100_78581" x1="1.82259" y1="16.875" x2="25.1716" y2="16.875" gradientUnits="userSpaceOnUse">
<stop stop-color="#FFF3EA"/>
<stop offset="1" stop-color="#E6C5A5"/>
</linearGradient>
<linearGradient id="paint1_linear_100_78581" x1="9.59717" y1="4.375" x2="17.6273" y2="11.7975" gradientUnits="userSpaceOnUse">
<stop offset="0.26717" stop-color="#F9CFAB"/>
<stop offset="0.907424" stop-color="#E48F48"/>
</linearGradient>
<linearGradient id="paint2_linear_100_78581" x1="25.3765" y1="18.5" x2="1.59717" y2="9.75" gradientUnits="userSpaceOnUse">
<stop offset="0.114257" stop-color="#C6700B"/>
<stop offset="1" stop-color="#EECBA8"/>
</linearGradient>
<linearGradient id="paint3_linear_100_78581" x1="24.2222" y1="19.625" x2="-0.624577" y2="9.41126" gradientUnits="userSpaceOnUse">
<stop stop-color="white"/>
<stop offset="0.513811" stop-color="white" stop-opacity="0.5"/>
<stop offset="1" stop-color="white"/>
</linearGradient>
</defs>
</svg>
