<svg width="21" height="20" viewBox="0 0 21 20" fill="none" xmlns="http://www.w3.org/2000/svg">
<g id="Group 427319049">
<circle id="Ellipse 160" cx="10.5" cy="9.99982" r="9.7" fill="url(#paint0_linear_1185_114681)" stroke="url(#paint1_linear_1185_114681)" stroke-width="0.6"/>
<g id="Frame" clip-path="url(#clip0_1185_114681)">
<path id="Subtract" fill-rule="evenodd" clip-rule="evenodd" d="M13.5011 4.7674H6.98379C6.95825 4.77053 6.93259 4.77289 6.90689 4.77524C6.85584 4.77992 6.80464 4.78461 6.75391 4.79552C6.4832 4.8506 6.23184 5.0088 6.05029 5.23497C5.89668 5.42599 5.79248 5.66505 5.75703 5.917C5.73662 6.06583 5.85156 6.21583 5.99014 6.21935H11.2347C11.2448 6.21967 11.255 6.21955 11.2653 6.21942C11.292 6.21909 11.3189 6.21876 11.3453 6.22638C11.3958 6.24279 11.4345 6.29786 11.4345 6.35529L11.4334 7.23928C11.4345 7.29318 11.4044 7.34357 11.3604 7.36584C11.3367 7.37831 11.3105 7.37792 11.2847 7.37752C11.2765 7.3774 11.2684 7.37728 11.2604 7.37756H10.4995V7.37482H9.97393V11.1879C9.78423 11.0399 9.59388 10.8919 9.40352 10.7439C9.21317 10.5959 9.02282 10.4478 8.83312 10.2998C8.62762 10.1389 8.33254 10.1389 8.12967 10.2969C7.89554 10.4766 7.66239 10.6584 7.42903 10.8405C7.28162 10.9554 7.13412 11.0705 6.98623 11.1851V7.37482H6.95371V7.37248H5.99336C5.91924 7.37248 5.84404 7.40881 5.79678 7.47209C5.75918 7.51896 5.74307 7.58107 5.73662 7.64201V13.7861C5.74522 13.9572 5.77207 14.1295 5.83438 14.2877C5.9418 14.5713 6.14053 14.8115 6.38652 14.9592C6.53691 15.0494 6.70559 15.1057 6.87747 15.1221C6.90861 15.1244 6.93976 15.1268 6.9709 15.1326H13.4828L13.4983 15.1313C13.6007 15.1224 13.7037 15.1135 13.8029 15.0822C14.0672 15.0061 14.3067 14.8326 14.4722 14.5959C14.6269 14.3779 14.7192 14.1061 14.7289 13.8295C14.73 13.8072 14.7321 13.7861 14.7354 13.7651V6.15724C14.7311 6.12444 14.7294 6.09164 14.7278 6.05884L14.7278 6.0588L14.7278 6.05877C14.7262 6.02597 14.7246 5.99316 14.7203 5.96036C14.6859 5.66154 14.557 5.37794 14.3604 5.167C14.1553 4.94318 13.8749 4.80138 13.5859 4.77794C13.558 4.7756 13.529 4.77208 13.5011 4.7674Z" fill="url(#paint2_linear_1185_114681)"/>
<path id="Vector" d="M9.33838 7.37482H7.59971V9.99813C7.82202 9.82586 8.04281 9.65191 8.26512 9.4813C8.38318 9.38931 8.5549 9.38931 8.67449 9.48297C8.89528 9.65525 9.1176 9.82753 9.33838 9.99981V7.37482Z" fill="url(#paint3_linear_1185_114681)"/>
</g>
</g>
<defs>
<linearGradient id="paint0_linear_1185_114681" x1="10.5" y1="-0.000183105" x2="10.5" y2="19.9998" gradientUnits="userSpaceOnUse">
<stop stop-color="#F3EEDF"/>
<stop offset="1" stop-color="#F5F5F3"/>
</linearGradient>
<linearGradient id="paint1_linear_1185_114681" x1="10.5" y1="-0.000183105" x2="10.5" y2="19.9998" gradientUnits="userSpaceOnUse">
<stop stop-color="#886239"/>
<stop offset="1" stop-color="#C2B6A9"/>
</linearGradient>
<linearGradient id="paint2_linear_1185_114681" x1="10.2362" y1="4.7674" x2="10.2362" y2="15.1326" gradientUnits="userSpaceOnUse">
<stop stop-color="#886239"/>
<stop offset="1" stop-color="#CEA271"/>
</linearGradient>
<linearGradient id="paint3_linear_1185_114681" x1="8.46904" y1="7.37482" x2="8.46904" y2="9.99981" gradientUnits="userSpaceOnUse">
<stop stop-color="#9C7449"/>
<stop offset="1" stop-color="#AA8054"/>
</linearGradient>
<clipPath id="clip0_1185_114681">
<rect width="11" height="12" fill="white" transform="matrix(-1 0 0 1 16 3.99982)"/>
</clipPath>
</defs>
</svg>
