<svg width="20" height="20" viewBox="0 0 20 20" fill="none" xmlns="http://www.w3.org/2000/svg">
<path d="M20 0H0V20H20V0Z" fill="white" fill-opacity="0.01"/>
<path d="M3 1.25C2.58579 1.25 2.25 1.58579 2.25 2C2.25 2.41421 2.58579 2.75 3 2.75V1.25ZM16.9994 2.75C17.4136 2.75 17.7494 2.41421 17.7494 2C17.7494 1.58579 17.4136 1.25 16.9994 1.25V2.75ZM10.7501 5.995C10.7501 5.58079 10.4143 5.245 10.0001 5.245C9.58591 5.245 9.25012 5.58079 9.25012 5.995H10.7501ZM9.25012 18C9.25012 18.4142 9.58591 18.75 10.0001 18.75C10.4143 18.75 10.7501 18.4142 10.7501 18H9.25012ZM2.50423 10.4777C2.19342 10.7515 2.16342 11.2255 2.43723 11.5363C2.71104 11.8471 3.18496 11.8771 3.49577 11.6033L2.50423 10.4777ZM10 4.87386L10.4958 4.31109C10.2124 4.06145 9.7876 4.06145 9.50423 4.31109L10 4.87386ZM16.5042 11.6033C16.815 11.8771 17.289 11.8471 17.5628 11.5363C17.8366 11.2255 17.8066 10.7515 17.4958 10.4777L16.5042 11.6033ZM3 2.75H16.9994V1.25H3V2.75ZM3.49577 11.6033L10.4958 5.43663L9.50423 4.31109L2.50423 10.4777L3.49577 11.6033ZM9.50423 5.43663L16.5042 11.6033L17.4958 10.4777L10.4958 4.31109L9.50423 5.43663ZM9.25012 5.995V18H10.7501V5.995H9.25012Z" fill="white" fill-opacity="0.9"/>
</svg>
