<svg width="16" height="14" viewBox="0 0 16 14" fill="none" xmlns="http://www.w3.org/2000/svg">
<g id="&#232;&#180;&#173;&#231;&#137;&#169;&#232;&#189;&#166;">
<path id="Vector" d="M4.87793 12.7521C4.87793 12.1452 5.37179 11.6514 5.97869 11.6514C6.5856 11.6514 7.07946 12.1452 7.07946 12.7521C7.07946 13.359 6.5856 13.8529 5.97869 13.8529C5.37179 13.8529 4.87793 13.359 4.87793 12.7521ZM5.41746 12.7535C5.41746 13.0625 5.66967 13.3147 5.97869 13.3147C6.28772 13.3147 6.53993 13.0625 6.53993 12.7535C6.53993 12.4445 6.28772 12.1923 5.97869 12.1923C5.66967 12.1923 5.41746 12.4445 5.41746 12.7535Z" fill="#3370FF" stroke="#3370FF" stroke-width="0.125"/>
<path id="Vector_2" d="M10.5293 12.7521C10.5293 12.1452 11.0232 11.6514 11.6301 11.6514C12.2383 11.6514 12.7308 12.1452 12.7308 12.7521C12.7308 13.359 12.237 13.8529 11.6301 13.8529C11.0232 13.8529 10.5293 13.359 10.5293 12.7521ZM11.0688 12.7535C11.0688 13.0625 11.321 13.3147 11.6301 13.3147C11.9406 13.3147 12.1913 13.0624 12.1913 12.7535C12.1913 12.4445 11.9391 12.1923 11.6301 12.1923C11.321 12.1923 11.0688 12.4445 11.0688 12.7535Z" fill="#3370FF" stroke="#3370FF" stroke-width="0.125"/>
<path id="Vector 81" d="M1.33984 0.924805H2.277C2.75498 0.924805 3.16613 1.26305 3.25825 1.73207L3.6254 3.60128M13.245 10.5871H5.82023C5.34225 10.5871 4.9311 10.2489 4.83898 9.77985L4.65864 8.8617M3.6254 3.60128H14.0076C14.3366 3.60128 14.5759 3.91348 14.4904 4.23115L13.4441 8.12143C13.3266 8.55816 12.9307 8.8617 12.4784 8.8617H4.65864M3.6254 3.60128L4.65864 8.8617" stroke="#3370FF" stroke-linecap="round"/>
</g>
</svg>
