<svg width="22" height="23" viewBox="0 0 22 23" fill="none" xmlns="http://www.w3.org/2000/svg">
<g id="&#228;&#184;&#170;&#228;&#186;&#186;&#228;&#191;&#161;&#230;&#129;&#175;icon">
<g id="Group 427318593">
<path id="Union" fill-rule="evenodd" clip-rule="evenodd" d="M14.5625 7.50018C14.5625 9.32963 13.0794 10.8127 11.25 10.8127C9.42056 10.8127 7.9375 9.32963 7.9375 7.50018C7.9375 5.67074 9.42056 4.18768 11.25 4.18768C13.0794 4.18768 14.5625 5.67074 14.5625 7.50018ZM13.5084 11.1748C14.7409 10.4157 15.5625 9.05388 15.5625 7.50018C15.5625 5.11846 13.6317 3.18768 11.25 3.18768C8.86827 3.18768 6.9375 5.11846 6.9375 7.50018C6.9375 9.05384 7.75909 10.4156 8.99151 11.1747C5.95306 12.133 3.75 14.9736 3.75 18.3287C3.75 18.6048 3.97386 18.8287 4.25 18.8287C4.52614 18.8287 4.75 18.6048 4.75 18.3287C4.75 14.7388 7.66015 11.8287 11.25 11.8287C13.3655 11.8287 15.2449 12.8388 16.4327 14.4051C16.5995 14.6251 16.9132 14.6682 17.1332 14.5013C17.3532 14.3345 17.3963 14.0208 17.2295 13.8008C16.302 12.5777 15.0068 11.6474 13.5084 11.1748Z" fill="black" fill-opacity="0.6"/>
<rect id="Rectangle 542" x="12" y="15.5082" width="6" height="1" rx="0.5" fill="black" fill-opacity="0.6"/>
<rect id="Rectangle 544" x="12" y="17.8287" width="6" height="1" rx="0.5" fill="black" fill-opacity="0.6"/>
</g>
</g>
</svg>
