<svg width="22" height="23" viewBox="0 0 22 23" fill="none" xmlns="http://www.w3.org/2000/svg">
<g id="&#230;&#136;&#145;&#231;&#154;&#132;&#228;&#188;&#152;&#230;&#131;&#160;&#229;&#136;&#184;icon">
<g id="Group 427318592">
<path id="&#194;&#165;" d="M10.9051 10.0361C10.9848 10.1625 11.1698 10.16 11.2462 10.0317L12.3491 8.17794C12.3852 8.11734 12.4505 8.0802 12.521 8.0802H12.9863C13.1425 8.0802 13.2384 8.25139 13.1568 8.38465L11.8737 10.4797C11.7921 10.613 11.888 10.7842 12.0443 10.7842H12.6953C12.8057 10.7842 12.8953 10.8737 12.8953 10.9842V11.2402C12.8953 11.3507 12.8057 11.4402 12.6953 11.4402H11.6713C11.5608 11.4402 11.4713 11.5297 11.4713 11.6402V11.7922C11.4713 11.9027 11.5608 11.9922 11.6713 11.9922H12.6953C12.8057 11.9922 12.8953 12.0817 12.8953 12.1922V12.4562C12.8953 12.5667 12.8057 12.6562 12.6953 12.6562H11.6713C11.5608 12.6562 11.4713 12.7457 11.4713 12.8562V13.7362C11.4713 13.8467 11.3817 13.9362 11.2713 13.9362H10.8153C10.7048 13.9362 10.6153 13.8467 10.6153 13.7362V12.8562C10.6153 12.7457 10.5257 12.6562 10.4153 12.6562H9.45527C9.34482 12.6562 9.25527 12.5667 9.25527 12.4562V12.1922C9.25527 12.0817 9.34482 11.9922 9.45527 11.9922H10.4153C10.5257 11.9922 10.6153 11.9027 10.6153 11.7922V11.6402C10.6153 11.5297 10.5257 11.4402 10.4153 11.4402H9.45527C9.34482 11.4402 9.25527 11.3507 9.25527 11.2402V10.9842C9.25527 10.8737 9.34482 10.7842 9.45527 10.7842H10.0252C10.1834 10.7842 10.279 10.6093 10.1935 10.4761L8.85305 8.38825C8.76759 8.25514 8.86317 8.0802 9.02135 8.0802H9.56097C9.62963 8.0802 9.69349 8.11542 9.73012 8.17349L10.9051 10.0361Z" fill="black" fill-opacity="0.6"/>
<path id="Subtract (Stroke)" fill-rule="evenodd" clip-rule="evenodd" d="M6 6.00818C5.44772 6.00818 5 6.45589 5 7.00818V8.45042C6.16426 8.86207 7 9.97192 7 11.2794C7 12.5869 6.16426 13.6968 5 14.1084V15.0082C5 15.5605 5.44772 16.0082 6 16.0082H16C16.5523 16.0082 17 15.5605 17 15.0082V14.1084C15.8357 13.6968 15 12.5869 15 11.2794C15 9.97192 15.8357 8.86207 17 8.45042V7.00818C17 6.45589 16.5523 6.00818 16 6.00818H6ZM17.1133 8.41291C17.1134 8.41287 17.1135 8.41284 17.1136 8.4128L17.1136 8.41282C17.1135 8.41283 17.1134 8.41286 17.1133 8.41291ZM6 5.00818C4.89543 5.00818 4 5.90361 4 7.00818V8.67942C4 9.01079 4.27459 9.27041 4.59119 9.36824C5.40716 9.62035 6 10.3807 6 11.2794C6 12.1782 5.40716 12.9385 4.59119 13.1906C4.27459 13.2884 4 13.548 4 13.8794V15.0082C4 16.1127 4.89543 17.0082 6 17.0082H16C17.1046 17.0082 18 16.1127 18 15.0082V13.8794C18 13.548 17.7254 13.2884 17.4088 13.1906C16.5928 12.9385 16 12.1782 16 11.2794C16 10.3807 16.5928 9.62035 17.4088 9.36824C17.7254 9.27041 18 9.01079 18 8.67942V7.00818C18 5.90361 17.1046 5.00818 16 5.00818H6Z" fill="black" fill-opacity="0.6"/>
</g>
</g>
</svg>
