<svg width="22" height="23" viewBox="0 0 22 23" fill="none" xmlns="http://www.w3.org/2000/svg">
<g id="&#230;&#136;&#145;&#231;&#154;&#132;&#229;&#149;&#134;&#230;&#160;&#135;icon">
<g id="Group 427318590">
<path id="Polygon 3 (Stroke)" fill-rule="evenodd" clip-rule="evenodd" d="M9.75965 3.14116C10.5282 2.70197 11.4718 2.70197 12.2403 3.14116L17.2403 5.9983C18.0193 6.44341 18.5 7.27177 18.5 8.16891V13.8476C18.5 14.7448 18.0193 15.5731 17.2403 16.0182L12.2403 18.8754C11.4718 19.3146 10.5282 19.3146 9.75965 18.8754L8.99427 18.438C8.75451 18.301 8.67121 17.9956 8.80822 17.7558C8.94522 17.5161 9.25065 17.4328 9.49041 17.5698L10.2558 18.0071C10.7169 18.2706 11.2831 18.2706 11.7442 18.0071L16.7442 15.15C17.2116 14.8829 17.5 14.3859 17.5 13.8476V8.16891C17.5 7.63063 17.2116 7.13361 16.7442 6.86655L11.7442 4.0094C11.2831 3.74589 10.7169 3.74589 10.2558 4.0094L5.25579 6.86655C4.78843 7.13361 4.5 7.63063 4.5 8.16891V13.8476C4.5 14.3859 4.78843 14.8829 5.25579 15.15L5.96625 15.556C6.206 15.693 6.2893 15.9984 6.1523 16.2382C6.01529 16.4779 5.70986 16.5612 5.47011 16.4242L4.75965 16.0182C3.98071 15.5731 3.5 14.7448 3.5 13.8476V8.16891C3.5 7.27177 3.98072 6.44341 4.75965 5.9983L9.75965 3.14116Z" fill="black" fill-opacity="0.6"/>
<path id="Polygon 4 (Stroke)" fill-rule="evenodd" clip-rule="evenodd" d="M13.6311 9.54364L11.0079 8.04028L8.38477 9.54364L8.38477 12.5376L11.0079 14.041L13.6311 12.5376L13.6311 9.54364ZM11.5052 7.17267C11.1972 6.99616 10.8187 6.99615 10.5107 7.17267L7.88753 8.67603C7.57657 8.85424 7.38477 9.18524 7.38477 9.54364V12.5376C7.38477 12.896 7.57657 13.227 7.88753 13.4052L10.5107 14.9086C10.8187 15.0851 11.1972 15.0851 11.5052 14.9086L14.1284 13.4052C14.4393 13.227 14.6311 12.896 14.6311 12.5376V9.54364C14.6311 9.18524 14.4393 8.85424 14.1284 8.67603L11.5052 7.17267Z" fill="black" fill-opacity="0.6"/>
<path id="Rectangle 536" d="M6.83 17.274C6.60021 17.1421 6.52491 16.8464 6.66367 16.6207V16.6207C6.79662 16.4045 7.07734 16.333 7.29752 16.4593L8.212 16.9841C8.4418 17.116 8.51709 17.4117 8.37834 17.6374V17.6374C8.24539 17.8537 7.96466 17.9252 7.74449 17.7988L6.83 17.274Z" fill="black" fill-opacity="0.6"/>
</g>
</g>
</svg>
