<svg width="22" height="23" viewBox="0 0 22 23" fill="none" xmlns="http://www.w3.org/2000/svg">
<g id="&#230;&#136;&#145;&#231;&#154;&#132;&#228;&#184;&#147;&#229;&#136;&#169;icon">
<g id="Group 427318591">
<path id="P" d="M10.2988 8.90955H11.8564C12.1494 8.90304 12.4066 8.96977 12.6279 9.10974C12.7744 9.19438 12.8883 9.30994 12.9697 9.45642C13.0479 9.61918 13.0869 9.81938 13.0869 10.057C13.0869 10.3435 12.9909 10.6039 12.7988 10.8383C12.597 11.0791 12.2959 11.2028 11.8955 11.2094H10.2988V8.90955ZM9.21973 14.8082C9.21973 14.9186 9.30927 15.0082 9.41973 15.0082H10.0988C10.2093 15.0082 10.2988 14.9186 10.2988 14.8082V12.2299H11.9395C12.6719 12.2168 13.2285 11.9825 13.6094 11.5267C13.9805 11.0938 14.166 10.6136 14.166 10.0863C14.166 9.69568 14.0928 9.35714 13.9463 9.07068C13.8063 8.77445 13.624 8.54659 13.3994 8.38708C13.1325 8.1755 12.8688 8.03552 12.6084 7.96716C12.348 7.91508 12.0778 7.88904 11.7979 7.88904H9.41973C9.30927 7.88904 9.21973 7.97858 9.21973 8.08904V14.8082Z" fill="black" fill-opacity="0.6"/>
<path id="Vector" d="M10.9347 17.439C7.76019 17.439 5.11581 15.1271 4.59673 12.0986L5.07876 12.0049C5.15145 11.9908 5.18411 11.9053 5.13938 11.8463L3.97831 10.315C3.92955 10.2507 3.82862 10.2677 3.80357 10.3444L3.19098 12.2203C3.1673 12.2928 3.23025 12.364 3.30512 12.3495L3.70561 12.2716C3.96112 13.7507 4.66344 15.1128 5.74704 16.1957C7.13264 17.5817 8.97498 18.3445 10.9346 18.3445C13.2239 18.3445 15.3667 17.2809 16.7527 15.4776C16.9051 15.2793 16.8495 14.9968 16.6423 14.8568V14.8568C16.435 14.7168 16.1547 14.7725 16.0006 14.9695C14.7844 16.5237 12.9225 17.439 10.9347 17.439ZM18.2396 10.327C18.0834 8.62467 17.3458 7.0444 16.1219 5.8208C14.7363 4.43482 12.894 3.672 10.9346 3.672C8.6448 3.672 6.50199 4.73557 5.11604 6.53876C4.96358 6.73711 5.01923 7.01969 5.22656 7.15969V7.15969C5.43385 7.29967 5.71418 7.24392 5.8683 7.04692C7.08423 5.49274 8.94617 4.57741 10.9346 4.57741C14.2279 4.57741 16.95 7.06602 17.3217 10.2614L16.8895 10.2306C16.8156 10.2254 16.7619 10.2994 16.7897 10.368L17.513 12.1485C17.5433 12.2233 17.6452 12.2331 17.6893 12.1656L18.7686 10.5137C18.8103 10.4498 18.7681 10.3647 18.692 10.3592L18.2396 10.327Z" fill="black" fill-opacity="0.6"/>
</g>
</g>
</svg>
