<svg width="16" height="17" viewBox="0 0 16 17" fill="none" xmlns="http://www.w3.org/2000/svg">
<g id="icon-wrapper">
<path id="icon" d="M8 1.78076C4.13438 1.78076 1 4.91514 1 8.78076C1 12.6464 4.13438 15.7808 8 15.7808C11.8656 15.7808 15 12.6464 15 8.78076C15 4.91514 11.8656 1.78076 8 1.78076ZM7.5 5.40576C7.5 5.33701 7.55625 5.28076 7.625 5.28076H8.375C8.44375 5.28076 8.5 5.33701 8.5 5.40576V9.65576C8.5 9.72451 8.44375 9.78076 8.375 9.78076H7.625C7.55625 9.78076 7.5 9.72451 7.5 9.65576V5.40576ZM8 12.2808C7.80374 12.2768 7.61687 12.196 7.47948 12.0558C7.3421 11.9155 7.26515 11.7271 7.26515 11.5308C7.26515 11.3345 7.3421 11.146 7.47948 11.0058C7.61687 10.8655 7.80374 10.7848 8 10.7808C8.19626 10.7848 8.38313 10.8655 8.52052 11.0058C8.6579 11.146 8.73485 11.3345 8.73485 11.5308C8.73485 11.7271 8.6579 11.9155 8.52052 12.0558C8.38313 12.196 8.19626 12.2768 8 12.2808Z" fill="#FAAD14"/>
</g>
</svg>
