<svg width="21" height="20" viewBox="0 0 21 20" fill="none" xmlns="http://www.w3.org/2000/svg">
<g id="Group 427319048">
<circle id="Ellipse 160" cx="10.5" cy="9.99982" r="9.7" fill="#F3EEDF" stroke="url(#paint0_linear_1185_114669)" stroke-width="0.6"/>
<g id="Frame" clip-path="url(#clip0_1185_114669)">
<path id="Subtract" fill-rule="evenodd" clip-rule="evenodd" d="M12.4306 4.37321C11.4945 3.99928 10.4489 3.91075 9.46142 4.1099C8.83544 4.2358 8.23276 4.47928 7.69758 4.82803C7.0037 5.27856 6.42366 5.90964 6.05589 6.65254C5.76285 7.24035 5.60883 7.8966 5.61098 8.55352C5.58285 9.3958 5.83933 10.2444 6.33058 10.9291C6.33724 10.9382 6.34389 10.9473 6.35055 10.9564C6.41707 11.0472 6.48394 11.1385 6.56575 11.2163C6.70706 11.3577 6.85595 11.4911 7.00483 11.6245C7.20645 11.8051 7.40804 11.9858 7.59071 12.1861C7.87316 12.4912 8.11825 12.8332 8.29705 13.2093C8.42375 13.4747 8.5183 13.7554 8.57964 14.0431C8.58205 14.0538 8.58417 14.0647 8.58629 14.0756C8.5942 14.1162 8.6022 14.1573 8.62584 14.1919C8.66321 14.2494 8.73071 14.2854 8.79928 14.2845C9.93767 14.2847 11.0761 14.2847 12.2145 14.2846C12.3132 14.2867 12.4033 14.2081 12.4182 14.1113C12.6069 13.2259 13.0929 12.4079 13.7795 11.8182C13.9666 11.6631 14.1477 11.5009 14.3238 11.3335C14.6354 11.0443 14.8905 10.694 15.069 10.3081C15.3217 9.7641 15.3979 9.15714 15.4018 8.56263V8.53115C15.3981 8.00789 15.3006 7.48517 15.1081 6.99834C14.8037 6.21981 14.2689 5.53892 13.6042 5.03522C13.2456 4.76254 12.849 4.54008 12.4306 4.37321ZM9.26709 14.6384C9.05776 14.638 8.85191 14.7428 8.72937 14.9124C8.63508 15.0391 8.59116 15.1999 8.60067 15.357C8.6083 15.5845 8.74196 15.8019 8.94111 15.9121C9.02816 15.9633 9.12781 15.9866 9.22705 15.9998H11.7991C11.9283 15.9787 12.0563 15.935 12.1578 15.8499C12.3283 15.7149 12.4225 15.4938 12.4065 15.2774C12.3983 15.0099 12.2114 14.7607 11.9583 14.6758C11.8518 14.6359 11.7369 14.6364 11.625 14.6382C11.2882 14.6383 10.9513 14.6382 10.6145 14.6382C10.1654 14.6382 9.71625 14.6381 9.26709 14.6384ZM10.6664 6.74547C10.3938 6.72662 10.1141 6.74812 9.85623 6.84284C9.39386 7.00865 9.02472 7.44953 8.99546 7.94695C8.98322 8.03192 9.04803 8.10433 9.12341 8.1326C9.26442 8.18649 9.42246 8.18401 9.56809 8.15111C9.62298 8.1364 9.68348 8.11987 9.72084 8.07408C9.73224 8.04935 9.73837 8.0228 9.74451 7.99621C9.75048 7.97035 9.75645 7.94446 9.76729 7.92017C9.8316 7.7504 9.9217 7.57699 10.0781 7.47515C10.2631 7.35067 10.4996 7.32753 10.715 7.36621C10.881 7.39531 11.0372 7.48838 11.1316 7.62939C11.2759 7.8314 11.2348 8.13326 11.0458 8.29295C10.9566 8.37772 10.8618 8.456 10.767 8.53429C10.684 8.60287 10.6009 8.67146 10.5216 8.74441C10.3791 8.87898 10.2417 9.0304 10.1776 9.21935C10.1022 9.43062 10.1042 9.65809 10.1105 9.87927C10.3538 9.88027 10.5972 9.8806 10.8403 9.87911C10.8377 9.75232 10.8412 9.6237 10.8693 9.49956C10.8878 9.41244 10.9428 9.33986 11.0022 9.27589C11.0825 9.19018 11.1724 9.11469 11.2623 9.03921C11.3164 8.99371 11.3706 8.94821 11.4227 8.90047C11.4311 8.89276 11.4395 8.88504 11.4479 8.87732C11.6088 8.72926 11.7729 8.57821 11.8825 8.38685C12.0241 8.14136 12.0337 7.83338 11.9329 7.57137C11.8517 7.35861 11.6981 7.17974 11.5198 7.04154C11.2763 6.85408 10.9698 6.76597 10.6664 6.74547ZM10.9769 10.6728C10.9271 10.4048 10.6355 10.2211 10.3717 10.2823C10.2783 10.301 10.1908 10.3461 10.1216 10.4112C9.96038 10.5572 9.91591 10.8133 10.022 11.0039C10.1376 11.2287 10.4315 11.3342 10.6646 11.2375C10.8868 11.1566 11.0306 10.905 10.9769 10.6728Z" fill="url(#paint1_linear_1185_114669)"/>
</g>
</g>
<defs>
<linearGradient id="paint0_linear_1185_114669" x1="10.5" y1="-0.000183105" x2="10.5" y2="19.9998" gradientUnits="userSpaceOnUse">
<stop stop-color="#886239"/>
<stop offset="1" stop-color="#C2B6A9"/>
</linearGradient>
<linearGradient id="paint1_linear_1185_114669" x1="10.5054" y1="4.00641" x2="10.5054" y2="15.9998" gradientUnits="userSpaceOnUse">
<stop stop-color="#886239"/>
<stop offset="1" stop-color="#CEA271"/>
</linearGradient>
<clipPath id="clip0_1185_114669">
<rect width="12" height="12" fill="white" transform="translate(4.5 3.99982)"/>
</clipPath>
</defs>
</svg>
