<svg width="20" height="21" viewBox="0 0 20 21" fill="none" xmlns="http://www.w3.org/2000/svg">
<g id="&#231;&#177;&#187;&#229;&#158;&#139;=&#228;&#184;&#147;&#229;&#177;&#158;&#231;&#187;&#143;&#231;&#144;&#134;,&#229;&#176;&#186;&#229;&#175;&#184;=20X20">
<path id="Vector" d="M20 0.656494H0V20.6565H20V0.656494Z" fill="white" fill-opacity="0.01"/>
<path id="Vector_2" d="M9.6972 13.1324C9.5264 12.9959 9.4242 12.8251 9.4242 12.5864C9.4242 12.2112 9.7315 11.9039 10.1067 11.9039C10.4819 11.9039 10.7892 12.2112 10.7892 12.5864C10.7892 12.8251 10.687 12.9959 10.5162 13.1324L11.4374 16.3734C11.506 16.6121 11.4374 16.8508 11.2666 17.0216L10.3454 17.9428C10.2089 18.0793 10.0045 18.0793 9.868 17.9428L8.9468 17.0216C8.776 16.8508 8.7081 16.6121 8.776 16.3734L9.6972 13.1324V13.1324Z" fill="white" fill-opacity="0.9"/>
<path id="Vector_3" d="M13.0747 10.1987C14.1667 9.31182 14.8828 7.94682 14.8828 6.44602C14.8828 3.81892 12.7338 1.66992 10.1067 1.66992C7.47963 1.66992 5.33063 3.81892 5.33063 6.44602C5.33063 7.98112 6.04673 9.31182 7.13873 10.1987C3.72693 11.1878 1.23633 14.3266 1.23633 18.045C1.23633 19.1706 2.15753 20.0918 3.28313 20.0918H16.9296C18.0552 20.0918 18.9764 19.1706 18.9764 18.045C18.9764 14.3266 16.4865 11.1878 13.0747 10.1987ZM6.69493 6.44602C6.69493 4.57002 8.23003 3.03422 10.1067 3.03422C11.9827 3.03422 13.5185 4.56932 13.5185 6.44602C13.5185 8.32272 11.9834 9.85782 10.1067 9.85782C8.23003 9.85782 6.69493 8.32272 6.69493 6.44602V6.44602ZM16.9296 18.7275H3.28313C2.90793 18.7275 2.60063 18.4202 2.60063 18.045C2.60063 14.2923 5.67083 11.2221 9.42353 11.2221H10.7878C14.5405 11.2221 17.6107 14.2923 17.6107 18.045C17.6121 18.4209 17.3048 18.7275 16.9296 18.7275Z" fill="white" fill-opacity="0.9"/>
</g>
</svg>
