<?xml version="1.0" encoding="UTF-8"?>
<svg width="14px" height="14px" viewBox="0 0 14 14" version="1.1" xmlns="http://www.w3.org/2000/svg" xmlns:xlink="http://www.w3.org/1999/xlink">
    <!-- Generator: Sketch 58 (84663) - https://sketch.com -->
    <title>gouxuan</title>
    <desc>Created with Sketch.</desc>
    <g id="知产百科" stroke="none" stroke-width="1" fill="none" fill-rule="evenodd">
        <g id="服务详情-2.2版本" transform="translate(-725.000000, -199.000000)" fill=" #f7b416" fill-rule="nonzero">
            <g id="编组-18" transform="translate(711.000000, 126.000000)">
                <g id="编组-6" transform="translate(0.000000, 34.000000)">
                    <g id="编组-13" transform="translate(14.000000, 37.000000)">
                        <g id="gouxuan" transform="translate(0.000000, 2.000000)">
                            <path d="M2.62358651,7.86096257 C2.62358651,10.7552891 4.96990173,13.1016043 7.86422822,13.1016043 C10.7585547,13.1016043 13.1048699,10.7552891 13.1048699,7.86096257 C13.1048699,4.96663607 10.7585547,2.62032086 7.86422822,2.62032086 C4.96990173,2.62032086 2.62358651,4.96663607 2.62358651,7.86096257 Z" id="路径" fill-opacity="0.15"></path>
                            <path d="M12.7930518,0 C9.07568989,2.35959893 6.37937973,5.33890374 5.16267742,6.83161319 L2.19123357,4.42179144 L0.876705934,5.5157754 L6.00642074,10.9180036 C6.88684854,8.5771836 9.68709809,4.00428698 13.1048699,0.75290553 L12.7930518,0" id="路径"></path>
                        </g>
                    </g>
                </g>
            </g>
        </g>
    </g>
</svg>