<svg width="73" height="72" viewBox="0 0 73 72" fill="none" xmlns="http://www.w3.org/2000/svg">
<g id="Group 427318303">
<rect id="Rectangle 100" x="0.342285" width="72" height="72" rx="24" fill="#E8F2FF"/>
<g id="Rectangle 108" filter="url(#filter0_b_379_30361)">
<rect x="39.2959" y="33.0566" width="19" height="20" rx="4" fill="#4395FF"/>
</g>
<g id="Group 123">
<g id="Subtract" filter="url(#filter1_b_379_30361)">
<mask id="path-3-inside-1_379_30361" fill="white">
<path fill-rule="evenodd" clip-rule="evenodd" d="M34.5326 20.4805C34.5326 20.4805 34.5325 20.4805 34.5325 20.4805C25.4142 20.4805 18.0225 27.8723 18.0225 36.9905C18.0225 46.1087 25.4142 53.5005 34.5325 53.5005C43.3472 53.5005 50.5485 46.5926 51.0181 37.895H34.5326V20.4805Z"/>
</mask>
<path fill-rule="evenodd" clip-rule="evenodd" d="M34.5326 20.4805C34.5326 20.4805 34.5325 20.4805 34.5325 20.4805C25.4142 20.4805 18.0225 27.8723 18.0225 36.9905C18.0225 46.1087 25.4142 53.5005 34.5325 53.5005C43.3472 53.5005 50.5485 46.5926 51.0181 37.895H34.5326V20.4805Z" fill="#2F9DEC" fill-opacity="0.4"/>
<path d="M34.5326 20.4805H35.1326V19.8805H34.5326V20.4805ZM51.0181 37.895L51.6173 37.9273L51.6514 37.295H51.0181V37.895ZM34.5326 37.895H33.9326V38.495H34.5326V37.895ZM34.5325 21.0805C34.5325 21.0805 34.5325 21.0805 34.5325 21.0805C34.5326 21.0805 34.5326 21.0805 34.5326 21.0805V19.8805C34.5326 19.8805 34.5326 19.8805 34.5326 19.8805C34.5325 19.8805 34.5325 19.8805 34.5325 19.8805V21.0805ZM18.6225 36.9905C18.6225 28.2036 25.7456 21.0805 34.5325 21.0805V19.8805C25.0829 19.8805 17.4225 27.5409 17.4225 36.9905H18.6225ZM34.5325 52.9005C25.7456 52.9005 18.6225 45.7773 18.6225 36.9905H17.4225C17.4225 46.4401 25.0829 54.1005 34.5325 54.1005V52.9005ZM50.419 37.8626C49.9665 46.2436 43.0267 52.9005 34.5325 52.9005V54.1005C43.6678 54.1005 51.1306 46.9415 51.6173 37.9273L50.419 37.8626ZM51.0181 37.295H34.5326V38.495H51.0181V37.295ZM35.1326 37.895V20.4805H33.9326V37.895H35.1326Z" fill="url(#paint0_linear_379_30361)" mask="url(#path-3-inside-1_379_30361)"/>
</g>
<g id="Subtract_2" filter="url(#filter2_b_379_30361)">
<mask id="path-5-inside-2_379_30361" fill="white">
<path fill-rule="evenodd" clip-rule="evenodd" d="M52.8277 35.9147H36.3423V18.5C45.4604 18.5001 52.852 25.8919 52.852 35.01C52.852 35.3135 52.8438 35.6152 52.8277 35.9147Z"/>
</mask>
<path fill-rule="evenodd" clip-rule="evenodd" d="M52.8277 35.9147H36.3423V18.5C45.4604 18.5001 52.852 25.8919 52.852 35.01C52.852 35.3135 52.8438 35.6152 52.8277 35.9147Z" fill="#2F9DEC" fill-opacity="0.4"/>
<path d="M52.8277 35.9147V36.5147H53.3961L53.4268 35.947L52.8277 35.9147ZM36.3423 35.9147H35.7423V36.5147H36.3423V35.9147ZM36.3423 18.5L36.3423 17.9L35.7423 17.9V18.5H36.3423ZM52.8277 35.3147H36.3423V36.5147H52.8277V35.3147ZM36.9423 35.9147V18.5H35.7423V35.9147H36.9423ZM36.3423 19.1C45.129 19.1001 52.252 26.2232 52.252 35.01H53.452C53.452 25.5605 45.7918 17.9002 36.3423 17.9L36.3423 19.1ZM52.252 35.01C52.252 35.3027 52.2441 35.5936 52.2285 35.8823L53.4268 35.947C53.4435 35.6367 53.452 35.3243 53.452 35.01H52.252Z" fill="url(#paint1_linear_379_30361)" mask="url(#path-5-inside-2_379_30361)"/>
</g>
<g id="Rectangle 111" filter="url(#filter3_d_379_30361)">
<rect x="33.6406" y="42.3335" width="6.24138" height="5.47795" rx="2.73898" transform="rotate(128.526 33.6406 42.3335)" fill="url(#paint2_linear_379_30361)" shape-rendering="crispEdges"/>
</g>
</g>
</g>
<defs>
<filter id="filter0_b_379_30361" x="35.2959" y="29.0566" width="27" height="28" filterUnits="userSpaceOnUse" color-interpolation-filters="sRGB">
<feFlood flood-opacity="0" result="BackgroundImageFix"/>
<feGaussianBlur in="BackgroundImageFix" stdDeviation="2"/>
<feComposite in2="SourceAlpha" operator="in" result="effect1_backgroundBlur_379_30361"/>
<feBlend mode="normal" in="SourceGraphic" in2="effect1_backgroundBlur_379_30361" result="shape"/>
</filter>
<filter id="filter1_b_379_30361" x="14.0225" y="16.4805" width="40.9956" height="41.02" filterUnits="userSpaceOnUse" color-interpolation-filters="sRGB">
<feFlood flood-opacity="0" result="BackgroundImageFix"/>
<feGaussianBlur in="BackgroundImageFix" stdDeviation="2"/>
<feComposite in2="SourceAlpha" operator="in" result="effect1_backgroundBlur_379_30361"/>
<feBlend mode="normal" in="SourceGraphic" in2="effect1_backgroundBlur_379_30361" result="shape"/>
</filter>
<filter id="filter2_b_379_30361" x="32.3423" y="14.5" width="24.5098" height="25.4146" filterUnits="userSpaceOnUse" color-interpolation-filters="sRGB">
<feFlood flood-opacity="0" result="BackgroundImageFix"/>
<feGaussianBlur in="BackgroundImageFix" stdDeviation="2"/>
<feComposite in2="SourceAlpha" operator="in" result="effect1_backgroundBlur_379_30361"/>
<feBlend mode="normal" in="SourceGraphic" in2="effect1_backgroundBlur_379_30361" result="shape"/>
</filter>
<filter id="filter3_d_379_30361" x="24.5771" y="40.0312" width="9.95361" height="10.0752" filterUnits="userSpaceOnUse" color-interpolation-filters="sRGB">
<feFlood flood-opacity="0" result="BackgroundImageFix"/>
<feColorMatrix in="SourceAlpha" type="matrix" values="0 0 0 0 0 0 0 0 0 0 0 0 0 0 0 0 0 0 127 0" result="hardAlpha"/>
<feOffset dy="2"/>
<feGaussianBlur stdDeviation="1"/>
<feComposite in2="hardAlpha" operator="out"/>
<feColorMatrix type="matrix" values="0 0 0 0 0.262745 0 0 0 0 0.584314 0 0 0 0 1 0 0 0 0.3 0"/>
<feBlend mode="normal" in2="BackgroundImageFix" result="effect1_dropShadow_379_30361"/>
<feBlend mode="normal" in="SourceGraphic" in2="effect1_dropShadow_379_30361" result="shape"/>
</filter>
<linearGradient id="paint0_linear_379_30361" x1="34.5203" y1="20.4805" x2="34.5203" y2="53.5005" gradientUnits="userSpaceOnUse">
<stop stop-color="white"/>
<stop offset="1" stop-color="white" stop-opacity="0.24"/>
</linearGradient>
<linearGradient id="paint1_linear_379_30361" x1="44.5972" y1="18.5" x2="44.5972" y2="35.9147" gradientUnits="userSpaceOnUse">
<stop stop-color="white"/>
<stop offset="1" stop-color="white" stop-opacity="0.24"/>
</linearGradient>
<linearGradient id="paint2_linear_379_30361" x1="36.7613" y1="40.266" x2="36.7613" y2="49.3915" gradientUnits="userSpaceOnUse">
<stop stop-color="white"/>
<stop offset="1" stop-color="white" stop-opacity="0.23"/>
</linearGradient>
</defs>
</svg>
