<svg width="73" height="72" viewBox="0 0 73 72" fill="none" xmlns="http://www.w3.org/2000/svg">
<g id="Group 427318302">
<rect id="Rectangle 100" x="0.75" width="72" height="72" rx="24" fill="#E6FBE7"/>
<g id="Group 115">
<g id="Rectangle 108" filter="url(#filter0_b_379_30344)">
<rect x="35.4624" y="25.1357" width="20" height="25" rx="4" fill="#64B553"/>
</g>
<g id="Group 124">
<rect id="Rectangle 405" x="26.4624" y="17.5" width="3" height="6.30469" rx="1" fill="url(#paint0_linear_379_30344)"/>
<rect id="Rectangle 406" x="37.4624" y="17.5" width="3" height="6.30469" rx="1" fill="url(#paint1_linear_379_30344)"/>
<g id="Rectangle 109" filter="url(#filter1_bd_379_30344)">
<rect x="18.0376" y="20.5361" width="29.5996" height="29.5996" rx="4" fill="#64B553" fill-opacity="0.4" shape-rendering="crispEdges"/>
<rect x="18.3376" y="20.8361" width="28.9996" height="28.9996" rx="3.7" stroke="url(#paint2_linear_379_30344)" stroke-width="0.6" shape-rendering="crispEdges"/>
</g>
<path id="Union" fill-rule="evenodd" clip-rule="evenodd" d="M26.7788 28.8711C26.2265 28.8711 25.7788 29.3188 25.7788 29.8711V32.2387C25.7788 32.791 26.2265 33.2387 26.7788 33.2387H29.1465C29.6987 33.2387 30.1465 32.791 30.1465 32.2387V29.8711C30.1465 29.3188 29.6987 28.8711 29.1465 28.8711H26.7788ZM37.0947 37.4097C36.5424 37.4097 36.0947 37.8574 36.0947 38.4097V40.7773C36.0947 41.3296 36.5424 41.7773 37.0947 41.7773H39.4624C40.0147 41.7773 40.4624 41.3296 40.4624 40.7773V38.4097C40.4624 37.8574 40.0147 37.4097 39.4624 37.4097H37.0947Z" fill="url(#paint3_linear_379_30344)"/>
</g>
</g>
</g>
<defs>
<filter id="filter0_b_379_30344" x="31.4624" y="21.1357" width="28" height="33" filterUnits="userSpaceOnUse" color-interpolation-filters="sRGB">
<feFlood flood-opacity="0" result="BackgroundImageFix"/>
<feGaussianBlur in="BackgroundImageFix" stdDeviation="2"/>
<feComposite in2="SourceAlpha" operator="in" result="effect1_backgroundBlur_379_30344"/>
<feBlend mode="normal" in="SourceGraphic" in2="effect1_backgroundBlur_379_30344" result="shape"/>
</filter>
<filter id="filter1_bd_379_30344" x="14.0376" y="16.5361" width="37.5996" height="37.5996" filterUnits="userSpaceOnUse" color-interpolation-filters="sRGB">
<feFlood flood-opacity="0" result="BackgroundImageFix"/>
<feGaussianBlur in="BackgroundImageFix" stdDeviation="2"/>
<feComposite in2="SourceAlpha" operator="in" result="effect1_backgroundBlur_379_30344"/>
<feColorMatrix in="SourceAlpha" type="matrix" values="0 0 0 0 0 0 0 0 0 0 0 0 0 0 0 0 0 0 127 0" result="hardAlpha"/>
<feOffset dy="2"/>
<feGaussianBlur stdDeviation="1"/>
<feComposite in2="hardAlpha" operator="out"/>
<feColorMatrix type="matrix" values="0 0 0 0 0.392157 0 0 0 0 0.709804 0 0 0 0 0.32549 0 0 0 0.25 0"/>
<feBlend mode="normal" in2="effect1_backgroundBlur_379_30344" result="effect2_dropShadow_379_30344"/>
<feBlend mode="normal" in="SourceGraphic" in2="effect2_dropShadow_379_30344" result="shape"/>
</filter>
<linearGradient id="paint0_linear_379_30344" x1="27.9624" y1="17.5" x2="27.9624" y2="23.8047" gradientUnits="userSpaceOnUse">
<stop stop-color="#64B553"/>
<stop offset="1" stop-color="#64B553" stop-opacity="0"/>
</linearGradient>
<linearGradient id="paint1_linear_379_30344" x1="38.9624" y1="17.5" x2="38.9624" y2="23.8047" gradientUnits="userSpaceOnUse">
<stop stop-color="#64B553"/>
<stop offset="1" stop-color="#64B553" stop-opacity="0"/>
</linearGradient>
<linearGradient id="paint2_linear_379_30344" x1="18.7739" y1="17.7847" x2="39.3289" y2="52.433" gradientUnits="userSpaceOnUse">
<stop stop-color="#FAFFF9"/>
<stop offset="1" stop-color="#FAFFF9" stop-opacity="0.25"/>
</linearGradient>
<linearGradient id="paint3_linear_379_30344" x1="32.1884" y1="32.5444" x2="32.1884" y2="43.0576" gradientUnits="userSpaceOnUse">
<stop stop-color="white"/>
<stop offset="1" stop-color="white" stop-opacity="0"/>
</linearGradient>
</defs>
</svg>
