<svg width="72" height="72" viewBox="0 0 72 72" fill="none" xmlns="http://www.w3.org/2000/svg">
<g id="Group 427318301">
<rect id="Rectangle 100" width="72" height="72" rx="24" fill="#FFF3FA"/>
<g id="Group 115">
<circle id="Ellipse 26" cx="42.0898" cy="40.3399" r="14.6601" fill="#F280BD"/>
<g id="Vector" filter="url(#filter0_bd_387_29354)">
<path d="M46.7529 28.0145C45.8096 26.9648 44.7841 25.9921 43.6862 25.1055V25.1055C43.51 24.9615 43.5513 24.6777 43.7569 24.5802C45.4337 23.7854 46.5684 22.2149 46.5684 20.3839C46.5684 17.6895 44.1537 15.6272 41.2882 15.6272C40.6672 15.6257 40.0519 15.7448 39.4763 15.9778C39.2745 16.0589 39.0805 16.1565 38.8952 16.2706C38.8841 16.2775 38.8726 16.2839 38.8601 16.2876C38.7541 16.3191 38.5624 16.2704 38.5062 16.1986C38.5057 16.198 38.5049 16.1981 38.5045 16.1986V16.1986C38.5041 16.1993 38.5032 16.1992 38.5028 16.1986C38.2152 15.7493 37.8696 15.3399 37.475 14.9809C36.5632 14.1426 35.4853 13.6233 34.2512 13.6233C33.018 13.6233 31.9384 14.141 31.0275 14.9818C30.6413 15.3335 30.3025 15.7339 30.0195 16.173C30.0192 16.1736 30.0184 16.1736 30.018 16.1732V16.1732C30.0176 16.1728 30.0169 16.1728 30.0165 16.1732C29.9325 16.2762 29.7181 16.3301 29.644 16.2918C29.4474 16.1694 29.2403 16.0646 29.0253 15.9787C28.4496 15.7459 27.8344 15.6266 27.2134 15.6272C24.3479 15.6272 21.9357 17.6895 21.9357 20.3839C21.9357 21.8925 22.7089 23.2228 23.9179 24.0894C24.1504 24.256 24.174 24.6057 23.9505 24.7841V24.7841C22.8496 25.6546 21.8258 26.6183 20.8904 27.6646C18.0582 30.8399 16.3374 34.472 16.3374 38.5039C16.3374 49.6839 24.1968 55 33.6643 55C37.6319 55 41.5103 54.1609 44.6489 52.1812C48.9088 49.4919 51.331 44.9756 51.331 38.5048C51.331 34.7124 49.5993 31.1931 46.7529 28.0145Z" fill="#F280BD" fill-opacity="0.4" shape-rendering="crispEdges"/>
<path d="M23.9505 24.7841L24.1365 25.0194C23.0493 25.8791 22.0381 26.831 21.1142 27.8644C18.3176 30.9999 16.6374 34.5637 16.6374 38.5039C16.6374 44.018 18.5724 48.0551 21.6469 50.7177C24.7278 53.3859 28.9836 54.7 33.6643 54.7C37.5931 54.7 41.4112 53.8687 44.4887 51.9276L23.9505 24.7841ZM23.9505 24.7841C24.174 24.6057 24.1504 24.256 23.9179 24.0894C22.7089 23.2228 21.9357 21.8925 21.9357 20.3839C21.9357 17.6895 24.3479 15.6272 27.2134 15.6272C27.8344 15.6266 28.4496 15.7459 29.0253 15.9787L33.6643 55C24.1968 55 16.3374 49.6839 16.3374 38.5039C16.3374 34.472 18.0582 30.8399 20.8904 27.6646C21.8258 26.6183 22.8496 25.6546 23.9505 24.7841ZM23.9505 24.7841L24.1376 25.0186C24.531 24.7046 24.4717 24.1172 24.0927 23.8455C22.9525 23.0282 22.2357 21.7843 22.2357 20.3839C22.2357 17.8881 24.4787 15.9272 27.2134 15.9272L27.2137 15.9272C27.796 15.9266 28.373 16.0386 28.9128 16.2568L28.914 16.2573C29.1126 16.3366 29.3038 16.4334 29.4854 16.5465L29.4956 16.5528L29.5062 16.5583C29.5927 16.603 29.6815 16.6058 29.7336 16.6037C29.7942 16.6012 29.8551 16.5898 29.9111 16.5733C30.001 16.5469 30.1203 16.495 30.213 16.4026C30.2352 16.3838 30.255 16.3614 30.2717 16.3355C30.5406 15.9183 30.8625 15.5378 31.2295 15.2036L31.231 15.2022C32.0992 14.4008 33.1091 13.9233 34.2512 13.9233C35.3939 13.9233 36.4023 14.4023 37.2719 15.2018L37.2731 15.2028C37.6482 15.5441 37.9767 15.9332 38.2501 16.3603C38.2696 16.3908 38.2933 16.4163 38.3198 16.4368C38.3589 16.4722 38.4001 16.497 38.433 16.5139C38.4842 16.5403 38.5388 16.5595 38.591 16.5727C38.6857 16.5966 38.8202 16.6124 38.9456 16.5752C38.9981 16.5596 39.0375 16.5353 39.0524 16.5261L39.0525 16.5261C39.2232 16.421 39.4019 16.331 39.5881 16.2562L39.5889 16.2559C40.1285 16.0375 40.7054 15.9258 41.2875 15.9272H41.2882C44.0231 15.9272 46.2684 17.8882 46.2684 20.3839C46.2684 22.0824 45.2163 23.5565 43.6284 24.3091C43.2349 24.4956 43.1401 25.0467 43.4963 25.3378L43.6862 25.1055M23.9505 24.7841L38.3355 15.9509M38.3353 15.9506C38.0841 15.5978 37.7958 15.2727 37.475 14.9809C36.5632 14.1426 35.4853 13.6233 34.2512 13.6233C33.018 13.6233 31.9384 14.141 31.0275 14.9818L38.3353 15.9506ZM38.3353 15.9506C38.3047 15.9715 38.2772 15.9987 38.2548 16.0323C38.2768 15.9994 38.3043 15.9721 38.3355 15.9509M38.3353 15.9506L38.3355 15.9509M38.3355 15.9509C38.3928 16.0314 38.4482 16.1134 38.5015 16.1967C38.5019 16.1973 38.5024 16.198 38.5028 16.1986C38.5032 16.1992 38.5041 16.1993 38.5045 16.1986C38.5049 16.1981 38.5057 16.198 38.5062 16.1986C38.5068 16.1994 38.5075 16.2003 38.5082 16.2011C38.5265 16.223 38.5573 16.2427 38.5943 16.2584C38.6761 16.2933 38.788 16.3091 38.8601 16.2876C38.8726 16.2839 38.8841 16.2775 38.8952 16.2706C39.0805 16.1565 39.2745 16.0589 39.4763 15.9778C40.0519 15.7448 40.6672 15.6257 41.2882 15.6272C44.1537 15.6272 46.5684 17.6895 46.5684 20.3839C46.5684 22.2149 45.4337 23.7854 43.7569 24.5802C43.5513 24.6777 43.51 24.9615 43.6862 25.1055M43.6862 25.1055L43.4977 25.3389M43.6862 25.1055L43.4977 25.3389M43.4977 25.3389C44.5831 26.2154 45.5969 27.177 46.5294 28.2146L43.4977 25.3389ZM30.1877 15.9257C30.1877 15.9257 30.1877 15.9257 30.1877 15.9257C30.2027 15.936 30.2169 15.9478 30.2302 15.9611C30.2169 15.9478 30.2026 15.936 30.1877 15.9257ZM46.5298 28.215C49.3445 31.3584 51.031 34.8094 51.031 38.5048C51.031 44.8915 48.6468 49.3024 44.4888 51.9275L46.5298 28.215Z" stroke="url(#paint0_linear_387_29354)" stroke-width="0.6" shape-rendering="crispEdges"/>
</g>
<g id="Union" filter="url(#filter1_d_387_29354)">
<path fill-rule="evenodd" clip-rule="evenodd" d="M38.9622 30.3067C38.5623 29.9068 37.9171 29.8967 37.5049 30.2839L34.2728 33.3197L31.2006 30.3137C30.7902 29.9122 30.1332 29.9158 29.7273 30.3218C29.315 30.734 29.3187 31.4035 29.7354 31.8112L32.3243 34.3444H30.026C29.4475 34.3444 28.9784 34.8134 28.9784 35.392C28.9784 35.9705 29.4475 36.4395 30.026 36.4395H33.1112V38.4771H28.6484C28.0699 38.4771 27.6008 38.9462 27.6008 39.5247C27.6008 40.1033 28.0699 40.5723 28.6484 40.5723H33.1112V44.7743C33.1112 45.3529 33.5803 45.8219 34.1588 45.8219C34.7374 45.8219 35.2064 45.3529 35.2064 44.7743V40.5723H39.7268C40.3054 40.5723 40.7744 40.1033 40.7744 39.5247C40.7744 38.9462 40.3054 38.4771 39.7268 38.4771H35.2064V36.4395H38.3492C38.9278 36.4395 39.3968 35.9705 39.3968 35.392C39.3968 34.8134 38.9278 34.3444 38.3492 34.3444H36.2407L38.9387 31.8103C39.3695 31.4056 39.3802 30.7247 38.9622 30.3067Z" fill="url(#paint1_linear_387_29354)" shape-rendering="crispEdges"/>
</g>
</g>
</g>
<defs>
<filter id="filter0_bd_387_29354" x="12.3374" y="9.62329" width="42.9937" height="49.3767" filterUnits="userSpaceOnUse" color-interpolation-filters="sRGB">
<feFlood flood-opacity="0" result="BackgroundImageFix"/>
<feGaussianBlur in="BackgroundImageFix" stdDeviation="2"/>
<feComposite in2="SourceAlpha" operator="in" result="effect1_backgroundBlur_387_29354"/>
<feColorMatrix in="SourceAlpha" type="matrix" values="0 0 0 0 0 0 0 0 0 0 0 0 0 0 0 0 0 0 127 0" result="hardAlpha"/>
<feOffset dy="2"/>
<feGaussianBlur stdDeviation="1"/>
<feComposite in2="hardAlpha" operator="out"/>
<feColorMatrix type="matrix" values="0 0 0 0 0.94902 0 0 0 0 0.501961 0 0 0 0 0.741176 0 0 0 0.25 0"/>
<feBlend mode="normal" in2="effect1_backgroundBlur_387_29354" result="effect2_dropShadow_387_29354"/>
<feBlend mode="normal" in="SourceGraphic" in2="effect2_dropShadow_387_29354" result="shape"/>
</filter>
<filter id="filter1_d_387_29354" x="25.6008" y="30" width="17.1736" height="19.8219" filterUnits="userSpaceOnUse" color-interpolation-filters="sRGB">
<feFlood flood-opacity="0" result="BackgroundImageFix"/>
<feColorMatrix in="SourceAlpha" type="matrix" values="0 0 0 0 0 0 0 0 0 0 0 0 0 0 0 0 0 0 127 0" result="hardAlpha"/>
<feOffset dy="2"/>
<feGaussianBlur stdDeviation="1"/>
<feComposite in2="hardAlpha" operator="out"/>
<feColorMatrix type="matrix" values="0 0 0 0 0.94902 0 0 0 0 0.501961 0 0 0 0 0.741176 0 0 0 0.28 0"/>
<feBlend mode="normal" in2="BackgroundImageFix" result="effect1_dropShadow_387_29354"/>
<feBlend mode="normal" in="SourceGraphic" in2="effect1_dropShadow_387_29354" result="shape"/>
</filter>
<linearGradient id="paint0_linear_387_29354" x1="22.625" y1="19.625" x2="48.125" y2="48.25" gradientUnits="userSpaceOnUse">
<stop stop-color="#FDE8F3"/>
<stop offset="1" stop-color="#FDE8F3" stop-opacity="0.19"/>
</linearGradient>
<linearGradient id="paint1_linear_387_29354" x1="33.1112" y1="30" x2="33.1112" y2="45.822" gradientUnits="userSpaceOnUse">
<stop stop-color="white"/>
<stop offset="1" stop-color="white" stop-opacity="0.49"/>
</linearGradient>
</defs>
</svg>
