<svg width="72" height="72" viewBox="0 0 72 72" fill="none" xmlns="http://www.w3.org/2000/svg">
<g id="Group 427318301">
<rect id="Rectangle 100" width="72" height="72" rx="24" fill="#FAF0E7"/>
<g id="Group 427318408">
<g id="Group 115">
<rect id="Rectangle 145" x="35.5989" y="28.6363" width="20" height="25" rx="4" fill="#EC772F"/>
</g>
<g id="Union" filter="url(#filter0_bd_390_35745)">
<mask id="path-3-inside-1_390_35745" fill="white">
<path fill-rule="evenodd" clip-rule="evenodd" d="M40.832 35.6426C42.3151 33.8195 43.2042 31.4938 43.2042 28.9605C43.2042 23.1083 38.4601 18.3643 32.608 18.3643C26.7559 18.3643 22.0118 23.1083 22.0118 28.9605C22.0118 31.4939 22.9008 33.8196 24.384 35.6427C19.4476 38.4903 16.125 43.8225 16.125 49.9308C16.125 51.2049 16.2696 52.4452 16.5432 53.6362H48.6731C48.9467 52.4452 49.0912 51.2049 49.0912 49.9308C49.0912 43.8224 45.7686 38.4901 40.832 35.6426Z"/>
</mask>
<path fill-rule="evenodd" clip-rule="evenodd" d="M40.832 35.6426C42.3151 33.8195 43.2042 31.4938 43.2042 28.9605C43.2042 23.1083 38.4601 18.3643 32.608 18.3643C26.7559 18.3643 22.0118 23.1083 22.0118 28.9605C22.0118 31.4939 22.9008 33.8196 24.384 35.6427C19.4476 38.4903 16.125 43.8225 16.125 49.9308C16.125 51.2049 16.2696 52.4452 16.5432 53.6362H48.6731C48.9467 52.4452 49.0912 51.2049 49.0912 49.9308C49.0912 43.8224 45.7686 38.4901 40.832 35.6426Z" fill="#EC772F" fill-opacity="0.4" shape-rendering="crispEdges"/>
<path d="M40.832 35.6426L40.0563 35.0115L39.3154 35.9222L40.3324 36.5088L40.832 35.6426ZM24.384 35.6427L24.8837 36.5089L25.9006 35.9223L25.1597 35.0116L24.384 35.6427ZM16.5432 53.6362L15.5685 53.8601L15.7468 54.6362H16.5432V53.6362ZM48.6731 53.6362V54.6362H49.4694L49.6477 53.8601L48.6731 53.6362ZM42.2042 28.9604C42.2042 31.2556 41.3996 33.3602 40.0563 35.0115L41.6078 36.2737C43.2306 34.2788 44.2042 31.7319 44.2042 28.9604H42.2042ZM32.608 19.3642C37.9078 19.3642 42.2042 23.6606 42.2042 28.9604H44.2042C44.2042 22.556 39.0124 17.3642 32.608 17.3642V19.3642ZM23.0118 28.9604C23.0118 23.6606 27.3081 19.3642 32.608 19.3642V17.3642C26.2036 17.3642 21.0118 22.556 21.0118 28.9604H23.0118ZM25.1597 35.0116C23.8163 33.3603 23.0118 31.2557 23.0118 28.9604H21.0118C21.0118 31.732 21.9854 34.2789 23.6083 36.2738L25.1597 35.0116ZM23.8843 34.7765C18.651 37.7953 15.125 43.4506 15.125 49.9308H17.125C17.125 44.1943 20.2441 39.1852 24.8837 36.5089L23.8843 34.7765ZM15.125 49.9308C15.125 51.2807 15.2782 52.5961 15.5685 53.8601L17.5178 53.4123C17.2609 52.2942 17.125 51.129 17.125 49.9308H15.125ZM16.5432 54.6362H48.6731V52.6362H16.5432V54.6362ZM49.6477 53.8601C49.938 52.5961 50.0912 51.2807 50.0912 49.9308H48.0912C48.0912 51.129 47.9553 52.2942 47.6985 53.4123L49.6477 53.8601ZM50.0912 49.9308C50.0912 43.4506 46.5651 37.7951 41.3317 34.7764L40.3324 36.5088C44.972 39.1851 48.0912 44.1942 48.0912 49.9308H50.0912Z" fill="url(#paint0_linear_390_35745)" mask="url(#path-3-inside-1_390_35745)"/>
</g>
<g id="Union_2" filter="url(#filter1_d_390_35745)">
<path fill-rule="evenodd" clip-rule="evenodd" d="M40.0129 43.378C40.6601 43.378 41.1848 43.9027 41.1848 44.5499C41.1848 45.1972 40.6601 45.7218 40.0129 45.7218H35.8095C35.1623 45.7218 34.6376 45.1972 34.6376 44.5499C34.6376 43.9027 35.1623 43.378 35.8095 43.378H40.0129ZM40.0129 47.643C40.6601 47.643 41.1848 48.1677 41.1848 48.8149C41.1848 49.4621 40.6601 49.9868 40.0129 49.9868H31.5096C30.8623 49.9868 30.3376 49.4621 30.3376 48.8149C30.3376 48.1677 30.8623 47.643 31.5096 47.643H40.0129Z" fill="url(#paint1_linear_390_35745)" shape-rendering="crispEdges"/>
</g>
</g>
</g>
<defs>
<filter id="filter0_bd_390_35745" x="12.125" y="14.3643" width="40.9662" height="43.272" filterUnits="userSpaceOnUse" color-interpolation-filters="sRGB">
<feFlood flood-opacity="0" result="BackgroundImageFix"/>
<feGaussianBlur in="BackgroundImageFix" stdDeviation="2"/>
<feComposite in2="SourceAlpha" operator="in" result="effect1_backgroundBlur_390_35745"/>
<feColorMatrix in="SourceAlpha" type="matrix" values="0 0 0 0 0 0 0 0 0 0 0 0 0 0 0 0 0 0 127 0" result="hardAlpha"/>
<feOffset dy="2"/>
<feGaussianBlur stdDeviation="1"/>
<feComposite in2="hardAlpha" operator="out"/>
<feColorMatrix type="matrix" values="0 0 0 0 0.92549 0 0 0 0 0.466667 0 0 0 0 0.184314 0 0 0 0.23 0"/>
<feBlend mode="normal" in2="effect1_backgroundBlur_390_35745" result="effect2_dropShadow_390_35745"/>
<feBlend mode="normal" in="SourceGraphic" in2="effect2_dropShadow_390_35745" result="shape"/>
</filter>
<filter id="filter1_d_390_35745" x="28.3376" y="43.378" width="14.8472" height="10.6088" filterUnits="userSpaceOnUse" color-interpolation-filters="sRGB">
<feFlood flood-opacity="0" result="BackgroundImageFix"/>
<feColorMatrix in="SourceAlpha" type="matrix" values="0 0 0 0 0 0 0 0 0 0 0 0 0 0 0 0 0 0 127 0" result="hardAlpha"/>
<feOffset dy="2"/>
<feGaussianBlur stdDeviation="1"/>
<feComposite in2="hardAlpha" operator="out"/>
<feColorMatrix type="matrix" values="0 0 0 0 0.92549 0 0 0 0 0.466667 0 0 0 0 0.184314 0 0 0 1 0"/>
<feBlend mode="normal" in2="BackgroundImageFix" result="effect1_dropShadow_390_35745"/>
<feBlend mode="normal" in="SourceGraphic" in2="effect1_dropShadow_390_35745" result="shape"/>
</filter>
<linearGradient id="paint0_linear_390_35745" x1="21.1239" y1="24.1748" x2="46.8536" y2="51.9582" gradientUnits="userSpaceOnUse">
<stop stop-color="#FFEDE1"/>
<stop offset="1" stop-color="#FFEDE1" stop-opacity="0.22"/>
</linearGradient>
<linearGradient id="paint1_linear_390_35745" x1="35.7612" y1="43.378" x2="35.7612" y2="45.4677" gradientUnits="userSpaceOnUse">
<stop stop-color="white"/>
<stop offset="1" stop-color="white" stop-opacity="0.23"/>
</linearGradient>
</defs>
</svg>
