<svg width="72" height="72" viewBox="0 0 72 72" fill="none" xmlns="http://www.w3.org/2000/svg">
<g id="Group 427318301">
<rect id="Rectangle 100" width="72" height="72" rx="24" fill="#E5F6FA"/>
<g id="Group 427318410">
<g id="Rectangle 108" filter="url(#filter0_b_387_29333)">
<rect x="37.625" y="31.5625" width="19.125" height="21.3643" rx="4" fill="#49C3FB"/>
</g>
<g id="Vector 13" filter="url(#filter1_bd_387_29333)">
<path d="M16.3374 32.1248V48.9375C16.3374 51.1466 18.1283 52.9375 20.3374 52.9375H46.0874C48.2965 52.9375 50.0874 51.1548 50.0874 48.9457V26.8582C50.0874 25.7157 49.5988 24.6282 48.7449 23.8691L43.909 19.5706C43.5716 19.2707 43.0751 19.234 42.6974 19.481L31.0027 27.1275C30.6132 27.3822 30.0995 27.3345 29.7635 27.0125L25.077 22.5213C24.6714 22.1326 24.0254 22.1542 23.6466 22.5689L17.3836 29.4275C16.7106 30.1646 16.3374 31.1267 16.3374 32.1248Z" fill="#49C3FB" fill-opacity="0.4" shape-rendering="crispEdges"/>
<path d="M16.6374 48.9375V32.1248C16.6374 31.2015 16.9826 30.3116 17.6052 29.6298L23.8682 22.7712C24.1333 22.4809 24.5855 22.4658 24.8694 22.7379L29.556 27.2291C29.9927 27.6477 30.6605 27.7097 31.1669 27.3786L42.8615 19.7321C43.126 19.5592 43.4735 19.5849 43.7097 19.7948L43.909 19.5706L43.7097 19.7948L48.5455 24.0933C49.3355 24.7955 49.7874 25.8014 49.7874 26.8582V48.9457C49.7874 50.9883 48.1317 52.6375 46.0874 52.6375H20.3374C18.2939 52.6375 16.6374 50.981 16.6374 48.9375Z" stroke="url(#paint0_linear_387_29333)" stroke-width="0.6" shape-rendering="crispEdges"/>
</g>
<g id="av" filter="url(#filter2_d_387_29333)">
<path d="M36.6318 43.2349V39.3771C36.6318 39.088 36.5795 38.8388 36.4748 38.6294C36.3701 38.4201 36.2106 38.2581 35.9963 38.1435C35.787 38.0288 35.5228 37.9715 35.2038 37.9715C34.9097 37.9715 34.6556 38.0214 34.4412 38.121C34.2269 38.2207 34.0599 38.3553 33.9403 38.5248V38.5248C33.7451 38.8013 33.4864 39.1004 33.1479 39.1004H32.8637C32.3682 39.1004 31.9538 38.6808 32.1681 38.234C32.1778 38.2138 32.1879 38.1935 32.1983 38.1734C32.3528 37.8743 32.5771 37.6077 32.8712 37.3734C33.1653 37.1391 33.5166 36.9547 33.9254 36.8201C34.3341 36.6856 34.7926 36.6183 35.301 36.6183C35.9091 36.6183 36.4474 36.7205 36.9159 36.9248C37.3894 37.1292 37.7607 37.4382 38.0299 37.8519C38.304 38.2606 38.4411 38.774 38.4411 39.392V42.9882C38.4411 43.357 38.466 43.6885 38.5159 43.9825C38.569 44.2628 38.6433 44.508 38.7386 44.718C38.7445 44.731 38.7476 44.745 38.7476 44.7593V44.7593C38.7476 44.8134 38.7038 44.8573 38.6497 44.8573H37.5559C37.1582 44.8573 36.7934 44.6202 36.7191 44.2294C36.7122 44.1928 36.7055 44.1554 36.6991 44.1171C36.6542 43.8131 36.6318 43.519 36.6318 43.2349ZM36.3439 39.9378C36.6486 39.9378 36.8968 40.1826 36.9009 40.4873V40.4873C36.905 40.7978 36.6545 41.0518 36.3439 41.0518H35.615C35.2811 41.0518 34.987 41.0842 34.7328 41.149C34.4786 41.2088 34.2668 41.2985 34.0973 41.4181C33.9279 41.5378 33.8008 41.6823 33.716 41.8518C33.6313 42.0212 33.5889 42.2131 33.5889 42.4274C33.5889 42.6418 33.6388 42.8386 33.7384 43.0181C33.8381 43.1925 33.9827 43.3296 34.1721 43.4293C34.3665 43.529 34.6007 43.5788 34.8749 43.5788C35.2437 43.5788 35.5652 43.504 35.8393 43.3545C36.1184 43.2 36.3377 43.0131 36.4972 42.7938V42.7938C36.6313 42.6053 37.0238 42.532 37.1601 42.7188L37.2481 42.8397C37.3027 42.9145 37.3205 43.0107 37.2882 43.0974C37.227 43.2613 37.1403 43.4343 37.0281 43.6162C36.8835 43.8505 36.6941 44.0747 36.4599 44.2891C36.2306 44.4984 35.954 44.6704 35.63 44.8049C35.311 44.9395 34.9421 45.0068 34.5235 45.0068C33.9951 45.0068 33.5241 44.9021 33.1104 44.6928C32.6967 44.4785 32.3728 44.1919 32.1385 43.833C31.9042 43.4692 31.7871 43.058 31.7871 42.5994C31.7871 42.1708 31.8669 41.792 32.0264 41.463C32.1908 41.129 32.4301 40.8499 32.7441 40.6256C33.0631 40.4013 33.4519 40.2319 33.9104 40.1172C34.369 39.9976 34.8923 39.9378 35.4804 39.9378H36.3439Z" fill="url(#paint1_linear_387_29333)" shape-rendering="crispEdges"/>
<path d="M42.8283 43.5294C42.8342 43.4628 42.8468 43.397 42.8659 43.333L44.6338 37.3887C44.7433 37.0204 45.082 36.7678 45.4663 36.7678V36.7678C46.0637 36.7678 46.4828 37.3571 46.2867 37.9214L44.1099 44.1855C43.9701 44.5877 43.591 44.8573 43.1653 44.8573H43.0118V44.8573C42.8497 44.8573 42.7225 44.7183 42.7369 44.5568L42.8283 43.5294ZM40.6716 36.7678C41.0563 36.7678 41.3955 37.0198 41.5066 37.3881L43.3057 43.3517C43.3273 43.4231 43.3407 43.4968 43.3459 43.5712L43.4116 44.5166C43.4245 44.7008 43.2785 44.8573 43.0938 44.8573V44.8573H42.9789C42.5538 44.8573 42.1751 44.5884 42.0349 44.1871L39.8482 37.9277C39.6501 37.3607 40.071 36.7678 40.6716 36.7678V36.7678Z" fill="url(#paint2_linear_387_29333)" shape-rendering="crispEdges"/>
</g>
</g>
</g>
<defs>
<filter id="filter0_b_387_29333" x="33.625" y="27.5625" width="27.125" height="29.3643" filterUnits="userSpaceOnUse" color-interpolation-filters="sRGB">
<feFlood flood-opacity="0" result="BackgroundImageFix"/>
<feGaussianBlur in="BackgroundImageFix" stdDeviation="2"/>
<feComposite in2="SourceAlpha" operator="in" result="effect1_backgroundBlur_387_29333"/>
<feBlend mode="normal" in="SourceGraphic" in2="effect1_backgroundBlur_387_29333" result="shape"/>
</filter>
<filter id="filter1_bd_387_29333" x="12.3374" y="15.3179" width="41.75" height="41.6196" filterUnits="userSpaceOnUse" color-interpolation-filters="sRGB">
<feFlood flood-opacity="0" result="BackgroundImageFix"/>
<feGaussianBlur in="BackgroundImageFix" stdDeviation="2"/>
<feComposite in2="SourceAlpha" operator="in" result="effect1_backgroundBlur_387_29333"/>
<feColorMatrix in="SourceAlpha" type="matrix" values="0 0 0 0 0 0 0 0 0 0 0 0 0 0 0 0 0 0 127 0" result="hardAlpha"/>
<feOffset dy="2"/>
<feGaussianBlur stdDeviation="1"/>
<feComposite in2="hardAlpha" operator="out"/>
<feColorMatrix type="matrix" values="0 0 0 0 0.286275 0 0 0 0 0.764706 0 0 0 0 0.984314 0 0 0 0.25 0"/>
<feBlend mode="normal" in2="effect1_backgroundBlur_387_29333" result="effect2_dropShadow_387_29333"/>
<feBlend mode="normal" in="SourceGraphic" in2="effect2_dropShadow_387_29333" result="shape"/>
</filter>
<filter id="filter2_d_387_29333" x="29.7871" y="36.6183" width="18.5483" height="12.3885" filterUnits="userSpaceOnUse" color-interpolation-filters="sRGB">
<feFlood flood-opacity="0" result="BackgroundImageFix"/>
<feColorMatrix in="SourceAlpha" type="matrix" values="0 0 0 0 0 0 0 0 0 0 0 0 0 0 0 0 0 0 127 0" result="hardAlpha"/>
<feOffset dy="2"/>
<feGaussianBlur stdDeviation="1"/>
<feComposite in2="hardAlpha" operator="out"/>
<feColorMatrix type="matrix" values="0 0 0 0 0.286275 0 0 0 0 0.764706 0 0 0 0 0.984314 0 0 0 0.3 0"/>
<feBlend mode="normal" in2="BackgroundImageFix" result="effect1_dropShadow_387_29333"/>
<feBlend mode="normal" in="SourceGraphic" in2="effect1_dropShadow_387_29333" result="shape"/>
</filter>
<linearGradient id="paint0_linear_387_29333" x1="20.5874" y1="24.4482" x2="48.8374" y2="45.3125" gradientUnits="userSpaceOnUse">
<stop stop-color="#F1FBFF"/>
<stop offset="1" stop-color="#F1FBFF" stop-opacity="0.27"/>
</linearGradient>
<linearGradient id="paint1_linear_387_29333" x1="39.3468" y1="36.1078" x2="39.3468" y2="44.8573" gradientUnits="userSpaceOnUse">
<stop stop-color="white"/>
<stop offset="1" stop-color="white" stop-opacity="0.31"/>
</linearGradient>
<linearGradient id="paint2_linear_387_29333" x1="39.3468" y1="36.1078" x2="39.3468" y2="44.8573" gradientUnits="userSpaceOnUse">
<stop stop-color="white"/>
<stop offset="1" stop-color="white" stop-opacity="0.31"/>
</linearGradient>
</defs>
</svg>
