<svg width="12" height="12" viewBox="0 0 12 12" fill="none" xmlns="http://www.w3.org/2000/svg">
<g id="Group 427319145">
<path id="Vector" d="M1 4.10501C1.00609 4.18573 1.01202 4.26647 1.0183 4.34719C1.05068 4.76363 1.16505 5.15841 1.34911 5.53165C1.64682 6.13537 2.02251 6.688 2.46316 7.19768C2.94089 7.75024 3.45981 8.26198 3.99914 8.7538C4.51662 9.2257 5.05265 9.67586 5.60174 10.1107C5.73737 10.2181 5.88622 10.2785 6.06231 10.2607C6.18126 10.2486 6.2851 10.2011 6.37736 10.1282C7.35731 9.3541 8.29689 8.53524 9.15513 7.62685C9.64843 7.10471 10.092 6.5449 10.4493 5.91981C10.6601 5.55119 10.8397 5.16999 10.9232 4.75135C10.9564 4.58465 10.9699 4.41401 10.9924 4.24518C10.9947 4.22769 10.9975 4.21027 11 4.1928C11 4.0985 11 4.00419 11 3.90989C10.9968 3.89092 10.9924 3.87205 10.9905 3.85294C10.9826 3.77211 10.979 3.69069 10.9674 3.61041C10.8831 3.02552 10.6678 2.49479 10.2905 2.03651C9.79899 1.4395 9.17479 1.07954 8.39439 1.01126C7.99287 0.976132 7.60491 1.03722 7.23094 1.18559C6.80468 1.3547 6.44532 1.61749 6.14604 1.96301C6.09737 2.0192 6.0511 2.07746 6.00036 2.13883C5.98603 2.12112 5.97377 2.10652 5.96212 2.09145C5.71483 1.77179 5.41597 1.51153 5.05925 1.31978C4.53533 1.03813 3.97732 0.938388 3.39032 1.03706C2.70679 1.15196 2.15389 1.49698 1.71842 2.02867C1.30141 2.53783 1.07468 3.12584 1.01779 3.77975C1.0109 3.85882 1.00589 3.93805 1.00001 4.01721C0.999999 4.04646 1 4.07574 1 4.10501Z" fill="#E34D59"/>
</g>
</svg>
