<?xml version="1.0" encoding="UTF-8"?>
<svg width="28px" height="28px" viewBox="0 0 28 28" version="1.1" xmlns="http://www.w3.org/2000/svg" xmlns:xlink="http://www.w3.org/1999/xlink">
    <!-- Generator: Sketch 58 (84663) - https://sketch.com -->
    <title>编组</title>
    <desc>Created with Sketch.</desc>
    <g id="VAT服务" stroke="none" stroke-width="1" fill="none" fill-rule="evenodd">
        <g id="确认订单" transform="translate(-960.000000, -432.000000)" fill-rule="nonzero">
            <g id="编组-4" transform="translate(938.000000, 423.000000)">
                <g id="编组-36">
                    <g id="编组-2" transform="translate(22.000000, 9.000000)">
                        <g id="编组-5">
                            <g id="weixinzhifu-2">
                                <path d="M3.11111334,13.4326697 C3.11111334,17.1202075 5.1863004,20.527633 8.55497177,22.3714019 C11.9236431,24.2151708 16.0740174,24.2151708 19.4426888,22.3714019 C22.8113602,20.527633 24.8865472,17.1202075 24.8865472,13.4326697 C24.8865472,9.74513196 22.8113602,6.3377065 19.4426888,4.49393758 C16.0740175,2.65016866 11.9236431,2.65016866 8.55497175,4.49393758 C5.18630037,6.3377065 3.11111334,9.74513196 3.11111334,13.4326697 Z" id="路径" fill="#FFFFFF"></path>
                                <path d="M11.4075517,16.8187732 C10.1010342,17.602688 9.91594441,16.3723714 9.91594441,16.3723714 L8.28278155,12.2567976 C7.65128993,10.2970107 8.82716209,11.3749041 8.82716209,11.3749041 C8.82716209,11.3749041 9.82885458,12.2023532 10.6018592,12.7031994 C11.3640175,13.2040457 12.2350221,12.8556226 12.2350221,12.8556226 L22.915914,7.52064231 C20.934328,4.84225268 17.6788912,3.11111111 13.9988303,3.11111111 C7.98882415,3.11111111 3.11111334,7.72750989 3.11111334,13.4326697 C3.11111334,16.7098844 4.72249842,19.627787 7.23755477,21.5222618 L6.78028534,24.3421857 C6.78028534,24.3421857 6.56250761,25.1696348 7.32466586,24.7885876 C7.84726862,24.5272756 9.17556391,23.5909164 9.97038885,23.0247581 C11.2551499,23.5147154 12.6160906,23.7542284 13.9988516,23.7542284 C20.0088577,23.7542284 24.8865685,19.1378509 24.8865685,13.4326697 C24.8865685,11.7777504 24.4728334,10.2207885 23.743363,8.83807001 C20.3463919,11.0591477 12.4310008,16.2090381 11.4075517,16.8187307 L11.4075517,16.8187732 Z" id="路径" fill="#41B035"></path>
                            </g>
                        </g>
                    </g>
                </g>
            </g>
        </g>
    </g>
</svg>