<?xml version="1.0" encoding="UTF-8"?>
<svg width="28px" height="28px" viewBox="0 0 28 28" version="1.1" xmlns="http://www.w3.org/2000/svg" xmlns:xlink="http://www.w3.org/1999/xlink">
    <!-- Generator: Sketch 58 (84663) - https://sketch.com -->
    <title>编组</title>
    <desc>Created with Sketch.</desc>
    <g id="VAT服务" stroke="none" stroke-width="1" fill="none" fill-rule="evenodd">
        <g id="确认订单" transform="translate(-1253.000000, -432.000000)" fill-rule="nonzero">
            <g id="编组-4备份-3" transform="translate(1230.000000, 423.000000)">
                <g id="编组-38">
                    <g id="编组-2" transform="translate(23.000000, 9.000000)">
                        <g id="编组">
                            <path d="M4.17620898,7.54444444 L2.91844613,9.79307536 L2.1,17.28383 L8.38000018,19.4583115 C13.9324287,20.3823939 16.7699185,20.8444444 16.8924696,20.8444444 C17.0150027,20.8444444 18.8658782,20.5385759 22.445078,19.9268572 L23.9200799,17.28383 L25.9,9.26944035 L4.17620898,7.54444444 Z" id="路径" fill="#FFFFFF"></path>
                            <path d="M6.44918265,21.1809845 L8.50181665,12.3596309 L8.43056533,12.3596309 C8.34423618,12.3668948 8.26018595,12.3911422 8.18322833,12.4309845 C8.12518217,12.7278289 8.0543183,13.0220148 7.97083612,13.3127145 C7.86465841,13.7703951 7.86465841,13.8417488 7.82969521,14.0880958 L7.7934071,14.124436 L6.90891187,14.124436 L6.87394868,14.0880958 L7.08634089,13.2413608 C7.26244499,12.4659795 7.2987331,12.1832923 7.36862268,11.7956016 L7.40492919,11.7605882 C7.79475042,11.689253 7.8996032,11.689253 8.35931402,11.6192446 L8.39562053,11.654258 L8.32436923,11.9005866 C8.39562053,11.8655916 8.46685345,11.7956016 8.53676144,11.7605882 C8.57304955,11.724248 8.60799436,11.724248 8.67924566,11.689253 L9.74118831,7.20790434 C9.95356211,6.221171 10.9442535,5.44444444 11.9,5.44444444 L5.45716639,5.44444444 C4.46513174,5.44444444 3.50938519,6.221171 3.29699298,7.20790434 L0.0426187633,21.1809845 C-0.169773446,22.1677179 0.432439987,22.9444444 1.38684322,22.9444444 L7.7933887,22.9444444 C6.80271576,22.9444444 6.20050233,22.1327045 6.44918265,21.1809845 Z" id="路径" fill="#DD2322"></path>
                            <path d="M5.55213929,14.2616658 C5.22625769,14.4380799 4.75463006,14.5444444 4.24865055,14.5444444 C3.84988652,14.5444444 3.16237857,14.4730862 2.94514298,14.0852518 C2.84406622,13.9537545 2.7930076,13.7918387 2.80077102,13.6274232 L2.87226055,12.9904892 L2.90939821,12.8154209 L3.45251539,10.5208401 L3.48827898,10.3794507 C3.48827898,10.3794507 3.66976979,10.4144755 4.68314052,10.3794507 L4.68314052,10.4144755 C4.57313925,10.6972541 4.06714092,12.7090563 4.06714092,12.7090563 L3.95851371,13.3082742 L3.95851371,13.4146572 C3.99563255,13.6974358 4.17576811,13.8725042 4.50163089,13.8725042 C4.71888529,13.8725042 4.86463133,13.8024731 5.0447669,13.6974358 C5.29914013,13.4846882 5.37062968,13.1669033 5.47925687,12.7090563 C5.47925687,12.7090563 5.98662928,10.4844881 5.98662926,10.3444444 C6.05813762,10.3444444 6.27537319,10.3794507 7,10.3444444 L7,10.3794507 C6.89139162,10.6622294 6.3840004,12.7790689 6.3840004,12.7790689 L6.31251087,12.9904892 C6.23962844,13.4496819 6.09525647,13.9438624 5.55213929,14.2616658 L5.55213929,14.2616658 Z" id="路径" fill="#FFFFFF"></path>
                            <path d="M14.13298,21.2148608 L14.6699833,18.8859745 L14.0266517,18.8859745 C13.9189783,18.8859745 13.8476383,18.8859745 13.7763167,18.850979 C13.7049766,18.8159651 13.6336366,18.7446473 13.6336366,18.6746194 C13.6336366,18.6046284 13.6686434,18.4982783 13.7049766,18.3569326 L14.8126634,14.7586075 L15.5986567,14.7586075 L15.4909833,15.1463037 L15.5986567,15.0413172 L15.8140034,14.1582294 L15.3133149,14.1582294 L15.3133149,14.1232154 C15.3483217,13.9818698 15.384655,13.8055102 15.4209883,13.6655282 L15.455995,13.4528279 C15.5273166,13.1351227 15.5986567,12.7474264 15.5986567,12.6060808 C15.5986567,12.5360898 15.63499,12.3597302 15.4196433,12.3597302 C15.3218689,12.3704015 15.2259316,12.3939415 15.13432,12.4297396 C15.0754039,12.7266489 15.0035533,13.0208434 14.9189733,13.3114822 C14.8113,13.7705331 14.8113,13.8418694 14.7763117,14.08822 L14.7413049,14.1232339 L13.8476383,14.1232339 L13.811305,14.08822 L14.0266517,13.2414728 C14.2043016,12.4647167 14.2406349,12.1833891 14.2769867,11.7943476 L14.311975,11.7593336 C14.7049716,11.6893427 14.812645,11.6893427 15.2769816,11.617988 L15.3133149,11.6543288 L15.2406483,11.9006793 C15.3133149,11.8656838 15.384655,11.7943476 15.455995,11.7593336 C15.6338816,11.6705426 15.8292257,11.6222709 16.0279866,11.617988 C16.13566,11.617988 16.2419883,11.617988 16.3496801,11.6893427 L17.3859899,7.20792967 C17.5986651,6.22118215 18.59866,5.44444444 19.6,5.44444444 L11.8462849,5.44444444 C10.84629,5.44444444 9.88128328,6.22118215 9.66593661,7.20792967 L8.62958991,11.6893427 C8.80860328,11.617988 8.95260994,11.617988 9.06028327,11.617988 C9.23795166,11.617988 9.45193491,11.6893427 9.55826327,11.9006793 C9.6309483,12.1120528 9.59461499,12.358385 9.48828665,12.8174358 L9.4169466,13.0651133 C9.30927326,13.5941736 9.27293996,13.7005237 9.23795166,14.0532244 L9.13027831,14.1582294 L8.23659326,14.1582294 L8.23659326,14.1232154 C8.27292656,13.9818698 8.3092783,13.8055102 8.34426661,13.6655282 L8.3805999,13.4528279 C8.45193993,13.1351227 8.52327998,12.7474264 8.52327998,12.6060808 C8.52327998,12.5360898 8.55826829,12.3947257 8.41560664,12.3597302 L6.34291324,21.1798653 C6.12892998,22.1679581 6.73590988,22.9433505 7.70227997,22.9433505 L15.4909833,22.9433505 C14.5259767,22.9783644 13.9189783,22.1679581 14.13298,21.2148608 Z" id="路径" fill="#17305E"></path>
                            <path d="M14,15.0223304 L13.8195154,15.5681988 L12.5575538,15.5681988 L12.4150758,15.6711232 C12.3417934,15.7388774 12.3417934,15.7050092 12.2698856,15.7388774 C12.1369127,15.8063879 11.9887848,15.8417126 11.8383648,15.841784 L11.4421384,15.841784 L11.6212483,15.3284997 L11.7298065,15.3284997 C11.8383648,15.3284997 11.9102911,15.3284997 11.946923,15.2946136 C11.9822174,15.2607276 12.0174747,15.2268594 12.0907571,15.1252369 L12.3065175,14.7148591 L13.242823,14.7148591 L13.0989704,15.0223304 L14,15.0223304 L14,15.0223304 Z M10.6483109,12.1874063 L10.469201,12.8700852 C10.4325505,13.0068778 10.3972747,13.1775564 10.3606427,13.3143491 C10.2887164,13.6218024 10.2520845,13.7572931 10.2168086,13.8263493 C10.1801582,13.8953877 10.1801582,13.9631419 10.1448823,14.1338205 L9.1,14.1338205 C9.13529443,13.9644438 9.17192633,13.8953877 9.20855824,13.8263493 C9.24385267,13.758595 9.24385267,13.6895567 9.31711648,13.5188781 C9.38768676,13.280463 9.42430009,13.1098022 9.45959452,12.9391236 C9.496245,12.802331 9.56815276,12.3919532 9.60478466,12.2564625 C9.56815276,12.1535381 9.64007909,12.0506137 9.78391318,11.9489913 C10.0010297,11.8121987 10.3253297,11.7783126 10.5410901,11.8799529 C10.6849242,11.9489913 10.7215747,12.0857839 10.6496484,12.1874242 L10.6482923,12.1874242 L10.6483109,12.1874063 Z M10.8287955,12.9730096 C10.9007032,12.6655384 11.0458934,12.3241989 11.2969296,12.0857839 C11.6945307,11.7444444 12.1626834,11.7444444 12.3784253,11.7444444 C12.7027625,11.7444444 13.0623385,11.8121987 13.242823,12.0506137 C13.3513813,12.1874063 13.4599209,12.4609915 13.3513813,12.9730096 C13.3147308,13.1436704 13.2075286,13.52018 12.9551549,13.758595 C12.6294801,14.0660663 12.2345912,14.1676887 11.8017329,14.1676887 C11.6578802,14.1676887 11.4055065,14.1338027 11.2250219,14.0660663 C10.6849428,13.8615194 10.7568692,13.3143312 10.8287955,12.9730096 L10.8287955,12.9730096 Z M12.7746703,18.7444444 L11.7298065,18.7444444 C11.6578802,18.7444444 11.5859725,18.7444444 11.4774142,18.7092743 C11.4127513,18.6828355 11.3520538,18.6482277 11.2969296,18.6063677 C11.2616538,18.5385957 11.18839,18.5047275 11.2250219,18.3679349 L11.5140647,17.4116708 L11.0092429,17.4116708 L11.1897275,16.8645004 L11.6945121,16.8645004 L11.8383462,16.4215385 L11.3335801,16.4215385 L11.5140461,15.9095383 L13.7828835,15.9095383 L13.6037736,16.4215385 L12.7027439,16.4215385 L12.5589099,16.8645004 L13.4952153,16.8645004 L13.3513813,17.4116708 L12.4150758,17.4116708 L12.1979593,18.1282179 C12.1626649,18.197274 12.4150758,18.2324442 12.523634,18.2324442 L12.9904307,18.1634058 L12.7746703,18.7431425 L12.7746703,18.7444444 L12.7746703,18.7444444 Z" id="形状" fill="#FFFFFF"></path>
                            <path d="M15.4519957,15.2444444 L15.278701,15.9444444 C15.278701,15.9444444 15.3480225,15.9030656 15.4173258,15.8203514 L15.521299,15.2444444 L15.4519957,15.2444444 L15.4519957,15.2444444 Z" id="路径" fill="#17305E"></path>
                            <path d="M26.5973231,5.44444444 L19.5520267,5.44444444 C18.5493602,5.44444444 17.5840383,6.22251626 17.333358,7.2119401 L16.2960299,11.7013603 C16.3812327,11.7454503 16.44553,11.8219911 16.4747039,11.9140575 C16.5466919,12.1267548 16.5106979,12.3731019 16.4040301,12.833473 L16.3320239,13.0811652 C16.2253743,13.6115632 16.189362,13.7165666 16.153368,14.0705891 L16.117374,14.1056025 L15.7240319,14.1056025 L15.5106962,14.990023 C15.5813701,14.9186693 15.7240319,14.8486793 15.7960381,14.8136659 C15.974694,14.7423307 16.3680361,14.6723223 16.3680361,14.6723223 L17.6200323,14.6723223 L17.1906962,16.0857954 C17.1186899,16.3334693 17.0480343,16.4748129 16.9773605,16.5448397 C16.9244786,16.6331508 16.8501277,16.7063583 16.76136,16.7575186 C16.6769626,16.8182384 16.5779628,16.8549607 16.4747039,16.8638488 L15.0440154,16.8638488 L14.7226795,18.242327 L15.1520156,18.2073136 L14.9733598,18.8440602 L14.6160117,18.8440602 L14.0426995,21.1769488 C13.8293639,22.1663542 14.4360234,22.9444444 15.402696,22.9444444 L22.4479924,22.9444444 C23.4506589,22.9444444 24.4159808,22.1663726 24.6666429,21.1769488 L27.9573013,7.2119401 C28.170637,6.22251626 27.5639592,5.44444444 26.5973049,5.44444444 L26.5973231,5.44444444 Z" id="路径" fill="#026862"></path>
                            <path d="M21.7482812,11.4069285 C21.8745327,11.4602822 21.9848357,11.5472191 22.0679606,11.6588887 L22.0679606,11.5493498 L22.1037711,11.5137304 C22.5309183,11.4411606 22.6370423,11.4411606 23.1,11.3699406 L23.1,11.40556 C23.0296865,11.7287589 22.9222369,12.0889083 22.8506159,12.4120885 C22.6728528,13.1324247 22.6383679,13.4912243 22.5667288,13.8500239 L22.5309183,13.886993 L21.6063285,13.886993 L21.570518,13.8513924 C21.570518,13.815773 21.6063285,13.743222 21.6063285,13.7076026 C21.4630503,13.815773 21.3211158,13.9226124 21.1420452,13.9226124 C20.970973,13.9217153 20.8018142,13.8853915 20.6445844,13.8157918 C20.1113314,13.5994134 20.1816267,12.9886349 20.2532659,12.6654547 C20.324905,12.3408872 20.4668213,11.9807191 20.7162236,11.7287402 C21.1075603,11.4055413 21.5346894,11.3329715 21.748263,11.4055412 L21.748263,11.4069285 L21.7482812,11.4069285 Z M16.9077635,13.9239809 L17.5842949,11.0837296 L17.8694894,9.78823422 C17.8694894,9.78823422 17.9052999,9.68004505 17.9052999,9.64444444 C18.0472526,9.64444444 18.3311397,9.68004507 19.1151025,9.64444444 L19.3989714,9.64444444 C20.0038636,9.64444444 20.50265,9.64444444 20.7865371,10.0046125 C20.8939867,10.1484023 20.9297972,10.3278115 20.9297972,10.5071832 C20.9297972,10.650973 20.8939867,10.7947627 20.8939867,10.9043392 C20.7878627,11.3699406 20.5384605,11.7670779 20.2174554,12.0176883 C19.7199947,12.4148443 19.0434633,12.4148443 18.4743816,12.4148443 L18.4027607,12.4148443 L18.3311215,12.4860456 C18.3311215,12.5216649 18.1891871,13.0612047 18.189187,13.0612047 C18.189187,13.0612047 18.0472526,13.8171603 18.0114239,13.9609501 C17.833679,13.9239809 17.5484662,13.9239809 16.9077635,13.9239809 L16.9077635,13.9239809 Z M17.1571476,17.1969701 C17.1315205,17.2921204 17.0826473,17.3788795 17.0152132,17.4489303 C16.943574,17.5215189 16.83745,17.5927201 16.5880659,17.5927201 L16.1609187,17.5927201 L16.1609187,17.9885076 C16.1609187,18.096678 16.1967292,18.096678 16.1967292,18.096678 C16.1967292,18.096678 16.2325578,18.1322974 16.2683683,18.1322974 L16.4103028,18.1322974 L16.83745,18.096678 L16.6238946,18.7444444 L16.1609187,18.7444444 C15.8412211,18.7444444 15.5905114,18.7444444 15.4843874,18.6718559 C15.4140739,18.6362553 15.3782634,18.5636855 15.4140739,18.4554963 L15.4499025,16.9093718 L16.1967292,16.9093718 L16.1967292,17.2339393 L16.3744923,17.2339393 C16.4461315,17.2339393 16.4806163,17.2339393 16.5164268,17.1969701 C16.5522373,17.1613508 16.5522373,17.1613508 16.5522373,17.1257501 L16.6238764,16.8737712 L17.2287686,16.8737712 L17.1571476,17.1969701 L17.1571476,17.1969701 Z M19.7903082,18.7444444 L18.9718424,18.7444444 L19.0434633,18.5636668 L17.4065317,18.5636668 L17.5842949,18.024127 L17.7620398,18.024127 L18.6163343,15.1112871 L18.7940792,14.5361092 L19.612545,14.5361092 L19.5422497,14.8237075 C19.5422497,14.8237075 19.7544977,14.6799178 19.9680531,14.6073292 C20.1471419,14.5717099 21.0001107,14.5361092 21.2853053,14.5361092 L22.1740846,14.5361092 L22.1740846,14.8593082 C22.1740846,14.9318967 22.2112207,14.9318967 22.3173629,14.9318967 L22.4592792,14.9318967 L22.3173447,15.5070558 L21.854387,15.5070558 C21.4272398,15.5426752 21.2853053,15.3632661 21.2853053,15.1468877 L21.2853053,14.8236888 L21.2136661,15.1112871 L20.9297972,15.1112871 L20.0755027,17.9885076 L20.2877507,17.9885076 L20.1113314,18.5636668 L19.8619473,18.5636668 L19.7903082,18.7444444 L19.7903082,18.7444444 Z" id="形状" fill="#FFFFFF"></path>
                            <path d="M23.4659133,16.2362417 L22.6334255,16.2362417 L22.5004805,16.6947822 L23.3329683,16.6947822 L23.2000234,17.154648 L22.3004337,17.154648 L22.1327047,17.365768 L22.5004805,17.365768 L22.5998831,17.9668408 C22.5998831,18.0367539 22.5998831,18.0730543 22.6334255,18.1080293 C22.6669849,18.1429858 22.7663874,18.1429858 22.8322306,18.1429858 L22.9328748,18.1429858 L22.7663874,18.7440586 L22.3004337,18.7440586 C22.2010312,18.7440586 22.1662301,18.6727832 22.100404,18.6364829 C22.0333021,18.6015079 21.9662003,18.5315947 21.9662003,18.4253628 L21.8667978,17.8256339 L21.4667042,18.4253628 C21.3279007,18.6327564 21.1030873,18.7521437 20.8665809,18.7440586 L20.3,18.7440586 L20.4664874,18.2142612 L20.7000765,18.2142612 C20.7671784,18.2142612 20.8330215,18.1779424 20.8665809,18.1779424 C20.9001233,18.1429858 20.9336657,18.1429858 20.9995259,18.0730543 L21.5996662,17.1896046 L20.7994791,17.1896046 L20.9336827,16.6947638 L21.8332554,16.6947638 L21.9662003,16.2362233 L21.0666277,16.2362233 L21.233115,15.7064443 L23.7330619,15.7064443 L23.4659133,16.2362233 L23.4659133,16.2362417 Z M24.0001935,14.5768995 L23.9666511,14.6118745 L23.6336593,15.2116035 C23.5342568,15.4240489 23.3329683,15.5652374 23.033519,15.5652374 L22.5327812,15.5652374 L22.6992856,15.03544 L22.7986882,15.03544 C22.8670317,15.03544 22.8993324,15.03544 22.9328918,15.000465 C22.9664172,15.000465 22.9664172,14.9641647 22.9999766,14.9292081 L23.166464,14.6118561 C23.4336126,14.1882906 23.4994557,14.0108018 23.7666043,13.5522613 C23.7330619,13.022464 23.6995025,12.8463189 23.6672018,12.5276231 C23.6284704,12.3184586 23.6060244,12.1061459 23.6000999,11.8929192 C23.5665575,11.4680099 23.5665575,11.5392853 23.5006974,11.2568899 L23.5006974,11.2219333 L23.5330151,11.1856329 C23.9331087,11.150658 23.9331087,11.1157014 24.3655029,11.0444444 L24.400287,11.0807448 L24.4661302,12.2452277 L24.4661302,12.3165031 C24.6997364,11.7867057 24.6997364,11.9265504 24.966885,11.2568899 L24.966885,11.2219333 L24.9991687,11.1856329 C25.3669615,11.150658 25.4340633,11.1157014 25.8664576,11.0444444 L25.9,11.0807448 C25.8664576,11.0807448 24.232541,14.0820587 23.9989518,14.5768995 L24.0001935,14.5768995 L24.0001935,14.5768995 Z" id="形状" fill="#FFFFFF"></path>
                            <path d="M16.587046,15.489947 L16.6903213,15.165066 L15.5045494,15.165066 L15.4,15.670002 C15.556276,15.5621594 15.736606,15.500053 15.9227471,15.4899655 L16.5870285,15.4899655 L16.587046,15.489947 Z M19.0261017,11.6765102 C19.275097,11.5612554 19.4478592,11.3144572 19.4800102,11.0280825 C19.5488488,10.7045173 19.4442993,10.489289 19.2352005,10.3809891 L18.6423408,10.3444444 L18.5377914,10.3444444 L18.5377914,10.4527258 L18.2598366,11.7117021 L18.2598366,11.7834572 L18.3988053,11.7834572 C18.6079041,11.7834572 18.8514396,11.7834572 19.0261017,11.6751574 L19.0261017,11.6765102 L19.0261017,11.6765102 Z M18.3631118,18.0444444 L19.0261017,18.0444444 L19.2007813,17.3960168 L18.5377914,17.3960168 L18.364386,18.0444444 L18.3631118,18.0444444 Z M19.2007813,15.1664188 L18.9916824,15.8852488 C18.9916824,15.8852488 19.2352005,15.776949 19.3741867,15.7417571 C19.5144295,15.7051938 19.7235283,15.7051938 19.7235283,15.7051938 L19.8637886,15.1664188 L19.2007813,15.1664188 L19.2007813,15.1664188 Z M18.6423408,17.0007149 C18.6423408,17.0007149 18.887133,16.8572232 19.0261017,16.8206785 C19.166362,16.7854681 19.3754608,16.7489234 19.3754608,16.7489234 L19.5488488,16.2087955 L18.8858589,16.2087955 L18.6435975,17.0007149 L18.6423408,17.0007149 L18.6423408,17.0007149 Z M21.1438818,13.3754315 C21.2458829,13.3754315 21.4192709,13.3077534 21.4881269,13.203512 C21.5225462,13.1683016 21.5569829,13.0654316 21.590128,12.9963821 C21.629402,12.8856822 21.6526129,12.769291 21.6589666,12.6511903 C21.6934033,12.5821408 21.6934033,12.5131098 21.6934033,12.4440603 C21.7278226,12.167918 21.6245473,11.9946271 21.4537076,11.9946271 C21.1783011,11.9946271 21.0750258,12.3398375 20.9717505,12.7202212 C20.9352769,12.8433743 20.9121751,12.9705489 20.9028945,13.0992707 C20.9717505,13.3754315 21.1438818,13.3754315 21.1438818,13.3754315 L21.1438818,13.3754315 Z M16.5016087,16.1045541 L16.5691906,15.8622323 L15.4688735,15.8622323 L15.4000175,16.1045541 L16.3294949,16.1045541 C16.4672069,16.1045541 16.5016087,16.1383932 16.5016087,16.1045541 L16.5016087,16.1045541 Z" id="形状" fill="#026862"></path>
                            <path d="M12.8153859,13.7382056 C12.9076964,13.7382056 12.9692422,13.6742615 13.0307717,13.5764747 C13.1230823,13.4473509 13.1846118,13.1239235 13.2153928,13.0587266 C13.3077033,12.6701023 13.2769224,12.4444444 13.0923175,12.4444444 C12.8461506,12.4444444 12.7538563,12.7666362 12.6615458,13.1239235 C12.6307648,13.2530473 12.6,13.3821711 12.6,13.4799579 C12.6615458,13.7382056 12.8153859,13.7382056 12.8153859,13.7382056 L12.8153859,13.7382056 Z M14.7538586,17.8187866 C14.7230776,17.9165734 14.7230776,17.9817531 14.7230776,17.9817531 C14.7538586,18.0131074 14.7846234,18.0444444 14.8153882,18.0444444 L14.9076987,18.0444444 L15.1846141,16.7820375 L15.030774,16.7820375 L14.7538424,17.8187866 L14.7538586,17.8187866 Z M15.2461599,16.0699686 L15.1846141,16.2968792 L15.3384704,16.2968792 L15.4,16.0712043 L15.2461599,16.0712043 L15.2461599,16.0699686 Z" id="形状" fill="#17305E"></path>
                        </g>
                    </g>
                </g>
            </g>
        </g>
    </g>
</svg>