<?xml version="1.0" encoding="UTF-8"?>
<svg width="28px" height="28px" viewBox="0 0 28 28" version="1.1" xmlns="http://www.w3.org/2000/svg" xmlns:xlink="http://www.w3.org/1999/xlink">
    <!-- Generator: Sketch 58 (84663) - https://sketch.com -->
    <title>编组</title>
    <desc>Created with Sketch.</desc>
    <g id="VAT服务" stroke="none" stroke-width="1" fill="none" fill-rule="evenodd">
        <g id="确认订单" transform="translate(-1114.000000, -432.000000)" fill-rule="nonzero">
            <g id="编组-4备份-2" transform="translate(1084.000000, 423.000000)">
                <g id="编组-37">
                    <g id="矩形-2">
                        <g id="编组-7" transform="translate(30.000000, 9.000000)">
                            <g id="zhifubao">
                                <path d="M6.01481481,3.11111111 L21.9851852,3.11111111 C23.9209877,3.11111111 24.8888889,4.07901234 24.8888889,6.01481481 L24.8888889,21.9851852 C24.8888889,23.9209877 23.9209877,24.8888889 21.9851852,24.8888889 L6.01481481,24.8888889 C4.07901234,24.8888889 3.11111111,23.9209877 3.11111111,21.9851852 L3.11111111,6.01481481 C3.11111111,4.07901234 4.07901234,3.11111111 6.01481481,3.11111111 Z" id="路径" fill="#02A9F1"></path>
                                <path d="M15.2790815,6.01481481 L15.2790815,8.48659259 L20.8883111,8.48659259 L20.8883111,9.58637036 L15.2790815,9.62557036 L15.2790815,11.1558222 L19.9133926,11.1950222 C19.9133926,11.1950222 19.8320889,12.0588741 19.2223111,13.6276 C18.6531852,15.1977778 18.0840593,15.9825037 18.0840593,15.9825037 L24.8888889,18.1806074 L24.8888889,21.7456296 L16.7832,17.9439556 C16.7832,17.9439556 15.2544,19.6041481 13.6421185,20.4200889 L13.4911259,20.4941333 C11.8244,21.2788593 9.91376295,21.7499852 7.8818963,21.2788593 C5.80865186,20.8077333 4.34591111,19.4742074 4.58982222,17.0801037 C4.83373333,14.6867259 7.43545186,13.8236 9.58927408,13.8236 C11.7430963,13.8236 15.8075556,15.1970519 15.8075556,15.1970519 C15.8075556,15.1970519 16.1327704,14.4515259 16.498637,13.5876741 C16.8238518,12.7245482 16.9051556,12.0182222 16.9051556,12.0182222 L8.24776297,12.0182222 L8.24776297,11.1550963 L12.4341778,11.1550963 L12.4341778,9.50724444 L7.19081481,9.54644444 L7.19081481,8.44666667 L12.5154815,8.44666667 L12.5154815,6.01481481 L15.2790815,6.01481481 Z M14.832637,16.9233037 C14.832637,16.9233037 11.3365778,15.0003259 8.77623703,15.1571259 C6.21517036,15.3146518 5.56474075,16.4521778 5.56474075,17.4728296 C5.56474075,18.4927556 6.17451853,19.9446074 9.22340741,19.9446074 C12.2722963,19.9446074 14.832637,16.9233037 14.832637,16.9233037 L14.832637,16.9233037 Z" id="形状" fill="#FFFFFF"></path>
                            </g>
                        </g>
                    </g>
                </g>
            </g>
        </g>
    </g>
</svg>