<svg width="237" height="79" viewBox="0 0 237 79" fill="none" xmlns="http://www.w3.org/2000/svg">
<g id="logo">
<g id="&#231;&#188;&#150;&#231;&#187;&#132;">
<path id="Fill 1" fill-rule="evenodd" clip-rule="evenodd" d="M63.1533 44.5657C63.1533 55.2793 54.0067 63.9648 42.7238 63.9648C31.4415 63.9648 22.2949 55.2793 22.2949 44.5657C22.2949 33.8521 31.4415 25.166 42.7238 25.166C54.0067 25.166 63.1533 33.8521 63.1533 44.5657" fill="#D86E93"/>
<path id="Fill 3" fill-rule="evenodd" clip-rule="evenodd" d="M42.7238 25.166C31.4415 25.166 22.2949 33.851 22.2949 44.5657C22.2949 55.2793 31.4415 63.9643 42.7238 63.9643C54.0067 63.9643 63.1533 55.2793 63.1533 44.5657C63.1533 33.851 54.0067 25.166 42.7238 25.166M42.7235 26.3117C53.3231 26.3117 61.9461 34.501 61.9461 44.5658C61.9461 54.6306 53.3231 62.8189 42.7235 62.8189C32.1245 62.8189 23.501 54.6306 23.501 44.5658C23.501 34.501 32.1245 26.3117 42.7235 26.3117" fill="#F0D5E1"/>
<path id="Fill 5" fill-rule="evenodd" clip-rule="evenodd" d="M42.7232 23.5498C30.5197 23.5498 20.5918 32.9772 20.5918 44.5656C20.5918 56.1534 30.5197 65.5814 42.7232 65.5814C54.9267 65.5814 64.8545 56.1534 64.8545 44.5656C64.8545 32.9772 54.9267 23.5498 42.7232 23.5498M42.7238 25.166C54.0067 25.166 63.1533 33.8515 63.1533 44.5652C63.1533 55.2799 54.0067 63.9643 42.7238 63.9643C31.4415 63.9643 22.2949 55.2799 22.2949 44.5652C22.2949 33.8515 31.4415 25.166 42.7238 25.166" fill="#231717"/>
<path id="Fill 7" fill-rule="evenodd" clip-rule="evenodd" d="M42.7241 29.0977L39.2773 32.3315L42.7241 39.4035L46.1709 32.3315L42.7241 29.0977Z" fill="#EDC5D1"/>
<path id="Fill 9" fill-rule="evenodd" clip-rule="evenodd" d="M40.3008 32.5067L42.724 37.4785L45.1472 32.5067L42.724 30.2334L40.3008 32.5067ZM42.7238 40.2114C42.3923 40.2114 42.0906 40.0289 41.9519 39.7424L38.5046 32.6699C38.3537 32.3609 38.4236 31.9949 38.6791 31.7554L42.1259 28.5221C42.4573 28.2116 42.9903 28.211 43.3229 28.5226L46.7691 31.7554C47.024 31.9949 47.0939 32.3609 46.9431 32.6699L43.4969 39.7424C43.3576 40.0289 43.0558 40.2114 42.7238 40.2114V40.2114Z" fill="#231717"/>
<path id="Fill 11" fill-rule="evenodd" clip-rule="evenodd" d="M45.7305 35.1251C47.9395 37.9663 51.4903 39.8083 55.4943 39.8083C62.1934 39.8083 67.624 34.6514 67.624 28.29C67.624 22.6422 63.3442 17.9444 57.6956 16.9609" fill="#E9B392"/>
<path id="Fill 13" fill-rule="evenodd" clip-rule="evenodd" d="M55.494 40.6157C51.3915 40.6157 47.4855 38.7424 45.0453 35.6048C44.7661 35.2456 44.8465 34.74 45.2248 34.4749C45.6019 34.2093 46.1355 34.2862 46.4146 34.6448C48.535 37.3715 51.9289 38.9996 55.494 38.9996C61.7125 38.9996 66.7725 34.1952 66.7725 28.2891C66.7725 23.1166 62.8908 18.6871 57.5422 17.7553C57.0797 17.6748 56.7741 17.2534 56.8589 16.8153C56.9432 16.3756 57.3853 16.0849 57.8489 16.1659C64.0057 17.2377 68.4749 22.3365 68.4749 28.2891C68.4749 35.0861 62.6518 40.6157 55.494 40.6157" fill="#231717"/>
<path id="Fill 15" fill-rule="evenodd" clip-rule="evenodd" d="M39.7183 35.1251C37.5093 37.9663 33.9585 39.8083 29.9545 39.8083C23.2553 39.8083 17.8242 34.6514 17.8242 28.29C17.8242 22.6422 22.1046 17.9444 27.7532 16.9609" fill="#E9B392"/>
<g id="&#231;&#188;&#150;&#231;&#187;&#132;_2">
<mask id="mask0_222_17087" style="mask-type:alpha" maskUnits="userSpaceOnUse" x="16" y="16" width="25" height="25">
<path id="Clip 18" fill-rule="evenodd" clip-rule="evenodd" d="M16.9727 16.1523H40.5686V40.6157H16.9727V16.1523Z" fill="white"/>
</mask>
<g mask="url(#mask0_222_17087)">
<path id="Fill 17" fill-rule="evenodd" clip-rule="evenodd" d="M29.9536 40.6157C22.7958 40.6157 16.9727 35.0861 16.9727 28.2891C16.9727 22.3365 21.4419 17.2377 27.5987 16.1659C28.0617 16.0849 28.5044 16.3756 28.5887 16.8153C28.6735 17.2534 28.3679 17.6748 27.9054 17.7553C22.5568 18.6871 18.6751 23.1166 18.6751 28.2891C18.6751 34.1952 23.7351 38.9996 29.9536 38.9996C33.5187 38.9996 36.9126 37.3715 39.033 34.6448C39.3127 34.2856 39.8462 34.2098 40.2228 34.4749C40.6011 34.74 40.6815 35.2456 40.4023 35.6048C37.9621 38.7424 34.0561 40.6157 29.9536 40.6157" fill="#231717"/>
</g>
</g>
<path id="Fill 19" fill-rule="evenodd" clip-rule="evenodd" d="M66.7133 9.80957C65.1551 11.4947 61.9726 14.1952 55.6138 13.5019C51.8471 12.8619 46.6538 11.6035 42.902 11.5574V11.5533C42.8679 11.5533 42.831 11.5548 42.7963 11.5554C42.7622 11.5548 42.7259 11.5533 42.6917 11.5533V11.5574C38.9405 11.6035 33.7461 12.8619 29.98 13.5019C23.6211 14.1952 20.4387 11.4947 18.8805 9.80957C18.8805 9.80957 18.4725 11.9961 21.2458 13.9704C26.2392 17.8682 40.7866 21.9323 42.6917 27.4603L42.7963 27.8478L42.902 27.4603C44.8071 21.9323 59.3545 17.8682 64.3479 13.9704C67.1213 11.9961 66.7133 9.80957 66.7133 9.80957" fill="#D86E93"/>
<path id="Fill 21" fill-rule="evenodd" clip-rule="evenodd" d="M20.7539 12.4496C21.0171 12.7361 21.3464 13.031 21.7565 13.3228C23.5477 14.7193 26.6376 16.1571 29.9093 17.6791C35.2039 20.1423 40.6565 22.6786 42.8027 25.8418C44.9748 22.6613 50.4081 20.1339 55.6845 17.6791C58.9562 16.1571 62.0462 14.7193 63.8075 13.3453C64.2221 13.0498 64.5547 12.7518 64.8212 12.4616C62.2615 14.0804 59.1445 14.6999 55.5166 14.3047C54.4457 14.1243 53.3401 13.9094 52.1701 13.6814C49.0707 13.0796 45.5584 12.3973 42.8913 12.3649C42.8715 12.3644 42.8522 12.3634 42.8324 12.3623C42.8176 12.3623 42.8054 12.3628 42.8032 12.3628L42.7625 12.3623C42.7432 12.3634 42.7223 12.3644 42.7025 12.3649C40.0354 12.3973 36.5231 13.0796 33.4238 13.6814C32.2537 13.9094 31.1476 14.1243 30.1306 14.2974C26.4576 14.6994 23.3203 14.0772 20.7539 12.4496M42.7967 28.655H42.7962C42.4086 28.655 42.0694 28.4061 41.9725 28.0485L41.8673 27.6611C40.7909 24.5412 34.6115 21.6666 29.1606 19.1308C25.7969 17.566 22.62 16.0879 20.7061 14.5946C17.5792 12.3694 18.0219 9.7766 18.0423 9.66733C18.0996 9.36094 18.3363 9.11311 18.6507 9.02945C18.9667 8.94684 19.3037 9.04096 19.5196 9.27467C22.0925 12.0573 25.4798 13.1767 29.8835 12.6988C30.8272 12.5362 31.9229 12.3229 33.083 12.098C36.2226 11.4879 39.7767 10.7972 42.5919 10.7496C42.6244 10.7454 42.6574 10.7439 42.6916 10.7439L42.7736 10.7449C42.7819 10.7449 42.8942 10.7439 42.9024 10.7439C42.9366 10.7439 42.9702 10.7454 43.0032 10.7496C45.8179 10.7972 49.372 11.4879 52.511 12.098C53.6711 12.3229 54.7668 12.5362 55.7634 12.7056C60.112 13.1788 63.5004 12.0578 66.0739 9.27467C66.2897 9.04096 66.6273 8.94684 66.9427 9.02945C67.2571 9.11311 67.4939 9.36094 67.5512 9.66733C67.5715 9.7766 68.0142 12.3694 64.8587 14.6166C62.974 16.0879 59.7971 17.566 56.434 19.1308C50.9825 21.6666 44.8031 24.5412 43.7118 27.7102L43.621 28.0495C43.5235 28.4066 43.1843 28.655 42.7967 28.655" fill="#231717"/>
<path id="Fill 23" fill-rule="evenodd" clip-rule="evenodd" d="M66.7137 10.6729C65.5475 12.3444 63.7812 13.7074 61.7153 14.4682C60.683 14.8446 59.5917 15.0684 58.4938 15.1913C57.4014 15.322 56.2776 15.299 55.161 15.1897C53.017 14.9184 50.9908 14.5147 48.9315 14.2125C46.8899 13.9004 44.845 13.5966 42.8876 13.5658L41.7027 13.5469L41.6972 12.4207V12.4165L42.9024 13.5616C42.8325 13.5642 42.762 13.5647 42.6921 13.5621L43.8979 12.4165V12.4207L43.893 13.5475L42.707 13.5663C40.7496 13.5977 38.7047 13.9019 36.6636 14.2151C34.6043 14.5163 32.5787 14.9225 30.4341 15.1934C29.3169 15.3021 28.1937 15.3241 27.1008 15.1939C26.0023 15.0716 24.911 14.8467 23.8781 14.4708C21.8123 13.7095 20.0459 12.3454 18.8809 10.6729C20.4539 12.0134 22.2748 12.9964 24.2299 13.4011C25.2017 13.618 26.1972 13.7095 27.1905 13.6996C27.6866 13.7027 28.1843 13.6651 28.6793 13.6348C28.9266 13.617 29.1644 13.5778 29.4061 13.5501C29.6467 13.5218 29.8863 13.4978 30.1291 13.4335C32.109 12.976 34.1793 12.5164 36.244 12.0866C38.3231 11.6778 40.4352 11.3264 42.6761 11.2757L41.4857 12.4207V12.4165L41.4797 11.2323L42.6921 11.2715C42.762 11.2731 42.8325 11.2741 42.9024 11.272L44.1143 11.2344L44.1083 12.4165V12.4207L42.9184 11.2762C45.1594 11.3269 47.2704 11.6788 49.35 12.0898C51.4147 12.518 53.4844 12.9807 55.4649 13.4366C55.7083 13.5014 55.9473 13.525 56.1879 13.5537C56.4301 13.5809 56.668 13.6201 56.9147 13.6379C57.4102 13.6677 57.9079 13.7064 58.4046 13.7033C59.3979 13.7122 60.3934 13.6201 61.3652 13.4047C63.3209 12.9979 65.1417 12.015 66.7137 10.6729" fill="#F0D5E1"/>
<path id="Fill 25" fill-rule="evenodd" clip-rule="evenodd" d="M20.8848 12.5229C21.1485 12.8099 21.4778 13.1043 21.8885 13.3971C23.6791 14.7936 26.769 16.2314 30.0407 17.7534C35.3353 20.2165 40.7879 22.7523 42.9347 25.9156C45.1073 22.7351 50.5401 20.2071 55.8159 17.7534C59.0876 16.2314 62.1781 14.7936 63.9389 13.4195C64.3558 13.122 64.69 12.823 64.9576 12.5333C62.3962 14.1541 59.2759 14.7737 55.648 14.3784C54.5765 14.1981 53.4715 13.9832 52.3004 13.7552C49.2021 13.1539 45.6899 12.4706 43.0227 12.4387C43.0035 12.4382 42.9837 12.4371 42.9644 12.4361C42.949 12.4361 42.9374 12.4366 42.9352 12.4366L42.8945 12.4355C42.8746 12.4371 42.8537 12.4382 42.8339 12.4387C40.1668 12.4706 36.6551 13.1539 33.5568 13.7552C32.3857 13.9832 31.2801 14.1981 30.262 14.3711C26.584 14.7721 23.4511 14.1505 20.8848 12.5229V12.5229ZM42.9283 28.7287C42.5407 28.7287 42.2021 28.4799 42.1046 28.1233L41.9984 27.7353C40.9219 24.6145 34.7431 21.7404 29.2922 19.2035C25.928 17.6397 22.751 16.1616 20.8371 14.6673C17.7108 12.4421 18.1535 9.84982 18.1744 9.74055C18.2311 9.43469 18.4679 9.18686 18.7829 9.1032C19.0978 9.01955 19.4353 9.11418 19.6517 9.34842C22.2252 12.1315 25.6208 13.2515 30.0145 12.772C30.9588 12.6094 32.0551 12.3966 33.2157 12.1713C36.3542 11.5611 39.9083 10.8704 42.7229 10.8228C42.7554 10.8192 42.789 10.8166 42.8226 10.8166L42.9041 10.8181L43.034 10.8166C43.0676 10.8166 43.1012 10.8192 43.1348 10.8228C45.9484 10.8704 49.5019 11.5611 52.6409 12.1713C53.801 12.3966 54.8973 12.6094 55.895 12.7788C60.2447 13.2509 63.6314 12.131 66.2055 9.34842C66.4213 9.11418 66.7588 9.01955 67.0743 9.1032C67.3887 9.18686 67.6255 9.43469 67.6828 9.74055C67.7031 9.84982 68.1458 12.4426 64.9898 14.6898C63.1051 16.1616 59.9281 17.6397 56.5645 19.2035C51.113 21.7404 44.9347 24.6145 43.8429 27.7834L43.7526 28.1222C43.6557 28.4788 43.317 28.7287 42.9289 28.7287H42.9283Z" fill="#231717"/>
<path id="Fill 27" fill-rule="evenodd" clip-rule="evenodd" d="M67.6236 28.2614C67.6236 34.638 62.1798 39.8079 55.4641 39.8079C48.7485 39.8079 43.3047 34.638 43.3047 28.2614C43.3047 21.8842 48.7485 16.7148 55.4641 16.7148C62.1798 16.7148 67.6236 21.8842 67.6236 28.2614" fill="#EDC5D1"/>
<path id="Fill 29" fill-rule="evenodd" clip-rule="evenodd" d="M55.4635 17.5237C49.228 17.5237 44.1553 22.3412 44.1553 28.2624C44.1553 34.1836 49.228 39.0006 55.4635 39.0006C61.699 39.0006 66.7723 34.1836 66.7723 28.2624C66.7723 22.3412 61.699 17.5237 55.4635 17.5237M55.4638 40.6164C48.2895 40.6164 42.4531 35.0742 42.4531 28.2621C42.4531 21.4494 48.2895 15.9072 55.4638 15.9072C62.6381 15.9072 68.4745 21.4494 68.4745 28.2621C68.4745 35.0742 62.6381 40.6164 55.4638 40.6164" fill="#231717"/>
<path id="Fill 31" fill-rule="evenodd" clip-rule="evenodd" d="M42.1431 28.2614C42.1431 34.638 36.6993 39.8079 29.9837 39.8079C23.268 39.8079 17.8242 34.638 17.8242 28.2614C17.8242 21.8842 23.268 16.7148 29.9837 16.7148C36.6993 16.7148 42.1431 21.8842 42.1431 28.2614" fill="#EDC5D1"/>
<path id="Fill 33" fill-rule="evenodd" clip-rule="evenodd" d="M29.9826 17.5237C23.7471 17.5237 18.6738 22.3412 18.6738 28.2624C18.6738 34.1836 23.7471 39.0006 29.9826 39.0006C36.2182 39.0006 41.2908 34.1836 41.2908 28.2624C41.2908 22.3412 36.2182 17.5237 29.9826 17.5237M29.9833 40.6164C22.809 40.6164 16.9727 35.0742 16.9727 28.2621C16.9727 21.4494 22.809 15.9072 29.9833 15.9072C37.1577 15.9072 42.994 21.4494 42.994 28.2621C42.994 35.0742 37.1577 40.6164 29.9833 40.6164" fill="#231717"/>
<path id="Fill 35" fill-rule="evenodd" clip-rule="evenodd" d="M35.6581 28.3836C35.6581 31.3596 33.1176 33.7731 29.9836 33.7731C26.8491 33.7731 24.3086 31.3596 24.3086 28.3836C24.3086 25.4081 26.8491 22.9951 29.9836 22.9951C33.1176 22.9951 35.6581 25.4081 35.6581 28.3836" fill="#231717"/>
<path id="Fill 37" fill-rule="evenodd" clip-rule="evenodd" d="M29.984 23.8047C27.3246 23.8047 25.1602 25.8595 25.1602 28.3848C25.1602 30.9107 27.3246 32.9655 29.984 32.9655C32.6434 32.9655 34.8072 30.9107 34.8072 28.3848C34.8072 25.8595 32.6434 23.8047 29.984 23.8047M29.9833 34.5816C26.3851 34.5816 23.457 31.8021 23.457 28.3848C23.457 24.968 26.3851 22.1875 29.9833 22.1875C33.5815 22.1875 36.509 24.968 36.509 28.3848C36.509 31.8021 33.5815 34.5816 29.9833 34.5816" fill="#231717"/>
<path id="Fill 39" fill-rule="evenodd" clip-rule="evenodd" d="M29.6443 27.1649C29.6443 28.4532 28.5448 29.4968 27.1886 29.4968C25.832 29.4968 24.7324 28.4532 24.7324 27.1649C24.7324 25.8771 25.832 24.833 27.1886 24.833C28.5448 24.833 29.6443 25.8771 29.6443 27.1649" fill="#FEFEFE"/>
<path id="Fill 41" fill-rule="evenodd" clip-rule="evenodd" d="M27.1905 25.2148C26.0573 25.2148 25.1367 26.0901 25.1367 27.1656C25.1367 28.2411 26.0573 29.1158 27.1905 29.1158C28.3225 29.1158 29.2436 28.2411 29.2436 27.1656C29.2436 26.0901 28.3225 25.2148 27.1905 25.2148M27.1888 29.8788C25.6124 29.8788 24.3301 28.6616 24.3301 27.1653C24.3301 25.6684 25.6124 24.4512 27.1888 24.4512C28.7641 24.4512 30.0464 25.6684 30.0464 27.1653C30.0464 28.6616 28.7641 29.8788 27.1888 29.8788" fill="#231717"/>
<path id="Fill 43" fill-rule="evenodd" clip-rule="evenodd" d="M30.7907 29.7898C30.7907 30.4156 30.2561 30.9233 29.597 30.9233C28.938 30.9233 28.4033 30.4156 28.4033 29.7898C28.4033 29.1639 28.938 28.6562 29.597 28.6562C30.2561 28.6562 30.7907 29.1639 30.7907 29.7898" fill="#FEFEFE"/>
<path id="Fill 45" fill-rule="evenodd" clip-rule="evenodd" d="M29.5984 29.0381C29.1618 29.0381 28.8066 29.3753 28.8066 29.7894C28.8066 30.2035 29.1618 30.5418 29.5984 30.5418C30.035 30.5418 30.3896 30.2035 30.3896 29.7894C30.3896 29.3753 30.035 29.0381 29.5984 29.0381M29.5987 31.3048C28.7188 31.3048 28.002 30.6246 28.002 29.7891C28.002 28.9536 28.7188 28.2744 29.5987 28.2744C30.4786 28.2744 31.1943 28.9536 31.1943 29.7891C31.1943 30.6246 30.4786 31.3048 29.5987 31.3048" fill="#231717"/>
<path id="Fill 47" fill-rule="evenodd" clip-rule="evenodd" d="M61.1747 28.3836C61.1747 31.3596 58.6342 33.7731 55.4997 33.7731C52.3657 33.7731 49.8252 31.3596 49.8252 28.3836C49.8252 25.4081 52.3657 22.9951 55.4997 22.9951C58.6342 22.9951 61.1747 25.4081 61.1747 28.3836" fill="#231717"/>
<path id="Fill 49" fill-rule="evenodd" clip-rule="evenodd" d="M55.501 23.8047C52.8416 23.8047 50.6777 25.8595 50.6777 28.3848C50.6777 30.9107 52.8416 32.9655 55.501 32.9655C58.1604 32.9655 60.3248 30.9107 60.3248 28.3848C60.3248 25.8595 58.1604 23.8047 55.501 23.8047M55.5003 34.5816C51.9022 34.5816 48.9746 31.8021 48.9746 28.3848C48.9746 24.968 51.9022 22.1875 55.5003 22.1875C59.0985 22.1875 62.0266 24.968 62.0266 28.3848C62.0266 31.8021 59.0985 34.5816 55.5003 34.5816" fill="#231717"/>
<path id="Fill 51" fill-rule="evenodd" clip-rule="evenodd" d="M55.1619 27.1649C55.1619 28.4532 54.0624 29.4968 52.7062 29.4968C51.3495 29.4968 50.25 28.4532 50.25 27.1649C50.25 25.8771 51.3495 24.833 52.7062 24.833C54.0624 24.833 55.1619 25.8771 55.1619 27.1649" fill="#FEFEFE"/>
<path id="Fill 53" fill-rule="evenodd" clip-rule="evenodd" d="M52.7061 25.2148C51.5735 25.2148 50.6523 26.0901 50.6523 27.1656C50.6523 28.2411 51.5735 29.1158 52.7061 29.1158C53.8392 29.1158 54.7598 28.2411 54.7598 27.1656C54.7598 26.0901 53.8392 25.2148 52.7061 25.2148M52.7058 29.8788C51.13 29.8788 49.8477 28.6616 49.8477 27.1653C49.8477 25.6684 51.13 24.4512 52.7058 24.4512C54.2822 24.4512 55.564 25.6684 55.564 27.1653C55.564 28.6616 54.2822 29.8788 52.7058 29.8788" fill="#231717"/>
<path id="Fill 55" fill-rule="evenodd" clip-rule="evenodd" d="M56.3083 29.7898C56.3083 30.4156 55.7737 30.9233 55.1146 30.9233C54.455 30.9233 53.9209 30.4156 53.9209 29.7898C53.9209 29.1639 54.455 28.6562 55.1146 28.6562C55.7737 28.6562 56.3083 29.1639 56.3083 29.7898" fill="#FEFEFE"/>
<path id="Fill 57" fill-rule="evenodd" clip-rule="evenodd" d="M55.1135 29.0381C54.6769 29.0381 54.3223 29.3753 54.3223 29.7894C54.3223 30.2035 54.6769 30.5418 55.1135 30.5418C55.5501 30.5418 55.9047 30.2035 55.9047 29.7894C55.9047 29.3753 55.5501 29.0381 55.1135 29.0381M55.1138 31.3048C54.2334 31.3048 53.5176 30.6246 53.5176 29.7891C53.5176 28.9536 54.2334 28.2744 55.1138 28.2744C55.9936 28.2744 56.7094 28.9536 56.7094 29.7891C56.7094 30.6246 55.9936 31.3048 55.1138 31.3048" fill="#231717"/>
<path id="Fill 59" fill-rule="evenodd" clip-rule="evenodd" d="M56.6771 53.7782C56.6771 59.8187 50.4801 64.7156 42.8361 64.7156C35.1916 64.7156 28.9951 59.8187 28.9951 53.7782C28.9951 47.7367 35.1916 42.8408 42.8361 42.8408C50.4801 42.8408 56.6771 47.7367 56.6771 53.7782" fill="#EDC5D1"/>
<path id="Fill 61" fill-rule="evenodd" clip-rule="evenodd" d="M42.8355 43.6484C35.6727 43.6484 29.8457 48.1925 29.8457 53.7781C29.8457 59.3631 35.6727 63.9071 42.8355 63.9071C49.9982 63.9071 55.8258 59.3631 55.8258 53.7781C55.8258 48.1925 49.9982 43.6484 42.8355 43.6484M42.8348 65.5242C34.7333 65.5242 28.1426 60.255 28.1426 53.7785C28.1426 47.3015 34.7333 42.0322 42.8348 42.0322C50.9363 42.0322 57.5276 47.3015 57.5276 53.7785C57.5276 60.255 50.9363 65.5242 42.8348 65.5242" fill="#231717"/>
<path id="Fill 63" fill-rule="evenodd" clip-rule="evenodd" d="M29.8957 53.7782C29.7112 52.3581 30.0917 50.8633 30.8411 49.5666C31.6031 48.271 32.7114 47.1621 33.991 46.3062C35.2629 45.4294 36.716 44.8223 38.2097 44.391C39.7123 43.9753 41.2749 43.784 42.8353 43.7578C44.3957 43.7813 45.9578 43.9764 47.4615 44.3889C48.9547 44.8213 50.4094 45.4267 51.6807 46.3041C52.9609 47.1605 54.0692 48.2694 54.8307 49.5656C55.5801 50.8628 55.9605 52.3581 55.7744 53.7782C55.5784 52.3623 54.9953 51.0662 54.1281 49.9954C53.2758 48.912 52.1641 48.0451 50.9545 47.3602C49.7305 46.6925 48.414 46.1749 47.037 45.8654C45.6682 45.5355 44.2531 45.3708 42.8353 45.3734C41.417 45.3682 40.003 45.5371 38.6326 45.8628C37.2561 46.1744 35.9385 46.6889 34.7145 47.3581C33.5043 48.0436 32.3926 48.9105 31.5409 49.9943C30.6737 51.0656 30.0906 52.3623 29.8957 53.7782" fill="#F4E5EF"/>
<path id="Fill 65" fill-rule="evenodd" clip-rule="evenodd" d="M26.3809 63.9436C26.3809 63.9436 27.8119 60.9189 31.459 60.9189C35.1057 60.9189 36.4904 63.9436 36.4904 63.9436H26.3809Z" fill="#D86E93"/>
<path id="Fill 67" fill-rule="evenodd" clip-rule="evenodd" d="M28.0156 63.1346H34.8844C34.217 62.457 33.1142 61.7266 31.4602 61.7266C29.8139 61.7266 28.6978 62.4565 28.0156 63.1346M36.4923 64.7517H26.3827C26.0937 64.7517 25.825 64.6126 25.6675 64.3825C25.5111 64.152 25.4874 63.8623 25.6064 63.6124C25.6741 63.4691 27.3105 60.1104 31.4604 60.1104C35.6179 60.1104 37.207 63.4775 37.273 63.6213C37.3876 63.8707 37.3611 64.1587 37.2042 64.3867C37.0473 64.6147 36.7797 64.7517 36.4923 64.7517" fill="#231717"/>
<path id="Fill 69" fill-rule="evenodd" clip-rule="evenodd" d="M48.9561 63.9436C48.9561 63.9436 50.3871 60.9189 54.0342 60.9189C57.6809 60.9189 59.0662 63.9436 59.0662 63.9436H48.9561Z" fill="#D86E93"/>
<path id="Fill 71" fill-rule="evenodd" clip-rule="evenodd" d="M50.5898 63.1346H57.4591C56.7913 62.457 55.6884 61.7266 54.0344 61.7266C52.3881 61.7266 51.272 62.4565 50.5898 63.1346M59.0668 64.7517H48.9567C48.6681 64.7517 48.3989 64.6126 48.242 64.3825C48.0851 64.152 48.0619 63.8623 48.1803 63.6124C48.248 63.4691 49.8844 60.1104 54.0343 60.1104C58.1919 60.1104 59.7815 63.4775 59.847 63.6213C59.9615 63.8707 59.9356 64.1587 59.7782 64.3867C59.6212 64.6147 59.3536 64.7517 59.0668 64.7517" fill="#231717"/>
<path id="Fill 73" fill-rule="evenodd" clip-rule="evenodd" d="M42.8357 43.1022C42.4773 43.1022 42.1552 42.8884 42.0341 42.5663C41.353 40.751 33.9435 40.3275 29.1478 40.614C28.6644 40.6438 28.2751 40.3034 28.2448 39.8579C28.2157 39.413 28.5719 39.0287 29.041 39.001C30.9846 38.886 39.8344 38.5043 42.8016 40.9198C45.6086 38.508 54.3884 38.8865 56.3265 39.001C56.7957 39.0287 57.1513 39.4125 57.1222 39.8579C57.093 40.3034 56.6905 40.6401 56.2203 40.614C50.5304 40.2747 44.1109 40.9026 43.6578 42.5041C43.5609 42.8455 43.2421 43.0876 42.8699 43.1017C42.8583 43.1022 42.8468 43.1022 42.8357 43.1022" fill="#231717"/>
<path id="Fill 75" fill-rule="evenodd" clip-rule="evenodd" d="M19.0107 9.88184L21.6646 19.8431Z" fill="#C6511C"/>
<path id="Fill 77" fill-rule="evenodd" clip-rule="evenodd" d="M21.665 20.6517C21.2845 20.6517 20.9376 20.4076 20.8402 20.0416L18.1863 10.0798C18.0712 9.64686 18.3471 9.20715 18.8024 9.09787C19.26 8.98912 19.7214 9.25055 19.837 9.68346L22.4909 19.6452C22.6059 20.0776 22.3301 20.5174 21.8742 20.6266C21.8037 20.6434 21.7338 20.6517 21.665 20.6517" fill="#231717"/>
<path id="Fill 79" fill-rule="evenodd" clip-rule="evenodd" d="M66.8648 9.88184L64.2109 19.8431Z" fill="#C6511C"/>
<path id="Fill 81" fill-rule="evenodd" clip-rule="evenodd" d="M64.2114 20.6517C64.142 20.6517 64.0721 20.6434 64.0022 20.6266C63.5463 20.5174 63.2704 20.0776 63.3855 19.6452L66.0394 9.68346C66.155 9.25055 66.6175 8.98912 67.0734 9.09787C67.5293 9.20715 67.8052 9.64686 67.6895 10.0798L65.0362 20.0416C64.9382 20.4076 64.5919 20.6517 64.2114 20.6517" fill="#231717"/>
<path id="Fill 83" fill-rule="evenodd" clip-rule="evenodd" d="M38.2988 58.0325C38.3781 57.5578 38.5851 57.1118 38.899 56.7165C39.0537 56.5157 39.2519 56.3395 39.4859 56.1858C39.721 56.0358 40.02 55.9302 40.3371 55.926C40.6537 55.9207 40.961 56.0201 41.2032 56.1696C41.4433 56.3244 41.6349 56.5084 41.7918 56.7102C42.0974 57.1144 42.2857 57.562 42.3738 58.0325C42.017 57.6942 41.7043 57.3528 41.3701 57.0731C41.0326 56.7976 40.6769 56.6057 40.3498 56.6177C40.0206 56.6156 39.6517 56.8148 39.3114 57.0857C38.97 57.3601 38.6457 57.6885 38.2988 58.0325" fill="#231717"/>
<path id="Fill 85" fill-rule="evenodd" clip-rule="evenodd" d="M42.9922 58.0325C43.0715 57.5578 43.2785 57.1118 43.5923 56.7165C43.7471 56.5157 43.9453 56.3395 44.1793 56.1858C44.4144 56.0358 44.7134 55.9302 45.0305 55.926C45.3471 55.9207 45.6543 56.0201 45.8966 56.1696C46.1367 56.3244 46.3283 56.5084 46.4852 56.7102C46.7908 57.1144 46.9791 57.562 47.0672 58.0325C46.7104 57.6942 46.3976 57.3528 46.0634 57.0731C45.7259 56.7976 45.3702 56.6057 45.0432 56.6177C44.7139 56.6156 44.345 56.8148 44.0047 57.0857C43.6634 57.3601 43.3391 57.6885 42.9922 58.0325" fill="#231717"/>
<path id="Fill 87" fill-rule="evenodd" clip-rule="evenodd" d="M35.9521 53.3616C36.0314 52.8874 36.2385 52.4414 36.5523 52.0456C36.707 51.8448 36.9052 51.6687 37.1392 51.5149C37.3743 51.3649 37.6733 51.2593 37.9905 51.2551C38.3071 51.2499 38.6143 51.3492 38.8566 51.4987C39.0966 51.6535 39.2882 51.8375 39.4452 52.0393C39.7507 52.4435 39.939 52.8911 40.0271 53.3616C39.6704 53.0239 39.3576 52.6824 39.0234 52.4022C38.6859 52.1267 38.3302 51.9348 38.0031 51.9468C37.6739 51.9447 37.305 52.1444 36.9647 52.4148C36.6233 52.6892 36.299 53.0176 35.9521 53.3616" fill="#231717"/>
<path id="Fill 89" fill-rule="evenodd" clip-rule="evenodd" d="M40.6465 53.3616C40.7258 52.8874 40.9328 52.4414 41.2466 52.0456C41.4014 51.8448 41.5996 51.6687 41.8336 51.5149C42.0687 51.3649 42.3677 51.2593 42.6848 51.2551C43.0014 51.2499 43.3086 51.3492 43.5509 51.4987C43.791 51.6535 43.9826 51.8375 44.1395 52.0393C44.4451 52.4435 44.6334 52.8911 44.7215 53.3616C44.3647 53.0239 44.0519 52.6824 43.7177 52.4022C43.3802 52.1267 43.0245 51.9348 42.6975 51.9468C42.3682 51.9447 41.9993 52.1444 41.659 52.4148C41.3177 52.6892 40.9934 53.0176 40.6465 53.3616" fill="#231717"/>
<path id="Fill 91" fill-rule="evenodd" clip-rule="evenodd" d="M45.3398 53.3616C45.4191 52.8874 45.6262 52.4414 45.94 52.0456C46.0947 51.8448 46.2929 51.6687 46.5269 51.5149C46.762 51.3649 47.061 51.2593 47.3782 51.2551C47.6948 51.2499 48.002 51.3492 48.2443 51.4987C48.4843 51.6535 48.6759 51.8375 48.8329 52.0393C49.1384 52.4435 49.3267 52.8911 49.4148 53.3616C49.058 53.0239 48.7453 52.6824 48.4111 52.4022C48.0736 52.1267 47.7179 51.9348 47.3908 51.9468C47.0616 51.9447 46.6927 52.1444 46.3524 52.4148C46.011 52.6892 45.6867 53.0176 45.3398 53.3616" fill="#231717"/>
<path id="Fill 93" fill-rule="evenodd" clip-rule="evenodd" d="M29.1124 58.1466C28.9214 57.9317 28.8487 57.801 28.7375 57.6332C28.6466 57.4737 28.5514 57.3158 28.4748 57.1558C28.3146 56.8385 28.1896 56.5164 28.0696 56.1954C27.8543 55.5486 27.6836 54.9008 27.5818 54.2493C27.3703 52.948 27.3026 51.6482 27.3742 50.3651C27.3791 49.7225 27.4749 49.0862 27.5212 48.4499C27.6087 47.8167 27.6968 47.1851 27.8009 46.5572C27.9292 45.9329 28.0421 45.3071 28.1819 44.688L28.6433 42.8408L28.3917 44.7205C28.3223 45.3479 28.2805 45.9774 28.2238 46.6032C28.1913 47.2312 28.1742 47.8586 28.1588 48.4844C28.1841 49.1097 28.1599 49.7351 28.2254 50.3546C28.2948 51.5964 28.5024 52.823 28.83 53.9936C28.9897 54.5803 29.2099 55.1423 29.4566 55.6788C29.5904 55.9423 29.7258 56.2006 29.8811 56.439C29.956 56.5608 30.0413 56.6685 30.1206 56.7804C30.196 56.8735 30.3089 57.0052 30.3397 57.0256C30.7301 57.286 30.8243 57.7984 30.5501 58.1691C30.2764 58.5393 29.7374 58.6292 29.347 58.3688C29.2859 58.328 29.2325 58.2815 29.1862 58.2297L29.1124 58.1466Z" fill="#231717"/>
<path id="Fill 95" fill-rule="evenodd" clip-rule="evenodd" d="M55.3018 57.0262C55.3332 57.0052 55.4461 56.8735 55.521 56.7799C55.6002 56.668 55.6856 56.5603 55.7605 56.439C55.9163 56.2011 56.0512 55.9418 56.185 55.6793C56.4317 55.1418 56.6524 54.5792 56.8121 53.9926C57.1392 52.823 57.3473 51.5959 57.4167 50.3541C57.4822 49.7351 57.458 49.1092 57.4827 48.4839C57.4673 47.8586 57.4503 47.2306 57.4178 46.6022C57.3611 45.9763 57.3192 45.3479 57.2504 44.7205L56.9988 42.8408L57.4602 44.6875C57.5995 45.3071 57.7129 45.9324 57.8406 46.5572C57.9447 47.1846 58.0333 47.8162 58.1203 48.4494C58.1666 49.0852 58.2624 49.7215 58.2679 50.3651C58.3389 51.6482 58.2718 52.9474 58.0598 54.2488C57.9579 54.9003 57.7878 55.5486 57.5725 56.1948C57.4525 56.5159 57.3269 56.8379 57.1667 57.1563C57.0907 57.3158 56.9949 57.4732 56.9046 57.6332C56.7934 57.8 56.7202 57.9312 56.5291 58.1466L56.4586 58.2261C56.1508 58.5727 55.6058 58.6167 55.2413 58.3233C54.8768 58.0321 54.8305 57.5145 55.1383 57.1678C55.1867 57.114 55.244 57.0648 55.3018 57.0262" fill="#231717"/>
<path id="Fill 97" fill-rule="evenodd" clip-rule="evenodd" d="M147.406 28.1566H143.11L144.334 25.5068H139.897L138.672 28.1566H135.768L134.543 25.5068H129.97L131.195 28.1566H126.694V29.6603H147.406V28.1566Z" fill="#231717"/>
<path id="Fill 99" fill-rule="evenodd" clip-rule="evenodd" d="M146.317 21.952H139.458L138.71 20.5293H134.387L135.203 21.952H127.646V23.4557H146.317V21.952Z" fill="#231717"/>
<path id="Fill 101" fill-rule="evenodd" clip-rule="evenodd" d="M122.491 29.9839H124.942V28.3511H122.491V20.5293H118.525V28.3511H116.211V29.9839H118.525V44.9295L116.075 45.6405V47.2723L125.283 44.6257V43.0336L122.491 43.8738V29.9839Z" fill="#231717"/>
<path id="Fill 103" fill-rule="evenodd" clip-rule="evenodd" d="M167.145 35.672V34.1683H162.652V23.7777H166.804V22.2746H156.155L156.292 20.5293H152.255L151.369 30.6296H155.465L156.01 23.7777H158.414V34.1683H151.743V35.672H158.354L151.139 47.9855H155.87L160.053 40.6353L162.987 47.9855H167.695L162.317 35.672H167.145Z" fill="#231717"/>
<path id="Fill 105" fill-rule="evenodd" clip-rule="evenodd" d="M192.126 43.7284V30.3545H185.846V31.8582H187.956V41.3285L186.185 42.8155V48.2165L190.621 44.807L194.574 47.8568H216.905V46.3855H195.514L192.126 43.7284Z" fill="#231717"/>
<path id="Fill 107" fill-rule="evenodd" clip-rule="evenodd" d="M192.331 23.481L186.867 20.7178V25.4882L192.331 28.4203V23.481Z" fill="#231717"/>
<path id="Fill 109" fill-rule="evenodd" clip-rule="evenodd" d="M112.28 23.7138V22.3392H102.384L103.065 20.4648H98.9904L98.1744 22.3392H95.3806V23.7138H97.719L94.248 30.7597H98.3307L101.666 23.7138H106.083L108.738 30.63H112.658L110.071 23.7138H112.28Z" fill="#231717"/>
<mask id="mask1_222_17087" style="mask-type:alpha" maskUnits="userSpaceOnUse" x="16" y="12" width="201" height="57">
<path id="Clip 112" fill-rule="evenodd" clip-rule="evenodd" d="M16.9727 69.0003H216.973V12.4189H16.9727V69.0003Z" fill="white"/>
</mask>
<g mask="url(#mask1_222_17087)">
<path id="Fill 111" fill-rule="evenodd" clip-rule="evenodd" d="M100.283 30.6951H107.108V29.1914H100.283V30.6951Z" fill="#231717"/>
<path id="Fill 113" fill-rule="evenodd" clip-rule="evenodd" d="M86.0723 30.6782H89.3896V22.6797H86.0723V30.6782ZM90.4288 38.6456H93.4246V37.1419H90.4288V32.1822H93.0833V31.5182H92.9913L93.0833 31.3321V21.1758H82.4457V32.1822H86.9391V45.107L85.1866 45.3443V34.9439H82.1059V46.2625L80.8809 46.4564V47.9821L93.9686 45.9111V44.3881L90.4288 44.97V38.6456Z" fill="#231717"/>
<path id="Fill 114" fill-rule="evenodd" clip-rule="evenodd" d="M131.341 40.3739V37.5469H142.742C142.716 38.1084 142.454 40.1601 140.1 40.3739H131.341ZM131.341 36.2363H142.759V33.4093H131.341V36.2363ZM143.956 46.4497H142.505V41.8774H143.595C146.459 41.8999 146.586 39.3129 146.589 38.9349V31.9062H127.511V41.8774H130.945L126.453 47.9221H131.466L135.959 41.8774H138.266V47.9221H146.864L147.659 44.1225H144.637L143.956 46.4497Z" fill="#231717"/>
<path id="Fill 115" fill-rule="evenodd" clip-rule="evenodd" d="M94.957 36.3367H98.2898L95.9751 41.5725H108.073L107.723 44.5658C107.473 45.3124 106.884 46.1945 105.5 46.4036H97.4755V47.8749H108.397C108.478 47.8555 108.561 47.8388 108.663 47.8404C110.873 47.8832 111.479 46.39 111.645 45.4965L112.033 40.0688H100.836L102.459 36.3367H112.469V34.833H94.957V36.3367Z" fill="#231717"/>
<path id="Fill 116" fill-rule="evenodd" clip-rule="evenodd" d="M200.5 32.1644H211.918V28.7549H200.5V32.1644ZM200.5 37.0769H211.918V33.668H200.5V37.0769ZM211.919 39.4751C211.786 40.3305 211.233 41.9555 208.914 41.9555C208.592 41.9555 208.338 41.9691 208.12 41.99H200.5V38.5811H211.919V39.4751ZM212.778 22.8575L214.003 20.5303H209.376L208.082 22.8575H203.584L202.291 20.5303H197.801L199.027 22.8575H195.24V24.3612H203.204L201.911 27.252H196.26V43.4937H212.494C212.678 43.4811 212.881 43.4728 213.126 43.4728C215.631 43.4728 216.077 41.5801 216.155 40.8062V27.252H206.558L207.849 24.3612H216.972V22.8575H212.778Z" fill="#231717"/>
<path id="Fill 117" fill-rule="evenodd" clip-rule="evenodd" d="M173.408 23.4814H177.747V43.4667C177.744 43.8411 177.618 46.4109 174.702 46.4109H173.408V23.4814ZM168.018 21.9775L169.17 24.9253V47.8819H179.31C181.647 47.6901 181.951 45.7074 181.985 45.0936V21.9775H172.338H168.018Z" fill="#231717"/>
<path id="Fill 118" fill-rule="evenodd" clip-rule="evenodd" d="M80.9326 61.5519C81.5713 62.0214 82.2932 62.2567 83.097 62.2567C83.7407 62.2567 84.25 62.1071 84.6255 61.807C85.0016 61.5074 85.1893 61.1053 85.1893 60.6024C85.1893 59.4793 84.343 58.9178 82.6516 58.9178H81.873V57.9902H82.6147C84.114 57.9902 84.8639 57.4642 84.8639 56.4102C84.8639 55.4367 84.2907 54.9504 83.1455 54.9504C82.4903 54.9504 81.873 55.1595 81.2949 55.5799V54.5206C81.9055 54.1844 82.6186 54.0166 83.4345 54.0166C84.2307 54.0166 84.87 54.2142 85.3528 54.61C85.8352 55.0048 86.0758 55.5172 86.0758 56.1467C86.0758 57.3069 85.4525 58.054 84.2065 58.3855V58.4085C84.8821 58.4775 85.4162 58.7034 85.8076 59.0872C86.1997 59.4715 86.3957 59.9493 86.3957 60.5213C86.3957 61.3197 86.0939 61.9623 85.4877 62.4512C84.8826 62.9395 84.0782 63.1842 83.0734 63.1842C82.1885 63.1842 81.4755 63.0273 80.9326 62.7147V61.5519Z" fill="#231717"/>
<path id="Fill 119" fill-rule="evenodd" clip-rule="evenodd" d="M90.4482 60.1317C90.4482 60.7158 90.6118 61.2161 90.9399 61.6318C91.267 62.048 91.7025 62.2561 92.2454 62.2561C92.7597 62.2561 93.1781 62.0767 93.4991 61.7181C93.8207 61.3594 93.9814 60.8972 93.9814 60.3325C93.9814 59.7213 93.8306 59.2471 93.5266 58.9062C93.2233 58.5663 92.7916 58.3975 92.2333 58.3975C91.7025 58.3975 91.2725 58.5684 90.9421 58.9119C90.6134 59.2555 90.4482 59.6627 90.4482 60.1317V60.1317ZM94.5972 55.3049C94.111 55.0675 93.6023 54.9494 93.072 54.9494C92.2632 54.9494 91.614 55.284 91.1246 55.9517C90.6329 56.6193 90.384 57.5317 90.3757 58.6882H90.406C90.8487 57.8757 91.554 57.469 92.5236 57.469C93.3303 57.469 93.9756 57.7189 94.4579 58.2192C94.9402 58.7191 95.1825 59.3831 95.1825 60.2113C95.1825 61.0787 94.9039 61.7898 94.3472 62.3471C93.79 62.9055 93.0792 63.1831 92.2147 63.1831C91.2661 63.1831 90.5216 62.8313 89.981 62.1265C89.4403 61.4227 89.1699 60.4241 89.1699 59.129C89.1699 57.5641 89.5251 56.3208 90.2342 55.3985C90.9434 54.4778 91.8778 54.0166 93.0351 54.0166C93.6986 54.0166 94.2195 54.1018 94.5972 54.2738V55.3049Z" fill="#231717"/>
<path id="Fill 120" fill-rule="evenodd" clip-rule="evenodd" d="M98.6016 58.7231C98.6016 61.078 99.2314 62.256 100.49 62.256C101.727 62.256 102.346 61.0592 102.346 58.6661C102.346 56.1878 101.739 54.9492 100.525 54.9492C99.2425 54.9492 98.6016 56.2072 98.6016 58.7231M97.3965 58.775C97.3965 57.2091 97.6696 56.0254 98.2163 55.2218C98.7625 54.4187 99.5548 54.0166 100.592 54.0166C102.57 54.0166 103.558 55.5318 103.558 58.5622C103.558 60.0591 103.28 61.2036 102.723 61.9958C102.167 62.7868 101.386 63.1831 100.38 63.1831C99.4321 63.1831 98.697 62.8077 98.1767 62.0559C97.6564 61.304 97.3965 60.2102 97.3965 58.775" fill="#231717"/>
<path id="Fill 121" fill-rule="evenodd" clip-rule="evenodd" d="M106.29 54.208H116.54V54.9855H110.453C110.424 55.7358 110.387 56.44 110.34 57.0957H115.274C115.203 58.4687 115.122 59.7716 115.03 61.0029C114.966 61.7501 114.785 62.2886 114.488 62.6185C114.204 62.9212 113.69 63.076 112.946 63.0838C112.556 63.0964 111.897 63.0692 110.968 63.0023C110.933 62.7461 110.88 62.4366 110.809 62.0732C111.709 62.1877 112.396 62.2447 112.872 62.2447C113.63 62.2996 114.048 61.8442 114.126 60.8821C114.211 59.9394 114.275 58.933 114.318 57.8627H110.278C110.011 60.3264 108.848 62.1574 106.79 63.3557C106.626 63.1471 106.417 62.9082 106.163 62.6384C108.155 61.4876 109.22 59.7716 109.363 57.4894C109.43 56.7522 109.474 55.9182 109.495 54.9855H106.29V54.208Z" fill="#231717"/>
<path id="Fill 122" fill-rule="evenodd" clip-rule="evenodd" d="M124.606 54.2178C126.073 54.2053 127.427 54.0662 128.668 53.8037L128.945 54.5812C127.541 54.7563 126.346 54.8708 125.361 54.9252V57.2775H129.241V57.9635H127.722V63.2542H126.935V57.9635H125.361V58.4581C125.361 60.5249 124.84 62.1342 123.798 63.2845C123.629 63.0759 123.44 62.8604 123.234 62.6377C124.148 61.6893 124.606 60.2854 124.606 58.4278V54.2178ZM122.819 59.9023C123.217 60.4147 123.564 60.8848 123.861 61.3156L123.181 61.76C122.869 61.2424 122.539 60.7535 122.191 60.296L122.819 59.9023ZM118.98 54.5208H121.278C121.125 54.2448 120.952 53.9457 120.756 53.6226L121.437 53.3193C121.657 53.6628 121.863 54.01 122.054 54.3598L121.697 54.5208H123.957V55.1671H118.98V54.5208ZM118.938 58.751H121.107V57.7921H121.873V58.751H123.957V59.3972H121.873V62.0329C121.873 62.7465 121.511 63.1026 120.788 63.1026C120.484 63.1026 120.14 63.0995 119.757 63.0932C119.729 62.8705 119.69 62.6153 119.64 62.3251C120.052 62.3654 120.373 62.3858 120.607 62.3858C120.941 62.3858 121.107 62.2143 121.107 61.8708V59.3972H118.938V58.751ZM119.757 59.8516L120.48 60.1757C120.098 60.9359 119.718 61.6219 119.342 62.2342C119.137 62.1139 118.903 61.9921 118.641 61.8708C118.988 61.3594 119.361 60.6865 119.757 59.8516V59.8516ZM118.641 56.8638H120.352C120.052 56.4084 119.768 56.0183 119.502 55.6916L120.076 55.3078C120.309 55.5781 120.611 55.9577 120.98 56.4497L120.379 56.8638H121.783C122.169 56.3341 122.526 55.8129 122.851 55.2979L123.607 55.7015C123.263 56.1234 122.934 56.5093 122.623 56.8638H124.234V57.509H118.641V56.8638Z" fill="#231717"/>
<path id="Fill 123" fill-rule="evenodd" clip-rule="evenodd" d="M137.797 53.46H138.69V56.9338L139.116 56.4784C140.129 57.2255 141.033 57.9094 141.826 58.5279L141.221 59.2756C140.469 58.6157 139.625 57.913 138.69 57.1654V63.3548H137.797V53.46ZM131.078 58.5995C132.134 57.0712 132.927 55.3317 133.459 53.3799L134.331 53.612C134.161 54.1574 133.984 54.6823 133.799 55.1868H136.755V55.9335C136.38 59.2797 134.788 61.7323 131.981 63.2946C131.833 63.0724 131.648 62.8335 131.429 62.5773C132.804 61.8035 133.86 60.8346 134.597 59.6697C134.101 59.2724 133.544 58.8687 132.927 58.4583L133.47 57.8424C134.072 58.2596 134.586 58.6266 135.011 58.9424C135.451 58.074 135.735 57.0785 135.862 55.9544H133.491C132.995 57.1454 132.353 58.3135 131.567 59.458C131.425 59.1814 131.262 58.8959 131.078 58.5995V58.5995Z" fill="#231717"/>
<path id="Fill 124" fill-rule="evenodd" clip-rule="evenodd" d="M148.881 54.0254H153.623C153.58 54.9744 153.527 55.7822 153.464 56.4488C153.386 57.2629 152.915 57.6702 152.049 57.6702C151.632 57.6702 151.16 57.667 150.636 57.6602C150.6 57.3507 150.546 57.0778 150.475 56.8425C150.993 56.8901 151.468 56.9162 151.9 56.923C152.368 56.923 152.627 56.7008 152.677 56.2575C152.719 55.7655 152.751 55.2572 152.772 54.7328H150.657C150.613 55.5605 150.483 56.1827 150.263 56.6004C149.994 57.1316 149.466 57.6331 148.679 58.1047C148.502 57.9028 148.293 57.7073 148.052 57.5196C148.824 57.0951 149.321 56.671 149.539 56.247C149.717 55.9437 149.824 55.4392 149.859 54.7328H148.881V54.0254ZM145.361 58.2256H152.699V61.5373H151.89V58.9325H146.17V61.5979H145.361V58.2256ZM146.66 55.3387L147.265 54.9544C147.72 55.4735 148.177 56.0314 148.638 56.6306L147.968 57.1059C147.84 56.9234 147.709 56.7414 147.574 56.56C146.9 56.903 146.164 57.281 145.362 57.6909C145.15 57.8117 144.962 57.9534 144.799 58.115L144.183 57.3887C144.417 57.1456 144.534 56.8465 144.534 56.4894V54.0864C145.441 54.0394 146.649 53.8914 148.159 53.6425L148.563 54.3395C146.904 54.5748 145.827 54.7154 145.331 54.763V56.8528C145.877 56.6102 146.486 56.3247 147.16 55.9953C146.997 55.7726 146.829 55.5541 146.66 55.3387V55.3387ZM149.434 59.3965C149.441 60.0563 149.356 60.6116 149.179 61.0623C150.923 61.5877 152.483 62.0891 153.857 62.567L153.422 63.3544C151.905 62.7756 150.377 62.2246 148.838 61.6991C148.286 62.4666 146.797 63.0282 144.373 63.3848C144.253 63.1693 144.108 62.9137 143.938 62.6183C145.872 62.3558 147.138 62.0086 147.733 61.5773C148.335 61.1935 148.63 60.4668 148.616 59.3965H149.434Z" fill="#231717"/>
<path id="Fill 125" fill-rule="evenodd" clip-rule="evenodd" d="M156.225 62.4568C159.315 60.7606 160.949 57.7846 161.126 53.5312H162.062C162.023 54.2517 161.949 54.9382 161.839 55.5913C162.718 58.9568 164.369 61.1711 166.793 62.234C166.496 62.5441 166.233 62.8374 166.007 63.1129C163.901 61.982 162.4 59.9816 161.504 57.1101C160.727 59.8838 159.192 61.9219 156.894 63.2243C156.703 62.9744 156.48 62.7192 156.225 62.4568" fill="#231717"/>
<path id="Fill 126" fill-rule="evenodd" clip-rule="evenodd" d="M171.691 57.581C173.818 57.0629 174.97 56.1876 175.147 54.9558H173.447C173.191 55.4541 172.907 55.9016 172.596 56.2985C172.368 56.151 172.131 56.0057 171.883 55.8645C172.55 55.1174 173.02 54.2526 173.297 53.2696L174.095 53.4516C173.988 53.7475 173.879 54.0272 173.765 54.2897H178.805V54.9255L178.081 56.2985C177.84 56.1913 177.582 56.0867 177.306 55.9853L177.869 54.9558H175.977C175.92 55.1717 175.855 55.3803 175.785 55.5822C176.394 56.5374 177.539 57.2004 179.219 57.5705C179.021 57.8267 178.843 58.072 178.688 58.3083C177.178 57.8508 176.101 57.1774 175.455 56.288C174.966 57.0958 173.892 57.7488 172.234 58.2471C172.093 58.0458 171.911 57.8231 171.691 57.581V57.581ZM170.32 58.2881H177.71V61.5789H176.881V58.9945H171.151V61.5789H170.32V58.2881ZM169.651 53.4414C170.26 53.8043 170.853 54.1818 171.427 54.5718L170.884 55.1976C170.374 54.8144 169.806 54.4134 169.183 53.9967L169.651 53.4414ZM174.435 59.3789C174.428 60.1057 174.375 60.6641 174.276 61.0546C175.892 61.5529 177.434 62.071 178.9 62.6096L178.454 63.3463C177.115 62.8208 175.623 62.2791 173.978 61.7207C173.503 62.5212 171.989 63.0775 169.437 63.387C169.31 63.1308 169.158 62.8679 168.98 62.5996C171.327 62.4046 172.744 61.9869 173.234 61.3474C173.496 61.0112 173.62 60.3545 173.606 59.3789H174.435ZM171.542 55.6328C171.67 55.8953 171.809 56.1342 171.957 56.3502C171.114 56.9493 170.234 57.5982 169.32 58.2988L168.768 57.6123C169.766 56.9598 170.692 56.2994 171.542 55.6328V55.6328Z" fill="#231717"/>
<path id="Fill 127" fill-rule="evenodd" clip-rule="evenodd" d="M191.793 62.3549L191.123 62.8396C190.621 62.1191 190.074 61.419 189.486 60.7393L190.103 60.3252C190.748 61.0389 191.311 61.7154 191.793 62.3549V62.3549ZM186.85 59.1337H190.274V58.1748H186.85V59.1337ZM186.849 57.5297H190.273V56.5906H186.849V57.5297ZM185.115 62.4454C185.718 61.8331 186.253 61.144 186.721 60.376L187.401 60.7697C186.863 61.5843 186.31 62.2985 185.743 62.9102L185.115 62.4454ZM186.083 55.924H187.466C187.618 55.5439 187.767 55.1465 187.913 54.7324H185.222V57.6405C185.222 60.2855 184.677 62.1803 183.584 63.3248C183.414 63.1157 183.209 62.9076 182.969 62.6985C183.947 61.6622 184.436 59.9792 184.436 57.6504V54.0459H191.814V54.7324H188.832C188.638 55.1366 188.436 55.5334 188.231 55.924H191.038V60.0633H190.272V59.8009H188.901V62.1735C188.901 62.894 188.532 63.2537 187.795 63.2537C187.554 63.2537 187.246 63.2506 186.871 63.2438C186.835 63.042 186.785 62.8098 186.721 62.5474C187.076 62.574 187.385 62.5876 187.647 62.5876C187.973 62.5876 188.136 62.4261 188.136 62.1035V59.8009H186.849V60.0633H186.083V55.924ZM182.236 53.5214C182.796 53.9177 183.373 54.3726 183.968 54.8834C183.72 55.1129 183.508 55.3179 183.33 55.4998C182.714 54.921 182.168 54.4463 181.693 54.0761L182.236 53.5214ZM182.511 58.9316C182.766 59.0869 183.018 59.2009 183.266 59.2752C182.975 60.4191 182.65 61.7283 182.287 63.2028L181.469 62.9403C181.879 61.56 182.227 60.2241 182.511 58.9316V58.9316ZM181.778 56.1162C182.33 56.4932 182.954 56.9439 183.649 57.4688C183.401 57.7517 183.199 57.9707 183.043 58.1255C182.362 57.553 181.764 57.0751 181.246 56.6919L181.778 56.1162Z" fill="#231717"/>
<path id="Fill 128" fill-rule="evenodd" clip-rule="evenodd" d="M200.338 57.832C201.118 57.0513 201.818 56.1897 202.443 55.248L203.24 55.7317C202.439 56.7753 201.691 57.65 200.996 58.3569L200.338 57.832ZM194.926 55.7315L195.596 55.2871C196.389 56.1692 197.073 57.0209 197.647 57.8428L196.894 58.3771C196.347 57.5364 195.692 56.6538 194.926 55.7315V55.7315ZM193.904 58.8422H198.615V54.6212H194.384V53.8438H203.783V54.6212H199.509V58.8422H204.25V59.6191H199.509V63.3345H198.615V59.6191H193.904V58.8422Z" fill="#231717"/>
<path id="Fill 129" fill-rule="evenodd" clip-rule="evenodd" d="M208.658 61.8915H214.506V59.4482H208.658V61.8915ZM215.379 58.7012V63.285H214.507V62.6189H208.66V63.285H207.788V58.7012H215.379ZM213.816 54.6924C214.929 55.6754 215.982 56.6813 216.974 57.7124L216.219 58.3074C215.936 57.9905 215.648 57.6795 215.358 57.3731C212.176 57.5012 209.744 57.6104 208.064 57.7014C207.674 57.7281 207.298 57.783 206.937 57.863L206.586 56.9956C206.912 56.88 207.205 56.7221 207.469 56.5203C208.68 55.5787 209.79 54.4911 210.797 53.2588L211.594 53.7236C210.53 54.9084 209.422 55.9614 208.266 56.8842C210.438 56.8204 212.575 56.7456 214.676 56.6615C214.192 56.1601 213.699 55.6722 213.199 55.1975L213.816 54.6924Z" fill="#231717"/>
</g>
</g>
</g>
</svg>
