<svg width="38" height="34" viewBox="0 0 38 34" fill="none" xmlns="http://www.w3.org/2000/svg">
<g id="Group 427318454">
<rect id="Rectangle 562" x="0.5" y="0.5" width="37" height="33" rx="3.5" stroke="#19ACE8"/>
<g id="Frame">
<path id="Vector" d="M15.5723 24.3593C14.811 24.3593 14.1975 24.9893 14.1975 25.7712C14.1975 26.5531 14.811 27.1832 15.5723 27.1832C16.3336 27.1832 16.947 26.5531 16.947 25.7712C16.947 24.9893 16.3336 24.3593 15.5723 24.3593Z" fill="#19ACE8"/>
<path id="Vector_2" d="M25.1994 24.3593C24.4381 24.3593 23.8246 24.9893 23.8246 25.7712C23.8246 26.5531 24.4381 27.1832 25.1994 27.1832C25.9607 27.1832 26.5741 26.5531 26.5741 25.7712C26.5741 24.9893 25.957 24.3593 25.1994 24.3593Z" fill="#19ACE8"/>
<path id="Vector_3" d="M26.5631 23.6533H15.3949C14.4045 23.6533 13.5323 22.8486 13.4141 21.82L12.2462 13.39L11.5847 9.45021C11.5441 9.10482 11.2373 8.82394 10.9417 8.82394H10.0621C9.68149 8.82394 9.37476 8.50891 9.37476 8.11797C9.37476 7.72702 9.68149 7.41199 10.0621 7.41199H10.938C11.9395 7.41199 12.8228 8.21665 12.9447 9.24525L13.6062 13.1699L14.7777 21.6378C14.8147 21.9642 15.1067 22.2413 15.3949 22.2413H26.5631C26.9437 22.2413 27.2504 22.5564 27.2504 22.9473C27.2504 23.3382 26.9437 23.6533 26.5631 23.6533Z" fill="#19ACE8"/>
<path id="Vector_4" d="M16.2559 20.8294C15.8975 20.8294 15.5981 20.5485 15.5723 20.1765C15.5427 19.7894 15.8273 19.4478 16.2079 19.4212L25.5356 18.7152C25.8793 18.7114 26.1676 18.4381 26.2045 18.1231L27.2874 11.7617C27.3132 11.5264 27.2504 11.2645 27.1137 11.1051C27.025 11.0026 26.9141 10.9495 26.7848 10.9495H14.8738C14.4931 10.9495 14.1864 10.6344 14.1864 10.2435C14.1864 9.85253 14.4968 9.52991 14.8738 9.52991H26.7774C27.3021 9.52991 27.7863 9.75385 28.1373 10.16C28.5402 10.6268 28.7213 11.2797 28.6436 11.9629L27.5608 18.3281C27.4426 19.3187 26.5741 20.1234 25.5837 20.1234L16.3077 20.8256C16.2892 20.8256 16.2707 20.8294 16.2559 20.8294Z" fill="#19ACE8"/>
</g>
</g>
</svg>
