<svg width="20" height="20" viewBox="0 0 20 20" fill="none" xmlns="http://www.w3.org/2000/svg">
<g clip-path="url(#clip0_190_12518)">
<path d="M10.0002 0.200195C4.58764 0.200195 0.200195 4.58775 0.200195 10.0002C0.200195 15.4127 4.58764 19.8002 10.0002 19.8002C15.4125 19.8002 19.8002 15.4127 19.8002 10.0002C19.8002 4.58775 15.4125 0.200195 10.0002 0.200195ZM16.1067 7.59479L9.24881 14.2077C9.16039 14.2962 9.05752 14.369 8.94463 14.4229C8.51396 14.7306 7.91186 14.6914 7.52522 14.3047L4.58021 11.3596C4.14957 10.929 4.14957 10.231 4.58021 9.80053C5.01062 9.36986 5.70867 9.36986 6.1393 9.80053L8.35037 12.0115L14.5476 6.03557C14.9781 5.60504 15.6762 5.60504 16.1066 6.03557C16.5373 6.46613 16.5373 7.16422 16.1067 7.59477V7.59479Z" fill="#00A870"/>
</g>
<defs>
<clipPath id="clip0_190_12518">
<rect width="20" height="20" fill="white"/>
</clipPath>
</defs>
</svg>
