<?xml version="1.0" encoding="UTF-8"?>
<svg width="19px" height="19px" viewBox="0 0 19 19" version="1.1" xmlns="http://www.w3.org/2000/svg" xmlns:xlink="http://www.w3.org/1999/xlink">
    <title>icon_alarm_clock</title>
    <g id="页面-1" stroke="none" stroke-width="1" fill="none" fill-rule="evenodd">
        <g id="法国包装法限时秒杀" transform="translate(-704.000000, -373.000000)" fill="#FFFFFF" fill-rule="nonzero">
            <g id="限时秒杀" transform="translate(674.000000, 362.000000)">
                <g id="编组-16" transform="translate(30.000000, 10.000000)">
                    <g id="编组" transform="translate(0.000000, 1.000000)">
                        <path d="M9.46871782,1.25134069 C4.79688848,1.25134069 1.12616997,4.92205919 1.12616997,9.59380348 C1.12616997,14.2658029 4.79688848,17.9363513 9.46871782,17.9363513 C14.1406109,17.9363513 17.8112231,14.2658029 17.8112231,9.59380348 C17.8112231,4.92205919 14.1406109,1.25134069 9.46871782,1.25134069 L9.46871782,1.25134069 Z M9.46871782,16.2679396 C5.79810563,16.2679396 2.79477309,13.2645858 2.79477309,9.59378224 C2.79477309,5.92325509 5.79810563,2.91992256 9.46871782,2.91992256 C13.139415,2.91992256 16.1427263,5.92325509 16.1427263,9.59378224 C16.1427263,13.264607 13.139415,16.2679396 9.46871782,16.2679396 L9.46871782,16.2679396 Z" id="形状"></path>
                        <path d="M10.3029769,9.26022745 L10.3029769,4.58841936 C10.3029769,4.08790645 9.96933702,3.7541178 9.46871782,3.7541178 C8.96818366,3.7541178 8.63452257,4.0878852 8.63452257,4.58841936 L8.63452257,9.5938035 C8.63452257,9.76078287 8.80126809,10.0945503 8.80126809,10.2612958 L11.4709395,12.9309672 C11.6378551,13.0978615 11.8045793,13.0978615 12.138368,13.0978615 C12.4720078,13.0978615 12.6388809,13.0978615 12.8057965,12.9309672 C13.1394363,12.5971998 13.1394363,12.0966656 12.8057965,11.7630045 L10.3029769,9.26022745 L10.3029769,9.26022745 Z" id="路径"></path>
                        <path d="M5.63121129,1.25134069 C5.63121129,1.08457392 5.46431696,0.917679605 5.46431696,0.750806524 L5.46431696,0.750806524 C4.46324863,-0.08336747 2.79477309,-0.08336747 1.7935772,0.750806524 L0.625614555,1.91876917 C-0.208538185,2.91996504 -0.208538185,4.5884406 0.625614555,5.58950893 C0.792466361,5.58950893 0.959360697,5.75640326 1.12614872,5.75640326 C1.96047153,3.7541178 3.62892581,2.08564225 5.63121129,1.25134069 L5.63121129,1.25134069 Z" id="路径"></path>
                        <path d="M18.3118848,1.91874793 L17.1438159,0.750785291 C16.1427263,-0.250261764 14.6411451,-0.250261764 13.6399492,0.750785291 C13.4731824,0.917679626 13.4731824,1.08455269 13.3063094,1.25131946 C15.3085736,2.25249408 16.9770279,3.75411782 17.8112231,5.75636077 C17.9781175,5.58946644 18.1450118,5.58946644 18.3119061,5.42259338 C19.1460588,4.58841936 19.1460588,2.91992256 18.3118848,1.91874793 L18.3118848,1.91874793 Z" id="路径"></path>
                        <path d="M2.96153986,16.6016219 L2.29409011,17.2691142 C1.96049279,17.602754 1.96049279,18.1032882 2.29409011,18.4370768 C2.4610057,18.6038436 2.62790003,18.6038436 2.96153986,18.6038436 C3.29530726,18.6038436 3.46205277,18.6038436 3.62894709,18.4370768 L4.29637557,17.7696483 C4.6300154,17.4358809 4.6300154,16.9353255 4.29637557,16.6016219 C3.96273574,16.2679396 3.29530726,16.2679396 2.96153986,16.6016219 L2.96153986,16.6016219 Z" id="路径"></path>
                        <path d="M15.975832,16.6016219 C15.6422134,16.2679608 15.1416793,16.2679608 14.8078906,16.6016219 C14.4742508,16.9353255 14.4742508,17.4358809 14.8078906,17.7696483 L15.4753191,18.4370768 C15.6422134,18.6038436 15.8090865,18.6038436 16.1427263,18.6038436 C16.4764937,18.6038436 16.6432605,18.6038436 16.8101548,18.4370768 C17.1438159,18.1033094 17.1438159,17.6027753 16.8101548,17.2691142 L15.975832,16.6016219 L15.975832,16.6016219 Z" id="路径"></path>
                    </g>
                </g>
            </g>
        </g>
    </g>
</svg>