<?xml version="1.0" encoding="UTF-8"?>
<svg width="368px" height="230px" viewBox="0 0 368 230" version="1.1" xmlns="http://www.w3.org/2000/svg" xmlns:xlink="http://www.w3.org/1999/xlink">
    <!-- Generator: Sketch 58 (84663) - https://sketch.com -->
    <title>购物车空</title>
    <desc>Created with Sketch.</desc>
    <defs>
        <rect id="path-1" x="0" y="0" width="968" height="592"></rect>
        <filter x="-1.0%" y="-1.4%" width="102.1%" height="103.4%" filterUnits="objectBoundingBox" id="filter-2">
            <feOffset dx="0" dy="2" in="SourceAlpha" result="shadowOffsetOuter1"></feOffset>
            <feGaussianBlur stdDeviation="3" in="shadowOffsetOuter1" result="shadowBlurOuter1"></feGaussianBlur>
            <feColorMatrix values="0 0 0 0 0   0 0 0 0 0.0823529412   0 0 0 0 0.160784314  0 0 0 0.0574464598 0" type="matrix" in="shadowBlurOuter1"></feColorMatrix>
        </filter>
        <linearGradient x1="50%" y1="100%" x2="50%" y2="0%" id="linearGradient-3">
            <stop stop-color="#F5F7FA" stop-opacity="0" offset="0%"></stop>
            <stop stop-color="#D9DEE4" offset="100%"></stop>
        </linearGradient>
        <linearGradient x1="50%" y1="50%" x2="50%" y2="0%" id="linearGradient-4">
            <stop stop-color="#F5F7FA" stop-opacity="0" offset="0%"></stop>
            <stop stop-color="#D9DEE4" offset="100%"></stop>
        </linearGradient>
        <linearGradient x1="50%" y1="50%" x2="50%" y2="0%" id="linearGradient-5">
            <stop stop-color="#F5F7FA" stop-opacity="0" offset="0%"></stop>
            <stop stop-color="#D9DEE4" offset="100%"></stop>
        </linearGradient>
        <linearGradient x1="70.998387%" y1="56.749425%" x2="0%" y2="56.749425%" id="linearGradient-6">
            <stop stop-color="#D9DEE4" offset="0%"></stop>
            <stop stop-color="#F5F7FA" offset="100%"></stop>
        </linearGradient>
        <linearGradient x1="70.998387%" y1="56.749425%" x2="0%" y2="56.749425%" id="linearGradient-7">
            <stop stop-color="#D9DEE4" offset="0%"></stop>
            <stop stop-color="#F5F7FA" offset="100%"></stop>
        </linearGradient>
        <linearGradient x1="50%" y1="100%" x2="50%" y2="0%" id="linearGradient-8">
            <stop stop-color="#F5F7FA" offset="0%"></stop>
            <stop stop-color="#D9DEE4" offset="100%"></stop>
        </linearGradient>
        <linearGradient x1="50%" y1="100%" x2="50%" y2="0%" id="linearGradient-9">
            <stop stop-color="#D9DEE4" offset="0%"></stop>
            <stop stop-color="#F5F7FA" offset="100%"></stop>
        </linearGradient>
        <linearGradient x1="50%" y1="50%" x2="-2.85857652%" y2="68.0290203%" id="linearGradient-10">
            <stop stop-color="#DADFE5" offset="0%"></stop>
            <stop stop-color="#FFFFFF" stop-opacity="0.443137258" offset="100%"></stop>
        </linearGradient>
        <polygon id="path-11" points="0 -0.0002208 4.899184 -0.0002208 4.899184 8.3298272 0 8.3298272"></polygon>
        <linearGradient x1="50%" y1="100%" x2="50%" y2="0%" id="linearGradient-13">
            <stop stop-color="#D9DEE4" offset="0%"></stop>
            <stop stop-color="#F5F7FA" stop-opacity="0" offset="100%"></stop>
        </linearGradient>
        <linearGradient x1="50%" y1="100%" x2="50%" y2="0%" id="linearGradient-14">
            <stop stop-color="#D9DEE4" offset="0%"></stop>
            <stop stop-color="#F5F7FA" offset="100%"></stop>
        </linearGradient>
        <linearGradient x1="50%" y1="100%" x2="50%" y2="0%" id="linearGradient-15">
            <stop stop-color="#D9DEE4" offset="0%"></stop>
            <stop stop-color="#F5F7FA" offset="100%"></stop>
        </linearGradient>
        <linearGradient x1="0%" y1="23.6234468%" x2="100%" y2="100.445569%" id="linearGradient-16">
            <stop stop-color="#D9DEE4" offset="0%"></stop>
            <stop stop-color="#F5F7FA" offset="100%"></stop>
        </linearGradient>
    </defs>
    <g id="页面-1" stroke="none" stroke-width="1" fill="none" fill-rule="evenodd">
        <g id="个人中心-优惠券空状态" transform="translate(-892.000000, -227.000000)">
            <rect fill="#F7F8FA" x="0" y="0" width="1920" height="1038"></rect>
            <g id="基本信息" transform="translate(592.000000, 102.000000)">
                <g id="矩形">
                    <use fill="black" fill-opacity="1" filter="url(#filter-2)" xlink:href="#path-1"></use>
                    <use fill="#FFFFFF" fill-rule="evenodd" xlink:href="#path-1"></use>
                </g>
                <g id="没内容" transform="translate(300.000000, 125.000000)">
                    <g id="无上传" transform="translate(0.000000, 1.000000)">
                        <g id="编组-7" fill-rule="nonzero">
                            <path d="M367.941688,229.63913 C335.883691,160.104725 265.563521,111.842555 183.971118,111.842555 C102.37825,111.842555 32.0577452,160.105274 4.26325641e-13,229.640317" id="路径" fill="url(#linearGradient-3)"></path>
                            <path d="M88.1796349,29.8889587 C94.180738,29.8889587 99.5441092,32.6085967 103.095184,36.8779617 C103.874197,36.7316656 104.678931,36.6549934 105.501645,36.6549934 C112.629761,36.6549934 118.408241,42.4105817 118.408241,49.5104596 C118.408241,56.6103375 112.629761,62.3659256 105.501645,62.3659256 C104.503248,62.3659256 103.531328,62.2530119 102.598055,62.0393058 C99.0545379,65.9776644 93.9075853,68.4553571 88.1796349,68.4553571 C82.5087856,68.4553571 77.4074081,66.0268176 73.8666259,62.1569362 C73.1117118,62.2941865 72.3327266,62.3659256 71.5369193,62.3659256 C64.4088033,62.3659256 58.6303235,56.6103375 58.6303235,49.5104596 C58.6303235,42.4105817 64.4088033,36.6549934 71.5369193,36.6549934 C72.1505376,36.6549934 72.7541546,36.6976452 73.3449448,36.7801346 C76.897666,32.5669402 82.2246685,29.8889587 88.1796349,29.8889587 Z" id="形状结合" fill="url(#linearGradient-4)"></path>
                            <path d="M271.758978,0 C279.405718,0 286.239828,3.4676961 290.764582,8.91134979 C291.757326,8.72440949 292.782499,8.62669436 293.830572,8.62669436 C302.913171,8.62669436 310.276072,15.9650694 310.276072,25.0174137 C310.276072,34.069758 302.913171,41.4081329 293.830572,41.4081329 C292.558746,41.4081329 291.320639,41.2642414 290.131748,40.9919015 C285.6158,46.0130558 279.057546,49.1721578 271.758978,49.1721578 C264.533703,49.1721578 258.033947,46.0761854 253.522342,41.1426639 C252.559199,41.3166958 251.566781,41.4081329 250.552937,41.4081329 C241.470338,41.4081329 234.107436,34.069758 234.107436,25.0174137 C234.107436,15.9650694 241.470338,8.62669436 250.552937,8.62669436 C251.33542,8.62669436 252.105137,8.68116072 252.858483,8.78649704 C257.383071,3.41467502 264.170921,0 271.758978,0 Z" id="形状结合备份" fill="url(#linearGradient-5)"></path>
                            <g id="编组-6" transform="translate(84.662642, 105.093436)">
                                <polygon id="Fill-3" fill="#C2C6CC" points="15.4265593 50.1363178 19.2831991 50.1363178 19.2831991 19.2831991 15.4265593 19.2831991"></polygon>
                                <path d="M28.9247987,27.030417 C28.9247987,36.1990729 23.7446835,38.5663984 17.3547299,38.5663984 C10.9647763,38.5663984 5.78495975,36.1990729 5.78495975,27.030417 C5.78495975,17.861761 10.9647763,0 17.3547299,0 C23.7446835,0 28.9247987,17.861761 28.9247987,27.030417" id="Fill-1" fill="url(#linearGradient-6)"></path>
                                <polygon id="路径-20" fill="#C2C6CC" points="21.0188978 49.1721578 1.48325796e-13 56.1326802 17.1622579 49.1721578"></polygon>
                            </g>
                            <g id="编组-5" transform="translate(57.666164, 142.695674)">
                                <polygon id="Fill-3" fill="#C2C6CB" points="10.4900604 34.0926964 13.1125756 34.0926964 13.1125756 13.1125756 10.4900604 13.1125756"></polygon>
                                <path d="M19.6688634,18.3806837 C19.6688634,24.6153699 16.1463849,26.2251511 11.8012165,26.2251511 C7.45604797,26.2251511 3.93377267,24.6153699 3.93377267,18.3806837 C3.93377267,12.1459976 7.45604797,5.5067062e-14 11.8012165,5.5067062e-14 C16.1463849,5.5067062e-14 19.6688634,12.1459976 19.6688634,18.3806837" id="Fill-1" fill="url(#linearGradient-7)"></path>
                                <polygon id="路径-20" fill="#C2C6CB" points="14.2928507 33.4370676 -3.66817687e-13 38.170223 11.6703355 33.4370676"></polygon>
                            </g>
                            <g id="编组-3" transform="translate(275.161527, 143.520000) scale(-1, 1) translate(-275.161527, -143.520000) translate(264.857527, 121.440000)">
                                <polygon id="Fill-3" fill="#C2C6CB" points="11.1262458 38.957651 13.7487609 38.957651 13.7487609 17.9775301 11.1262458 17.9775301"></polygon>
                                <path d="M20.1510906,18.3806837 C20.1510906,24.6153699 16.6286123,26.2251511 12.2834438,26.2251511 C7.9382753,26.2251511 4.416,24.6153699 4.416,18.3806837 C4.416,12.1459976 7.9382753,5.86197757e-14 12.2834438,5.86197757e-14 C16.6286123,5.86197757e-14 20.1510906,12.1459976 20.1510906,18.3806837" id="Fill-1" fill="url(#linearGradient-7)"></path>
                                <polygon id="路径-20" fill="#C2C6CB" points="14.2928507 39.008 9.05941988e-14 43.7411552 11.6703355 39.008"></polygon>
                            </g>
                        </g>
                        <ellipse id="椭圆形" fill="#B5BDC7" fill-rule="nonzero" opacity="0.300000012" style="mix-blend-mode: multiply;" cx="184.265527" cy="135.424" rx="32.384" ry="2.944"></ellipse>
                        <g id="编组-4" transform="translate(132.377527, 22.816000)">
                            <path d="M99.307205,71.392 L3.92160348,71.392 L16.8260388,29.3128192 C17.205226,28.0760448 18.3472036,27.232 19.640503,27.232 L83.5883055,27.232 C84.8816035,27.232 86.0235823,28.0760448 86.4027695,29.3128192 L99.307205,71.392 Z" id="Fill-3" fill="url(#linearGradient-8)" fill-rule="nonzero"></path>
                            <path d="M7.9037757,68.448 L19.0023615,32.2568193 C19.3815487,31.0200448 20.5235263,30.176 21.8171199,30.176 L81.4116296,30.176 C82.7052232,30.176 83.8472008,31.0200448 84.226388,32.2568193 L95.3249738,68.448 L90.1809226,84.64 L12.4593214,84.64 L7.9037757,68.448 Z" id="Fill-5" fill="url(#linearGradient-9)" fill-rule="nonzero"></path>
                            <path d="M78.0844217,43.0747127 C92.2659121,40.5651561 101.032269,38.6560826 103.248486,22.6028465 C103.379648,21.6527738 102.848043,20.3074426 101.924651,20.0482362 C97.5266053,18.8136564 92.1694232,26.7596221 101.024135,26.2874744 C110.913364,25.7601647 104.22031,19.5121324 117.106774,19.6445084" id="路径-27" stroke="url(#linearGradient-10)" stroke-width="0.5" stroke-linecap="round" stroke-dasharray="3"></path>
                            <g id="编组-6" transform="translate(76.544000, 37.536000) rotate(31.000000) translate(-76.544000, -37.536000) translate(69.184000, 29.440000)">
                                <rect id="矩形备份-2" fill="#DCDFE3" fill-rule="nonzero" x="0" y="0" width="14.72" height="16.192" rx="1"></rect>
                                <g id="编组" transform="translate(5.152000, 3.680000)">
                                    <g id="Fill-1-Clipped">
                                        <mask id="mask-12" fill="white">
                                            <use xlink:href="#path-11"></use>
                                        </mask>
                                        <g id="path-13"></g>
                                        <path d="M1.256352,0.2168256 L4.683904,3.6443776 C4.970944,3.9321536 4.970944,4.3980416 4.683904,4.6850816 L1.256352,8.1133696 C0.792672,8.5763136 0,8.2480576 0,7.5922816 L0,0.7371776 C0,0.0814016 0.792672,-0.2468544 1.256352,0.2168256" id="Fill-1" fill="#FFFFFF" fill-rule="nonzero" mask="url(#mask-12)"></path>
                                    </g>
                                </g>
                            </g>
                            <g id="编组-5" transform="translate(25.024000, 37.536000) rotate(-34.000000) translate(-25.024000, -37.536000) translate(17.664000, 29.440000)" fill-rule="nonzero">
                                <rect id="矩形" fill="#DCDFE3" x="0" y="0" width="14.72" height="16.192" rx="1"></rect>
                                <rect id="矩形" fill="#FFFFFF" x="2.944" y="4.416" width="8.096" height="1.472" rx="0.5"></rect>
                                <rect id="矩形备份" fill="#FFFFFF" x="2.944" y="8.832" width="5.152" height="1.472" rx="0.5"></rect>
                            </g>
                            <g id="编组-7" transform="translate(66.976000, 55.936000) rotate(27.000000) translate(-66.976000, -55.936000) translate(62.560000, 50.784000)" fill-rule="nonzero">
                                <rect id="矩形备份-3" fill="#DCDFE3" x="0" y="0" width="8.83199947" height="9.71519943" rx="0.599999964"></rect>
                                <path d="M6.6131429,3.64774019 C6.6005043,3.63650347 6.57456192,3.61343862 6.56125813,3.61343862 L3.75815082,2.23546163 C3.73220844,2.21239678 3.70626606,2.20116006 3.68098886,2.21239678 L3.66835027,2.21239678 C3.64240789,2.21239678 3.61646552,2.23546163 3.60382691,2.24669835 C3.57788453,2.26976321 3.56524594,2.29282806 3.56524594,2.32712962 C3.56524594,3.18821739 3.56524594,4.07237001 3.57788453,4.93286636 C3.39761826,4.8985648 3.20338302,4.90980152 2.99650917,4.95593122 C2.73841575,5.02453437 2.5322071,5.12862189 2.38985661,5.28889304 C2.37721801,5.30012976 2.37721801,5.31195788 2.37721801,5.31195788 C2.22222893,5.48464857 2.17034416,5.66798456 2.23553271,5.85132056 C2.28741748,6.02401122 2.42976796,6.16121752 2.6745576,6.25288553 C2.89407004,6.32148866 3.12622107,6.32148866 3.39761826,6.25288553 C3.65571168,6.1955191 3.86192033,6.08019484 4.00427082,5.93175183 C4.00427082,5.92051511 4.00427082,5.92051511 4.01690942,5.92051511 C4.08143277,5.85191196 4.12001374,5.77088928 4.14595612,5.69104942 C4.15859472,5.69104942 4.15859472,5.69104942 4.15859472,5.67981268 C4.15859472,5.64551111 4.1845371,5.62244625 4.1845371,5.58814469 L4.1845371,5.57631656 C4.19717569,5.56507984 4.19717569,5.55325171 4.1845371,5.542015 L4.1845371,5.51895014 L4.1845371,3.78553788 L6.00515995,4.68092723 L6.01779855,6.13874407 C5.83686709,6.10444251 5.64329703,6.11567923 5.44972697,6.16180893 C5.17832977,6.23041208 4.9854249,6.33449961 4.82977063,6.50600747 C4.66147776,6.67869815 4.61025819,6.86203415 4.67478154,7.04537014 C4.72666631,7.22929754 4.86901679,7.36650383 5.11380643,7.4475265 C5.33331886,7.51612965 5.57877368,7.52795779 5.83686709,7.47059136 C6.09496051,7.40198821 6.30116916,7.29790069 6.44351964,7.13762954 C6.45615823,7.12639282 6.45615823,7.11456468 6.45615823,7.11456468 C6.57190117,6.98859512 6.62378593,6.86203415 6.62378593,6.72423644 L6.62378593,3.70569801 C6.62578149,3.68263317 6.6131429,3.67139645 6.6131429,3.64774019 Z" id="路径" fill="#FFFFFF"></path>
                            </g>
                            <polygon id="路径-32" fill="url(#linearGradient-13)" fill-rule="nonzero" points="19.872 71.3920006 0 0 103.04 0 83.7576367 71.392"></polygon>
                            <path d="M73.2844231,56.1881246 L71.1603271,68.9318175 C70.9236295,70.3514143 69.6956871,71.3921182 68.2563655,71.3921182 L34.9723841,71.3921182 C33.5333569,71.3921182 32.3051201,70.3514143 32.0684225,68.9318175 L29.9443265,56.1881246 C29.7076289,54.7685278 28.4796865,53.7281182 27.0403647,53.7281182 L5.88801887,53.7281182 C4.18609246,53.7281182 2.83862363,55.166851 2.95049563,56.8652446 L5.50706527,95.7260452 C5.60892767,97.273706 6.89368929,98.4769188 8.44458852,98.4769188 L94.784161,98.4769188 C96.3350602,98.4769188 97.6201163,97.273706 97.7216843,95.7260452 L100.278254,56.8652446 C100.390126,55.166851 99.0426571,53.7281182 97.3407306,53.7281182 L76.1883847,53.7281182 C74.7493575,53.7281182 73.5211207,54.7685278 73.2844231,56.1881246" id="Fill-1" fill="url(#linearGradient-14)" fill-rule="nonzero"></path>
                        </g>
                        <path d="M139.737527,53.728 C140.144008,53.728 140.473527,54.0575184 140.473527,54.464 L140.473527,55.936 L141.945527,55.936 C142.352008,55.936 142.681527,56.2655184 142.681527,56.672 C142.681527,57.0784816 142.352008,57.408 141.945527,57.408 L140.473527,57.408 L140.473527,58.88 C140.473527,59.2864816 140.144008,59.616 139.737527,59.616 C139.331045,59.616 139.001527,59.2864816 139.001527,58.88 L139.001527,57.408 L137.529527,57.408 C137.123045,57.408 136.793527,57.0784816 136.793527,56.672 C136.793527,56.2655184 137.123045,55.936 137.529527,55.936 L139.001527,55.936 L139.001527,54.464 C139.001527,54.0575184 139.331045,53.728 139.737527,53.728 Z" id="形状结合" fill="url(#linearGradient-15)" fill-rule="nonzero"></path>
                        <path d="M151.513527,33.12 C149.481119,33.12 147.833527,34.7675921 147.833527,36.8 C147.833527,38.8324079 149.481119,40.48 151.513527,40.48 C153.545935,40.48 155.193527,38.8324079 155.193527,36.8 C155.193527,34.7675921 153.545935,33.12 151.513527,33.12 Z M151.513527,34.592 C152.732971,34.592 153.721527,35.5805553 153.721527,36.8 C153.721527,38.0194447 152.732971,39.008 151.513527,39.008 C150.294082,39.008 149.305527,38.0194447 149.305527,36.8 C149.305527,35.5805553 150.294082,34.592 151.513527,34.592 Z" id="椭圆形" fill="url(#linearGradient-15)" fill-rule="nonzero"></path>
                        <path d="M234.681527,65.504 C235.088008,65.504 235.417527,65.8335184 235.417527,66.24 L235.417527,67.712 L236.889527,67.712 C237.296008,67.712 237.625527,68.0415184 237.625527,68.448 C237.625527,68.8544816 237.296008,69.184 236.889527,69.184 L235.417527,69.184 L235.417527,70.656 C235.417527,71.0624816 235.088008,71.392 234.681527,71.392 C234.275046,71.392 233.945527,71.0624816 233.945527,70.656 L233.945527,69.184 L232.473527,69.184 C232.067046,69.184 231.737527,68.8544816 231.737527,68.448 C231.737527,68.0415184 232.067046,67.712 232.473527,67.712 L233.945527,67.712 L233.945527,66.24 C233.945527,65.8335184 234.275046,65.504 234.681527,65.504 Z" id="形状结合备份-2" fill="url(#linearGradient-15)" fill-rule="nonzero" transform="translate(234.681527, 68.448000) rotate(-45.000000) translate(-234.681527, -68.448000) "></path>
                        <g id="编组-4" transform="translate(252.345527, 35.328000) scale(-1, 1) translate(-252.345527, -35.328000) translate(242.041527, 27.968000)" fill-rule="nonzero">
                            <polygon id="路径-18" fill="url(#linearGradient-16)" points="8.8817842e-14 1.77635684e-14 4.52695433 12.8266569 9.83545969 10.3722937 14.5274861 14.2872511 14.5274861 8.24501265 19.6709194 6.25784863"></polygon>
                            <polygon id="路径-19" fill="#C3C6CB" points="1.30562228e-13 1.24344979e-14 14.5274861 8.24501265 14.5274861 14.2872511 11.0605456 9.72575215"></polygon>
                        </g>
                    </g>
                </g>
            </g>
        </g>
    </g>
</svg>