<svg width="84" height="85" viewBox="0 0 84 85" fill="none" xmlns="http://www.w3.org/2000/svg">
<g id="&#230;&#156;&#141;&#229;&#138;&#161;&#228;&#188;&#152;&#229;&#138;&#191;icon">
<circle id="Ellipse 29" cx="58.7485" cy="21.8921" r="21" fill="url(#paint0_linear_344_26928)"/>
<g id="Rectangle 175" filter="url(#filter0_bd_344_26928)">
<rect x="10.7485" y="10.8921" width="69" height="69" rx="33" fill="#3370FE" fill-opacity="0.17" shape-rendering="crispEdges"/>
<rect x="11.2485" y="11.3921" width="68" height="68" rx="32.5" stroke="white" shape-rendering="crispEdges"/>
</g>
<g id="Vector" filter="url(#filter1_d_344_26928)">
<path d="M48.2647 61.4779L47.7617 61.9809L43.099 54.9646C41.4619 55.8482 38.9839 55.3006 37.2206 53.5372C35.4554 51.772 34.9097 49.2922 35.834 47.6143L28.9031 42.9516L29.4062 42.4486C32.2628 39.592 35.1194 38.3316 38.6461 38.4133C46.1635 29.6337 54.984 28.1228 60.6972 29.6337L61.0332 29.7209L61.1186 30.055C62.6313 35.7701 61.0759 44.546 52.3389 52.1099C52.4652 55.6811 51.2048 58.5377 48.2647 61.4779ZM50.7816 43.6662C52.8809 43.7497 54.687 42.1108 54.7724 40.0096C54.8559 37.9103 53.2206 36.1042 51.1195 36.0189C49.0201 35.9353 47.2123 37.5762 47.1287 39.6755C47.0433 41.7767 48.6823 43.5827 50.7816 43.6662ZM35.8099 57.6765C34.5923 58.8941 31.3551 59.4398 31.3551 59.4398C31.3551 59.4398 32.0289 56.0783 33.1203 54.9869C34.0447 54.0625 35.3867 53.8936 36.144 54.6509C36.9013 55.4083 36.7343 56.7521 35.8099 57.6765Z" fill="white"/>
</g>
</g>
<defs>
<filter id="filter0_bd_344_26928" x="6.74854" y="6.89209" width="77" height="78" filterUnits="userSpaceOnUse" color-interpolation-filters="sRGB">
<feFlood flood-opacity="0" result="BackgroundImageFix"/>
<feGaussianBlur in="BackgroundImage" stdDeviation="2"/>
<feComposite in2="SourceAlpha" operator="in" result="effect1_backgroundBlur_344_26928"/>
<feColorMatrix in="SourceAlpha" type="matrix" values="0 0 0 0 0 0 0 0 0 0 0 0 0 0 0 0 0 0 127 0" result="hardAlpha"/>
<feOffset dy="1"/>
<feGaussianBlur stdDeviation="2"/>
<feComposite in2="hardAlpha" operator="out"/>
<feColorMatrix type="matrix" values="0 0 0 0 0.203922 0 0 0 0 0.439216 0 0 0 0 1 0 0 0 0.24 0"/>
<feBlend mode="normal" in2="effect1_backgroundBlur_344_26928" result="effect2_dropShadow_344_26928"/>
<feBlend mode="normal" in="SourceGraphic" in2="effect2_dropShadow_344_26928" result="shape"/>
</filter>
<filter id="filter1_d_344_26928" x="27.9032" y="29.1204" width="34.7247" height="34.8605" filterUnits="userSpaceOnUse" color-interpolation-filters="sRGB">
<feFlood flood-opacity="0" result="BackgroundImageFix"/>
<feColorMatrix in="SourceAlpha" type="matrix" values="0 0 0 0 0 0 0 0 0 0 0 0 0 0 0 0 0 0 127 0" result="hardAlpha"/>
<feOffset dy="1"/>
<feGaussianBlur stdDeviation="0.5"/>
<feComposite in2="hardAlpha" operator="out"/>
<feColorMatrix type="matrix" values="0 0 0 0 0.75 0 0 0 0 0.825521 0 0 0 0 1 0 0 0 1 0"/>
<feBlend mode="normal" in2="BackgroundImageFix" result="effect1_dropShadow_344_26928"/>
<feBlend mode="normal" in="SourceGraphic" in2="effect1_dropShadow_344_26928" result="shape"/>
</filter>
<linearGradient id="paint0_linear_344_26928" x1="71.2863" y1="4.25725" x2="52.9535" y2="37.2202" gradientUnits="userSpaceOnUse">
<stop stop-color="#3370FF"/>
<stop offset="1" stop-color="#749EFF"/>
</linearGradient>
</defs>
</svg>
