<svg width="85" height="85" viewBox="0 0 85 85" fill="none" xmlns="http://www.w3.org/2000/svg">
<g id="&#230;&#156;&#141;&#229;&#138;&#161;&#228;&#188;&#152;&#229;&#138;&#191;icon">
<path id="Vector" d="M70.2203 6.22839C70.8589 6.20695 71.4912 6.35905 72.0497 6.66841C72.6083 6.97776 73.0719 7.43272 73.391 7.98458L82.3744 23.4391C82.6397 23.9868 82.7774 24.5871 82.7774 25.1953C82.7774 25.8035 82.6397 26.4038 82.3744 26.9515L73.391 42.5816C73.0462 43.11 72.5771 43.5463 72.0244 43.8524C71.4718 44.1585 70.8524 44.3252 70.2203 44.3378H52.2534C51.6408 44.3464 51.0377 44.1871 50.5097 43.8775C49.9816 43.5678 49.549 43.1196 49.2589 42.5816L40.2754 26.9515C39.927 26.4317 39.7411 25.8205 39.7411 25.1953C39.7411 24.5701 39.927 23.9589 40.2754 23.4391L49.2589 7.98458C49.5324 7.43307 49.9615 6.97313 50.4934 6.66118C51.0253 6.34922 51.637 6.19881 52.2534 6.22839H70.2203Z" fill="url(#paint0_linear_363_18244)"/>
<g id="Vector_2" filter="url(#filter0_bd_363_18244)">
<path d="M62.6053 13.7502C62.8946 13.7697 63.1745 13.86 63.4203 14.0132C63.6661 14.1664 63.8702 14.3777 64.0145 14.6283L80.4957 43.2129C80.781 43.7079 81.2131 44.1757 81.2131 44.7471C81.2131 45.3184 80.7817 45.7867 80.4976 46.2824L64.0145 75.0415C63.8702 75.2922 63.6661 75.5035 63.4203 75.6566C63.1745 75.8098 62.8946 75.9001 62.6053 75.9196H28.4329C28.1437 75.9001 27.8637 75.8098 27.6179 75.6566C27.3721 75.5035 27.168 75.2922 27.0237 75.0415L10.3381 46.2291C10.0717 45.7691 9.80779 45.284 9.80665 44.7524C9.80549 44.2138 10.0741 43.7224 10.3452 43.257L27.0237 14.6283C27.168 14.3777 27.3721 14.1664 27.6179 14.0132C27.8637 13.86 28.1437 13.7697 28.4329 13.7502H62.6053Z" fill="#3370FE" fill-opacity="0.17" shape-rendering="crispEdges"/>
<path d="M63.5812 14.8778L63.5813 14.8781L80.0625 43.4626C80.1407 43.5982 80.2273 43.7298 80.3048 43.8474L80.3106 43.8562C80.3926 43.9806 80.4649 44.0907 80.5278 44.2003C80.6542 44.4206 80.7131 44.5896 80.7131 44.7471C80.7131 44.9048 80.6542 45.0741 80.528 45.2947C80.4651 45.4045 80.393 45.5148 80.3112 45.6395L80.3063 45.6469C80.2288 45.7651 80.142 45.8974 80.0638 46.0338L63.5812 74.7921C63.5811 74.7922 63.581 74.7923 63.581 74.7924C63.4778 74.9715 63.3319 75.1226 63.1559 75.2323C62.9841 75.3393 62.7891 75.4035 62.5871 75.4196H28.4511C28.2492 75.4035 28.0541 75.3393 27.8823 75.2323C27.7063 75.1226 27.5602 74.9713 27.4571 74.7921L27.4564 74.7909L10.7708 45.9785C10.4968 45.5054 10.3075 45.1306 10.3066 44.7513C10.3058 44.3671 10.4984 43.9874 10.7772 43.5087L27.4558 14.88L27.4571 14.8778C27.5602 14.6985 27.7063 14.5473 27.8823 14.4376C28.0541 14.3305 28.2492 14.2663 28.4511 14.2502H62.5871C62.7891 14.2663 62.9841 14.3305 63.1559 14.4376L63.4201 14.0136L63.1559 14.4376C63.332 14.5473 63.478 14.6985 63.5812 14.8778Z" stroke="white" shape-rendering="crispEdges"/>
</g>
<g id="Group 427318290">
<g id="Vector_3" filter="url(#filter1_d_363_18244)">
<path d="M45.0362 61.538C45.9575 61.538 53.7129 57.7366 53.7129 56.8423C53.7129 55.948 47.677 37.8269 47.677 37.8269L52.3515 32.4611C52.3515 32.4611 53.4416 31.2697 51.2613 31.2697H38.904C36.7222 31.2697 37.4495 32.4611 37.4495 32.4611L42.3953 37.8269C42.3953 37.8269 36.3594 55.8421 36.3594 56.8423C36.3594 57.8425 44.1148 61.538 45.0362 61.538Z" fill="white"/>
</g>
<g id="Vector_4" filter="url(#filter2_d_363_18244)">
<path d="M53.3902 50.5295L55.042 48.4561C55.3528 48.0654 55.378 47.4146 55.0956 47.006L48.9824 38.147L53.3902 50.5295Z" fill="white"/>
</g>
</g>
</g>
<defs>
<filter id="filter0_bd_363_18244" x="5.80664" y="9.75024" width="79.4065" height="71.1694" filterUnits="userSpaceOnUse" color-interpolation-filters="sRGB">
<feFlood flood-opacity="0" result="BackgroundImageFix"/>
<feGaussianBlur in="BackgroundImage" stdDeviation="2"/>
<feComposite in2="SourceAlpha" operator="in" result="effect1_backgroundBlur_363_18244"/>
<feColorMatrix in="SourceAlpha" type="matrix" values="0 0 0 0 0 0 0 0 0 0 0 0 0 0 0 0 0 0 127 0" result="hardAlpha"/>
<feOffset dy="1"/>
<feGaussianBlur stdDeviation="2"/>
<feComposite in2="hardAlpha" operator="out"/>
<feColorMatrix type="matrix" values="0 0 0 0 0.203922 0 0 0 0 0.439216 0 0 0 0 1 0 0 0 0.24 0"/>
<feBlend mode="normal" in2="effect1_backgroundBlur_363_18244" result="effect2_dropShadow_363_18244"/>
<feBlend mode="normal" in="SourceGraphic" in2="effect2_dropShadow_363_18244" result="shape"/>
</filter>
<filter id="filter1_d_363_18244" x="35.3594" y="31.2697" width="19.3535" height="32.2684" filterUnits="userSpaceOnUse" color-interpolation-filters="sRGB">
<feFlood flood-opacity="0" result="BackgroundImageFix"/>
<feColorMatrix in="SourceAlpha" type="matrix" values="0 0 0 0 0 0 0 0 0 0 0 0 0 0 0 0 0 0 127 0" result="hardAlpha"/>
<feOffset dy="1"/>
<feGaussianBlur stdDeviation="0.5"/>
<feComposite in2="hardAlpha" operator="out"/>
<feColorMatrix type="matrix" values="0 0 0 0 0.75 0 0 0 0 0.825521 0 0 0 0 1 0 0 0 1 0"/>
<feBlend mode="normal" in2="BackgroundImageFix" result="effect1_dropShadow_363_18244"/>
<feBlend mode="normal" in="SourceGraphic" in2="effect1_dropShadow_363_18244" result="shape"/>
</filter>
<filter id="filter2_d_363_18244" x="47.9824" y="38.147" width="8.30981" height="14.3825" filterUnits="userSpaceOnUse" color-interpolation-filters="sRGB">
<feFlood flood-opacity="0" result="BackgroundImageFix"/>
<feColorMatrix in="SourceAlpha" type="matrix" values="0 0 0 0 0 0 0 0 0 0 0 0 0 0 0 0 0 0 127 0" result="hardAlpha"/>
<feOffset dy="1"/>
<feGaussianBlur stdDeviation="0.5"/>
<feComposite in2="hardAlpha" operator="out"/>
<feColorMatrix type="matrix" values="0 0 0 0 0.74902 0 0 0 0 0.827451 0 0 0 0 1 0 0 0 0.5 0"/>
<feBlend mode="normal" in2="BackgroundImageFix" result="effect1_dropShadow_363_18244"/>
<feBlend mode="normal" in="SourceGraphic" in2="effect1_dropShadow_363_18244" result="shape"/>
</filter>
<linearGradient id="paint0_linear_363_18244" x1="74.1063" y1="9.27848" x2="58.582" y2="40.7972" gradientUnits="userSpaceOnUse">
<stop stop-color="#3370FF"/>
<stop offset="1" stop-color="#749EFF"/>
</linearGradient>
</defs>
</svg>
