<svg width="85" height="85" viewBox="0 0 85 85" fill="none" xmlns="http://www.w3.org/2000/svg">
<g id="&#230;&#156;&#141;&#229;&#138;&#161;&#228;&#188;&#152;&#229;&#138;&#191;icon">
<path id="Vector" d="M78.82 8.33557C73.02 6.13557 67.52 4.89209 60.72 4.89209C53.92 4.89209 48.42 6.13557 42.62 8.33557C41.52 8.71818 40.72 9.77035 40.72 11.0138V28.9964C40.72 38.466 54.72 46.4051 59.42 48.6051C59.82 48.7964 60.32 48.8921 60.72 48.8921C61.12 48.8921 61.62 48.7964 62.02 48.6051C66.72 46.4051 80.72 38.466 80.72 28.9964V11.0138C80.72 9.77035 79.92 8.71818 78.82 8.33557Z" fill="url(#paint0_linear_344_26912)"/>
<g id="Group 427318289">
<g id="Vector_2" filter="url(#filter0_bd_344_26912)">
<path d="M62.775 17.3704C53.785 13.8704 45.26 11.8921 34.72 11.8921C24.18 11.8921 15.655 13.8704 6.66497 17.3704C4.95997 17.979 3.71997 19.653 3.71997 21.6312V50.2399C3.71997 65.3051 25.42 77.9356 32.705 81.4356C33.325 81.7399 34.1 81.8921 34.72 81.8921C35.34 81.8921 36.115 81.7399 36.735 81.4356C44.02 77.9356 65.72 65.3051 65.72 50.2399V21.6312C65.72 19.653 64.48 17.979 62.775 17.3704Z" fill="#3370FE" fill-opacity="0.17" shape-rendering="crispEdges"/>
<path d="M62.5936 17.8363L62.6002 17.8389L62.6069 17.8412C64.113 18.3789 65.22 19.8645 65.22 21.6312V50.2399C65.22 57.5406 59.9475 64.3358 53.6323 69.7965C47.3404 75.237 40.1354 79.2472 36.5184 80.9849L36.5146 80.9867C35.9712 81.2535 35.273 81.3921 34.72 81.3921C34.167 81.3921 33.4688 81.2535 32.9253 80.9867L32.9215 80.9849C29.3046 79.2472 22.0996 75.237 15.8076 69.7965C9.4924 64.3358 4.21997 57.5406 4.21997 50.2399V21.6312C4.21997 19.8645 5.32693 18.3789 6.83308 17.8412L6.83976 17.8389L6.84637 17.8363C15.7887 14.3548 24.2521 12.3921 34.72 12.3921C45.1879 12.3921 53.6512 14.3548 62.5936 17.8363Z" stroke="white" shape-rendering="crispEdges"/>
</g>
<g id="Vector_3" filter="url(#filter1_d_344_26912)">
<path d="M30.5072 39.6973H26.2274V34.7043C26.2274 33.6174 26.4426 32.604 26.8728 31.6643C27.303 30.7246 27.8974 29.8981 28.656 29.1848C29.4146 28.4715 30.309 27.9111 31.3393 27.5035C32.3696 27.0959 33.4962 26.8921 34.719 26.8921C35.8059 26.8921 36.8532 27.0959 37.8608 27.5035C38.8685 27.9111 39.7629 28.4715 40.5441 29.1848C41.3253 29.8981 41.9481 30.7246 42.4123 31.6643C42.8765 32.604 43.1086 33.6174 43.1086 34.7043V39.6973H38.9987V35.6553C38.9987 34.2288 38.6024 33.1249 37.8099 32.3436C37.0173 31.5624 35.9417 31.1718 34.5831 31.1718C33.3603 31.1718 32.3753 31.5624 31.628 32.3436C30.8808 33.1249 30.5072 34.2288 30.5072 35.6553V39.6973ZM45.1465 41.7352C45.7579 41.7352 46.2844 41.956 46.7259 42.3976C47.1675 42.8391 47.3883 43.3656 47.3883 43.977V54.5065C47.3883 55.1179 47.2807 55.6896 47.0656 56.2218C46.8505 56.7539 46.5561 57.2181 46.1825 57.6144C45.8089 58.0106 45.3673 58.322 44.8578 58.5484C44.3483 58.7749 43.7879 58.8881 43.1765 58.8881H26.0236C25.4123 58.8881 24.8575 58.7749 24.3593 58.5484C23.8611 58.322 23.4366 58.022 23.0856 57.6483C22.7346 57.2747 22.4629 56.8388 22.2704 56.3406C22.0779 55.8425 21.9817 55.3103 21.9817 54.7442V43.977C21.9817 43.3656 22.1968 42.8391 22.627 42.3976C23.0573 41.956 23.5781 41.7352 24.1895 41.7352H26.2274H30.5072H38.9987H43.1086H45.1465V41.7352Z" fill="white"/>
</g>
</g>
</g>
<defs>
<filter id="filter0_bd_344_26912" x="-0.280029" y="7.89209" width="70" height="79" filterUnits="userSpaceOnUse" color-interpolation-filters="sRGB">
<feFlood flood-opacity="0" result="BackgroundImageFix"/>
<feGaussianBlur in="BackgroundImage" stdDeviation="2"/>
<feComposite in2="SourceAlpha" operator="in" result="effect1_backgroundBlur_344_26912"/>
<feColorMatrix in="SourceAlpha" type="matrix" values="0 0 0 0 0 0 0 0 0 0 0 0 0 0 0 0 0 0 127 0" result="hardAlpha"/>
<feOffset dy="1"/>
<feGaussianBlur stdDeviation="2"/>
<feComposite in2="hardAlpha" operator="out"/>
<feColorMatrix type="matrix" values="0 0 0 0 0.203922 0 0 0 0 0.439216 0 0 0 0 1 0 0 0 0.24 0"/>
<feBlend mode="normal" in2="effect1_backgroundBlur_344_26912" result="effect2_dropShadow_344_26912"/>
<feBlend mode="normal" in="SourceGraphic" in2="effect2_dropShadow_344_26912" result="shape"/>
</filter>
<filter id="filter1_d_344_26912" x="20.9817" y="26.8921" width="27.4066" height="33.996" filterUnits="userSpaceOnUse" color-interpolation-filters="sRGB">
<feFlood flood-opacity="0" result="BackgroundImageFix"/>
<feColorMatrix in="SourceAlpha" type="matrix" values="0 0 0 0 0 0 0 0 0 0 0 0 0 0 0 0 0 0 127 0" result="hardAlpha"/>
<feOffset dy="1"/>
<feGaussianBlur stdDeviation="0.5"/>
<feComposite in2="hardAlpha" operator="out"/>
<feColorMatrix type="matrix" values="0 0 0 0 0.75 0 0 0 0 0.825521 0 0 0 0 1 0 0 0 1 0"/>
<feBlend mode="normal" in2="BackgroundImageFix" result="effect1_dropShadow_344_26912"/>
<feBlend mode="normal" in="SourceGraphic" in2="effect1_dropShadow_344_26912" result="shape"/>
</filter>
<linearGradient id="paint0_linear_344_26912" x1="72.6607" y1="8.41749" x2="52.5329" y2="41.3179" gradientUnits="userSpaceOnUse">
<stop stop-color="#3370FF"/>
<stop offset="1" stop-color="#749EFF"/>
</linearGradient>
</defs>
</svg>
