<svg width="18" height="18" viewBox="0 0 18 18" fill="none" xmlns="http://www.w3.org/2000/svg">
<g id="Frame">
<g clip-path="url(#clip0_975_119458)">
<g id="Frame 427319772">
<rect x="2" y="2" width="14" height="14" rx="4" fill="#F56600" fill-opacity="0.1"/>
<path id="Subtract" fill-rule="evenodd" clip-rule="evenodd" d="M8.94918 5.47002C9.27468 5.47002 9.50043 5.56627 9.62643 5.75702C9.70343 5.87252 9.74368 6.04752 9.74368 6.28377V6.97327C9.55818 6.98027 9.37268 6.99252 9.18718 7.00827C9.00168 7.02402 8.77943 7.05727 8.51868 7.10802C8.25794 7.15877 8.01643 7.22177 7.79243 7.29527C7.56843 7.37052 7.33918 7.47377 7.10643 7.60502C6.87368 7.73627 6.67593 7.88677 6.51143 8.05477C6.34693 8.22277 6.21393 8.43277 6.10893 8.68652C6.00568 8.93852 5.95318 9.21676 5.95318 9.52127C5.95318 9.85202 6.01093 10.1443 6.12643 10.4033C6.24193 10.6623 6.39593 10.8653 6.59018 11.0158C6.78443 11.1663 7.00493 11.2835 7.24818 11.371C7.49143 11.4585 7.74868 11.4953 8.01643 11.4848C8.28418 11.4743 8.54493 11.4323 8.79868 11.3605C9.05068 11.2888 9.28868 11.1733 9.51093 11.0158C9.73143 10.8583 9.91343 10.6728 10.0552 10.4593C10.1077 10.538 10.1532 10.5975 10.1952 10.6378L10.3019 10.7463C10.3719 10.818 10.4804 10.923 10.6257 11.063C10.7709 11.203 10.9179 11.3378 11.0667 11.4725L12.3354 10.258L12.2637 10.1985C12.2112 10.16 12.1499 10.1005 12.0782 10.0253C12.0064 9.94826 11.9364 9.86602 11.8682 9.77502C11.7999 9.68402 11.7404 9.57902 11.6897 9.46002C11.6389 9.34102 11.6144 9.22552 11.6144 9.11352V5.91977C11.6144 5.79552 11.5917 5.66427 11.5444 5.52077C11.4972 5.37727 11.4132 5.22152 11.2924 5.05352C11.1699 4.88552 11.0194 4.73502 10.8392 4.60377C10.6589 4.47077 10.4157 4.36052 10.1147 4.26952C9.81368 4.18027 9.47593 4.13477 9.10319 4.13477C8.72169 4.13477 8.36818 4.17852 8.03743 4.26777C7.70843 4.35702 7.42493 4.47427 7.19043 4.62302C6.95593 4.77002 6.75468 4.94152 6.58668 5.13752C6.41868 5.33177 6.29268 5.53652 6.21218 5.75002C6.13168 5.96352 6.08968 6.17877 6.08968 6.39577L7.73468 6.54277C7.80118 6.34327 7.89043 6.17002 8.00243 6.02127C8.11618 5.87427 8.22118 5.76577 8.31743 5.69927C8.41368 5.63277 8.52043 5.58027 8.63068 5.54002C8.74093 5.50152 8.81793 5.47877 8.85643 5.47527C8.89668 5.47177 8.92643 5.47002 8.94918 5.47002ZM12.5384 12.6363C12.6539 12.5365 12.7362 12.4578 12.7852 12.4C12.8412 12.3318 12.8692 12.2705 12.8692 12.2215C12.8692 12.169 12.8482 12.1375 12.8079 12.127C12.7677 12.1165 12.7187 12.1218 12.6627 12.1428C11.9137 12.4858 11.1857 12.729 10.4769 12.8743C8.94918 13.1858 7.45993 13.023 6.00918 12.386C5.60668 12.2093 5.04668 11.91 4.33093 11.4865C4.31168 11.4725 4.29068 11.4638 4.26618 11.462C4.24168 11.4603 4.22068 11.4638 4.20143 11.4725C4.18218 11.483 4.16643 11.4953 4.15593 11.511C4.14543 11.5268 4.14368 11.5495 4.15068 11.5758C4.15768 11.602 4.17693 11.6318 4.20668 11.665C4.33268 11.812 4.49018 11.9713 4.67568 12.1393C4.86293 12.3073 5.10968 12.4963 5.41768 12.708C5.72393 12.918 6.04768 13.107 6.38193 13.2715C6.71793 13.436 7.10643 13.5743 7.55093 13.6863C7.99543 13.7983 8.43818 13.8543 8.88268 13.8543C9.32193 13.8543 9.75068 13.8105 10.1654 13.7213C10.5819 13.632 10.9319 13.527 11.2172 13.4063C11.5007 13.2855 11.7649 13.1525 12.0047 13.0055C12.2444 12.8585 12.4229 12.736 12.5384 12.6363ZM13.8334 11.8925C13.8019 12.0868 13.7477 12.2705 13.6742 12.449C13.5482 12.7483 13.3889 12.974 13.1999 13.121C13.1369 13.1718 13.0879 13.1875 13.0547 13.17C13.0214 13.1525 13.0214 13.1088 13.0547 13.0405C13.1334 12.8778 13.2157 12.659 13.3032 12.3808C13.3907 12.1043 13.4029 11.9258 13.3399 11.847C13.3207 11.8208 13.2927 11.8015 13.2524 11.784C13.2139 11.7683 13.1632 11.7578 13.1019 11.7508C13.0509 11.7449 13.0036 11.7415 12.9619 11.7385L12.9374 11.7368C12.8884 11.7333 12.8237 11.7333 12.7414 11.7368C12.6592 11.7403 12.6014 11.7438 12.5647 11.7473C12.5297 11.7508 12.4719 11.756 12.3914 11.763C12.3109 11.77 12.2689 11.7735 12.2654 11.7735C12.2427 11.777 12.2182 11.7805 12.1937 11.7823C12.1674 11.784 12.1464 11.7858 12.1324 11.7875L12.0852 11.7928L12.0709 11.7943C12.0607 11.7954 12.0528 11.7963 12.0467 11.7963H11.9907L11.9732 11.7928L11.9627 11.784L11.9539 11.7683C11.9312 11.7105 12.0187 11.6388 12.2164 11.5513C12.4142 11.4638 12.6067 11.4095 12.7922 11.3885C12.9637 11.3623 13.1649 11.3623 13.3959 11.3833C13.6269 11.4043 13.7687 11.448 13.8212 11.5128C13.8614 11.574 13.8649 11.7 13.8334 11.8925ZM8.52739 8.22136C8.32439 8.30711 8.16164 8.43486 8.04089 8.60636C7.92014 8.77786 7.85889 8.98436 7.85889 9.22761C7.85889 9.53911 7.99014 9.77886 8.25089 9.94861C8.49764 10.1079 8.75664 10.1481 9.02789 10.0676C9.34114 9.97661 9.55289 9.75436 9.66489 9.40086C9.71739 9.23811 9.74364 9.05611 9.74364 8.85311V7.97461C9.52314 7.98161 9.31664 8.00261 9.12239 8.03936C8.92814 8.07611 8.73039 8.13736 8.52739 8.22136Z" fill="#F56600"/>
</g>
</g>
</g>
<defs>
<clipPath id="clip0_975_119458">
<rect width="18" height="18" rx="2" fill="white"/>
</clipPath>
</defs>
</svg>
