<svg width="18" height="18" viewBox="0 0 18 18" fill="none" xmlns="http://www.w3.org/2000/svg">
<g id="Frame">
<g clip-path="url(#clip0_975_119463)">
<g id="Frame 427319773">
<rect x="2" y="2" width="14" height="14" rx="4" fill="#F5893A" fill-opacity="0.15"/>
<path id="Vector" d="M11.7598 12.4431C11.2483 13.0935 10.5318 13.8497 9.75192 13.9663C9.07538 14.0665 8.61831 13.9262 7.96535 13.6438C7.45742 13.8278 6.91102 13.878 6.3783 13.7895C5.4968 13.5909 5.16125 13.1737 4.58447 12.4285C4.19451 11.9219 3.94241 10.8652 4.01134 10.1855C4.14374 8.88643 4.45753 7.60007 4.76043 6.32465C5.09416 4.91804 6.50163 3.956 8.09957 4.00155C8.13241 4.00224 8.16457 4.01099 8.19327 4.02704C8.22197 4.04309 8.24632 4.06594 8.26421 4.09361C8.2821 4.12128 8.29297 4.15293 8.29589 4.18579C8.29881 4.21865 8.29368 4.25174 8.28095 4.28215C7.71142 5.64321 7.14552 6.97512 6.60321 8.31432C6.28882 9.08686 6.00103 9.86913 5.73985 10.6611C5.64175 10.9421 5.61373 11.2431 5.65824 11.5375C5.83961 12.4267 7.12921 12.6417 7.54093 12.0276C7.91061 11.416 8.22039 10.7698 8.46596 10.0981C8.80876 9.2636 9.14483 8.97556 9.97191 9.32539C10.1924 9.41865 10.1951 9.99008 9.88127 10.5239C9.65579 10.9136 9.16755 12.1374 9.23362 12.574C9.2399 12.6155 9.26025 12.6536 9.29123 12.6817C9.6431 12.9623 10.2253 12.2025 10.3994 11.8709C11.0669 10.6101 11.6854 9.51868 12.3275 8.24326C12.5089 7.8661 12.601 7.7361 13 7C12.9444 7.00328 13.0358 6.94865 13 7C13.163 6.69931 13.4712 6.91044 13.5 7C13.7086 7.59945 13.7985 7.94627 13.9544 8.39267C13.9922 8.50031 14.0068 8.61481 13.9971 8.72854C13.9874 8.84227 13.9537 8.95262 13.8982 9.05224C13.4883 9.78835 12.4436 11.5739 11.7598 12.4431Z" fill="#F4883A"/>
</g>
</g>
</g>
<defs>
<clipPath id="clip0_975_119463">
<rect width="18" height="18" rx="2" fill="white"/>
</clipPath>
</defs>
</svg>
