<?xml version="1.0" encoding="UTF-8"?>
<svg width="26px" height="26px" viewBox="0 0 26 26" version="1.1" xmlns="http://www.w3.org/2000/svg" xmlns:xlink="http://www.w3.org/1999/xlink">
    <!-- Generator: Sketch 58 (84663) - https://sketch.com -->
    <title>richscan_icon</title>
    <desc>Created with Sketch.</desc>
    <g id="注册/登陆" stroke="none" stroke-width="1" fill="none" fill-rule="evenodd">
        <g id="注册登录-二维码登录刷新" transform="translate(-1298.000000, -677.000000)" fill="#00A3FF" fill-rule="nonzero">
            <g id="入口" transform="translate(1050.000000, 252.000000)">
                <g id="底部">
                    <g id="编组-2" transform="translate(248.000000, 420.000000)">
                        <g id="richscan_icon" transform="translate(0.000000, 5.000000)">
                            <path d="M0.725668202,10.0688835 C0.916318523,10.0688835 1.09918002,9.99324701 1.23399017,9.85843687 C1.36880031,9.72362672 1.44450544,9.54076523 1.44443678,9.35011491 L1.44443678,1.44443678 L9.35011491,1.44443678 C9.74707983,1.44443678 10.0688835,1.12263313 10.0688835,0.725668202 C10.0688835,0.328703279 9.74707983,0.00689957969 9.35011491,0.00689957969 L0.725668202,0.00689957969 C0.535017881,0.00689957969 0.352156383,0.0825360961 0.21734624,0.21734624 C0.0825360961,0.352156383 0.00689957969,0.535017881 0.00689957969,0.725668202 L0.00689957969,9.35011491 C0.00689957969,9.54076523 0.0825360961,9.72362672 0.21734624,9.85843687 C0.352156383,9.99324701 0.535017881,10.0688835 0.725668202,10.0688835 Z M9.35011491,24.4429613 L1.44443678,24.4429613 L1.44443678,16.5372832 C1.44443678,16.1403183 1.12263313,15.8185146 0.725668202,15.8185146 C0.328703279,15.8185146 0.00689957969,16.1403183 0.00689957969,16.5372832 L0.00689957969,25.1617299 C0.00689957969,25.3523802 0.0825360961,25.5352417 0.21734624,25.6700519 C0.352156383,25.804862 0.535017881,25.8804985 0.725668202,25.8804985 L9.35011491,25.8804985 C9.7470798,25.8804985 10.0688834,25.5586948 10.0688834,25.1617299 C10.0688834,24.764765 9.7470798,24.4429614 9.35011491,24.4429613 Z M25.1617299,0.00689943954 L16.5372832,0.00689943954 C16.2804919,0.00689943954 16.043207,0.143896138 15.9148113,0.366283911 C15.7864157,0.588671684 15.7864157,0.86266472 15.9148113,1.08505249 C16.043207,1.30744027 16.2804919,1.44443678 16.5372832,1.44443678 L24.4429613,1.44443678 L24.4429613,9.35011491 C24.4429613,9.74707983 24.764765,10.0688835 25.1617299,10.0688835 C25.5586948,10.0688835 25.8804987,9.74707983 25.8804987,9.35011491 L25.8804987,0.725668202 C25.8806359,0.534996829 25.8049528,0.352095374 25.6701278,0.217270318 C25.5353027,0.0824452613 25.3524013,0.0067622055 25.1617299,0.00689943954 Z M25.1617299,15.8185144 C24.9710585,15.8183772 24.7881571,15.8940603 24.653332,16.0288853 C24.518507,16.1637104 24.4428239,16.3466118 24.4429613,16.5372832 L24.4429613,24.4429613 L16.5372832,24.4429613 C16.1403183,24.4429613 15.8185146,24.764765 15.8185146,25.1617299 C15.8185146,25.5586948 16.1403183,25.8804987 16.5372832,25.8804987 L25.1617299,25.8804987 C25.3524013,25.8806359 25.5353027,25.8049528 25.6701278,25.6701278 C25.8049528,25.5353027 25.8806359,25.3524013 25.8804987,25.1617299 L25.8804987,16.5372832 C25.8806359,16.3466118 25.8049528,16.1637104 25.6701278,16.0288853 C25.5353027,15.8940603 25.3524013,15.8183772 25.1617299,15.8185144 L25.1617299,15.8185144 Z M25.1617299,12.2249305 L0.725668202,12.2249305 C0.328703279,12.2249305 0.00689962636,12.5467341 0.00689962636,12.943699 C0.00689962636,13.340664 0.328703279,13.6624676 0.725668202,13.6624676 L25.1617299,13.6624676 C25.5586948,13.6624676 25.8804984,13.340664 25.8804984,12.943699 C25.8804984,12.5467341 25.5586948,12.2249305 25.1617299,12.2249305 Z" id="形状"></path>
                        </g>
                    </g>
                </g>
            </g>
        </g>
    </g>
</svg>