<?xml version="1.0" encoding="UTF-8"?>
<svg width="14px" height="14px" viewBox="0 0 14 14" version="1.1" xmlns="http://www.w3.org/2000/svg" xmlns:xlink="http://www.w3.org/1999/xlink">
    <!-- Generator: Sketch 58 (84663) - https://sketch.com -->
    <title>Shape</title>
    <desc>Created with Sketch.</desc>
    <g id="页面-1" stroke="none" stroke-width="1" fill="none" fill-rule="evenodd">
        <g id="我的商标-查看商标信息" transform="translate(-704.000000, -619.000000)" fill="#1890ff" fill-rule="nonzero">
            <g id="编组-12备份-2" transform="translate(616.000000, 473.000000)">
                <g id="编组-11" transform="translate(24.000000, 60.000000)">
                    <g id="编组-14" transform="translate(0.000000, 82.000000)">
                        <g id="编组-5" transform="translate(64.000000, 0.000000)">
                            <g id="编组-10">
                                <g id="编组" transform="translate(0.000000, 4.000000)">
                                    <path d="M8.53484459,3.13937862 C8.73711815,2.97889925 9.02032391,2.97889925 9.24283368,3.15944639 C9.44510725,3.3600362 9.44510725,3.64087198 9.24283368,3.84147434 L4.91396691,8.11423936 C4.63078644,8.37501991 4.63078644,8.83639029 4.91396691,9.13729382 C5.17693645,9.4181296 5.64219221,9.4181296 5.94560888,9.13729382 L11.0229245,4.08219968 C11.7309136,3.38009142 11.7309136,2.21662533 11.0229245,1.51452962 C10.3149354,0.812433908 9.14169058,0.812421366 8.43370148,1.51452962 L7.82684284,2.11631161 L7.6650164,2.27680353 L2.99228583,6.91063775 C1.83926453,8.05406116 1.83926453,9.87951252 2.99228583,11.0229234 C4.14529447,12.1663468 5.98606866,12.1663468 7.13908995,11.0229234 L11.8320441,6.40914439 C11.912951,6.36902141 11.9534108,6.30884321 11.9938705,6.24866501 C12.1961441,6.04806265 12.4793499,6.04806265 12.6816234,6.24866501 C12.883897,6.44926737 12.8839096,6.73010315 12.6816234,6.93070551 L12.6411763,6.97082849 C12.6007039,6.99088371 12.5602567,7.05106191 12.519797,7.09118489 L7.82684284,11.7049639 C6.30972154,13.2094565 3.82164159,13.2094565 2.30450764,11.7049639 C0.787373694,10.2004713 0.787398989,7.7331024 2.30450764,6.22859725 L7.74593594,0.812433908 C8.83826126,-0.270811303 10.6183521,-0.270811303 11.7309136,0.812433908 C12.8232389,1.89566658 12.8232389,3.6609272 11.7309136,4.76422763 L6.63336177,9.81933432 C5.9658198,10.4813196 4.87350713,10.4813196 4.22620137,9.81933432 C3.5586594,9.15734904 3.5586594,8.07411638 4.22620137,7.43219886 L8.53483194,3.13937862 L8.53484459,3.13937862 Z" id="Shape"></path>
                                </g>
                            </g>
                        </g>
                    </g>
                </g>
            </g>
        </g>
    </g>
</svg>