<?xml version="1.0" encoding="UTF-8"?>
<svg width="16px" height="16px" viewBox="0 0 16 16" version="1.1" xmlns="http://www.w3.org/2000/svg" xmlns:xlink="http://www.w3.org/1999/xlink">
    <!-- Generator: Sketch 58 (84663) - https://sketch.com -->
    <title>fuzhi</title>
    <desc>Created with Sketch.</desc>
    <g id="页面-1" stroke="none" stroke-width="1" fill="none" fill-rule="evenodd">
        <g id="我的商标-样式" transform="translate(-1499.000000, -531.000000)" fill="#333333" fill-rule="nonzero">
            <g id="基本信息" transform="translate(592.000000, 102.000000)">
                <g id="编组-17备份-2" transform="translate(24.000000, 376.000000)">
                    <g id="编组-15" transform="translate(12.000000, 0.000000)">
                        <g id="编组-4" transform="translate(735.000000, 52.000000)">
                            <g id="fuzhi" transform="translate(136.000000, 1.000000)">
                                <path d="M11.7229513,0.255181031 C11.5562747,0.0913471398 11.331822,-0.000317485434 11.0981074,-8.21977126e-07 L5.20185268,-8.21977126e-07 C4.61371286,-8.21977126e-07 4.1251985,0.427340829 4.03693384,0.982272158 L2.80734582,0.982272158 C1.81720849,0.982272158 1.01321348,1.77315856 1.01321348,2.74756555 L1.01321348,13.9650437 C1.01321348,14.9394507 1.81720849,15.7303371 2.80734582,15.7303371 L12.2411785,15.7303371 C13.2313158,15.7303371 14.0353109,14.9394507 14.0353109,13.9641698 L14.0353109,12.7302122 C14.588156,12.6312883 14.9918859,12.1522494 14.9957353,11.5906367 L14.9957353,3.83820225 C14.9953395,3.60625519 14.9021978,3.38409967 14.7370587,3.22122346 L11.7220774,0.255181031 L11.7229513,0.255181031 Z M13.5476704,3.44144818 L11.0657728,3.44144818 L11.0657728,0.998876404 L13.5476704,3.44144818 Z M13.0382078,13.9650437 C13.0416779,14.3932584 12.6859975,14.7428215 12.2429263,14.7480649 L2.80647191,14.7480649 C2.36340074,14.7436954 2.00684645,14.3932584 2.01117624,13.9650437 L2.01117624,2.75018726 C2.01117624,2.31760299 2.3686442,1.96629213 2.80647191,1.96629213 L4.02295131,1.96629213 L4.02295131,11.5932584 C4.02295131,12.2329588 4.5499176,12.7529338 5.20097878,12.7529338 L13.0373084,12.7529338 L13.0373084,13.9650437 L13.0382078,13.9650437 Z M13.9986067,11.5906367 C13.9986067,11.6378277 13.9811286,11.682397 13.9461723,11.7156055 C13.9119771,11.7488556 13.8662758,11.7676369 13.8185818,11.76804 L5.20185268,11.76804 C5.15415865,11.7676369 5.10845741,11.7488556 5.07426218,11.7156055 C5.04075493,11.6827219 5.02213024,11.6375807 5.02268885,11.5906367 L5.02268885,1.15967541 C5.02268885,1.06354557 5.1013533,0.983146067 5.20185268,0.983146067 L10.0013533,0.983146067 L10.0013533,3.93258427 C10.0013533,4.20436953 10.2241998,4.42459425 10.5003546,4.42459425 L13.9986067,4.42459425 L13.9986067,11.5906367 Z" id="形状"></path>
                                <path d="M11.8470462,7.14681647 L7.65753308,7.14681647 C7.51761852,7.14643715 7.38327479,7.09194809 7.28262672,6.99475656 C7.18451846,6.8997188 7.12957412,6.76867341 7.13055357,6.6320849 C7.13055357,6.34806492 7.36652184,6.1173533 7.65753308,6.1173533 L11.8479201,6.1173533 C12.1389313,6.1173533 12.3740125,6.34806492 12.3740125,6.63295881 C12.3740125,6.91785269 12.1380574,7.14681647 11.8479201,7.14681647 L11.8470462,7.14681647 Z M11.8470462,9.25380773 L7.65753308,9.25380773 C7.51761852,9.25342841 7.38327479,9.19893935 7.28262672,9.10174782 C7.18451846,9.00671006 7.12957412,8.87566467 7.13055357,8.73907616 C7.13055357,8.45505618 7.36652184,8.22347065 7.65753308,8.22347065 L11.8479201,8.22347065 C12.1389313,8.22347065 12.3740125,8.45418227 12.3740125,8.73907616 C12.3740125,9.02309613 12.1380574,9.25468164 11.8479201,9.25468164 L11.8470462,9.25468164 L11.8470462,9.25380773 Z" id="形状"></path>
                            </g>
                        </g>
                    </g>
                </g>
            </g>
        </g>
    </g>
</svg>