<?xml version="1.0" encoding="UTF-8"?>
<svg width="13px" height="12px" viewBox="0 0 13 12" version="1.1" xmlns="http://www.w3.org/2000/svg" xmlns:xlink="http://www.w3.org/1999/xlink">
    <!-- Generator: Sketch 58 (84663) - https://sketch.com -->
    <title>提示</title>
    <desc>Created with Sketch.</desc>
    <g id="页面-1" stroke="none" stroke-width="1" fill="none" fill-rule="evenodd">
        <g id="我的商标-填写商标信息-基本信息" transform="translate(-917.000000, -1074.000000)">
            <g id="编组-16" transform="translate(630.000000, 1066.000000)">
                <g id="编组" transform="translate(288.000000, 8.000000)">
                    <circle id="椭圆形" fill-opacity="0.207905376" fill="#000000" cx="5.91780822" cy="5.91780822" r="5.91780822"></circle>
                    <g id="编组-4" transform="translate(3.333333, 3.333333)" fill="#FFFFFF" fill-rule="nonzero">
                        <path d="M0.106992957,0.106992957 C0.249650232,-0.0356643189 0.480943375,-0.0356643189 0.623600651,0.106992957 L0.623600651,0.106992957 L2.435,1.918 L4.24765668,0.106992957 C4.39031396,-0.0356643189 4.6216071,-0.0356643189 4.76426437,0.106992957 C4.90692165,0.249650232 4.90692165,0.480943375 4.76426437,0.623600651 L2.952,2.435 L4.76426437,4.24765668 C4.88654204,4.36993435 4.90401028,4.55733224 4.81666909,4.69821568 L4.76426437,4.76426437 C4.6216071,4.90692165 4.39031396,4.90692165 4.24765668,4.76426437 L4.24765668,4.76426437 L2.435,2.952 L0.623600651,4.76426437 C0.480943375,4.90692165 0.249650232,4.90692165 0.106992957,4.76426437 C-0.0356643189,4.6216071 -0.0356643189,4.39031396 0.106992957,4.24765668 L1.918,2.435 L0.106992957,0.623600651 C-0.0152847081,0.501322986 -0.0327529459,0.313925092 0.0545882432,0.173041648 Z" id="形状结合"></path>
                    </g>
                </g>
            </g>
        </g>
    </g>
</svg>