<?xml version="1.0" encoding="UTF-8"?>
<svg width="153px" height="43px" viewBox="0 0 153 43" version="1.1" xmlns="http://www.w3.org/2000/svg" xmlns:xlink="http://www.w3.org/1999/xlink">
    <!-- Generator: Sketch 58 (84663) - https://sketch.com -->
    <title>跨标云logo横版标准组合（标准色）</title>
    <desc>Created with Sketch.</desc>
    <defs>
        <path d="M26.9936855,0.0211099476 C19.6364032,0.0211099476 13.5507339,5.55873298 12.5698065,12.7209424 L12.5698065,12.7209424 C5.48121774,13.7120105 0,19.8550052 0,27.2819686 L0,27.2819686 C0,35.2740628 6.34434677,41.7840628 14.2126694,41.9815288 L14.2126694,41.9815288 C14.2740726,41.9863665 14.3330806,42 14.3951371,42 L14.3951371,42 C14.4162581,42 14.4349839,41.9942827 14.4556694,41.9934031 L14.4556694,41.9934031 C14.4963871,41.9938429 14.5351452,42 14.5756452,42 L14.5756452,42 L14.5756452,41.9815288 C15.681121,41.8876335 16.5525242,40.9618743 16.5525242,39.8210576 L16.5525242,39.8210576 L16.5525242,33.6985131 C16.5525242,32.4948063 15.586621,31.5197906 14.3951371,31.5197906 L14.3951371,31.5197906 C13.2036532,31.5197906 12.2381855,32.4948063 12.2381855,33.6985131 L12.2381855,33.6985131 L12.2381855,37.3613089 C7.7043629,36.2888796 4.31455645,32.1818953 4.31455645,27.2819686 L4.31455645,27.2819686 C4.31455645,21.5693089 8.91631452,16.9222618 14.5730323,16.9222618 L14.5730323,16.9222618 C18.1100323,16.9222618 21.2348468,18.7372775 23.0812984,21.4938848 L23.0812984,21.4938848 C24.1891694,23.1472775 24.8365161,25.1399686 24.8365161,27.2819686 L24.8365161,27.2819686 C24.8365161,35.3972042 31.3744355,42 39.4099839,42 L39.4099839,42 C47.4485806,42 53.9884597,35.3972042 53.9884597,27.2819686 L53.9884597,27.2819686 C53.9884597,19.8578639 48.5152984,13.7001361 41.4284516,12.7048901 L41.4284516,12.7048901 C40.4433871,5.54795812 34.3461774,0.0211099476 26.9936855,0.0211099476 Z M29.1510726,27.2819686 C29.1510726,26.798199 29.1247258,26.3208063 29.079,25.8491309 L29.079,25.8491309 C29.0641935,25.6921257 29.0358871,25.5392984 29.0158548,25.3829529 L29.0158548,25.3829529 C28.9755726,25.0709215 28.9339839,24.7602094 28.8747581,24.454555 L28.8747581,24.454555 C28.8397016,24.2731414 28.7931048,24.0967853 28.7519516,23.9177906 L28.7519516,23.9177906 C28.6879355,23.6442408 28.6230484,23.3711309 28.5437903,23.1037382 L28.5437903,23.1037382 C28.4895726,22.9190262 28.4272984,22.7371728 28.3656774,22.5553194 L28.3656774,22.5553194 C28.2805403,22.3015602 28.1917016,22.0506597 28.0930645,21.8041571 L28.0930645,21.8041571 C28.0203387,21.6227435 27.9432581,21.4444084 27.8637823,21.2656335 L27.8637823,21.2656335 C27.7570887,21.0266073 27.6447339,20.7913194 27.5260645,20.5584503 L27.5260645,20.5584503 C27.4370081,20.3858325 27.3472984,20.214534 27.2523629,20.0458743 L27.2523629,20.0458743 C27.1241129,19.8178429 26.9880242,19.595089 26.8475806,19.3743141 L26.8475806,19.3743141 C26.7461129,19.2133508 26.6455161,19.0528272 26.5375161,18.8964817 L26.5375161,18.8964817 C26.3844435,18.6754869 26.2222258,18.4621885 26.0584839,18.2502094 L26.0584839,18.2502094 C25.9480887,18.1068377 25.8409597,17.9617068 25.7253387,17.8229529 L25.7253387,17.8229529 C25.5396048,17.5999791 25.3423306,17.3884398 25.14375,17.1773403 L25.14375,17.1773403 C25.0359677,17.0618953 24.9338468,16.9420524 24.8221452,16.8305654 L24.8221452,16.8305654 C24.537121,16.5455812 24.2390323,16.2737906 23.9317984,16.0132147 L23.9317984,16.0132147 C23.8987016,15.9848482 23.8686532,15.953623 23.8349032,15.9252565 L23.8349032,15.9252565 C23.4934839,15.6409319 23.1368226,15.3739791 22.7705806,15.1213194 L22.7705806,15.1213194 C22.645379,15.0346806 22.5129919,14.9592565 22.3847419,14.8770157 L22.3847419,14.8770157 C22.1358629,14.7162723 21.8867661,14.5575079 21.6280887,14.4125969 L21.6280887,14.4125969 C21.4715323,14.324199 21.3093145,14.2470157 21.1499274,14.1649948 L21.1499274,14.1649948 C20.9088871,14.0416335 20.6669758,13.9193717 20.41875,13.8092042 L20.41875,13.8092042 C20.2445565,13.7322408 20.0673145,13.6627539 19.8898548,13.5930471 L19.8898548,13.5930471 C19.6448952,13.4956335 19.3988468,13.4017382 19.1471371,13.3179581 L19.1471371,13.3179581 C18.9624919,13.2559476 18.7756694,13.1998743 18.5877581,13.1455602 L18.5877581,13.1455602 C18.3336532,13.0712356 18.0769355,13.0048272 17.8171694,12.9445759 L17.8171694,12.9445759 C17.6259919,12.9012565 17.4341613,12.8594764 17.2399355,12.8234136 L17.2399355,12.8234136 C17.132371,12.8025236 17.0280726,12.7732775 16.9194194,12.7552461 L16.9194194,12.7552461 C17.8406855,7.98747644 22.0078306,4.37811518 26.9936855,4.37811518 L26.9936855,4.37811518 C32.6508387,4.37811518 37.2528145,9.02824084 37.2528145,14.7433194 L37.2528145,14.7433194 C37.2528145,15.9465864 38.2189355,16.9222618 39.4099839,16.9222618 L39.4099839,16.9222618 C45.0699677,16.9222618 49.6739032,21.5693089 49.6739032,27.2819686 L49.6739032,27.2819686 C49.6739032,32.9944084 45.0699677,37.6429948 39.4099839,37.6429948 L39.4099839,37.6429948 C33.7537016,37.6429948 29.1510726,32.9944084 29.1510726,27.2819686 L29.1510726,27.2819686 Z" id="path-1"></path>
        <linearGradient x1="0%" y1="49.9998703%" x2="100.000119%" y2="49.9998703%" id="linearGradient-3">
            <stop stop-color="#016EFF" offset="0%"></stop>
            <stop stop-color="#00A3FF" offset="100%"></stop>
        </linearGradient>
        <polygon id="path-4" points="0 42 144.934348 42 144.934348 0.0211099476 0 0.0211099476"></polygon>
    </defs>
    <g id="页面-1" stroke="none" stroke-width="1" fill="none" fill-rule="evenodd">
        <g id="首页" transform="translate(-339.000000, -2129.000000)">
            <g id="底部" transform="translate(0.000000, 2088.000000)">
                <g id="编组-17" transform="translate(339.000000, 32.000000)">
                    <g id="编组-5" transform="translate(0.000000, 9.000000)">
                        <g id="编组-9">
                            <g id="编组" transform="translate(3.000000, 0.000000)">
                                <g>
                                    <mask id="mask-2" fill="white">
                                        <use xlink:href="#path-1"></use>
                                    </mask>
                                    <g id="Clip-2"></g>
                                    <path d="M26.9936855,0.0211099476 C19.6364032,0.0211099476 13.5507339,5.55873298 12.5698065,12.7209424 L12.5698065,12.7209424 C5.48121774,13.7120105 0,19.8550052 0,27.2819686 L0,27.2819686 C0,35.2740628 6.34434677,41.7840628 14.2126694,41.9815288 L14.2126694,41.9815288 C14.2740726,41.9863665 14.3330806,42 14.3951371,42 L14.3951371,42 C14.4162581,42 14.4349839,41.9942827 14.4556694,41.9934031 L14.4556694,41.9934031 C14.4963871,41.9938429 14.5351452,42 14.5756452,42 L14.5756452,42 L14.5756452,41.9815288 C15.681121,41.8876335 16.5525242,40.9618743 16.5525242,39.8210576 L16.5525242,39.8210576 L16.5525242,33.6985131 C16.5525242,32.4948063 15.586621,31.5197906 14.3951371,31.5197906 L14.3951371,31.5197906 C13.2036532,31.5197906 12.2381855,32.4948063 12.2381855,33.6985131 L12.2381855,33.6985131 L12.2381855,37.3613089 C7.7043629,36.2888796 4.31455645,32.1818953 4.31455645,27.2819686 L4.31455645,27.2819686 C4.31455645,21.5693089 8.91631452,16.9222618 14.5730323,16.9222618 L14.5730323,16.9222618 C18.1100323,16.9222618 21.2348468,18.7372775 23.0812984,21.4938848 L23.0812984,21.4938848 C24.1891694,23.1472775 24.8365161,25.1399686 24.8365161,27.2819686 L24.8365161,27.2819686 C24.8365161,35.3972042 31.3744355,42 39.4099839,42 L39.4099839,42 C47.4485806,42 53.9884597,35.3972042 53.9884597,27.2819686 L53.9884597,27.2819686 C53.9884597,19.8578639 48.5152984,13.7001361 41.4284516,12.7048901 L41.4284516,12.7048901 C40.4433871,5.54795812 34.3461774,0.0211099476 26.9936855,0.0211099476 Z M29.1510726,27.2819686 C29.1510726,26.798199 29.1247258,26.3208063 29.079,25.8491309 L29.079,25.8491309 C29.0641935,25.6921257 29.0358871,25.5392984 29.0158548,25.3829529 L29.0158548,25.3829529 C28.9755726,25.0709215 28.9339839,24.7602094 28.8747581,24.454555 L28.8747581,24.454555 C28.8397016,24.2731414 28.7931048,24.0967853 28.7519516,23.9177906 L28.7519516,23.9177906 C28.6879355,23.6442408 28.6230484,23.3711309 28.5437903,23.1037382 L28.5437903,23.1037382 C28.4895726,22.9190262 28.4272984,22.7371728 28.3656774,22.5553194 L28.3656774,22.5553194 C28.2805403,22.3015602 28.1917016,22.0506597 28.0930645,21.8041571 L28.0930645,21.8041571 C28.0203387,21.6227435 27.9432581,21.4444084 27.8637823,21.2656335 L27.8637823,21.2656335 C27.7570887,21.0266073 27.6447339,20.7913194 27.5260645,20.5584503 L27.5260645,20.5584503 C27.4370081,20.3858325 27.3472984,20.214534 27.2523629,20.0458743 L27.2523629,20.0458743 C27.1241129,19.8178429 26.9880242,19.595089 26.8475806,19.3743141 L26.8475806,19.3743141 C26.7461129,19.2133508 26.6455161,19.0528272 26.5375161,18.8964817 L26.5375161,18.8964817 C26.3844435,18.6754869 26.2222258,18.4621885 26.0584839,18.2502094 L26.0584839,18.2502094 C25.9480887,18.1068377 25.8409597,17.9617068 25.7253387,17.8229529 L25.7253387,17.8229529 C25.5396048,17.5999791 25.3423306,17.3884398 25.14375,17.1773403 L25.14375,17.1773403 C25.0359677,17.0618953 24.9338468,16.9420524 24.8221452,16.8305654 L24.8221452,16.8305654 C24.537121,16.5455812 24.2390323,16.2737906 23.9317984,16.0132147 L23.9317984,16.0132147 C23.8987016,15.9848482 23.8686532,15.953623 23.8349032,15.9252565 L23.8349032,15.9252565 C23.4934839,15.6409319 23.1368226,15.3739791 22.7705806,15.1213194 L22.7705806,15.1213194 C22.645379,15.0346806 22.5129919,14.9592565 22.3847419,14.8770157 L22.3847419,14.8770157 C22.1358629,14.7162723 21.8867661,14.5575079 21.6280887,14.4125969 L21.6280887,14.4125969 C21.4715323,14.324199 21.3093145,14.2470157 21.1499274,14.1649948 L21.1499274,14.1649948 C20.9088871,14.0416335 20.6669758,13.9193717 20.41875,13.8092042 L20.41875,13.8092042 C20.2445565,13.7322408 20.0673145,13.6627539 19.8898548,13.5930471 L19.8898548,13.5930471 C19.6448952,13.4956335 19.3988468,13.4017382 19.1471371,13.3179581 L19.1471371,13.3179581 C18.9624919,13.2559476 18.7756694,13.1998743 18.5877581,13.1455602 L18.5877581,13.1455602 C18.3336532,13.0712356 18.0769355,13.0048272 17.8171694,12.9445759 L17.8171694,12.9445759 C17.6259919,12.9012565 17.4341613,12.8594764 17.2399355,12.8234136 L17.2399355,12.8234136 C17.132371,12.8025236 17.0280726,12.7732775 16.9194194,12.7552461 L16.9194194,12.7552461 C17.8406855,7.98747644 22.0078306,4.37811518 26.9936855,4.37811518 L26.9936855,4.37811518 C32.6508387,4.37811518 37.2528145,9.02824084 37.2528145,14.7433194 L37.2528145,14.7433194 C37.2528145,15.9465864 38.2189355,16.9222618 39.4099839,16.9222618 L39.4099839,16.9222618 C45.0699677,16.9222618 49.6739032,21.5693089 49.6739032,27.2819686 L49.6739032,27.2819686 C49.6739032,32.9944084 45.0699677,37.6429948 39.4099839,37.6429948 L39.4099839,37.6429948 C33.7537016,37.6429948 29.1510726,32.9944084 29.1510726,27.2819686 L29.1510726,27.2819686 Z" id="Fill-1" fill="url(#linearGradient-3)" mask="url(#mask-2)"></path>
                                </g>
                                <g>
                                    <path d="M12.2185217,27.2815508 L12.2185217,27.2828702 C12.2185217,28.486577 13.183087,29.4602733 14.3724348,29.4602733 C15.5615652,29.4602733 16.525913,28.4848178 16.525913,27.2815508 C16.525913,26.0782838 15.5615652,25.1032681 14.3724348,25.1032681 C13.183087,25.1032681 12.2185217,26.0782838 12.2185217,27.2815508" id="Fill-3" fill="#FBB73C"></path>
                                    <path d="M12.2185217,27.2815508 L12.2185217,27.2828702 C12.2185217,28.486577 13.183087,29.4602733 14.3724348,29.4602733 C15.5615652,29.4602733 16.525913,28.4848178 16.525913,27.2815508 C16.525913,26.0782838 15.5615652,25.1032681 14.3724348,25.1032681 C13.183087,25.1032681 12.2185217,26.0782838 12.2185217,27.2815508" id="Fill-5" fill="#00A3FF"></path>
                                    <mask id="mask-5" fill="white">
                                        <use xlink:href="#path-4"></use>
                                    </mask>
                                    <g id="Clip-10"></g>
                                    <polygon id="Fill-9" fill="#FFFFFF" mask="url(#mask-5)" points="101.382609 5.08705759 115.272174 5.08705759 115.272174 2.92020942 101.382609 2.92020942"></polygon>
                                    <polygon id="Fill-7" fill="#FFFFFF" mask="url(#mask-5)" points="111.941783 15.5956335 114.569174 26.9420105 114.62613 27.1790576 116.938522 27.1790576 114.31113 15.5956335"></polygon>
                                    <polygon id="Fill-11" fill="#FFFFFF" mask="url(#mask-5)" points="116.649652 12.1861791 100.059435 12.1861791 100.059435 14.3530272 107.415957 14.3530272 107.415957 25.2492785 102.994652 25.2492785 104.038348 27.358734 109.714435 27.358734 109.714435 14.3530272 116.649652 14.3530272"></polygon>
                                    <polygon id="Fill-12" fill="#FFFFFF" mask="url(#mask-5)" points="104.357935 15.5956335 102.038152 15.5956335 98.8522826 27.1790576 101.228587 27.1790576 104.251413 15.9835288"></polygon>
                                    <polygon id="Fill-13" fill="#FFFFFF" mask="url(#mask-5)" points="98.4072609 10.033712 97.1716087 10.033712 97.1716087 8.91312565 100.610957 8.91312565 100.610957 6.74627749 97.1716087 6.74627749 97.1716087 1.54355497 94.8707391 1.54355497 94.8707391 6.74627749 91.007913 6.74627749 91.007913 8.91312565 93.3205217 8.91312565 90.8326957 21.1694293 93.1453043 21.1694293 94.8707391 12.648267 94.8707391 27.3586021 97.1716087 27.3586021 97.1716087 13.5509372 98.400087 17.1638168 100.840304 17.1638168"></polygon>
                                    <path d="M83.9395,9.67455707 L72.523413,9.67455707 L77.7142826,5.50600209 L79.8468913,5.50600209 L79.8468913,6.42296545 L83.9395,9.67455707 Z M85.7975435,3.33915393 L78.6823261,3.33915393 L79.5818913,1.54348901 L77.155587,1.54348901 L76.2560217,3.33915393 L70.6368913,3.33915393 L70.6368913,5.50600209 L74.2440652,5.50600209 L70.5303696,8.45831623 L70.5303696,11.2738555 L72.4358043,9.74382408 L72.4358043,11.8438241 L84.1573261,11.8438241 L84.1573261,9.84695497 L85.7975435,11.1493948 L85.7975435,8.3384733 L82.2849348,5.50600209 L85.7975435,5.50600209 L85.7975435,3.33915393 Z" id="Fill-14" fill="#FFFFFF" mask="url(#mask-5)"></path>
                                    <path d="M64.6791304,10.512534 L68.0945652,10.512534 L68.0945652,4.66815707 L64.6791304,4.66815707 L64.6791304,10.512534 Z M68.1182609,17.2835497 L70.688913,17.2835497 L70.688913,15.1167016 L68.1182609,15.1167016 L68.1182609,12.6793822 L70.3954348,12.6793822 L70.3954348,2.5013089 L62.3784783,2.5013089 L62.3784783,12.6793822 L65.82,12.6793822 L65.82,25.0410157 L64.5206522,25.0410157 L64.5206522,13.8597801 L62.2743478,13.8597801 L62.2743478,25.0410157 L61.3202174,25.0410157 L61.3202174,25.7306073 L61.3202174,26.6117277 L61.3202174,27.1790576 L71.3019565,27.1790576 L71.3019565,25.0410157 L68.1182609,25.0410157 L68.1182609,17.2835497 Z" id="Fill-15" fill="#FFFFFF" mask="url(#mask-5)"></path>
                                    <polygon id="Fill-16" fill="#FFFFFF" mask="url(#mask-5)" points="81.125087 16.3881361 85.6911739 16.3881361 85.6911739 14.2188691 72.1587826 14.2188691 71.3020435 14.2188691 71.3020435 16.3881361 73.897913 16.3881361 72.1587826 21.7080628 74.4596522 21.7080628 83.2696522 21.7080628 83.2696522 25.0410157 75.580087 25.0410157 76.6383478 27.1790576 83.2696522 27.1790576 84.7063913 27.1790576 85.5703043 27.1790576 85.5703043 19.6085026 85.5694348 19.6085026 85.5703043 19.6012461 75.1118261 19.6012461 76.1987826 16.3881361"></polygon>
                                    <polygon id="Fill-17" fill="#FFFFFF" mask="url(#mask-5)" points="123.654783 4.90762304 142.396739 4.90762304 142.396739 2.74077487 123.654783 2.74077487"></polygon>
                                    <polygon id="Fill-18" fill="#FFFFFF" mask="url(#mask-5)" points="131.306804 14.353577 144.934413 14.353577 144.934413 12.1845298 121.377891 12.1845298 121.377891 14.353577 128.043326 14.353577 128.417022 14.353577 123.347239 27.3586241 143.608978 27.3586241 140.599413 19.6207288 137.993978 19.6207288 140.124413 25.2214618 127.171804 25.2214618 130.975283 14.353577"></polygon>
                                    <path d="M61.3754348,38.5447853 L62.4791304,38.5447853 L62.4791304,31.2880209 L61.3754348,31.2880209 L61.3754348,38.5447853 Z M61.3202174,30.0038325 L62.5343478,30.0038325 L62.5343478,28.7477906 L61.3202174,28.7477906 L61.3202174,30.0038325 Z" id="Fill-19" fill="#FFFFFF" mask="url(#mask-5)"></path>
                                    <path d="M68.428913,38.5447853 L69.5326087,38.5447853 L69.5326087,31.2880209 L68.428913,31.2880209 L68.428913,38.5447853 Z M68.373913,30.0038325 L69.5878261,30.0038325 L69.5878261,28.7477906 L68.373913,28.7477906 L68.373913,30.0038325 Z" id="Fill-20" fill="#FFFFFF" mask="url(#mask-5)"></path>
                                    <path d="M80.2837609,34.9022859 C80.2837609,33.730244 80.0076739,32.9113539 79.4557174,32.4462754 L79.1522391,32.2369351 C78.9407174,32.1346838 78.7018043,32.0834482 78.4348478,32.0834482 C77.7909348,32.0834482 77.2713696,32.4042754 76.8759348,33.0463696 C76.8113696,33.1393853 76.7561522,33.2416366 76.7105,33.3533435 C76.6000652,33.5859927 76.5448478,33.753333 76.5448478,33.8555843 L76.5448478,35.6976471 C76.5448478,36.2933435 76.779413,36.8098775 77.2483261,37.2470293 C77.6070217,37.5821497 78.0024565,37.7492702 78.4348478,37.7492702 C79.4189783,37.7492702 80.016587,37.0935424 80.2285435,35.7816471 C80.2650652,35.5116157 80.2837609,35.2187152 80.2837609,34.9022859 M81.5255,34.8607257 C81.5255,36.0701497 81.2309348,37.0374691 80.6424565,37.7633435 C80.1363696,38.3772911 79.4833261,38.6842649 78.6833261,38.6842649 C77.7633261,38.6842649 77.0505,38.2565686 76.5448478,37.4005162 L76.5448478,40.9173016 L75.4409348,40.9173016 L75.4409348,31.287867 L76.4481087,31.287867 L76.4481087,32.6833225 L76.4757174,32.6833225 C76.7700652,31.8833435 77.2989783,31.3857204 78.0622391,31.1900136 C78.2646304,31.1251445 78.4713696,31.0923801 78.6833261,31.0923801 C79.7778913,31.0923801 80.5778913,31.6416785 81.0839783,32.7391759 C81.3781087,33.3720346 81.5255,34.0789979 81.5255,34.8607257" id="Fill-21" fill="#FFFFFF" mask="url(#mask-5)"></path>
                                    <path d="M90.0273043,38.6005728 L88.7303478,38.6982063 C87.5346957,38.6982063 86.9368696,37.902845 86.9368696,36.3119026 L86.9368696,32.1112429 L85.6675217,32.1112429 L85.6675217,31.2321016 L86.9368696,31.2321016 L86.9368696,29.4318188 L88.0405652,29.3060387 L88.0405652,31.2321016 L89.6412174,31.2321016 L89.6412174,32.1112429 L88.0405652,32.1112429 L88.0405652,36.5071696 C88.1233913,37.3260597 88.4496957,37.7585937 89.0201304,37.8052115 L90.0273043,37.7214314 L90.0273043,38.6005728 Z" id="Fill-22" fill="#FFFFFF" mask="url(#mask-5)"></path>
                                    <path d="M99.5918913,34.8606377 C99.5918913,33.6232869 99.2699348,32.7764702 98.6260217,32.3206272 C98.3316739,32.1161246 97.9823261,32.0136534 97.5773261,32.0136534 C96.6392826,32.0136534 96.0275435,32.5627319 95.7425435,33.6602293 C95.6503696,34.032512 95.6047174,34.4327215 95.6047174,34.8606377 C95.6047174,36.2002398 95.9540652,37.0842188 96.6531957,37.5121351 C96.910587,37.6794754 97.2188478,37.7632555 97.5773261,37.7632555 C98.598413,37.7632555 99.2375435,37.1541455 99.4951522,35.935266 C99.5595,35.6001455 99.5918913,35.242156 99.5918913,34.8606377 M100.8195,34.8742712 C100.8195,36.1118419 100.456239,37.0888366 99.7299348,37.8052555 C99.1410217,38.3912764 98.3916739,38.6843969 97.4808043,38.6843969 C96.2945,38.6843969 95.4251522,38.1496115 94.873413,37.079601 C94.5421087,36.4375068 94.3766739,35.6977791 94.3766739,34.8606377 C94.3766739,33.6045958 94.7492826,32.6229832 95.4940652,31.9158 C96.0645,31.3669414 96.7910217,31.0922921 97.6742826,31.0922921 C98.8145,31.0922921 99.6745,31.5995906 100.254065,32.6137476 C100.631022,33.2650775 100.8195,34.0186586 100.8195,34.8742712" id="Fill-23" fill="#FFFFFF" mask="url(#mask-5)"></path>
                                    <polygon id="Fill-24" fill="#FFFFFF" mask="url(#mask-5)" points="106.493696 38.5447853 108.066522 38.5447853 108.066522 36.9261361 106.493696 36.9261361"></polygon>
                                    <path d="M119.313978,36.1445623 C119.120717,37.2238084 118.624196,37.9725518 117.823978,38.3912325 C117.437674,38.5867194 117.009848,38.6843529 116.540935,38.6843529 C115.345065,38.6843529 114.4805,38.1354942 113.947239,37.0375571 C113.643543,36.4238293 113.491804,35.7166461 113.491804,34.9162272 C113.491804,33.6790963 113.818326,32.7023215 114.47137,31.9856827 C115.013978,31.3904262 115.708326,31.0922482 116.55463,31.0922482 C117.676587,31.0922482 118.481587,31.5716199 118.968978,32.5299236 C119.134848,32.8558084 119.249413,33.2184157 119.313978,33.6186251 L118.293109,33.8000387 C118.219413,33.0462377 117.906804,32.5209079 117.354848,32.2227298 C117.189413,32.129934 116.996152,32.0743005 116.775283,32.0553895 C116.710935,32.0461539 116.64637,32.0415361 116.582239,32.0415361 C115.699413,32.0415361 115.110717,32.5670859 114.81637,33.6186251 C114.715065,33.9999236 114.664413,34.4091487 114.664413,34.8465204 C114.664413,36.0282377 114.935717,36.865599 115.478326,37.3586042 C115.763543,37.6097246 116.108543,37.7352848 116.513326,37.7352848 C117.4055,37.7352848 117.984848,37.209955 118.251587,36.1581958 C118.270065,36.0935466 118.283761,36.0282377 118.293109,35.9631487 L119.313978,36.1445623 Z" id="Fill-25" fill="#FFFFFF" mask="url(#mask-5)"></path>
                                    <path d="M129.23713,34.8606377 C129.23713,33.6232869 128.915391,32.7764702 128.271478,32.3206272 C127.97713,32.1161246 127.627565,32.0136534 127.222783,32.0136534 C126.284739,32.0136534 125.672783,32.5627319 125.388,33.6602293 C125.295826,34.032512 125.250174,34.4327215 125.250174,34.8606377 C125.250174,36.2002398 125.599522,37.0842188 126.298435,37.5121351 C126.556043,37.6794754 126.864304,37.7632555 127.222783,37.7632555 C128.24387,37.7632555 128.883,37.1541455 129.140609,35.935266 C129.204957,35.6001455 129.23713,35.242156 129.23713,34.8606377 M130.464957,34.8742712 C130.464957,36.1118419 130.101696,37.0888366 129.375391,37.8052555 C128.786478,38.3912764 128.036913,38.6843969 127.126261,38.6843969 C125.939957,38.6843969 125.070609,38.1496115 124.51887,37.079601 C124.187565,36.4375068 124.02213,35.6977791 124.02213,34.8606377 C124.02213,33.6045958 124.394739,32.6229832 125.139522,31.9158 C125.709739,31.3669414 126.436478,31.0922921 127.319522,31.0922921 C128.459957,31.0922921 129.319957,31.5995906 129.899522,32.6137476 C130.276478,33.2650775 130.464957,34.0186586 130.464957,34.8742712" id="Fill-26" fill="#FFFFFF" mask="url(#mask-5)"></path>
                                    <path d="M144.934304,38.5447414 L143.830391,38.5447414 L143.830391,33.925401 C143.830391,32.8927728 143.513217,32.2739874 142.878435,32.0692649 C142.740391,32.0323225 142.593217,32.0136314 142.436913,32.0136314 C141.894304,32.0136314 141.429957,32.2834429 141.043652,32.823066 C140.795174,33.2048042 140.666261,33.7255162 140.65713,34.3858618 L140.65713,34.6233487 L140.65713,38.5447414 L139.553435,38.5447414 L139.553435,33.9394743 C139.553435,32.9160817 139.226913,32.2975162 138.57387,32.0833382 C138.435826,32.0367204 138.279522,32.0136314 138.104739,32.0136314 C137.654087,32.0136314 137.244522,32.2227518 136.87713,32.6416524 C136.849522,32.6695791 136.826261,32.6975058 136.807783,32.7252126 C136.522783,33.0974953 136.380174,33.6511916 136.380174,34.3858618 L136.380174,38.5447414 L135.276478,38.5447414 L135.276478,31.287977 L136.269957,31.287977 L136.269957,32.6834325 L136.297565,32.6834325 C136.591696,31.9764691 137.056261,31.4970974 137.691043,31.245977 C137.929957,31.1437257 138.182783,31.0922702 138.449739,31.0922702 C139.213217,31.0922702 139.792565,31.4273906 140.188217,32.0971916 C140.316913,32.3206052 140.409087,32.5627099 140.464304,32.823066 C140.795174,31.9949403 141.324087,31.460155 142.050609,31.2180503 C142.289739,31.1344901 142.533435,31.0922702 142.781913,31.0922702 C143.407565,31.0922702 143.936043,31.3389927 144.368435,31.8322178 L144.589304,32.1391916 C144.819087,32.5297257 144.934304,33.1394953 144.934304,33.967401 L144.934304,38.5447414 Z" id="Fill-27" fill="#FFFFFF" mask="url(#mask-5)"></path>
                                </g>
                            </g>
                        </g>
                    </g>
                </g>
            </g>
        </g>
    </g>
</svg>