<?xml version="1.0" encoding="UTF-8"?>
<svg width="18px" height="18px" viewBox="0 0 18 18" version="1.1" xmlns="http://www.w3.org/2000/svg" xmlns:xlink="http://www.w3.org/1999/xlink">
    <!-- Generator: Sketch 63.1 (92452) - https://sketch.com -->
    <title>edit</title>
    <desc>Created with Sketch.</desc>
    <defs>
        <polygon id="path-1" points="0.001452 0.017424 17.3059302 0.017424 17.3059302 17.3272242 0.001452 17.3272242"></polygon>
    </defs>
    <g id="优化版本8月份" stroke="none" stroke-width="1" fill="none" fill-rule="evenodd">
        <g id="我的商标-填写商标信息-编辑商标分类（8）" transform="translate(-995.000000, -1024.000000)">
            <g id="edit" transform="translate(995.000000, 1024.000000)">
                <g id="编组">
                    <mask id="mask-2" fill="white">
                        <use xlink:href="#path-1"></use>
                    </mask>
                    <g id="Clip-2"></g>
                    <path d="M14.3903122,17.3272242 L2.9175278,17.3272242 C1.3086876,17.3272242 0,16.0184398 0,14.4096238 L0,2.9349518 C0,1.3261116 1.3086876,0.017424 2.9175278,0.017424 L10.89,0.017424 C11.2132878,0.017424 11.4726876,0.2788082 11.4726876,0.6001116 C11.4726876,0.9215118 11.2114002,1.182896 10.89,1.182896 L2.9175278,1.182896 C1.9515122,1.182896 1.1673596,1.9689362 1.1673596,2.93304 L1.1673596,14.4077362 C1.1673596,15.3737518 1.9533998,16.1578802 2.9175278,16.1578802 L14.3903122,16.1578802 C15.3563278,16.1578802 16.1404562,15.37184 16.1404562,14.4077362 L16.1404562,7.0199118 C16.1404562,6.696624 16.4018404,6.4372242 16.7231438,6.4372242 C17.044544,6.4372242 17.3059302,6.6985116 17.3059302,7.0199118 L17.3059302,14.4096238 C17.3078158,16.0184398 15.9991282,17.3272242 14.3903122,17.3272242 Z" id="Fill-1" fill="#00A3FF" mask="url(#mask-2)"></path>
                </g>
                <path d="M7.9220878,7.36648 L13.257728,2.1043836 L15.096928,4.0017362 L9.832944,9.35088 L7.9220878,7.36648 Z M9.3740878,9.608368 L6.4682002,10.8454962 L7.591056,7.854352 L9.3740878,9.608368 Z M16.612816,2.5497362 C16.363072,2.8303836 15.5499278,3.6493116 15.5499278,3.6493116 L13.6216718,1.7308082 L14.5702876,0.7860644 C14.5702876,0.7860644 15.004,0.3736238 15.5654158,0.7860644 C16.1268316,1.1945362 16.612816,1.7326958 16.612816,1.7326958 C16.612816,1.7326958 16.8625842,2.2689678 16.612816,2.5497362 Z" id="Fill-3" fill="#00A3FF"></path>
            </g>
        </g>
    </g>
</svg>