<svg width="20" height="21" viewBox="0 0 20 21" fill="none" xmlns="http://www.w3.org/2000/svg">
<g id="&#231;&#177;&#187;&#229;&#158;&#139;=&#230;&#132;&#143;&#232;&#167;&#129;&#229;&#143;&#141;&#233;&#166;&#136;,&#229;&#176;&#186;&#229;&#175;&#184;=20X20">
<path id="Vector" d="M20 0.656494H0V20.6565H20V0.656494Z" fill="white" fill-opacity="0.01"/>
<path id="Rectangle 546" d="M3.6875 3.34399H16.3125C17.0029 3.34399 17.5625 3.90364 17.5625 4.59399V15.1565C17.5625 15.8469 17.0029 16.4065 16.3125 16.4065H13.6872C13.2919 16.4065 12.9083 16.5403 12.5988 16.7861L10.1889 18.7002C10.0978 18.7725 9.96894 18.7725 9.8779 18.7002L7.46801 16.7861C7.1585 16.5403 6.77487 16.4065 6.3796 16.4065H3.6875C2.99714 16.4065 2.4375 15.8468 2.4375 15.1565V4.59399C2.4375 3.90364 2.99714 3.34399 3.6875 3.34399Z" stroke="white" stroke-opacity="0.9" stroke-width="1.5"/>
<circle id="Ellipse 149" cx="6.375" cy="9.65649" r="1" fill="white" fill-opacity="0.9"/>
<circle id="Ellipse 150" cx="10" cy="9.65649" r="1" fill="white" fill-opacity="0.9"/>
<circle id="Ellipse 151" cx="13.625" cy="9.65649" r="1" fill="white" fill-opacity="0.9"/>
</g>
</svg>
