<?xml version="1.0" encoding="UTF-8"?>
<svg width="18px" height="18px" viewBox="0 0 18 18" version="1.1" xmlns="http://www.w3.org/2000/svg" xmlns:xlink="http://www.w3.org/1999/xlink">
    <!-- Generator: Sketch 58 (84663) - https://sketch.com -->
    <title>gouwuche</title>
    <desc>Created with Sketch.</desc>
    <g id="页面-1" stroke="none" stroke-width="1" fill="none" fill-rule="evenodd">
        <g id="个人中心-优惠券" transform="translate(-1623.000000, -26.000000)" fill="#FFFFFF" fill-rule="nonzero">
            <g id="顶部">
                <g id="编组-8">
                    <g id="编组-50" transform="translate(1615.000000, 12.000000)">
                        <g id="编组-14" transform="translate(0.000000, 9.000000)">
                            <g id="编组-19">
                                <g id="gouwuche" transform="translate(8.000000, 5.000000)">
                                    <path d="M4.2117571,16.7494134 C4.2117571,17.1147986 4.40668781,17.4524285 4.72312073,17.6351212 C5.03955365,17.8178138 5.4294151,17.8178138 5.74584802,17.6351212 C6.06228094,17.4524285 6.25721165,17.1147986 6.25721165,16.7494134 C6.25721165,16.1845767 5.79932105,15.7266861 5.23448438,15.7266861 C4.6696477,15.7266861 4.2117571,16.1845767 4.2117571,16.7494134 L4.2117571,16.7494134 Z" id="路径"></path>
                                    <path d="M11.9844844,16.7254815 C11.9844844,17.2903182 12.442375,17.7482088 13.0072116,17.7482088 C13.5720483,17.7482088 14.0299389,17.2903182 14.0299389,16.7254815 C14.0299389,16.1606449 13.5720483,15.7027543 13.0072116,15.7027543 C12.442375,15.7027543 11.9844844,16.1606449 11.9844844,16.7254815 L11.9844844,16.7254815 Z" id="路径"></path>
                                    <path d="M16.3155298,3.98229972 L1.94846165,4.02658381 L1.44037074,1.19598153 C1.39517259,0.944231084 1.2191005,0.735717003 0.97847914,0.648984529 C0.737857778,0.562252055 0.469243246,0.610477915 0.273820041,0.775495894 C0.0783968364,0.940513873 -0.0141456061,1.19725381 0.0310525568,1.44900426 L0.494552557,4.03108381 L0.490666193,4.03108381 L2.18501847,13.6443111 C2.28864791,14.2322651 2.80034535,14.6603487 3.39735937,14.6585554 L14.5317912,14.6241861 C15.0786192,14.6225594 15.5583803,14.2592873 15.7082344,13.7333906 L17.8940071,6.06723153 C18.192848,5.02016335 17.4044276,3.97892472 16.3155298,3.98229972 Z M16.5172116,5.67470881 L14.3736776,13.1928793 L3.56529119,13.2261179 L2.19606392,5.45758381 L16.3200298,5.41394528 C16.3846686,5.41228296 16.4459763,5.4426496 16.4837685,5.4951179 C16.5239453,5.54576021 16.5364665,5.6129992 16.5172116,5.67470881 L16.5172116,5.67470881 Z" id="形状"></path>
                                    <path d="M12.4404162,10.1720497 L5.69041619,10.1928111 C5.29829294,10.1985658 4.98378347,10.5187297 4.98501246,10.9108932 C4.98624867,11.3030568 5.30276452,11.6212373 5.69491619,11.624527 L12.4449162,11.6037656 C12.7026441,11.6059277 12.9416412,11.4693871 13.0706661,11.2462707 C13.199691,11.0231543 13.1988258,10.747905 13.068401,10.5256041 C12.9379761,10.3033031 12.6981254,10.1682676 12.4404162,10.1720497 Z" id="路径"></path>
                                </g>
                            </g>
                        </g>
                    </g>
                </g>
            </g>
        </g>
    </g>
</svg>