<svg width="22" height="22" viewBox="0 0 22 22" fill="none" xmlns="http://www.w3.org/2000/svg">
<g id="&#230;&#136;&#145;&#231;&#154;&#132;&#228;&#184;&#147;&#229;&#136;&#169;icon">
<g id="Group 427318591">
<path id="P" d="M10.2988 8.90137H11.8564C12.1494 8.89486 12.4066 8.96159 12.6279 9.10156C12.7744 9.1862 12.8883 9.30176 12.9697 9.44824C13.0479 9.611 13.0869 9.8112 13.0869 10.0488C13.0869 10.3353 12.9909 10.5957 12.7988 10.8301C12.597 11.071 12.2959 11.1947 11.8955 11.2012H10.2988V8.90137ZM9.21973 14.8C9.21973 14.9105 9.30927 15 9.41973 15H10.0988C10.2093 15 10.2988 14.9105 10.2988 14.8V12.2217H11.9395C12.6719 12.2087 13.2285 11.9743 13.6094 11.5186C13.9805 11.0856 14.166 10.6055 14.166 10.0781C14.166 9.6875 14.0928 9.34896 13.9463 9.0625C13.8063 8.76628 13.624 8.53841 13.3994 8.37891C13.1325 8.16732 12.8688 8.02734 12.6084 7.95898C12.348 7.9069 12.0778 7.88086 11.7979 7.88086H9.41973C9.30927 7.88086 9.21973 7.9704 9.21973 8.08086V14.8Z" fill="black" fill-opacity="0.6"/>
<path id="Vector" d="M10.9347 17.4309C7.76019 17.4309 5.11581 15.119 4.59673 12.0904L5.07876 11.9968C5.15145 11.9826 5.18411 11.8972 5.13938 11.8382L3.97831 10.3069C3.92955 10.2425 3.82862 10.2595 3.80357 10.3362L3.19098 12.2121C3.1673 12.2846 3.23025 12.3559 3.30512 12.3413L3.70561 12.2634C3.96112 13.7425 4.66344 15.1047 5.74704 16.1875C7.13264 17.5735 8.97498 18.3363 10.9346 18.3363C13.2239 18.3363 15.3667 17.2727 16.7527 15.4694C16.9051 15.2711 16.8495 14.9886 16.6423 14.8486V14.8486C16.435 14.7086 16.1547 14.7643 16.0006 14.9613C14.7844 16.5155 12.9225 17.4309 10.9347 17.4309ZM18.2396 10.3188C18.0834 8.61649 17.3458 7.03622 16.1219 5.81262C14.7363 4.42664 12.894 3.66382 10.9346 3.66382C8.6448 3.66382 6.50199 4.72739 5.11604 6.53058C4.96358 6.72894 5.01923 7.01151 5.22656 7.15151V7.15151C5.43385 7.29149 5.71418 7.23574 5.8683 7.03874C7.08423 5.48456 8.94617 4.56923 10.9346 4.56923C14.2279 4.56923 16.95 7.05784 17.3217 10.2532L16.8895 10.2224C16.8156 10.2172 16.7619 10.2912 16.7897 10.3598L17.513 12.1403C17.5433 12.2151 17.6452 12.2249 17.6893 12.1574L18.7686 10.5055C18.8103 10.4416 18.7681 10.3565 18.692 10.3511L18.2396 10.3188Z" fill="black" fill-opacity="0.6"/>
</g>
</g>
</svg>
