<svg width="22" height="22" viewBox="0 0 22 22" fill="none" xmlns="http://www.w3.org/2000/svg">
<path d="M4.71551 8.56637L9.71835 11.6126C9.86957 11.7047 9.96329 11.8789 9.96329 12.0678L9.96329 18.5428C9.96329 18.9403 9.57192 19.1916 9.25348 18.9985L4.25064 15.9655C4.09898 15.8735 4.00493 15.6991 4.00493 15.5098L4.00493 9.02158C4.00493 8.62366 4.39705 8.37246 4.71551 8.56637Z" stroke="black" stroke-opacity="0.6"/>
<path d="M17.275 8.56637L12.2721 11.6126C12.1209 11.7047 12.0272 11.8789 12.0272 12.0678L12.0272 18.5573C12.0272 18.9552 12.4193 19.2064 12.7378 19.0125L17.7406 15.9663C17.8918 15.8742 17.9856 15.7 17.9856 15.5111L17.9856 9.02158C17.9856 8.62366 17.5934 8.37246 17.275 8.56637Z" stroke="black" stroke-opacity="0.6"/>
<path d="M11.2321 2.82681L16.1852 5.84275C16.5118 6.04162 16.5118 6.5543 16.1852 6.75317L11.2321 9.76911C11.0874 9.85722 10.9112 9.85722 10.7664 9.76911L5.81336 6.75316C5.48677 6.5543 5.48677 6.04162 5.81336 5.84275L10.7664 2.82681C10.9112 2.73869 11.0874 2.73869 11.2321 2.82681Z" stroke="black" stroke-opacity="0.6"/>
</svg>
