<svg width="22" height="22" viewBox="0 0 22 22" fill="none" xmlns="http://www.w3.org/2000/svg">
<g id="&#230;&#136;&#145;&#231;&#154;&#132;&#229;&#149;&#134;&#230;&#160;&#135;icon">
<g id="Group 427318590">
<path id="Polygon 3 (Stroke)" fill-rule="evenodd" clip-rule="evenodd" d="M9.75965 3.13286C10.5282 2.69367 11.4718 2.69367 12.2403 3.13286L17.2403 5.99C18.0193 6.43511 18.5 7.26347 18.5 8.16061V13.8393C18.5 14.7365 18.0193 15.5648 17.2403 16.0099L12.2403 18.8671C11.4718 19.3063 10.5282 19.3063 9.75965 18.8671L8.99427 18.4297C8.75451 18.2927 8.67121 17.9873 8.80822 17.7475C8.94522 17.5078 9.25065 17.4245 9.49041 17.5615L10.2558 17.9988C10.7169 18.2623 11.2831 18.2623 11.7442 17.9988L16.7442 15.1417C17.2116 14.8746 17.5 14.3776 17.5 13.8393V8.16061C17.5 7.62232 17.2116 7.12531 16.7442 6.85824L11.7442 4.0011C11.2831 3.73759 10.7169 3.73759 10.2558 4.0011L5.25579 6.85824C4.78843 7.12531 4.5 7.62232 4.5 8.16061V13.8393C4.5 14.3776 4.78843 14.8746 5.25579 15.1417L5.96625 15.5477C6.206 15.6847 6.2893 15.9901 6.1523 16.2298C6.01529 16.4696 5.70986 16.5529 5.47011 16.4159L4.75965 16.0099C3.98071 15.5648 3.5 14.7365 3.5 13.8393V8.16061C3.5 7.26347 3.98072 6.43511 4.75965 5.99L9.75965 3.13286Z" fill="black" fill-opacity="0.6"/>
<path id="Polygon 4 (Stroke)" fill-rule="evenodd" clip-rule="evenodd" d="M13.6311 9.53534L11.0079 8.03198L8.38477 9.53534L8.38477 12.5293L11.0079 14.0327L13.6311 12.5293L13.6311 9.53534ZM11.5052 7.16437C11.1972 6.98785 10.8187 6.98785 10.5107 7.16437L7.88753 8.66773C7.57657 8.84594 7.38477 9.17694 7.38477 9.53534V12.5293C7.38477 12.8877 7.57657 13.2187 7.88753 13.3969L10.5107 14.9003C10.8187 15.0768 11.1972 15.0768 11.5052 14.9003L14.1284 13.3969C14.4393 13.2187 14.6311 12.8877 14.6311 12.5293V9.53534C14.6311 9.17694 14.4393 8.84594 14.1284 8.66773L11.5052 7.16437Z" fill="black" fill-opacity="0.6"/>
<path id="Rectangle 536" d="M6.83 17.2657C6.60021 17.1338 6.52491 16.8381 6.66367 16.6124V16.6124C6.79662 16.3962 7.07734 16.3247 7.29752 16.451L8.212 16.9758C8.4418 17.1077 8.51709 17.4034 8.37834 17.6291V17.6291C8.24539 17.8454 7.96466 17.9168 7.74449 17.7905L6.83 17.2657Z" fill="black" fill-opacity="0.6"/>
</g>
</g>
</svg>
