<svg width="22" height="22" viewBox="0 0 22 22" fill="none" xmlns="http://www.w3.org/2000/svg">
<g id="&#228;&#184;&#170;&#228;&#186;&#186;&#228;&#191;&#161;&#230;&#129;&#175;icon">
<g id="Group 427318593">
<path id="Union" fill-rule="evenodd" clip-rule="evenodd" d="M14.5625 7.49194C14.5625 9.32139 13.0794 10.8044 11.25 10.8044C9.42056 10.8044 7.9375 9.32139 7.9375 7.49194C7.9375 5.6625 9.42056 4.17944 11.25 4.17944C13.0794 4.17944 14.5625 5.6625 14.5625 7.49194ZM13.5084 11.1665C14.7409 10.4074 15.5625 9.04564 15.5625 7.49194C15.5625 5.11022 13.6317 3.17944 11.25 3.17944C8.86827 3.17944 6.9375 5.11022 6.9375 7.49194C6.9375 9.0456 7.75909 10.4074 8.99151 11.1665C5.95306 12.1248 3.75 14.9653 3.75 18.3204C3.75 18.5966 3.97386 18.8204 4.25 18.8204C4.52614 18.8204 4.75 18.5966 4.75 18.3204C4.75 14.7306 7.66015 11.8204 11.25 11.8204C13.3655 11.8204 15.2449 12.8305 16.4327 14.3968C16.5995 14.6168 16.9132 14.66 17.1332 14.4931C17.3532 14.3262 17.3963 14.0126 17.2295 13.7926C16.302 12.5695 15.0068 11.6392 13.5084 11.1665Z" fill="black" fill-opacity="0.6"/>
<rect id="Rectangle 542" x="12" y="15.5" width="6" height="1" rx="0.5" fill="black" fill-opacity="0.6"/>
<rect id="Rectangle 544" x="12" y="17.8204" width="6" height="1" rx="0.5" fill="black" fill-opacity="0.6"/>
</g>
</g>
</svg>
