<svg width="22" height="22" viewBox="0 0 22 22" fill="none" xmlns="http://www.w3.org/2000/svg">
<g id="&#230;&#136;&#145;&#231;&#154;&#132;&#232;&#174;&#162;&#229;&#141;&#149;icon">
<g id="Group 427318587">
<path id="Rectangle 537 (Stroke)" fill-rule="evenodd" clip-rule="evenodd" d="M6.33333 3.96094C5.56013 3.96094 4.93333 4.60628 4.93333 5.40234V15.9727C4.93333 16.7687 5.56013 17.4141 6.33333 17.4141H15.6667C16.4399 17.4141 17.0667 16.7687 17.0667 15.9727V5.40234C17.0667 4.60628 16.4399 3.96094 15.6667 3.96094H14.0685C13.8107 3.96094 13.6018 3.74582 13.6018 3.48047C13.6018 3.21511 13.8107 3 14.0685 3H15.6667C16.9553 3 18 4.07557 18 5.40234V15.9727C18 17.2994 16.9553 18.375 15.6667 18.375H6.33333C5.04467 18.375 4 17.2994 4 15.9727V5.40234C4 4.07557 5.04467 3 6.33333 3H7.90217C8.1599 3 8.36884 3.21511 8.36884 3.48047C8.36884 3.74582 8.1599 3.96094 7.90217 3.96094H6.33333Z" fill="black" fill-opacity="0.6"/>
<path id="Rectangle 538" d="M9.3125 3.60376C9.3125 3.32762 9.53636 3.10376 9.8125 3.10376H12.1875C12.4636 3.10376 12.6875 3.32762 12.6875 3.60376V3.60376C12.6875 3.8799 12.4636 4.10376 12.1875 4.10376H9.8125C9.53636 4.10376 9.3125 3.8799 9.3125 3.60376V3.60376Z" fill="black" fill-opacity="0.6"/>
<path id="Rectangle 539" d="M7.3125 8.70508C7.3125 8.42894 7.53636 8.20508 7.8125 8.20508H14.1875C14.4636 8.20508 14.6875 8.42894 14.6875 8.70508V8.70508C14.6875 8.98122 14.4636 9.20508 14.1875 9.20508H7.8125C7.53636 9.20508 7.3125 8.98122 7.3125 8.70508V8.70508Z" fill="black" fill-opacity="0.6"/>
<path id="Rectangle 540" d="M7.3125 12.2949C7.3125 12.0188 7.53636 11.7949 7.8125 11.7949H12.1875C12.4636 11.7949 12.6875 12.0188 12.6875 12.2949V12.2949C12.6875 12.5711 12.4636 12.7949 12.1875 12.7949H7.8125C7.53636 12.7949 7.3125 12.5711 7.3125 12.2949V12.2949Z" fill="black" fill-opacity="0.6"/>
</g>
</g>
</svg>
