<?xml version="1.0" encoding="UTF-8"?>
<svg width="20px" height="20px" viewBox="0 0 20 20" version="1.1" xmlns="http://www.w3.org/2000/svg" xmlns:xlink="http://www.w3.org/1999/xlink">
    <!-- Generator: Sketch 59 (86127) - https://sketch.com -->
    <title>导航菜单-跟卖监控</title>
    <desc>Created with Sketch.</desc>
    <g id="页面-1" stroke="none" stroke-width="1" fill="none" fill-rule="evenodd">
        <g id="自定义预设-3备份-4" transform="translate(-384.000000, -492.000000)" fill-rule="nonzero" stroke="#00A3FF" stroke-width="1.3">
            <g id="导航菜单-跟卖监控" transform="translate(384.000000, 492.000000)">
                <path d="M16.4638273,11.7204328 C16.4641132,11.7198308 16.4767037,11.715081 16.48744,11.7198889 C16.4982433,11.724727 16.5030773,11.7374022 16.4982412,11.7482014 L16.4979419,11.7488415 C18.2958796,7.91176095 16.6467178,3.35468089 12.8188338,1.56113315 C12.4041461,1.3668328 11.9809005,1.21293637 11.5535378,1.09783682 L11.7103889,0.509656088 L11.7225397,-0.14023033 L6.39872811,-0.239769089 L10.765903,0.929835929 C7.4840063,0.409823176 4.12074381,2.08503168 2.64031716,5.24463619 C0.846774411,9.07252503 2.49593619,13.6296051 6.3238202,15.4231528 C7.20780128,15.8373383 8.158862,16.0767893 9.12509852,16.1332213 L8.31971077,15.9978044 C4.17433043,15.3008051 1.37887395,11.3752878 2.07587175,7.22990298 C2.77287093,3.08452332 6.69838825,0.289066903 10.843773,0.986064685 C11.0627456,1.02288237 11.2799948,1.06926362 11.4948968,1.1250731 L11.5413419,1.1375119 C15.6018124,2.22497618 18.0119168,6.39819896 16.9244488,10.4586721 C16.8083927,10.8920141 16.6542527,11.3142442 16.4638285,11.7204323 Z M11.5535378,1.09783682 C11.292194,1.02745035 11.0293106,0.971572559 10.765903,0.929835929 L11.4948968,1.1250731 C11.5109128,1.12923239 11.5269157,1.13344406 11.5429053,1.13770803 L11.5535378,1.09783682 Z M9.61102641,16.1461383 C9.90650545,16.1446056 10.2025872,16.1259567 10.4978039,16.0899574 C10.4848692,16.0882738 10.4773098,16.0808954 10.476122,16.0711834 C10.4746962,16.0595253 10.482992,16.0489176 10.4946507,16.0474918 C10.2944795,16.0716784 10.0943081,16.0880485 9.89659916,16.0962182 L9.65305867,16.1062817 L9.61102641,16.1461383 Z M9.54941062,16.2045646 L7.5300244,18.1194206 L7.57975337,18.1194206 L7.7707373,17.9523095 L8.6592111,17.110445 L9.60463782,16.2138505 L9.54941062,16.2045646 Z" id="形状" fill="#F0F0F0"></path>
                <path d="M9.57145255,3.75205761 C6.95485271,3.75205761 4.83368066,5.873233 4.83368066,8.4898295 C4.83368066,11.1064294 6.95485608,13.2276014 9.57145279,13.2276014 C12.1880526,13.2276014 14.3092247,11.106426 14.3092247,8.4898295 C14.3092247,5.87322969 12.1880493,3.75205761 9.57145302,3.75205761 Z" id="路径" fill="#E7F2FF"></path>
            </g>
        </g>
    </g>
</svg>