<?xml version="1.0" encoding="UTF-8"?>
<svg width="20px" height="20px" viewBox="0 0 20 20" version="1.1" xmlns="http://www.w3.org/2000/svg" xmlns:xlink="http://www.w3.org/1999/xlink">
    <!-- Generator: Sketch 63.1 (92452) - https://sketch.com -->
    <title>kefu</title>
    <desc>Created with Sketch.</desc>
    <g id="优化版本8月份" stroke="none" stroke-width="1" fill="none" fill-rule="evenodd">
        <g id="查询后结果-收起（8）" transform="translate(-1860.000000, -917.000000)" fill="#000000">
            <g id="右下角客服" transform="translate(1840.000000, 885.000000)">
                <path d="M36.9867002,43.8200971 L36.9867002,39.3381389 C37.9758553,39.6381493 38.6537581,40.546778 38.6587783,41.5790554 C38.6569961,42.6128367 37.9773112,43.5233202 36.9857213,43.8200971 L36.9867002,43.8200971 Z M28.9223176,49.5882223 C28.9199667,48.9938915 29.4006258,48.5102002 29.9957956,48.5078356 C30.5909654,48.5055129 31.0753143,48.9854694 31.0776804,49.5798003 C31.0797321,50.1741312 30.5988973,50.6576219 30.0037275,50.6596838 C29.4085577,50.6617326 28.9243845,50.1815757 28.9223176,49.5872448 L28.9223176,49.5882223 Z M23.0124212,43.8200971 C22.0219107,43.5227186 21.3432047,42.6128367 21.3412468,41.580058 C21.3412468,40.5253218 22.0469113,39.624639 23.0124212,39.3381389 L23.0124212,43.8200971 Z M36.9063017,37.9549429 C36.6950015,36.4719356 36.0041467,35.0986154 34.93881,34.0442051 C33.6307216,32.7300147 31.8499312,31.9938125 29.994415,32.0000392 C26.5380324,31.9993018 23.6041522,34.5305282 23.1031111,37.9455433 C21.3168236,38.2337979 20.0029368,39.7722003 20,41.5790554 C20,43.6063375 21.6544069,45.2574349 23.6844503,45.2574349 L24.3546219,45.2574349 L24.3546219,38.9815555 C24.3546219,38.8742245 24.3639344,38.7669186 24.3733473,38.6604899 L24.3816808,38.6157478 C24.5638638,35.6521144 27.0229837,33.34129 29.9962725,33.3395354 C31.5067503,33.3395354 32.9282952,33.9284772 33.9919501,34.99151 C35.0543248,36.0479757 35.6498963,37.4844613 35.646357,38.9815555 L35.646357,45.025979 C35.6420397,47.2255873 34.3577721,49.2221139 32.3563689,50.1407438 C32.5248971,49.4211851 32.3551892,48.6641282 31.8954142,48.0850623 C31.4357647,47.5059211 30.7362751,47.1682121 29.9962725,47.1680115 C29.3547411,47.1687886 28.739867,47.4241571 28.2869697,47.8778699 C27.8341477,48.3317079 27.580502,48.9465926 27.5820583,49.5872448 C27.5817822,50.3098364 27.9059365,50.9945289 28.4653123,51.4527785 C29.0247885,51.9111033 29.7605741,52.0947842 30.4701543,51.9532888 L30.4701543,51.9897091 C34.0733276,51.7395542 36.8978678,48.7752441 36.9782663,45.1948711 C38.7268271,44.8749085 39.9976656,43.3543278 40,41.5790554 C39.9971636,39.7772886 38.6873934,38.242997 36.9063017,37.9549429 Z" id="kefu"></path>
            </g>
        </g>
    </g>
</svg>