<svg xmlns="http://www.w3.org/2000/svg" xmlns:xlink="http://www.w3.org/1999/xlink" viewBox="0 0 708.7 652"><defs><style>.cls-1{fill:none;}.cls-2{fill:#4c4b4c;}.cls-3{fill:url(#未命名的渐变_2);}.cls-4{fill:#fbb73c;}.cls-5{fill:#00a3ff;}</style><linearGradient id="未命名的渐变_2" x1="181.91" y1="221.92" x2="526.75" y2="221.92" gradientUnits="userSpaceOnUse"><stop offset="0" stop-color="#016eff"/><stop offset="1" stop-color="#00a3ff"/></linearGradient></defs><g id="图层_2" data-name="图层 2"><g id="图层_2-2" data-name="图层 2"><rect class="cls-1" width="708.7" height="651.97"/><polygon class="cls-2" points="413.3 484.7 431.2 561 431.5 562.6 447.3 562.6 429.4 484.7 413.3 484.7"/><rect class="cls-2" x="341.4" y="399.5" width="94.5" height="14.57"/><polygon class="cls-2" points="445.3 461.8 332.4 461.8 332.4 476.4 382.5 476.4 382.5 549.6 352.4 549.6 359.5 563.8 398.1 563.8 398.1 476.4 445.3 476.4 445.3 461.8"/><polygon class="cls-2" points="361.7 484.7 345.9 484.7 324.2 562.6 340.4 562.6 361 487.3 361.7 484.7"/><polygon class="cls-2" points="321.2 447.3 312.8 447.3 312.8 439.8 336.2 439.8 336.2 425.2 312.8 425.2 312.8 390.2 297.1 390.2 297.1 425.2 270.9 425.2 270.9 439.8 286.6 439.8 269.7 522.2 285.4 522.2 297.1 464.9 297.1 563.8 312.8 563.8 312.8 471 321.2 495.3 337.8 495.3 321.2 447.3"/><path class="cls-2" d="M235.4,402.3H187l6.1-12.1H176.6l-6.1,12.1H132.3v14.6h24.5l-25.2,19.8v18.9l12.9-10.2v14.1h79.8V446l11.1,8.8V435.9l-23.9-19h23.9Zm-12.6,42.6H145.1l35.3-28h14.5V423Z"/><path class="cls-2" d="M115.1,496.1h17.5V481.5H115.1V465.1h15.5V396.6H76.1v68.5H99.5v83.1H90.7V473H75.4v75.2H68.9v14.4h67.9V548.2H115.1ZM91.7,450.5V411.2H115v39.3Z"/><polygon class="cls-2" points="203.6 490 234.7 490 234.7 475.5 142.6 475.5 136.8 475.5 136.8 490 154.5 490 142.6 525.8 158.3 525.8 218.2 525.8 218.2 548.2 165.9 548.2 173.1 562.6 218.2 562.6 228 562.6 233.9 562.6 233.9 511.7 233.9 511.7 233.9 511.7 162.7 511.7 170.1 490 203.6 490"/><rect class="cls-2" x="493" y="398.3" width="127.5" height="14.57"/><polygon class="cls-2" points="545 476.4 637.7 476.4 637.7 461.8 477.5 461.8 477.5 476.4 522.8 476.4 525.4 476.4 490.9 563.8 628.7 563.8 608.2 511.8 590.5 511.8 605 549.5 516.9 549.5 542.8 476.4 545 476.4"/><path class="cls-3" d="M446.5,169.4a93,93,0,0,0-184.3.1,92.9,92.9,0,0,0,10.5,185l1.2.2H275v-.2a13.6,13.6,0,0,0,12.6-13.6V302.2a13.8,13.8,0,1,0-27.5,0v23.1A65.5,65.5,0,1,1,329.3,225a64.6,64.6,0,0,1,11.2,36.6,93.1,93.1,0,1,0,106-92.2ZM433.6,327.1a65.6,65.6,0,0,1-65.5-65.5,90.8,90.8,0,0,0-.5-9.1,14.5,14.5,0,0,0-.4-2.9,55.8,55.8,0,0,0-.9-5.9c-.2-1.2-.5-2.3-.7-3.4s-.9-3.5-1.4-5.1a35.8,35.8,0,0,0-1.1-3.5c-.6-1.6-1.1-3.2-1.8-4.8s-.9-2.2-1.4-3.4-1.4-3-2.2-4.4-1.1-2.2-1.7-3.3-1.7-2.8-2.6-4.2l-2-3.1-3-4c-.8-.9-1.4-1.9-2.2-2.7a48.9,48.9,0,0,0-3.7-4.1l-2-2.2-5.7-5.2-.6-.5c-2.2-1.8-4.5-3.5-6.8-5.1l-2.5-1.6-4.8-2.9-3.1-1.6-4.7-2.2L309,175l-4.8-1.7-3.6-1.1-4.9-1.3-3.7-.8-2-.4a65.6,65.6,0,0,1,129.9,12.6,13.7,13.7,0,0,0,13.7,13.8,65.5,65.5,0,1,1,0,131Z"/><path class="cls-4" d="M260.1,261.6h0a13.8,13.8,0,1,0,13.8-13.8A13.8,13.8,0,0,0,260.1,261.6Z"/><path class="cls-5" d="M260.1,261.6h0a13.8,13.8,0,1,0,13.8-13.8A13.8,13.8,0,0,0,260.1,261.6Z"/></g></g></svg>