<svg width="20" height="20" viewBox="0 0 20 20" fill="none" xmlns="http://www.w3.org/2000/svg">
<path d="M11.6864 12.9066C11.3175 12.9066 11.0791 12.6682 11.0791 12.2993C11.0791 11.9303 11.3175 11.6919 11.6864 11.6919C13.736 11.6919 15.177 11.3004 15.5413 10.6446L15.5484 10.6302C15.6297 10.4253 15.8443 10.2877 16.0915 10.2877C16.1758 10.2877 16.2583 10.3035 16.3365 10.3348C16.4797 10.392 16.589 10.5071 16.6447 10.6588C16.699 10.8067 16.6953 10.9721 16.6343 11.1244C15.8954 12.6758 13.3507 12.9065 11.8994 12.9065H11.6864V12.9066Z" fill="white" fill-opacity="0.9"/>
<path d="M1.84348 12.5617C1.47448 12.5617 1.23608 12.3233 1.23608 11.9543V8.9708C1.23608 8.8253 1.32558 8.6457 1.47538 8.4904L1.48288 8.4826L1.94358 8.1754L1.94618 8.1238C2.15968 3.996 5.54678 0.762604 9.65728 0.762604C13.6971 0.762604 17.0844 3.9344 17.3686 7.9835L17.3731 8.0489L18.3641 8.4302C18.6069 8.4945 18.789 8.7333 18.789 8.8999V11.8834C18.789 12.2523 18.5506 12.4907 18.1816 12.4907C17.8127 12.4907 17.5743 12.2523 17.5743 11.8834V9.3973L16.5788 9.0145C16.338 8.9517 16.1536 8.7157 16.1536 8.4735C16.1536 4.8915 13.2394 1.9773 9.65738 1.9773C6.07538 1.9773 3.16118 4.8916 3.16118 8.4735C3.16118 8.6746 3.08068 8.8601 2.92188 9.025L2.91438 9.0329L2.45078 9.342V11.9544C2.45078 12.3233 2.21238 12.5617 1.84348 12.5617Z" fill="white" fill-opacity="0.9"/>
<path d="M17.3699 19.3C17.0539 19.3 16.8204 19.1139 16.7605 18.8144C16.4772 17.3413 15.6285 16.0669 14.1658 14.9177L14.1538 14.9092C14.0377 14.8399 13.9576 14.7238 13.9291 14.5779C13.8947 14.4012 13.9381 14.2051 14.0424 14.0661L14.0489 14.0563C14.138 13.9077 14.3044 13.8195 14.502 13.8195C14.6445 13.8195 14.787 13.8651 14.8927 13.9445C16.6117 15.2589 17.6498 16.8147 17.9789 18.5694C18.0407 18.9404 17.7906 19.2302 17.5133 19.2971L17.5019 19.3H17.3699V19.3ZM2.38968 19.229L2.38008 19.227C2.19108 19.1895 2.07858 19.0761 2.01758 18.9876C1.91988 18.8464 1.88118 18.664 1.91408 18.4996C2.39028 15.9826 4.17078 13.9664 6.67698 13.107L6.87398 13.0394L6.70068 12.9239C5.14978 11.8899 4.26028 10.264 4.26028 8.46339C4.26028 5.45399 6.61768 3.09659 9.62708 3.09659C12.5864 3.09659 14.9939 5.50409 14.9939 8.46339C14.9939 8.74359 14.948 9.10879 14.8537 9.57989C14.7992 9.90639 14.5038 10.0789 14.2404 10.0789C14.2004 10.0789 14.1607 10.0751 14.1227 10.0675C14.0454 10.0554 13.9714 10.0276 13.9053 9.98569C13.8392 9.94382 13.7824 9.88882 13.7385 9.82409C13.6408 9.68249 13.6022 9.50009 13.635 9.33619C13.708 9.04449 13.708 8.74909 13.708 8.46349C13.708 6.17409 11.8454 4.31149 9.55598 4.31149C7.26658 4.31149 5.40398 6.17399 5.40398 8.46349C5.40398 10.753 7.26658 12.6156 9.55598 12.6156C9.90988 12.6156 10.1628 12.8421 10.2325 13.2215L10.2344 13.2316L10.2342 13.2419C10.2262 13.5994 9.98788 13.8305 9.62698 13.8305C6.31608 13.8305 3.70618 15.8052 3.13268 18.7443C3.07288 19.0436 2.83948 19.2293 2.52348 19.2293H2.38968V19.229Z" fill="white" fill-opacity="0.9"/>
</svg>
