<?xml version="1.0" encoding="UTF-8"?>
<svg width="20px" height="20px" viewBox="0 0 20 20" version="1.1" xmlns="http://www.w3.org/2000/svg" xmlns:xlink="http://www.w3.org/1999/xlink">
    <!-- Generator: Sketch 63.1 (92452) - https://sketch.com -->
    <title>矩形</title>
    <desc>Created with Sketch.</desc>
    <g id="优化版本8月份" stroke="none" stroke-width="1" fill="none" fill-rule="evenodd">
        <g id="我的商标-查看商标信息-官方文件空状态（8）" transform="translate(-378.000000, -312.000000)">
            <g id="左侧栏" transform="translate(360.000000, 102.000000)">
                <g id="平台服务" transform="translate(0.000000, 200.000000)">
                    <g id="编组-4" transform="translate(18.000000, 10.000000)">
                        <rect id="矩形" fill="#D8D8D8" opacity="0" x="0" y="0" width="20" height="20"></rect>
                        <g id="renwuzhongxin" transform="translate(0.000000, 1.000000)" fill="#666666" fill-rule="nonzero">
                            <path d="M17.2647017,10.8407315 C17.0681108,8.4543679 15.6942472,6.27595881 13.6260653,5.06232244 C13.7385653,4.69868608 13.7987926,4.31232244 13.7987926,3.91118608 C13.7987926,1.75550426 12.0453835,0.00209517045 9.8897017,0.00209517045 C7.73401989,0.00209517045 5.9806108,1.75550426 5.9806108,3.91118608 C5.9806108,4.31118608 6.04083807,4.69754972 6.15333807,5.06232244 C4.06129261,6.28732244 2.69538352,8.4668679 2.51129261,10.8850497 C1.04651989,11.4498224 0.00447443182,12.8714134 0.00447443182,14.532777 C0.00447443182,16.6884588 1.75788352,18.4418679 3.91356534,18.4418679 C4.71015625,18.4418679 5.4522017,18.2020952 6.07151989,17.7907315 C7.22151989,18.4850497 8.53629261,18.8509588 9.8897017,18.8509588 C11.2703835,18.8509588 12.6056108,18.4714134 13.7703835,17.7520952 C14.4209183,18.2018418 15.193155,18.4424721 15.9840199,18.4418679 C18.1397017,18.4418679 19.8931117,16.6884588 19.8931117,14.532777 C19.8942472,12.8259588 18.7931108,11.3725497 17.2647017,10.8407315 L17.2647017,10.8407315 Z M9.8897017,1.13845881 C11.4192472,1.13845881 12.662429,2.38277699 12.662429,3.91118608 C12.662429,5.43959517 11.4181108,6.68391335 9.8897017,6.68391335 C8.36129261,6.68391335 7.11697443,5.43959517 7.11697443,3.91118608 C7.11697443,2.38277699 8.36015625,1.13845881 9.8897017,1.13845881 Z M1.14083807,14.5339134 C1.14083807,13.0043679 2.38515625,11.7611861 3.91356534,11.7611861 C5.4431108,11.7611861 6.68629261,13.0055043 6.68629261,14.5339134 C6.68629261,16.0623224 5.44197443,17.3066406 3.91356534,17.3066406 C2.38515625,17.3066406 1.14083807,16.0623224 1.14083807,14.5339134 Z M6.9556108,16.9861861 C7.49765625,16.3145952 7.82379261,15.4611861 7.82379261,14.532777 C7.82379261,12.3770952 6.07038352,10.6236861 3.9147017,10.6236861 C3.83629261,10.6236861 3.75788352,10.6270952 3.6806108,10.6316406 C3.92833807,8.75323153 5.02038352,7.07823153 6.64651989,6.0918679 C7.34992898,7.13504972 8.54083807,7.82141335 9.89083807,7.82141335 C11.2397017,7.82141335 12.4317472,7.13391335 13.1340199,6.0918679 C14.7510653,7.07482244 15.8510653,8.76004972 16.099929,10.6270952 C16.0612926,10.6259588 16.0237926,10.6236861 15.9840199,10.6236861 C13.8283381,10.6236861 12.074929,12.3770952 12.074929,14.532777 C12.074929,15.4407315 12.3862926,16.2759588 12.9078835,16.9407315 C11.987429,17.4486861 10.9544744,17.714599 9.8897017,17.714599 C8.85901989,17.7157315 7.8556108,17.4645952 6.9556108,16.9861861 Z M15.9840199,17.3066406 C14.4544744,17.3066406 13.2112926,16.0623224 13.2112926,14.5339134 C13.2112926,13.0055043 14.4556108,11.7611861 15.9840199,11.7611861 C17.512429,11.7611861 18.7567472,13.0055043 18.7567472,14.5339134 C18.7567472,16.0623224 17.5135653,17.3066406 15.9840199,17.3066406 Z" id="形状"></path>
                        </g>
                    </g>
                </g>
            </g>
        </g>
    </g>
</svg>