<?xml version="1.0" encoding="UTF-8"?>
<svg width="20px" height="20px" viewBox="0 0 20 20" version="1.1" xmlns="http://www.w3.org/2000/svg" xmlns:xlink="http://www.w3.org/1999/xlink">
    <!-- Generator: Sketch 63.1 (92452) - https://sketch.com -->
    <title>个人中心icon</title>
    <desc>Created with Sketch.</desc>
    <g id="优化版本8月份" stroke="none" stroke-width="1" fill="none" fill-rule="evenodd">
        <g id="个人中心-个人信息（8）" transform="translate(-378.000000, -126.000000)">
            <g id="左侧栏" transform="translate(360.000000, 102.000000)">
                <g id="平台服务" transform="translate(0.000000, 14.000000)">
                    <g id="编组-6" transform="translate(18.000000, 10.000000)">
                        <rect id="矩形" fill="#D8D8D8" opacity="0" x="0" y="0" width="20" height="20"></rect>
                        <g id="zhengjian" transform="translate(0.000000, 2.000000)" fill="#666666" fill-rule="nonzero">
                            <path d="M18.8498194,16.121026 L1.06138006,16.121026 C0.487969653,16.121026 0.0209176301,15.653974 0.0209176301,15.0805636 L0.0209176301,1.05397399 C0.0209176301,0.480563584 0.487969653,0.0135115607 1.06138006,0.0135115607 L18.8498194,0.0135115607 C19.4232298,0.0135115607 19.8902818,0.480563584 19.8902818,1.05397399 L19.8902818,15.0805636 C19.8902818,15.653974 19.4243858,16.121026 18.8498194,16.121026 Z M1.17698699,14.9649566 L18.7342124,14.9649566 L18.7342124,1.16958092 L1.17698699,1.16958092 L1.17698699,14.9649566 Z" id="形状"></path>
                            <path d="M8.78276734,7.5025289 C9.29953035,7.02391618 9.62438584,6.33952312 9.62438584,5.58114162 C9.62438584,4.13605491 8.44866329,2.96148844 7.00473266,2.96148844 C5.55964595,2.96148844 4.38507948,4.13721098 4.38507948,5.58114162 C4.38507948,6.33952312 4.70993497,7.02391618 5.22669798,7.5025289 C4.10762283,8.12796243 3.34924133,9.32449422 3.34924133,10.6944364 L3.34924133,12.221604 C3.34924133,12.5406792 3.60820087,12.7996387 3.92727601,12.7996387 L10.0810332,12.7996387 C10.4001084,12.7996387 10.6590679,12.5406792 10.6590679,12.221604 L10.6590679,10.6944364 C10.6590679,9.32333815 9.90068642,8.12796243 8.78276734,7.5025289 Z M5.53999277,5.57998555 C5.53999277,4.77304913 6.19664017,4.11640173 7.00357659,4.11640173 C7.81051301,4.11640173 8.4671604,4.77304913 8.4671604,5.57998555 C8.4671604,6.36380058 7.84866329,7.00310694 7.07409682,7.04010116 C7.05097543,7.04010116 7.02669798,7.03778902 7.00357659,7.03778902 C6.9804552,7.03778902 6.95617775,7.03894509 6.93305636,7.04010116 C6.15964595,7.00310694 5.53999277,6.36380058 5.53999277,5.57998555 L5.53999277,5.57998555 Z M9.50299855,11.6435694 L4.50531069,11.6435694 L4.50531069,10.6944364 C4.50531069,9.35108382 5.57005058,8.25281792 6.89953035,8.19848266 C6.93421243,8.19963873 6.96889451,8.2007948 7.00357659,8.2007948 C7.03825867,8.2007948 7.07294075,8.19963873 7.10762283,8.19848266 C8.4371026,8.25397399 9.50184249,9.35223988 9.50184249,10.6944364 L9.50184249,11.6435694 L9.50299855,11.6435694 Z M11.9631142,4.05050578 L16.0139812,4.05050578 L16.0139812,5.20657514 L11.9631142,5.20657514 L11.9631142,4.05050578 Z M12.6047327,7.39270231 L16.0139812,7.39270231 L16.0139812,8.54877168 L12.6047327,8.54877168 L12.6047327,7.39270231 Z M13.1365246,10.7360549 L16.0139812,10.7360549 L16.0139812,11.8921243 L13.1365246,11.8921243 L13.1365246,10.7360549 Z" id="形状"></path>
                        </g>
                    </g>
                </g>
            </g>
        </g>
    </g>
</svg>