<svg width="20" height="21" viewBox="0 0 20 21" fill="none" xmlns="http://www.w3.org/2000/svg">
<g id="Group 427318645">
<circle id="Ellipse 159" cx="10" cy="10.5" r="10" fill="#00A3FF"/>
<path id="Rectangle 589" d="M6.84734 11.2695C6.44966 10.8803 6.44623 10.2413 6.8397 9.8478V9.8478C7.22724 9.46026 7.85452 9.45689 8.2462 9.84024L10.2593 11.8106C10.657 12.1998 10.6605 12.8388 10.267 13.2323V13.2323C9.87944 13.6198 9.25216 13.6232 8.86048 13.2398L6.84734 11.2695Z" fill="white"/>
<path id="Rectangle 590" d="M13.6328 7.68821C14.028 7.33993 14.6259 7.35877 14.9984 7.73126V7.73126C15.4056 8.1385 15.3846 8.80494 14.9525 9.18572L10.2704 13.3119C9.8752 13.6602 9.27735 13.6413 8.90486 13.2688V13.2688C8.49763 12.8616 8.51864 12.1952 8.95071 11.8144L13.6328 7.68821Z" fill="white"/>
</g>
</svg>
