<?xml version="1.0" encoding="UTF-8"?>
<svg width="21px" height="18px" viewBox="0 0 21 18" version="1.1" xmlns="http://www.w3.org/2000/svg" xmlns:xlink="http://www.w3.org/1999/xlink">
    <!-- Generator: Sketch 63.1 (92452) - https://sketch.com -->
    <title>商标进度</title>
    <desc>Created with Sketch.</desc>
    <g id="优化版本8月份" stroke="none" stroke-width="1" fill="none" fill-rule="evenodd">
        <g id="查询后结果-收起-客服hover状态（8）" transform="translate(-1859.000000, -977.000000)">
            <g id="右下角客服" transform="translate(1840.000000, 886.000000)">
                <g id="商标进度" transform="translate(18.200000, 90.837762)">
                    <polygon id="矩形" fill="#00A3FF" points="1 1 19.48 1 19.48 2.99384615 1 2.99384615"></polygon>
                    <polygon id="矩形备份" fill="#00A3FF" points="1 8.31076923 8.92 8.31076923 8.92 10.3046154 1 10.3046154"></polygon>
                    <polygon id="矩形备份-2" fill="#00A3FF" points="1 15.6215385 12.22 15.6215385 12.22 17.6153846 1 17.6153846"></polygon>
                    <ellipse id="椭圆形" stroke="#00A3FF" stroke-width="1.98" transform="translate(15.575841, 10.548636) rotate(-38.000000) translate(-15.575841, -10.548636) " cx="15.575841" cy="10.5486357" rx="3.64227297" ry="3.65008886"></ellipse>
                    <path d="M19.2882812,12.4757018 L19.2975825,12.4756703 C19.8420993,12.4738278 20.285011,12.9137523 20.2868535,13.4582692 C20.286861,13.4604914 20.286861,13.4627136 20.2868535,13.4649357 L20.2778542,16.1290505 C20.2760161,16.6731969 19.8353561,17.1138594 19.2912097,17.1157006 L19.2819084,17.1157321 C18.7373916,17.1175746 18.2944799,16.6776501 18.2926374,16.1331332 C18.2926299,16.1309111 18.2926299,16.1286889 18.2926374,16.1264667 L18.3016367,13.4623519 C18.3034748,12.9182055 18.7441348,12.477543 19.2882812,12.4757018 Z" id="矩形" fill="#00A3FF" transform="translate(19.289745, 14.795701) rotate(-38.000000) translate(-19.289745, -14.795701) "></path>
                </g>
            </g>
        </g>
    </g>
</svg>