<svg width="22" height="23" viewBox="0 0 22 23" fill="none" xmlns="http://www.w3.org/2000/svg">
<g id="&#230;&#136;&#145;&#231;&#154;&#132;&#232;&#174;&#162;&#229;&#141;&#149;icon">
<g id="Group 427318587">
<path id="Rectangle 537 (Stroke)" fill-rule="evenodd" clip-rule="evenodd" d="M6.33333 3.96912C5.56013 3.96912 4.93333 4.61446 4.93333 5.41052V15.9808C4.93333 16.7769 5.56013 17.4222 6.33333 17.4222H15.6667C16.4399 17.4222 17.0667 16.7769 17.0667 15.9808V5.41052C17.0667 4.61446 16.4399 3.96912 15.6667 3.96912H14.0685C13.8107 3.96912 13.6018 3.754 13.6018 3.48865C13.6018 3.22329 13.8107 3.00818 14.0685 3.00818H15.6667C16.9553 3.00818 18 4.08374 18 5.41052V15.9808C18 17.3076 16.9553 18.3832 15.6667 18.3832H6.33333C5.04467 18.3832 4 17.3076 4 15.9808V5.41052C4 4.08374 5.04467 3.00818 6.33333 3.00818H7.90217C8.1599 3.00818 8.36884 3.22329 8.36884 3.48865C8.36884 3.754 8.1599 3.96912 7.90217 3.96912H6.33333Z" fill="black" fill-opacity="0.6"/>
<path id="Rectangle 538" d="M9.3125 3.61194C9.3125 3.3358 9.53636 3.11194 9.8125 3.11194H12.1875C12.4636 3.11194 12.6875 3.3358 12.6875 3.61194V3.61194C12.6875 3.88808 12.4636 4.11194 12.1875 4.11194H9.8125C9.53636 4.11194 9.3125 3.88808 9.3125 3.61194V3.61194Z" fill="black" fill-opacity="0.6"/>
<path id="Rectangle 539" d="M7.3125 8.71326C7.3125 8.43711 7.53636 8.21326 7.8125 8.21326H14.1875C14.4636 8.21326 14.6875 8.43711 14.6875 8.71326V8.71326C14.6875 8.9894 14.4636 9.21326 14.1875 9.21326H7.8125C7.53636 9.21326 7.3125 8.9894 7.3125 8.71326V8.71326Z" fill="black" fill-opacity="0.6"/>
<path id="Rectangle 540" d="M7.3125 12.3031C7.3125 12.027 7.53636 11.8031 7.8125 11.8031H12.1875C12.4636 11.8031 12.6875 12.027 12.6875 12.3031V12.3031C12.6875 12.5792 12.4636 12.8031 12.1875 12.8031H7.8125C7.53636 12.8031 7.3125 12.5792 7.3125 12.3031V12.3031Z" fill="black" fill-opacity="0.6"/>
</g>
</g>
</svg>
