<svg width="22" height="23" viewBox="0 0 22 23" fill="none" xmlns="http://www.w3.org/2000/svg">
<g id="&#229;&#174;&#137;&#229;&#133;&#168;&#233;&#128;&#128;&#229;&#135;&#186;icon">
<path id="Vector" d="M10.9995 17.8035C10.0811 17.8035 9.18902 17.6273 8.35003 17.278C7.539 16.9421 6.81172 16.4607 6.18672 15.8474C5.56165 15.2338 5.07112 14.5191 4.72793 13.7238C4.37298 12.9003 4.19287 12.0254 4.19287 11.1234C4.19287 10.0442 4.46251 8.97276 4.97206 8.02363C5.4647 7.10656 6.18037 6.30133 7.04215 5.69513C7.28158 5.52671 7.61424 5.58131 7.78537 5.81573C7.9565 6.05023 7.9019 6.37616 7.66237 6.54356C6.93414 7.05721 6.3297 7.73603 5.91439 8.51024C5.47849 9.32168 5.25769 10.2007 5.25769 11.1234C5.25769 12.6289 5.85509 14.0444 6.94 15.1087C8.02421 16.1733 9.4661 16.7597 10.9996 16.7597C12.5326 16.7597 13.9749 16.1733 15.0598 15.1087C16.1446 14.0445 16.7415 12.629 16.7415 11.1234C16.7415 10.2018 16.5212 9.32116 16.0848 8.51024C15.6694 7.73666 15.0646 7.05725 14.3362 6.5446C14.0973 6.37727 14.0416 6.05127 14.2133 5.81686C14.385 5.58244 14.717 5.52734 14.956 5.69626C15.8183 6.30235 16.5349 7.10758 17.0272 8.02467C17.5372 8.97382 17.8068 10.0453 17.8068 11.1245C17.8068 12.0265 17.6267 12.9014 17.2713 13.7254C16.9285 14.5207 16.4376 15.2354 15.8126 15.8489C15.1874 16.4623 14.4601 16.9431 13.6492 17.2806C12.8097 17.6278 11.9181 17.8035 10.9996 17.8035H10.9995ZM11.1595 10.5547C10.8655 10.5547 10.6272 10.3219 10.6272 10.0328V3.84548C10.6272 3.5575 10.8655 3.32306 11.1595 3.32306C11.4536 3.32306 11.6924 3.55748 11.6924 3.84548V10.0328C11.6924 10.3218 11.4535 10.5547 11.1595 10.5547Z" fill="black" fill-opacity="0.6"/>
</g>
</svg>
