<svg width="16" height="17" viewBox="0 0 16 17" fill="none" xmlns="http://www.w3.org/2000/svg">
<g id="&#232;&#180;&#173;&#231;&#137;&#169;&#232;&#189;&#166;">
<g id="&#232;&#180;&#173;&#231;&#137;&#169;&#232;&#189;&#166;_2">
<g id="Vector">
<path d="M5.97869 12.9641C5.33727 12.9641 4.81543 13.4859 4.81543 14.1274C4.81543 14.7688 5.33727 15.2906 5.97869 15.2906C6.62012 15.2906 7.14196 14.7688 7.14196 14.1274C7.14196 13.4859 6.62012 12.9641 5.97869 12.9641ZM5.97869 14.6275C5.70419 14.6275 5.47996 14.4032 5.47996 14.1287C5.47996 13.8542 5.70419 13.63 5.97869 13.63C6.2532 13.63 6.47743 13.8542 6.47743 14.1287C6.47743 14.4032 6.2532 14.6275 5.97869 14.6275Z" fill="white" fill-opacity="0.9"/>
<path d="M4.87793 14.1274C4.87793 13.5205 5.37179 13.0266 5.97869 13.0266C6.5856 13.0266 7.07946 13.5205 7.07946 14.1274C7.07946 14.7343 6.5856 15.2281 5.97869 15.2281C5.37179 15.2281 4.87793 14.7343 4.87793 14.1274ZM5.41746 14.1287C5.41746 14.4378 5.66967 14.69 5.97869 14.69C6.28772 14.69 6.53993 14.4378 6.53993 14.1287C6.53993 13.8197 6.28772 13.5675 5.97869 13.5675C5.66967 13.5675 5.41746 13.8197 5.41746 14.1287Z" stroke="white" stroke-opacity="0.9" stroke-width="0.125"/>
</g>
<g id="Vector_2">
<path d="M11.6301 12.9641C10.9886 12.9641 10.4668 13.4859 10.4668 14.1274C10.4668 14.7688 10.9886 15.2906 11.6301 15.2906C12.2715 15.2906 12.7933 14.7688 12.7933 14.1274C12.7933 13.4859 12.2728 12.9641 11.6301 12.9641ZM11.6301 14.6275C11.3556 14.6275 11.1313 14.4032 11.1313 14.1287C11.1313 13.8542 11.3556 13.63 11.6301 13.63C11.9046 13.63 12.1288 13.8542 12.1288 14.1287C12.1288 14.4032 11.9059 14.6275 11.6301 14.6275Z" fill="white" fill-opacity="0.9"/>
<path d="M10.5293 14.1274C10.5293 13.5205 11.0232 13.0266 11.6301 13.0266C12.2383 13.0266 12.7308 13.5204 12.7308 14.1274C12.7308 14.7343 12.237 15.2281 11.6301 15.2281C11.0232 15.2281 10.5293 14.7343 10.5293 14.1274ZM11.0688 14.1287C11.0688 14.4378 11.321 14.69 11.6301 14.69C11.9406 14.69 12.1913 14.4376 12.1913 14.1287C12.1913 13.8197 11.9391 13.5675 11.6301 13.5675C11.321 13.5675 11.0688 13.8197 11.0688 14.1287Z" stroke="white" stroke-opacity="0.9" stroke-width="0.125"/>
</g>
<path id="Vector 81" d="M1.33984 2.30005H2.277C2.75498 2.30005 3.16613 2.6383 3.25825 3.10731L3.6254 4.97653M13.245 11.9624H5.82023C5.34225 11.9624 4.9311 11.6241 4.83898 11.1551L4.65864 10.2369M3.6254 4.97653H14.0076C14.3366 4.97653 14.5759 5.28872 14.4904 5.60639L13.4441 9.49667C13.3266 9.93341 12.9307 10.2369 12.4784 10.2369H4.65864M3.6254 4.97653L4.65864 10.2369" stroke="white" stroke-opacity="0.9" stroke-linecap="round"/>
</g>
</g>
</svg>
