<?xml version="1.0" encoding="UTF-8"?>
<svg width="18px" height="19px" viewBox="0 0 18 19" version="1.1" xmlns="http://www.w3.org/2000/svg" xmlns:xlink="http://www.w3.org/1999/xlink">
    <!-- Generator: Sketch 63.1 (92452) - https://sketch.com -->
    <title>编组</title>
    <desc>Created with Sketch.</desc>
    <g id="优化版本8月份" stroke="none" stroke-width="1" fill="none" fill-rule="evenodd">
        <g id="我的商标-查看商标信息-官方文件空状态（8）" transform="translate(-1307.000000, -588.000000)" fill="#00A4FF">
            <g id="编组" transform="translate(1307.000000, 588.000000)">
                <path d="M3.56156626,12.3964583 L7.63192769,12.3964583 L7.63192769,11.0395884 L3.56156626,11.0395884 L3.56156626,12.3964583 Z M3.56156626,8.80594938 L12.7198381,8.80594938 L12.7198381,7.44928645 L3.56156626,7.44928645 L3.56156626,8.80594938 Z M3.56156626,5.28015779 L12.7198381,5.28015779 L12.7198381,3.92345345 L3.56156626,3.92345345 L3.56156626,5.28015779 Z" id="Fill-1"></path>
                <g transform="translate(0.000000, 0.031468)">
                    <path d="M7.29861054,16.987751 L1.35686996,16.987751 L1.35686996,1.38469883 L14.9247,1.38469883 L14.9247,8.77448507 C14.9247,9.14924949 15.2284534,9.45296145 15.6030522,9.45296145 C15.977651,9.45296145 16.2814043,9.14924949 16.2814043,8.77448507 L16.2814043,1.38469883 C16.2814043,0.636453579 15.6727796,0.027828877 14.9247,0.027828877 L1.35686996,0.027828877 C0.608624702,0.027828877 0,0.636453579 0,1.38469883 L0,16.987751 C0,17.7357478 0.608624702,18.3444139 1.35686996,18.3444139 L7.29861054,18.3444139 C7.67333355,18.3444139 7.97708692,18.0406606 7.97708692,17.6660618 C7.97708692,17.2913388 7.67333355,16.987751 7.29861054,16.987751" id="Fill-2"></path>
                    <path d="M12.174614,15.3919692 C10.9589795,15.3919692 9.96991773,14.4027833 9.96991773,13.1871073 C9.96991773,11.9714727 10.9589795,10.982411 12.174614,10.982411 C13.3902486,10.982411 14.379476,11.9714727 14.379476,13.1871073 C14.379476,14.4027833 13.3904142,15.3919692 12.174614,15.3919692 M16.9932207,16.9367804 L15.1802652,15.0897065 C15.5431876,14.5214939 15.7360147,13.8614431 15.7361803,13.1871073 C15.7361803,11.2234345 14.1386595,9.62558248 12.174614,9.62558248 C10.2107342,9.62558248 8.61308918,11.2234345 8.61308918,13.1871073 C8.61308918,15.1509872 10.2107342,16.7486736 12.174614,16.7486736 C12.9485309,16.7486736 13.6632788,16.4978369 14.2481366,16.077112 L16.0246963,17.887169 C16.1521849,18.0173905 16.3266692,18.0906374 16.5088136,18.0903073 C16.7821337,18.0904718 17.0287883,17.9266288 17.1345803,17.6746328 C17.2403723,17.4226367 17.1847228,17.1318434 16.9932207,16.9367804" id="Fill-4"></path>
                </g>
            </g>
        </g>
    </g>
</svg>