<?xml version="1.0" encoding="UTF-8"?>
<svg width="16px" height="16px" viewBox="0 0 16 16" version="1.1" xmlns="http://www.w3.org/2000/svg" xmlns:xlink="http://www.w3.org/1999/xlink">
    <!-- Generator: Sketch 58 (84663) - https://sketch.com -->
    <title>详情icon</title>
    <desc>Created with Sketch.</desc>
    <g id="新增-OA" stroke="none" stroke-width="1" fill="none" fill-rule="evenodd">
        <g id="OA-我的商标" transform="translate(-1412.000000, -354.000000)">
            <g id="基本信息" transform="translate(592.000000, 102.000000)">
                <g id="编组-17备份" transform="translate(24.000000, 153.000000)">
                    <g id="编组-15" transform="translate(12.000000, 71.000000)">
                        <g id="编组-5" transform="translate(784.000000, 26.000000)">
                            <g id="编组-23">
                                <g id="Group-14" transform="translate(0.000000, 2.000000)">
                                    <rect id="Rectangle-4" stroke="#979797" fill="#D8D8D8" x="1.5" y="1.5" width="13" height="13"></rect>
                                    <rect id="Rectangle-4" stroke="#00A3FF" fill="#FFFFFF" x="1.5" y="1.5" width="13" height="13"></rect>
                                    <path d="M4.5,11.0625 L4.5,11.9375 L3.1875,11.9375 L3.1875,11.0625 L4.5,11.0625 Z M12.8125,11.0625 L12.8125,11.9375 L5.59375,11.9375 L5.59375,11.0625 L12.8125,11.0625 Z M4.5,7.5625 L4.5,8.4375 L3.1875,8.4375 L3.1875,7.5625 L4.5,7.5625 Z M12.8125,7.5625 L12.8125,8.4375 L5.59375,8.4375 L5.59375,7.5625 L12.8125,7.5625 Z M4.5,4.0625 L4.5,4.9375 L3.1875,4.9375 L3.1875,4.0625 L4.5,4.0625 Z M12.8125,4.0625 L12.8125,4.9375 L5.59375,4.9375 L5.59375,4.0625 L12.8125,4.0625 Z" id="Combined-Shape" fill="#00A3FF"></path>
                                </g>
                            </g>
                        </g>
                    </g>
                </g>
            </g>
        </g>
    </g>
</svg>