<?xml version="1.0" encoding="UTF-8"?>
<svg width="20px" height="20px" viewBox="0 0 20 20" version="1.1" xmlns="http://www.w3.org/2000/svg" xmlns:xlink="http://www.w3.org/1999/xlink">
    <!-- Generator: Sketch 63.1 (92452) - https://sketch.com -->
    <title>形状</title>
    <desc>Created with Sketch.</desc>
    <g id="优化版本8月份" stroke="none" stroke-width="1" fill="none" fill-rule="evenodd">
        <g id="支付订单-3（8）" transform="translate(-869.000000, -541.000000)" fill="#F0B955" fill-rule="nonzero">
            <g id="pc-提示图标" transform="translate(869.000000, 541.000000)">
                <path d="M10,0 C4.4765625,0 0,4.4765625 0,10 C0,15.5234375 4.4765625,20 10,20 C15.5234375,20 20,15.5234375 20,10 C20,4.4765625 15.5234375,0 10,0 Z M10,15.4296875 C9.50580357,15.4296875 9.10535714,15.0292411 9.10535714,14.5352679 C9.10535714,14.0410714 9.50580357,13.640625 10,13.640625 C10.4941964,13.640625 10.8944196,14.0410714 10.8944196,14.5352679 C10.8944196,15.0292411 10.4941964,15.4296875 10,15.4296875 Z M10.7558036,11.8457589 C10.734375,12.1993304 10.4022321,12.4747768 10,12.4747768 C9.59776786,12.4747768 9.265625,12.1973214 9.24419643,11.8457589 L8.80870536,5.6640625 C8.78727679,5.30267857 8.98258929,4.95714286 9.32232143,4.75200893 C9.71674107,4.515625 10.2323661,4.51183036 10.6328125,4.74040179 L10.65625,4.75401786 C11.0098214,4.95513393 11.2129464,5.30669643 11.1895089,5.67589286 L10.7558036,11.8457589 Z" id="形状"></path>
            </g>
        </g>
    </g>
</svg>