<?xml version="1.0" encoding="UTF-8"?>
<svg width="20px" height="20px" viewBox="0 0 20 20" version="1.1" xmlns="http://www.w3.org/2000/svg" xmlns:xlink="http://www.w3.org/1999/xlink">
    <!-- Generator: Sketch 58 (84663) - https://sketch.com -->
    <title>Shape Copy 11</title>
    <desc>Created with Sketch.</desc>
    <g id="工作台" stroke="none" stroke-width="1" fill="none" fill-rule="evenodd">
        <g id="各国税务申报、注册、转代理-状态" transform="translate(-809.000000, -815.000000)">
            <g id="操作" transform="translate(729.000000, 699.000000)">
                <g id="编组-7备份-7" transform="translate(80.000000, 115.000000)">
                    <g id="Group-6" transform="translate(3.000000, 4.000000)">
                        <rect id="Rectangle-4" stroke="#515B6E" x="0.5" y="0.5" width="13" height="13" rx="2"></rect>
                        <path d="M3.5,10.0625 L3.5,10.9375 L2.1875,10.9375 L2.1875,10.0625 L3.5,10.0625 Z M11.8125,10.0625 L11.8125,10.9375 L4.59375,10.9375 L4.59375,10.0625 L11.8125,10.0625 Z M3.5,6.5625 L3.5,7.4375 L2.1875,7.4375 L2.1875,6.5625 L3.5,6.5625 Z M11.8125,6.5625 L11.8125,7.4375 L4.59375,7.4375 L4.59375,6.5625 L11.8125,6.5625 Z M3.5,3.0625 L3.5,3.9375 L2.1875,3.9375 L2.1875,3.0625 L3.5,3.0625 Z M11.8125,3.0625 L11.8125,3.9375 L4.59375,3.9375 L4.59375,3.0625 L11.8125,3.0625 Z" id="Combined-Shape" fill="#515B6E"></path>
                    </g>
                </g>
            </g>
        </g>
    </g>
</svg>