<?xml version="1.0" encoding="UTF-8"?>
<svg width="20px" height="20px" viewBox="0 0 20 20" version="1.1" xmlns="http://www.w3.org/2000/svg" xmlns:xlink="http://www.w3.org/1999/xlink">
    <!-- Generator: Sketch 58 (84663) - https://sketch.com -->
    <title>Shape Copy 11</title>
    <desc>Created with Sketch.</desc>
    <g id="工作台" stroke="none" stroke-width="1" fill="none" fill-rule="evenodd">
        <g id="新工作台—我的VAT全部展示" transform="translate(-1407.000000, -647.000000)" fill="#ED3E3E" fill-rule="nonzero">
            <g id="编组-7" transform="translate(106.000000, 146.000000)">
                <g id="操作" transform="translate(1301.000000, 15.000000)">
                    <g id="编组-7备份-11" transform="translate(0.000000, 430.000000)">
                        <g id="gouwuche" transform="translate(0.000000, 56.000000)">
                            <path d="M5.86201231,16.1785054 C5.86201231,16.4942704 6.03047094,16.7860494 6.30393149,16.9439319 C6.57739205,17.1018144 6.91430934,17.1018144 7.18776989,16.9439319 C7.46123045,16.7860494 7.62968908,16.4942704 7.62968908,16.1785054 C7.62968908,15.6903749 7.23398116,15.294667 6.74585069,15.294667 C6.25772023,15.294667 5.86201231,15.6903749 5.86201231,16.1785054 L5.86201231,16.1785054 Z" id="路径"></path>
                            <path d="M12.579184,16.1578235 C12.579184,16.645954 12.974892,17.0416619 13.4630224,17.0416619 C13.9511529,17.0416619 14.3468608,16.645954 14.3468608,16.1578235 C14.3468608,15.6696931 13.9511529,15.2739852 13.4630224,15.2739852 C12.974892,15.2739852 12.579184,15.6696931 12.579184,16.1578235 L12.579184,16.1578235 Z" id="路径"></path>
                            <path d="M16.3220628,5.14519729 L3.90607797,5.18346749 L3.46698706,2.73726799 C3.42792693,2.51970587 3.27576587,2.33950852 3.06782148,2.26455453 C2.85987709,2.18960054 2.62774108,2.23127721 2.45885683,2.37388534 C2.28997257,2.51649347 2.20999762,2.73836749 2.24905777,2.95592961 L2.64961332,5.18735638 L2.64625473,5.18735638 L4.11050979,13.4950836 C4.2000661,14.0031921 4.64227376,14.3731409 5.15821181,14.3715911 L14.7805603,14.3418892 C15.2531277,14.3404834 15.667736,14.0265446 15.7972396,13.572066 L17.686179,6.94699021 C17.9444366,6.04211648 17.2630855,5.14228062 16.3220628,5.14519729 Z M16.4963557,6.60777304 L14.6439189,13.1049574 L5.30333807,13.1336821 L4.12005524,6.42013415 L16.3259517,6.38242185 C16.3818124,6.38098528 16.4347943,6.40722805 16.4674542,6.45257102 C16.502175,6.49633598 16.5129957,6.55444376 16.4963557,6.60777304 L16.4963557,6.60777304 Z" id="形状"></path>
                            <path d="M12.9731992,10.494364 L7.13986585,10.5123059 C6.8009939,10.5172791 6.52919559,10.7939639 6.53025768,11.1328707 C6.53132601,11.4717775 6.80485822,11.7467483 7.14375473,11.7495912 L12.9770881,11.7316493 C13.1998159,11.7335177 13.4063566,11.6155197 13.5178596,11.4227031 C13.6293626,11.2298864 13.6286149,10.9920167 13.5159021,10.7999047 C13.4031892,10.6077928 13.1959109,10.4910955 12.9731992,10.494364 Z" id="路径"></path>
                        </g>
                    </g>
                </g>
            </g>
        </g>
    </g>
</svg>