<?xml version="1.0" encoding="UTF-8"?>
<svg width="13px" height="14px" viewBox="0 0 13 14" version="1.1" xmlns="http://www.w3.org/2000/svg" xmlns:xlink="http://www.w3.org/1999/xlink">
    <title>编组</title>
    <g id="英国" stroke="none" stroke-width="1" fill="none" fill-rule="evenodd">
        <g id="英国_转代理+申报_待审核_查看详情备份-3" transform="translate(-343.000000, -121.000000)" fill="#18BDFF" fill-rule="nonzero">
            <g id="编组" transform="translate(343.000000, 121.000000)">
                <path d="M11.5451524,11.0445983 L7.5299169,11.0445983 C7.22742382,11.0445983 7.02936288,10.8429363 7.02936288,10.5440443 C7.02936288,10.2415512 7.23102493,10.0434903 7.5299169,10.0434903 L11.5451524,10.0434903 C11.8476454,10.0434903 12.0457064,10.2451524 12.0457064,10.5440443 C12.0457064,10.8429363 11.7468144,11.0445983 11.5451524,11.0445983 L11.5451524,11.0445983 Z" id="路径"></path>
                <path d="M12.5498615,11.0445983 C12.4490305,11.0445983 12.2473684,11.0445983 12.1465374,10.9437673 L10.4396122,9.23684211 C10.2379501,9.03518006 10.2379501,8.73628809 10.4396122,8.53462604 C10.6412742,8.33296399 10.9401662,8.33296399 11.1418283,8.53462604 L12.8487535,10.2415512 C13.0504155,10.4432133 13.0504155,10.7421053 12.8487535,10.9437673 C12.7515235,11.0445983 12.6506925,11.0445983 12.5498615,11.0445983 L12.5498615,11.0445983 Z" id="路径"></path>
                <path d="M10.7421053,12.7515235 C10.6412742,12.7515235 10.4396122,12.7515235 10.3387812,12.6506925 C10.1371191,12.4490305 10.1371191,12.1501385 10.3387812,11.9484765 L12.0457064,10.2415512 C12.2473684,10.0398892 12.5462604,10.0398892 12.7479224,10.2415512 C12.9495845,10.4432133 12.9495845,10.7421053 12.7479224,10.9437673 L11.0409972,12.6506925 C11.0445983,12.7515235 10.9437673,12.7515235 10.7421053,12.7515235 L10.7421053,12.7515235 Z M7.02936288,13.6554017 L1.00470914,13.6554017 C0.4033241,13.6554017 0,13.2520776 0,12.6506925 L0,1.00470914 C0,0.4033241 0.4033241,0 1.00470914,0 L11.2426593,0 C11.8440443,0 12.2473684,0.4033241 12.2473684,1.00470914 L12.2473684,5.92382271 C12.2473684,6.22631579 12.0457064,6.42437673 11.7468144,6.42437673 C11.4443213,6.42437673 11.2462604,6.22271468 11.2462604,5.92382271 L11.2462604,1.00470914 L1.00470914,1.00470914 L1.00470914,12.6506925 L6.92853186,12.6506925 C7.23102493,12.6506925 7.5299169,12.8523546 7.5299169,13.1512465 C7.5299169,13.4537396 7.22742382,13.6554017 7.02936288,13.6554017 Z" id="形状"></path>
                <path d="M8.53462604,4.11606648 L3.41385042,4.11606648 C3.11135734,4.11606648 2.9132964,3.91440443 2.9132964,3.61551247 C2.9132964,3.31301939 3.11495845,3.11495845 3.41385042,3.11495845 L8.53462604,3.11495845 C8.83711911,3.11495845 9.03518006,3.3166205 9.03518006,3.61551247 C9.03518006,3.91800554 8.83351801,4.11606648 8.53462604,4.11606648 L8.53462604,4.11606648 Z M7.02936288,7.02936288 L3.41385042,7.02936288 C3.11135734,7.02936288 2.9132964,6.82770083 2.9132964,6.52880886 C2.9132964,6.22631579 3.11495845,6.02825485 3.41385042,6.02825485 L7.02936288,6.02825485 C7.23102493,6.02825485 7.5299169,6.2299169 7.5299169,6.52880886 C7.5299169,6.82770083 7.22742382,7.02936288 7.02936288,7.02936288 L7.02936288,7.02936288 Z M5.92382271,10.0398892 L3.41385042,10.0398892 C3.11135734,10.0398892 2.9132964,9.83822715 2.9132964,9.53933518 C2.9132964,9.23684211 3.11495845,9.03878116 3.41385042,9.03878116 L5.92382271,9.03878116 C6.22631579,9.03878116 6.42437673,9.24044321 6.42437673,9.53933518 C6.42437673,9.83822715 6.12548476,10.0398892 5.92382271,10.0398892 Z" id="形状"></path>
            </g>
        </g>
    </g>
</svg>