<?xml version="1.0" encoding="UTF-8"?>
<svg width="20px" height="20px" viewBox="0 0 20 20" version="1.1" xmlns="http://www.w3.org/2000/svg" xmlns:xlink="http://www.w3.org/1999/xlink">
    <!-- Generator: Sketch 58 (84663) - https://sketch.com -->
    <title>Shape Copy 11</title>
    <desc>Created with Sketch.</desc>
    <g id="工作台" stroke="none" stroke-width="1" fill="none" fill-rule="evenodd">
        <g id="新-工作台-申报统计（图形统计）" transform="translate(-1180.000000, -821.000000)" fill="#F79728">
            <g id="操作" transform="translate(1152.000000, 485.000000)">
                <g id="编组-12备份-2" transform="translate(28.000000, 336.000000)">
                    <g id="编组-7">
                        <g id="上传备份">
                            <path d="M10.0039484,9.30170867 L13.0765079,12.3320192 L12.1785913,13.2175891 L10.6349206,11.6951446 L10.6349206,17.050695 C10.6349206,17.3965868 10.3507341,17.6770026 10,17.6770026 C9.64934524,17.6770026 9.36507937,17.3967042 9.36507937,17.0507145 L9.36507937,17.0507145 L9.36507937,11.6951446 L7.82140873,13.2175695 L6.92349206,12.3319996 L9.99605159,9.30170867 L10,9.30560279 L10.0039484,9.30170867 Z M10.1587302,3.33333333 C12.8015278,3.33333333 15.0035317,5.19327477 15.515873,7.6579594 C17.37875,7.6579594 18.8888889,9.14733322 18.8888889,10.9845948 C18.8888889,12.7229184 17.5369246,14.1495753 15.8134921,14.2525249 L15.8134921,14.2525249 L15.289485,14.2525249 C14.6714671,14.2525249 14.1227255,14.043124 13.789392,13.7224011 L13.7541111,13.6853333 L13.789903,13.6468928 C14.0936225,13.3401805 14.5762917,13.0566242 15.1293593,13.0076034 L15.297283,13.0001445 L15.5952381,13.0001445 C16.72,12.9575245 17.6190476,12.1039685 17.6190476,10.9845948 C17.6190476,9.86367524 16.7174802,8.95057252 15.5905159,8.91178786 C15.5901531,8.92082289 15.4765905,8.92417351 15.3793179,8.92538597 L15.2425719,8.92600195 C14.7346411,8.93377962 14.2896261,8.53116491 14.2543609,8.02917588 C14.2543609,8.02917588 14.2430754,7.90309329 14.2474206,7.9013517 C13.8724405,6.01168579 12.1845635,4.58571373 10.1587302,4.58571373 C8.91188492,4.58571373 7.79305556,5.12593976 7.03371032,5.99466125 C7.03371032,5.99466125 6.83529762,6.18056146 6.65672619,6.47408812 C6.5265537,6.701684 5.9211576,7.03629408 5.41760817,6.99354972 C5.41760817,6.99354972 5.36706349,6.96327964 5.00349206,6.98889474 C3.5184127,7.21332522 2.38095238,8.4787382 2.38095238,10.0061726 C2.38095238,11.6921115 3.76674603,13.0001445 5.48611111,13.0008881 C5.82293651,13.0162298 6.19047619,13.2903446 6.19047619,13.6263347 C6.19047619,13.9721678 5.84668651,14.2525249 5.47619048,14.2525249 C3.06543651,14.2525249 1.11111111,12.3837973 1.11111111,10.0061726 C1.11111111,7.62854803 3.06543651,5.70111502 5.47619048,5.70111502 C5.53299603,5.70111502 5.58946429,5.70246525 5.64575397,5.70459821 C6.62208333,4.27426238 8.27896825,3.33333333 10.1587302,3.33333333 Z M13.4521111,13.0113333 L13.452381,13.0001445 C13.452381,13.2307014 13.5441367,13.4467071 13.7039334,13.6322449 L13.7541111,13.6853333 L13.7042642,13.7393898 C13.5708421,13.8940046 13.4848713,14.049124 13.4599205,14.1783255 L13.4521111,14.2453333 L13.4521111,13.0113333 Z" id="Shape-Copy-11"></path>
                        </g>
                    </g>
                </g>
            </g>
        </g>
    </g>
</svg>