<?xml version="1.0" encoding="UTF-8"?>
<svg width="20px" height="20px" viewBox="0 0 20 20" version="1.1" xmlns="http://www.w3.org/2000/svg" xmlns:xlink="http://www.w3.org/1999/xlink">
    <!-- Generator: Sketch 58 (84663) - https://sketch.com -->
    <title>Shape Copy 11</title>
    <desc>Created with Sketch.</desc>
    <defs>
        <rect id="path-1" x="0" y="0" width="240" height="374"></rect>
        <filter x="-3.8%" y="-1.9%" width="105.8%" height="103.7%" filterUnits="objectBoundingBox" id="filter-2">
            <feOffset dx="-2" dy="0" in="SourceAlpha" result="shadowOffsetOuter1"></feOffset>
            <feGaussianBlur stdDeviation="2" in="shadowOffsetOuter1" result="shadowBlurOuter1"></feGaussianBlur>
            <feColorMatrix values="0 0 0 0 0   0 0 0 0 0   0 0 0 0 0  0 0 0 0.1035566 0" type="matrix" in="shadowBlurOuter1"></feColorMatrix>
        </filter>
    </defs>
    <g id="工作台" stroke="none" stroke-width="1" fill="none" fill-rule="evenodd">
        <g id="各国税务申报、注册、转代理-状态" transform="translate(-729.000000, -388.000000)">
            <rect fill="#FFFFFF" x="0" y="0" width="2563" height="1247"></rect>
            <g id="操作" transform="translate(701.000000, 105.000000)">
                <g id="矩形">
                    <use fill="black" fill-opacity="1" filter="url(#filter-2)" xlink:href="#path-1"></use>
                    <use fill="#FFFFFF" fill-rule="evenodd" xlink:href="#path-1"></use>
                </g>
                <g id="编组-7备份-5" transform="translate(28.000000, 283.000000)" fill="#16ADE9">
                    <g id="上传备份">
                        <path d="M9.89,9.07508212 C10.2406986,9.07508212 10.525,9.36039188 10.525,9.71256737 L10.525,9.71256737 L10.525,15.1638879 L12.0688636,13.614244 L12.9668925,14.5156468 L9.89394891,17.6001154 L9.88605109,17.6001154 L6.8131075,14.5156269 L7.71113641,13.6142241 L9.255,15.1638879 L9.255,9.71258729 C9.255,9.36051139 9.53922203,9.07508212 9.89,9.07508212 Z M10.04875,3 C12.691878,3 14.8941572,4.89319477 15.4065625,7.40194475 C17.2696723,7.40194475 18.78,8.91794663 18.78,10.7880561 C18.78,12.5574586 17.4278667,14.0096223 15.7042187,14.1144125 L15.7042187,14.1144125 L15.1801462,14.1144125 C14.5620511,14.1144125 14.0132408,13.9012678 13.6798657,13.5748108 L13.641,13.533 L13.6803767,13.4917334 C13.9841342,13.1803451 14.4668637,12.8961982 15.0200005,12.8471086 L15.1879452,12.8396412 L15.4859375,12.8396412 C16.61084,12.7962591 17.51,11.9274427 17.51,10.7880561 C17.51,9.64709592 16.6083198,8.71766811 15.4812147,8.67819003 C15.4808518,8.6873866 15.3672751,8.69079712 15.2699903,8.69203126 L15.1332272,8.69265825 C14.625233,8.70057497 14.1801623,8.29076204 14.1448927,7.7797981 C14.1448927,7.7797981 14.1336058,7.65146132 14.1379516,7.64968859 C13.7629245,5.72623792 12.0748366,4.27477133 10.04875,4.27477133 C8.80174891,4.27477133 7.68277969,4.82465589 6.92333953,5.70890899 C6.92333953,5.70890899 6.72490203,5.89813286 6.54630828,6.19690739 C6.40928497,6.4412267 5.81064775,6.76916486 5.30703537,6.72565629 C5.30703537,6.72565629 5.25648437,6.69484503 4.8928675,6.72091808 C3.4076025,6.94936109 2.27,8.23739801 2.27,9.79214099 C2.27,11.5082222 3.65596687,12.8396412 5.37554687,12.8403981 C5.71241437,12.856014 6.08,13.1350296 6.08,13.4770269 C6.08,13.829043 5.73616734,14.1144125 5.365625,14.1144125 C2.95456969,14.1144125 1,12.2122744 1,9.79214099 C1,7.37200754 2.95456969,5.41011455 5.365625,5.41011455 C5.42243766,5.41011455 5.47891297,5.41148891 5.53520969,5.41366 C6.51166109,3.95775163 8.16875312,3 10.04875,3 Z M13.342,12.847 C13.3428125,13.0743201 13.4345798,13.2941877 13.5943964,13.4830427 L13.641,13.533 L13.5947272,13.5857593 C13.4346007,13.7746143 13.3428125,13.9657948 13.3428125,14.1144125 L13.342,12.847 Z M6.514,6.25 L6.50600015,6.26433781 L6.50600015,6.26433781 L6.496,6.279 L6.514,6.25 Z" id="Shape-Copy-11"></path>
                    </g>
                </g>
            </g>
        </g>
    </g>
</svg>