<svg width="28" height="28" viewBox="0 0 28 28" fill="none" xmlns="http://www.w3.org/2000/svg">
<g id="&#231;&#188;&#150;&#231;&#187;&#132;">
<g id="Group 427319242">
<g id="Group 427319241">
<path id="Vector" d="M26.1382 16.1951H9.58489C8.70968 16.1951 8 15.4854 8 14.6102V5.58511C8 4.70989 8.70968 4.00021 9.58489 4.00021L26.1382 4.00021C27.0134 4.00021 27.7231 4.70989 27.7231 5.58511V14.6102C27.7231 15.4854 27.0134 16.1951 26.1382 16.1951Z" fill="#1F38A6"/>
<path id="Vector_2" d="M24.2573 7.80041C23.9393 7.80041 23.6335 7.79997 23.3277 7.80063C22.9929 7.8013 22.8433 7.90189 22.7125 8.21403C22.2723 9.26512 21.8318 10.3162 21.3922 11.3675C21.2511 11.7052 21.1122 12.044 20.9685 12.392H22.2031C22.2877 12.1619 22.3684 11.9418 22.4501 11.7199H23.9804C24.0304 11.9462 24.0797 12.169 24.129 12.392H25.2136C24.8937 10.8557 24.577 9.33402 24.2573 7.80041ZM22.7911 10.7725C22.9976 10.2011 23.1974 9.64769 23.3975 9.0943C23.4112 9.0954 23.4248 9.0965 23.4385 9.09783L23.7867 10.7725H22.7911ZM14.8362 7.80548C14.431 8.83125 14.0266 9.85461 13.6225 10.878C13.6115 10.8784 13.6005 10.8791 13.5897 10.8795C13.5782 10.832 13.5648 10.7846 13.5558 10.7364C13.4008 9.9114 13.2476 9.08616 13.0909 8.26157C13.0389 7.98818 12.8395 7.80416 12.5677 7.8013C11.8941 7.79381 11.2203 7.79887 10.5489 7.79887C10.5198 7.83872 10.4956 7.87394 10.5194 7.92897C10.8806 8.02274 11.2443 8.12025 11.5894 8.27852C11.7913 8.37098 11.9027 8.51582 11.9564 8.72912C12.1772 9.60675 12.4054 10.4824 12.6315 11.3585C12.7213 11.7067 12.8129 12.0547 12.9025 12.399H14.16C14.7984 10.8711 15.4356 9.3459 16.0791 7.80548H14.8362ZM20.4948 9.94376C20.3378 9.82269 20.1628 9.73156 19.9891 9.63779C19.811 9.54182 19.6233 9.46015 19.4725 9.32081C19.2852 9.14757 19.3048 8.93912 19.5189 8.79956C19.6563 8.70997 19.8104 8.68113 19.972 8.67365C20.3332 8.65692 20.6753 8.74056 21.0242 8.88254C21.0933 8.555 21.1593 8.24176 21.2264 7.92324C20.7184 7.72271 20.2099 7.68573 19.6928 7.74825C19.3292 7.79227 18.9915 7.914 18.6908 8.13126C18.0582 8.58868 17.787 9.62744 18.7098 10.2299C18.8517 10.3226 19.0014 10.4034 19.1487 10.4877C19.277 10.561 19.4115 10.6244 19.5348 10.705C19.6763 10.7974 19.7972 10.9141 19.7708 11.1062C19.7439 11.2995 19.6033 11.3926 19.4371 11.4547C19.1989 11.5436 18.9526 11.5306 18.7062 11.5049C18.4036 11.4732 18.1231 11.3662 17.839 11.2332C17.7668 11.572 17.6972 11.8974 17.6261 12.2302C18.0782 12.4309 18.8403 12.521 19.3578 12.4519C19.8126 12.3909 20.2332 12.2557 20.5775 11.9357C21.1884 11.3684 21.1501 10.4496 20.4948 9.94376ZM16.5994 7.80526C16.2717 9.34018 15.9463 10.865 15.619 12.3981H16.8015C17.1275 10.8683 17.4526 9.3426 17.7802 7.80526H16.5994Z" fill="white"/>
</g>
<g id="Group 427319240">
<path id="Vector_3" d="M19.3125 23.9846H1.6875C0.755625 23.9846 0 23.229 0 22.2971V12.6877C0 11.7558 0.755625 11.0002 1.6875 11.0002H19.3125C20.2444 11.0002 21 11.7558 21 12.6877V22.2971C21 23.229 20.2444 23.9846 19.3125 23.9846Z" fill="white"/>
<g id="Group 427319239">
<path id="Vector_4" d="M3.5625 17.4296C3.5625 18.5566 4.01024 19.6376 4.80721 20.4346C5.60419 21.2315 6.68512 21.6793 7.81221 21.6793C8.93931 21.6793 10.0202 21.2315 10.8172 20.4346C11.6142 19.6376 12.0619 18.5566 12.0619 17.4296C12.0619 16.3025 11.6142 15.2215 10.8172 14.4246C10.0202 13.6276 8.93931 13.1798 7.81221 13.1798C6.68512 13.1798 5.60419 13.6276 4.80721 14.4246C4.01024 15.2215 3.5625 16.3025 3.5625 17.4296Z" fill="#EA001B"/>
<path id="Vector_5" d="M8.93945 17.4296C8.93945 17.9876 9.04937 18.5403 9.26294 19.0558C9.47651 19.5714 9.78954 20.0399 10.1842 20.4346C10.5788 20.8292 11.0473 21.1422 11.5629 21.3558C12.0785 21.5693 12.6311 21.6793 13.1892 21.6793C13.7472 21.6793 14.2999 21.5693 14.8155 21.3558C15.3311 21.1422 15.7995 20.8292 16.1942 20.4346C16.5888 20.0399 16.9018 19.5714 17.1154 19.0558C17.329 18.5403 17.4389 17.9876 17.4389 17.4296C17.4389 16.8715 17.329 16.3189 17.1154 15.8033C16.9018 15.2877 16.5888 14.8192 16.1942 14.4246C15.7995 14.0299 15.3311 13.7169 14.8155 13.5033C14.2999 13.2898 13.7472 13.1798 13.1892 13.1798C12.6311 13.1798 12.0785 13.2898 11.5629 13.5033C11.0473 13.7169 10.5788 14.0299 10.1842 14.4246C9.78954 14.8192 9.47651 15.2877 9.26294 15.8033C9.04937 16.3189 8.93945 16.8715 8.93945 17.4296Z" fill="#F79F1A"/>
<path id="Vector_6" d="M8.94531 17.4372C8.94531 18.76 9.54979 19.9417 10.4974 20.7209C11.4564 19.9417 12.0692 18.753 12.0692 17.4214C12.0692 16.0986 11.4647 14.9169 10.5171 14.1377C9.55803 14.9169 8.94531 16.1052 8.94531 17.4372Z" fill="#FF5F01"/>
</g>
<path id="Vector_7" d="M15.3652 19.0658H15.4044V19.1678H15.422V19.0658H15.4611V19.0506H15.3652V19.0658ZM15.578 19.0506L15.5375 19.1446H15.537L15.4962 19.0506H15.4752V19.1678H15.493V19.0841H15.4937L15.5295 19.1678H15.5448L15.5806 19.0841H15.5813V19.1678H15.5991V19.0506H15.578Z" fill="#F79F1A"/>
<path id="Vector_8" d="M15.502 22.1037C15.4534 22.1037 15.4141 22.1431 15.4141 22.1916C15.4141 22.2401 15.4534 22.2795 15.502 22.2795C15.5505 22.2795 15.5898 22.2401 15.5898 22.1916C15.5898 22.1431 15.5505 22.1037 15.502 22.1037ZM15.502 22.2678C15.46 22.2678 15.4258 22.2335 15.4258 22.1916C15.4258 22.1496 15.46 22.1154 15.502 22.1154C15.5439 22.1154 15.5781 22.1496 15.5781 22.1916C15.5781 22.2335 15.5439 22.2678 15.502 22.2678Z" fill="black"/>
</g>
</g>
</g>
</svg>
