<svg width="28" height="28" viewBox="0 0 28 28" fill="none" xmlns="http://www.w3.org/2000/svg">
<path d="M23.5713 23.0281H4.42702C3.78333 23.0279 3.16608 22.772 2.71096 22.3168C2.25584 21.8616 2.00011 21.2443 2 20.6006V6.42702C2.00023 5.78341 2.25601 5.16622 2.71111 4.71111C3.16622 4.25601 3.78341 4.00023 4.42702 4H23.5713C24.2149 4.00023 24.8321 4.25601 25.2872 4.71111C25.7423 5.16622 25.998 5.78341 25.9983 6.42702V20.6006C25.9984 20.9194 25.9358 21.2351 25.8139 21.5297C25.692 21.8242 25.5132 22.0919 25.2878 22.3173C25.0624 22.5428 24.7948 22.7216 24.5003 22.8435C24.2057 22.9655 23.89 23.0282 23.5713 23.0281V23.0281Z" fill="#16ADE9"/>
<path d="M23.7344 4H4.26557C3.96803 3.99994 3.6734 4.05851 3.39851 4.17234C3.12361 4.28618 2.87383 4.45305 2.66344 4.66344C2.45305 4.87383 2.28618 5.12361 2.17234 5.39851C2.05851 5.6734 1.99994 5.96803 2 6.26557V20.7638C2 22.0158 3.01407 23.0294 4.26557 23.0294H17.0716C21.6951 19.5594 25.0205 14.3621 26 8.23283V6.26557C25.9997 5.66481 25.7609 5.08875 25.3361 4.66395C24.9113 4.23915 24.3352 4.00034 23.7344 4V4Z" fill="#2AC0F8"/>
<path d="M20.8015 4H4.26557C3.96803 3.99994 3.6734 4.05851 3.39851 4.17234C3.12361 4.28618 2.87383 4.45305 2.66344 4.66344C2.45305 4.87383 2.28618 5.12361 2.17234 5.39851C2.05851 5.6734 1.99994 5.96803 2 6.26557V20.7638C2 20.9158 2.01511 21.0621 2.04403 21.2059C11.0346 19.7804 18.5497 13.0886 20.8015 4Z" fill="#83D9F9"/>
<path d="M12.6414 4H4.26557C3.96803 3.99994 3.6734 4.05851 3.39851 4.17234C3.12361 4.28618 2.87383 4.45305 2.66344 4.66344C2.45305 4.87383 2.28618 5.12361 2.17234 5.39851C2.05851 5.6734 1.99994 5.96803 2 6.26557V12.9988C6.40197 11.1876 10.1242 8.03995 12.6414 4V4Z" fill="#BBEAFC"/>
<path d="M10.1341 13.316H6.16678C5.89314 13.316 5.63071 13.2073 5.43721 13.0138C5.24372 12.8203 5.13501 12.5579 5.13501 12.2843C5.13501 12.0106 5.24372 11.7482 5.43721 11.5547C5.63071 11.3612 5.89314 11.2525 6.16678 11.2525H10.1324C10.2679 11.2524 10.4021 11.2789 10.5273 11.3307C10.6525 11.3824 10.7663 11.4583 10.8622 11.5541C10.9581 11.6498 11.0342 11.7635 11.0861 11.8886C11.1381 12.0138 11.1649 12.1479 11.165 12.2834C11.1651 12.4189 11.1386 12.5531 11.0868 12.6783C11.0351 12.8035 10.9592 12.9173 10.8634 13.0132C10.7677 13.1091 10.654 13.1852 10.5289 13.2372C10.4038 13.2891 10.2696 13.3159 10.1341 13.316V13.316ZM2 7.85327H26V9.91551H2V7.85327Z" fill="#F7F8F8"/>
</svg>
