<svg width="36" height="36" viewBox="0 0 36 36" fill="none" xmlns="http://www.w3.org/2000/svg">
<path d="M30.3067 29.6075H5.69273C4.86512 29.6072 4.07151 29.2783 3.48636 28.693C2.9012 28.1078 2.57241 27.3141 2.57227 26.4865V8.26328C2.57256 7.43577 2.90142 6.64224 3.48655 6.05711C4.07169 5.47197 4.86522 5.14312 5.69273 5.14282H30.3067C31.1342 5.14312 31.9278 5.47197 32.5129 6.05711C33.098 6.64224 33.4269 7.43577 33.4272 8.26328V26.4865C33.4274 26.8964 33.3468 27.3023 33.1901 27.681C33.0334 28.0597 32.8035 28.4038 32.5138 28.6937C32.224 28.9835 31.8799 29.2134 31.5012 29.3702C31.1225 29.527 30.7166 29.6077 30.3067 29.6075V29.6075Z" fill="#059BF3"/>
<path d="M30.5165 5.14282H5.48514C5.10259 5.14275 4.72378 5.21804 4.37034 5.3644C4.01691 5.51076 3.69576 5.72532 3.42526 5.99582C3.15476 6.26632 2.94021 6.58746 2.79385 6.9409C2.64749 7.29434 2.57219 7.67315 2.57227 8.0557V26.6963C2.57227 28.3059 3.87607 29.6092 5.48514 29.6092H21.95C27.8945 25.1477 32.17 18.4656 33.4294 10.585V8.0557C33.429 7.28329 33.1219 6.54264 32.5758 5.99647C32.0296 5.4503 31.2889 5.14326 30.5165 5.14282V5.14282Z" fill="#35B0F9"/>
<path d="M26.7456 5.14282H5.48514C5.10259 5.14275 4.72378 5.21804 4.37034 5.3644C4.01691 5.51076 3.69576 5.72532 3.42526 5.99582C3.15476 6.26632 2.94021 6.58746 2.79385 6.9409C2.64749 7.29434 2.57219 7.67315 2.57227 8.0557V26.6963C2.57227 26.8917 2.59169 27.0798 2.62888 27.2647C14.1882 25.4319 23.8505 16.8282 26.7456 5.14282Z" fill="#7ACAF9"/>
<path d="M16.2541 5.14282H5.48514C5.10259 5.14275 4.72378 5.21804 4.37034 5.3644C4.01691 5.51076 3.69576 5.72532 3.42526 5.99582C3.15476 6.26632 2.94021 6.58746 2.79385 6.9409C2.64749 7.29434 2.57219 7.67315 2.57227 8.0557V16.7127C8.23194 14.384 13.0176 10.337 16.2541 5.14282V5.14282Z" fill="#B1DFFA"/>
<path d="M13.0304 17.1206H7.92955C7.57773 17.1206 7.24032 16.9808 6.99154 16.732C6.74276 16.4833 6.603 16.1458 6.603 15.794C6.603 15.4422 6.74276 15.1048 6.99154 14.856C7.24032 14.6072 7.57773 14.4675 7.92955 14.4675H13.0282C13.2024 14.4673 13.3749 14.5015 13.5359 14.568C13.6969 14.6346 13.8433 14.7321 13.9665 14.8552C14.0898 14.9783 14.1877 15.1245 14.2545 15.2853C14.3213 15.4462 14.3557 15.6187 14.3559 15.7929C14.356 15.9671 14.3218 16.1396 14.2553 16.3006C14.1888 16.4616 14.0912 16.608 13.9681 16.7313C13.845 16.8545 13.6989 16.9524 13.538 17.0192C13.3771 17.086 13.2046 17.1204 13.0304 17.1206V17.1206ZM2.57227 10.097H33.4294V12.7485H2.57227V10.097Z" fill="#F7F8F8"/>
</svg>
