<svg width="54" height="25" viewBox="0 0 54 25" fill="none" xmlns="http://www.w3.org/2000/svg">
<path d="M20.5078 4.58203H45.9164C50.1493 4.58203 53.5807 8.01344 53.5807 12.2463V12.2463C53.5807 16.4792 50.1493 19.9106 45.9164 19.9106H20.5078V4.58203Z" fill="url(#paint0_linear_2185_78552)"/>
<g filter="url(#filter0_f_2185_78552)">
<path d="M19.5781 5.15137H45.2716C49.3471 5.15137 52.651 8.45522 52.651 12.5307V12.5307C52.651 16.6063 49.3471 19.9101 45.2716 19.9101H19.5781V5.15137Z" fill="url(#paint1_linear_2185_78552)"/>
</g>
<path d="M5.60982 13.0685C4.36262 12.4347 3.86534 10.9098 4.49912 9.66264V9.66264L12.5654 13.7616L11.4178 16.0199L5.60982 13.0685Z" fill="url(#paint2_linear_2185_78552)" stroke="white" stroke-width="0.2"/>
<path d="M4.90535 10.7012C3.42589 9.95527 2.83125 8.15125 3.57716 6.6718L3.76285 6.30352L11.8421 10.3769L10.3058 13.424L4.90535 10.7012Z" fill="url(#paint3_linear_2185_78552)" stroke="white" stroke-width="0.2"/>
<path d="M4.6419 7.21705C3.15261 6.49096 2.53392 4.69504 3.26001 3.20576L3.42045 2.87669L11.5533 6.84183L10.0782 9.86749L4.6419 7.21705Z" fill="url(#paint4_linear_2185_78552)" stroke="white" stroke-width="0.2"/>
<path d="M29.773 13.0431C31.0202 12.4093 31.5175 10.8845 30.8837 9.63725V9.63725L22.8174 13.7362L23.965 15.9945L29.773 13.0431Z" fill="url(#paint5_linear_2185_78552)" stroke="white" stroke-width="0.2"/>
<path d="M30.4775 10.6768C31.9569 9.93086 32.5516 8.12684 31.8056 6.64739L31.62 6.27911L23.5408 10.3525L25.077 13.3996L30.4775 10.6768Z" fill="url(#paint6_linear_2185_78552)" stroke="white" stroke-width="0.2"/>
<path d="M30.7409 7.19263C32.2302 6.46654 32.8489 4.67063 32.1228 3.18135L31.9624 2.85227L23.8295 6.81742L25.3046 9.84307L30.7409 7.19263Z" fill="url(#paint7_linear_2185_78552)" stroke="white" stroke-width="0.2"/>
<path d="M29.7244 5.29004H25.3269L24.3359 19.8639H29.7244V5.29004Z" fill="url(#paint8_linear_2185_78552)"/>
<path d="M18.5969 0.904066L27.0526 5.75636C27.6429 6.09511 28.0069 6.72371 28.0069 7.4043V17.0879C28.0069 17.7685 27.6429 18.3971 27.0526 18.7358L18.5969 23.5881C18.0113 23.9242 17.2913 23.9242 16.7056 23.5881L8.24995 18.7358C7.65965 18.3971 7.29562 17.7685 7.29562 17.0879V7.4043C7.29562 6.72371 7.65965 6.09511 8.24995 5.75636L16.7056 0.904066C17.2913 0.567984 18.0113 0.567984 18.5969 0.904066Z" fill="url(#paint9_linear_2185_78552)" stroke="white" stroke-width="0.2"/>
<path d="M26.3285 6.63449L18.2025 1.97135C17.8634 1.77677 17.4466 1.77677 17.1075 1.97135L8.98149 6.63449C8.63974 6.8306 8.42899 7.19453 8.42899 7.58856V16.9043C8.42899 17.2984 8.63974 17.6623 8.98149 17.8584L17.1075 22.5216C17.4466 22.7161 17.8634 22.7161 18.2025 22.5216L26.3285 17.8584C26.6703 17.6623 26.8811 17.2984 26.8811 16.9043V7.58856C26.8811 7.19453 26.6703 6.8306 26.3285 6.63449Z" fill="url(#paint10_linear_2185_78552)" stroke="url(#paint11_linear_2185_78552)" stroke-width="0.2"/>
<g filter="url(#filter1_ii_2185_78552)">
<path d="M17.3968 2.74633C17.551 2.65788 17.7404 2.65788 17.8946 2.74633L25.7953 7.28021C25.9507 7.36935 26.0465 7.53477 26.0465 7.71388V16.7764C26.0465 16.9555 25.9507 17.1209 25.7953 17.2101L17.8946 21.7439C17.7404 21.8324 17.551 21.8324 17.3968 21.7439L9.49606 17.2101C9.34071 17.1209 9.24492 16.9555 9.24492 16.7764V7.71388C9.24492 7.53477 9.34071 7.36935 9.49606 7.28021L17.3968 2.74633Z" fill="url(#paint12_linear_2185_78552)"/>
</g>
<g filter="url(#filter2_f_2185_78552)">
<ellipse rx="2.92968" ry="0.0770404" transform="matrix(0.867336 -0.497723 0.502281 0.864705 23.3063 19.1084)" fill="white"/>
</g>
<g filter="url(#filter3_f_2185_78552)">
<ellipse rx="1.73388" ry="0.0681841" transform="matrix(0.867336 -0.497723 0.502281 0.864705 23.4444 19.0641)" fill="white"/>
</g>
<g filter="url(#filter4_f_2185_78552)">
<ellipse rx="4.38279" ry="0.293392" transform="matrix(0.867336 -0.497723 0.502281 0.864705 14.4175 5.72365)" fill="white"/>
</g>
<g filter="url(#filter5_f_2185_78552)">
<ellipse rx="2.82651" ry="0.141208" transform="matrix(0.867336 -0.497723 0.502281 0.864705 14.4287 5.62642)" fill="white"/>
</g>
<g filter="url(#filter6_f_2185_78552)">
<ellipse rx="1.00875" ry="0.0503954" transform="matrix(0.867336 -0.497723 0.502281 0.864705 14.4315 5.62549)" fill="white"/>
</g>
<path d="M17.3138 6.6635C17.4953 6.28536 18.0337 6.28536 18.2153 6.6635L19.5371 9.41678C19.6102 9.56911 19.7553 9.67419 19.9229 9.69614L22.9607 10.0942C23.3786 10.1489 23.5454 10.6644 23.2389 10.9536L21.0206 13.0466C20.897 13.1633 20.8411 13.3347 20.8722 13.5019L21.4297 16.4942C21.5066 16.9073 21.0706 17.2253 20.7007 17.0258L18.0019 15.5699C17.8537 15.49 17.6753 15.49 17.5271 15.5699L14.8283 17.0258C14.4585 17.2253 14.0224 16.9073 14.0994 16.4942L14.6569 13.5019C14.688 13.3347 14.6321 13.1633 14.5084 13.0466L12.2902 10.9536C11.9836 10.6644 12.1505 10.1489 12.5683 10.0942L15.6062 9.69614C15.7737 9.67419 15.9188 9.56911 15.992 9.41678L17.3138 6.6635Z" fill="white"/>
<mask id="mask0_2185_78552" style="mask-type:alpha" maskUnits="userSpaceOnUse" x="12" y="7" width="11" height="10">
<path d="M17.5035 7.17271C17.6124 6.94583 17.9355 6.94583 18.0444 7.17271L19.3373 9.86586C19.3812 9.95726 19.4683 10.0203 19.5688 10.0335L22.5422 10.4231C22.7929 10.4559 22.8931 10.7652 22.7091 10.9387L20.5364 12.9888C20.4622 13.0588 20.4286 13.1617 20.4473 13.2619L20.9931 16.1917C21.0393 16.4396 20.7777 16.6304 20.5558 16.5107L17.9164 15.0868C17.8275 15.0389 17.7204 15.0389 17.6315 15.0868L14.9921 16.5107C14.7702 16.6304 14.5085 16.4396 14.5547 16.1917L15.1005 13.2619C15.1192 13.1617 15.0857 13.0588 15.0115 12.9888L12.8387 10.9387C12.6548 10.7652 12.7549 10.4559 13.0056 10.4231L15.9791 10.0335C16.0796 10.0203 16.1667 9.95726 16.2105 9.86586L17.5035 7.17271Z" fill="url(#paint13_linear_2185_78552)"/>
</mask>
<g mask="url(#mask0_2185_78552)">
<path d="M17.7739 6.60938L19.4077 10.0124L23.1687 10.5051L20.4174 13.1011L21.1081 16.8086L17.7739 15.01L14.4398 16.8086L15.1305 13.1011L12.3792 10.5051L16.1402 10.0124L17.7739 6.60938Z" fill="#E4E4FF"/>
</g>
<g filter="url(#filter7_d_2185_78552)">
<path d="M37.0694 16.5312H35.1854L33.8294 8.81525H35.4374L35.5094 9.81125L36.2894 15.0432H36.3854L38.6414 9.89525L38.9894 8.81525H40.5374L37.0694 16.5312Z" fill="white"/>
</g>
<g filter="url(#filter8_d_2185_78552)">
<path d="M45.2334 9.39006L44.9334 10.5901L44.8134 10.6981L43.7454 10.5901H42.3294L42.1494 11.9581L42.8814 12.1141C44.0654 12.3621 44.6574 12.9581 44.6574 13.9021C44.6574 14.4061 44.5134 14.8621 44.2254 15.2701C43.9374 15.6781 43.5414 15.9981 43.0374 16.2301C42.5334 16.4621 41.9734 16.5781 41.3574 16.5781C40.9334 16.5781 40.4894 16.5301 40.0254 16.4341L40.0734 15.2101L40.1934 15.1021C40.6654 15.2861 41.1294 15.3781 41.5854 15.3781C42.0574 15.3781 42.4374 15.2661 42.7254 15.0421C43.0134 14.8101 43.1574 14.5141 43.1574 14.1541C43.1574 13.9061 43.0734 13.7101 42.9054 13.5661C42.7454 13.4141 42.4934 13.3061 42.1494 13.2421L40.9374 13.0261L40.8414 12.9061L41.2614 9.49806L41.4774 9.31806L42.1614 9.35406H43.9134L45.1494 9.28206L45.2334 9.39006Z" fill="white"/>
</g>
<defs>
<filter id="filter0_f_2185_78552" x="19.0781" y="4.65137" width="34.0703" height="15.7588" filterUnits="userSpaceOnUse" color-interpolation-filters="sRGB">
<feFlood flood-opacity="0" result="BackgroundImageFix"/>
<feBlend mode="normal" in="SourceGraphic" in2="BackgroundImageFix" result="shape"/>
<feGaussianBlur stdDeviation="0.25" result="effect1_foregroundBlur_2185_78552"/>
</filter>
<filter id="filter1_ii_2185_78552" x="9.24219" y="2.67969" width="17.0047" height="19.4309" filterUnits="userSpaceOnUse" color-interpolation-filters="sRGB">
<feFlood flood-opacity="0" result="BackgroundImageFix"/>
<feBlend mode="normal" in="SourceGraphic" in2="BackgroundImageFix" result="shape"/>
<feColorMatrix in="SourceAlpha" type="matrix" values="0 0 0 0 0 0 0 0 0 0 0 0 0 0 0 0 0 0 127 0" result="hardAlpha"/>
<feOffset dy="0.3"/>
<feGaussianBlur stdDeviation="0.25"/>
<feComposite in2="hardAlpha" operator="arithmetic" k2="-1" k3="1"/>
<feColorMatrix type="matrix" values="0 0 0 0 0.314132 0 0 0 0 0.382775 0 0 0 0 0.691667 0 0 0 1 0"/>
<feBlend mode="normal" in2="shape" result="effect1_innerShadow_2185_78552"/>
<feColorMatrix in="SourceAlpha" type="matrix" values="0 0 0 0 0 0 0 0 0 0 0 0 0 0 0 0 0 0 127 0" result="hardAlpha"/>
<feOffset dx="0.2" dy="0.1"/>
<feGaussianBlur stdDeviation="0.5"/>
<feComposite in2="hardAlpha" operator="arithmetic" k2="-1" k3="1"/>
<feColorMatrix type="matrix" values="0 0 0 0 0.451458 0 0 0 0 0.519389 0 0 0 0 0.820833 0 0 0 1 0"/>
<feBlend mode="normal" in2="effect1_innerShadow_2185_78552" result="effect2_innerShadow_2185_78552"/>
</filter>
<filter id="filter2_f_2185_78552" x="20.4656" y="17.3484" width="5.67813" height="3.51992" filterUnits="userSpaceOnUse" color-interpolation-filters="sRGB">
<feFlood flood-opacity="0" result="BackgroundImageFix"/>
<feBlend mode="normal" in="SourceGraphic" in2="BackgroundImageFix" result="shape"/>
<feGaussianBlur stdDeviation="0.15" result="effect1_foregroundBlur_2185_78552"/>
</filter>
<filter id="filter3_f_2185_78552" x="21.6375" y="17.8992" width="3.60781" height="2.32949" filterUnits="userSpaceOnUse" color-interpolation-filters="sRGB">
<feFlood flood-opacity="0" result="BackgroundImageFix"/>
<feBlend mode="normal" in="SourceGraphic" in2="BackgroundImageFix" result="shape"/>
<feGaussianBlur stdDeviation="0.15" result="effect1_foregroundBlur_2185_78552"/>
</filter>
<filter id="filter4_f_2185_78552" x="10.1094" y="3.02734" width="8.60938" height="5.39258" filterUnits="userSpaceOnUse" color-interpolation-filters="sRGB">
<feFlood flood-opacity="0" result="BackgroundImageFix"/>
<feBlend mode="normal" in="SourceGraphic" in2="BackgroundImageFix" result="shape"/>
<feGaussianBlur stdDeviation="0.25" result="effect1_foregroundBlur_2185_78552"/>
</filter>
<filter id="filter5_f_2185_78552" x="10.9766" y="3.21387" width="6.90625" height="4.8252" filterUnits="userSpaceOnUse" color-interpolation-filters="sRGB">
<feFlood flood-opacity="0" result="BackgroundImageFix"/>
<feBlend mode="normal" in="SourceGraphic" in2="BackgroundImageFix" result="shape"/>
<feGaussianBlur stdDeviation="0.5" result="effect1_foregroundBlur_2185_78552"/>
</filter>
<filter id="filter6_f_2185_78552" x="13.0547" y="4.62109" width="2.75" height="2.00879" filterUnits="userSpaceOnUse" color-interpolation-filters="sRGB">
<feFlood flood-opacity="0" result="BackgroundImageFix"/>
<feBlend mode="normal" in="SourceGraphic" in2="BackgroundImageFix" result="shape"/>
<feGaussianBlur stdDeviation="0.25" result="effect1_foregroundBlur_2185_78552"/>
</filter>
<filter id="filter7_d_2185_78552" x="33.8281" y="8.81543" width="7.71094" height="8.71582" filterUnits="userSpaceOnUse" color-interpolation-filters="sRGB">
<feFlood flood-opacity="0" result="BackgroundImageFix"/>
<feColorMatrix in="SourceAlpha" type="matrix" values="0 0 0 0 0 0 0 0 0 0 0 0 0 0 0 0 0 0 127 0" result="hardAlpha"/>
<feOffset dx="0.5" dy="0.5"/>
<feGaussianBlur stdDeviation="0.25"/>
<feComposite in2="hardAlpha" operator="out"/>
<feColorMatrix type="matrix" values="0 0 0 0 0.665625 0 0 0 0 0.665625 0 0 0 0 0.8875 0 0 0 1 0"/>
<feBlend mode="normal" in2="BackgroundImageFix" result="effect1_dropShadow_2185_78552"/>
<feBlend mode="normal" in="SourceGraphic" in2="effect1_dropShadow_2185_78552" result="shape"/>
</filter>
<filter id="filter8_d_2185_78552" x="40.0234" y="9.28223" width="6.21094" height="8.2959" filterUnits="userSpaceOnUse" color-interpolation-filters="sRGB">
<feFlood flood-opacity="0" result="BackgroundImageFix"/>
<feColorMatrix in="SourceAlpha" type="matrix" values="0 0 0 0 0 0 0 0 0 0 0 0 0 0 0 0 0 0 127 0" result="hardAlpha"/>
<feOffset dx="0.5" dy="0.5"/>
<feGaussianBlur stdDeviation="0.25"/>
<feComposite in2="hardAlpha" operator="out"/>
<feColorMatrix type="matrix" values="0 0 0 0 0.665625 0 0 0 0 0.665625 0 0 0 0 0.8875 0 0 0 1 0"/>
<feBlend mode="normal" in2="BackgroundImageFix" result="effect1_dropShadow_2185_78552"/>
<feBlend mode="normal" in="SourceGraphic" in2="effect1_dropShadow_2185_78552" result="shape"/>
</filter>
<linearGradient id="paint0_linear_2185_78552" x1="40.1867" y1="19.9106" x2="40.1867" y2="5.07849" gradientUnits="userSpaceOnUse">
<stop offset="0.286458" stop-color="#919DE8"/>
<stop offset="1" stop-color="#EFEFFF"/>
</linearGradient>
<linearGradient id="paint1_linear_2185_78552" x1="24.3282" y1="12.5307" x2="48.2307" y2="19.7441" gradientUnits="userSpaceOnUse">
<stop stop-color="#7E90E4"/>
<stop offset="0.900284" stop-color="#D0D0F8"/>
</linearGradient>
<linearGradient id="paint2_linear_2185_78552" x1="4.80299" y1="10.0618" x2="9.66596" y2="16.508" gradientUnits="userSpaceOnUse">
<stop stop-color="#EBEBFF"/>
<stop offset="1" stop-color="#94A4EC"/>
</linearGradient>
<linearGradient id="paint3_linear_2185_78552" x1="4.03388" y1="6.76939" x2="9.82951" y2="12.9163" gradientUnits="userSpaceOnUse">
<stop stop-color="#EBEBFF"/>
<stop offset="1" stop-color="#94A4EC"/>
</linearGradient>
<linearGradient id="paint4_linear_2185_78552" x1="3.69943" y1="3.33531" x2="9.54046" y2="9.42031" gradientUnits="userSpaceOnUse">
<stop stop-color="#EBEBFF"/>
<stop offset="1" stop-color="#94A4EC"/>
</linearGradient>
<linearGradient id="paint5_linear_2185_78552" x1="30.5798" y1="10.0364" x2="25.7168" y2="16.4827" gradientUnits="userSpaceOnUse">
<stop stop-color="#EBEBFF"/>
<stop offset="1" stop-color="#94A4EC"/>
</linearGradient>
<linearGradient id="paint6_linear_2185_78552" x1="31.3489" y1="6.74498" x2="25.5533" y2="12.8919" gradientUnits="userSpaceOnUse">
<stop stop-color="#EBEBFF"/>
<stop offset="1" stop-color="#94A4EC"/>
</linearGradient>
<linearGradient id="paint7_linear_2185_78552" x1="31.6834" y1="3.31089" x2="25.8424" y2="9.39589" gradientUnits="userSpaceOnUse">
<stop stop-color="#EBEBFF"/>
<stop offset="1" stop-color="#94A4EC"/>
</linearGradient>
<linearGradient id="paint8_linear_2185_78552" x1="22.1115" y1="14.1892" x2="29.7241" y2="14.1654" gradientUnits="userSpaceOnUse">
<stop offset="0.116787" stop-color="#9FBAEB"/>
<stop offset="1" stop-color="#9FBAEB" stop-opacity="0"/>
</linearGradient>
<linearGradient id="paint9_linear_2185_78552" x1="17.6512" y1="0.246094" x2="17.5655" y2="24.2458" gradientUnits="userSpaceOnUse">
<stop offset="0.0280412" stop-color="#C1C7E9"/>
<stop offset="0.24074" stop-color="#E4E9FF"/>
<stop offset="0.504302" stop-color="#A1B2EF"/>
<stop offset="0.767863" stop-color="#9AAEE6"/>
<stop offset="1" stop-color="#657BB7"/>
</linearGradient>
<linearGradient id="paint10_linear_2185_78552" x1="17.655" y1="1.77246" x2="17.655" y2="22.7204" gradientUnits="userSpaceOnUse">
<stop offset="0.114257" stop-color="#8C94D0"/>
<stop offset="1" stop-color="#B4C2F3"/>
</linearGradient>
<linearGradient id="paint11_linear_2185_78552" x1="17.655" y1="1.77246" x2="14.2757" y2="22.3802" gradientUnits="userSpaceOnUse">
<stop stop-color="white"/>
<stop offset="1" stop-color="#EEEEEE"/>
</linearGradient>
<linearGradient id="paint12_linear_2185_78552" x1="15.8312" y1="2.60352" x2="21.4212" y2="21.4892" gradientUnits="userSpaceOnUse">
<stop offset="0.238864" stop-color="#D0CFF7"/>
<stop offset="0.907424" stop-color="#92A3EB"/>
</linearGradient>
<linearGradient id="paint13_linear_2185_78552" x1="16.7129" y1="6.60938" x2="19.9817" y2="17.6529" gradientUnits="userSpaceOnUse">
<stop offset="0.15619" stop-color="#FFD55F"/>
<stop offset="0.907424" stop-color="#FFC21A"/>
</linearGradient>
</defs>
</svg>
