<svg width="69" height="31" viewBox="0 0 69 31" fill="none" xmlns="http://www.w3.org/2000/svg">
<path d="M1 0H69V23C69 27.4183 65.4183 31 61 31H1V0Z" fill="white"/>
<path d="M0 0H68V22C68 26.4183 64.4183 30 60 30H0V0Z" fill="url(#paint0_linear_1154_74701)"/>
<path d="M18.772 14.496V16.188H17.764C18.064 15.468 18.34 14.652 18.604 13.74H21.052V12.636H18.892C18.988 12.216 19.084 11.772 19.18 11.316L18.1 11.16C18.004 11.676 17.896 12.168 17.788 12.636H16.444V13.74H17.5C17.224 14.736 16.924 15.552 16.612 16.2L16.852 17.208H18.772V18.78C18.04 18.9 17.26 19.008 16.444 19.104L16.588 20.22C17.344 20.124 18.076 20.004 18.772 19.884V22.224H19.864V19.668C20.392 19.548 20.908 19.428 21.4 19.308V18.228C20.92 18.348 20.404 18.468 19.864 18.576V17.208H21.112V16.188H19.864V14.496H18.772ZM21.532 12.636V13.74H23.128C23.044 14.1 22.96 14.472 22.876 14.856H21.184V15.948H22.6C22.384 16.74 22.168 17.508 21.928 18.24H25.912C25.54 18.816 25.036 19.38 24.412 19.932C23.884 19.632 23.332 19.356 22.756 19.116L22.144 20.016C23.44 20.568 24.7 21.324 25.936 22.284L26.572 21.3C26.176 21.012 25.768 20.724 25.336 20.46C26.128 19.692 26.704 18.936 27.088 18.168V17.232H23.344C23.464 16.836 23.596 16.404 23.728 15.948H27.568V14.856H24.004C24.088 14.496 24.172 14.124 24.256 13.74H27.268V12.636H24.484C24.556 12.192 24.64 11.736 24.724 11.256L23.608 11.148C23.524 11.652 23.44 12.144 23.344 12.636H21.532ZM35.164 11.172L34.036 11.364C34.228 11.772 34.396 12.204 34.564 12.684H33.268V17.088H39.184V12.684H37.864C38.056 12.252 38.2 11.784 38.308 11.28L37.216 11.124C37.12 11.664 36.988 12.18 36.796 12.684H35.608C35.464 12.108 35.32 11.604 35.164 11.172ZM38.212 16.14H36.652V13.632H38.212V16.14ZM35.728 16.14H34.228V13.632H35.728V16.14ZM35.092 14.04L34.42 14.256C34.612 14.76 34.768 15.276 34.888 15.828L35.536 15.648C35.404 15.048 35.26 14.508 35.092 14.04ZM37.324 13.98C37.18 14.628 37.024 15.18 36.832 15.612L37.528 15.864C37.732 15.372 37.9 14.808 38.032 14.172L37.324 13.98ZM38.764 17.64H33.724V22.248H34.792V21.816H37.708V22.248H38.764V17.64ZM34.792 20.892V20.16H37.708V20.892H34.792ZM34.792 19.32V18.564H37.708V19.32H34.792ZM32.8 11.664H28.804V19.212H29.8V12.648H31.816V19.14H32.8V11.664ZM31.66 19.632L30.976 20.304C31.588 20.928 32.068 21.516 32.404 22.068L33.196 21.288C32.776 20.736 32.26 20.184 31.66 19.632ZM30.376 13.284V17.136C30.352 18.228 30.196 19.116 29.932 19.8C29.656 20.448 29.128 20.976 28.36 21.384L28.948 22.296C29.752 21.876 30.328 21.276 30.688 20.496C31.036 19.656 31.228 18.54 31.264 17.136V13.284H30.376ZM45.412 11.112V13.188H41.152V18.984H42.292V18.3H45.412V22.32H46.588V18.3H49.72V18.984H50.86V13.188H46.588V11.112H45.412ZM42.292 17.184V14.304H45.412V17.184H42.292ZM46.588 17.184V14.304H49.72V17.184H46.588Z" fill="white"/>
<defs>
<linearGradient id="paint0_linear_1154_74701" x1="65.5" y1="26.5" x2="2.5" y2="-2.7185e-06" gradientUnits="userSpaceOnUse">
<stop stop-color="#0059FF"/>
<stop offset="1" stop-color="#5591FF"/>
</linearGradient>
</defs>
</svg>
