<?xml version="1.0" encoding="UTF-8"?>
<svg width="15px" height="14px" viewBox="0 0 15 14" version="1.1" xmlns="http://www.w3.org/2000/svg" xmlns:xlink="http://www.w3.org/1999/xlink">
    <!-- Generator: Sketch 58 (84663) - https://sketch.com -->
    <title>daojishi</title>
    <desc>Created with Sketch.</desc>
    <g id="页面-1" stroke="none" stroke-width="1" fill="none" fill-rule="evenodd">
        <g id="我的订单" transform="translate(-1374.000000, -271.000000)" fill="#FF6600" fill-rule="nonzero">
            <g id="编组-55" transform="translate(616.000000, 257.000000)">
                <g id="daojishi" transform="translate(758.500000, 14.000000)">
                    <path d="M6.95839724,13.9235046 C5.14498658,13.9235046 3.43390529,13.232362 2.1271089,11.9691814 C0.788439417,10.6774827 0.0335506135,8.94291603 0.00167753067,7.08421204 C-0.0301955521,5.22550805 0.662624617,3.46410084 1.95432324,2.1271089 C3.24602186,0.788439417 4.98058857,0.0335506135 6.83929256,0.00167753067 C10.66574,-0.0603911043 13.8547258,3.00277991 13.9218271,6.83929256 C13.9889283,10.6774827 10.9207247,13.8547258 7.08253451,13.9218271 C7.04227377,13.9235046 7.00033551,13.9235046 6.95839724,13.9235046 Z M6.96342983,0.961225077 C6.92820169,0.961225077 6.89297354,0.961225077 6.8577454,0.962902607 C5.25402607,0.989743098 3.75766871,1.63894747 2.64378834,2.79308857 C1.52990798,3.94555215 0.932707055,5.46371741 0.961225077,7.0657592 C0.989743098,8.667801 1.63894747,10.1641584 2.79308857,11.2780387 C3.94555215,12.3919191 5.46875,12.9907975 7.0657592,12.960602 C8.667801,12.932084 10.1641584,12.2828796 11.2780387,11.1287385 C12.3919191,9.97627492 12.98912,8.45810966 12.960602,6.85439034 C12.9052435,3.58320552 10.2245495,0.961225077 6.96342983,0.961225077 Z" id="形状"></path>
                    <path d="M7.04227377,7.52037002 C6.78057899,7.52037002 6.56753259,7.31067868 6.5625,7.0489839 L6.48701112,2.72934241 C6.48197853,2.46429256 6.69334739,2.24621357 6.95839724,2.24118098 L6.96678489,2.24118098 C7.22847968,2.24118098 7.44152607,2.45087232 7.44655867,2.7125671 L7.52204755,7.03220859 C7.52708014,7.29725844 7.31571127,7.51533742 7.05066143,7.52037002 L7.04227377,7.52037002 Z" id="路径"></path>
                    <path d="M7.04227377,7.52037002 C6.78057899,7.52037002 6.56753259,7.31067868 6.5625,7.0489839 C6.55746741,6.78393405 6.76883627,6.56585506 7.03388612,6.56082247 L10.3939801,6.5021089 L10.4023677,6.5021089 C10.6640625,6.5021089 10.8771089,6.71180023 10.8821415,6.97349502 C10.8871741,7.23854486 10.6758052,7.45662385 10.4107554,7.46165644 L7.05066143,7.52037002 L7.04227377,7.52037002 Z" id="路径"></path>
                </g>
            </g>
        </g>
    </g>
</svg>