<?xml version="1.0" encoding="UTF-8"?>
<svg width="16px" height="16px" viewBox="0 0 16 16" version="1.1" xmlns="http://www.w3.org/2000/svg" xmlns:xlink="http://www.w3.org/1999/xlink">
    <!-- Generator: Sketch 59 (86127) - https://sketch.com -->
    <title>编组 10</title>
    <desc>Created with Sketch.</desc>
    <g id="页面-1" stroke="none" stroke-width="1" fill="none" fill-rule="evenodd">
        <g id="自定义预设-3备份-8" transform="translate(-1407.000000, -936.000000)">
            <g id="编组-6备份-2" transform="translate(616.000000, 902.000000)">
                <g id="编组-10" transform="translate(791.000000, 34.000000)">
                    <g id="编组-9" transform="translate(2.000000, 1.000000)">
                        <path d="M6.77655719,12.7060565 L8.67046883,12.7060565 C9.01675791,12.7060565 9.29748068,12.9867793 9.29748068,13.3330684 C9.29748068,13.3397229 9.29737474,13.3463771 9.2971629,13.3530283 C9.28567809,13.7136248 8.99003679,14 8.6292574,14 L3.14729979,14 C2.8010107,14 2.52028794,13.7192772 2.52028794,13.3729882 C2.52028794,13.3663336 2.52039388,13.3596795 2.52060571,13.3530283 C2.53209053,12.9924317 2.82773183,12.7060565 3.18851121,12.7060565 L5.08242286,12.7060565 L5.08242286,12.7060565 L5.08242286,11.7742797 C2.20237662,11.3507451 9.32587341e-14,8.89423344 9.32587341e-14,5.9294934 C9.32587341e-14,2.96475335 2.20237662,0.508235734 5.08242286,0.0847071138 C5.49023492,0.0282357046 5.79609397,0 6,0 C6.17256959,0 6.43142397,0.0282357046 6.77656314,0.0847071138 C9.65660938,0.50824169 11.858986,2.96475335 11.858986,5.9294934 C11.858986,8.89423344 9.65660938,11.3507511 6.77656314,11.7742797 L6.77655719,12.7060565 Z M5.93250748,10.5738882 C8.53169202,10.5738882 10.5738882,8.53167679 10.5738882,5.93250748 C10.5738882,3.33332294 8.53167679,1.29112672 5.93250748,1.29112672 C3.33332294,1.29112672 1.29112672,3.33333817 1.29112672,5.93250748 C1.29112672,8.53169202 3.33333817,10.5738882 5.93250748,10.5738882 Z M5.92948605,7.62363369 C4.99770919,7.62363369 4.23534576,6.86127026 4.23534576,5.9294934 C4.23534576,4.99771654 4.99770919,4.23535311 5.92948605,4.23535311 C6.86126291,4.23535311 7.62362634,4.99771654 7.62362634,5.9294934 C7.62362634,6.86127026 6.86126291,7.62363369 5.92948605,7.62363369 Z" id="形状" fill="#00A4FF" fill-rule="nonzero"></path>
                        <line x1="10.366762" y1="1" x2="2" y2="11.2260424" id="路径-3" stroke="#00A4FF" stroke-width="1.5" stroke-linecap="round"></line>
                    </g>
                </g>
            </g>
        </g>
    </g>
</svg>