<?xml version="1.0" encoding="UTF-8"?>
<svg width="16px" height="16px" viewBox="0 0 16 16" version="1.1" xmlns="http://www.w3.org/2000/svg" xmlns:xlink="http://www.w3.org/1999/xlink">
    <!-- Generator: Sketch 59 (86127) - https://sketch.com -->
    <title>形状 2</title>
    <desc>Created with Sketch.</desc>
    <g id="页面-1" stroke="none" stroke-width="1" fill="none" fill-rule="evenodd">
        <g id="自定义预设-3备份-8" transform="translate(-1407.000000, -847.000000)" fill="#00A4FF" fill-rule="nonzero">
            <g id="编组-6备份-9" transform="translate(616.000000, 813.000000)">
                <g id="形状-2" transform="translate(791.000000, 34.000000)">
                    <path d="M8.77655719,13.7060565 L10.6704688,13.7060565 C11.0167579,13.7060565 11.2974807,13.9867793 11.2974807,14.3330684 C11.2974807,14.3397229 11.2973747,14.3463771 11.2971629,14.3530283 C11.2856781,14.7136248 10.9900368,15 10.6292574,15 L5.14729979,15 C4.8010107,15 4.52028794,14.7192772 4.52028794,14.3729882 C4.52028794,14.3663336 4.52039388,14.3596795 4.52060571,14.3530283 C4.53209053,13.9924317 4.82773183,13.7060565 5.18851121,13.7060565 L7.08242286,13.7060565 L7.08242286,13.7060565 L7.08242286,12.7742797 C4.20237662,12.3507451 2,9.89423344 2,6.9294934 C2,3.96475335 4.20237662,1.50823573 7.08242286,1.08470711 C7.49023492,1.0282357 7.79609397,1 8,1 C8.17256959,1 8.43142397,1.0282357 8.77656314,1.08470711 C11.6566094,1.50824169 13.858986,3.96475335 13.858986,6.9294934 C13.858986,9.89423344 11.6566094,12.3507511 8.77656314,12.7742797 L8.77655719,13.7060565 Z M7.93250748,11.5738882 C10.531692,11.5738882 12.5738882,9.53167679 12.5738882,6.93250748 C12.5738882,4.33332294 10.5316768,2.29112672 7.93250748,2.29112672 C5.33332294,2.29112672 3.29112672,4.33333817 3.29112672,6.93250748 C3.29112672,9.53169202 5.33333817,11.5738882 7.93250748,11.5738882 Z M7.92948605,8.62363369 C6.99770919,8.62363369 6.23534576,7.86127026 6.23534576,6.9294934 C6.23534576,5.99771654 6.99770919,5.23535311 7.92948605,5.23535311 C8.86126291,5.23535311 9.62362634,5.99771654 9.62362634,6.9294934 C9.62362634,7.86127026 8.86126291,8.62363369 7.92948605,8.62363369 Z" id="形状"></path>
                </g>
            </g>
        </g>
    </g>
</svg>