<?xml version="1.0" encoding="UTF-8"?>
<svg width="58px" height="36px" viewBox="0 0 58 36" version="1.1" xmlns="http://www.w3.org/2000/svg" xmlns:xlink="http://www.w3.org/1999/xlink">
    <!-- Generator: Sketch 58 (84663) - https://sketch.com -->
    <title>矩形</title>
    <desc>Created with Sketch.</desc>
    <defs>
        <rect id="path-1" x="0" y="0" width="58" height="36"></rect>
    </defs>
    <g id="欧标" stroke="none" stroke-width="1" fill="none" fill-rule="evenodd">
        <g id="商标服务" transform="translate(-742.000000, -84.000000)">
            <g id="编组-30" transform="translate(215.000000, 70.000000)">
                <g id="编组-29备份-5" transform="translate(508.000000, 14.000000)">
                    <g id="编组-15" transform="translate(19.000000, 0.000000)">
                        <mask id="mask-2" fill="white">
                            <use xlink:href="#path-1"></use>
                        </mask>
                        <use id="矩形" stroke-opacity="0.2" stroke="#999999" fill="#D8D8D8" xlink:href="#path-1"></use>
                        <g id="aodaliya" mask="url(#mask-2)" fill-rule="nonzero">
                            <polygon id="路径" fill="#00227D" points="0 0 58 0 58 38 0 38"></polygon>
                            <path d="M14.0521045,27.5276903 L15.7690248,24.8819226 L12.8765555,25.9761451 L11.8818601,22.9664346 L10.8871647,25.9761451 L7.99469535,24.8819226 L9.71161569,27.5276903 L7,29.1690241 L10.1637499,29.4431783 L9.71161569,32.5438744 L11.8806703,30.2632466 L14.0497249,32.5438744 L13.5975906,29.4431783 L16.7613405,29.1690241 L14.0497249,27.5276903 L14.0521045,27.5276903 Z M46.321402,30.6283865 L47.1352437,29.3509954 L45.6884141,29.8981067 L45.2362798,28.4387443 L44.7841456,29.8981067 L43.4277428,29.3509954 L44.2415845,30.6283865 L42.9756085,31.3586663 L44.4224382,31.5406376 L44.2415845,33 L45.2362798,31.9057775 L46.321402,33 L46.0501215,31.5406376 L47.5861881,31.3586663 L46.3202122,30.6283865 L46.321402,30.6283865 Z M37.9152744,17.3109564 L38.8195429,16.0335654 L37.3727133,16.5806766 L36.920579,15.1213142 L36.4684448,16.5806766 L35.0216152,16.0335654 L35.9258837,17.3109564 L34.5694809,18.0412362 L36.1055476,18.1322219 L35.9246939,19.6825699 L36.9193892,18.5883474 L37.9140846,19.6825699 L37.7332309,18.1322219 L39.2704873,18.0412362 L37.9140846,17.3109564 L37.9152744,17.3109564 Z M44.423628,9.01090764 L44.2427743,10.5612557 L45.2374696,9.46703321 L46.3225918,10.5612557 L46.0513113,9.01090764 L47.5873779,8.91992196 L46.321402,8.18964218 L47.1352437,6.91225114 L45.6884141,7.45936239 L45.2362798,6 L44.7841456,7.45936239 L43.4277428,6.91225114 L44.2415845,8.18964218 L42.9756085,8.91992196 L44.4224382,9.01090764 L44.423628,9.01090764 Z M55,15.7606083 L53.7340241,15.0303286 L54.5478657,13.7529375 L53.1010361,14.3000488 L52.6489019,12.8406864 L52.1967676,14.3000488 L50.8403649,13.7529375 L51.6542065,15.0303286 L50.3882306,15.7606083 L51.8350602,15.9425797 L51.6542065,17.4019421 L52.6489019,16.3077196 L53.7340241,17.4019421 L53.4627435,15.9425797 L54.9988102,15.7606083 L55,15.7606083 Z M48.9437807,20.5038354 L48.5820733,19.5915843 L48.2203659,20.5038354 L47.3160974,20.5948211 L48.0395122,21.232918 L47.7682316,22.1451692 L48.5820733,21.5980579 L49.3959149,22.1451692 L49.2150612,21.232918 L49.938476,20.5948211 L48.9437807,20.5038354 L48.9437807,20.5038354 Z" id="形状" fill="#FFFFFF"></path>
                            <polygon id="路径" fill="#00237A" points="0 0 28 0 28 18 0 18"></polygon>
                            <polygon id="路径" fill="#FFFFFF" points="28 6.31951531 16.7031667 6.31951531 16.7031667 0 11.2116667 0 11.2116667 6.31951531 0 6.31951531 0 11.6850765 11.2116667 11.6850765 11.2116667 18 16.7031667 18 16.7031667 11.6850765 28 11.6850765"></polygon>
                            <polygon id="路径" fill="#FFFFFF" points="28 15.946301 3.14066667 0 0 0 0 2.0755102 24.836 18 28 18"></polygon>
                            <polygon id="路径" fill="#FFFFFF" points="0 15.946301 24.8593333 0 28 0 28 2.0755102 3.164 18 0 18"></polygon>
                            <polygon id="路径" fill="#CF142B" points="28 7.44566327 15.5505 7.44566327 15.5505 0 12.3643333 0 12.3643333 7.44566327 0 7.44566327 0 10.5589286 12.3643333 10.5589286 12.3643333 18 15.5505 18 15.5505 10.5589286 28 10.5589286"></polygon>
                            <path d="M28,18 L28,16.5868622 L20.2953333,11.6850765 L18.1265,11.6850765 L28,18 Z M28,0 L25.8311667,0 L16.7031667,5.78915816 L16.7031667,6.31951531 L18.0588333,6.31951531 L28,0 Z M9.78833333,11.6850765 L0,17.9563776 L0,18 L2.079,18 L11.2116667,12.1706633 L11.2116667,11.6850765 L9.78833333,11.6850765 L9.78833333,11.6850765 Z M0,0 L0,1.41313776 L7.66383333,6.31951531 L9.856,6.31951531 L0,0 Z" id="形状" fill="#CF142B"></path>
                        </g>
                        <rect id="矩形" fill-opacity="0.104867788" fill="#000000" mask="url(#mask-2)" x="0" y="0" width="58" height="36"></rect>
                        <g id="编组-29" mask="url(#mask-2)">
                            <g transform="translate(6.000000, 8.000000)">
                                <rect id="矩形" fill="#00A3FF" fill-rule="evenodd" x="0" y="0" width="46" height="20"></rect>
                                <path d="M13.868,10.016 L13.964,9.308 L10.136,9.308 L10.304,8.144 L12.572,8.144 L12.668,7.412 L10.7,7.412 L10.844,6.332 L12.824,6.332 L12.896,5.828 L12.488,5.492 L15.152,5.492 L15.032,6.332 L16.964,6.332 L16.82,7.412 L14.876,7.412 L14.78,8.144 L17.036,8.144 L16.868,9.308 L16.088,9.308 L15.992,10.016 L16.772,10.016 L16.628,11.06 L15.848,11.06 L15.536,13.28 C15.5039998,13.5120012 15.4000009,13.7019993 15.224,13.85 C15.0479991,13.9980007 14.8440012,14.072 14.612,14.072 L12.392,14.072 L13.46,12.956 L13.724,11.06 L9.956,11.06 L10.1,10.016 L13.868,10.016 Z M10.016,7.292 L9.068,14.072 L6.896,14.072 L7.592,9.104 L6.884,9.236 L7.076,7.868 L10.016,7.292 Z M10.076,6.836 L7.148,7.412 L7.34,6.044 L10.268,5.468 L10.076,6.836 Z M12.836,13.064 L10.82,13.064 L10.244,11.48 L12.272,11.48 L12.836,13.064 Z M21.308,12.764 L22.268,5.912 L21.872,5.468 L24.608,5.468 L24.164,8.66 L28.04,8.66 L27.884,9.8 L23.996,9.8 L23.588,12.764 L27.692,12.764 L27.536,13.904 L17.96,13.904 L18.116,12.764 L21.308,12.764 Z M38.624,11.624 L36.98,12.068 L37.052,12.764 L38.012,12.764 L38.528,12.308 L38.312,13.904 L35.12,13.904 L34.988,12.608 L32.708,13.22 L32.864,12.08 L34.88,11.54 L34.712,9.908 L33.164,9.908 L33.332,8.768 L34.592,8.768 L34.532,8.204 L33.404,8.204 L33.572,7.064 L34.412,7.064 L34.244,5.468 L36.296,5.468 L36.464,7.064 L39.272,7.064 L39.104,8.204 L36.584,8.204 L36.644,8.768 L39.032,8.768 L38.864,9.908 L36.752,9.908 L36.872,11 L38.792,10.484 L38.624,11.624 Z M29.528,8.204 L31.088,5.768 L30.824,5.468 L33.332,5.468 L31.58,8.204 L32.948,8.204 L31.196,10.94 L32.564,10.94 L32.408,12.08 L28.988,12.08 L29.144,10.94 L30.176,9.344 L29.372,9.344 L29.528,8.204 Z M32.18,13.676 L28.736,13.904 L28.892,12.764 L32.348,12.536 L32.18,13.676 Z M39.032,5.468 L39.332,6.608 L37.28,6.608 L36.98,5.468 L39.032,5.468 Z" id="待上线" fill="#FFFFFF" fill-rule="nonzero"></path>
                            </g>
                        </g>
                    </g>
                </g>
            </g>
        </g>
    </g>
</svg>