<?xml version="1.0" encoding="UTF-8"?>
<svg width="13px" height="12px" viewBox="0 0 13 12" version="1.1" xmlns="http://www.w3.org/2000/svg" xmlns:xlink="http://www.w3.org/1999/xlink">
    <!-- Generator: Sketch 58 (84663) - https://sketch.com -->
    <title>元素</title>
    <desc>Created with Sketch.</desc>
    <g id="欧标" stroke="none" stroke-width="1" fill="none" fill-rule="evenodd">
        <g id="4.0欧标优化样式" transform="translate(-559.000000, -1112.000000)">
            <g id="编组-6" transform="translate(566.000000, 1118.000000) rotate(-90.000000) translate(-566.000000, -1118.000000) translate(560.000000, 1112.000000)">
                <rect id="矩形" fill="#666666" opacity="0" x="0.6" y="1.71" width="8.4" height="7.98"></rect>
                <g id="xiala" transform="translate(5.500000, 6.000000) rotate(-270.000000) translate(-5.500000, -6.000000) translate(1.500000, 3.500000)" fill="#00A3FF" fill-rule="nonzero">
                    <path d="M7.82077938,1.08467929 L4.39779343,4.8010544 C4.28222278,4.91662505 4.16664302,4.96996605 3.99771316,4.96996605 C3.82878329,4.96996605 3.71320353,4.91662505 3.59763288,4.80104529 L0.174637828,1.08467018 C0.00571706807,0.91574942 -0.0565216894,0.631248902 0.0590671765,0.400080277 C0.174637828,0.16892076 0.343567695,-4.54747351e-12 0.574727212,-4.54747351e-12 L7.42958775,-4.54747351e-12 C7.66074727,-4.54747351e-12 7.88301814,0.16892076 7.94525689,0.400080277 C8.051948,0.631248902 7.998607,0.91574942 7.82078849,1.08467018 L7.82077938,1.08467929 Z" id="路径" transform="translate(4.000000, 2.484983) rotate(-180.000000) translate(-4.000000, -2.484983) "></path>
                </g>
            </g>
        </g>
    </g>
</svg>