<?xml version="1.0" encoding="UTF-8"?>
<svg width="58px" height="36px" viewBox="0 0 58 36" version="1.1" xmlns="http://www.w3.org/2000/svg" xmlns:xlink="http://www.w3.org/1999/xlink">
    <!-- Generator: Sketch 58 (84663) - https://sketch.com -->
    <title>矩形</title>
    <desc>Created with Sketch.</desc>
    <defs>
        <rect id="path-1" x="0" y="0" width="58" height="36"></rect>
        <rect id="path-3" x="1" y="1" width="56" height="34"></rect>
    </defs>
    <g id="新增-英标" stroke="none" stroke-width="1" fill="none" fill-rule="evenodd">
        <g id="商标服务" transform="translate(-736.000000, -84.000000)">
            <g id="编组-30" transform="translate(215.000000, 70.000000)">
                <g id="编组-29备份-5" transform="translate(508.000000, 14.000000)">
                    <g id="编组-15" transform="translate(13.000000, 0.000000)">
                        <mask id="mask-2" fill="white">
                            <use xlink:href="#path-1"></use>
                        </mask>
                        <rect stroke-opacity="0.2" stroke="#999999" x="0.5" y="0.5" width="57" height="35"></rect>
                        <mask id="mask-4" fill="white">
                            <use xlink:href="#path-3"></use>
                        </mask>
                        <rect stroke-opacity="0.2" stroke="#999999" x="1.5" y="1.5" width="55" height="33"></rect>
                        <g id="jianada" mask="url(#mask-4)" fill-rule="nonzero">
                            <g transform="translate(0.000000, -1.000000)">
                                <path d="M5.35398847,0 L53.5398847,0 C56.5819236,0 59.0155547,2.43363112 59.0155547,5.23230691 L59.0155547,33.5841095 C59.0155547,36.5044668 56.5819236,38.8164164 53.6615663,38.8164164 L5.35398847,38.8164164 C2.43363112,38.938098 0,36.5044668 0,33.7057911 L0,5.23230691 C0,2.43363112 2.43363112,0 5.35398847,0 Z" id="路径" fill="#FFFFFF"></path>
                                <path d="M59.1372363,38.938098 L45.0221758,38.938098 L45.0221758,0 L59.1372363,0 L59.1372363,38.938098 Z M0,0 L14.1150605,0 L14.1150605,38.938098 L0,38.938098 L0,0 Z M29.325255,6.08407781 L27.134987,10.2212507 C26.8916239,10.7079769 26.5265792,10.5862954 26.039853,10.4646138 L24.4579928,9.61284294 L25.6748083,15.8186023 C25.9181715,16.9137363 25.0664006,16.9137363 24.7013559,16.4270101 L22.1460432,13.3849712 L21.5376354,14.8451498 C21.4159539,15.088513 21.2942723,15.2101945 20.9292277,15.2101945 L17.5221441,14.4801052 L18.4955965,17.7655072 C18.7389596,18.4955965 18.8606412,18.7389596 18.2522334,18.9823228 L17.0354179,19.469049 L22.9978141,24.3363112 C23.2411772,24.5796743 23.3628588,24.8230375 23.2411772,25.1880821 L22.6327694,26.8916239 C24.7013559,26.6482608 26.5265792,26.2832161 28.5951657,26.039853 C28.8385288,26.039853 29.0818919,26.2832161 29.0818919,26.5265792 L28.8385288,32.7323386 L29.8119813,32.7323386 L29.5686181,26.5265792 C29.5686181,26.2832161 29.8119813,25.9181715 30.0553444,26.039853 C32.1239308,26.2832161 33.9491542,26.6482608 36.0177406,26.8916239 L35.4093328,25.1880821 C35.2876513,24.8230375 35.4093328,24.5796743 35.6526959,24.3363112 L41.6150922,19.469049 L40.3982766,18.8606412 C39.7898689,18.6172781 40.033232,18.373915 40.1549135,17.6438256 L41.128366,14.3584236 L37.7212824,15.2101945 C37.3562377,15.3318761 37.1128746,14.9668314 37.1128746,14.8451498 L36.6261484,13.2632896 L34.0708357,16.3053285 C33.7057911,16.7920547 32.8540202,16.7920547 33.0973833,15.6969207 L34.3141988,9.49116138 L32.7323386,10.3429323 C32.2456124,10.5862954 31.8805677,10.5862954 31.6372046,10.0995692 L29.325255,6.08407781 Z" id="形状" fill="#D52B1E"></path>
                            </g>
                        </g>
                        <rect id="矩形" fill-opacity="0.104867788" fill="#000000" mask="url(#mask-4)" x="1" y="0" width="58" height="36"></rect>
                        <g id="编组-29" mask="url(#mask-4)">
                            <g transform="translate(6.000000, 8.000000)">
                                <rect id="矩形" fill="#00A3FF" fill-rule="evenodd" x="0" y="0" width="46" height="20"></rect>
                                <path d="M13.868,10.016 L13.964,9.308 L10.136,9.308 L10.304,8.144 L12.572,8.144 L12.668,7.412 L10.7,7.412 L10.844,6.332 L12.824,6.332 L12.896,5.828 L12.488,5.492 L15.152,5.492 L15.032,6.332 L16.964,6.332 L16.82,7.412 L14.876,7.412 L14.78,8.144 L17.036,8.144 L16.868,9.308 L16.088,9.308 L15.992,10.016 L16.772,10.016 L16.628,11.06 L15.848,11.06 L15.536,13.28 C15.5039998,13.5120012 15.4000009,13.7019993 15.224,13.85 C15.0479991,13.9980007 14.8440012,14.072 14.612,14.072 L12.392,14.072 L13.46,12.956 L13.724,11.06 L9.956,11.06 L10.1,10.016 L13.868,10.016 Z M10.016,7.292 L9.068,14.072 L6.896,14.072 L7.592,9.104 L6.884,9.236 L7.076,7.868 L10.016,7.292 Z M10.076,6.836 L7.148,7.412 L7.34,6.044 L10.268,5.468 L10.076,6.836 Z M12.836,13.064 L10.82,13.064 L10.244,11.48 L12.272,11.48 L12.836,13.064 Z M21.308,12.764 L22.268,5.912 L21.872,5.468 L24.608,5.468 L24.164,8.66 L28.04,8.66 L27.884,9.8 L23.996,9.8 L23.588,12.764 L27.692,12.764 L27.536,13.904 L17.96,13.904 L18.116,12.764 L21.308,12.764 Z M38.624,11.624 L36.98,12.068 L37.052,12.764 L38.012,12.764 L38.528,12.308 L38.312,13.904 L35.12,13.904 L34.988,12.608 L32.708,13.22 L32.864,12.08 L34.88,11.54 L34.712,9.908 L33.164,9.908 L33.332,8.768 L34.592,8.768 L34.532,8.204 L33.404,8.204 L33.572,7.064 L34.412,7.064 L34.244,5.468 L36.296,5.468 L36.464,7.064 L39.272,7.064 L39.104,8.204 L36.584,8.204 L36.644,8.768 L39.032,8.768 L38.864,9.908 L36.752,9.908 L36.872,11 L38.792,10.484 L38.624,11.624 Z M29.528,8.204 L31.088,5.768 L30.824,5.468 L33.332,5.468 L31.58,8.204 L32.948,8.204 L31.196,10.94 L32.564,10.94 L32.408,12.08 L28.988,12.08 L29.144,10.94 L30.176,9.344 L29.372,9.344 L29.528,8.204 Z M32.18,13.676 L28.736,13.904 L28.892,12.764 L32.348,12.536 L32.18,13.676 Z M39.032,5.468 L39.332,6.608 L37.28,6.608 L36.98,5.468 L39.032,5.468 Z" id="待上线" fill="#FFFFFF" fill-rule="nonzero"></path>
                            </g>
                        </g>
                    </g>
                </g>
            </g>
        </g>
    </g>
</svg>