<?xml version="1.0" encoding="UTF-8"?>
<svg width="58px" height="36px" viewBox="0 0 58 36" version="1.1" xmlns="http://www.w3.org/2000/svg" xmlns:xlink="http://www.w3.org/1999/xlink">
    <!-- Generator: Sketch 58 (84663) - https://sketch.com -->
    <title>矩形</title>
    <desc>Created with Sketch.</desc>
    <defs>
        <rect id="path-1" x="0" y="0" width="58" height="36"></rect>
    </defs>
    <g id="欧标" stroke="none" stroke-width="1" fill="none" fill-rule="evenodd">
        <g id="商标服务" transform="translate(-367.000000, -84.000000)">
            <g id="编组-30" transform="translate(215.000000, 70.000000)">
                <g id="编组-29备份-2" transform="translate(145.000000, 14.000000)">
                    <g id="编组-15" transform="translate(7.000000, 0.000000)">
                        <mask id="mask-2" fill="white">
                            <use xlink:href="#path-1"></use>
                        </mask>
                        <use id="矩形" fill="#D8D8D8" xlink:href="#path-1"></use>
                        <g id="oumeng" mask="url(#mask-2)" fill-rule="nonzero">
                            <g transform="translate(0.000000, -1.000000)">
                                <polygon id="路径" fill="#000098" points="0 0 58 0 58 39 0 39"></polygon>
                                <path d="M29.2636105,4.0630886 L29.6512729,5.22973075 C29.6704183,5.28758445 29.7242496,5.32671527 29.7850164,5.32695093 L31.0080914,5.32695093 C31.0682891,5.32803713 31.1212091,5.36721743 31.1399861,5.42460176 C31.1587632,5.48198609 31.1392846,5.54500546 31.0914388,5.5816678 L30.099023,6.29915272 C30.0503153,6.33539378 30.0300452,6.3987414 30.0486269,6.45664941 L30.4362893,7.62329156 C30.4540905,7.68138326 30.4330492,7.74439773 30.3839582,7.78001265 C30.3348671,7.81562757 30.2686204,7.81593942 30.2191984,7.78078825 L29.2287208,7.05941452 C29.1794648,7.02403353 29.1132203,7.02403353 29.0639643,7.05941452 L28.0734868,7.78078825 C28.0240647,7.81593942 27.957818,7.81562757 27.908727,7.78001265 C27.8596359,7.74439773 27.8385946,7.68138326 27.8563958,7.62329156 L28.2440583,6.45664941 C28.26264,6.3987414 28.2423699,6.33539378 28.1936621,6.29915272 L27.2031846,5.57777899 C27.1553388,5.54111666 27.1358602,5.47809729 27.1546373,5.42071295 C27.1734144,5.36332862 27.2263343,5.32414832 27.286532,5.32306212 L28.509607,5.32306212 C28.5703738,5.32282646 28.6242052,5.28369564 28.6433506,5.22584194 L29.031013,4.05919979 C29.0580772,4.02137048 29.101916,3.99926261 29.148327,4.00001879 C29.1947379,4.0008145 29.237818,4.02437558 29.2636105,4.0630886 Z M35.7201283,5.84221788 L36.1077907,7.00886003 C36.1269361,7.06671373 36.1807675,7.10584455 36.2415343,7.10608021 L37.4646092,7.10608021 C37.524807,7.10716641 37.5777269,7.14634671 37.596504,7.20373104 C37.615281,7.26111537 37.5958025,7.32413475 37.5479567,7.36079708 L36.5574791,8.08217081 C36.5087714,8.11841187 36.4885013,8.18175949 36.507083,8.2396675 L36.8947455,9.40630965 C36.9125467,9.46440135 36.8915054,9.52741581 36.8424143,9.56303073 C36.7933233,9.59864565 36.7270766,9.59895751 36.6776545,9.56380634 L35.687177,8.84243261 C35.637921,8.80705162 35.5716765,8.80705162 35.5224204,8.84243261 L34.5319429,9.56380634 C34.4825208,9.59895751 34.4162742,9.59864565 34.3671831,9.56303073 C34.3180921,9.52741581 34.2970507,9.46440135 34.314852,9.40630965 L34.7025144,8.2396675 C34.7210961,8.18175949 34.700826,8.11841187 34.6521183,8.08217081 L33.638381,7.36857469 C33.5905352,7.33191236 33.5710566,7.26889299 33.5898337,7.21150866 C33.6086108,7.15412433 33.6615307,7.11494403 33.7217284,7.11385782 L34.9448034,7.11385782 C35.0055702,7.11362216 35.0594016,7.07449134 35.078547,7.01663764 L35.4662094,5.84999549 C35.488501,5.80069141 35.5368099,5.76840117 35.5907533,5.76674887 C35.6446967,5.76509657 35.6948795,5.79436997 35.7201283,5.84221788 Z M40.4069671,10.5379525 L40.7946295,11.7045947 C40.8137749,11.7624484 40.8676063,11.8015792 40.9283731,11.8018149 L42.1514481,11.8018149 C42.2116458,11.8029011 42.2645657,11.8420814 42.2833428,11.8994657 C42.3021199,11.95685 42.2826413,12.0198694 42.2347955,12.0565317 L41.244318,12.7779055 C41.1956103,12.8141465 41.1753402,12.8774941 41.1939219,12.9354022 L41.5815843,14.1020443 C41.5993855,14.160136 41.5783442,14.2231505 41.5292531,14.2587654 C41.4801621,14.2943803 41.4139154,14.2946922 41.3644933,14.259541 L40.3740158,13.5381673 C40.3247598,13.5027863 40.2585153,13.5027863 40.2092593,13.5381673 L39.2090902,14.2653742 C39.1596681,14.3005254 39.0934214,14.3002135 39.0443304,14.2645986 C38.9952393,14.2289837 38.974198,14.1659692 38.9919992,14.1078775 L39.3796617,12.9412354 C39.3982434,12.8833274 39.3779733,12.8199797 39.3292655,12.7837387 L38.338788,12.0623649 C38.2909422,12.0257026 38.2714637,11.9626832 38.2902407,11.9052989 C38.3090178,11.8479146 38.3619377,11.8087343 38.4221355,11.8076481 L39.6452104,11.8076481 C39.7059772,11.8074124 39.7598086,11.7682816 39.778954,11.7104279 L40.1666164,10.5437857 C40.1914162,10.501467 40.2362533,10.4750068 40.2851747,10.4738195 C40.334096,10.4726322 40.3801562,10.4968864 40.4069671,10.5379525 L40.4069671,10.5379525 Z M42.1165584,17.1858684 L42.5042209,18.3525105 C42.5233663,18.4103642 42.5771976,18.4494951 42.6379644,18.4497307 L43.8610394,18.4497307 C43.9212371,18.4508169 43.9741571,18.4899972 43.9929341,18.5473816 C44.0117112,18.6047659 43.9922326,18.6677853 43.9443868,18.7044476 L42.9500327,19.4238769 C42.901325,19.460118 42.8810549,19.5234656 42.8996366,19.5813736 L43.287299,20.7480158 C43.3051002,20.8061075 43.2840589,20.8691219 43.2349678,20.9047368 C43.1858768,20.9403518 43.1196301,20.9406636 43.070208,20.9055125 L42.0797305,20.1841387 C42.0304745,20.1487577 41.96423,20.1487577 41.914974,20.1841387 L40.9244965,20.9055125 C40.8750744,20.9406636 40.8088277,20.9403518 40.7597366,20.9047368 C40.7106456,20.8691219 40.6896043,20.8061075 40.7074055,20.7480158 L41.0950679,19.5813736 C41.1136496,19.5234656 41.0933795,19.460118 41.0446718,19.4238769 L40.0541943,18.7025032 C40.0063485,18.6658409 39.9868699,18.6028215 40.005647,18.5454372 C40.0244241,18.4880528 40.077344,18.4488725 40.1375417,18.4477863 L41.3412336,18.4477863 C41.4020004,18.4475507 41.4558317,18.4084198 41.4749771,18.3505661 L41.8626395,17.183924 C41.8868125,17.1355711 41.9362807,17.105204 41.9902023,17.1056128 C42.0441239,17.1060298 42.0931241,17.1371509 42.1165584,17.1858684 L42.1165584,17.1858684 Z M40.505821,23.6335107 L40.8934835,24.8001528 C40.9126289,24.8580065 40.9664602,24.8971374 41.027227,24.897373 L42.250302,24.897373 C42.3104997,24.8984592 42.3634196,24.9376395 42.3821967,24.9950239 C42.4009738,25.0524082 42.3814952,25.1154276 42.3336494,25.1520899 L41.3412336,25.8773524 C41.2925259,25.9135935 41.2722558,25.9769411 41.2908375,26.0348491 L41.6784999,27.2014913 C41.6963011,27.259583 41.6752598,27.3225974 41.6261687,27.3582123 C41.5770777,27.3938273 41.510831,27.3941391 41.4614089,27.358988 L40.4709314,26.6376142 C40.4216754,26.6022332 40.3554309,26.6022332 40.3061749,26.6376142 L39.3156974,27.358988 C39.2662753,27.3941391 39.2000286,27.3938273 39.1509375,27.3582123 C39.1018465,27.3225974 39.0808052,27.259583 39.0986064,27.2014913 L39.4862688,26.0348491 C39.5048505,25.9769411 39.4845804,25.9135935 39.4358727,25.8773524 L38.4453952,25.1559787 C38.3975494,25.1193164 38.3780708,25.056297 38.3968479,24.9989127 C38.415625,24.9415283 38.4685449,24.902348 38.5287426,24.9012618 L39.7518176,24.9012618 C39.8125844,24.9010262 39.8664157,24.8618953 39.8855611,24.8040416 L40.2732236,23.6373995 C40.299016,23.5986865 40.3420961,23.5751254 40.3885071,23.5743297 C40.434918,23.5735735 40.4787569,23.5956814 40.505821,23.6335107 L40.505821,23.6335107 Z M35.7201283,28.5625738 L36.1077907,29.7292159 C36.1269361,29.7870696 36.1807675,29.8262004 36.2415343,29.8264361 L37.4646092,29.8264361 C37.524807,29.8275223 37.5777269,29.8667026 37.596504,29.9240869 C37.615281,29.9814713 37.5958025,30.0444906 37.5479567,30.081153 L36.5574791,30.8025267 C36.5087714,30.8387678 36.4885013,30.9021154 36.507083,30.9600234 L36.8947455,32.1266655 C36.9125467,32.1847572 36.8915054,32.2477717 36.8424143,32.2833866 C36.7933233,32.3190016 36.7270766,32.3193134 36.6776545,32.2841622 L35.687177,31.5627885 C35.637921,31.5274075 35.5716765,31.5274075 35.5224204,31.5627885 L34.5319429,32.2841622 C34.4825208,32.3193134 34.4162742,32.3190016 34.3671831,32.2833866 C34.3180921,32.2477717 34.2970507,32.1847572 34.314852,32.1266655 L34.7025144,30.9600234 C34.7210961,30.9021154 34.700826,30.8387678 34.6521183,30.8025267 L33.6616408,30.081153 C33.613795,30.0444906 33.5943164,29.9814713 33.6130935,29.9240869 C33.6318705,29.8667026 33.6847905,29.8275223 33.7449882,29.8264361 L34.9448034,29.8264361 C35.0055702,29.8262004 35.0594016,29.7870696 35.078547,29.7292159 L35.4662094,28.5625738 C35.4900153,28.5140413 35.5392487,28.4832997 35.5931688,28.4832997 C35.647089,28.4832997 35.6963224,28.5140413 35.7201283,28.5625738 Z M29.1647565,30.2483717 L29.552419,31.4150138 C29.5715644,31.4728675 29.6253957,31.5119984 29.6861625,31.512234 L30.9092375,31.512234 C30.9694352,31.5133202 31.0223551,31.5525005 31.0411322,31.6098848 C31.0599093,31.6672692 31.0404307,31.7302886 30.9925849,31.7669509 L30.0021074,32.4883246 C29.9533997,32.5245657 29.9331296,32.5879133 29.9517113,32.6458213 L30.3393737,33.8124635 C30.3571749,33.8705552 30.3361336,33.9335696 30.2870426,33.9691845 C30.2379515,34.0047995 30.1717048,34.0051113 30.1222827,33.9699601 L29.1318052,33.2485864 C29.0825492,33.2132054 29.0163047,33.2132054 28.9670487,33.2485864 L27.9668796,33.973849 C27.9174575,34.0090001 27.8512108,34.0086883 27.8021198,33.9730733 C27.7530288,33.9374584 27.7319874,33.874444 27.7497887,33.8163523 L28.1374511,32.6497101 C28.1560328,32.5918021 28.1357627,32.5284545 28.087055,32.4922134 L27.0965775,31.7708397 C27.0487316,31.7341774 27.0292531,31.671158 27.0480301,31.6137737 C27.0668072,31.5563893 27.1197271,31.517209 27.1799249,31.5161228 L28.4029999,31.5161228 C28.4637666,31.5158872 28.517598,31.4767563 28.5367434,31.4189026 L28.9244058,30.2522605 C28.9495491,30.2101616 28.9945873,30.1840785 29.0435035,30.1832685 C29.0924196,30.1824956 29.1382729,30.2071081 29.1647565,30.2483717 L29.1647565,30.2483717 Z M22.6055082,28.5625738 L22.9931706,29.7292159 C23.012316,29.7870696 23.0661473,29.8262004 23.1269141,29.8264361 L24.3499891,29.8264361 C24.4101868,29.8275223 24.4631068,29.8667026 24.4818838,29.9240869 C24.5006609,29.9814713 24.4811823,30.0444906 24.4333365,30.081153 L23.442859,30.8025267 C23.3941513,30.8387678 23.3738812,30.9021154 23.3924629,30.9600234 L23.7801253,32.1266655 C23.7979266,32.1847572 23.7768852,32.2477717 23.7277942,32.2833866 C23.6787031,32.3190016 23.6124565,32.3193134 23.5630344,32.2841622 L22.5725568,31.5627885 C22.5233008,31.5274075 22.4570563,31.5274075 22.4078003,31.5627885 L21.4173228,32.2841622 C21.3679007,32.3193134 21.301654,32.3190016 21.252563,32.2833866 C21.2034719,32.2477717 21.1824306,32.1847572 21.2002318,32.1266655 L21.5878943,30.9600234 C21.606476,30.9021154 21.5862059,30.8387678 21.5374982,30.8025267 L20.5470206,30.081153 C20.4991748,30.0444906 20.4796963,29.9814713 20.4984733,29.9240869 C20.5172504,29.8667026 20.5701703,29.8275223 20.6303681,29.8264361 L21.853443,29.8264361 C21.9142098,29.8262004 21.9680412,29.7870696 21.9871866,29.7292159 L22.374849,28.5625738 C22.4013905,28.525117 22.4443671,28.5028682 22.4901786,28.5028682 C22.53599,28.5028682 22.5789666,28.525117 22.6055082,28.5625738 Z M17.922546,23.6335107 L18.3102084,24.8001528 C18.3293538,24.8580065 18.3831851,24.8971374 18.4439519,24.897373 L19.6670269,24.897373 C19.7272246,24.8984592 19.7801446,24.9376395 19.7989216,24.9950239 C19.8176987,25.0524082 19.7982201,25.1154276 19.7503743,25.1520899 L18.7598968,25.8734636 C18.7111891,25.9097047 18.690919,25.9730523 18.7095007,26.0309603 L19.0971631,27.1976025 C19.1149644,27.2556942 19.093923,27.3187086 19.044832,27.3543235 C18.9957409,27.3899385 18.9294943,27.3902503 18.8800722,27.3550991 L17.8895947,26.6337254 C17.8403386,26.5983444 17.7740941,26.5983444 17.7248381,26.6337254 L16.724669,27.3609324 C16.6752469,27.3960835 16.6090003,27.3957717 16.5599092,27.3601568 C16.5108182,27.3245418 16.4897768,27.2615274 16.5075781,27.2034357 L16.8952405,26.0367935 C16.9138222,25.9788855 16.8935521,25.9155379 16.8448444,25.8792968 L15.8543669,25.1579231 C15.8065211,25.1212608 15.7870425,25.0582414 15.8058196,25.0008571 C15.8245966,24.9434727 15.8775166,24.9042924 15.9377143,24.9032062 L17.1607893,24.9032062 C17.2215561,24.9029706 17.2753874,24.8638397 17.2945328,24.805986 L17.6821952,23.6393439 C17.7069951,23.5970252 17.7518322,23.5705649 17.8007535,23.5693776 C17.8496749,23.5681903 17.8957351,23.5924445 17.922546,23.6335107 L17.922546,23.6335107 Z M16.1431754,17.0905926 L16.5308378,18.2572348 C16.5499832,18.3150885 16.6038146,18.3542193 16.6645814,18.354455 L17.8876563,18.354455 C17.9478541,18.3555412 18.000774,18.3947215 18.0195511,18.4521058 C18.0383281,18.5094901 18.0188496,18.5725095 17.9710038,18.6091718 L16.9805262,19.3305456 C16.9318185,19.3667866 16.9115484,19.4301342 16.9301301,19.4880422 L17.3177926,20.6546844 C17.3355938,20.7127761 17.3145525,20.7757906 17.2654614,20.8114055 C17.2163704,20.8470204 17.1501237,20.8473323 17.1007016,20.8121811 L16.1102241,20.0908074 C16.0609681,20.0554264 15.9947236,20.0554264 15.9454675,20.0908074 L14.95499,20.8121811 C14.9055679,20.8473323 14.8393213,20.8470204 14.7902302,20.8114055 C14.7411392,20.7757906 14.7200978,20.7127761 14.7378991,20.6546844 L15.1255615,19.4880422 C15.1441432,19.4301342 15.1238731,19.3667866 15.0751654,19.3305456 L14.0556132,18.6072274 C14.0077674,18.5705651 13.9882888,18.5075457 14.0070659,18.4501614 C14.0258429,18.392777 14.0787629,18.3535968 14.1389606,18.3525105 L15.3678505,18.3525105 C15.4286173,18.3522749 15.4824487,18.3131441 15.5015941,18.2552904 L15.8892565,17.0886482 C15.9134295,17.0402953 15.9628976,17.0099283 16.0168192,17.010337 C16.0707408,17.0107541 16.1197411,17.0418752 16.1431754,17.0905926 Z M17.922546,10.5379525 L18.3102084,11.7045947 C18.3293538,11.7624484 18.3831851,11.8015792 18.4439519,11.8018149 L19.6670269,11.8018149 C19.7272246,11.8029011 19.7801446,11.8420814 19.7989216,11.8994657 C19.8176987,11.95685 19.7982201,12.0198694 19.7503743,12.0565317 L18.7598968,12.7779055 C18.7111891,12.8141465 18.690919,12.8774941 18.7095007,12.9354022 L19.0971631,14.1020443 C19.1149644,14.160136 19.093923,14.2231505 19.044832,14.2587654 C18.9957409,14.2943803 18.9294943,14.2946922 18.8800722,14.259541 L17.8895947,13.5381673 C17.8403386,13.5027863 17.7740941,13.5027863 17.7248381,13.5381673 L16.724669,14.2653742 C16.6752469,14.3005254 16.6090003,14.3002135 16.5599092,14.2645986 C16.5108182,14.2289837 16.4897768,14.1659692 16.5075781,14.1078775 L16.8952405,12.9412354 C16.9138222,12.8833274 16.8935521,12.8199797 16.8448444,12.7837387 L15.8543669,12.0623649 C15.8065211,12.0257026 15.7870425,11.9626832 15.8058196,11.9052989 C15.8245966,11.8479146 15.8775166,11.8087343 15.9377143,11.8076481 L17.1607893,11.8076481 C17.2215561,11.8074124 17.2753874,11.7682816 17.2945328,11.7104279 L17.6821952,10.5437857 C17.7069951,10.501467 17.7518322,10.4750068 17.8007535,10.4738195 C17.8496749,10.4726322 17.8957351,10.4968864 17.922546,10.5379525 L17.922546,10.5379525 Z M22.803216,5.84221788 L23.1908784,7.00886003 C23.2100238,7.06671373 23.2638552,7.10584455 23.324622,7.10608021 L24.5476969,7.10608021 C24.6078947,7.10716641 24.6608146,7.14634671 24.6795917,7.20373104 C24.6983687,7.26111537 24.6788902,7.32413475 24.6310444,7.36079708 L23.6405669,8.08217081 C23.5918591,8.11841187 23.571589,8.18175949 23.5901707,8.2396675 L23.9778332,9.40630965 C23.9956344,9.46440135 23.9745931,9.52741581 23.925502,9.56303073 C23.876411,9.59864565 23.8101643,9.59895751 23.7607422,9.56380634 L22.7702647,8.84243261 C22.7210087,8.80705162 22.6547642,8.80705162 22.6055082,8.84243261 L21.6150306,9.56380634 C21.5727459,9.629849 21.4850969,9.64900087 21.4192611,9.60658322 C21.3534253,9.56416557 21.3343335,9.47624112 21.3766182,9.41019846 L21.7642807,8.24355631 C21.7828624,8.1856483 21.7625923,8.12230068 21.7138846,8.08605962 L20.7156538,7.36857469 C20.667808,7.33191236 20.6483294,7.26889299 20.6671065,7.21150866 C20.6858836,7.15412433 20.7388035,7.11494403 20.7990012,7.11385782 L22.0220762,7.11385782 C22.082843,7.11362216 22.1366743,7.07449134 22.1558197,7.01663764 L22.5434822,5.84999549 C22.564296,5.7973234 22.6143426,5.7621138 22.6707994,5.76042322 C22.7272562,5.75873265 22.7793073,5.79088498 22.803216,5.84221788 L22.803216,5.84221788 Z" id="形状" fill="#FFC911"></path>
                            </g>
                        </g>
                    </g>
                </g>
            </g>
        </g>
    </g>
</svg>