<?xml version="1.0" encoding="UTF-8"?>
<svg width="58px" height="36px" viewBox="0 0 58 36" version="1.1" xmlns="http://www.w3.org/2000/svg" xmlns:xlink="http://www.w3.org/1999/xlink">
    <!-- Generator: Sketch 58 (84663) - https://sketch.com -->
    <title>矩形</title>
    <desc>Created with Sketch.</desc>
    <defs>
        <rect id="path-1" x="0" y="0" width="58" height="36"></rect>
    </defs>
    <g id="欧标" stroke="none" stroke-width="1" fill="none" fill-rule="evenodd">
        <g id="商标服务" transform="translate(-488.000000, -84.000000)">
            <g id="编组-30" transform="translate(215.000000, 70.000000)">
                <g id="编组-29备份-3" transform="translate(266.000000, 14.000000)">
                    <g id="编组-15" transform="translate(7.000000, 0.000000)">
                        <mask id="mask-2" fill="white">
                            <use xlink:href="#path-1"></use>
                        </mask>
                        <use id="矩形" fill="#D8D8D8" xlink:href="#path-1"></use>
                        <g id="yingguo" mask="url(#mask-2)" fill-rule="nonzero">
                            <g transform="translate(-1.000000, 0.000000)">
                                <polygon id="路径" fill="#083F80" points="1 0 60 0 60 40 1 40"></polygon>
                                <polygon id="路径" fill="#FFFFFF" points="1 14 60 14 60 26 1 26"></polygon>
                                <polygon id="路径" fill="#FFFFFF" points="36 0 36 40 24 40 24 0"></polygon>
                                <polygon id="路径" fill="#FFFFFF" points="60 35.571454 60 40 52.976225 40 1 4.85706744 1 0 7.88331523 0"></polygon>
                                <polygon id="路径" fill="#FFFFFF" points="60 4.42860738 60 0 52.976225 0 1 34.9999693 1 40 7.88331523 40"></polygon>
                                <path d="M1,3.1428589 L16.8738572,13.9999632 L21.6500241,13.9999632 L1,0 L1,3.1428589 Z M60,36.7143006 L44.1261428,25.857135 L39.3499759,25.857135 L60,40 L60,36.7143006 Z M36.1190447,12.8571165 L36.1190447,13.9999632 L39.2095163,13.9999632 L59.9999396,0 L54.8023338,0 L36.1190447,12.8571165 Z M24.8809553,27.1428221 L24.8809553,25.857135 L21.7904837,25.857135 L1.00006036,40 L6.19766619,40 L24.8809553,27.1428221 Z M26.9880895,0 L33.871451,0 L33.871451,40 L26.9880895,40 L26.9880895,0 Z" id="形状" fill="#B7333C"></path>
                                <polygon id="路径" fill="#B7333C" points="0 23.9998772 0 17 60 17 60 24"></polygon>
                            </g>
                        </g>
                        <rect id="矩形" fill-opacity="0.104867788" fill="#000000" mask="url(#mask-2)" x="0" y="0" width="58" height="36"></rect>
                        <g id="编组-29" mask="url(#mask-2)">
                            <g transform="translate(6.000000, 8.000000)">
                                <rect id="矩形" fill="#00A3FF" fill-rule="evenodd" x="0" y="0" width="46" height="20"></rect>
                                <path d="M13.868,10.016 L13.964,9.308 L10.136,9.308 L10.304,8.144 L12.572,8.144 L12.668,7.412 L10.7,7.412 L10.844,6.332 L12.824,6.332 L12.896,5.828 L12.488,5.492 L15.152,5.492 L15.032,6.332 L16.964,6.332 L16.82,7.412 L14.876,7.412 L14.78,8.144 L17.036,8.144 L16.868,9.308 L16.088,9.308 L15.992,10.016 L16.772,10.016 L16.628,11.06 L15.848,11.06 L15.536,13.28 C15.5039998,13.5120012 15.4000009,13.7019993 15.224,13.85 C15.0479991,13.9980007 14.8440012,14.072 14.612,14.072 L12.392,14.072 L13.46,12.956 L13.724,11.06 L9.956,11.06 L10.1,10.016 L13.868,10.016 Z M10.016,7.292 L9.068,14.072 L6.896,14.072 L7.592,9.104 L6.884,9.236 L7.076,7.868 L10.016,7.292 Z M10.076,6.836 L7.148,7.412 L7.34,6.044 L10.268,5.468 L10.076,6.836 Z M12.836,13.064 L10.82,13.064 L10.244,11.48 L12.272,11.48 L12.836,13.064 Z M21.308,12.764 L22.268,5.912 L21.872,5.468 L24.608,5.468 L24.164,8.66 L28.04,8.66 L27.884,9.8 L23.996,9.8 L23.588,12.764 L27.692,12.764 L27.536,13.904 L17.96,13.904 L18.116,12.764 L21.308,12.764 Z M38.624,11.624 L36.98,12.068 L37.052,12.764 L38.012,12.764 L38.528,12.308 L38.312,13.904 L35.12,13.904 L34.988,12.608 L32.708,13.22 L32.864,12.08 L34.88,11.54 L34.712,9.908 L33.164,9.908 L33.332,8.768 L34.592,8.768 L34.532,8.204 L33.404,8.204 L33.572,7.064 L34.412,7.064 L34.244,5.468 L36.296,5.468 L36.464,7.064 L39.272,7.064 L39.104,8.204 L36.584,8.204 L36.644,8.768 L39.032,8.768 L38.864,9.908 L36.752,9.908 L36.872,11 L38.792,10.484 L38.624,11.624 Z M29.528,8.204 L31.088,5.768 L30.824,5.468 L33.332,5.468 L31.58,8.204 L32.948,8.204 L31.196,10.94 L32.564,10.94 L32.408,12.08 L28.988,12.08 L29.144,10.94 L30.176,9.344 L29.372,9.344 L29.528,8.204 Z M32.18,13.676 L28.736,13.904 L28.892,12.764 L32.348,12.536 L32.18,13.676 Z M39.032,5.468 L39.332,6.608 L37.28,6.608 L36.98,5.468 L39.032,5.468 Z" id="待上线" fill="#FFFFFF" fill-rule="nonzero"></path>
                            </g>
                        </g>
                    </g>
                </g>
            </g>
        </g>
    </g>
</svg>