<?xml version="1.0" encoding="UTF-8"?>
<svg width="63px" height="39px" viewBox="0 0 63 39" version="1.1" xmlns="http://www.w3.org/2000/svg" xmlns:xlink="http://www.w3.org/1999/xlink">
    <title>矩形</title>
    <defs>
        <rect id="path-1" x="0.484153955" y="0" width="61.6" height="38.5"></rect>
        <rect id="path-3" x="0.360114512" y="0" width="62" height="38"></rect>
    </defs>
    <g id="外观专利" stroke="none" stroke-width="1" fill="none" fill-rule="evenodd">
        <g transform="translate(-1178.000000, -707.000000)" id="编组-45备份-5">
            <g transform="translate(1158.000000, 688.000000)">
                <g id="编组-48" transform="translate(20.000000, 19.000000)">
                    <mask id="mask-2" fill="white">
                        <use xlink:href="#path-1"></use>
                    </mask>
                    <use id="矩形" fill="#FFFFFF" xlink:href="#path-1"></use>
                    <g id="编组-15" mask="url(#mask-2)">
                        <g transform="translate(-0.700000, 0.000000)">
                            <mask id="mask-4" fill="white">
                                <use xlink:href="#path-3"></use>
                            </mask>
                            <g id="矩形" stroke="none" fill="none"></g>
                            <g id="韩国" stroke="none" stroke-width="1" fill="none" fill-rule="evenodd" mask="url(#mask-4)">
                                <g transform="translate(0.000000, -2.000000)" fill-rule="nonzero">
                                    <path d="M0.962510263,42.7361963 L64.4374897,42.7361963 L64.4374897,0.316564427 L0.962510263,0.316564427 L0.962510263,42.7361963 Z M64.5790719,42.8417178 L64.5790719,42.6834356 L64.5790719,42.8417178 Z M0.7,43 L0.7,0 L64.7,0 L64.7,42.9472393 L0.7,42.9472393 L0.7,43 Z" id="形状" fill="#353636"></path>
                                    <polygon id="路径" fill="#FFFFFF" points="1.7 0 64.7 0 64.7 43 1.7 43"></polygon>
                                    <path d="M43.6561388,20.5498696 C44.181573,26.331841 39.9255567,31.4304884 34.1457814,31.9561222 C28.3660061,32.481756 23.2692952,28.2241225 22.7438612,22.4421511 C22.218427,16.6601797 26.4744433,11.5615323 32.2542186,11.0358985 C38.0339938,10.5628281 43.1307048,14.8204616 43.6561388,20.5498696 Z" id="路径" fill="#CC303C"></path>
                                    <path d="M24.1982277,16 C22.6913993,18.4910994 23.4707933,21.7242284 25.964854,23.2612897 C28.4069552,24.798351 31.5764908,23.9503172 33.0833192,21.4592178 C34.5901476,18.9681184 37.7596832,18.1730867 40.2017844,19.6571459 C42.6438855,21.1942072 43.4232796,24.4273362 41.9684107,26.9184356 C39.0067135,31.9006343 32.6156828,33.4906978 27.7314804,30.4695772 C22.7953185,27.5014588 21.2365305,21.0352009 24.1982277,16 L24.1982277,16 Z" id="路径" fill="#005C9E"></path>
                                    <path d="M10.7,12.906336 L16.4998327,4.02944685 L17.8327102,4.95782598 L12.032359,13.8347152 L10.7,12.906336 Z M12.7750363,14.3465551 L18.577462,5.47073671 L19.9103396,6.39911584 L14.1079138,15.2749342 L12.7750363,14.3465551 Z M14.829846,15.8092608 L16.1782824,16.7194364 L21.9869317,7.83183931 L20.6384953,6.86812397 L14.829846,15.8092608 Z M46.5155094,30.3838494 L49.2149754,26.2570061 L50.5473344,27.1859206 L47.8483869,31.3127639 L46.5155094,30.3838494 Z M43.4073634,35.2227712 L46.1021617,31.0932509 L47.4355579,32.0205593 L44.7407595,36.1500796 L43.4073634,35.2227712 Z M48.5589092,31.8663648 L51.2599312,27.7411277 L52.5917715,28.6705776 L49.8907495,32.7958147 L48.5589092,31.8663648 Z M45.4808437,36.6362204 L46.8292802,37.546396 L49.5261531,33.4238359 L48.1777166,32.5136603 L45.4808437,36.6362204 Z M50.6396504,33.3092609 L53.3344488,29.1797406 L54.667845,30.1070489 L51.9730466,34.2365692 L50.6396504,33.3092609 Z M47.5226877,38.0748333 L50.2112625,33.9410298 L51.5462146,34.8661965 L48.8571211,39 L47.5226877,38.0748333 Z M51.289493,15.2738634 L52.6379295,14.3636878 L46.8292802,5.47609068 L45.4808437,6.38626628 L51.289493,15.2738634 Z M47.5309858,4.92944992 L48.8638633,4 L51.5633293,8.1263079 L50.2309704,9.05522242 L47.5309858,4.92944992 Z M50.6661005,9.74749127 L51.9979408,8.81750595 L54.7,12.9416723 L53.3686783,13.8716576 L50.6661005,9.74749127 Z M43.3892113,7.82434376 L44.7231262,6.89810622 L47.41585,11.0292327 L46.0814166,11.9554702 L43.3892113,7.82434376 Z M46.4963201,12.5920577 L47.8291977,11.6647494 L50.5250333,15.7937343 L49.1916371,16.7215781 L46.4963201,12.5920577 Z M14.8002841,27.222863 L16.132643,26.2939485 L21.9392178,35.1676253 L20.6063403,36.0965398 L14.8002841,27.222863 Z M10.7036304,30.0818852 L12.036508,29.1545769 L17.8332288,38.0346785 L16.4998327,38.9619868 L10.7036304,30.0818852 Z M12.755847,28.7021661 L14.0887246,27.7743223 L16.7855974,31.9033073 L15.4522012,32.831151 L12.755847,28.7021661 Z M18.5639777,37.546396 L19.9124141,36.6362204 L17.2155412,32.5136603 L15.8671048,33.4238359 L18.5639777,37.546396 Z" id="形状" fill="#231815"></path>
                                </g>
                            </g>
                        </g>
                    </g>
                </g>
            </g>
        </g>
    </g>
</svg>