<?xml version="1.0" encoding="UTF-8"?>
<svg width="58px" height="36px" viewBox="0 0 58 36" version="1.1" xmlns="http://www.w3.org/2000/svg" xmlns:xlink="http://www.w3.org/1999/xlink">
    <!-- Generator: Sketch 58 (84663) - https://sketch.com -->
    <title>矩形</title>
    <desc>Created with Sketch.</desc>
    <defs>
        <rect id="path-1" x="0" y="0" width="58" height="36"></rect>
    </defs>
    <g id="欧标" stroke="none" stroke-width="1" fill="none" fill-rule="evenodd">
        <g id="商标服务" transform="translate(-246.000000, -84.000000)">
            <g id="编组-30" transform="translate(215.000000, 70.000000)">
                <g id="编组-29备份" transform="translate(24.000000, 14.000000)">
                    <g id="编组-15" transform="translate(7.000000, 0.000000)">
                        <mask id="mask-2" fill="white">
                            <use xlink:href="#path-1"></use>
                        </mask>
                        <use id="矩形" fill="#D8D8D8" xlink:href="#path-1"></use>
                        <g id="meiguo-2" mask="url(#mask-2)" fill-rule="nonzero">
                            <path d="M0.266612007,42.7358722 L64.733388,42.7358722 L64.733388,0.264127752 L0.266612007,0.264127752 L0.266612007,42.7358722 Z M64.8688392,42.8415233 L64.8688392,42.6830467 L64.8688392,42.8415233 Z M0,43 L0,0 L65,0 L65,43 L0,43 Z" id="形状" fill="#353636"></path>
                            <polygon id="路径" fill="#FFFFFF" points="0 29.5625 64.0972222 29.5625 64.0972222 33.1458333 0 33.1458333"></polygon>
                            <polygon id="路径" fill="#C22045" points="0 25.9791667 64.0972222 25.9791667 64.0972222 29.5625 0 29.5625"></polygon>
                            <path d="M0,39.4166667 L64.0972222,39.4166667 L64.0972222,43 L0,43 L0,39.4166667 Z M0,32.25 L64.0972222,32.25 L64.0972222,35.8333333 L0,35.8333333 L0,32.25 Z" id="形状" fill="#C22045"></path>
                            <polygon id="路径" fill="#FFFFFF" points="0 23.2916667 64.0972222 23.2916667 64.0972222 26.875 0 26.875"></polygon>
                            <polygon id="路径" fill="#C22045" points="0 13.4375 64.0972222 13.4375 64.0972222 17.0208333 0 17.0208333"></polygon>
                            <polygon id="路径" fill="#FFFFFF" points="0 2.6875 64.0972222 2.6875 64.0972222 6.27083333 0 6.27083333"></polygon>
                            <path d="M0,6.6394636 L64.0972222,6.6394636 L64.0972222,9.95919541 L0,9.95919541 L0,6.6394636 Z M0,19.9719349 L64.0972222,19.9719349 L64.0972222,23.2916667 L0,23.2916667 L0,19.9719349 Z M0,0 L64.0972222,0 L64.0972222,3.3197318 L0,3.3197318 L0,0 Z" id="形状" fill="#C22045"></path>
                            <path d="M0,9.85416667 L64.0972222,9.85416667 L64.0972222,13.4375 L0,13.4375 L0,9.85416667 Z M0,17.0208333 L64.0972222,17.0208333 L64.0972222,20.6041667 L0,20.6041667 L0,17.0208333 Z" id="形状" fill="#FFFFFF"></path>
                            <polygon id="路径" fill="#004981" points="0 0 26.1805556 0 26.1805556 23.2916667 0 23.2916667"></polygon>
                            <path d="M19.3941571,0.895833333 L19.5498084,1.4769765 L20.12053,1.4769765 L19.653576,1.7939637 L19.8611111,2.32227564 L19.3941571,2.00528849 L18.9272031,2.32227564 L19.1347382,1.7939637 L18.6677841,1.4769765 L19.2385057,1.4769765 L19.3941571,0.895833333 Z M19.3941571,5.70347224 L19.5498084,6.23178422 L20.12053,6.23178422 L19.653576,6.60160257 L19.8611111,7.12991455 L19.3941571,6.81292735 L18.9272031,7.12991455 L19.1347382,6.60160257 L18.6677841,6.23178422 L19.2385057,6.23178422 L19.3941571,5.70347224 Z M19.3941571,10.5111111 L19.5498084,11.0394231 L20.12053,11.0394231 L19.653576,11.3564103 L19.8611111,11.9375534 L19.3941571,11.5677351 L18.9272031,11.9375534 L19.1347382,11.3564103 L18.6677841,11.0394231 L19.2385057,11.0394231 L19.3941571,10.5111111 Z M19.3941571,15.3715812 L19.5498084,15.9527244 L20.12053,15.9527244 L19.653576,16.2697116 L19.8611111,16.7980235 L19.3941571,16.4810364 L18.9272031,16.7980235 L19.1347382,16.2697116 L18.6677841,15.9527244 L19.2385057,15.9527244 L19.3941571,15.3715812 Z M19.3941571,20.0735577 L19.5498084,20.6018697 L20.12053,20.6018697 L19.653576,20.971688 L19.8611111,21.5 L19.3941571,21.1830128 L18.9272031,21.5 L19.1347382,20.971688 L18.6677841,20.6018697 L19.2385057,20.6018697 L19.3941571,20.0735577 Z M15.1915709,0.895833333 L15.3472222,1.4769765 L15.9179438,1.4769765 L15.4509898,1.7939637 L15.6585249,2.32227564 L15.1915709,2.00528849 L14.7246169,2.32227564 L14.8802682,1.7939637 L14.4651979,1.4769765 L14.9840358,1.4769765 L15.1915709,0.895833333 Z M15.1915709,5.70347224 L15.3472222,6.23178422 L15.9179438,6.23178422 L15.4509898,6.60160257 L15.6585249,7.12991455 L15.1915709,6.81292735 L14.7246169,7.12991455 L14.8802682,6.60160257 L14.4651979,6.23178422 L14.9840358,6.23178422 L15.1915709,5.70347224 Z M15.1915709,10.5111111 L15.3472222,11.0394231 L15.9179438,11.0394231 L15.4509898,11.3564103 L15.6585249,11.9375534 L15.1915709,11.5677351 L14.7246169,11.9375534 L14.8802682,11.3564103 L14.4651979,11.0394231 L14.9840358,11.0394231 L15.1915709,10.5111111 Z M15.1915709,15.3715812 L15.3472222,15.9527244 L15.9179438,15.9527244 L15.4509898,16.2697116 L15.6585249,16.7980235 L15.1915709,16.4810364 L14.7246169,16.7980235 L14.8802682,16.2697116 L14.4651979,15.9527244 L14.9840358,15.9527244 L15.1915709,15.3715812 Z M15.1915709,20.0735577 L15.3472222,20.6018697 L15.9179438,20.6018697 L15.4509898,20.971688 L15.6585249,21.5 L15.1915709,21.1830128 L14.7246169,21.5 L14.8802682,20.971688 L14.4651979,20.6018697 L14.9840358,20.6018697 L15.1915709,20.0735577 Z M10.9889847,0.895833333 L11.144636,1.4769765 L11.7153576,1.4769765 L11.2484036,1.7939637 L11.4040549,2.32227564 L10.9889847,2.00528849 L10.5220307,2.32227564 L10.677682,1.7939637 L10.210728,1.4769765 L10.7814496,1.4769765 L10.9889847,0.895833333 Z M10.9889847,5.70347224 L11.144636,6.23178422 L11.7153576,6.23178422 L11.2484036,6.60160257 L11.4040549,7.12991455 L10.9889847,6.81292735 L10.5220307,7.12991455 L10.677682,6.60160257 L10.210728,6.23178422 L10.7814496,6.23178422 L10.9889847,5.70347224 Z M10.9889847,10.5111111 L11.144636,11.0394231 L11.7153576,11.0394231 L11.2484036,11.3564103 L11.4040549,11.9375534 L10.9889847,11.5677351 L10.5220307,11.9375534 L10.677682,11.3564103 L10.210728,11.0394231 L10.7814496,11.0394231 L10.9889847,10.5111111 Z M10.9889847,15.3715812 L11.144636,15.9527244 L11.7153576,15.9527244 L11.2484036,16.2697116 L11.4040549,16.7980235 L10.9889847,16.4810364 L10.5220307,16.7980235 L10.677682,16.2697116 L10.210728,15.9527244 L10.7814496,15.9527244 L10.9889847,15.3715812 Z M10.9889847,20.0735577 L11.144636,20.6018697 L11.7153576,20.6018697 L11.2484036,20.971688 L11.4040549,21.5 L10.9889847,21.1830128 L10.5220307,21.5 L10.677682,20.971688 L10.210728,20.6018697 L10.7814496,20.6018697 L10.9889847,20.0735577 Z M6.7345147,0.895833333 L6.94204982,1.4769765 L7.46088764,1.4769765 L7.0458174,1.7939637 L7.20146871,2.32227564 L6.7345147,2.00528849 L6.26756069,2.32227564 L6.47509581,1.7939637 L6.00814176,1.4769765 L6.57886335,1.4769765 L6.7345147,0.895833333 Z M6.7345147,5.70347224 L6.94204982,6.23178422 L7.46088764,6.23178422 L7.0458174,6.60160257 L7.20146871,7.12991455 L6.7345147,6.81292735 L6.26756069,7.12991455 L6.47509581,6.60160257 L6.00814176,6.23178422 L6.57886335,6.23178422 L6.7345147,5.70347224 Z M6.7345147,10.5111111 L6.94204982,11.0394231 L7.46088764,11.0394231 L7.0458174,11.3564103 L7.20146871,11.9375534 L6.7345147,11.5677351 L6.26756069,11.9375534 L6.47509581,11.3564103 L6.00814176,11.0394231 L6.57886335,11.0394231 L6.7345147,10.5111111 Z M6.7345147,15.3715812 L6.94204982,15.9527244 L7.46088764,15.9527244 L7.0458174,16.2697116 L7.20146871,16.7980235 L6.7345147,16.4810364 L6.26756069,16.7980235 L6.47509581,16.2697116 L6.00814176,15.9527244 L6.57886335,15.9527244 L6.7345147,15.3715812 Z M6.7345147,20.0735577 L6.94204982,20.6018697 L7.46088764,20.6018697 L7.0458174,20.971688 L7.20146871,21.5 L6.7345147,21.1830128 L6.26756069,21.5 L6.47509581,20.971688 L6.00814176,20.6018697 L6.57886335,20.6018697 L6.7345147,20.0735577 Z M2.5319285,0.895833333 L2.68757985,1.4769765 L3.25830143,1.4769765 L2.79134738,1.7939637 L2.9988825,2.32227564 L2.5319285,2.00528849 L2.06497449,2.32227564 L2.27250961,1.7939637 L1.80555556,1.4769765 L2.37627715,1.4769765 L2.5319285,0.895833333 Z M2.5319285,5.70347224 L2.68757985,6.23178422 L3.25830143,6.23178422 L2.79134738,6.60160257 L2.9988825,7.12991455 L2.5319285,6.81292735 L2.06497449,7.12991455 L2.27250961,6.60160257 L1.80555556,6.23178422 L2.37627715,6.23178422 L2.5319285,5.70347224 Z M2.5319285,10.5111111 L2.68757985,11.0394231 L3.25830143,11.0394231 L2.79134738,11.3564103 L2.9988825,11.9375534 L2.5319285,11.5677351 L2.06497449,11.9375534 L2.27250961,11.3564103 L1.80555556,11.0394231 L2.37627715,11.0394231 L2.5319285,10.5111111 Z M2.5319285,15.3715812 L2.68757985,15.9527244 L3.25830143,15.9527244 L2.79134738,16.2697116 L2.9988825,16.7980235 L2.5319285,16.4810364 L2.06497449,16.7980235 L2.27250961,16.2697116 L1.80555556,15.9527244 L2.37627715,15.9527244 L2.5319285,15.3715812 Z M2.5319285,20.0735577 L2.68757985,20.6018697 L3.25830143,20.6018697 L2.79134738,20.971688 L2.9988825,21.5 L2.5319285,21.1830128 L2.06497449,21.5 L2.27250961,20.971688 L1.80555556,20.6018697 L2.37627715,20.6018697 L2.5319285,20.0735577 Z M21.5732759,3.32606838 L21.7289272,3.85438036 L22.2996488,3.85438036 L21.8326948,4.17136752 L21.9883461,4.75251069 L21.5732759,4.3826923 L21.1063218,4.75251069 L21.2619732,4.17136752 L20.7950192,3.85438036 L21.3657407,3.85438036 L21.5732759,3.32606838 Z M21.5732759,8.23936966 L21.7289272,8.82051283 L22.2996488,8.82051283 L21.8326948,9.13750003 L21.9883461,9.66581197 L21.5732759,9.34882481 L21.1063218,9.66581197 L21.2619732,9.13750003 L20.7950192,8.82051283 L21.3657407,8.82051283 L21.5732759,8.23936966 Z M21.5213921,13.0998398 L21.6770434,13.6281517 L22.247765,13.6281517 L21.780811,13.9979701 L21.9883461,14.5262821 L21.5213921,14.2092949 L21.054438,14.5262821 L21.2100894,13.9979701 L20.7431354,13.6281517 L21.3138569,13.6281517 L21.5213921,13.0998398 Z M21.4695083,17.9074787 L21.6251596,18.4357906 L22.1958812,18.4357906 L21.7289272,18.7527778 L21.9364623,19.3339209 L21.4695083,18.9641026 L21.0025543,19.3339209 L21.1582056,18.7527778 L20.7431354,18.4357906 L21.3138569,18.4357906 L21.4695083,17.9074787 Z M17.3188059,3.32606838 L17.526341,3.85438036 L18.0451788,3.85438036 L17.6301085,4.17136752 L17.7857599,4.75251069 L17.3188059,4.3826923 L16.8518518,4.75251069 L17.059387,4.17136752 L16.5924329,3.85438036 L17.1631545,3.85438036 L17.3188059,3.32606838 Z M17.3188059,8.23936966 L17.526341,8.82051283 L18.0451788,8.82051283 L17.6301085,9.13750003 L17.7857599,9.66581197 L17.3188059,9.34882481 L16.8518518,9.66581197 L17.059387,9.13750003 L16.5924329,8.82051283 L17.1631545,8.82051283 L17.3188059,8.23936966 Z M17.2669221,13.0998398 L17.4744572,13.6281517 L18.0451788,13.6281517 L17.5782248,13.9979701 L17.7338761,14.5262821 L17.2669221,14.2092949 L16.8518518,14.5262821 L17.0075032,13.9979701 L16.5405492,13.6281517 L17.1112708,13.6281517 L17.2669221,13.0998398 Z M17.2669221,17.9074787 L17.4225734,18.4357906 L17.993295,18.4357906 L17.526341,18.7527778 L17.6819923,19.3339209 L17.2669221,18.9641026 L16.7999681,19.3339209 L16.9556194,18.7527778 L16.4886654,18.4357906 L17.059387,18.4357906 L17.2669221,17.9074787 Z M13.1162197,3.11474359 L13.271871,3.69588676 L13.8425926,3.69588676 L13.3756386,4.01287396 L13.5831737,4.5411859 L13.1162197,4.22419875 L12.6492656,4.5411859 L12.8568008,4.01287396 L12.3898467,3.69588676 L12.9605683,3.69588676 L13.1162197,3.11474359 Z M13.1162197,8.0808761 L13.271871,8.60918804 L13.8425926,8.60918804 L13.3756386,8.97900643 L13.5831737,9.50731841 L13.1162197,9.19033121 L12.6492656,9.50731841 L12.8568008,8.97900643 L12.3898467,8.60918804 L12.9605683,8.60918804 L13.1162197,8.0808761 Z M13.0643359,12.9413462 L13.271871,13.4696581 L13.7907088,13.4696581 L13.3756386,13.7866453 L13.5312899,14.3677885 L13.0643359,13.9979701 L12.5973819,14.3677885 L12.804917,13.7866453 L12.337963,13.4696581 L12.9086846,13.4696581 L13.0643359,12.9413462 Z M13.0124521,17.6961538 L13.2199872,18.277297 L13.7907088,18.277297 L13.3237548,18.5942842 L13.4794062,19.1225961 L13.0124521,18.805609 L12.5973819,19.1225961 L12.7530332,18.5942842 L12.2860792,18.277297 L12.8568008,18.277297 L13.0124521,17.6961538 Z M8.91363348,3.11474359 L9.06928483,3.64305558 L9.64000638,3.64305558 L9.17305237,3.96004273 L9.32870372,4.5411859 L8.91363348,4.17136752 L8.44667947,4.5411859 L8.60233078,3.96004273 L8.13537677,3.64305558 L8.70609836,3.64305558 L8.91363348,3.11474359 Z M8.91363348,8.02804487 L9.06928483,8.55635686 L9.64000638,8.55635686 L9.17305237,8.92617524 L9.32870372,9.45448718 L8.91363348,9.13750003 L8.44667947,9.45448718 L8.60233078,8.92617524 L8.13537677,8.55635686 L8.70609836,8.55635686 L8.91363348,8.02804487 Z M8.86174971,12.888515 L9.01740102,13.4168269 L9.58812261,13.4168269 L9.1211686,13.7338141 L9.32870372,14.3149573 L8.86174971,13.9451389 L8.39479566,14.3149573 L8.55044701,13.7338141 L8.13537677,13.4168269 L8.70609836,13.4168269 L8.86174971,12.888515 Z M8.8098659,17.6433226 L8.96551725,18.2244658 L9.53623884,18.2244658 L9.1211686,18.541453 L9.27681995,19.069765 L8.8098659,18.7527778 L8.34291189,19.069765 L8.55044701,18.541453 L8.083493,18.2244658 L8.65421459,18.2244658 L8.8098659,17.6433226 Z M4.6591635,3.00908122 L4.86669862,3.53739316 L5.43742021,3.53739316 L4.97046616,3.90721155 L5.12611751,4.43552353 L4.6591635,4.11853633 L4.24409326,4.43552353 L4.39974457,3.90721155 L3.93279056,3.53739316 L4.50351215,3.53739316 L4.6591635,3.00908122 Z M4.6591635,7.9223825 L4.86669862,8.50352567 L5.43742021,8.50352567 L4.97046616,8.82051283 L5.12611751,9.34882481 L4.6591635,9.03183761 L4.24409326,9.34882481 L4.39974457,8.82051283 L3.93279056,8.50352567 L4.50351215,8.50352567 L4.6591635,7.9223825 Z M4.6591635,12.7828526 L4.81481481,13.3111645 L5.3855364,13.3111645 L4.91858239,13.6809829 L5.07423374,14.2092949 L4.6591635,13.8923077 L4.19220945,14.2092949 L4.3478608,13.6809829 L3.88090679,13.3111645 L4.45162838,13.3111645 L4.6591635,12.7828526 Z M4.60727969,17.5904915 L4.76293104,18.1188034 L5.33365263,18.1188034 L4.86669862,18.4357906 L5.07423374,19.0169338 L4.60727969,18.6471154 L4.14032568,19.0169338 L4.29597703,18.4357906 L3.88090679,18.1188034 L4.39974457,18.1188034 L4.60727969,17.5904915 Z M23.5967433,0.895833333 L23.8042784,1.4769765 L24.375,1.4769765 L23.9080459,1.7939637 L24.0636973,2.32227564 L23.5967433,2.00528849 L23.1816731,2.32227564 L23.3373244,1.7939637 L22.8703704,1.4769765 L23.4410919,1.4769765 L23.5967433,0.895833333 Z M23.5967433,5.70347224 L23.8042784,6.23178422 L24.375,6.23178422 L23.9080459,6.60160257 L24.0636973,7.12991455 L23.5967433,6.81292735 L23.1816731,7.12991455 L23.3373244,6.60160257 L22.8703704,6.23178422 L23.4410919,6.23178422 L23.5967433,5.70347224 Z M23.5967433,10.5111111 L23.8042784,11.0394231 L24.375,11.0394231 L23.9080459,11.3564103 L24.0636973,11.9375534 L23.5967433,11.5677351 L23.1816731,11.9375534 L23.3373244,11.3564103 L22.8703704,11.0394231 L23.4410919,11.0394231 L23.5967433,10.5111111 Z M23.5967433,15.3715812 L23.8042784,15.9527244 L24.375,15.9527244 L23.9080459,16.2697116 L24.0636973,16.7980235 L23.5967433,16.4810364 L23.1816731,16.7980235 L23.3373244,16.2697116 L22.8703704,15.9527244 L23.4410919,15.9527244 L23.5967433,15.3715812 Z M23.5967433,20.0735577 L23.8042784,20.6018697 L24.375,20.6018697 L23.9080459,20.971688 L24.0636973,21.5 L23.5967433,21.1830128 L23.1816731,21.5 L23.3373244,20.971688 L22.8703704,20.6018697 L23.4410919,20.6018697 L23.5967433,20.0735577 Z" id="形状" fill="#FFFFFF"></path>
                        </g>
                    </g>
                </g>
            </g>
        </g>
    </g>
</svg>