<?xml version="1.0" encoding="UTF-8"?>
<svg width="122px" height="34px" viewBox="0 0 122 34" version="1.1" xmlns="http://www.w3.org/2000/svg" xmlns:xlink="http://www.w3.org/1999/xlink">
    <!-- Generator: Sketch 58 (84663) - https://sketch.com -->
    <title>LOGO</title>
    <desc>Created with Sketch.</desc>
    <defs>
        <polygon id="path-1" points="0 0.0865930599 43.3752719 0.0865930599 43.3752719 33.4826498 0 33.4826498"></polygon>
        <polygon id="path-3" points="0 34.3960568 121.816423 34.3960568 121.816423 1 0 1"></polygon>
    </defs>
    <g id="工作台" stroke="none" stroke-width="1" fill="none" fill-rule="evenodd">
        <g transform="translate(-43.000000, -16.000000)" id="LOGO">
            <g transform="translate(43.000000, 16.000000)">
                <g id="编组" transform="translate(0.000000, 0.298419)">
                    <mask id="mask-2" fill="white">
                        <use xlink:href="#path-1"></use>
                    </mask>
                    <g id="Clip-2"></g>
                    <path d="M31.6625022,30.0163104 C27.1180984,30.0163104 23.4203823,26.3185943 23.4203823,21.7738057 C23.4203823,21.3889476 23.3992151,21.0094776 23.3626536,20.6338562 C23.3503382,20.5091621 23.3280164,20.3871621 23.3118524,20.262853 C23.2795243,20.0150044 23.2460416,19.7675407 23.1983192,19.5243104 C23.1702246,19.3799886 23.1328934,19.2399003 23.0997956,19.0975028 C23.0482246,18.8796732 22.9958839,18.6626132 22.9323823,18.4497868 C22.8888934,18.302771 22.8388618,18.1580644 22.7892151,18.0137426 C22.7210953,17.8116921 22.6495117,17.6123356 22.5702309,17.416058 C22.5121174,17.2717363 22.4501552,17.1297237 22.3858839,16.9873262 C22.3004454,16.7972063 22.2100038,16.6101653 22.114559,16.4250486 C22.0433603,16.2876543 21.9710069,16.1514145 21.894805,16.0170991 C21.7920479,15.8354461 21.6823634,15.6584114 21.5696,15.4829161 C21.4880101,15.3547584 21.4075748,15.2269855 21.3205968,15.1026763 C21.1978271,14.9267962 21.0673603,14.7574587 20.9357388,14.588506 C20.8468366,14.474588 20.7610132,14.3591306 20.6682625,14.2486763 C20.5189375,14.0712568 20.360376,13.9030738 20.2010448,13.7348909 C20.1140669,13.6432946 20.0320921,13.5478498 19.9424202,13.4593325 C19.7134297,13.2326511 19.4740479,13.0163609 19.2269691,12.8089224 C19.2004139,12.7862158 19.1765527,12.7615849 19.1492278,12.7388782 C18.874824,12.5129666 18.5884896,12.3005249 18.294458,12.0992442 C18.1936252,12.0307394 18.0874044,11.9703167 17.9842625,11.9048909 C17.7841363,11.777118 17.5840101,11.6508845 17.3761868,11.5354271 C17.250723,11.465383 17.1202562,11.4041905 16.9920984,11.3387647 C16.7985148,11.2406259 16.6041615,11.1432568 16.4044202,11.0555091 C16.2647167,10.9943167 16.1223192,10.939282 15.9799218,10.8834776 C15.7828744,10.8061211 15.5854423,10.7314587 15.3830069,10.6648782 C15.2344517,10.6156164 15.084742,10.5709729 14.9334927,10.5274839 C14.729518,10.4686006 14.5232341,10.4154902 14.314641,10.3677678 C14.1606978,10.3331306 14.0067546,10.3000328 13.8508871,10.2711685 C13.764294,10.2546196 13.680395,10.2315281 13.593417,10.2172883 C14.3334991,6.42412744 17.6813792,3.55270158 21.6869817,3.55270158 C26.2321552,3.55270158 29.9294864,7.25234196 29.9294864,11.79867 C29.9294864,12.755812 30.7057451,13.5320707 31.6625022,13.5320707 C36.2096,13.5320707 39.9088555,17.229017 39.9088555,21.7738057 C39.9088555,26.3185943 36.2096,30.0163104 31.6625022,30.0163104 M33.284294,10.1768782 C32.492641,4.48328833 27.5941678,0.0862851735 21.6869817,0.0862851735 C15.7763319,0.0862851735 10.8870953,4.49214006 10.098906,10.1895785 C4.40377666,10.9781527 -0.000153943218,15.8650801 -0.000153943218,21.7738057 C-0.000153943218,28.1320454 5.09729085,33.3110801 11.4185842,33.4681022 C11.4678461,33.4719508 11.5151836,33.4827268 11.5652151,33.4827268 C11.5821489,33.4827268 11.5971584,33.4781085 11.6137073,33.4773388 C11.6464202,33.4777237 11.6775937,33.4827268 11.7103066,33.4827268 L11.7103066,33.4681022 C12.598559,33.3930549 13.2986158,32.6568215 13.2986158,31.7493262 L13.2986158,26.8785628 C13.2986158,25.9206511 12.522742,25.1451621 11.5652151,25.1451621 C10.6080732,25.1451621 9.83219937,25.9206511 9.83219937,26.8785628 L9.83219937,29.792323 C6.18951798,28.9390927 3.46626246,25.6720328 3.46626246,21.7738057 C3.46626246,17.229017 7.16359369,13.5320707 11.7079975,13.5320707 C14.5497893,13.5320707 17.0606032,14.976058 18.5438461,17.1689792 C19.4340227,18.484424 19.9539659,20.0696543 19.9539659,21.7738057 C19.9539659,28.2297994 25.2068934,33.4827268 31.6625022,33.4827268 C38.120805,33.4827268 43.3752719,28.2297994 43.3752719,21.7738057 C43.3752719,15.8673893 38.9778839,10.9689161 33.284294,10.1768782" id="Fill-1" fill="#16ADE9" mask="url(#mask-2)"></path>
                </g>
                <path d="M9.83231483,22.0718397 L9.83231483,22.0729943 C9.83231483,23.0305211 10.6085735,23.8052404 11.5657155,23.8052404 C12.5224726,23.8052404 13.2987312,23.0289817 13.2987312,22.0718397 C13.2987312,21.1146978 12.5224726,20.338824 11.5657155,20.338824 C10.6085735,20.338824 9.83231483,21.1146978 9.83231483,22.0718397" id="Fill-3" fill="#FBB73C"></path>
                <path d="M9.83231483,22.0718397 L9.83231483,22.0729943 C9.83231483,23.0305211 10.6085735,23.8052404 11.5657155,23.8052404 C12.5224726,23.8052404 13.2987312,23.0289817 13.2987312,22.0718397 C13.2987312,21.1146978 12.5224726,20.338824 11.5657155,20.338824 C10.6085735,20.338824 9.83231483,21.1146978 9.83231483,22.0718397" id="Fill-5" fill="#FBB73C"></path>
                <path d="M105.695412,7.44611798 L119.374806,7.44611798" id="Fill-7" fill="#666464"></path>
                <path d="M90.1207073,6.26333375 L91.0990164,8.09102461" id="Fill-9" fill="#666464"></path>
                <path d="M78.3949293,7.17625552 L85.2346265,7.17625552" id="Fill-11" fill="#666464"></path>
                <mask id="mask-4" fill="white">
                    <use xlink:href="#path-3"></use>
                </mask>
                <g id="Clip-14"></g>
                <polygon id="Fill-13" fill="#666464" mask="url(#mask-4)" points="104.961565 8.78992681 120.107268 8.78992681 120.107268 7.07923281 104.961565 7.07923281"></polygon>
                <polygon id="Fill-15" fill="#666464" mask="url(#mask-4)" points="103.250871 13.8273338 121.816423 13.8273338 121.816423 12.1193338 103.250871 12.1193338"></polygon>
                <path d="M110.029953,12.6976984 L104.899795,23.60573" id="Fill-16" fill="#666464" mask="url(#mask-4)"></path>
                <path d="M117.725228,16.8552044 L119.923152,23.6056145" id="Fill-17" fill="#666464" mask="url(#mask-4)"></path>
                <path d="M119.923114,24.4599224 L104.899795,24.4599224 C104.606918,24.4599224 104.335208,24.3094429 104.177801,24.0619792 C104.023088,23.81567 104.001151,23.5058593 104.126615,23.241077 L109.255233,12.3334303 L110.805442,13.060812 L106.247953,22.7488435 L118.745833,22.7488435 L116.911984,17.1195249 L118.536855,16.5903451 L120.736319,23.3396006 C120.820987,23.6005344 120.776729,23.8849445 120.615473,24.1073924 C120.454218,24.3279161 120.198287,24.4599224 119.923114,24.4599224" id="Fill-18" fill="#666464" mask="url(#mask-4)"></path>
                <path d="M88.4117451,15.8359464 L97.4505211,15.8359464" id="Fill-19" fill="#666464" mask="url(#mask-4)"></path>
                <path d="M88.4117451,10.1438574 L97.4505211,10.1438574" id="Fill-20" fill="#666464" mask="url(#mask-4)"></path>
                <path d="M81.6932782,7.40551546 L81.6932782,24.4139319" id="Fill-21" fill="#666464" mask="url(#mask-4)"></path>
                <polygon id="Fill-22" fill="#666464" mask="url(#mask-4)" points="80.8367382 25.1463937 82.547817 25.1463937 82.547817 7.40520757 80.8367382 7.40520757"></polygon>
                <path d="M78.2720442,12.6570959 L78.2720442,23.7275375" id="Fill-23" fill="#666464" mask="url(#mask-4)"></path>
                <path d="M94.2737104,16.0794845 L94.2737104,24.4139703" id="Fill-24" fill="#666464" mask="url(#mask-4)"></path>
                <path d="M85.1130114,15.8521104 L85.1130114,22.4732082" id="Fill-25" fill="#666464" mask="url(#mask-4)"></path>
                <polygon id="Fill-26" fill="#666464" mask="url(#mask-4)" points="84.2569716 22.4731697 85.9688202 22.4731697 85.9688202 14.3861476 84.2569716 14.3861476"></polygon>
                <path d="M90.7302839,16.5052915 L89.9994385,23.2703262" id="Fill-27" fill="#666464" mask="url(#mask-4)"></path>
                <path d="M88.1663211,10.1438574 L88.1663211,15.8359079" id="Fill-28" fill="#666464" mask="url(#mask-4)"></path>
                <polygon id="Fill-29" fill="#666464" mask="url(#mask-4)" points="90.5698366 8.94756467 89.3490669 6.38787382 90.8923476 5.65087066 92.1158114 8.21017666"></polygon>
                <path d="M95.9837502,6.03445868 L94.2738259,10.1439729" id="Fill-30" fill="#666464" mask="url(#mask-4)"></path>
                <polygon id="Fill-31" fill="#666464" mask="url(#mask-4)" points="95.0685962 10.4577091 93.4772082 9.83116025 95.1882871 5.47918549 96.7800599 6.10381009"></polygon>
                <path d="M97.4506751,10.1438574 L97.4506751,15.8359079" id="Fill-32" fill="#666464" mask="url(#mask-4)"></path>
                <path d="M78.2720442,12.6570959 L85.1128959,12.6570959" id="Fill-33" fill="#666464" mask="url(#mask-4)"></path>
                <path d="M79.1278145,24.4621546 L77.4186599,24.4621546 L77.4186599,12.6570189 C77.4186599,12.1832587 77.8000543,11.8003249 78.2718902,11.8003249 L86.0906662,11.8003249 L86.0906662,13.5114038 L79.1278145,13.5114038 L79.1278145,24.4621546 Z" id="Fill-34" fill="#666464" mask="url(#mask-4)"></path>
                <polygon id="Fill-35" fill="#666464" mask="url(#mask-4)" points="77.9060442 8.51937161 85.722511 8.51937161 85.722511 6.81098675 77.9060442 6.81098675"></polygon>
                <path d="M94.2737104,24.4140473 L97.937559,24.4140473" id="Fill-36" fill="#666464" mask="url(#mask-4)"></path>
                <path d="M98.9145596,25.0232776 L94.2735565,25.0232776 C93.8021054,25.0232776 93.4191716,24.6403438 93.4191716,24.1677382 L93.4191716,16.0795615 L95.1283262,16.0795615 L95.1283262,23.314123 L98.9145596,23.314123 L98.9145596,25.0232776 Z" id="Fill-37" fill="#666464" mask="url(#mask-4)"></path>
                <path d="M86.9448587,24.5271956 L89.999477,23.2702492" id="Fill-38" fill="#666464" mask="url(#mask-4)"></path>
                <path d="M86.5265565,25.3220814 L85.8973136,23.7322328 L89.2024744,22.4229457 L89.8802095,15.9280814 L91.5828215,16.1070404 L90.8481274,23.1156902 C90.8165691,23.4320435 90.6083609,23.7052927 90.3135596,23.8222896 L86.5265565,25.3220814 Z" id="Fill-39" fill="#666464" mask="url(#mask-4)"></path>
                <path d="M53.1096789,7.72310032 L58.7301457,7.72310032" id="Fill-40" fill="#666464" mask="url(#mask-4)"></path>
                <path d="M64.7140341,12.6311565 L69.8449615,12.6311565" id="Fill-41" fill="#666464" mask="url(#mask-4)"></path>
                <polygon id="Fill-42" fill="#666464" mask="url(#mask-4)" points="64.2443533 13.4867344 70.3143344 13.4867344 70.3143344 11.7760404 64.2443533 11.7760404"></polygon>
                <path d="M61.5378391,15.370653 L73.0204637,15.370653" id="Fill-43" fill="#666464" mask="url(#mask-4)"></path>
                <polygon id="Fill-44" fill="#666464" mask="url(#mask-4)" points="61.5376467 16.2261539 73.0202713 16.2261539 73.0202713 14.5169994 61.5376467 14.5169994"></polygon>
                <path d="M63.0047256,18.7945426 L71.7991167,18.7945426" id="Fill-45" fill="#666464" mask="url(#mask-4)"></path>
                <path d="M65.2029962,24.5027571 L71.7990782,22.2182397" id="Fill-46" fill="#666464" mask="url(#mask-4)"></path>
                <path d="M64.9579571,15.828788 L63.0048025,18.7945041" id="Fill-47" fill="#666464" mask="url(#mask-4)"></path>
                <path d="M61.5378391,8.29399874 L73.0204637,8.29399874" id="Fill-48" fill="#666464" mask="url(#mask-4)"></path>
                <polygon id="Fill-49" fill="#666464" mask="url(#mask-4)" points="61.5376467 9.14938423 73.0202713 9.14938423 73.0202713 7.44022965 61.5376467 7.44022965"></polygon>
                <path d="M67.2791514,6.06039811 L67.2791514,8.06627823" id="Fill-50" fill="#666464" mask="url(#mask-4)"></path>
                <polygon id="Fill-51" fill="#666464" mask="url(#mask-4)" points="66.424959 8.06639369 68.1348833 8.06639369 68.1348833 5.57058927 66.424959 5.57058927"></polygon>
                <path d="M66.7811451,8.30527508 L61.4258454,13.3065054" id="Fill-52" fill="#666464" mask="url(#mask-4)"></path>
                <polygon id="Fill-53" fill="#666464" mask="url(#mask-4)" points="62.0102524 13.9330543 60.8425931 12.6814959 66.197123 7.67757161 67.3659369 8.92797539"></polygon>
                <path d="M67.7775041,8.30527508 L73.1324189,13.3065054" id="Fill-54" fill="#666464" mask="url(#mask-4)"></path>
                <polygon id="Fill-55" fill="#666464" mask="url(#mask-4)" points="72.5502826 13.9330543 67.1961375 8.92797539 68.3603331 7.67757161 73.7164025 12.6814959"></polygon>
                <path d="M53.1096789,23.5909899 L59.8289155,20.622195" id="Fill-56" fill="#666464" mask="url(#mask-4)"></path>
                <path d="M56.1644896,16.2839211 L59.0955685,16.2839211" id="Fill-57" fill="#666464" mask="url(#mask-4)"></path>
                <polygon id="Fill-58" fill="#666464" mask="url(#mask-4)" points="56.1642587 17.1394221 59.5852618 17.1394221 59.5852618 15.4287281 56.1642587 15.4287281"></polygon>
                <path d="M53.1096789,12.9742959 L58.7301457,12.9742959" id="Fill-59" fill="#666464" mask="url(#mask-4)"></path>
                <path d="M53.1096789,7.72310032 L53.1096789,12.9744883" id="Fill-60" fill="#666464" mask="url(#mask-4)"></path>
                <path d="M53.9658341,12.9742959 L52.2562946,12.9742959 L52.2562946,7.72290789 C52.2562946,7.24914763 52.6384587,6.86890789 53.1095249,6.86890789 L58.7299918,6.86890789 L58.7299918,8.57844732 L53.9658341,8.57844732 L53.9658341,12.9742959 Z" id="Fill-61" fill="#666464" mask="url(#mask-4)"></path>
                <path d="M71.7989628,18.7945426 L71.7989628,22.2182397" id="Fill-62" fill="#666464" mask="url(#mask-4)"></path>
                <path d="M65.481518,25.3126909 L64.9238587,23.6962871 L70.9441931,21.6118959 L70.9441931,19.6498896 L63.0045716,19.6498896 C62.6966852,19.6498896 62.4107356,19.4847855 62.2602562,19.2142303 C62.1078524,18.9459842 62.114395,18.6150063 62.2737262,18.350224 L64.228805,15.1393533 L65.690111,16.0264511 L64.5255306,17.940735 L71.7989628,17.940735 C72.2715685,17.940735 72.6537325,18.3244385 72.6537325,18.7943502 L72.6537325,22.2184322 C72.6537325,22.5852019 72.4235874,22.9100221 72.0799091,23.0281735 L65.481518,25.3126909 Z" id="Fill-63" fill="#666464" mask="url(#mask-4)"></path>
                <path d="M53.1096789,16.0550461 L53.1096789,23.5909514" id="Fill-64" fill="#666464" mask="url(#mask-4)"></path>
                <path d="M53.1096789,24.4448744 C52.9461142,24.4448744 52.7825495,24.3994612 52.6409218,24.3044013 C52.4007703,24.1458397 52.2560637,23.8772088 52.2560637,23.5908744 L52.2560637,16.0549691 L53.965988,16.0549691 L53.965988,22.290824 L60.2226252,19.5933539 L60.8988208,21.162805 L53.4491237,24.3759849 C53.3405937,24.4225527 53.2255211,24.4448744 53.1096789,24.4448744" id="Fill-65" fill="#666464" mask="url(#mask-4)"></path>
                <path d="M56.1644896,13.5455792 L56.1644896,21.9916738" id="Fill-66" fill="#666464" mask="url(#mask-4)"></path>
                <polygon id="Fill-67" fill="#666464" mask="url(#mask-4)" points="55.3098738 21.9917123 57.0182587 21.9917123 57.0182587 13.5456177 55.3098738 13.5456177"></polygon>
                <path d="M58.7299533,7.72310032 L58.7299533,12.9744883" id="Fill-68" fill="#666464" mask="url(#mask-4)"></path>
                <path d="M58.7299533,13.8282189 L52.2581804,13.8282189 L52.2581804,12.1194492 L57.8732593,12.1194492 L57.8732593,6.86382776 L59.5854927,6.86382776 L59.5854927,12.9742189 C59.5854927,13.44567 59.202559,13.8282189 58.7299533,13.8282189" id="Fill-69" fill="#666464" mask="url(#mask-4)"></path>
                <path d="M89.0202442,15.8359464 L87.3118593,15.8359464 L87.3118593,10.1438959 C87.3118593,9.67244479 87.6936385,9.2898959 88.1662442,9.2898959 L97.4505596,9.2898959 L97.4505596,11.0005899 L89.0202442,11.0005899 L89.0202442,15.8359464 Z" id="Fill-70" fill="#666464" mask="url(#mask-4)"></path>
                <path d="M97.2044814,16.4474088 L87.2986202,16.4474088 L87.2986202,14.7382543 L96.3493268,14.7382543 L96.3493268,9.29713123 L98.0600208,9.29713123 L98.0600208,15.5922543 C98.0600208,16.0648599 97.6767022,16.4474088 97.2044814,16.4474088" id="Fill-71" fill="#666464" mask="url(#mask-4)"></path>
                <path d="M52.4326751,33.6459836 L53.3740379,33.6459836 L53.3740379,28.0243621 L52.4326751,28.0243621 L52.4326751,33.6459836 Z M52.2560252,26.2540151 C52.2560252,25.8714662 52.5354322,25.6432454 52.9087445,25.6432454 C53.2805174,25.6432454 53.560694,25.8714662 53.560694,26.2540151 C53.560694,26.6065451 53.2805174,26.8647849 52.9087445,26.8647849 C52.5354322,26.8647849 52.2560252,26.6065451 52.2560252,26.2540151 L52.2560252,26.2540151 Z" id="Fill-72" fill="#666464" mask="url(#mask-4)"></path>
                <path d="M58.5495703,31.9071565 L58.5495703,28.7901912 L57.7113495,28.7901912 L57.7113495,28.0758946 L58.5907502,28.0243237 L58.705053,26.4514088 L59.4917028,26.4514088 L59.4917028,28.0243237 L61.0138164,28.0243237 L61.0138164,28.7901912 L59.4917028,28.7901912 L59.4917028,31.9279388 C59.4917028,32.621453 59.7099174,33.0147779 60.3618669,33.0147779 C60.5581445,33.0147779 60.8171539,32.9420397 61.0038101,32.8696864 L61.1889268,33.5735918 C60.8687249,33.6775035 60.4957975,33.7810303 60.1548132,33.7810303 C58.9536713,33.7810303 58.5495703,33.0355603 58.5495703,31.9071565" id="Fill-73" fill="#666464" mask="url(#mask-4)"></path>
                <path d="M68.2503022,32.2795836 L68.2503022,30.7055142 C66.3560309,30.933735 65.7140877,31.3994132 65.7140877,32.1241009 C65.7140877,32.7660442 66.1485924,33.0250536 66.7074063,33.0250536 C67.255829,33.0250536 67.7018795,32.7660442 68.2503022,32.2795836 M64.7927375,32.1860631 C64.7927375,30.9645237 65.8584095,30.3541388 68.2503022,30.0847382 C68.2503022,29.3596656 68.0120751,28.6669211 67.0911098,28.6669211 C66.4387754,28.6669211 65.8484032,28.9667256 65.4031224,29.2672997 L65.0309647,28.6153502 C65.5482139,28.2832177 66.3456397,27.8798864 67.2458227,27.8798864 C68.6124536,27.8798864 69.1920498,28.8012366 69.1920498,30.1878801 L69.1920498,33.6462145 L68.4165609,33.6462145 L68.3334315,32.9734826 L68.302258,32.9734826 C67.7638416,33.4183785 67.1326744,33.7809148 66.4387754,33.7809148 C65.4966429,33.7809148 64.7927375,33.2013186 64.7927375,32.1860631" id="Fill-74" fill="#666464" mask="url(#mask-4)"></path>
                <path d="M75.143918,30.7160978 L73.4363028,28.0244006 L74.4500189,28.0244006 L75.2058801,29.2671073 C75.3821451,29.5776877 75.5784227,29.888653 75.7650789,30.1984637 L75.8066435,30.1984637 C75.9829085,29.888653 76.1476278,29.5776877 76.3135016,29.2671073 L77.0074006,28.0244006 L77.9910978,28.0244006 L76.2823281,30.8092334 L78.1354196,33.6460221 L77.1005363,33.6460221 L76.2723218,32.331347 C76.0860505,31.9903628 75.8789968,31.648224 75.6715584,31.3264826 L75.6196025,31.3264826 C75.4240946,31.648224 75.2370536,31.9903628 75.0400063,32.331347 L74.28453,33.6460221 L73.2912114,33.6460221 L75.143918,30.7160978 Z" id="Fill-75" fill="#666464" mask="url(#mask-4)"></path>
                <path d="M81.716947,33.0041943 L82.1826252,32.3834183 C82.6690858,32.7763584 83.1759438,33.045759 83.8486757,33.045759 C84.5945306,33.045759 84.9570669,32.6520492 84.9570669,32.1652038 C84.9570669,31.5963836 84.2947262,31.3369893 83.6735653,31.0995319 C82.8865306,30.8093489 81.9959691,30.4268 81.9959691,29.4735066 C81.9959691,28.5840997 82.7102656,27.8801943 83.931805,27.8801943 C84.6257041,27.8801943 85.2364738,28.1692227 85.6821394,28.5113615 L85.2256978,29.1221312 C84.8331426,28.8319483 84.4390479,28.6256644 83.931805,28.6256644 C83.2278997,28.6256644 82.9073129,28.9982069 82.9073129,29.4323268 C82.9073129,29.9715129 83.5180826,30.1674057 84.1492498,30.4056328 C84.967458,30.7162132 85.867641,31.047576 85.867641,32.1136328 C85.867641,33.0249767 85.1429533,33.7812227 83.8175022,33.7812227 C83.0216158,33.7812227 82.2549785,33.4490902 81.716947,33.0041943" id="Fill-76" fill="#666464" mask="url(#mask-4)"></path>
                <path d="M90.1015413,33.0666183 C90.1015413,32.6421199 90.4117369,32.3315394 90.7846644,32.3315394 C91.1568221,32.3315394 91.4681722,32.6421199 91.4681722,33.0666183 C91.4681722,33.4911167 91.1568221,33.7809148 90.7846644,33.7809148 C90.4117369,33.7809148 90.1015413,33.4911167 90.1015413,33.0666183" id="Fill-77" fill="#666464" mask="url(#mask-4)"></path>
                <path d="M95.722547,30.8405224 C95.722547,28.9666486 96.9960423,27.8801943 98.4350265,27.8801943 C99.1701054,27.8801943 99.6769634,28.190005 100.081449,28.542535 L99.5942189,29.1740871 C99.263241,28.8735129 98.9214871,28.667229 98.4662,28.667229 C97.4517142,28.667229 96.706629,29.5466297 96.706629,30.8405224 C96.706629,32.1344151 97.4105344,32.994188 98.4450328,32.994188 C98.9626669,32.994188 99.4187237,32.755576 99.7704839,32.4353741 L100.173815,33.0665413 C99.6769634,33.5218284 99.035405,33.7812227 98.3622883,33.7812227 C96.8713483,33.7812227 95.722547,32.704005 95.722547,30.8405224" id="Fill-78" fill="#666464" mask="url(#mask-4)"></path>
                <path d="M108.093616,30.8405224 C108.093616,29.5466297 107.430891,28.667229 106.457585,28.667229 C105.484664,28.667229 104.832329,29.5466297 104.832329,30.8405224 C104.832329,32.1344151 105.484664,32.994188 106.457585,32.994188 C107.430891,32.994188 108.093616,32.1344151 108.093616,30.8405224 M103.848632,30.8405224 C103.848632,28.9666486 105.080563,27.8801943 106.457585,27.8801943 C107.834607,27.8801943 109.066153,28.9666486 109.066153,30.8405224 C109.066153,32.704005 107.834607,33.7812227 106.457585,33.7812227 C105.080563,33.7812227 103.848632,32.704005 103.848632,30.8405224" id="Fill-79" fill="#666464" mask="url(#mask-4)"></path>
                <path d="M113.652275,28.0243621 L114.428149,28.0243621 L114.510893,28.8421855 L114.542452,28.8421855 C115.028527,28.3045388 115.619285,27.8800404 116.292401,27.8800404 C117.15102,27.8800404 117.617468,28.2937628 117.844919,28.9564883 C118.42413,28.3245514 119.014502,27.8800404 119.697625,27.8800404 C120.857972,27.8800404 121.40601,28.6462927 121.40601,30.0848921 L121.40601,33.6459836 L120.463878,33.6459836 L120.463878,30.2092013 C120.463878,29.1535356 120.133285,28.7074852 119.418603,28.7074852 C118.984098,28.7074852 118.528042,28.987277 118.000401,29.567258 L118.000401,33.6459836 L117.057884,33.6459836 L117.057884,30.2092013 C117.057884,29.1535356 116.726906,28.7074852 116.012609,28.7074852 C115.588111,28.7074852 115.111657,28.987277 114.594023,29.567258 L114.594023,33.6459836 L113.652275,33.6459836 L113.652275,28.0243621 Z" id="Fill-80" fill="#666464" mask="url(#mask-4)"></path>
            </g>
        </g>
    </g>
</svg>