<svg width="122" height="34" viewBox="0 0 122 34" fill="none" xmlns="http://www.w3.org/2000/svg">
<path d="M34.3003 10.5473C33.9246 7.90088 32.5796 5.47639 30.5134 3.72154C28.4473 1.96669 25.7997 1 23.0595 1C20.3194 1 17.6718 1.96669 15.6056 3.72154C13.5395 5.47639 12.1944 7.90088 11.8188 10.5473C8.98979 10.9204 6.40927 12.3202 4.59251 14.4671C2.77575 16.6141 1.85647 19.3502 2.01823 22.1291C2.18 24.9079 3.4109 27.5251 5.46515 29.4578C7.5194 31.3906 10.2458 32.4967 13.0999 32.5553C13.147 32.5577 13.1942 32.5577 13.2412 32.5553H13.3826C13.8011 32.5229 14.1916 32.3379 14.4764 32.0372C14.7612 31.7365 14.9192 31.3421 14.919 30.9328V26.3365C14.9309 26.1142 14.8963 25.8919 14.8172 25.6831C14.7381 25.4743 14.6163 25.2834 14.4591 25.1219C14.302 24.9605 14.1127 24.8319 13.903 24.7441C13.6932 24.6562 13.4673 24.6109 13.239 24.6109C13.0107 24.6109 12.7848 24.6562 12.575 24.7441C12.3652 24.8319 12.176 24.9605 12.0188 25.1219C11.8616 25.2834 11.7398 25.4743 11.6607 25.6831C11.5817 25.8919 11.547 26.1142 11.5589 26.3365V29.0881C10.0989 28.7523 8.76539 28.0222 7.71135 26.9815C6.6573 25.9409 5.92532 24.6317 5.59931 23.204C5.2733 21.7764 5.36645 20.2881 5.86808 18.9097C6.36971 17.5313 7.25953 16.3186 8.43554 15.4106C9.61156 14.5026 11.0262 13.936 12.5173 13.7758C14.0083 13.6156 15.5156 13.8683 16.8661 14.5048C18.2167 15.1414 19.356 16.136 20.1535 17.3749C20.9509 18.6137 21.3742 20.0465 21.3749 21.5091C21.3739 23.634 22.0001 25.7144 23.1786 27.5018C24.3572 29.2893 26.0384 30.7084 28.0215 31.5897C30.0047 32.4711 32.2061 32.7774 34.363 32.4723C36.5198 32.1671 38.5411 31.2633 40.1855 29.8687C41.8299 28.4741 43.028 26.6476 43.6368 24.6072C44.2457 22.5669 44.2395 20.3988 43.619 18.3618C42.9985 16.3248 41.79 14.5048 40.1376 13.1192C38.4853 11.7335 36.4589 10.8407 34.3003 10.5473V10.5473ZM32.7502 29.3015C30.6308 29.3003 28.5987 28.4789 27.1001 27.0178C25.6015 25.5567 24.7591 23.5754 24.7578 21.5091C24.7582 21.1498 24.7399 20.7908 24.7031 20.4333C24.7031 20.3133 24.6667 20.1977 24.653 20.0822C24.6211 19.8466 24.5892 19.611 24.5436 19.3843C24.5162 19.2465 24.4797 19.1131 24.4478 18.9798C24.3977 18.7753 24.3475 18.5664 24.2837 18.3663C24.2199 18.1663 24.1925 18.0907 24.1469 17.9529C24.1013 17.8151 24.0101 17.5751 23.9326 17.3884C23.8551 17.2017 23.8186 17.1172 23.7548 16.9839C23.691 16.8505 23.5861 16.6283 23.4904 16.4505C23.3946 16.2727 23.3536 16.1926 23.2807 16.0682C23.2077 15.9437 23.0709 15.7303 22.9615 15.5614C22.8521 15.3925 22.8065 15.3214 22.7199 15.2014C22.6332 15.0813 22.4782 14.8769 22.3506 14.7168L22.0907 14.3968C21.9448 14.2279 21.7898 14.0678 21.6348 13.9078C21.5527 13.8234 21.4706 13.7345 21.384 13.65C21.1652 13.4366 20.9281 13.2322 20.691 13.0321L20.6181 12.9699C20.3491 12.7521 20.071 12.552 19.7883 12.3653C19.688 12.2987 19.5877 12.2409 19.4874 12.1786C19.2913 12.0586 19.0999 11.9386 18.8992 11.8319C18.7761 11.7652 18.6485 11.7075 18.5254 11.6452C18.4023 11.583 18.147 11.4585 17.9555 11.3785L17.5452 11.214L16.9661 11.0051L16.5102 10.8762C16.3142 10.8229 16.1136 10.7695 15.913 10.7251L15.457 10.6362C15.3704 10.6362 15.2929 10.5962 15.2063 10.5828C15.5845 8.67904 16.6773 6.98117 18.271 5.82098C19.8646 4.66078 21.8448 4.12162 23.8244 4.30886C25.804 4.49609 27.6409 5.39626 28.9762 6.83348C30.3114 8.27069 31.0491 10.1417 31.045 12.0809C31.0462 12.5151 31.224 12.9312 31.5394 13.2378C31.8547 13.5445 32.282 13.7167 32.7274 13.7167C34.8471 13.7167 36.8799 14.5377 38.3788 15.999C39.8776 17.4604 40.7197 19.4424 40.7197 21.5091C40.7197 23.5757 39.8776 25.5578 38.3788 27.0191C36.8799 28.4805 34.8471 29.3015 32.7274 29.3015H32.7502Z" fill="url(#paint0_linear_432_16115)"/>
<path d="M11.5586 21.509C11.5586 21.8335 11.6573 22.1506 11.8421 22.4203C12.027 22.6901 12.2897 22.9003 12.5971 23.0245C12.9045 23.1486 13.2428 23.1811 13.5692 23.1178C13.8955 23.0545 14.1953 22.8983 14.4306 22.6689C14.6658 22.4395 14.8261 22.1472 14.891 21.829C14.9559 21.5109 14.9226 21.1811 14.7952 20.8813C14.6679 20.5816 14.4523 20.3254 14.1756 20.1452C13.899 19.965 13.5737 19.8688 13.2409 19.8688C12.7948 19.8688 12.3668 20.0416 12.0513 20.3492C11.7358 20.6568 11.5586 21.074 11.5586 21.509V21.509Z" fill="url(#paint1_linear_432_16115)"/>
<path d="M118.422 5.75537H104.43V7.29785H118.422V5.75537Z" fill="#666464"/>
<path d="M120 10.2985H102.848V11.8365H120V10.2985Z" fill="#666464"/>
<path d="M118.254 21.4159H104.371C104.238 21.4151 104.107 21.3817 103.991 21.3188C103.875 21.2558 103.776 21.1654 103.705 21.0558C103.634 20.9466 103.593 20.8216 103.585 20.6926C103.577 20.5635 103.603 20.4346 103.66 20.3179L108.397 10.4896L109.828 11.1475L105.62 19.8734H117.164L115.473 14.8014L116.973 14.3258L119.006 20.4068C119.044 20.5222 119.054 20.6449 119.034 20.7647C119.015 20.8845 118.966 20.998 118.892 21.0958C118.819 21.1943 118.723 21.2746 118.612 21.3303C118.501 21.3859 118.378 21.4152 118.254 21.4159V21.4159Z" fill="#666464"/>
<path d="M71.9596 10.054H66.2651V11.6187H71.9596V10.054Z" fill="#666464"/>
<path d="M74.4945 12.5565H63.7256V14.1212H74.4945V12.5565Z" fill="#666464"/>
<path d="M74.4945 6.08862H63.7256V7.65333H74.4945V6.08862Z" fill="#666464"/>
<path d="M69.9169 4.37744H68.312V6.65782H69.9169V4.37744Z" fill="#666464"/>
<path d="M68.095 6.29565L63.0684 10.869L64.1633 12.013L69.1899 7.43962L68.095 6.29565Z" fill="#666464"/>
<path d="M74.0565 12.0231L69.0322 7.44898L70.1264 6.30212L75.1461 10.8807L74.0565 12.0231Z" fill="#666464"/>
<path d="M61.8972 13.3922H58.6875V14.9569H61.8972V13.3922Z" fill="#666464"/>
<path d="M56.6268 11.1475H55.022V6.34669C55.022 6.13919 55.1065 5.9402 55.257 5.79348C55.4075 5.64676 55.6116 5.56433 55.8244 5.56433H61.0949V7.12904H56.6268V11.1475Z" fill="#666464"/>
<path d="M67.4274 22.4293L66.9031 20.9535L72.5474 19.0465V17.2684H65.1205C64.9782 17.2685 64.8385 17.2314 64.7158 17.161C64.5932 17.0907 64.492 16.9896 64.4229 16.8684C64.3512 16.7482 64.3135 16.6117 64.3135 16.4728C64.3135 16.3338 64.3512 16.1973 64.4229 16.0771L66.2466 13.1433L67.6144 13.9523L66.5202 15.7037H73.359C73.5718 15.7037 73.7759 15.7862 73.9264 15.9329C74.0769 16.0796 74.1614 16.2786 74.1614 16.4861V19.5977C74.1615 19.7605 74.1098 19.9193 74.0135 20.0523C73.9171 20.1852 73.7808 20.2858 73.6234 20.3401L67.4274 22.4293Z" fill="#666464"/>
<path d="M55.8244 21.6381C55.6623 21.6427 55.5029 21.5976 55.3685 21.5092C55.2582 21.4372 55.1678 21.3401 55.105 21.2261C55.0422 21.1122 55.009 20.985 55.0083 20.8557V13.9657H56.6131V19.6689L62.4809 17.2018L63.1146 18.6376L56.139 21.5758C56.0392 21.616 55.9324 21.6372 55.8244 21.6381V21.6381Z" fill="#666464"/>
<path d="M59.4855 11.6719H57.8853V19.3976H59.4855V11.6719Z" fill="#666464"/>
<path d="M61.0949 11.9298H55.022V10.3651H60.2924V5.57324H61.8973V11.1608C61.8937 11.366 61.8076 11.5616 61.6575 11.7054C61.5074 11.8493 61.3053 11.9299 61.0949 11.9298V11.9298Z" fill="#666464"/>
<path d="M94.7875 9.49822C94.2254 8.88053 93.8181 8.14404 93.5976 7.34675C93.4471 6.84392 93.3523 6.3268 93.3149 5.80427V5.71981C93.2945 5.54659 93.2083 5.38711 93.0732 5.27275C92.9382 5.1584 92.7642 5.09746 92.5854 5.10193H85.9746H85.5962C85.5039 5.09897 85.412 5.11375 85.3257 5.14544C85.2393 5.17713 85.1602 5.2251 85.0929 5.28661C85.0256 5.34812 84.9713 5.42197 84.9333 5.50393C84.8953 5.58589 84.8742 5.67435 84.8712 5.76426V5.88873C84.8418 6.52083 84.73 7.1467 84.5384 7.75126C84.2828 8.56729 83.7383 9.26832 83.002 9.72937C82.0863 10.2939 81.016 10.573 79.9336 10.5295V11.9831C81.5665 12.0479 83.1794 11.6144 84.5475 10.7429C85.3114 10.2382 85.9299 9.55103 86.3439 8.74698C86.6985 8.04892 86.9297 7.2975 87.0277 6.52439H91.204C91.3313 7.29449 91.5708 8.04291 91.9152 8.74698C92.4029 9.82027 93.2457 10.703 94.3088 11.2541C95.273 11.7233 96.3361 11.9668 97.4136 11.9653V10.5117C96.926 10.5453 96.4369 10.4716 95.9824 10.2962C95.5278 10.1208 95.1195 9.84808 94.7875 9.49822Z" fill="#666464"/>
<path d="M89.435 15.9171H96.8483V14.4635H89.435V9.64941H87.8165V19.9845H84.3652V13.0766H82.7512V19.9845H79.9336V21.4425H97.3635V19.9845H89.435V15.9171Z" fill="#666464"/>
<path d="M55.6053 25.6965C55.7389 25.6903 55.8696 25.7349 55.97 25.821C56.0154 25.8642 56.051 25.9162 56.0745 25.9736C56.0981 26.031 56.1091 26.0926 56.1068 26.1543C56.1084 26.2154 56.0971 26.2761 56.0736 26.3327C56.05 26.3893 56.0148 26.4406 55.97 26.4833C55.8692 26.5682 55.7383 26.6112 55.6053 26.6033C55.4726 26.6094 55.3424 26.5665 55.2406 26.4833C55.1958 26.4406 55.1606 26.3893 55.1371 26.3327C55.1135 26.2761 55.1022 26.2154 55.1038 26.1543C55.1016 26.0926 55.1126 26.031 55.1361 25.9736C55.1597 25.9162 55.1953 25.8642 55.2406 25.821C55.3417 25.7361 55.472 25.6916 55.6053 25.6965V25.6965ZM55.9883 27.2345V31.4219H55.2223V27.2345H55.9883Z" fill="#666464"/>
<path d="M62.9046 29.4794H59.6493C59.6437 29.8793 59.7898 30.2671 60.0596 30.5684C60.189 30.6987 60.3454 30.8006 60.5184 30.8672C60.6913 30.9339 60.8769 30.9639 61.0626 30.9552C61.3106 30.9671 61.5567 30.9068 61.7693 30.7818C61.961 30.6481 62.1084 30.4627 62.1933 30.2484L62.8179 30.5195C62.5444 31.1774 61.9608 31.5108 61.0718 31.5108C60.6683 31.5182 60.2697 31.4248 59.9137 31.2396C59.589 31.0625 59.3243 30.7968 59.1523 30.4751C58.9674 30.1233 58.875 29.7323 58.8833 29.3371C58.8769 28.9426 58.9676 28.5524 59.1478 28.1991C59.3115 27.8787 59.565 27.6101 59.8789 27.4244C60.1928 27.2387 60.5542 27.1436 60.9213 27.1501C61.2947 27.1416 61.6635 27.2323 61.9882 27.4123C62.2892 27.5904 62.5289 27.852 62.6766 28.1636C62.8404 28.5245 62.9213 28.9159 62.9137 29.3104C62.9147 29.3669 62.9117 29.4233 62.9046 29.4794ZM59.6766 28.9593H62.1477C62.1361 28.6183 62.0041 28.2917 61.7739 28.0347C61.545 27.8262 61.2436 27.7103 60.9304 27.7103C60.6173 27.7103 60.3158 27.8262 60.087 28.0347C59.8479 28.2894 59.7034 28.615 59.6766 28.9593Z" fill="#666464"/>
<path d="M69.917 29.3371C69.9271 29.7261 69.846 30.1123 69.6799 30.4661C69.5272 30.7779 69.2909 31.0436 68.996 31.2351C68.701 31.4193 68.357 31.5152 68.0067 31.5107C67.6882 31.5144 67.3741 31.4378 67.0948 31.2885C66.8314 31.1406 66.6127 30.9275 66.4611 30.6706C66.4611 31.0351 66.4337 31.2885 66.4155 31.4218H65.7407C65.7635 31.1685 65.7726 30.8395 65.7726 30.4395V25.4786H66.534V27.8835C66.6885 27.6529 66.9023 27.4659 67.1541 27.3412C67.4209 27.2095 67.7168 27.1439 68.0158 27.15C68.3646 27.1462 68.7069 27.242 69.0006 27.4256C69.2958 27.6174 69.5309 27.8851 69.6799 28.1991C69.8466 28.5559 69.9277 28.9451 69.917 29.3371V29.3371ZM69.151 29.3371C69.1573 29.0446 69.1014 28.754 68.9869 28.4836C68.8929 28.2558 68.7349 28.0586 68.531 27.9146C68.325 27.7797 68.0815 27.7098 67.8334 27.7146C67.5898 27.7111 67.351 27.781 67.1495 27.9146C66.9471 28.062 66.7895 28.2602 66.6936 28.488C66.4747 29.0324 66.4747 29.6373 66.6936 30.1816C66.789 30.4086 66.9468 30.6054 67.1495 30.7506C67.3496 30.8874 67.589 30.959 67.8334 30.9551C68.0806 30.9591 68.3229 30.8876 68.5264 30.7506C68.7303 30.6066 68.8884 30.4094 68.9823 30.1816C69.0981 29.9146 69.1555 29.6269 69.151 29.3371V29.3371Z" fill="#666464"/>
<path d="M72.657 28.3279C72.654 28.109 72.7244 27.8952 72.8576 27.7189C73.0023 27.5309 73.1981 27.3861 73.4229 27.3011C73.6829 27.1961 73.9623 27.1447 74.2436 27.15C74.6127 27.1367 74.979 27.2179 75.3059 27.3856C75.4362 27.4506 75.5516 27.541 75.6449 27.651C75.7382 27.7611 75.8074 27.8886 75.8484 28.0257L75.2557 28.2701C75.2044 28.0884 75.088 27.9307 74.9275 27.8256C74.7268 27.7186 74.4992 27.6693 74.2709 27.6834C74.0483 27.6702 73.8269 27.7246 73.6372 27.839C73.5639 27.8883 73.5045 27.955 73.4647 28.0327C73.4248 28.1104 73.4058 28.1967 73.4092 28.2835C73.4059 28.3654 73.4249 28.4468 73.4641 28.5194C73.5033 28.592 73.5614 28.6532 73.6326 28.6969C73.8835 28.82 74.1556 28.8969 74.4351 28.9236C74.8591 28.9625 75.2634 29.1165 75.6022 29.3681C75.8115 29.5627 75.9422 29.824 75.9707 30.1046C75.9991 30.3852 75.9234 30.6665 75.7572 30.8972C75.6047 31.0988 75.3957 31.2531 75.1554 31.3418C74.8796 31.4531 74.5831 31.5075 74.2846 31.5018C73.8728 31.5167 73.4641 31.4263 73.0992 31.2395C72.7992 31.0773 72.5754 30.808 72.4746 30.4883L73.0673 30.2482C73.1396 30.4667 73.2859 30.6548 73.4822 30.7817C73.7165 30.9111 73.9838 30.9727 74.2527 30.9595C74.5042 30.9731 74.7535 30.9076 74.9639 30.7728C75.0411 30.7115 75.1034 30.6342 75.1461 30.5466C75.1889 30.4589 75.211 30.3631 75.211 30.266C75.211 30.169 75.1889 30.0731 75.1461 29.9855C75.1034 29.8978 75.0411 29.8206 74.9639 29.7593C74.7026 29.6127 74.4117 29.5233 74.1114 29.497C73.7104 29.4603 73.3266 29.3208 72.9989 29.0925C72.8864 28.9985 72.7971 28.8809 72.7379 28.7485C72.6787 28.6161 72.651 28.4723 72.657 28.3279V28.3279Z" fill="#666464"/>
<path d="M82.6735 27.2345L80.941 31.4219H80.1067L78.3423 27.2345H79.1857L80.5216 30.7906L81.8574 27.2345H82.6735Z" fill="#666464"/>
<path d="M85.7511 25.6964C85.8846 25.6907 86.0152 25.7352 86.1158 25.8209C86.1604 25.8645 86.1951 25.9167 86.2178 25.974C86.2406 26.0314 86.2509 26.0928 86.2481 26.1543C86.2503 26.215 86.2397 26.2755 86.2169 26.3321C86.1942 26.3887 86.1598 26.4401 86.1158 26.4832C86.0145 26.5673 85.884 26.6102 85.7511 26.6032C85.6184 26.6093 85.4882 26.5665 85.3864 26.4832C85.3394 26.4419 85.3023 26.3911 85.2779 26.3342C85.2535 26.2773 85.2423 26.2159 85.245 26.1543C85.2434 26.0922 85.2551 26.0304 85.2795 25.973C85.3038 25.9155 85.3402 25.8637 85.3864 25.8209C85.4875 25.736 85.6178 25.6916 85.7511 25.6964V25.6964ZM86.1295 27.2344V31.4218H85.3636V27.2344H86.1295Z" fill="#666464"/>
<path d="M93.3878 29.3372C93.3937 29.7272 93.308 30.1135 93.1371 30.4662C92.9874 30.7799 92.7505 31.0463 92.4532 31.2352C92.1598 31.4193 91.8173 31.5152 91.4684 31.5108C91.1695 31.517 90.8735 31.4513 90.6067 31.3197C90.3536 31.1951 90.1383 31.0081 89.9821 30.7774V33H89.2253V28.217C89.2253 27.8302 89.2253 27.5013 89.1934 27.2346H89.8636C89.8966 27.4851 89.9119 27.7376 89.9092 27.9903C90.0599 27.7312 90.2807 27.5175 90.5474 27.3724C90.8263 27.2219 91.1406 27.1453 91.4593 27.1501C91.8066 27.1469 92.1473 27.2427 92.4395 27.4257C92.7393 27.615 92.978 27.8832 93.128 28.1992C93.3024 28.5542 93.3913 28.9435 93.3878 29.3372V29.3372ZM92.6173 29.3372C92.6236 29.0447 92.5677 28.7541 92.4532 28.4837C92.3608 28.255 92.2025 28.0574 91.9973 27.9147C91.7914 27.7798 91.5478 27.7099 91.2997 27.7147C91.0574 27.7107 90.8199 27.7806 90.6204 27.9147C90.417 28.0611 90.2592 28.2596 90.1645 28.4881C89.9456 29.0325 89.9456 29.6374 90.1645 30.1817C90.2582 30.4096 90.4163 30.6069 90.6204 30.7507C90.8184 30.8883 91.0566 30.96 91.2997 30.9552C91.547 30.9598 91.7895 30.8882 91.9927 30.7507C92.1967 30.6067 92.3547 30.4095 92.4487 30.1817C92.5628 29.9143 92.6187 29.6267 92.6128 29.3372H92.6173Z" fill="#666464"/>
<path d="M96.7206 30.5641C96.8556 30.5567 96.9883 30.6015 97.0899 30.6886C97.1346 30.7313 97.1699 30.7826 97.1934 30.8392C97.2169 30.8958 97.2282 30.9565 97.2266 31.0176C97.2289 31.0793 97.2179 31.1409 97.1943 31.1983C97.1708 31.2557 97.1352 31.3077 97.0899 31.3509C96.9853 31.4313 96.856 31.4751 96.7228 31.4751C96.5897 31.4751 96.4604 31.4313 96.3558 31.3509C96.3097 31.3081 96.2733 31.2563 96.2489 31.1989C96.2246 31.1414 96.2128 31.0797 96.2145 31.0176C96.211 30.9559 96.222 30.8942 96.2464 30.8373C96.2709 30.7803 96.3083 30.7295 96.3558 30.6886C96.456 30.6021 96.5869 30.5574 96.7206 30.5641V30.5641Z" fill="#666464"/>
<path d="M102.137 27.15C102.517 27.1346 102.893 27.2257 103.222 27.4122C103.482 27.5666 103.675 27.8086 103.765 28.0924L103.117 28.368C103.071 28.1889 102.961 28.0315 102.807 27.9234C102.614 27.801 102.385 27.7419 102.155 27.7545C101.909 27.7497 101.668 27.8179 101.462 27.9501C101.261 28.0916 101.104 28.2837 101.006 28.5058C100.891 28.7729 100.835 29.0607 100.842 29.3503C100.836 29.6371 100.892 29.9219 101.006 30.186C101.102 30.409 101.26 30.6015 101.462 30.7417C101.667 30.8758 101.909 30.9442 102.155 30.9373C102.693 30.9373 103.012 30.7328 103.117 30.3194L103.765 30.5817C103.676 30.8661 103.481 31.1075 103.218 31.2573C102.891 31.4463 102.516 31.5389 102.137 31.524C101.759 31.5301 101.387 31.4347 101.061 31.2484C100.747 31.0645 100.493 30.798 100.327 30.4794C100.145 30.1299 100.054 29.7422 100.063 29.3503C100.054 28.9557 100.145 28.5651 100.327 28.2124C100.493 27.8938 100.747 27.6273 101.061 27.4434C101.384 27.2489 101.757 27.1472 102.137 27.15V27.15Z" fill="#666464"/>
<path d="M108.401 27.15C108.78 27.1444 109.152 27.2413 109.477 27.43C109.793 27.6137 110.049 27.8802 110.216 28.199C110.396 28.5525 110.486 28.9426 110.48 29.337C110.486 29.7286 110.396 30.1158 110.216 30.4661C110.049 30.785 109.793 31.0515 109.477 31.2351C109.148 31.4158 108.777 31.5107 108.399 31.5107C108.021 31.5107 107.65 31.4158 107.321 31.2351C107.003 31.054 106.747 30.7868 106.582 30.4661C106.4 30.1166 106.31 29.7288 106.318 29.337C106.31 28.9424 106.401 28.5518 106.582 28.199C106.747 27.8783 107.003 27.6111 107.321 27.43C107.647 27.2403 108.022 27.1433 108.401 27.15V27.15ZM108.401 27.7145C108.156 27.7105 107.916 27.7803 107.713 27.9146C107.51 28.0609 107.352 28.2594 107.257 28.488C107.038 29.0324 107.038 29.6372 107.257 30.1816C107.351 30.4095 107.509 30.6068 107.713 30.7506C107.916 30.8819 108.154 30.9519 108.397 30.9519C108.64 30.9519 108.878 30.8819 109.081 30.7506C109.285 30.6068 109.443 30.4095 109.537 30.1816C109.756 29.6372 109.756 29.0324 109.537 28.488C109.442 28.2594 109.284 28.0609 109.081 27.9146C108.88 27.7821 108.644 27.7123 108.401 27.7145V27.7145Z" fill="#666464"/>
<path d="M119.713 28.5058V31.4218H118.961V28.6125C118.97 28.4928 118.955 28.3724 118.916 28.2586C118.877 28.1447 118.815 28.0398 118.733 27.9502C118.54 27.795 118.293 27.7185 118.044 27.7368C117.89 27.73 117.736 27.7559 117.592 27.8127C117.449 27.8694 117.32 27.9558 117.214 28.0657C116.993 28.3101 116.88 28.6296 116.9 28.9548V31.4396H116.143V28.6303C116.161 28.5094 116.151 28.3859 116.111 28.2699C116.072 28.1538 116.005 28.0483 115.917 27.9619C115.828 27.8754 115.72 27.8104 115.601 27.7721C115.482 27.7338 115.355 27.7232 115.231 27.7412C115.077 27.7344 114.923 27.7603 114.779 27.8171C114.636 27.8739 114.507 27.9602 114.401 28.0702C114.179 28.3138 114.064 28.6334 114.082 28.9592V31.4441H113.325V28.2391C113.325 27.8524 113.325 27.5234 113.293 27.2567H113.964C113.996 27.479 114.013 27.7033 114.014 27.9279C114.259 27.5808 114.626 27.3329 115.046 27.2307C115.466 27.1284 115.909 27.1787 116.293 27.3723C116.517 27.503 116.689 27.7035 116.781 27.9413C116.931 27.6887 117.151 27.4825 117.415 27.3464C117.68 27.2103 117.978 27.15 118.277 27.1723C118.467 27.1612 118.657 27.1873 118.836 27.2492C119.015 27.311 119.18 27.4073 119.321 27.5323C119.45 27.6604 119.551 27.8127 119.619 27.98C119.686 28.1473 119.718 28.3262 119.713 28.5058V28.5058Z" fill="#666464"/>
<defs>
<linearGradient id="paint0_linear_432_16115" x1="10.2003" y1="8.97367" x2="35.2675" y2="34.684" gradientUnits="userSpaceOnUse">
<stop stop-color="#0173FF"/>
<stop offset="1" stop-color="#0147AD"/>
</linearGradient>
<linearGradient id="paint1_linear_432_16115" x1="11.5586" y1="21.509" x2="14.9187" y2="21.509" gradientUnits="userSpaceOnUse">
<stop stop-color="#0173FF"/>
<stop offset="1" stop-color="#0147AD"/>
</linearGradient>
</defs>
</svg>
