<svg width="44" height="36" viewBox="0 0 44 36" fill="none" xmlns="http://www.w3.org/2000/svg">
<path d="M32.7 11.3698C32.3313 8.77262 31.0112 6.3932 28.9835 4.67096C26.9558 2.94872 24.3574 2 21.6681 2C18.9789 2 16.3805 2.94872 14.3528 4.67096C12.325 6.3932 11.005 8.77262 10.6363 11.3698C7.85988 11.736 5.32732 13.1098 3.54433 15.2169C1.76133 17.3239 0.859135 20.0092 1.01789 22.7364C1.17665 25.4636 2.38468 28.0321 4.40075 29.9289C6.41682 31.8257 9.09255 32.9113 11.8936 32.9689C11.9398 32.9712 11.9861 32.9712 12.0323 32.9689H12.171C12.5817 32.937 12.965 32.7555 13.2445 32.4603C13.524 32.1652 13.6791 31.7782 13.6789 31.3765V26.8657C13.6906 26.6475 13.6566 26.4293 13.579 26.2244C13.5014 26.0194 13.3818 25.832 13.2276 25.6736C13.0733 25.5152 12.8876 25.389 12.6817 25.3028C12.4759 25.2165 12.2542 25.1721 12.0301 25.1721C11.806 25.1721 11.5843 25.2165 11.3784 25.3028C11.1726 25.389 10.9869 25.5152 10.8326 25.6736C10.6783 25.832 10.5588 26.0194 10.4812 26.2244C10.4036 26.4293 10.3696 26.6475 10.3812 26.8657V29.5661C8.94833 29.2365 7.63966 28.52 6.6052 27.4987C5.57074 26.4773 4.85237 25.1925 4.53242 23.7914C4.21247 22.3903 4.30388 20.9296 4.79619 19.5769C5.2885 18.2241 6.16178 17.0339 7.31594 16.1428C8.47009 15.2517 9.85842 14.6956 11.3218 14.5384C12.7852 14.3812 14.2644 14.6291 15.5899 15.2538C16.9153 15.8785 18.0335 16.8547 18.8161 18.0705C19.5987 19.2863 20.0142 20.6925 20.0148 22.1279C20.0138 24.2134 20.6283 26.2551 21.785 28.0093C22.9417 29.7635 24.5916 31.1563 26.5379 32.0212C28.4842 32.8862 30.6447 33.1868 32.7615 32.8873C34.8783 32.5878 36.862 31.7008 38.4758 30.3321C40.0897 28.9635 41.2655 27.1709 41.863 25.1685C42.4605 23.166 42.4544 21.0383 41.8455 19.0391C41.2366 17.0399 40.0505 15.2538 38.4288 13.8939C36.8072 12.5341 34.8184 11.6578 32.7 11.3698V11.3698ZM31.1787 29.7755C29.0987 29.7743 27.1043 28.9682 25.6336 27.5343C24.1628 26.1003 23.3361 24.1558 23.3349 22.1279C23.3352 21.7753 23.3173 21.423 23.2812 21.0722C23.2812 20.9544 23.2454 20.8409 23.232 20.7275C23.2007 20.4963 23.1693 20.2651 23.1246 20.0426C23.0977 19.9074 23.0619 19.7765 23.0306 19.6456C22.9814 19.4449 22.9322 19.2399 22.8695 19.0436C22.8069 18.8473 22.78 18.7731 22.7353 18.6379C22.6906 18.5026 22.6011 18.267 22.525 18.0838C22.4489 17.9006 22.4131 17.8177 22.3505 17.6868C22.2879 17.5559 22.1849 17.3378 22.091 17.1633C21.997 16.9888 21.9567 16.9103 21.8851 16.7881C21.8136 16.666 21.6793 16.4566 21.5719 16.2908C21.4645 16.125 21.4198 16.0552 21.3348 15.9374C21.2498 15.8196 21.0976 15.619 20.9724 15.4619L20.7173 15.1478C20.5741 14.982 20.422 14.825 20.2699 14.6679C20.1893 14.585 20.1088 14.4978 20.0238 14.4149C19.809 14.2055 19.5763 14.0048 19.3436 13.8085L19.272 13.7474C19.0081 13.5337 18.7351 13.3373 18.4577 13.1541C18.3593 13.0887 18.2608 13.032 18.1624 12.9709C17.97 12.8531 17.782 12.7353 17.5852 12.6306C17.4644 12.5652 17.3391 12.5085 17.2183 12.4474C17.0974 12.3863 16.8469 12.2642 16.6589 12.1856L16.2562 12.0242L15.688 11.8192L15.2405 11.6927C15.0481 11.6403 14.8513 11.588 14.6544 11.5443L14.2069 11.4571C14.1219 11.4571 14.0458 11.4178 13.9608 11.4047C14.3321 9.53633 15.4045 7.87001 16.9686 6.73138C18.5326 5.59274 20.4759 5.06361 22.4188 5.24736C24.3616 5.43112 26.1644 6.31456 27.4748 7.72506C28.7853 9.13557 29.5092 10.9718 29.5052 12.8749C29.5064 13.3011 29.6809 13.7094 29.9904 14.0104C30.2999 14.3113 30.7192 14.4803 31.1563 14.4803C33.2366 14.4803 35.2317 15.2861 36.7027 16.7203C38.1737 18.1545 39.0001 20.0996 39.0001 22.1279C39.0001 24.1562 38.1737 26.1014 36.7027 27.5356C35.2317 28.9698 33.2366 29.7755 31.1563 29.7755H31.1787Z" fill="url(#paint0_linear_432_16168)"/>
<path d="M10.3813 22.128C10.3813 22.4464 10.4782 22.7576 10.6596 23.0223C10.841 23.2871 11.0989 23.4934 11.4006 23.6152C11.7023 23.7371 12.0343 23.7689 12.3545 23.7068C12.6748 23.6447 12.969 23.4914 13.1999 23.2663C13.4308 23.0411 13.5881 22.7543 13.6518 22.442C13.7155 22.1298 13.6828 21.8061 13.5578 21.5119C13.4329 21.2178 13.2212 20.9664 12.9497 20.7895C12.6782 20.6126 12.359 20.5182 12.0324 20.5182C11.5945 20.5182 11.1746 20.6878 10.8649 20.9897C10.5553 21.2916 10.3813 21.701 10.3813 22.128V22.128Z" fill="url(#paint1_linear_432_16168)"/>
<defs>
<linearGradient id="paint0_linear_432_16168" x1="9.04785" y1="9.82548" x2="33.6492" y2="35.058" gradientUnits="userSpaceOnUse">
<stop stop-color="#0173FF"/>
<stop offset="1" stop-color="#0147AD"/>
</linearGradient>
<linearGradient id="paint1_linear_432_16168" x1="10.3813" y1="22.128" x2="13.679" y2="22.128" gradientUnits="userSpaceOnUse">
<stop stop-color="#0173FF"/>
<stop offset="1" stop-color="#0147AD"/>
</linearGradient>
</defs>
</svg>
