<svg width="44" height="36" viewBox="0 0 44 36" fill="none" xmlns="http://www.w3.org/2000/svg">
<g id="LOGO">
<g id="&#231;&#188;&#150;&#231;&#187;&#132;">
<mask id="mask0_403_23545" style="mask-type:alpha" maskUnits="userSpaceOnUse" x="0" y="1" width="44" height="34">
<path id="Clip 2" fill-rule="evenodd" clip-rule="evenodd" d="M0 1H44V34.3961H0V1Z" fill="white"/>
</mask>
<g mask="url(#mask0_403_23545)">
<path id="Fill 1" fill-rule="evenodd" clip-rule="evenodd" d="M32.1186 30.9304C27.5088 30.9304 23.7578 27.2327 23.7578 22.6879C23.7578 22.303 23.7363 21.9236 23.6992 21.548C23.6867 21.4233 23.6641 21.3013 23.6477 21.1769C23.6149 20.9291 23.5809 20.6816 23.5325 20.4384C23.504 20.2941 23.4662 20.154 23.4326 20.0116C23.3803 19.7938 23.3272 19.5767 23.2628 19.3639C23.2186 19.2169 23.1679 19.0722 23.1175 18.9278C23.0484 18.7258 22.9758 18.5264 22.8954 18.3302C22.8364 18.1858 22.7736 18.0438 22.7084 17.9014C22.6217 17.7113 22.53 17.5243 22.4332 17.3391C22.3609 17.2017 22.2875 17.0655 22.2102 16.9312C22.106 16.7495 21.9947 16.5725 21.8804 16.397C21.7976 16.2689 21.716 16.1411 21.6278 16.0168C21.5032 15.8409 21.3709 15.6716 21.2374 15.5026C21.1472 15.3887 21.0601 15.2732 20.966 15.1628C20.8146 14.9854 20.6537 14.8172 20.4921 14.649C20.4039 14.5574 20.3207 14.4619 20.2297 14.3734C19.9974 14.1467 19.7546 13.9305 19.504 13.723C19.477 13.7003 19.4528 13.6757 19.4251 13.653C19.1468 13.4271 18.8563 13.2146 18.558 13.0133C18.4558 12.9448 18.348 12.8844 18.2434 12.819C18.0404 12.6912 17.8374 12.565 17.6265 12.4495C17.4993 12.3795 17.3669 12.3183 17.2369 12.2529C17.0406 12.1547 16.8434 12.0574 16.6408 11.9696C16.4991 11.9084 16.3546 11.8534 16.2102 11.7976C16.0103 11.7202 15.81 11.6456 15.6047 11.579C15.454 11.5297 15.3021 11.4851 15.1487 11.4416C14.9418 11.3827 14.7325 11.3296 14.5209 11.2819C14.3647 11.2472 14.2086 11.2141 14.0505 11.1853C13.9626 11.1687 13.8775 11.1456 13.7893 11.1314C14.54 7.33822 17.9361 4.4668 21.9994 4.4668C26.6101 4.4668 30.3606 8.16644 30.3606 12.7128C30.3606 13.6699 31.1481 14.4462 32.1186 14.4462C36.7312 14.4462 40.4837 18.1431 40.4837 22.6879C40.4837 27.2327 36.7312 30.9304 32.1186 30.9304M33.7637 11.0906C32.9607 5.397 27.9916 1 21.9994 1C16.0036 1 11.0439 5.40585 10.2444 11.1033C4.46724 11.8919 -0.00012207 16.7788 -0.00012207 22.6875C-0.00012207 29.0458 5.17074 34.2248 11.5831 34.3818C11.6331 34.3857 11.6811 34.3964 11.7318 34.3964C11.749 34.3964 11.7642 34.3918 11.781 34.3911C11.8142 34.3914 11.8458 34.3964 11.879 34.3964V34.3818C12.78 34.3068 13.4902 33.5705 13.4902 32.663V27.7923C13.4902 26.8344 12.7031 26.0589 11.7318 26.0589C10.7609 26.0589 9.97385 26.8344 9.97385 27.7923V30.706C6.2787 29.8528 3.51622 26.5857 3.51622 22.6875C3.51622 18.1427 7.2668 14.4458 11.8767 14.4458C14.7594 14.4458 17.3064 15.8898 18.811 18.0827C19.714 19.3981 20.2414 20.9834 20.2414 22.6875C20.2414 29.1435 25.57 34.3964 32.1186 34.3964C38.6699 34.3964 44 29.1435 44 22.6875C44 16.7811 39.5393 11.8826 33.7637 11.0906" fill="#16ADE9"/>
</g>
</g>
<path id="Fill 3" fill-rule="evenodd" clip-rule="evenodd" d="M9.83228 22.6861V22.6873C9.83228 23.6448 10.6085 24.4195 11.5657 24.4195C12.5224 24.4195 13.2987 23.6433 13.2987 22.6861C13.2987 21.729 12.5224 20.9531 11.5657 20.9531C10.6085 20.9531 9.83228 21.729 9.83228 22.6861" fill="#FBB73C"/>
</g>
</svg>
