<?xml version="1.0" encoding="UTF-8"?>
<svg width="12px" height="12px" viewBox="0 0 12 12" version="1.1" xmlns="http://www.w3.org/2000/svg" xmlns:xlink="http://www.w3.org/1999/xlink">
    <title>在线办理</title>
    <g id="业务中台1.7.7.1极简工单_卖家成长_个人中心_其他服务" stroke="none" stroke-width="1" fill="none" fill-rule="evenodd">
        <g id="个人中心_其他服务_待办理" transform="translate(-1267.000000, -329.000000)" fill="#F6B417" fill-rule="nonzero">
            <g id="数据1" transform="translate(316.000000, 328.000000)">
                <g id="编组-15" transform="translate(951.000000, 0.000000)">
                    <g id="编组" transform="translate(6.000000, 7.014286) scale(-1, 1) translate(-6.000000, -7.014286) translate(0.000000, 1.000000)">
                        <path d="M9.5998,11 C9.81728409,11.0062507 9.99105396,11.2346633 9.99105396,11.5142857 C9.99105396,11.7939081 9.81728409,12.0223208 9.5998,12.0285714 L2.4,12.0285714 C2.1825159,12.0223208 2.00874604,11.7939081 2.00874604,11.5142857 C2.00874604,11.2346633 2.1825159,11.0062507 2.4,11 L9.6,11 L9.5998,11 Z M9.9998,0 C11.1036,0 12,0.836799996 12,1.866 L12,8.5334 C11.9984,9.5628 11.102,10.3994 9.9998,10.3994 L2,10.3994 C0.8982,10.3996 0,9.563 0,8.5336 L0,1.8662 C0,0.836799996 0.897999996,0 2.0002,0 L10,0 L9.9998,0 Z M9.74849729,1.02816234 L2.16597779,1.02816234 C1.53831905,1.02816234 1.02857143,1.48446618 1.02857143,2.04577719 L1.02857143,8.41035659 C1.02857143,8.97147667 1.53831905,9.42797143 2.16597779,9.42797143 L9.74811814,9.42797143 C10.3759665,9.42797143 10.8857143,8.97147667 10.8857143,8.41035659 L10.8857143,2.04577719 C10.8860932,1.4846571 10.376156,1.02797143 9.74868685,1.02797143 L9.74849729,1.02816234 Z M7.15360635,3.58571428 C7.39044546,3.58571428 7.58244149,3.77771033 7.58244149,4.01454945 C7.58244149,4.25138856 7.39044546,4.4433846 7.15360635,4.44338461 L5.88081514,4.44312089 L7.72063931,6.28320879 C7.88775989,6.45087445 7.88775989,6.72213653 7.72063931,6.88980219 C7.63518876,6.97156044 7.52679315,7.01428571 7.4165514,7.01428571 C7.30630964,7.01428571 7.19765031,6.97156044 7.11246349,6.88980219 L5.0107492,4.78624176 L5.0107492,6.58729671 C5.01052033,6.8084761 4.84152689,6.9929158 4.62121075,7.01243955 L4.58217778,7.01428571 C4.34554467,7.01399465 4.15387008,6.82208383 4.15387008,6.58545055 L4.15387008,3.58571428 L7.15387008,3.58571428 L7.15360635,3.58571428 Z" id="形状"></path>
                    </g>
                </g>
            </g>
        </g>
    </g>
</svg>