<?xml version="1.0" encoding="UTF-8"?>
<svg width="16px" height="16px" viewBox="0 0 16 16" version="1.1" xmlns="http://www.w3.org/2000/svg" xmlns:xlink="http://www.w3.org/1999/xlink">
    <!-- Generator: Sketch 58 (84663) - https://sketch.com -->
    <title>Shape</title>
    <desc>Created with Sketch.</desc>
    <g id="工作台" stroke="none" stroke-width="1" fill="none" fill-rule="evenodd">
        <g id="税务管理-远程销售监控-详情" transform="translate(-254.000000, -201.000000)" fill="#16ADE9" fill-rule="nonzero">
            <g id="原因" transform="translate(232.000000, 189.000000)">
                <g id="编组-10" transform="translate(22.000000, 12.000000)">
                    <path d="M8,1 C11.8660403,1 15,4.13395972 15,8 C15,11.8660403 11.8660403,15 8,15 C4.13395972,15 1,11.8660403 1,8 C1,4.13395972 4.13395972,1 8,1 Z M8,10.3977862 C7.41456136,10.3977862 6.93991572,10.8722907 6.93991572,11.4578704 C6.93991572,12.0433091 7.41456136,12.5179547 8,12.5179547 C8.58543864,12.5179547 9.06008428,12.0433091 9.06008428,11.4578704 C9.06008428,10.8722907 8.58543864,10.3977862 8,10.3977862 Z M7.96951429,9.56902635 C8.47379882,9.56902635 8.88253322,9.16015082 8.88253322,8.65600742 L8.88253322,4.39506422 C8.88253322,3.89077968 8.47379882,3.48204528 7.96951429,3.48204528 C7.46522975,3.48204528 7.05649535,3.89092082 7.05649535,4.39506422 L7.05649535,8.65600742 C7.05649535,9.16029195 7.46522975,9.56902635 7.96951429,9.56902635 Z" id="Shape"></path>
                </g>
            </g>
        </g>
    </g>
</svg>