<?xml version="1.0" encoding="UTF-8"?>
<svg width="14px" height="14px" viewBox="0 0 14 14" version="1.1" xmlns="http://www.w3.org/2000/svg" xmlns:xlink="http://www.w3.org/1999/xlink">
    <!-- Generator: Sketch 58 (84663) - https://sketch.com -->
    <title>分组</title>
    <desc>Created with Sketch.</desc>
    <g id="增值服务" stroke="none" stroke-width="1" fill="none" fill-rule="evenodd">
        <g id="增值服务申请" transform="translate(-1258.000000, -419.000000)">
            <g id="编组-5备份" transform="translate(256.000000, 245.000000)">
                <g id="编组-15" transform="translate(1002.000000, 174.000000)">
                    <g id="编组-7">
                        <g id="分组" transform="translate(1.750000, 1.750000)">
                            <rect id="矩形" fill="#D8D8D8" opacity="0" x="0" y="0" width="10.5" height="10.5"></rect>
                            <path d="M7.87835544,3.26995534 C8.50027014,4.03319717 8.87295743,5.00627287 8.87295743,6.0669715 C8.87295743,8.51580181 6.88721494,10.5 4.43647871,10.5 C1.98574249,10.5 0,8.51580181 0,6.0669715 C0,3.61814119 1.98574249,1.633943 4.43647871,1.633943 C5.43100439,1.633943 6.34890687,1.96061438 7.08828401,2.51309485 C7.13084102,2.54489447 9.35210813,0.231019953 9.44210692,0.141091157 C9.60889117,-0.0398418444 9.95235568,-0.0660273776 10.1895118,0.176672974 C10.426668,0.419373326 10.4225519,0.728890363 10.2425544,0.908747956 L7.87835544,3.26995534 Z M5.69476456,3.08744727 C5.296201,2.918836 4.87279193,2.83401316 4.43592486,2.83401316 C3.9990578,2.83401316 3.57564873,2.91987043 3.17708517,3.08744727 C2.79197961,3.24985198 2.44621278,3.48363201 2.14806654,3.78051196 C1.85095553,4.07739192 1.61699354,4.42392427 1.45446243,4.80873034 C1.28571994,5.20698393 1.20083108,5.63006372 1.20083108,6.06659104 C1.20083108,6.50311836 1.28675517,6.92619815 1.45446243,7.32445174 C1.61699354,7.70925782 1.85095553,8.05475574 2.14806654,8.35267012 C2.44517755,8.64955007 2.79197961,8.8833301 3.17708517,9.04573481 C3.57564873,9.21434608 3.9990578,9.29916892 4.43592486,9.29916892 C4.87279193,9.29916892 5.296201,9.21331165 5.69476456,9.04573481 C6.07987012,8.8833301 6.42563694,8.64955007 6.72378319,8.35267012 C7.0208942,8.05579016 7.25485618,7.71029224 7.4173873,7.32445174 C7.58612979,6.92619815 7.67101865,6.50311836 7.67101865,6.06659104 C7.67101865,5.63006372 7.58509456,5.20698393 7.4173873,4.80873034 C7.25485618,4.42392427 7.0208942,4.07842634 6.72378319,3.78051196 C6.42563694,3.48363201 6.07987012,3.2508864 5.69476456,3.08744727 L5.69476456,3.08744727 Z" id="Shape" fill="#16ADE9" transform="translate(5.186503, 5.250000) scale(1, -1) translate(-5.186503, -5.250000) "></path>
                        </g>
                    </g>
                </g>
            </g>
        </g>
    </g>
</svg>