<?xml version="1.0" encoding="UTF-8"?>
<svg width="358px" height="136px" viewBox="0 0 358 136" version="1.1" xmlns="http://www.w3.org/2000/svg" xmlns:xlink="http://www.w3.org/1999/xlink">
    <!-- Generator: Sketch 58 (84663) - https://sketch.com -->
    <title>Start sending block备份</title>
    <desc>Created with Sketch.</desc>
    <defs>
        <linearGradient x1="100%" y1="54.9407023%" x2="0.960726351%" y2="43.3699678%" id="linearGradient-1">
            <stop stop-color="#6C8CFA" offset="0%"></stop>
            <stop stop-color="#67B0FA" offset="100%"></stop>
        </linearGradient>
        <filter x="-24.6%" y="-67.0%" width="149.2%" height="233.9%" filterUnits="objectBoundingBox" id="filter-2">
            <feGaussianBlur stdDeviation="25" in="SourceGraphic"></feGaussianBlur>
        </filter>
        <linearGradient x1="100%" y1="55.2876668%" x2="2.40697254%" y2="43.0851991%" id="linearGradient-3">
            <stop stop-color="#F7C598" offset="0%"></stop>
            <stop stop-color="#FF8886" offset="100%"></stop>
        </linearGradient>
        <filter x="-3.8%" y="-9.9%" width="107.5%" height="119.9%" filterUnits="objectBoundingBox" id="filter-4">
            <feOffset dx="0" dy="2" in="SourceAlpha" result="shadowOffsetOuter1"></feOffset>
            <feGaussianBlur stdDeviation="2.5" in="shadowOffsetOuter1" result="shadowBlurOuter1"></feGaussianBlur>
            <feColorMatrix values="0 0 0 0 0.325490196   0 0 0 0 0.380392157   0 0 0 0 1  0 0 0 0.0534986413 0" type="matrix" in="shadowBlurOuter1" result="shadowMatrixOuter1"></feColorMatrix>
            <feMerge>
                <feMergeNode in="shadowMatrixOuter1"></feMergeNode>
                <feMergeNode in="SourceGraphic"></feMergeNode>
            </feMerge>
        </filter>
        <linearGradient x1="100%" y1="55.2876668%" x2="0%" y2="42.7842452%" id="linearGradient-5">
            <stop stop-color="#6C8BFA" offset="0%"></stop>
            <stop stop-color="#66B3FA" offset="100%"></stop>
        </linearGradient>
        <rect id="path-6" x="0" y="0" width="358" height="136" rx="8"></rect>
    </defs>
    <g id="工作台" stroke="none" stroke-width="1" fill="none" fill-rule="evenodd">
        <g transform="translate(-645.000000, -112.000000)" id="1">
            <g transform="translate(232.000000, 88.000000)">
                <g id="亮色" transform="translate(24.000000, 24.000000)">
                    <g id="Start-sending-block备份" transform="translate(389.000000, 0.000000)">
                        <rect id="Mask" fill="url(#linearGradient-1)" opacity="0.32" filter="url(#filter-2)" x="26" y="16" width="305" height="112" rx="8"></rect>
                        <g id="Oval" filter="url(#filter-4)">
                            <mask id="mask-7" fill="white">
                                <use xlink:href="#path-6"></use>
                            </mask>
                            <use id="Mask" fill="url(#linearGradient-5)" xlink:href="#path-6"></use>
                            <path d="M330,42 C339.388841,42 347,49.6111593 347,59 L347,138 C347,147.388841 339.388841,155 330,155 L251,155 C241.611159,155 234,147.388841 234,138 L234,59 C234,49.6111593 241.611159,42 251,42 L330,42 Z M274.576204,105.675805 L274.487111,105.753666 L266.346,113.894 L258.205389,105.753666 C257.893945,105.442223 257.405122,105.41627 257.064115,105.675805 L256.975023,105.753666 L252.412416,110.316273 C252.100973,110.627716 252.07502,111.116539 252.334555,111.457546 L252.412416,111.546639 L260.553,119.687 L252.412416,127.828361 C252.100973,128.139805 252.07502,128.628628 252.334555,128.969635 L252.412416,129.058727 L256.975023,133.621334 C257.286466,133.932777 257.775289,133.95873 258.116296,133.699195 L258.205389,133.621334 L266.346,125.48 L274.487111,133.621334 C274.798555,133.932777 275.287378,133.95873 275.628385,133.699195 L275.717477,133.621334 L280.280084,129.058727 C280.591527,128.747284 280.61748,128.258461 280.357945,127.917454 L280.280084,127.828361 L272.139,119.687 L280.280084,111.546639 C280.591527,111.235195 280.61748,110.746372 280.357945,110.405365 L280.280084,110.316273 L275.717477,105.753666 C275.406034,105.442223 274.917211,105.41627 274.576204,105.675805 Z M332.63,122.5 L301.37,122.5 C300.889512,122.5 300.5,122.889512 300.5,123.37 L300.5,123.37 L300.5,129.63 C300.5,130.110488 300.889512,130.5 301.37,130.5 L301.37,130.5 L332.63,130.5 C333.110488,130.5 333.5,130.110488 333.5,129.63 L333.5,129.63 L333.5,123.37 C333.5,122.889512 333.110488,122.5 332.63,122.5 L332.63,122.5 Z M332.63,107.5 L301.37,107.5 C300.926473,107.5 300.560463,107.831892 300.506779,108.260869 L300.5,108.37 L300.5,114.63 C300.5,115.073527 300.831892,115.439537 301.260869,115.493221 L301.37,115.5 L332.63,115.5 C333.073527,115.5 333.439537,115.168108 333.493221,114.739131 L333.5,114.63 L333.5,108.37 C333.5,107.889512 333.110488,107.5 332.63,107.5 Z M270.13,56 L263.87,56 C263.426473,56 263.060463,56.3318921 263.006779,56.760869 L263,56.87 L263,68.499 L251.37,68.5 C250.926473,68.5 250.560463,68.8318921 250.506779,69.260869 L250.5,69.37 L250.5,75.63 C250.5,76.0735271 250.831892,76.4395367 251.260869,76.4932215 L251.37,76.5 L263,76.5 L263,88.13 C263,88.5735271 263.331892,88.9395367 263.760869,88.9932215 L263.87,89 L270.13,89 C270.573527,89 270.939537,88.6681079 270.993221,88.239131 L271,88.13 L271,76.5 L282.63,76.5 C283.073527,76.5 283.439537,76.1681079 283.493221,75.739131 L283.5,75.63 L283.5,69.37 C283.5,68.9264729 283.168108,68.5604633 282.739131,68.5067785 L282.63,68.5 L271,68.5 L271,56.87 C271,56.3895123 270.610488,56 270.13,56 Z M301.37,68.5 C300.926473,68.5 300.560463,68.8318921 300.506779,69.260869 L300.5,69.37 L300.5,75.63 C300.5,76.0735271 300.831892,76.4395367 301.260869,76.4932215 L301.37,76.5 L332.63,76.5 C333.073527,76.5 333.439537,76.1681079 333.493221,75.739131 L333.5,75.63 L333.5,69.37 C333.5,68.9264729 333.168108,68.5604633 332.739131,68.5067785 L332.63,68.5 L301.37,68.5 Z" id="形状结合" fill="#FFFFFF" opacity="0.1" mask="url(#mask-7)"></path>
                        </g>
                        <text id="一键算税" font-family="PingFangSC, 蘋方-簡" font-size="24" font-weight="normal" line-spacing="24" fill="#FFFFFF">
                            <tspan x="20" y="119">一键算税</tspan>
                        </text>
                        <path d="M0,76 L199.999396,75.508601" id="Line" stroke="#DDE1EE" opacity="0.5" stroke-linecap="square"></path>
                        <text id="Calculation" font-family="PingFangSC, 蘋方-簡" font-size="14" font-weight="normal" line-spacing="14" fill="#FFFFFF">
                            <tspan x="66" y="46">Calculation</tspan>
                        </text>
                        <g id="Start/icon" transform="translate(20.000000, 20.000000)" fill="#FFFFFF" opacity="0.235491071">
                            <circle id="Oval-Copy-6" cx="18" cy="18" r="18"></circle>
                        </g>
                        <path d="M43,29 C45.209139,29 47,30.790861 47,33 L47,43 C47,45.209139 45.209139,47 43,47 L33,47 C30.790861,47 29,45.209139 29,43 L29,33 C29,30.790861 30.790861,29 33,29 L43,29 Z M35.1667591,39.4500441 L35.085881,39.5188447 L34.152,40.451 L33.219119,39.5188447 C32.9897837,39.2895093 32.6322066,39.2665758 32.3772229,39.4500441 L32.2963447,39.5188447 C32.0670093,39.7481801 32.0440758,40.1057571 32.2275441,40.3607409 L32.2963447,40.441619 L33.229,41.375 L32.2963447,42.308381 C32.0415276,42.5631981 32.0415276,42.9763382 32.2963447,43.2311553 C32.5256801,43.4604907 32.8832571,43.4834242 33.1382409,43.2999559 L33.219119,43.2311553 L34.152,42.298 L35.085881,43.2311553 C35.3152163,43.4604907 35.6727934,43.4834242 35.9277771,43.2999559 L36.0086553,43.2311553 C36.2379907,43.0018199 36.2609242,42.6442429 36.0774559,42.3892591 L36.0086553,42.308381 L35.075,41.374 L36.0086553,40.441619 C36.2634724,40.1868019 36.2634724,39.7736618 36.0086553,39.5188447 C35.7793199,39.2895093 35.4217429,39.2665758 35.1667591,39.4500441 Z M44.0975,41.75 L40.1525,41.75 C39.7921342,41.75 39.5,42.0421342 39.5,42.4025 C39.5,42.7628658 39.7921342,43.055 40.1525,43.055 L40.1525,43.055 L44.0975,43.055 C44.4578658,43.055 44.75,42.7628658 44.75,42.4025 C44.75,42.0421342 44.4578658,41.75 44.0975,41.75 L44.0975,41.75 Z M44.0975,39.5 L40.1525,39.5 C39.7921342,39.5 39.5,39.7921342 39.5,40.1525 C39.5,40.4801053 39.7414332,40.7513208 40.0560783,40.7979252 L40.1525,40.805 L44.0975,40.805 C44.4578658,40.805 44.75,40.5128658 44.75,40.1525 C44.75,39.7921342 44.4578658,39.5 44.0975,39.5 Z M34.1525,31.25 C33.8248947,31.25 33.5536792,31.4914332 33.5070748,31.8060783 L33.5,31.9025 L33.499,33.222 L32.18,33.2225 C31.8523947,33.2225 31.5811792,33.4639332 31.5345748,33.7785783 L31.5275,33.875 C31.5275,34.2026053 31.7689332,34.4738208 32.0835783,34.5204252 L32.18,34.5275 L33.499,34.527 L33.5,35.8475 C33.5,36.2078658 33.7921342,36.5 34.1525,36.5 C34.4801053,36.5 34.7513208,36.2585668 34.7979252,35.9439217 L34.805,35.8475 L34.804,34.527 L36.125,34.5275 C36.4526053,34.5275 36.7238208,34.2860668 36.7704252,33.9714217 L36.7775,33.875 C36.7775,33.5473947 36.5360668,33.2761792 36.2214217,33.2295748 L36.125,33.2225 L34.804,33.222 L34.805,31.9025 C34.805,31.5421342 34.5128658,31.25 34.1525,31.25 Z M44.0975,33.2225 L40.1525,33.2225 C39.7921342,33.2225 39.5,33.5146342 39.5,33.875 C39.5,34.2026053 39.7414332,34.4738208 40.0560783,34.5204252 L40.1525,34.5275 L44.0975,34.5275 C44.4578658,34.5275 44.75,34.2353658 44.75,33.875 C44.75,33.5146342 44.4578658,33.2225 44.0975,33.2225 Z" id="形状结合" fill="#FFFFFF"></path>
                    </g>
                </g>
            </g>
        </g>
    </g>
</svg>