<?xml version="1.0" encoding="UTF-8"?>
<svg width="16px" height="16px" viewBox="0 0 16 16" version="1.1" xmlns="http://www.w3.org/2000/svg" xmlns:xlink="http://www.w3.org/1999/xlink">
    <!-- Generator: Sketch 58 (84663) - https://sketch.com -->
    <title>路径</title>
    <desc>Created with Sketch.</desc>
    <g id="工作台" stroke="none" stroke-width="1" fill="none" fill-rule="evenodd">
        <g transform="translate(-256.000000, -761.000000)" fill-rule="nonzero" id="编组-11">
            <g transform="translate(232.000000, 707.000000)">
                <g id="编组-14" transform="translate(24.000000, 52.000000)">
                    <g id="gongsi" transform="translate(0.000000, 2.000000)">
                        <path d="M0.00177556818,7.96519886 C0.00177556818,12.3642567 3.56791657,15.9303977 7.96697443,15.9303977 C12.3660323,15.9303977 15.9321733,12.3642567 15.9321733,7.96519886 C15.9321733,3.566141 12.3660323,1.42108547e-14 7.96697443,1.42108547e-14 C3.56791657,1.42108547e-14 0.00177556818,3.566141 0.00177556818,7.96519886 Z" id="路径" fill="#1890FF"></path>
                        <path d="M11.3192472,11.9069602 L11.3192472,4.46022727 L10.1473722,3.42684659 L6.21803977,4.90944602 L6.21803977,5.28941761 L9.76917614,4.08203125 L9.76917614,12.4591619 L12.1484375,12.4591619 L12.1484375,11.9069602 L11.3192472,11.9069602 Z M4.94318182,9.59694602 L6.80397727,9.21697443 L6.80397727,8.2865767 L4.94318182,8.76953125 L4.94318182,9.59694602 L4.94318182,9.59694602 Z M4.94318182,12.4573864 L6.80397727,12.4573864 L6.80397727,11.4577415 L4.94318182,11.5962358 L4.94318182,12.4573864 Z M4.94318182,11.0102983 L6.80397727,10.8380682 L6.80397727,9.90767045 L4.94318182,10.2183949 L4.94318182,11.0102983 Z M4.94318182,8.14808239 L6.80397727,7.63139205 L6.80397727,6.66548295 L4.94318182,7.28515625 L4.94318182,8.14808239 Z M8.8725142,5.73508523 L7.83913352,5.07990057 L3.87428977,6.52698864 L3.87428977,12.4911222 L4.39098011,12.4911222 L4.39098011,6.80397727 L7.35617898,5.83806818 L7.35617898,12.4573864 L8.8725142,12.4573864 L8.8725142,5.73508523 Z" id="形状" fill="#FFFFFF"></path>
                    </g>
                </g>
            </g>
        </g>
    </g>
</svg>