<?xml version="1.0" encoding="UTF-8"?>
<svg width="16px" height="16px" viewBox="0 0 16 16" version="1.1" xmlns="http://www.w3.org/2000/svg" xmlns:xlink="http://www.w3.org/1999/xlink">
    <!-- Generator: Sketch 58 (84663) - https://sketch.com -->
    <title>daojishi</title>
    <desc>Created with Sketch.</desc>
    <g id="英国" stroke="none" stroke-width="1" fill="none" fill-rule="evenodd">
        <g id="英国注册详情进度条展示" transform="translate(-427.000000, -815.000000)" fill="#ED3E3E" fill-rule="nonzero">
            <g id="编组-18备份-2" transform="translate(136.000000, 737.000000)">
                <g id="编组-8" transform="translate(291.000000, 76.000000)">
                    <g id="daojishi" transform="translate(0.000000, 2.000000)">
                        <path d="M7.95245399,15.9125767 C5.87998466,15.9125767 3.92446319,15.1226994 2.4309816,13.6790644 C0.90107362,12.2028374 0.0383435583,10.2204755 0.00191717791,8.09624233 C-0.0345092025,5.9720092 0.757285276,3.95897239 2.23351227,2.4309816 C3.70973926,0.90107362 5.69210123,0.0383435583 7.81633436,0.00191717791 C12.1894172,-0.0690184049 15.8339724,3.43174847 15.9106595,7.81633436 C15.9873466,12.2028374 12.4808282,15.8339724 8.09432515,15.9106595 C8.04831288,15.9125767 8.00038344,15.9125767 7.95245399,15.9125767 Z M7.95820552,1.09854294 C7.91794479,1.09854294 7.87768405,1.09854294 7.83742331,1.10046012 C6.00460123,1.13113497 4.29447853,1.87308282 3.02147239,3.19210123 C1.74846626,4.50920245 1.06595092,6.24424847 1.09854294,8.07515337 C1.13113497,9.90605828 1.87308282,11.616181 3.19210123,12.8891871 C4.50920245,14.1621933 6.25,14.8466258 8.07515337,14.8121166 C9.90605828,14.7795245 11.616181,14.0375767 12.8891871,12.7185583 C14.1621933,11.4014571 14.8447086,9.66641104 14.8121166,7.83358896 C14.7488497,4.09509202 11.6851994,1.09854294 7.95820552,1.09854294 Z" id="形状"></path>
                        <path d="M8.04831288,8.59470859 C7.74923313,8.59470859 7.50575153,8.35506135 7.5,8.0559816 L7.41372699,3.11924847 C7.40797546,2.81633436 7.64953988,2.56710123 7.95245399,2.56134969 L7.96203988,2.56134969 C8.26111963,2.56134969 8.50460123,2.80099693 8.51035276,3.10007669 L8.59662577,8.03680982 C8.6023773,8.33972393 8.36081288,8.58895706 8.05789877,8.59470859 L8.04831288,8.59470859 Z" id="路径"></path>
                        <path d="M8.04831288,8.59470859 C7.74923313,8.59470859 7.50575153,8.35506135 7.5,8.0559816 C7.49424847,7.75306748 7.73581288,7.50383436 8.03872699,7.49808282 L11.8788344,7.4309816 L11.8884202,7.4309816 C12.1875,7.4309816 12.4309816,7.67062883 12.4367331,7.96970859 C12.4424847,8.2726227 12.2009202,8.52185583 11.8980061,8.52760736 L8.05789877,8.59470859 L8.04831288,8.59470859 Z" id="路径"></path>
                    </g>
                </g>
            </g>
        </g>
    </g>
</svg>