<?xml version="1.0" encoding="UTF-8"?>
<svg width="20px" height="20px" viewBox="0 0 20 20" version="1.1" xmlns="http://www.w3.org/2000/svg" xmlns:xlink="http://www.w3.org/1999/xlink">
    <!-- Generator: Sketch 58 (84663) - https://sketch.com -->
    <title>jindu</title>
    <desc>Created with Sketch.</desc>
    <g id="工作台" stroke="none" stroke-width="1" fill="none" fill-rule="evenodd">
        <g id="税务管理-VAT信件右侧客服浮窗" transform="translate(-1409.000000, -515.000000)" fill="#FFFFFF" fill-rule="nonzero">
            <g id="编组-9备份-2" transform="translate(1398.000000, 505.000000)">
                <g id="jindu" transform="translate(11.000000, 10.000000)">
                    <path d="M4.0431701,10.7474227 L0.74742268,10.7474227 C0.335051546,10.7474227 0,10.4123711 0,10 C0,9.58762887 0.335051546,9.25257732 0.74742268,9.25257732 L4.23324742,9.25257732 M7.88015464,9.25257732 L19.2268041,9.25257732 C19.6391753,9.25257732 19.9742268,9.58762887 19.9742268,10 C19.9742268,10.4123711 19.6391753,10.7474227 19.2268041,10.7474227 L8.09600515,10.7474227" id="形状"></path>
                    <path d="M5.97938144,7.15528351 C4.40721649,7.15528351 3.13466495,8.4310567 3.13466495,10 C3.13466495,11.5689433 4.41043814,12.8447165 5.97938144,12.8447165 C7.54832474,12.8447165 8.82409794,11.5689433 8.82409794,10 C8.82409794,8.4310567 7.55154639,7.15528351 5.97938144,7.15528351 L5.97938144,7.15528351 Z M5.97938144,11.4271907 C5.19007732,11.4271907 4.55219072,10.7893041 4.55219072,10 C4.55219072,9.21069588 5.19007732,8.57280928 5.97938144,8.57280928 C6.76868557,8.57280928 7.40657216,9.21069588 7.40657216,10 C7.40657216,10.7893041 6.76868557,11.4271907 5.97938144,11.4271907 Z M12.068299,3.60502577 L0.74742268,3.60502577 C0.335051546,3.60502577 0,3.26997423 0,2.85760309 C0,2.44523196 0.335051546,2.11018041 0.74742268,2.11018041 L12.0940722,2.11018041 M15.2770619,2.11018041 L19.2268041,2.11018041 C19.6391753,2.11018041 19.9742268,2.44523196 19.9742268,2.85760309 C19.9742268,3.26997423 19.6391753,3.60502577 19.2268041,3.60502577 L15.2770619,3.60502577" id="形状"></path>
                    <path d="M13.685567,0.00966494845 C12.1134021,0.00966494845 10.8408505,1.28543814 10.8408505,2.85438144 C10.8408505,4.42332474 12.1166237,5.69909794 13.685567,5.69909794 C15.2545103,5.69909794 16.5302835,4.42332474 16.5302835,2.85438144 C16.5302835,1.28543814 15.257732,0.00966494845 13.685567,0.00966494845 Z M13.685567,4.28479381 C12.8962629,4.28479381 12.2583763,3.64690722 12.2583763,2.85760309 C12.2583763,2.06829897 12.8962629,1.43041237 13.685567,1.43041237 C14.4748711,1.43041237 15.1127577,2.06829897 15.1127577,2.85760309 C15.1127577,3.64690722 14.4748711,4.28479381 13.685567,4.28479381 Z M11.7139175,17.8640464 L0.74742268,17.8640464 C0.335051546,17.8640464 0,17.5289948 0,17.1166237 C0,16.7042526 0.335051546,16.369201 0.74742268,16.369201 L11.8234536,16.369201 M15.441366,16.369201 L19.2268041,16.369201 C19.6391753,16.369201 19.9742268,16.7042526 19.9742268,17.1166237 C19.9742268,17.5289948 19.6391753,17.8640464 19.2268041,17.8640464 L15.6024485,17.8640464" id="形状"></path>
                    <path d="M13.685567,14.2719072 C12.1134021,14.2719072 10.8408505,15.5476804 10.8408505,17.1166237 C10.8408505,18.685567 12.1166237,19.9613402 13.685567,19.9613402 C15.2545103,19.9613402 16.5302835,18.685567 16.5302835,17.1166237 C16.5302835,15.5476804 15.257732,14.2719072 13.685567,14.2719072 Z M13.685567,18.5438144 C12.8962629,18.5438144 12.2583763,17.9059278 12.2583763,17.1166237 C12.2583763,16.3273196 12.8962629,15.689433 13.685567,15.689433 C14.4748711,15.689433 15.1127577,16.3273196 15.1127577,17.1166237 C15.1127577,17.9059278 14.4748711,18.5438144 13.685567,18.5438144 Z" id="形状"></path>
                </g>
            </g>
        </g>
    </g>
</svg>