<?xml version="1.0" encoding="UTF-8"?>
<svg width="280px" height="264px" viewBox="0 0 280 264" version="1.1" xmlns="http://www.w3.org/2000/svg" xmlns:xlink="http://www.w3.org/1999/xlink">
    <!-- Generator: Sketch 58 (84663) - https://sketch.com -->
    <title>编组 8</title>
    <desc>Created with Sketch.</desc>
    <g id="工作台" stroke="none" stroke-width="1" fill="none" fill-rule="evenodd">
        <g id="工作台-查看更多未使用VAT服务-空状态" transform="translate(-674.000000, -368.000000)">
            <g id="编组-8" transform="translate(674.000000, 368.000000)">
                <text id="暂无未使用的VAT服务" font-family="PingFangSC-Medium, 蘋方-簡" font-size="16" font-weight="500" fill="#666666">
                    <tspan x="60.448" y="260">暂无未使用的VAT服务</tspan>
                </text>
                <g id="undraw_empty_xct9" fill-rule="nonzero">
                    <ellipse id="椭圆形" fill="#16ADE9" opacity="0.1" cx="98.3545005" cy="205.297329" rx="48.7715134" ry="9.23916914"></ellipse>
                    <path d="M162.724036,30.8526212 C144.799604,30.2322453 127.72819,24.4439169 111.426706,18.1127596 C95.1252226,11.7816024 78.9788328,4.76913947 61.4836795,1.41523244 C50.2310584,-0.74223541 37.3610287,-1.04965381 28.2963403,4.9768546 C19.5695351,10.7928783 16.7501484,20.8047478 15.2352127,30.1020772 C14.0941642,37.0979228 13.4239367,44.4621167 16.5479723,51.0120673 C18.7192878,55.5596439 22.5689416,59.3816024 25.2332344,63.7380811 C34.5028684,78.8929773 27.9501484,97.5818002 17.907814,112.379426 C13.1996044,119.319881 7.7297725,125.950148 4.0933729,133.330959 C0.456973294,140.711771 -1.22413452,149.197626 1.95806133,156.747379 C5.10979228,164.225124 12.623541,169.830663 20.7632047,173.77725 C37.2945598,181.795054 56.7671612,184.088229 75.7689416,185.389911 C117.818793,188.264688 160.090208,187.021167 202.250841,185.772107 C217.854402,185.312364 233.524431,184.844313 248.873195,182.432047 C257.397824,181.091592 266.196637,178.96459 272.386548,173.829871 C280.24095,167.313155 282.187933,156.279327 276.923046,148.109199 C268.093769,134.4 243.688625,130.996241 237.509792,116.28724 C234.114342,108.18912 237.601187,99.1715134 242.539268,91.6633037 C253.12997,75.5529179 270.879921,61.4199802 271.813254,43.0081108 C272.455786,30.3624135 263.922849,17.6973294 250.728783,11.712364 C236.900495,5.43936696 217.721464,6.22868447 207.524036,16.6116716 C197.01365,27.290999 178.551929,31.4037587 162.724036,30.8526212 Z" id="路径" fill="#16ADE9" opacity="0.1"></path>
                    <g id="编组-19" transform="translate(65.361029, 88.981898)">
                        <polygon id="路径" fill="#16ADE9" points="15.7863501 19.7052215 59.2680514 12.6600409 59.2680514 53.6491605 17.9547882 51.4956855"></polygon>
                        <polygon id="路径" fill="#000000" opacity="0.05" points="15.7863501 19.7052215 59.2680514 12.6600409 59.2680514 53.6491605 17.9547882 51.4956855"></polygon>
                        <polygon id="路径" fill="#16ADE9" points="58.9910979 12.6600409 111.058358 16.5452921 108.17701 52.2153848 58.9910979 53.6491605"></polygon>
                        <polygon id="路径" fill="#000000" opacity="0.1" points="58.9910979 12.6600409 111.058358 16.5452921 108.17701 52.2153848 58.9910979 53.6491605"></polygon>
                        <polygon id="路径" fill="#16ADE9" points="75.0195214 0.197132849 58.9910979 12.6652646 111.124406 16.53739 119.643917 3.77786822"></polygon>
                        <polygon id="路径" fill="#16ADE9" points="0 6.29400132 38.9899209 1.58190041 58.9910979 12.8652605 15.6814627 19.8608322"></polygon>
                        <polygon id="路径" fill="#16ADE9" points="68.6844708 23.4536297 68.6844708 79.4058371 48.3602781 77.328751 39.5195078 76.4305517 36.8261438 76.1498644 27.9910082 75.2460512 15.7863501 73.9997996 15.7863501 19.8608322 59.1675422 22.8024351"></polygon>
                        <polygon id="路径" fill="#16ADE9" points="111.335312 16.53739 111.335312 71.2496566 94.9950544 74.3736595 87.0481843 75.8934447 68.6844708 79.4058371 68.6844708 23.3032485"></polygon>
                        <polygon id="路径" fill="#000000" opacity="0.05" points="111.335312 16.53739 111.335312 71.2496566 94.9950544 74.3736595 87.0481843 75.8934447 68.6844708 79.4058371 68.6844708 23.3032485"></polygon>
                        <polygon id="路径" fill="#16ADE9" points="0 31.607095 15.727029 19.8608322 68.6844708 23.4440582 60.888648 36.4780428"></polygon>
                        <polygon id="路径" fill="#FFFFFF" opacity="0.1" points="0 31.607095 15.727029 19.8608322 68.6844708 23.4440582 60.888648 36.4780428"></polygon>
                        <polygon id="路径" fill="#16ADE9" points="111.120823 16.53739 68.6844708 23.2892919 82.4962494 35.6471823 127.952522 28.0302281"></polygon>
                        <polygon id="路径" fill="#FFFFFF" opacity="0.1" points="111.120823 16.53739 68.6844708 23.2892919 82.4962494 35.6471823 127.952522 28.0302281"></polygon>
                        <polygon id="路径" fill="#FFFFFF" opacity="0.1" points="94.9950544 74.284439 86.9634026 75.8054415 86.9634026 64.1049891 94.4866497 62.2347194"></polygon>
                        <polygon id="路径" fill="#FFFFFF" opacity="0.1" points="48.189911 69.7124642 48.189911 77.4671625 39.3273986 76.5641409 39.3273986 69.7124642"></polygon>
                        <polygon id="路径" fill="#FFFFFF" opacity="0.1" points="36.834817 71.9280923 36.834817 76.082395 27.9723046 75.1674254 27.9723046 71.9280923"></polygon>
                    </g>
                    <path d="M181.340851,31.1268051 C181.340851,31.1268051 170.816617,30.4925816 172.046291,37.8761622 C172.046291,37.8761622 171.799802,39.1806133 172.982394,39.7732938 C172.982394,39.7732938 173.00178,39.2193867 174.062512,39.4104847 C174.440259,39.4740586 174.824208,39.4926518 175.20633,39.4658754 C175.72418,39.4313376 176.216436,39.2280146 176.607715,38.8870425 L176.607715,38.8870425 C176.607715,38.8870425 179.568348,37.6656775 180.720475,32.8245302 C180.720475,32.8245302 181.573492,31.7665678 181.551335,31.4951533 L179.773294,32.2567755 C179.773294,32.2567755 180.379822,33.5390702 179.900692,34.6053412 C179.900692,34.6053412 179.845302,32.3038576 179.501879,32.3564787 C179.432641,32.3564787 178.579624,32.8023739 178.579624,32.8023739 C178.579624,32.8023739 179.623739,35.0346192 178.834421,36.6603363 C178.834421,36.6603363 179.133531,33.9074184 178.252819,32.9630069 L177.000989,33.6941642 C177.000989,33.6941642 178.222354,36.0011869 177.394263,37.8844708 C177.394263,37.8844708 177.607517,34.9958457 176.737883,33.8714144 L175.602374,34.7548961 C175.602374,34.7548961 176.751731,37.031454 176.051039,38.5934718 C176.051039,38.5934718 175.959644,35.2312562 175.355885,34.976459 C175.355885,34.976459 174.364392,35.851632 174.214837,36.2116716 C174.214837,36.2116716 174.998615,37.8733927 174.511177,38.7347181 C174.511177,38.7347181 174.212067,36.4941642 173.95727,36.4830861 C173.95727,36.4830861 172.968546,37.9675569 172.866073,38.9756677 C172.913958,38.035829 173.207095,37.124909 173.71632,36.3335312 C173.146482,36.4413428 172.620748,36.7138382 172.204154,37.1173096 C172.204154,37.1173096 172.356479,36.0676558 173.96004,35.9762611 C173.96004,35.9762611 174.7909,34.8490603 174.995846,34.779822 C174.995846,34.779822 173.400593,34.6468843 172.434026,35.0761622 C172.434026,35.0761622 173.284273,34.0874382 175.289416,34.5222552 L176.39723,33.6083086 C176.39723,33.6083086 174.297923,33.3313551 173.406133,33.6387735 C173.406133,33.6387735 174.430861,32.7636004 176.69911,33.4005935 L177.917705,32.6722057 C177.917705,32.6722057 176.128586,32.2844708 175.062315,32.4257171 C175.062315,32.4257171 176.186746,31.8191889 178.274975,32.4755687 L179.147379,32.0850643 C179.147379,32.0850643 177.834619,31.8274975 177.452423,31.7859545 C177.070227,31.7444115 177.048071,31.6391691 177.048071,31.6391691 C177.878568,31.5009446 178.731153,31.5968483 179.510188,31.9161227 C179.510188,31.9161227 181.379624,31.2431256 181.340851,31.1268051 Z" id="路径" fill="#16ADE9"></path>
                    <path d="M213.317903,68.0557864 C213.317903,68.0557864 202.79367,67.4215628 204.023343,74.8051434 C204.023343,74.8051434 203.776855,76.1095945 204.959446,76.702275 C204.959446,76.702275 204.978833,76.148368 206.042334,76.3394659 C206.420081,76.4030398 206.80403,76.421633 207.186152,76.3948566 C207.697919,76.3577522 208.183834,76.1556115 208.57092,75.8187933 L208.57092,75.8187933 C208.57092,75.8187933 211.534322,74.5946588 212.686449,69.7535114 C212.686449,69.7535114 213.536696,68.6983185 213.503462,68.4269041 L211.72542,69.1857567 C211.72542,69.1857567 212.331949,70.4680514 211.855589,71.5343225 C211.855589,71.5343225 211.797428,69.2328388 211.456775,69.2854599 C211.387537,69.2854599 210.531751,69.7313551 210.531751,69.7313551 C210.531751,69.7313551 211.578635,71.9663699 210.789318,73.5893175 C210.789318,73.5893175 211.088427,70.8363996 210.204946,69.8919881 L208.966963,70.6148368 C208.966963,70.6148368 210.188328,72.9218595 209.360237,74.8051434 C209.360237,74.8051434 209.573492,71.9165183 208.703858,70.792087 L207.571118,71.6783383 C207.571118,71.6783383 208.717705,73.9521266 208.019782,75.5141444 C208.019782,75.5141444 207.928388,72.1519288 207.324629,71.8971316 C207.324629,71.8971316 206.333136,72.7723046 206.180811,73.1323442 C206.180811,73.1323442 206.967359,74.7940653 206.479921,75.6553907 C206.479921,75.6553907 206.180811,73.4148368 205.926014,73.4037587 C205.926014,73.4037587 204.93729,74.8882295 204.834817,75.8963403 C204.884298,74.9563867 205.178334,74.0456396 205.687834,73.2542038 C205.117276,73.3622783 204.590725,73.6346986 204.172898,74.0379822 C204.172898,74.0379822 204.327992,72.9883284 205.931553,72.8969337 C205.931553,72.8969337 206.748566,71.7697329 206.967359,71.7004946 C206.967359,71.7004946 205.372107,71.5675569 204.405539,71.9968348 C204.405539,71.9968348 205.255786,71.0081108 207.25816,71.4567755 L208.365974,70.5428289 C208.365974,70.5428289 206.263897,70.2658754 205.374876,70.5732938 C205.374876,70.5732938 206.399604,69.6981207 208.667854,70.3351137 L209.886449,69.606726 C209.886449,69.606726 208.09456,69.2217606 207.028289,69.3602374 C207.028289,69.3602374 208.15549,68.7537092 210.243719,69.410089 L211.116123,69.0195846 C211.116123,69.0195846 209.803363,68.7620178 209.418398,68.7204748 C209.033432,68.6789318 209.014045,68.5736894 209.014045,68.5736894 C209.845453,68.435382 210.698948,68.5312804 211.478932,68.8506429 C211.478932,68.8506429 213.351137,68.1721068 213.317903,68.0557864 Z" id="路径" fill="#16ADE9" opacity="0.1"></path>
                    <path d="M149.383185,61.5002967 C149.383185,61.5002967 151.806528,51.228091 144.317705,51.192087 C144.317705,51.192087 143.074184,50.7268051 142.290406,51.7903066 C142.290406,51.7903066 142.824926,51.9038576 142.462117,52.9175074 C142.336638,53.2759453 142.252997,53.6476819 142.212859,54.0253215 C142.159212,54.5401262 142.27492,55.0583827 142.542433,55.5014837 L142.542433,55.5014837 C142.542433,55.5014837 143.243126,58.6310584 147.80455,60.5918892 C147.80455,60.5918892 148.701879,61.6110781 148.973294,61.6221563 L148.530168,59.7416419 C148.530168,59.7416419 147.162018,60.1210682 146.192681,59.4646884 C146.192681,59.4646884 148.472008,59.7998022 148.474777,59.4646884 C148.474777,59.39545 148.197824,58.4787339 148.197824,58.4787339 C148.197824,58.4787339 145.818793,59.1268051 144.35094,58.0716123 C144.35094,58.0716123 147.012463,58.836004 148.095351,58.1297725 L147.596835,56.7671612 C147.596835,56.7671612 145.104253,57.578635 143.39822,56.4403561 C143.39822,56.4403561 146.209298,57.143818 147.466667,56.4791296 L146.788131,55.2106825 C146.788131,55.2106825 144.35094,55.9529179 142.930168,54.9974283 C142.930168,54.9974283 146.25361,55.4793274 146.61365,54.9309594 C146.61365,54.9309594 145.921266,53.8037587 145.591691,53.593274 C145.591691,53.593274 143.830267,54.0862512 143.054797,53.4575668 C143.054797,53.4575668 145.311968,53.5434224 145.36459,53.3052423 C145.36459,53.3052423 144.071217,52.0783383 143.085262,51.8013848 C144.004078,52.0105863 144.852607,52.4553723 145.547379,53.0919881 C145.537223,52.5115499 145.358221,51.9466369 145.032245,51.466271 C145.032245,51.466271 146.040356,51.7986152 145.863106,53.4049456 C145.863106,53.4049456 146.832443,54.4019782 146.862908,54.6290801 C146.862908,54.6290801 147.264491,53.08091 147.006924,52.0534125 C147.006924,52.0534125 147.837784,53.0615232 147.054006,54.9586548 L147.763007,56.2187933 C147.763007,56.2187933 148.405539,54.1970326 148.242136,53.2664688 C148.242136,53.2664688 148.931751,54.4241345 147.915331,56.5511375 L148.427695,57.8777448 C148.427695,57.8777448 149.111771,56.1772502 149.156083,55.1082097 C149.156083,55.1082097 149.563205,56.3212661 148.557864,58.2682493 L148.796044,59.193274 C148.796044,59.193274 149.272404,57.9442136 149.377646,57.5730959 C149.482888,57.2019782 149.5909,57.1992087 149.5909,57.1992087 C149.586679,58.0417785 149.347887,58.8665237 148.901286,59.5810089 C148.901286,59.5810089 149.264095,61.5141444 149.383185,61.5002967 Z" id="路径" fill="#16ADE9" opacity="0.1"></path>
                    <path d="M126.335114,65.0009891 C126.335114,65.0009891 117.882493,58.6781405 114.86093,65.5272008 C114.86093,65.5272008 113.938675,66.4826904 114.600593,67.6265084 C114.600593,67.6265084 114.91632,67.1806133 115.708408,67.9200791 C115.988967,68.1810906 116.299475,68.4079285 116.633432,68.5958457 C117.08577,68.8477167 117.607992,68.9449647 118.120673,68.8727992 L118.120673,68.8727992 C118.120673,68.8727992 121.266864,69.4793274 124.889416,66.0700297 C124.889416,66.0700297 126.182789,65.6545994 126.304649,65.4108803 L124.396439,65.0757666 C124.396439,65.0757666 124.197033,66.4799209 123.213848,67.1086053 C123.213848,67.1086053 124.429674,65.1533136 124.113947,65.0120673 C124.050247,64.9816024 123.097527,64.8735905 123.097527,64.8735905 C123.097527,64.8735905 122.743027,67.3163205 121.192087,68.2385757 C121.192087,68.2385757 122.956281,66.1032641 122.737488,64.8292779 L121.289021,64.751731 C121.289021,64.751731 121.042532,67.3523244 119.314342,68.4712166 C119.314342,68.4712166 121.078536,66.175272 120.976063,64.75727 L119.541444,64.8735905 C119.541444,64.8735905 119.250643,67.4021761 117.807715,68.3216617 C117.807715,68.3216617 119.577448,65.4635015 119.214639,64.9206726 C119.214639,64.9206726 117.904649,65.1062315 117.580613,65.3222552 C117.580613,65.3222552 117.328586,67.1335312 116.442334,67.593274 C116.442334,67.593274 117.425519,65.5576657 117.226113,65.4164194 C117.226113,65.4164194 115.583778,66.1115727 114.938477,66.9036597 C115.496691,66.145258 116.243233,65.5457326 117.104253,65.1643917 C116.568528,64.9417306 115.979498,64.8801326 115.409298,64.9871414 C115.409298,64.9871414 116.11276,64.1950544 117.503066,65.0009891 C117.503066,65.0009891 118.804748,64.5107814 119.026311,64.5717112 C119.026311,64.5717112 117.766172,63.5829871 116.722057,63.411276 C116.722057,63.411276 117.979426,63.0512364 119.405737,64.51909 L120.843126,64.3723046 C120.843126,64.3723046 119.245104,62.9875371 118.328388,62.7548961 C118.328388,62.7548961 119.666073,62.5859545 121.208704,64.363996 L122.626706,64.4276954 C122.626706,64.4276954 121.344411,63.1204748 120.377844,62.6496538 C120.377844,62.6496538 121.64906,62.7604352 123.033828,64.4581602 L123.978239,64.6104847 C123.978239,64.6104847 123.02275,63.6743818 122.72364,63.4306627 C122.42453,63.1869436 122.466073,63.0844708 122.466073,63.0844708 C123.236554,63.4256592 123.897163,63.9740893 124.374283,64.6686449 C124.374283,64.6686449 126.29911,65.1145401 126.335114,65.0009891 Z" id="路径" fill="#16ADE9" opacity="0.1"></path>
                    <path d="M154.47636,6.25637982 C154.47636,6.25637982 146.023739,-0.0692383778 143.002176,6.78259149 C143.002176,6.78259149 142.079921,7.73808111 142.74184,8.88189911 C142.74184,8.88189911 143.057567,8.43600396 143.849654,9.17546983 C144.131683,9.43513319 144.443054,9.66099344 144.777448,9.84846686 C145.229717,10.1005313 145.752004,10.1977914 146.264688,10.1254204 L146.264688,10.1254204 C146.264688,10.1254204 149.41088,10.7319486 153.033432,7.31988131 C153.033432,7.31988131 154.326805,6.90722057 154.445895,6.66073195 L152.537685,6.33115727 C152.537685,6.33115727 152.341048,7.73531157 151.355094,8.36399604 C151.355094,8.36399604 152.573689,6.40870425 152.257962,6.26745796 C152.194263,6.23699308 151.241543,6.12898121 151.241543,6.12898121 C151.241543,6.12898121 150.875964,8.57725025 149.325025,9.49396637 C149.325025,9.49396637 151.086449,7.3586548 150.870425,6.08466864 L149.421958,6.00712166 C149.421958,6.00712166 149.1727,8.60771513 147.44728,9.72383778 C147.44728,9.72383778 149.211474,7.42789318 149.109001,6.0098912 L147.677151,6.12621167 C147.677151,6.12621167 147.383581,8.65756677 145.940653,9.57705242 C145.940653,9.57705242 147.713155,6.71889219 147.350346,6.1760633 C147.350346,6.1760633 146.040356,6.36162216 145.71632,6.5776459 C145.71632,6.5776459 145.464293,8.38892186 144.578042,8.84866469 C144.578042,8.84866469 145.561227,6.81305638 145.36182,6.66904055 C145.36182,6.66904055 143.719486,7.3669634 143.074184,8.15905045 C143.631554,7.39984032 144.378333,6.800125 145.23996,6.41978239 C144.703685,6.19546537 144.11328,6.13382433 143.542235,6.24253215 C143.542235,6.24253215 144.248467,5.4504451 145.638773,6.25637982 C145.638773,6.25637982 146.940455,5.76340257 147.162018,5.82710188 C147.162018,5.82710188 145.901879,4.83837784 144.857765,4.66389713 C144.857765,4.66389713 146.112364,4.3066271 147.538675,5.77171118 L148.976063,5.62492582 C148.976063,5.62492582 147.380811,4.24015826 146.461325,4.00474777 C146.461325,4.00474777 147.799011,3.83857567 149.344411,5.61661721 L150.762413,5.67754698 C150.762413,5.67754698 149.480119,4.37032641 148.510781,3.90227498 C148.510781,3.90227498 149.784768,4.01305638 151.169535,5.7107814 L152.111177,5.86310584 C152.111177,5.86310584 151.152918,4.93808111 150.853808,4.69990109 C150.554698,4.46172107 150.596241,4.35647873 150.596241,4.35647873 C151.366955,4.69729238 152.027657,5.2458 152.504451,5.94065282 C152.504451,5.94065282 154.429278,6.36162216 154.47636,6.25637982 Z" id="路径" fill="#16ADE9" opacity="0.1"></path>
                    <path d="M186.774679,14.2686449 C186.774679,14.2686449 183.395846,4.26785361 177.023145,8.19782394 C177.023145,8.19782394 175.721464,8.47477745 175.618991,9.77922849 C175.618991,9.77922849 176.131355,9.5909001 176.358457,10.6433234 C176.442831,11.017687 176.570149,11.3810561 176.737883,11.7262117 C176.966782,12.1907223 177.339874,12.5686725 177.801385,12.8035608 L177.801385,12.8035608 C177.801385,12.8035608 180.050247,15.0884273 184.968942,14.3323442 C184.968942,14.3323442 186.267854,14.7256182 186.506034,14.589911 L185.121266,13.2300692 C185.121266,13.2300692 184.163007,14.274184 182.994263,14.2326409 C182.994263,14.2326409 185.107418,13.3131553 184.932938,13.016815 C184.896934,12.9586548 184.174085,12.3299703 184.174085,12.3299703 C184.174085,12.3299703 182.495747,14.1384768 180.695549,14.0193867 C180.695549,14.0193867 183.357072,13.2605341 183.899901,12.0807122 L182.753314,11.1972305 C182.753314,11.1972305 181.074975,13.1968348 179.017211,13.135905 C179.017211,13.135905 181.786746,12.2468843 182.487438,11.0172107 L181.241147,10.2999011 C181.241147,10.2999011 179.579426,12.2191889 177.856775,12.1582591 C177.856775,12.1582591 180.936499,10.8094955 180.944807,10.1558853 C180.944807,10.1558853 179.762216,9.56597428 179.371711,9.56043521 C179.371711,9.56043521 178.136499,10.9091988 177.156083,10.7873393 C177.156083,10.7873393 179.116914,9.66567755 179.033828,9.43580613 C179.033828,9.43580613 177.289021,9.0785361 176.305836,9.36656775 C177.195095,9.0569502 178.149878,8.98534148 179.075371,9.15885262 C178.759334,8.6711328 178.307941,8.28614926 177.776459,8.05103858 C177.776459,8.05103858 178.806726,7.79901088 179.49634,9.25024728 C179.49634,9.25024728 180.847873,9.58536103 180.991889,9.75984174 C180.991889,9.75984174 180.515529,8.23382789 179.753907,7.49713155 C179.753907,7.49713155 180.991889,7.91533136 181.329773,9.93986152 L182.59822,10.6322453 C182.59822,10.6322453 182.074777,8.58001978 181.443323,7.86271019 C181.443323,7.86271019 182.642532,8.48308605 182.902868,10.8233432 L184.038378,11.6791296 C184.038378,11.6791296 183.722651,9.87339268 183.1909,8.93728981 C183.1909,8.93728981 184.176855,9.75153314 184.354105,11.9366963 L185.043719,12.5958457 C185.043719,12.5958457 184.788922,11.2830861 184.68368,10.9119683 C184.578437,10.5408506 184.664293,10.5159248 184.664293,10.5159248 C185.104567,11.2343808 185.337491,12.0606368 185.33729,12.9032641 C185.33729,12.9032641 186.677745,14.3406528 186.774679,14.2686449 Z" id="路径" fill="#16ADE9" opacity="0.1"></path>
                    <path d="M164.72364,14.7616222 C164.72364,14.7616222 154.227102,13.5928783 155.093966,21.0401583 C155.093966,21.0401583 154.781009,22.3307616 155.924827,22.9788328 C155.924827,22.9788328 155.971909,22.4249258 157.032641,22.674184 C157.407507,22.754843 157.790279,22.7929344 158.173689,22.7877349 C158.691589,22.7783818 159.192323,22.6004512 159.6,22.28091 L159.6,22.28091 C159.6,22.28091 162.621563,21.2090999 164.031256,16.4316518 C164.031256,16.4316518 164.934125,15.4207715 164.914738,15.1465875 L163.100692,15.816815 C163.100692,15.816815 163.654599,17.1268051 163.100692,18.1681503 C163.100692,18.1681503 163.158853,15.8666667 162.823739,15.9026706 C162.7545,15.9026706 161.879327,16.3014837 161.879327,16.3014837 C161.879327,16.3014837 162.809891,18.5863501 161.940257,20.1788328 C161.940257,20.1788328 162.377844,17.4425321 161.544214,16.4565776 L160.25638,17.1212661 C160.25638,17.1212661 161.364194,19.4892186 160.4364,21.3281899 C160.4364,21.3281899 160.796439,18.4534125 159.984965,17.2874382 L158.807913,18.1182987 C158.807913,18.1182987 159.83818,20.4474777 159.059941,21.9734916 C159.059941,21.9734916 159.140257,18.611276 158.550346,18.3260138 C158.550346,18.3260138 157.51454,19.1568744 157.345598,19.5002967 C157.345598,19.5002967 158.046291,21.1897132 157.51731,22.0344214 C157.51731,22.0344214 157.331751,19.7827893 157.088032,19.760633 C157.088032,19.760633 156.02453,21.1924827 155.869436,22.203363 C155.965505,21.2661598 156.305443,20.3704811 156.855391,19.6055391 C156.280686,19.6849581 155.741662,19.9304065 155.304451,20.3117705 C155.304451,20.3117705 155.509397,19.2731949 157.115727,19.2621167 C157.115727,19.2621167 157.988131,18.1792285 158.223541,18.1210682 C158.223541,18.1210682 156.636597,17.907814 155.647873,18.2872404 C155.647873,18.2872404 156.547972,17.3400593 158.52542,17.8911968 L159.691395,17.0354105 C159.691395,17.0354105 157.583778,16.6089021 156.691988,16.8858556 C156.691988,16.8858556 157.761029,16.0549951 159.993274,16.8166172 L161.247873,16.1491592 C161.247873,16.1491592 159.47814,15.6727992 158.40633,15.7586548 C158.40633,15.7586548 159.561227,15.2047478 161.613452,15.971909 L162.505242,15.6257171 C162.505242,15.6257171 161.20633,15.3016815 160.824135,15.2407517 C160.441939,15.179822 160.428091,15.0745796 160.428091,15.0745796 C161.265359,14.9785144 162.112865,15.1165697 162.87636,15.4733927 C162.87636,15.4733927 164.743027,14.8779426 164.72364,14.7616222 Z" id="路径" fill="#16ADE9" opacity="0.1"></path>
                    <path d="M256.561424,96.2330366 C256.561424,96.2330366 246.070425,95.0642928 246.93729,102.503264 C246.93729,102.503264 246.624332,103.793867 247.76815,104.441939 C247.76815,104.441939 247.815232,103.888032 248.875964,104.13452 C249.250397,104.217912 249.633489,104.256035 250.017013,104.248071 C250.53517,104.24014 251.036343,104.062053 251.443323,103.741246 L251.443323,103.741246 C251.443323,103.741246 254.464886,102.669436 255.860732,97.8947577 C255.860732,97.8947577 256.7636,96.8811078 256.744214,96.6096934 L254.930168,97.2771513 C254.930168,97.2771513 255.484075,98.589911 254.930168,99.6312562 C254.930168,99.6312562 254.988328,97.327003 254.653215,97.3657765 C254.583976,97.3657765 253.708803,97.76182 253.708803,97.76182 C253.708803,97.76182 254.639367,100.046686 253.769733,101.639169 C253.769733,101.639169 254.207319,98.905638 253.373689,97.9169139 L252.085856,98.5843719 C252.085856,98.5843719 253.19367,100.952324 252.268645,102.791296 C252.268645,102.791296 252.625915,99.9165183 251.814441,98.7477745 L250.637389,99.578635 C250.637389,99.578635 251.667656,101.907814 250.889416,103.431058 C250.889416,103.431058 250.969733,100.068843 250.379822,99.7863501 C250.379822,99.7863501 249.346785,100.617211 249.175074,100.960633 C249.175074,100.960633 249.878536,102.650049 249.346785,103.494758 C249.346785,103.494758 249.161227,101.243126 248.917507,101.220969 C248.917507,101.220969 247.854006,102.652819 247.698912,103.663699 C247.794981,102.726496 248.134918,101.830817 248.684866,101.065875 C248.109752,101.143876 247.570338,101.389502 247.133927,101.772107 C247.133927,101.772107 247.338872,100.730762 248.945203,100.719683 C248.945203,100.719683 249.820376,99.6367953 250.053017,99.5814045 C250.053017,99.5814045 248.466073,99.3653808 247.477349,99.7448071 C247.477349,99.7448071 248.377448,98.8003956 250.357666,99.3515331 L251.52087,98.4957468 C251.52087,98.4957468 249.43818,98.1024728 248.532542,98.3738872 C248.532542,98.3738872 249.601583,97.5430267 251.833828,98.3018793 L253.088427,97.6371909 C253.088427,97.6371909 251.318694,97.1608309 250.246884,97.2466864 C250.246884,97.2466864 251.40178,96.6927794 253.454006,97.4599407 L254.345796,97.1109792 C254.345796,97.1109792 253.046884,96.7869436 252.664688,96.7287834 C252.282493,96.6706231 252.268645,96.5626113 252.268645,96.5626113 C253.105676,96.4648028 253.953409,96.6019362 254.716914,96.9586548 C254.716914,96.9586548 256.58912,96.3521266 256.561424,96.2330366 Z" id="路径" fill="#16ADE9" opacity="0.1"></path>
                    <path d="M272.599802,106.031652 C272.599802,106.031652 262.108803,104.865678 262.975668,112.301879 C262.975668,112.301879 262.66548,113.592483 263.806528,114.240554 C263.806528,114.240554 263.85361,113.686647 264.914342,113.935905 C265.288127,114.017243 265.670167,114.054425 266.052621,114.046686 C266.568151,114.036136 267.066481,113.859341 267.473393,113.542631 L267.473393,113.542631 C267.473393,113.542631 270.492186,112.470821 271.888032,107.693373 C271.888032,107.693373 272.79367,106.682493 272.771513,106.408309 L270.957468,107.075767 C270.957468,107.075767 271.511375,108.388526 270.957468,109.429871 C270.957468,109.429871 271.015628,107.128388 270.680514,107.164392 C270.611276,107.164392 269.736103,107.560435 269.736103,107.560435 C269.736103,107.560435 270.666667,109.845302 269.797033,111.437784 C269.797033,111.437784 270.234619,108.704253 269.400989,107.718299 L268.113155,108.382987 C268.113155,108.382987 269.220969,110.75094 268.295945,112.589911 C268.295945,112.589911 268.653215,109.715134 267.841741,108.549159 L266.664688,109.38002 C266.664688,109.38002 267.694955,111.709199 266.919486,113.235213 C266.919486,113.235213 266.997033,109.870227 266.407122,109.587735 C266.407122,109.587735 265.374085,110.418595 265.202374,110.762018 C265.202374,110.762018 265.905836,112.451434 265.374085,113.296142 C265.374085,113.296142 265.188526,111.04451 264.944807,111.022354 C264.944807,111.022354 263.881306,112.454204 263.728981,113.465084 C263.824861,112.528292 264.163776,111.632793 264.712166,110.86726 C264.137462,110.946679 263.598438,111.192128 263.161227,111.573492 C263.161227,111.573492 263.368942,110.532146 264.975272,110.523838 C264.975272,110.523838 265.847676,109.44095 266.083086,109.382789 C266.083086,109.382789 264.496142,109.169535 263.507418,109.548961 C263.507418,109.548961 264.407517,108.60178 266.387735,109.152918 L267.55094,108.297132 C267.55094,108.297132 265.468249,107.903858 264.562611,108.175272 C264.562611,108.175272 265.631652,107.344411 267.863897,108.106034 L269.118497,107.438576 C269.118497,107.438576 267.348764,106.962216 266.276954,107.048071 C266.276954,107.048071 267.43185,106.494164 269.484075,107.261325 L270.375865,106.915134 C270.375865,106.915134 269.076954,106.591098 268.697527,106.530168 C268.318101,106.469238 268.298714,106.363996 268.298714,106.363996 C269.135983,106.267931 269.983488,106.405986 270.746983,106.762809 C270.746983,106.762809 272.627498,106.150742 272.599802,106.031652 Z" id="路径" fill="#16ADE9" opacity="0.1"></path>
                    <path d="M236.991889,23.4967359 C236.991889,23.4967359 228.539268,17.1738872 225.517705,24.0229476 C225.517705,24.0229476 224.59545,24.9784372 225.257369,26.1222552 C225.257369,26.1222552 225.573096,25.67636 226.365183,26.4158259 C226.645742,26.6768374 226.95625,26.9036753 227.290208,27.0915925 C227.742615,27.3432706 228.264772,27.4405065 228.777448,27.368546 L228.777448,27.368546 C228.777448,27.368546 231.92364,27.9750742 235.548961,24.5657765 C235.548961,24.5657765 236.839565,24.1503462 236.961424,23.9066271 L235.058754,23.5632047 C235.058754,23.5632047 234.859347,24.9673591 233.876162,25.5960435 C233.876162,25.5960435 235.091988,23.6407517 234.776261,23.4995054 C234.712562,23.4690406 233.762611,23.3610287 233.762611,23.3610287 C233.762611,23.3610287 233.405341,25.8037587 231.854402,26.7260138 C231.854402,26.7260138 233.618595,24.5907023 233.399802,23.3167161 L231.951335,23.2391691 C231.951335,23.2391691 231.704847,25.8397626 229.976657,26.9586548 C229.976657,26.9586548 231.74362,24.6627102 231.638378,23.2447082 L230.203759,23.3610287 C230.203759,23.3610287 229.926805,25.8896142 228.47003,26.8090999 C228.47003,26.8090999 230.242532,23.9509397 229.876954,23.4081108 C229.876954,23.4081108 228.566963,23.5936696 228.242928,23.8096934 C228.242928,23.8096934 227.99367,25.6209693 227.107418,26.0807122 C227.107418,26.0807122 228.087834,24.0451039 227.888427,23.9038576 C227.888427,23.9038576 226.246093,24.5990109 225.600791,25.3910979 C226.159005,24.6326962 226.905548,24.0331708 227.766568,23.6518299 C227.230843,23.4291688 226.641812,23.3675708 226.071612,23.4745796 C226.071612,23.4745796 226.777844,22.6824926 228.16815,23.4884273 C228.16815,23.4884273 229.467062,22.9982196 229.688625,23.0591494 C229.688625,23.0591494 228.428487,22.0704253 227.384372,21.8987141 C227.384372,21.8987141 228.641741,21.5386746 230.068051,23.0065282 L231.50544,22.8597428 C231.50544,22.8597428 229.910188,21.4749753 228.990702,21.2423343 C228.990702,21.2423343 230.328388,21.0733927 231.871019,22.8514342 L233.29179,22.9151335 C233.29179,22.9151335 232.006726,21.607913 231.040158,21.137092 C231.040158,21.137092 232.314144,21.2478734 233.696142,22.9455984 L234.640554,23.0979228 C234.640554,23.0979228 233.685064,22.16182 233.385955,21.9181009 C233.086845,21.6743818 233.131157,21.5940653 233.131157,21.5940653 C233.900547,21.93581 234.560122,22.4841781 235.036597,23.1782394 C235.036597,23.1782394 236.955885,23.6102868 236.991889,23.4967359 Z" id="路径" fill="#16ADE9" opacity="0.1"></path>
                    <path d="M243.522453,69.1442136 C243.522453,69.1442136 240.608902,58.9994065 234.056182,62.6413452 C234.056182,62.6413452 232.743422,62.8435213 232.58002,64.1562809 C232.58002,64.1562809 233.100692,63.9928783 233.280712,65.0536103 C233.347466,65.4346845 233.459021,65.8065346 233.613056,66.1614243 C233.818483,66.6386649 234.174497,67.0355331 234.626706,67.2913947 L234.626706,67.2913947 C234.626706,67.2913947 236.770326,69.6731949 241.716716,69.1414441 C241.716716,69.1414441 242.996241,69.5901088 243.23996,69.4682493 L241.92997,68.0447082 C241.92997,68.0447082 240.924629,69.0472799 239.761424,68.9531157 C239.761424,68.9531157 241.910584,68.1222552 241.744411,67.8259149 C241.711177,67.7649852 241.018793,67.1030663 241.018793,67.1030663 C241.018793,67.1030663 239.262908,68.8367953 237.468249,68.6346192 C237.468249,68.6346192 240.163007,67.9976261 240.755687,66.8510386 L239.647873,65.9149357 C239.647873,65.9149357 237.88091,67.8369931 235.828684,67.6874382 C235.828684,67.6874382 238.620376,66.920277 239.390307,65.7266073 L238.17725,64.953907 C238.17725,64.953907 236.418595,66.7956479 234.712562,66.6571711 C234.712562,66.6571711 237.850445,65.4468843 237.889219,64.7960435 C237.889219,64.7960435 236.731553,64.1535114 236.341048,64.1313551 C236.341048,64.1313551 235.047676,65.4219585 234.064491,65.2557864 C234.064491,65.2557864 236.075173,64.2227498 236.003165,63.9901088 C236.003165,63.9901088 234.274975,63.5552918 233.280712,63.7962413 C234.181219,63.5292107 235.135779,63.5015284 236.050247,63.7159248 C235.757335,63.2147937 235.324074,62.8104165 234.803956,62.5527201 C234.803956,62.5527201 235.845302,62.3450049 236.465678,63.8267062 C236.465678,63.8267062 237.797824,64.2199802 237.936301,64.4027695 C237.936301,64.4027695 237.529179,62.8545994 236.800791,62.0874382 C236.800791,62.0874382 238.019387,62.5582591 238.265875,64.596637 L239.501088,65.347181 C239.501088,65.347181 239.069041,63.2700297 238.470821,62.5388724 C238.470821,62.5388724 239.639565,63.2118694 239.797428,65.5604352 L240.905242,66.4660732 C240.905242,66.4660732 240.669832,64.6492582 240.182394,63.6965381 C240.182394,63.6965381 241.132344,64.555094 241.209891,66.7430267 L241.869041,67.4354105 C241.869041,67.4354105 241.675173,66.1115727 241.592087,65.7349159 C241.509001,65.3582591 241.592087,65.305638 241.592087,65.305638 C242.001919,66.0423124 242.198513,66.8785588 242.159842,67.7206726 C242.159842,67.7206726 243.42275,69.2106825 243.522453,69.1442136 Z" id="路径" fill="#16ADE9" opacity="0.1"></path>
                    <path d="M178.599011,92.0039565 C178.599011,92.0039565 172.940851,83.0915925 167.687043,88.4257171 C167.687043,88.4257171 166.485064,88.9796241 166.695549,90.2951533 C166.695549,90.2951533 167.152522,89.9905045 167.623343,90.9598417 C167.792521,91.3033642 168.002691,91.6251277 168.249258,91.9181009 C168.579482,92.3179741 169.031978,92.5982297 169.537092,92.715727 L169.537092,92.715727 C169.537092,92.715727 172.265084,94.3996044 176.862512,92.4941642 C176.862512,92.4941642 178.216815,92.5661721 178.416222,92.3806133 L176.7545,91.3835806 C176.7545,91.3835806 176.070425,92.6298714 174.926607,92.8652819 C174.926607,92.8652819 176.76004,91.4805143 176.513551,91.2257171 C176.466469,91.1758655 175.613452,90.7382789 175.613452,90.7382789 C175.613452,90.7382789 174.414243,92.8929773 172.636202,93.2059347 C172.636202,93.2059347 175.042928,91.8350148 175.292186,90.5665678 L173.965579,89.9821958 C173.965579,89.9821958 172.810682,92.322453 170.8,92.751731 C170.8,92.751731 173.264886,91.2312562 173.666469,89.8686449 L172.281701,89.4698318 C172.281701,89.4698318 171.112957,91.732542 169.437389,92.0787339 C169.437389,92.0787339 172.107221,90.034817 171.960435,89.3978239 C171.960435,89.3978239 170.669832,89.1070227 170.298714,89.1956479 C170.298714,89.1956479 169.420772,90.7992087 168.429278,90.9155292 C168.429278,90.9155292 170.068843,89.3590504 169.933136,89.1541048 C169.933136,89.1541048 168.152324,89.2233432 167.266073,89.7357072 C168.056625,89.223549 168.967603,88.927529 169.90821,88.8771513 C169.487083,88.4785697 168.95855,88.2118966 168.387735,88.1099901 C168.387735,88.1099901 169.326607,87.6197824 170.326409,88.8660732 C170.326409,88.8660732 171.711177,88.8660732 171.902275,89.00455 C171.902275,89.00455 171.071414,87.6197824 170.160237,87.1018793 C170.160237,87.1018793 171.461919,87.2126607 172.270623,89.0987141 L173.669238,89.4698318 C173.669238,89.4698318 172.669436,87.6003956 171.891197,87.0658754 C171.891197,87.0658754 173.201187,87.3816024 174.012661,89.5944609 L175.319881,90.148368 C175.319881,90.148368 174.583185,88.4727992 173.843719,87.6890208 C173.843719,87.6890208 174.995846,88.2429278 175.68546,90.3228487 L176.51632,90.8019782 C176.51632,90.8019782 175.962413,89.5861523 175.765776,89.2510386 C175.569139,88.9159248 175.646686,88.8383778 175.646686,88.8383778 C176.245998,89.4303593 176.668874,90.1773443 176.868051,90.9958457 C176.868051,90.9958457 178.524233,92.0981207 178.599011,92.0039565 Z" id="路径" fill="#16ADE9" opacity="0.1"></path>
                    <path d="M215.785559,46.4672601 C215.785559,46.4672601 210.404352,37.3859545 204.984372,42.553907 C204.984372,42.553907 203.765776,43.0801187 203.937488,44.3928783 C203.937488,44.3928783 204.4,44.0993076 204.843126,45.0824926 C205.001584,45.4319885 205.201503,45.7611575 205.438576,46.062908 C205.756613,46.4713243 206.200535,46.7633782 206.701484,46.8937685 L206.701484,46.8937685 C206.701484,46.8937685 209.374085,48.6607319 214.029674,46.8937685 C214.029674,46.8937685 215.381207,47.0073195 215.586152,46.8272997 L213.960435,45.7804154 C213.960435,45.7804154 213.240356,47.0017804 212.088229,47.2039565 C212.088229,47.2039565 213.963205,45.866271 213.727794,45.6142433 C213.677943,45.5616222 212.841543,45.0963403 212.841543,45.0963403 C212.841543,45.0963403 211.575865,47.2150346 209.795054,47.4726014 C209.795054,47.4726014 212.243323,46.176459 212.528586,44.91909 L211.221365,44.3042532 C211.221365,44.3042532 209.994461,46.611276 207.969931,46.9796241 C207.969931,46.9796241 210.481899,45.5366963 210.925025,44.1879327 L209.556874,43.7448071 C209.556874,43.7448071 208.316123,45.9604352 206.632245,46.2650841 C206.632245,46.2650841 209.363007,44.3042532 209.235608,43.6644906 C209.235608,43.6644906 207.956083,43.3321464 207.573887,43.4096934 C207.573887,43.4096934 206.646093,44.9855589 205.65183,45.0714144 C205.65183,45.0714144 207.338477,43.5703264 207.211078,43.3598417 C207.211078,43.3598417 205.427498,43.3736894 204.527399,43.8583581 C205.333712,43.3720056 206.253076,43.1046932 207.194461,43.0828882 C206.785096,42.6711887 206.26429,42.3881629 205.696142,42.2686449 C205.696142,42.2686449 206.651632,41.8061325 207.634817,43.0828882 C207.634817,43.0828882 209.019585,43.1299703 209.205143,43.2712166 C209.205143,43.2712166 208.421365,41.8864491 207.524036,41.3159248 C207.524036,41.3159248 208.820178,41.4654797 209.570722,43.376459 L210.95549,43.7918892 C210.95549,43.7918892 210.016617,41.8919881 209.252226,41.332542 C209.252226,41.332542 210.553907,41.6898121 211.296142,43.9248269 L212.583976,44.525816 C212.583976,44.525816 211.899901,42.828091 211.199209,42.0332344 C211.199209,42.0332344 212.331949,42.6231454 212.960633,44.722453 L213.772107,45.2265084 C213.772107,45.2265084 213.251434,43.9940653 213.068645,43.6534125 C212.885856,43.3127596 212.963403,43.2379822 212.963403,43.2379822 C213.543947,43.8481683 213.943749,44.6075055 214.118299,45.431454 C214.118299,45.431454 215.705242,46.5586548 215.785559,46.4672601 Z" id="路径" fill="#16ADE9"></path>
                    <path d="M181.739664,65.5632047 C181.739664,65.5632047 182.016617,55.011276 174.685658,56.4985163 C174.685658,56.4985163 173.372898,56.2963403 172.818991,57.4983185 C172.818991,57.4983185 173.372898,57.4983185 173.217804,58.5645895 C173.167068,58.9447927 173.16149,59.3296632 173.201187,59.7111771 C173.251253,60.2286577 173.470233,60.715279 173.824332,61.0959446 L173.824332,61.0959446 C173.824332,61.0959446 175.145401,64.0150346 180.022552,65.0065282 C180.022552,65.0065282 181.10544,65.823541 181.376855,65.7792285 L180.545994,64.0288823 C180.545994,64.0288823 179.285856,64.6769535 178.202967,64.2365974 C178.202967,64.2365974 180.501682,64.1008902 180.437982,63.7630069 C180.437982,63.6937685 179.961622,62.8518299 179.961622,62.8518299 C179.961622,62.8518299 177.762611,63.9734916 176.114738,63.2367953 C176.114738,63.2367953 178.884273,63.4445104 179.789911,62.5333333 L179.017211,61.3064293 C179.017211,61.3064293 176.751731,62.6025717 174.840752,61.83818 C174.840752,61.83818 177.734916,61.9545005 178.831652,61.0488625 L177.909397,59.9410485 C177.909397,59.9410485 175.674382,61.165183 174.090208,60.5171118 C174.090208,60.5171118 177.446884,60.3149357 177.690603,59.7028684 C177.690603,59.7028684 176.782196,58.7418398 176.416617,58.5950544 C176.416617,58.5950544 174.79367,59.4259149 173.907418,58.9772502 C173.907418,58.9772502 176.123046,58.6061325 176.136894,58.3596439 C176.136894,58.3596439 174.621958,57.4207715 173.6,57.3515331 C174.542361,57.3683811 175.463847,57.6319357 176.272601,58.1159248 C176.146421,57.5498324 175.857644,57.0329208 175.441741,56.6286845 C175.441741,56.6286845 176.496934,56.7477745 176.64095,58.3457962 C176.64095,58.3457962 177.795846,59.1268051 177.870623,59.3428289 C177.870623,59.3428289 177.95094,57.7448071 177.488427,56.792087 C177.488427,56.792087 178.507616,57.6090999 178.12542,59.6253215 L179.075371,60.7165183 C179.075371,60.7165183 179.291395,58.6061325 178.945203,57.7281899 C178.945203,57.7281899 179.85361,58.722453 179.294164,61.010089 L180.061325,62.2037587 C180.061325,62.2037587 180.388131,60.4007913 180.21365,59.3400593 C180.21365,59.3400593 180.856182,60.4478734 180.269041,62.5554896 L180.69001,63.4140455 C180.69001,63.4140455 180.903264,62.0929773 180.930959,61.7080119 C180.958655,61.3230465 181.063897,61.2981207 181.063897,61.2981207 C181.230615,62.1242989 181.164454,62.9805547 180.872799,63.7713155 C180.872799,63.7713155 181.617804,65.5992087 181.739664,65.5632047 Z" id="路径" fill="#16ADE9"></path>
                    <ellipse id="椭圆形" fill="#16ADE9" opacity="0.1" cx="193.859149" cy="198.3818" rx="7.45835806" ry="1.26013848"></ellipse>
                    <ellipse id="椭圆形" fill="#16ADE9" opacity="0.1" cx="166.670623" cy="217.513749" rx="7.45835806" ry="1.26013848"></ellipse>
                    <ellipse id="椭圆形" fill="#16ADE9" opacity="0.1" cx="26.0724036" cy="207.712364" rx="7.45835806" ry="1.26013848"></ellipse>
                    <ellipse id="椭圆形" fill="#16ADE9" opacity="0.1" cx="223.241147" cy="216.25361" rx="7.45835806" ry="1.26013848"></ellipse>
                    <ellipse id="椭圆形" fill="#16ADE9" cx="231.006924" cy="200.265084" rx="11.1363007" ry="1.88328388"></ellipse>
                    <path d="M235.623739,197.182591 C236.13212,196.769499 236.502206,196.210988 236.684471,195.5818 C236.822948,194.944807 236.551533,194.183185 235.945005,193.950544 C235.263699,193.690208 234.535312,194.161029 233.981405,194.637389 C233.427498,195.113749 232.798813,195.659347 232.075964,195.559644 C232.830742,194.873974 233.171228,193.843057 232.973294,192.84273 C232.941913,192.638925 232.85576,192.447473 232.724036,192.288823 C232.344609,191.884471 231.660534,192.058952 231.20633,192.377448 C229.766172,193.391098 229.36459,195.34639 229.356281,197.107814 C229.212265,196.473591 229.334125,195.811672 229.331355,195.169139 C229.328586,194.526607 229.148566,193.784372 228.597428,193.446489 C228.259134,193.25786 227.876876,193.162296 227.489614,193.169535 C226.841543,193.147379 226.118694,193.211078 225.678338,193.684669 C225.124431,194.27181 225.271217,195.260534 225.747577,195.900297 C226.223937,196.540059 226.952324,196.95272 227.622552,197.401385 C228.158966,197.721716 228.616959,198.157945 228.963007,198.67814 C229.002441,198.750598 229.034899,198.826641 229.059941,198.905242 L233.120079,198.905242 C234.029023,198.447444 234.871329,197.867893 235.623739,197.182591 Z" id="路径" fill="#16ADE9"></path>
                </g>
            </g>
        </g>
    </g>
</svg>