<?xml version="1.0" encoding="UTF-8"?>
<svg width="380px" height="238px" viewBox="0 0 380 238" version="1.1" xmlns="http://www.w3.org/2000/svg" xmlns:xlink="http://www.w3.org/1999/xlink">
    <!-- Generator: Sketch 58 (84663) - https://sketch.com -->
    <title>插画</title>
    <desc>Created with Sketch.</desc>
    <defs>
        <polygon id="path-1" points="0.000116993317 0.238539148 40.3460228 0.238539148 40.3460228 32.1860902 0.000116993317 32.1860902"></polygon>
    </defs>
    <g id="工作台" stroke="none" stroke-width="1" fill="none" fill-rule="evenodd">
        <g id="工作台-空状态" transform="translate(-471.000000, -479.000000)">
            <g id="空状态" transform="translate(471.000000, 479.000000)">
                <g id="插画" transform="translate(0.000000, -0.000000)">
                    <path d="M85.1276217,113.776926 L83.0907562,112.513006 C82.8964606,112.393403 82.7054033,112.264102 82.5111077,112.141265 C91.4397237,110.607987 98.1135228,103.105542 98.5828935,94.0739416 C99.0522642,85.0423416 93.1919998,76.8908061 84.4702549,74.4434836 L84.570641,82.4149062 L80.1827988,73.7420243 L80.1277484,73.7420243 C69.435637,73.2466463 60.3643093,81.494505 59.862718,92.1674535 C59.8432884,92.5391947 59.862718,92.9012382 59.862718,93.2665142 C58.3374975,91.5274123 56.9482841,89.6622417 56.0318565,87.6192818 C54.1763336,83.4848741 54.1407127,78.800936 54.2864344,73.1052156 C54.5778778,61.8236809 55.0668551,50.4516352 55.701554,39.11838 C65.1668243,38.0664314 72.4638281,30.3054989 72.9161436,20.8093219 C72.9420497,20.2177686 72.9161436,19.635913 72.9161436,19.0540573 C72.9161436,18.9085934 72.9161436,18.766362 72.8934758,18.6208981 C72.8546167,18.0584376 72.8028045,17.5024422 72.7153715,16.9529119 C72.7153715,16.862401 72.6829889,16.7751226 72.6667976,16.6878443 C72.5890793,16.2223597 72.4919315,15.7633403 72.3818307,15.3107859 C72.3397333,15.1394617 72.297636,14.9875327 72.2523003,14.8032784 C72.1162934,14.3087011 71.9673334,13.833519 71.7924674,13.3421742 C71.7341787,13.1837802 71.6661753,13.0189211 71.6046483,12.8702246 C71.4686414,12.5178787 71.3196815,12.1687653 71.1610067,11.826117 C71.076812,11.6450952 70.9958555,11.4640735 70.9084225,11.2862842 C70.8825164,11.2410288 70.8663251,11.1925408 70.840419,11.1472854 L70.840419,11.1472854 C66.6171653,2.82606412 57.0462651,-1.30112014 48.0819285,1.33331991 L48.2114589,11.7097458 L43.8721906,3.13707245 C36.5553433,7.32339599 32.810948,15.7690574 34.6269586,23.9901328 L34.607529,23.9901328 C34.6366734,24.1291317 34.6787708,24.2616655 34.7111534,24.3974318 C34.7726803,24.6528018 34.8374455,24.9049392 34.9086872,25.1570767 C34.9993585,25.4803298 35.1029828,25.803583 35.2098454,26.1268361 C35.2908019,26.3660434 35.3685201,26.6020182 35.4591914,26.837993 C35.5919601,27.1806414 35.74092,27.5135921 35.88988,27.8465428 C35.977313,28.0404947 36.0550312,28.2409117 36.1489408,28.431631 C36.3950485,28.9337509 36.6627447,29.4218632 36.9520292,29.8959678 C37.0524153,30.0640594 37.1657544,30.2192209 37.2758552,30.38408 C37.4831038,30.7073332 37.6903525,31.0305863 37.9235072,31.3312117 C38.0627524,31.5219311 38.2117123,31.7061854 38.357434,31.8904397 C38.5711592,32.1587398 38.7881226,32.4238074 39.005086,32.6791773 C39.1637607,32.8634316 39.328912,33.0412209 39.4940632,33.2157776 C39.7336945,33.467915 39.9765639,33.7103549 40.2291482,33.9463297 C40.3975377,34.1047237 40.5529742,34.2695828 40.737555,34.4182793 C41.0225219,34.6736492 41.3204418,34.9128566 41.6216,35.1488314 C41.7737982,35.268435 41.9227581,35.3912712 42.0781946,35.5076424 C42.5380275,35.8308955 43.0108135,36.1541486 43.4997907,36.4774018 C43.590462,36.5323548 43.690848,36.5776103 43.7815193,36.6325633 C44.1927783,36.8717706 44.6072756,37.1012804 45.0347259,37.3081624 C45.2193067,37.3986733 45.4071258,37.4794865 45.5949449,37.5635324 C45.9446769,37.7186939 46.2976473,37.8706228 46.6603324,38.0096217 L47.3079843,38.2358989 C47.6641929,38.3555026 48.026878,38.4686412 48.3928014,38.559152 C48.6065266,38.6173376 48.82349,38.6787557 49.0404534,38.7304762 C49.4355211,38.8242196 49.8403036,38.9018004 50.2483243,38.9729161 L50.3260426,38.9890787 C50.0605053,43.7710702 49.8230329,48.5541393 49.6136254,53.3382858 C47.2793546,48.5500604 43.0706042,44.9344445 37.9796075,43.3438371 C32.8886109,41.7532297 27.3658709,42.3283838 22.7134005,44.9337041 L26.1394794,54.3080452 L19.0897876,47.5520545 C15.3103879,51.0018128 13.0577621,55.8083701 12.826993,60.9153395 C12.7273131,62.7095339 12.8843286,64.5087522 13.2933024,66.258714 C15.1071715,73.9812946 21.4601969,79.8158223 29.3205245,80.9778856 C37.1808521,82.139949 44.9552692,78.3940089 48.9335908,71.5277403 C48.9335908,72.01262 48.9012082,72.4974997 48.8882552,72.9856119 C48.7587248,78.0089658 48.5968118,84.2606816 51.1064632,89.8432634 C52.8065496,93.6253252 55.539641,96.6994626 58.230635,99.4535794 C59.9890101,101.244402 61.8121504,102.980271 63.6806264,104.657955 C65.5202331,107.123151 67.9196916,109.117316 70.6817443,110.476512 C73.7516146,112.83626 76.9315859,115.057009 80.2184197,117.106434 L82.2714764,118.380051 C84.1172846,119.521135 86.0084283,120.694544 87.860713,121.913208 C87.536887,121.880883 87.213061,121.845325 86.889235,121.829162 C78.4565541,121.436973 70.7383454,126.535 67.8029312,134.436035 L79.9140232,144.272628 L66.591822,141.188793 C66.5991206,147.839988 70.0263009,154.021773 75.6681387,157.560223 C81.3099765,161.098672 88.3764691,161.498312 94.3825684,158.618602 L93.4823322,159.733826 C92.8864924,160.472998 92.2982085,161.20786 91.7174805,161.938412 C83.835556,171.904307 81.643254,181.362694 85.5453572,188.574471 L90.2926462,186.017539 C86.4941673,178.996481 92.2064578,170.010043 95.9498862,165.277617 C96.51982,164.559995 97.0983891,163.838063 97.6855935,163.111821 C102.721088,156.86657 108.426902,149.787327 108.287656,141.104747 C108.083646,128.000065 95.3540464,120.112688 85.1276217,113.776926 Z" id="路径" fill="#ECECEC" fill-rule="nonzero" opacity="0.702706473"></path>
                    <ellipse id="椭圆形" fill="#EAEAEA" fill-rule="nonzero" opacity="0.337727865" cx="190" cy="188.082243" rx="190" ry="6.39896373"></ellipse>
                    <path d="M34.5341034,185.621104 C33.6296015,183.876795 34.6547036,181.736772 35.8275411,180.182406 C37.0003785,178.628041 38.4234614,177.016692 38.3933113,175.025458 C38.3480862,172.176315 35.4687553,170.495321 33.1683056,168.982109 C31.4601379,167.862526 29.8852332,166.533035 28.476956,165.021801 C27.8849455,164.446274 27.3940484,163.765813 27.026738,163.011572 C26.550367,161.897241 26.562427,160.630955 26.5925771,159.412155 C26.6950873,155.347378 26.8870427,151.285767 27.1684433,147.227321" id="路径" stroke="#E9E9E9" stroke-width="4"></path>
                    <path d="M22.6468191,146.540536 C22.7151943,145.028717 23.5504382,143.656385 24.8618025,142.901249 L25.8553808,144.869629 L25.8237382,142.486687 C26.2990093,142.34738 26.7940164,142.287502 27.2887916,142.309469 C29.7295898,142.428777 31.6127886,144.502254 31.4975737,146.943507 C31.3823589,149.384761 29.312252,151.271622 26.8710686,151.160476 C24.4298852,151.04933 22.5397656,148.982161 22.6468191,146.540536 L22.6468191,146.540536 Z" id="路径" fill="#EFEDED" fill-rule="nonzero"></path>
                    <path d="M30.0212999,176.330803 C30.981998,178.191455 33.1152018,179.125876 35.135543,178.571028 C37.1558841,178.016179 38.5115582,176.123604 38.3856998,174.033679 C38.2598413,171.943755 36.6868254,170.227289 34.6144774,169.918544 C32.5421294,169.6098 30.5364581,170.793102 29.8059867,172.755448 L32.5828943,175.011402 L29.5336788,174.312151 C29.5338518,175.014139 29.7009845,175.706034 30.0212999,176.330803 L30.0212999,176.330803 Z" id="路径" fill="#EFEDED" fill-rule="nonzero"></path>
                    <path d="M32.7211819,167.889777 C34.9819805,168.050797 36.9910595,166.445809 37.3527154,164.189797 C37.7143713,161.933784 36.3090865,159.772299 34.1131096,159.206921 L34.138133,161.029911 L33.1434521,159.046069 L33.1434521,159.046069 C31.9801455,158.988702 30.8420987,159.400977 29.9809836,160.191724 C29.1198686,160.98247 28.6066354,162.086535 28.5547825,163.259762 C28.5290849,163.770542 28.5926095,164.281901 28.7424582,164.770509 C29.2829587,166.552717 30.874995,167.800852 32.7211819,167.889777 Z" id="路径" fill="#EFEDED" fill-rule="nonzero"></path>
                    <path d="M21.9697086,161.99115 C23.8456632,162.059837 25.5628747,160.947666 26.2610771,159.2118 C26.9592794,157.475933 26.4880803,155.490274 25.0835349,154.249573 C23.6789895,153.008872 21.6436358,152.780374 19.9971187,153.67855 L20.7848841,155.83027 L19.1648827,154.279766 C18.2967381,155.071817 17.7792771,156.17446 17.7259403,157.345967 C17.7047915,157.757342 17.7422219,158.169628 17.8371169,158.570548 C18.2893461,160.504557 19.978269,161.902502 21.9697086,161.99115 L21.9697086,161.99115 Z" id="路径" fill="#EFEDED" fill-rule="nonzero" opacity="0.974655878"></path>
                    <path d="M23.1526158,147.518118 C24.1921235,147.6384 25.2027559,147.985498 26.2454719,148.05423 C27.2881879,148.122963 28.4335713,147.858343 29.0944929,146.98888 C29.4474121,146.5215 29.6270801,145.930402 29.9254573,145.418346 C30.2104256,144.942643 30.6005325,144.549571 31.0612157,144.273953 C31.8041785,145.934091 31.597565,147.902812 30.5290376,149.344824 C29.4605101,150.786837 27.7174356,151.449282 26.0393686,151.051097 C24.3613016,150.652912 23.0424922,149.263919 22.642487,147.473442 C22.8114605,147.473442 22.9815034,147.488334 23.1526158,147.518118 Z" id="路径" fill="#EFEDED" fill-rule="nonzero"></path>
                    <path d="M21.8735593,161.987949 C23.4491464,162.073956 24.9506351,161.262003 25.8264947,159.850337 C26.7023544,158.438671 26.8234515,156.635424 26.1453043,155.102969 C25.7889733,155.360705 25.4825253,155.690395 25.2429582,156.073751 C24.9229773,156.593567 24.727789,157.196003 24.3534113,157.671066 C23.6526531,158.555786 22.4591244,158.844956 21.3743891,158.793318 C20.2896539,158.741681 19.2433163,158.407759 18.1745801,158.301042 C18.0241891,158.301042 17.8737981,158.276945 17.7202073,158.273502 C18.1772421,160.371275 19.8729882,161.887823 21.8735593,161.987949 L21.8735593,161.987949 Z" id="路径" fill="#EFEDED" fill-rule="nonzero" opacity="0.974655878"></path>
                    <path d="M32.6633777,168.879093 C34.2369696,168.965121 35.7383844,168.159635 36.6254094,166.753522 C37.5124345,165.34741 37.6569,163.543846 37.0066345,161.994161 C36.6309167,162.259121 36.3029106,162.595592 36.0385981,162.98718 C35.6868782,163.523758 35.4674566,164.14396 35.0705616,164.638727 C34.3058128,165.555092 33.0215512,165.87913 31.866361,165.851256 C30.7111709,165.823382 29.6624647,165.527218 28.5492228,165.433143 C29.1080033,167.405479 30.7552204,168.785162 32.6633777,168.879093 Z" id="路径" fill="#EFEDED" fill-rule="nonzero"></path>
                    <path d="M30.5181347,176.819156 C31.5628195,179.285315 34.3024345,180.390001 36.6372363,179.286542 C38.9720381,178.183083 40.0178847,175.289335 38.9732001,172.823176 C38.5904591,173.087539 38.2474266,173.411049 37.9555526,173.782909 C37.5128098,174.348279 37.2220533,174.993918 36.7132295,175.527878 C35.764967,176.512041 34.2351916,176.923854 32.8706187,176.955263 C32.0845962,176.959196 31.299048,176.913746 30.5181347,176.819156 Z" id="路径" fill="#EFEDED" fill-rule="nonzero"></path>
                    <path d="M42.3316062,183.654056 C42.3316062,183.654056 38.8919253,183.542088 37.855054,182.758316 C36.8181827,181.974544 32.5775653,181.04258 32.3105865,182.297274 C32.0436076,183.551968 27.1417519,188.554279 31.0222583,188.574038 C34.9027647,188.593797 40.0436596,187.935165 41.080531,187.256773 C42.1174023,186.578382 42.3316062,183.654056 42.3316062,183.654056 Z" id="路径" fill="#E2E0E0" fill-rule="nonzero"></path>
                    <path d="M30.9422833,188.130936 C34.8298803,188.163747 39.9729443,187.474709 41.0077722,186.818483 C41.7971005,186.309908 42.1109672,184.492161 42.2166253,183.652192 L42.3316062,183.652192 C42.3316062,183.652192 42.1140748,186.585523 41.0885696,187.261436 C40.0630644,187.937349 34.9075701,188.596856 31.0199731,188.573888 C29.8981326,188.573888 29.5127912,188.14406 29.5345444,187.520645 C29.6806012,187.904538 30.1063412,188.121092 30.9422833,188.130936 Z" id="路径" fill="#DCDCDC" fill-rule="nonzero"></path>
                    <path d="M60.1139896,36.9682538 L318.854922,36.9682538 C322.720916,36.9682538 325.854922,40.1022605 325.854922,43.9682538 L325.854922,180.636648 C325.854922,182.845787 324.064061,184.636648 321.854922,184.636648 L60.1139896,184.636648 C57.9048506,184.636648 56.1139896,182.845787 56.1139896,180.636648 L56.1139896,40.9682538 C56.1139896,38.7591148 57.9048506,36.9682538 60.1139896,36.9682538 Z" id="矩形" fill="#F2F2F2" fill-rule="nonzero"></path>
                    <path d="M56.1139896,47.7972693 L141.761658,47.7972693 L141.761658,184.636648 L62.6398306,184.636648 C59.0357082,184.636648 56.1139896,181.754083 56.1139896,178.19826 L56.1139896,47.7972693 Z" id="路径" fill="#D0EFFB" fill-rule="nonzero" opacity="0.965215774"></path>
                    <g id="编组" transform="translate(78.756477, 81.268772)">
                        <g>
                            <mask id="mask-2" fill="white">
                                <use xlink:href="#path-1"></use>
                            </mask>
                            <g id="Clip-2"></g>
                            <path d="M29.4517221,28.8709075 C25.225046,28.8709075 21.7848576,25.3328274 21.7848576,20.9852785 C21.7848576,20.617092 21.7658461,20.2540191 21.7313331,19.8948568 C21.7202187,19.775136 21.6991599,19.6590249 21.6839508,19.5399057 C21.6541175,19.3031714 21.6228218,19.0658355 21.5789493,18.8339141 C21.5520409,18.6958441 21.5178203,18.561083 21.4871096,18.4248179 C21.4388498,18.2166602 21.3902976,18.0088033 21.331216,17.8051576 C21.2911458,17.6643804 21.2440559,17.5269121 21.1984285,17.3879397 C21.1346672,17.1945214 21.0682735,17.0047129 20.9942752,16.8164083 C20.9395808,16.67894 20.8825466,16.5423741 20.8231725,16.406109 C20.743617,16.2241213 20.6593818,16.0454426 20.5710519,15.8685687 C20.5040732,15.7368156 20.437387,15.6062658 20.3663136,15.4778217 C20.2703791,15.3039558 20.1688874,15.1349028 20.0638859,14.9673539 C19.9878402,14.8449259 19.912672,14.7218962 19.8319466,14.6030779 C19.7178781,14.4349273 19.5962051,14.2727929 19.4739471,14.1118617 C19.3914668,14.0032707 19.3113263,13.8919725 19.2250438,13.787292 C19.0866992,13.6170358 18.9389951,13.455503 18.7901211,13.294271 C18.7093957,13.2070373 18.633935,13.1155923 18.5499923,13.0301634 C18.3370645,12.8144855 18.1141922,12.6078318 17.8848853,12.408999 C17.8600243,12.3876418 17.837503,12.3635773 17.8123495,12.3425209 C17.5570116,12.1253389 17.2908518,11.9225957 17.0167949,11.7309823 C16.9229078,11.6642034 16.8249259,11.6064486 16.7286989,11.5444826 C16.542387,11.422957 16.3563677,11.3014313 16.1630362,11.1916372 C16.0460429,11.1233542 15.9249548,11.0659003 15.8056216,11.002731 C15.6257444,10.9082779 15.4446972,10.8156297 15.2595553,10.7317048 C15.1291078,10.6733484 14.9966128,10.6204066 14.8641179,10.5674647 C14.6810234,10.4931657 14.4970514,10.4218746 14.3092771,10.357803 C14.171225,10.311178 14.031418,10.267862 13.8907335,10.2260499 C13.7012043,10.1704008 13.5093353,10.1186622 13.3148339,10.0741429 C13.1723945,10.0410543 13.0290777,10.008868 12.8837135,9.98149467 C12.8035731,9.96555196 12.7254801,9.94299151 12.6438772,9.92915443 C13.3326754,6.30113342 16.4470375,3.55387234 20.1726896,3.55387234 C24.4002431,3.55387234 27.8398467,7.094058 27.8398467,11.4428102 C27.8398467,12.3581628 28.5616954,13.1008528 29.4517221,13.1008528 C33.681323,13.1008528 37.1223889,16.6377296 37.1223889,20.9852785 C37.1223889,25.3328274 33.681323,28.8709075 29.4517221,28.8709075 M30.9603509,9.89065127 C30.223878,4.44455887 25.6675733,0.238388745 20.1726896,0.238388745 C14.6748812,0.238388745 10.127351,4.45328224 9.39409537,9.90298431 C4.09663798,10.6574057 0.000116993317,15.3334348 0.000116993317,20.9852785 C0.000116993317,27.0678764 4.74156364,32.0227526 10.6216477,32.1719524 C10.6675676,32.1758628 10.7111476,32.1860902 10.757945,32.1860902 C10.7740315,32.1860902 10.7874858,32.1821798 10.8029874,32.1815782 C10.8334056,32.1821798 10.8623615,32.1860902 10.8930722,32.1860902 L10.8930722,32.1719524 C11.7190451,32.1009621 12.3701129,31.3961737 12.3701129,30.5283484 L12.3701129,25.8691645 C12.3701129,24.9529095 11.6485566,24.2108211 10.757945,24.2108211 C9.86733333,24.2108211 9.14577705,24.9529095 9.14577705,25.8691645 L9.14577705,28.6564328 C5.7576506,27.8406469 3.22416032,24.7143703 3.22416032,20.9852785 C3.22416032,16.6377296 6.66376384,13.1008528 10.8904399,13.1008528 C13.5339039,13.1008528 15.8690905,14.4821539 17.2493191,16.5808772 C18.0770469,17.8388479 18.5611067,19.3546092 18.5611067,20.9852785 C18.5611067,27.1611262 23.4467476,32.1860902 29.4517221,32.1860902 C35.4593289,32.1860902 40.3461397,27.1611262 40.3461397,20.9852785 C40.3461397,15.3349388 36.2563459,10.6480807 30.9603509,9.89065127" id="Fill-1" fill="#FFFFFF" mask="url(#mask-2)"></path>
                        </g>
                        <path d="M8.77449876,21.0731566 L8.77449876,21.0737937 C8.77449876,22.0442669 9.56064545,22.8287355 10.5298761,22.8287355 C11.4991068,22.8287355 12.2842983,22.0420374 12.2842983,21.0731566 C12.2842983,20.1033204 11.4991068,19.3166223 10.5298761,19.3166223 C9.56064545,19.3166223 8.77449876,20.1033204 8.77449876,21.0731566" id="Fill-3" fill="#FFFFFF"></path>
                        <path d="M8.77449876,21.0731566 L8.77449876,21.0737937 C8.77449876,22.0442669 9.56064545,22.8287355 10.5298761,22.8287355 C11.4991068,22.8287355 12.2842983,22.0420374 12.2842983,21.0731566 C12.2842983,20.1033204 11.4991068,19.3166223 10.5298761,19.3166223 C9.56064545,19.3166223 8.77449876,20.1033204 8.77449876,21.0731566" id="Fill-5" fill="#FFFFFF"></path>
                    </g>
                    <path d="M325.854922,43.8785193 L325.854922,47.7972693 L56.1139896,47.7972693 L56.1139896,43.8785193 C56.1139896,40.062085 59.0709018,36.9682538 62.7184379,36.9682538 L319.250474,36.9682538 C322.89801,36.9682538 325.854922,40.062085 325.854922,43.8785193 Z" id="路径" fill="#3F3D56" fill-rule="nonzero" opacity="0.113374256"></path>
                    <circle id="椭圆形" fill="#D0EFFB" fill-rule="nonzero" opacity="0.556966146" cx="63.0051813" cy="41.8905336" r="1.96891192"></circle>
                    <circle id="椭圆形" fill="#D0EFFB" fill-rule="nonzero" opacity="0.556966146" cx="67.9274611" cy="41.8905336" r="1.96891192"></circle>
                    <circle id="椭圆形" fill="#D0EFFB" fill-rule="nonzero" opacity="0.556966146" cx="71.865285" cy="41.8905336" r="1.96891192"></circle>
                    <rect id="矩形" fill="#D0EFFB" fill-rule="nonzero" opacity="0.580868676" x="180.15544" y="85.2065957" width="112.227979" height="3.93782383" rx="1.24"></rect>
                    <rect id="矩形" fill="#D0EFFB" fill-rule="nonzero" opacity="0.577566964" x="180.15544" y="127.538202" width="112.227979" height="3.93782383" rx="1.24"></rect>
                    <rect id="矩形" fill="#D0EFFB" fill-rule="nonzero" opacity="0.580868676" x="268.756477" y="92.0977875" width="23.626943" height="7.87564767" rx="1.24"></rect>
                    <rect id="矩形" fill="#D0EFFB" fill-rule="nonzero" opacity="0.577566964" x="268.756477" y="135.41385" width="23.626943" height="7.87564767" rx="1.24"></rect>
                    <path d="M346.528497,161.383229 L346.528497,164.574303 C346.528497,164.78043 346.386433,164.947528 346.211187,164.947528 L346.211187,164.947528 C346.035941,164.947528 345.893876,164.78043 345.893876,164.574303 L345.893876,161.916941 C345.893876,161.710814 345.751811,161.543716 345.576566,161.543716 L339.604781,161.543716 C339.429536,161.543716 339.287471,161.710814 339.287471,161.916941 L339.287471,164.574303 C339.287471,164.78043 339.145406,164.947528 338.97016,164.947528 L338.97016,164.947528 C338.794915,164.947528 338.65285,164.78043 338.65285,164.574303 L338.65285,161.383229 C338.65285,161.177102 338.794915,161.010004 338.97016,161.010004 L346.198494,161.010004 C346.284827,161.005938 346.368836,161.043458 346.431118,161.113897 C346.493399,161.184336 346.528497,161.281602 346.528497,161.383229 Z" id="路径" fill="#3C354C" fill-rule="nonzero" opacity="0.272530692"></path>
                    <path d="M318.965456,185.594923 C318.923444,186.565515 319.653214,187.402475 320.635844,187.510657 L364.468889,188.57389 C364.507083,188.577438 364.54498,188.564639 364.572882,188.538768 L364.572882,188.538768 C364.59263,188.522723 364.605413,188.499888 364.608629,188.47491 L365.19034,185.818425 C365.222109,185.667234 365.236283,185.512985 365.232587,185.358649 L364.29665,166.083168 C364.287057,165.766796 364.192912,165.458473 364.023669,165.189158 L363.373712,164.116347 C363.351943,164.082268 363.324475,164.052044 363.292468,164.026946 C363.235328,163.984834 363.165657,163.962391 363.094231,163.963072 L321.822014,164.566545 C320.825683,164.580679 320.012671,165.354279 319.966389,166.332213 L318.965456,185.594923 Z" id="路径" fill="#E3DFDF" fill-rule="nonzero"></path>
                    <path d="M363.264249,163.963072 L365.222792,188.574471 L365.222792,188.574471 L365.276652,188.510363 L366.1531,185.843433 C366.200966,185.691648 366.222321,185.536792 366.216752,185.381849 L364.806601,166.030584 C364.792148,165.712969 364.650302,165.403433 364.395307,165.133059 L363.416036,164.05603 C363.374954,164.018993 363.323434,163.987441 363.264249,163.963072 Z" id="路径" fill="#000000" fill-rule="nonzero" opacity="0.0672619048"></path>
                    <text id="暂无税务服务" font-family="PingFangSC-Medium, 蘋方-簡" font-size="16" font-weight="500" line-spacing="16" fill="#666666">
                        <tspan x="142" y="237">暂无税务服务</tspan>
                    </text>
                </g>
            </g>
        </g>
    </g>
</svg>