<?xml version="1.0" encoding="UTF-8"?>
<svg width="17px" height="16px" viewBox="0 0 17 16" version="1.1" xmlns="http://www.w3.org/2000/svg" xmlns:xlink="http://www.w3.org/1999/xlink">
    <!-- Generator: Sketch 58 (84663) - https://sketch.com -->
    <title>Rectangle</title>
    <desc>Created with Sketch.</desc>
    <g id="英国" stroke="none" stroke-width="1" fill="none" fill-rule="evenodd">
        <g id="各国申报流程" transform="translate(-1194.000000, -524.000000)">
            <g id="编组-18备份-3" transform="translate(72.000000, 506.000000)">
                <g id="编组-20">
                    <g id="编组-19" transform="translate(1106.333333, 10.000000)">
                        <g id="编组-25备份" transform="translate(8.000000, 0.000000)">
                            <g id="Group" transform="translate(8.000000, 8.000000)">
                                <rect id="Rectangle" x="0" y="0" width="16" height="16"></rect>
                                <path d="M14.7598679,2.67372295 C15.0676886,2.95088593 15.0925415,3.42510886 14.8153786,3.73292953 L5.87069996,13.6670015 C5.76844566,13.7805664 5.63936936,13.8556164 5.50172256,13.8911948 C5.23254234,13.971435 4.92922343,13.8967818 4.7288735,13.6742707 L4.7288735,13.6742707 L1.19573191,9.75031944 C0.918568943,9.44249878 0.943421914,8.96827584 1.25124258,8.69111287 C1.55906324,8.4139499 2.03328618,8.43880287 2.31044915,8.74662353 L2.31044915,8.74662353 L5.29608414,12.0620752 L13.7006613,2.72923362 C13.9778243,2.42141295 14.4520472,2.39655998 14.7598679,2.67372295 Z" id="Combined-Shape" fill="#FFFFFF"></path>
                            </g>
                        </g>
                    </g>
                </g>
            </g>
        </g>
    </g>
</svg>