<?xml version="1.0" encoding="UTF-8"?>
<svg width="20px" height="20px" viewBox="0 0 20 20" version="1.1" xmlns="http://www.w3.org/2000/svg" xmlns:xlink="http://www.w3.org/1999/xlink">
    <!-- Generator: Sketch 58 (84663) - https://sketch.com -->
    <title>矩形</title>
    <desc>Created with Sketch.</desc>
    <g id="欧代/英代" stroke="none" stroke-width="1" fill="none" fill-rule="evenodd">
        <g id="欧代-注册完成" transform="translate(-16.000000, -446.000000)">
            <g id="左侧栏">
                <g id="平台服务备份" transform="translate(0.000000, 436.000000)">
                    <g id="平台服务">
                        <g id="编组-4" transform="translate(16.000000, 10.000000)">
                            <rect id="矩形" fill="#D8D8D8" opacity="0" x="0" y="0" width="20" height="20"></rect>
                            <g id="151" transform="translate(2.000000, 1.000000)" fill-rule="nonzero">
                                <polygon id="路径" fill="#DFE9FF" points="4.86116667 3.03044444 15.5278333 3.03044444 15.5278333 13.0304947 10.1945 16.3637778 4.86116667 13.0304947"></polygon>
                                <path d="M7.88888889,17.7777778 C7.74397061,17.7777778 7.60155653,17.7399932 7.47572222,17.6681111 L0.420166667,13.6403333 C0.160346114,13.492039 -2.84217094e-14,13.2158287 -2.84217094e-14,12.9166667 L-2.84217094e-14,0.833333333 C-2.84217094e-14,0.373111111 0.373111111,0 0.833333333,0 L14.9444444,0 C15.4046667,0 15.7777778,0.373111111 15.7777778,0.833333333 L15.7777778,12.9166667 C15.7777778,13.2158225 15.6174148,13.4920219 15.3576111,13.6403333 L8.30205556,17.6681111 C8.17622125,17.7399932 8.03380717,17.7777778 7.88888889,17.7777778 L7.88888889,17.7777778 Z M1.66666667,12.4328333 L7.88888889,15.9848889 L14.1111111,12.4328333 L14.1111111,1.66666667 L1.66666667,1.66666667 L1.66666667,12.4328333 Z" id="形状" fill="#1890FF"></path>
                                <path d="M9.27777778,6.11111111 L3.44444444,6.11111111 C2.98422222,6.11111111 2.61111111,5.738 2.61111111,5.27777778 C2.61111111,4.81755556 2.98422222,4.44444444 3.44444444,4.44444444 L9.27777778,4.44444444 C9.738,4.44444444 10.1111111,4.81755556 10.1111111,5.27777778 C10.1111111,5.738 9.738,6.11111111 9.27777778,6.11111111 Z M7.05555556,9.72222222 L3.44444444,9.72222222 C2.98422222,9.72222222 2.61111111,9.34911111 2.61111111,8.88888889 C2.61111111,8.42866667 2.98422222,8.05555556 3.44444444,8.05555556 L7.05555556,8.05555556 C7.51577778,8.05555556 7.88888889,8.42866667 7.88888889,8.88888889 C7.88888889,9.34911111 7.51577778,9.72222222 7.05555556,9.72222222 Z" id="形状" fill="#1890FF"></path>
                            </g>
                        </g>
                    </g>
                </g>
            </g>
        </g>
    </g>
</svg>