<svg width="16" height="16" viewBox="0 0 16 16" fill="none" xmlns="http://www.w3.org/2000/svg">
<g id="&#231;&#177;&#187;&#229;&#158;&#139;=ERP&#230;&#156;&#141;&#229;&#138;&#161;, &#231;&#138;&#182;&#230;&#128;&#129;=&#233;&#128;&#137;&#228;&#184;&#173;, &#230;&#168;&#161;&#229;&#157;&#151;=&#229;&#175;&#188;&#232;&#136;&#170;" clip-path="url(#clip0_474_22513)">
<g id="ERP">
<path d="M4.47308 11.8023C4.28846 11.8023 3.92179 11.8023 3.37308 11.8023C2.82692 11.7985 2.38462 11.7965 2.04615 11.7965C1.64872 11.7965 1.2359 11.7985 0.807692 11.8023C0.379487 11.8023 0.110256 11.8023 0 11.8023C0 11.624 0.00128205 11.2306 0.00384615 10.6221C0.00641026 10.0136 0.00769231 9.01552 0.00769231 7.62792C0.00769231 7.16668 0.00641026 6.61242 0.00384615 5.96513C0.00128205 5.31397 0 4.66474 0 4.01746C0.161538 4.01746 0.434615 4.01939 0.819231 4.02327C1.20641 4.02327 1.58846 4.02327 1.96538 4.02327C2.34487 4.02327 2.82564 4.02327 3.40769 4.02327C3.98974 4.01939 4.32949 4.01746 4.42692 4.01746V6.2849C4.36026 6.2849 4.18333 6.2849 3.89615 6.2849C3.60897 6.28102 3.4141 6.27908 3.31154 6.27908C3.16538 6.27908 2.94872 6.28102 2.66154 6.2849C2.37436 6.2849 2.15256 6.2849 1.99615 6.2849C1.99615 6.3818 1.99615 6.51746 1.99615 6.69187C1.99615 6.86242 1.99615 6.99226 1.99615 7.08141C2.15513 7.08141 2.36923 7.08335 2.63846 7.08722C2.91026 7.08722 3.11795 7.08722 3.26154 7.08722C3.4359 7.08722 3.62308 7.08722 3.82308 7.08722C4.02308 7.08335 4.2 7.08141 4.35385 7.08141V8.7035C4.26154 8.7035 4.07949 8.7035 3.80769 8.7035C3.5359 8.69963 3.35 8.69769 3.25 8.69769C3.10641 8.69769 2.90128 8.69963 2.63462 8.7035C2.37051 8.7035 2.15769 8.7035 1.99615 8.7035C1.99615 8.79265 1.99615 8.93025 1.99615 9.11629C1.99615 9.29846 1.99615 9.438 1.99615 9.5349C2.15513 9.5349 2.38974 9.53684 2.7 9.54071C3.01282 9.54071 3.24359 9.54071 3.39231 9.54071C3.56667 9.54071 3.75897 9.54071 3.96923 9.54071C4.18205 9.53684 4.35 9.5349 4.47308 9.5349V11.8023Z" fill="#3A7FFF"/>
<path d="M15.9 11.2733L13.8077 12.0872C13.6564 11.7229 13.4833 11.3004 13.2885 10.8198C13.0962 10.3353 12.8115 9.5969 12.4346 8.60465L12.4692 8.41279C12.5385 8.39341 12.6269 8.34884 12.7346 8.27907C12.8449 8.2093 12.9333 8.11822 13 8.00581C13.0949 7.8469 13.1526 7.71124 13.1731 7.59884C13.1962 7.48643 13.2077 7.35659 13.2077 7.2093C13.2077 7.05039 13.1821 6.89729 13.1308 6.75C13.0821 6.60271 13.0141 6.49419 12.9269 6.42442C12.85 6.36628 12.7769 6.32752 12.7077 6.30814C12.641 6.28488 12.5641 6.27326 12.4769 6.27326C12.4436 6.27326 12.4167 6.27326 12.3962 6.27326C12.3782 6.27326 12.3692 6.27326 12.3692 6.27326C12.3692 6.37016 12.3679 6.60853 12.3654 6.98837C12.3628 7.36434 12.3615 7.84302 12.3615 8.42442C12.3615 9.19186 12.3628 9.84496 12.3654 10.3837C12.3679 10.9225 12.3692 11.4244 12.3692 11.8895H10.2577C10.2577 11.4826 10.259 11.0329 10.2615 10.5407C10.2641 10.0446 10.2654 9.10271 10.2654 7.71512C10.2654 7.25388 10.2641 6.69961 10.2615 6.05233C10.259 5.40116 10.2577 4.75194 10.2577 4.10465C10.3987 4.10465 10.5872 4.10271 10.8231 4.09884C11.0615 4.09109 11.2872 4.08721 11.5 4.08721C12.0923 4.08721 12.5744 4.10078 12.9462 4.12791C13.3205 4.15504 13.6641 4.2345 13.9769 4.36628C14.4692 4.56395 14.8179 4.85659 15.0231 5.24419C15.2308 5.63178 15.3346 6.04651 15.3346 6.48837C15.3346 6.9186 15.2705 7.30039 15.1423 7.63372C15.0167 7.96318 14.8654 8.21705 14.6885 8.39535V8.43605C14.8423 8.79651 14.9936 9.1531 15.1423 9.50581C15.2936 9.85465 15.5462 10.4438 15.9 11.2733Z" fill="#3A7FFF"/>
<path d="M10 6.91279C10 7.50581 9.90641 8.00581 9.71923 8.41279C9.53205 8.81589 9.27051 9.1531 8.93462 9.42442C8.69615 9.61434 8.40128 9.75775 8.05 9.85465C7.70128 9.94767 7.39487 9.99612 7.13077 10L7.13461 11.8023H5.02308C5.02308 11.2907 5.02436 10.7422 5.02692 10.157C5.02949 9.57171 5.03077 8.72868 5.03077 7.62791C5.03077 7.16667 5.02949 6.6124 5.02692 5.96512C5.02436 5.31395 5.02308 4.66473 5.02308 4.01744C5.1641 4.01744 5.33846 4.0155 5.54615 4.01163C5.75641 4.00388 5.96795 4 6.18077 4C6.87051 4 7.38333 4.02907 7.71923 4.08721C8.05513 4.14147 8.36923 4.24806 8.66154 4.40698C9.08461 4.63178 9.41282 4.95736 9.64615 5.38372C9.88205 5.81008 10 6.31977 10 6.91279ZM7.84615 7.19186C7.84615 7.02907 7.82308 6.87597 7.77692 6.73256C7.73333 6.58527 7.66667 6.46705 7.57692 6.37791C7.49744 6.30039 7.41795 6.25194 7.33846 6.23256C7.25897 6.21318 7.17949 6.20349 7.1 6.20349C7.09231 6.20349 7.07692 6.20349 7.05385 6.20349C7.03077 6.20349 7.01923 6.20349 7.01923 6.20349C7.01923 6.27326 7.01923 6.41473 7.01923 6.62791C7.01923 6.84109 7.01923 7.02713 7.01923 7.18605C7.01923 7.36822 7.01923 7.59884 7.01923 7.87791C7.01923 8.15698 7.01923 8.29651 7.01923 8.29651C7.02692 8.29651 7.04103 8.29651 7.06154 8.29651C7.08205 8.29651 7.09615 8.29651 7.10385 8.29651C7.16539 8.29651 7.24231 8.28101 7.33462 8.25C7.42692 8.21512 7.49744 8.17248 7.54615 8.12209C7.64615 8.02132 7.72051 7.90698 7.76923 7.77907C7.82051 7.65116 7.84615 7.45543 7.84615 7.19186Z" fill="#549BFF"/>
</g>
</g>
<defs>
<clipPath id="clip0_474_22513">
<rect width="16" height="16" fill="white"/>
</clipPath>
</defs>
</svg>
