<svg width="16" height="16" viewBox="0 0 16 16" fill="none" xmlns="http://www.w3.org/2000/svg">
<g id="&#231;&#177;&#187;&#229;&#158;&#139;=&#229;&#144;&#136;&#232;&#167;&#132;&#230;&#156;&#141;&#229;&#138;&#161;, &#231;&#138;&#182;&#230;&#128;&#129;=&#233;&#187;&#152;&#232;&#174;&#164;, &#230;&#168;&#161;&#229;&#157;&#151;=&#229;&#175;&#188;&#232;&#136;&#170;" clip-path="url(#clip0_465_19758)">
<path id="Subtract" fill-rule="evenodd" clip-rule="evenodd" d="M5.42158 6.17358L11.7426 3.08862L13.7446 4.01279C14.161 4.20527 14.5013 4.74975 14.5 5.22304L14.4873 10.8814C14.486 11.36 14.1394 11.9045 13.7154 12.093L8.49893 14.408C8.22344 14.5307 7.77402 14.5307 7.49854 14.408L2.28457 12.093C1.86182 11.9045 1.51397 11.36 1.5127 10.8814L1.5 5.22304C1.49873 4.74975 1.8377 4.20527 2.2541 4.01279L7.4833 1.59888C7.76768 1.46704 8.23232 1.46704 8.5167 1.59888L10.6394 2.57974L4.31836 5.66469V7.64619L5.42158 8.15507V6.17358ZM11.8757 9.49945L13.1699 9.17948C13.1208 8.98088 13.0544 8.81378 12.9706 8.67818C12.8882 8.54225 12.7749 8.43418 12.6309 8.35396C12.5147 8.29057 12.3842 8.25375 12.2393 8.24352C12.0941 8.23197 11.938 8.24684 11.7709 8.28814C11.6223 8.32488 11.4791 8.38612 11.3412 8.47186C11.2033 8.55759 11.0944 8.65917 11.0146 8.7766C10.913 8.92454 10.8512 9.06403 10.8291 9.19508C10.8081 9.32449 10.8171 9.46811 10.8561 9.62594C10.8942 9.77982 10.9645 9.91457 11.067 10.0302C11.1705 10.1441 11.2998 10.2322 11.4547 10.2944C11.6402 10.3672 11.8425 10.4009 12.0617 10.3955C12.2819 10.3885 12.5176 10.354 12.7688 10.2919C12.8582 10.2698 12.9393 10.2476 13.0119 10.2255C13.0846 10.2033 13.1455 10.1841 13.1945 10.1678L13.1257 9.49186C13.08 9.50455 13.0264 9.5192 12.9649 9.5358L12.7282 9.59433C12.6624 9.61059 12.5904 9.627 12.5122 9.64355C12.4336 9.65879 12.35 9.66761 12.2612 9.67001C12.1449 9.67365 12.0547 9.65896 11.9907 9.62593C11.9268 9.59291 11.8884 9.55075 11.8757 9.49945ZM12.07 8.88828C12.1218 8.93408 12.158 8.99842 12.1785 9.08128L11.6971 9.20029C11.6789 9.10988 11.6846 9.03383 11.714 8.97213C11.7444 8.90879 11.7977 8.86769 11.874 8.84883C11.9542 8.82899 12.0196 8.84214 12.07 8.88828ZM10.8759 11.2666L10.7946 10.4807L10.7433 10.4934L10.6861 10.5075C10.6651 10.5127 10.6046 10.5249 10.5046 10.544C10.4057 10.5615 10.3215 10.5711 10.2522 10.5729C10.1467 10.5753 10.059 10.5649 9.98906 10.5417C9.92012 10.5169 9.87785 10.4729 9.86224 10.4097C9.84598 10.344 9.86322 10.2839 9.91397 10.2295C9.96471 10.1751 10.0361 10.1253 10.1283 10.0802C10.2066 10.0413 10.2873 10.0095 10.3705 9.98472C10.4537 9.95996 10.5118 9.94352 10.5446 9.93539L10.5861 9.92514L10.6354 9.91295L10.345 9.17877L10.3095 9.18755L10.2464 9.20316C9.96887 9.27177 9.73518 9.35676 9.54531 9.45813C9.35513 9.55819 9.19577 9.67853 9.06726 9.81917C8.95622 9.93455 8.87818 10.062 8.83312 10.2015C8.78939 10.3407 8.78833 10.4945 8.82995 10.6629C8.86865 10.8194 8.93978 10.9518 9.04333 11.0602C9.1482 11.1683 9.27779 11.2493 9.43209 11.3032C9.60608 11.3635 9.79692 11.3959 10.0046 11.4003C10.2119 11.4035 10.4649 11.3682 10.7634 11.2944L10.8265 11.2788L10.8759 11.2666Z" fill="#919498"/>
</g>
<defs>
<clipPath id="clip0_465_19758">
<rect width="16" height="16" fill="white"/>
</clipPath>
</defs>
</svg>
