<svg width="16" height="16" viewBox="0 0 16 16" fill="none" xmlns="http://www.w3.org/2000/svg">
<g id="&#231;&#177;&#187;&#229;&#158;&#139;=&#231;&#174;&#161;&#231;&#144;&#134;&#228;&#184;&#173;&#229;&#191;&#131;, &#231;&#138;&#182;&#230;&#128;&#129;=&#233;&#187;&#152;&#232;&#174;&#164;, &#230;&#168;&#161;&#229;&#157;&#151;=&#229;&#175;&#188;&#232;&#136;&#170;" clip-path="url(#clip0_465_19762)">
<path id="Subtract" fill-rule="evenodd" clip-rule="evenodd" d="M4.32331 2.23982C4.41105 2.09123 4.57119 2 4.74425 2H11.2559C11.429 2 11.5891 2.09124 11.6769 2.23983L14.9326 7.75335C15.0225 7.90559 15.0225 8.09441 14.9326 8.24665L11.6769 13.7602C11.5891 13.9088 11.429 14 11.2559 14H4.74425C4.57119 14 4.41105 13.9088 4.32331 13.7602L1.06743 8.24666C0.977523 8.09441 0.977523 7.90559 1.06743 7.75334L4.32331 2.23982ZM5.88379 7.99873C5.88379 6.83447 6.83129 5.89062 8.00007 5.89062C9.16885 5.89062 10.1163 6.83447 10.1163 7.99873C10.1163 9.163 9.16885 10.1068 8.00007 10.1068C6.83129 10.1068 5.88379 9.163 5.88379 7.99873Z" fill="#919498"/>
</g>
<defs>
<clipPath id="clip0_465_19762">
<rect width="16" height="16" fill="white"/>
</clipPath>
</defs>
</svg>
