<svg width="16" height="16" viewBox="0 0 16 16" fill="none" xmlns="http://www.w3.org/2000/svg">
<g id="&#231;&#177;&#187;&#229;&#158;&#139;=&#231;&#187;&#173;&#232;&#180;&#185;&#230;&#156;&#141;&#229;&#138;&#161;, &#231;&#138;&#182;&#230;&#128;&#129;=&#233;&#187;&#152;&#232;&#174;&#164;, &#230;&#168;&#161;&#229;&#157;&#151;=&#229;&#175;&#188;&#232;&#136;&#170;" clip-path="url(#clip0_465_16717)">
<path id="Union" fill-rule="evenodd" clip-rule="evenodd" d="M2 4.5C1.86098 4.5 1.72823 4.55788 1.63362 4.65976C1.53902 4.76163 1.4911 4.89829 1.50137 5.03694L2.16803 14.0369C2.18737 14.298 2.40486 14.5 2.66667 14.5H13.3333C13.5951 14.5 13.8126 14.298 13.832 14.0369L14.4986 5.03694C14.5089 4.89829 14.461 4.76163 14.3664 4.65976C14.2718 4.55788 14.139 4.5 14 4.5H2Z" fill="#919498"/>
<path id="Vector" d="M5.33301 6.33333V2H10.6663V6.33333" stroke="#606266" stroke-linecap="round" stroke-linejoin="round"/>
<path id="Vector_2" d="M8 11L12 11" stroke="white" stroke-linecap="round"/>
<path id="Vector_3" d="M10 9L10 13" stroke="white" stroke-linecap="round"/>
</g>
<defs>
<clipPath id="clip0_465_16717">
<rect width="16" height="16" fill="white"/>
</clipPath>
</defs>
</svg>
