<svg width="16" height="16" viewBox="0 0 16 16" fill="none" xmlns="http://www.w3.org/2000/svg">
<g id="&#231;&#177;&#187;&#229;&#158;&#139;=&#229;&#144;&#136;&#232;&#167;&#132;&#230;&#156;&#141;&#229;&#138;&#161;, &#231;&#138;&#182;&#230;&#128;&#129;=&#233;&#128;&#137;&#228;&#184;&#173;, &#230;&#168;&#161;&#229;&#157;&#151;=&#229;&#175;&#188;&#232;&#136;&#170;" clip-path="url(#clip0_474_22515)">
<path id="Subtract" fill-rule="evenodd" clip-rule="evenodd" d="M11.7426 3.08862L5.42158 6.17358V8.15507L4.31836 7.64619V5.66469L10.6394 2.57974L8.5167 1.59888C8.23232 1.46704 7.76768 1.46704 7.4833 1.59888L2.2541 4.01279C1.8377 4.20527 1.49873 4.74975 1.5 5.22304L1.5127 10.8814C1.51397 11.36 1.86182 11.9045 2.28457 12.093L7.49854 14.408C7.77402 14.5307 8.22344 14.5307 8.49893 14.408L13.7154 12.093C14.1395 11.9045 14.486 11.36 14.4873 10.8814L14.5 5.22304C14.5013 4.74975 14.161 4.20527 13.7446 4.01279L11.7426 3.08862Z" fill="#3A7FFF"/>
<path id="Rectangle 572" d="M8.5 8.14391C8.5 7.75177 8.7292 7.39582 9.0862 7.23355L12.5862 5.64264C13.2483 5.34168 14 5.82572 14 6.553V10.8561C14 11.2482 13.7708 11.6042 13.4138 11.7665L9.9138 13.3574C9.2517 13.6583 8.5 13.1743 8.5 12.447V8.14391Z" fill="#549BFF"/>
<g id="ce">
<path d="M11.3485 11.4662L11.4298 12.2521C11.4088 12.2573 11.3923 12.2613 11.3805 12.2643C11.37 12.2669 11.3489 12.2721 11.3173 12.2799C11.0188 12.3537 10.7658 12.389 10.5585 12.3859C10.3509 12.3814 10.16 12.349 9.98602 12.2887C9.83172 12.2348 9.70214 12.1538 9.59727 12.0457C9.49371 11.9373 9.42259 11.8049 9.38389 11.6484C9.34227 11.48 9.34332 11.3263 9.38706 11.1871C9.43211 11.0475 9.51016 10.9201 9.62119 10.8047C9.74971 10.664 9.90906 10.5437 10.0993 10.4436C10.2891 10.3423 10.5228 10.2573 10.8003 10.1887C10.8358 10.1799 10.8569 10.1747 10.8634 10.1731C10.87 10.1714 10.8819 10.1685 10.899 10.1643L11.1893 10.8985C11.1709 10.903 11.1545 10.9071 11.14 10.9107C11.1255 10.9142 11.1117 10.9176 11.0986 10.9209C11.0657 10.929 11.0077 10.9455 10.9245 10.9702C10.8413 10.995 10.7605 11.0268 10.6822 11.0657C10.5901 11.1108 10.5186 11.1606 10.4679 11.215C10.4172 11.2694 10.3999 11.3295 10.4162 11.3953C10.4318 11.4584 10.4741 11.5024 10.543 11.5272C10.6129 11.5504 10.7006 11.5608 10.8061 11.5584C10.8755 11.5566 10.9596 11.547 11.0586 11.5295C11.1585 11.5104 11.219 11.4982 11.24 11.493C11.2611 11.4878 11.2802 11.4831 11.2973 11.4789C11.3143 11.4747 11.3485 11.4662 11.3485 11.4662Z" fill="white"/>
<path d="M13.7239 10.165L12.4297 10.485C12.4424 10.5363 12.4807 10.5784 12.5447 10.6114C12.6087 10.6445 12.6988 10.6592 12.8152 10.6555C12.9039 10.6531 12.9875 10.6443 13.0661 10.6291C13.1444 10.6125 13.2164 10.5961 13.2821 10.5798C13.3781 10.5561 13.4571 10.5366 13.5189 10.5213C13.5804 10.5047 13.634 10.4901 13.6797 10.4774L13.7484 11.1533C13.6994 11.1696 13.6386 11.1888 13.5659 11.211C13.4932 11.2331 13.4121 11.2553 13.3227 11.2774C13.0715 11.3395 12.8358 11.3741 12.6156 11.381C12.3964 11.3864 12.1941 11.3527 12.0087 11.2799C11.8537 11.2177 11.7245 11.1296 11.6209 11.0157C11.5184 10.9001 11.4481 10.7653 11.41 10.6115C11.371 10.4536 11.362 10.31 11.3831 10.1806C11.4051 10.0495 11.4669 9.91005 11.5685 9.76212C11.6483 9.64469 11.7572 9.54311 11.8951 9.45737C12.033 9.37164 12.1763 9.3104 12.3249 9.27365C12.4919 9.23236 12.648 9.21748 12.7932 9.22903C12.9381 9.23927 13.0686 9.27608 13.1848 9.33947C13.3289 9.41969 13.4421 9.52777 13.5246 9.66369C13.6083 9.79929 13.6748 9.96639 13.7239 10.165ZM12.7324 10.0668C12.7119 9.98393 12.6758 9.9196 12.624 9.87379C12.5735 9.82766 12.5081 9.81451 12.4279 9.83434C12.3516 9.8532 12.2983 9.8943 12.2679 9.95764C12.2385 10.0193 12.2329 10.0954 12.251 10.1858L12.7324 10.0668Z" fill="white"/>
</g>
</g>
<defs>
<clipPath id="clip0_474_22515">
<rect width="16" height="16" fill="white"/>
</clipPath>
</defs>
</svg>
