<svg width="16" height="16" viewBox="0 0 16 16" fill="none" xmlns="http://www.w3.org/2000/svg">
<g id="&#231;&#177;&#187;&#229;&#158;&#139;=&#231;&#174;&#161;&#231;&#144;&#134;&#228;&#184;&#173;&#229;&#191;&#131;, &#231;&#138;&#182;&#230;&#128;&#129;=&#233;&#128;&#137;&#228;&#184;&#173;, &#230;&#168;&#161;&#229;&#157;&#151;=&#229;&#175;&#188;&#232;&#136;&#170;" clip-path="url(#clip0_474_22519)">
<path id="Subtract" fill-rule="evenodd" clip-rule="evenodd" d="M5.9395 1.48449C6.06272 1.36367 6.24101 1.31699 6.40817 1.36178L12.698 3.04713C12.8651 3.09192 12.9962 3.22149 13.0425 3.38774L14.7603 9.55602C14.8077 9.72634 14.7588 9.90873 14.6326 10.0325L10.0608 14.5155C9.93759 14.6363 9.75929 14.683 9.59213 14.6382L3.30234 12.9529C3.13518 12.9081 3.00411 12.7785 2.95782 12.6123L1.23988 6.44396C1.19244 6.27364 1.24132 6.09124 1.36756 5.96745L5.9395 1.48449ZM5.9563 7.45105C6.25763 6.32645 7.41713 5.66 8.54608 5.96251C9.67504 6.26501 10.346 7.42192 10.0446 8.54652C9.7433 9.67111 8.5838 10.3376 7.45485 10.0351C6.32589 9.73256 5.65496 8.57565 5.9563 7.45105Z" fill="#3A7FFF"/>
</g>
<defs>
<clipPath id="clip0_474_22519">
<rect width="16" height="16" fill="white"/>
</clipPath>
</defs>
</svg>
