<svg width="16" height="16" viewBox="0 0 16 16" fill="none" xmlns="http://www.w3.org/2000/svg">
<g id="&#231;&#177;&#187;&#229;&#158;&#139;=ERP&#230;&#156;&#141;&#229;&#138;&#161;, &#231;&#138;&#182;&#230;&#128;&#129;=&#233;&#187;&#152;&#232;&#174;&#164;, &#230;&#168;&#161;&#229;&#157;&#151;=&#229;&#175;&#188;&#232;&#136;&#170;" clip-path="url(#clip0_465_19754)">
<g id="ERP">
<path d="M4.47308 11.8023C4.28846 11.8023 3.92179 11.8023 3.37308 11.8023C2.82692 11.7985 2.38462 11.7965 2.04615 11.7965C1.64872 11.7965 1.2359 11.7985 0.807692 11.8023C0.379487 11.8023 0.110256 11.8023 0 11.8023C0 11.624 0.00128205 11.2306 0.00384615 10.6221C0.00641026 10.0136 0.00769231 9.01551 0.00769231 7.62792C0.00769231 7.16668 0.00641026 6.61241 0.00384615 5.96513C0.00128205 5.31396 0 4.66474 0 4.01745C0.161538 4.01745 0.434615 4.01939 0.819231 4.02326C1.20641 4.02326 1.58846 4.02326 1.96538 4.02326C2.34487 4.02326 2.82564 4.02326 3.40769 4.02326C3.98974 4.01939 4.32949 4.01745 4.42692 4.01745V6.28489C4.36026 6.28489 4.18333 6.28489 3.89615 6.28489C3.60897 6.28102 3.4141 6.27908 3.31154 6.27908C3.16538 6.27908 2.94872 6.28102 2.66154 6.28489C2.37436 6.28489 2.15256 6.28489 1.99615 6.28489C1.99615 6.38179 1.99615 6.51745 1.99615 6.69187C1.99615 6.86241 1.99615 6.99226 1.99615 7.0814C2.15513 7.0814 2.36923 7.08334 2.63846 7.08722C2.91026 7.08722 3.11795 7.08722 3.26154 7.08722C3.4359 7.08722 3.62308 7.08722 3.82308 7.08722C4.02308 7.08334 4.2 7.0814 4.35385 7.0814V8.7035C4.26154 8.7035 4.07949 8.7035 3.80769 8.7035C3.5359 8.69962 3.35 8.69768 3.25 8.69768C3.10641 8.69768 2.90128 8.69962 2.63462 8.7035C2.37051 8.7035 2.15769 8.7035 1.99615 8.7035C1.99615 8.79264 1.99615 8.93024 1.99615 9.11629C1.99615 9.29846 1.99615 9.43799 1.99615 9.53489C2.15513 9.53489 2.38974 9.53683 2.7 9.54071C3.01282 9.54071 3.24359 9.54071 3.39231 9.54071C3.56667 9.54071 3.75897 9.54071 3.96923 9.54071C4.18205 9.53683 4.35 9.53489 4.47308 9.53489V11.8023Z" fill="#919498"/>
<path d="M15.7344 11.25L13.6421 12.064C13.4908 11.6996 13.3177 11.2771 13.1229 10.7965C12.9306 10.312 12.646 9.57365 12.269 8.58141L12.3036 8.38955C12.3729 8.37017 12.4613 8.32559 12.569 8.25582C12.6793 8.18606 12.7677 8.09497 12.8344 7.98257C12.9293 7.82365 12.987 7.68799 13.0075 7.57559C13.0306 7.46319 13.0421 7.33334 13.0421 7.18606C13.0421 7.02714 13.0165 6.87404 12.9652 6.72675C12.9165 6.57947 12.8485 6.47094 12.7613 6.40117C12.6844 6.34303 12.6113 6.30427 12.5421 6.28489C12.4754 6.26164 12.3985 6.25001 12.3113 6.25001C12.278 6.25001 12.2511 6.25001 12.2306 6.25001C12.2126 6.25001 12.2036 6.25001 12.2036 6.25001C12.2036 6.34691 12.2024 6.58528 12.1998 6.96513C12.1972 7.3411 12.1959 7.81978 12.1959 8.40117C12.1959 9.16861 12.1972 9.82172 12.1998 10.3605C12.2024 10.8992 12.2036 11.4012 12.2036 11.8663H10.0921C10.0921 11.4593 10.0934 11.0097 10.0959 10.5175C10.0985 10.0213 10.0998 9.07947 10.0998 7.69187C10.0998 7.23063 10.0985 6.67637 10.0959 6.02908C10.0934 5.37792 10.0921 4.72869 10.0921 4.08141C10.2331 4.08141 10.4216 4.07947 10.6575 4.07559C10.8959 4.06784 11.1216 4.06396 11.3344 4.06396C11.9267 4.06396 12.4088 4.07753 12.7806 4.10466C13.1549 4.13179 13.4985 4.21125 13.8113 4.34303C14.3036 4.54071 14.6524 4.83334 14.8575 5.22094C15.0652 5.60854 15.169 6.02327 15.169 6.46513C15.169 6.89536 15.1049 7.27714 14.9767 7.61048C14.8511 7.93993 14.6998 8.19381 14.5229 8.3721V8.4128C14.6767 8.77327 14.828 9.12986 14.9767 9.48257C15.128 9.83141 15.3806 10.4206 15.7344 11.25Z" fill="#919498"/>
<path d="M10 6.91279C10 7.50581 9.90641 8.00581 9.71923 8.41279C9.53205 8.81589 9.27051 9.1531 8.93462 9.42442C8.69615 9.61434 8.40128 9.75775 8.05 9.85465C7.70128 9.94767 7.39487 9.99612 7.13077 10L7.13461 11.8023H5.02308C5.02308 11.2907 5.02436 10.7422 5.02692 10.157C5.02949 9.57171 5.03077 8.72868 5.03077 7.62791C5.03077 7.16667 5.02949 6.6124 5.02692 5.96512C5.02436 5.31395 5.02308 4.66473 5.02308 4.01744C5.1641 4.01744 5.33846 4.0155 5.54615 4.01163C5.75641 4.00388 5.96795 4 6.18077 4C6.87051 4 7.38333 4.02907 7.71923 4.08721C8.05513 4.14147 8.36923 4.24806 8.66154 4.40698C9.08461 4.63178 9.41282 4.95736 9.64615 5.38372C9.88205 5.81008 10 6.31977 10 6.91279ZM7.84615 7.19186C7.84615 7.02907 7.82308 6.87597 7.77692 6.73256C7.73333 6.58527 7.66667 6.46705 7.57692 6.37791C7.49744 6.30039 7.41795 6.25194 7.33846 6.23256C7.25897 6.21318 7.17949 6.20349 7.1 6.20349C7.09231 6.20349 7.07692 6.20349 7.05385 6.20349C7.03077 6.20349 7.01923 6.20349 7.01923 6.20349C7.01923 6.27326 7.01923 6.41473 7.01923 6.62791C7.01923 6.84109 7.01923 7.02713 7.01923 7.18605C7.01923 7.36822 7.01923 7.59884 7.01923 7.87791C7.01923 8.15698 7.01923 8.29651 7.01923 8.29651C7.02692 8.29651 7.04103 8.29651 7.06154 8.29651C7.08205 8.29651 7.09615 8.29651 7.10385 8.29651C7.16539 8.29651 7.24231 8.28101 7.33462 8.25C7.42692 8.21512 7.49744 8.17248 7.54615 8.12209C7.64615 8.02132 7.72051 7.90698 7.76923 7.77907C7.82051 7.65116 7.84615 7.45543 7.84615 7.19186Z" fill="#919498"/>
</g>
</g>
<defs>
<clipPath id="clip0_465_19754">
<rect width="16" height="16" fill="white"/>
</clipPath>
</defs>
</svg>
