<svg width="14" height="14" viewBox="0 0 14 14" fill="none" xmlns="http://www.w3.org/2000/svg">
<g id="&#231;&#177;&#187;&#229;&#158;&#139;=&#230;&#143;&#144;&#231;&#164;&#186;, &#231;&#138;&#182;&#230;&#128;&#129;=&#233;&#187;&#152;&#232;&#174;&#164;, &#230;&#168;&#161;&#229;&#157;&#151;=&#231;&#187;&#173;&#232;&#180;&#185;&#230;&#156;&#141;&#229;&#138;&#161;">
<path id="Vector" d="M9.45 5.34333C9.415 5.97917 9.2225 6.475 8.24834 7.44333C7.75834 7.93333 7.44334 8.30667 7.41417 8.61C7.40253 8.73171 7.34581 8.84466 7.25514 8.92669C7.16448 9.00872 7.04643 9.05389 6.92417 9.05333H6.8775C6.81305 9.04749 6.75038 9.02893 6.69314 8.99874C6.63589 8.96854 6.5852 8.92731 6.54398 8.87741C6.50276 8.82751 6.47183 8.76994 6.45298 8.70802C6.43414 8.64611 6.42774 8.58107 6.43417 8.51667C6.60495 7.8155 7.01045 7.19386 7.58334 6.755C8.46417 5.87417 8.48167 5.58833 8.49334 5.29667C8.50128 5.12275 8.47326 4.94906 8.41103 4.78646C8.3488 4.62386 8.2537 4.47584 8.13167 4.35167C7.98618 4.19826 7.81055 4.07658 7.61581 3.99427C7.42107 3.91196 7.21141 3.87078 7 3.87333C6.61014 3.87333 6.23624 4.02821 5.96056 4.30389C5.68488 4.57957 5.53 4.95346 5.53 5.34333C5.53 5.47406 5.47807 5.59944 5.38563 5.69188C5.29319 5.78432 5.16782 5.83625 5.03709 5.83625C4.90636 5.83625 4.78098 5.78432 4.68854 5.69188C4.5961 5.59944 4.54417 5.47406 4.54417 5.34333C4.55185 4.69707 4.81397 4.07989 5.2737 3.62562C5.73343 3.17135 6.3537 2.91662 7 2.91667C7.34235 2.91603 7.68125 2.98499 7.99613 3.11936C8.311 3.25373 8.59527 3.45071 8.83167 3.69833C9.04058 3.91649 9.20309 4.17474 9.30937 4.45748C9.41565 4.74022 9.46349 5.04158 9.45 5.34333ZM6.9125 11.0833C6.79713 11.0833 6.68435 11.0491 6.58842 10.985C6.49249 10.9209 6.41773 10.8298 6.37357 10.7232C6.32942 10.6166 6.31787 10.4994 6.34038 10.3862C6.36289 10.273 6.41844 10.1691 6.50002 10.0875C6.5816 10.0059 6.68554 9.95038 6.7987 9.92787C6.91186 9.90537 7.02915 9.91692 7.13574 9.96107C7.24233 10.0052 7.33343 10.08 7.39753 10.1759C7.46163 10.2718 7.49584 10.3846 7.49584 10.5C7.49584 10.6547 7.43438 10.8031 7.32498 10.9125C7.21559 11.0219 7.06721 11.0833 6.9125 11.0833ZM7 0C5.61553 0 4.26216 0.410543 3.11101 1.17971C1.95987 1.94888 1.06266 3.04213 0.532846 4.32122C0.00303297 5.6003 -0.13559 7.00776 0.134506 8.36563C0.404603 9.7235 1.07129 10.9708 2.05026 11.9497C3.02922 12.9287 4.2765 13.5954 5.63437 13.8655C6.99224 14.1356 8.3997 13.997 9.67879 13.4672C10.9579 12.9373 12.0511 12.0401 12.8203 10.889C13.5895 9.73785 14 8.38447 14 7C14 5.14348 13.2625 3.36301 11.9498 2.05025C10.637 0.737498 8.85652 0 7 0V0Z" fill="url(#paint0_linear_603_30926)"/>
</g>
<defs>
<linearGradient id="paint0_linear_603_30926" x1="14" y1="14" x2="-0.430954" y2="13.4546" gradientUnits="userSpaceOnUse">
<stop stop-color="#FAAD14"/>
<stop offset="1" stop-color="#FAC714"/>
</linearGradient>
</defs>
</svg>
