<svg width="16" height="16" viewBox="0 0 16 16" fill="none" xmlns="http://www.w3.org/2000/svg">
<g id="&#231;&#177;&#187;&#229;&#158;&#139;=VAT&#230;&#156;&#141;&#229;&#138;&#161;, &#231;&#138;&#182;&#230;&#128;&#129;=&#233;&#187;&#152;&#232;&#174;&#164;, &#230;&#168;&#161;&#229;&#157;&#151;=&#229;&#175;&#188;&#232;&#136;&#170;" clip-path="url(#clip0_465_19750)">
<g id="VAT">
<path d="M5.98127 4.83642C5.89164 5.15505 5.62529 6.1394 5.18223 7.78947C4.73918 9.43575 4.38063 10.7748 4.1066 11.8065H1.8593C1.61088 10.862 1.36375 9.92888 1.11789 9.00711C0.87459 8.08156 0.501961 6.69132 0 4.83642L2.11285 4C2.17175 4.26932 2.29724 4.86866 2.48932 5.79801C2.68139 6.72357 2.8517 7.54291 3.00024 8.25605H3.05402C3.23329 7.39877 3.41256 6.53201 3.59184 5.65576C3.77367 4.77572 3.88635 4.2238 3.92989 4L5.98127 4.83642Z" fill="#919498"/>
<path d="M11.6667 11.1636L9.5539 12C9.50524 11.7686 9.4489 11.505 9.38487 11.2091C9.32341 10.9132 9.27603 10.6875 9.24274 10.532H7.92893C7.911 10.623 7.86619 10.8431 7.79448 11.192C7.72277 11.5372 7.66515 11.8065 7.62161 12L5.57023 11.1636C5.64194 10.9018 5.89804 9.95543 6.33854 8.32432C6.77903 6.68943 7.14782 5.31247 7.4449 4.19346H9.80744C10.1506 5.49075 10.5335 6.9303 10.9561 8.51209C11.3786 10.0901 11.6155 10.9739 11.6667 11.1636ZM9.08139 8.74538C9.01225 8.45709 8.93157 8.10811 8.83938 7.69844C8.74718 7.28876 8.66395 6.92461 8.58968 6.60597H8.56663C8.49492 6.91323 8.40656 7.29445 8.30156 7.74964C8.19912 8.20104 8.12229 8.53295 8.07107 8.74538L8.07491 8.75107H9.07755L9.08139 8.74538Z" fill="#919498"/>
<path d="M16 6.74822C15.8054 6.74822 15.5569 6.74822 15.2547 6.74822C14.9525 6.74443 14.7067 6.74253 14.5172 6.74253C14.5172 7.09531 14.5159 7.42532 14.5133 7.73257C14.5108 8.03604 14.5095 8.3926 14.5095 8.80228C14.5095 9.43196 14.5108 9.99336 14.5133 10.4865C14.5159 10.9796 14.5172 11.4196 14.5172 11.8065H12.4082C12.4082 11.45 12.4094 11.0593 12.412 10.6344C12.4146 10.2058 12.4158 9.61024 12.4158 8.8478C12.4158 8.5064 12.4146 8.16501 12.412 7.82361C12.412 7.48222 12.4107 7.12186 12.4082 6.74253C12.1521 6.74253 11.8652 6.74443 11.5477 6.74822C11.2301 6.74822 11.0226 6.74822 10.9253 6.74822V4.18777C11.038 4.18777 11.3709 4.18966 11.9241 4.19346C12.4799 4.19346 12.9985 4.19346 13.48 4.19346C13.8667 4.19346 14.3353 4.19346 14.886 4.19346C15.4391 4.18966 15.8105 4.18777 16 4.18777V6.74822Z" fill="#919498"/>
</g>
</g>
<defs>
<clipPath id="clip0_465_19750">
<rect width="16" height="16" fill="white"/>
</clipPath>
</defs>
</svg>
