<?xml version="1.0" encoding="UTF-8"?>
<svg width="20px" height="20px" viewBox="0 0 20 20" version="1.1" xmlns="http://www.w3.org/2000/svg" xmlns:xlink="http://www.w3.org/1999/xlink">
    <!-- Generator: Sketch 58 (84663) - https://sketch.com -->
    <title>lianxiwomen</title>
    <desc>Created with Sketch.</desc>
    <g id="工作台" stroke="none" stroke-width="1" fill="none" fill-rule="evenodd">
        <g id="税务管理-VAT信件右侧客服浮窗" transform="translate(-1409.000000, -449.000000)" fill="#FFFFFF" fill-rule="nonzero">
            <g id="编组-9" transform="translate(1398.000000, 439.000000)">
                <g id="lianxiwomen" transform="translate(11.000000, 10.000000)">
                    <path d="M9.27105264,14.6705263 C13.6642105,14.6705263 17.2710526,11.6463158 17.2310526,7.98263158 C17.2310526,4.28894736 13.6642105,1.29421053 9.24052631,1.29421053 C4.81631578,1.29421053 1.25,4.27789475 1.25,7.98263158 C1.25,10.1405263 2.50421053,12.1894737 4.61842105,13.4289474 L4.95736842,13.6268421 C5.15578947,13.7247369 5.29684211,13.9610526 5.29684211,14.1978947 L5.29684211,15.5078947 L6.52263158,14.7005263 L6.76052631,14.5321053 C6.93052631,14.4342105 7.1,14.4047368 7.26947369,14.4342105 L7.53842105,14.5026316 C8.11421053,14.6005263 8.69105264,14.6710526 9.27105264,14.6710526 L9.27105264,14.6705263 Z M9.29526316,0 C14.4378947,0 18.6021053,3.64526316 18.5712252,8.19157895 C18.5712252,12.6968421 14.4094737,16.3421053 9.26473684,16.3421053 C8.59,16.3421053 7.94631578,16.3126316 7.30263158,16.1715789 L4.76578947,17.8794737 C4.68487979,17.9267368 4.59264335,17.9511149 4.49894736,17.9500366 C4.23210525,17.9500366 3.9936842,17.7410526 3.99368422,17.4 L3.99368422,14.8752632 C1.58526316,13.3652632 0,10.9094737 0,8.15315789 C0,3.64736842 4.15263158,0 9.29526316,0 Z" id="形状"></path>
                    <path d="M18.9484211,10.8468421 C18.9284211,10.8173684 18.9084211,10.7968421 18.8884211,10.7652632 C18.7347377,11.3238776 18.5230603,11.8648898 18.2568421,12.3794737 C18.2673684,12.3994737 18.2763158,12.4289474 18.2963158,12.4494737 C18.4794737,12.8594737 18.5821053,13.3105263 18.5821053,13.7721053 C18.5821053,15.0052631 17.8589474,16.1773684 16.6468421,16.8894737 L16.4521053,17.0089474 C16.3294292,17.0733215 16.254236,17.2020491 16.2584211,17.3405263 L16.2584211,18.0910526 L15.5547368,17.6289474 L15.4231579,17.53 C15.3205263,17.4689474 15.2289474,17.4489474 15.1284211,17.4689474 L14.9768421,17.5094737 C14.64,17.5705263 14.3136842,17.6089474 13.9789474,17.6089474 C13.1842105,17.6089474 12.4294737,17.4373684 11.7773684,17.1378947 C11.1143157,17.2869756 10.4401036,17.3811541 9.76157895,17.4194737 C10.8510526,18.3410526 12.3489474,18.9142105 13.9984211,18.9142105 C14.4363158,18.9142105 14.8542105,18.8931579 15.2715789,18.8036842 L16.9126316,19.8763158 C16.9670731,19.9017702 17.0262308,19.9155736 17.0863158,19.9168421 C17.2605263,19.9168421 17.4126316,19.7863158 17.4126316,19.5763158 L17.4126316,17.9831579 C18.9705263,17.0315789 20,15.4878947 20,13.7431579 C19.9781184,12.688235 19.6084486,11.6700704 18.9484211,10.8468421 Z M12.3668421,8.55526316 C12.3668421,9.17736842 12.8757895,9.68684211 13.5189474,9.68684211 C14.1505263,9.68684211 14.6710526,9.18684211 14.6710526,8.55526316 C14.6710526,7.93315791 14.1621053,7.42368422 13.5184211,7.42368422 C12.8763158,7.42368422 12.3668421,7.92421053 12.3668421,8.55526316 L12.3668421,8.55526316 Z M8.15842105,8.55526316 C8.15842105,9.17736842 8.66736842,9.68684211 9.31052631,9.68684211 C9.94210525,9.68684211 10.4626316,9.18684211 10.4626316,8.55526316 C10.4626316,7.93315791 9.95368422,7.42368422 9.31052631,7.42368422 C8.6673684,7.42368422 8.15842105,7.92421053 8.15842105,8.55526316 L8.15842105,8.55526316 Z M3.80947369,8.55526316 C3.80947369,9.17736842 4.31842105,9.68684211 4.96157895,9.68684211 C5.59315789,9.68684211 6.11368422,9.18684211 6.11368422,8.55526316 C6.11368422,7.93315791 5.60473686,7.42368422 4.96105264,7.42368422 C4.31894738,7.42368422 3.80947369,7.92421053 3.80947369,8.55526316 L3.80947369,8.55526316 Z" id="形状"></path>
                </g>
            </g>
        </g>
    </g>
</svg>