<?xml version="1.0" encoding="UTF-8"?>
<svg width="20px" height="20px" viewBox="0 0 20 20" version="1.1" xmlns="http://www.w3.org/2000/svg" xmlns:xlink="http://www.w3.org/1999/xlink">
    <!-- Generator: Sketch 58 (84663) - https://sketch.com -->
    <title>矩形</title>
    <desc>Created with Sketch.</desc>
    <g id="工作台" stroke="none" stroke-width="1" fill="none" fill-rule="evenodd">
        <g id="左侧栏全部icon（两种状态）" transform="translate(-48.000000, -93.000000)">
            <g id="编组-4备份-2" transform="translate(48.000000, 92.000000)">
                <rect id="矩形" fill="#D8D8D8" opacity="0" x="0" y="0" width="20" height="20"></rect>
                <g id="平台服务icon2" transform="translate(1.000000, 2.000000)" fill="#FFFFFF" fill-rule="nonzero">
                    <path d="M9,9.028125 C8.882325,9.028125 8.76465,9.0034875 8.65485,8.95426875 L0.4986,5.29801875 C0.195316632,5.16194754 0.000170887649,4.86050652 0.000170887649,4.5280971 C0.000170887649,4.19568723 0.195316632,3.89424621 0.4986,3.758175 L8.65485,0.101925 C8.87440249,0.00348779733 9.12554126,0.00348779733 9.34509375,0.101925 L17.5013438,3.758175 C17.8047489,3.89414949 18.0000261,4.19562562 18.0000261,4.5280971 C18.0000261,4.86058795 17.8047952,5.16207834 17.5014,5.298075 L9.34515,8.954325 C9.23658299,9.00296303 9.11896408,9.028125 9,9.028125 Z M2.9064375,4.528125 L9,7.2597375 L15.0935625,4.528125 L9,1.7965125 L2.9064375,4.528125 Z" id="形状"></path>
                    <path d="M9.0034875,18.028125 C8.53763275,18.028125 8.15992967,17.6505672 8.15968125,17.1847125 L8.15619369,8.1847125 C8.15607331,7.85214214 8.35132177,7.55052468 8.65479375,7.41448125 L16.8110437,3.75823125 C17.0720995,3.64113799 17.374711,3.66433712 17.6148676,3.81985485 C17.8550242,3.97537258 17.9999438,4.2420115 17.9999438,4.528125 L17.9999438,13.528125 C17.9999438,13.8605063 17.8047562,14.1620063 17.5014562,14.2980188 L9.34869375,17.9542688 C9.24011579,18.0029404 9.12247531,18.028125 9.0034875,18.028125 L9.0034875,18.028125 Z M9.843975,8.730675 L9.84673125,15.8814563 L16.3125,12.981825 L16.3125,5.8309875 L9.843975,8.730675 Z" id="形状"></path>
                    <path d="M8.9965125,18.028125 C8.8792875,18.028125 8.76155625,18.0036562 8.65130625,17.9542687 L0.4984875,14.2980187 C0.195171136,14.1619918 -1.19649742e-08,13.8605466 -1.19649742e-08,13.528125 L-1.19649742e-08,4.528125 C-1.19649742e-08,4.2420115 0.144919594,3.97537258 0.38507615,3.81985485 C0.625232706,3.66433712 0.92784425,3.64113799 1.1889,3.75823125 L9.34515,7.41448125 C9.64864148,7.55050194 9.84389917,7.85213366 9.84375009,8.1847125 L9.84031875,17.1847125 C9.8401324,17.6505929 9.46239295,18.028125 8.9965125,18.028125 L8.9965125,18.028125 Z M1.6875,12.981825 L8.153325,15.8815125 L8.156025,8.73073125 L1.6875,5.8309875 L1.6875,12.981825 Z" id="形状"></path>
                </g>
            </g>
        </g>
    </g>
</svg>