<?xml version="1.0" encoding="UTF-8"?>
<svg width="20px" height="20px" viewBox="0 0 20 20" version="1.1" xmlns="http://www.w3.org/2000/svg" xmlns:xlink="http://www.w3.org/1999/xlink">
    <!-- Generator: Sketch 58 (84663) - https://sketch.com -->
    <title>个人中心icon</title>
    <desc>Created with Sketch.</desc>
    <g id="工作台" stroke="none" stroke-width="1" fill="none" fill-rule="evenodd">
        <g id="左侧栏全部icon（两种状态）" transform="translate(-82.000000, -93.000000)">
            <g id="编组-6备份-2" transform="translate(82.000000, 93.000000)">
                <rect id="矩形" fill="#D8D8D8" opacity="0" x="0" y="0" width="20" height="20"></rect>
                <g id="个人中心icon2" transform="translate(1.000000, 1.000000)" fill="#FFFFFF" fill-rule="nonzero">
                    <path d="M6.75,1.6875 C6.4398375,1.6875 6.1875,1.9398375 6.1875,2.25 L6.1875,4.5 C6.1875,6.0508125 7.4491875,7.3125 9,7.3125 C10.5508125,7.3125 11.8125,6.0508125 11.8125,4.5 L11.8125,2.25 C11.8125,1.9398375 11.5602187,1.6875 11.25,1.6875 L6.75,1.6875 M6.75,0 L11.25,0 C12.492675,0 13.5,1.00738125 13.5,2.25 L13.5,4.5 C13.5,6.98529375 11.4852938,9 9,9 C6.51470625,9 4.5,6.98529375 4.5,4.5 L4.5,2.25 C4.5,1.00738125 5.50738125,0 6.75,0 Z M4.21875,12.2625 C2.82301875,12.2625 1.6875,13.398075 1.6875,14.79375 L1.6875,16.3125 L16.3125,16.3125 L16.3125,14.79375 C16.3125,13.3980188 15.1769812,12.2625 13.78125,12.2625 L4.21875,12.2625 M4.21875,10.575 L13.78125,10.575 C16.1112375,10.575 18,12.4638187 18,14.79375 L18,16.875 C18,17.4963375 17.4963375,18 16.875,18 L1.125,18 C0.5036625,18 0,17.4963375 0,16.875 L0,14.79375 C0,12.4638187 1.88881875,10.575 4.21875,10.575 Z" id="形状"></path>
                    <path d="M11.25,15.4125 L6.75,15.4125 C6.284025,15.4125 5.90625,15.034725 5.90625,14.56875 C5.90625,14.102775 6.284025,13.725 6.75,13.725 L11.25,13.725 C11.715975,13.725 12.09375,14.102775 12.09375,14.56875 C12.09375,15.034725 11.715975,15.4125 11.25,15.4125 Z" id="路径"></path>
                </g>
            </g>
        </g>
    </g>
</svg>