<?xml version="1.0" encoding="UTF-8"?>
<svg width="20px" height="20px" viewBox="0 0 20 20" version="1.1" xmlns="http://www.w3.org/2000/svg" xmlns:xlink="http://www.w3.org/1999/xlink">
    <!-- Generator: Sketch 58 (84663) - https://sketch.com -->
    <title>矩形</title>
    <desc>Created with Sketch.</desc>
    <g id="工作台" stroke="none" stroke-width="1" fill="none" fill-rule="evenodd">
        <g id="左侧栏全部icon（两种状态）" transform="translate(-16.000000, -59.000000)">
            <g id="编组-3备份" transform="translate(16.000000, 59.000000)">
                <rect id="矩形" fill="#D8D8D8" opacity="0" x="0" y="0" width="20" height="20"></rect>
                <g id="税务icon" transform="translate(1.000000, 2.000000)" fill="#1890FF" fill-rule="nonzero">
                    <path d="M14.90625,15.75 L3.09375,15.75 C1.38785625,15.75 0,14.3621437 0,12.65625 L0,0.8445375 C0,0.3785625 0.37771875,0.0007875 0.84369375,0.0007875 L10.8702563,0 C11.231465,0 11.552617,0.22989411 11.6690063,0.5718375 L12.2403938,2.25 L14.90625,2.25 C16.6121437,2.25 18,3.63785625 18,5.34375 L18,12.65625 C18,14.3621437 16.6121437,15.75 14.90625,15.75 Z M1.6875,1.68823125 L1.6875,12.65625 C1.6875,13.4316562 2.31834375,14.0625 3.09375,14.0625 L14.90625,14.0625 C15.6816563,14.0625 16.3125,13.4316562 16.3125,12.65625 L16.3125,5.34375 C16.3125,4.56834375 15.6816563,3.9375 14.90625,3.9375 L11.6363813,3.9375 C11.2751932,3.93749957 10.95407,3.70758631 10.8376875,3.3656625 L10.2663,1.68755625 L1.6875,1.68823125 L1.6875,1.68823125 Z" id="形状"></path>
                    <g id="编组-2" transform="translate(4.032000, 3.600000)">
                        <path d="M2.09561568,1.99656548 L3.08290045,1.72010389 C3.12608288,1.70801185 3.15593548,1.66865154 3.15593548,1.62380804 L3.15593548,0.284136918 C3.15593548,0.228908443 3.11116396,0.184136918 3.05593548,0.184136918 C3.04486945,0.184136918 3.03388016,0.185973689 3.02341561,0.189572349 L0.0696091587,1.20535884 C0.0292351051,1.2192431 0.00212903226,1.25722872 0.00212903226,1.29992341 L0.00212903226,2.45525772 C0.00212903226,2.51048619 0.0469005573,2.55525772 0.102129032,2.55525772 C0.110407343,2.55525772 0.118653621,2.55422978 0.126678596,2.55219749 L0.932160114,2.34821289 C0.98569847,2.33465454 1.0400911,2.36706474 1.05364945,2.4206031 C1.05568174,2.42862807 1.05670968,2.43687435 1.05670968,2.44515266 L1.05670968,3.44401512 C1.05670968,3.48491973 1.03179757,3.52170035 0.993812695,3.5368772 L0.0628969824,3.9088243 C0.0249121031,3.92400115 3.66239925e-17,3.96078176 0,4.00168638 L0,5.07968329 C-1.32014341e-16,5.13491177 0.044771525,5.17968329 0.1,5.17968329 C0.111200193,5.17968329 0.122320809,5.17780172 0.132897581,5.17411713 L0.924521774,4.89834181 C0.976676141,4.88017298 1.03368436,4.9077237 1.05185319,4.95987807 C1.05553778,4.97045484 1.05741935,4.98157545 1.05741935,4.99277565 L1.05741935,8.68356594 C1.05741935,8.72680756 1.08521289,8.76515064 1.12630863,8.77860342 L1.89146992,9.02908062 C1.94395767,9.0462626 2.00043615,9.01764162 2.01761813,8.96515386 C2.02090569,8.95511096 2.02258065,8.94461045 2.02258065,8.93404314 L2.02258065,4.5851227 C2.02258065,4.54260978 2.04946001,4.50474409 2.08959327,4.4907202 L3.10098737,4.13730551 C3.14112064,4.12328162 3.168,4.08541593 3.168,4.042903 L3.168,2.81567774 C3.168,2.76044927 3.12322847,2.71567774 3.068,2.71567774 C3.05529172,2.71567774 3.0426999,2.71810005 3.03089865,2.722815 L2.159682,3.07089126 C2.10839532,3.09138178 2.05020841,3.06641655 2.0297179,3.01512987 C2.02500296,3.00332861 2.02258065,2.9907368 2.02258065,2.97802852 L2.02258065,2.09286132 C2.02258065,2.04801782 2.05243324,2.00865751 2.09561568,1.99656548 Z" id="路径"></path>
                        <path d="M0.0493247967,8.2456554 L0.61502318,8.57818238 C0.662635199,8.60616952 0.723920428,8.59026042 0.75190757,8.5426484 C0.760937245,8.52728702 0.765698384,8.50979192 0.765698384,8.4919732 L0.765698384,5.46720897 C0.765698384,5.41198049 0.720926859,5.36720897 0.665698384,5.36720897 C0.648493548,5.36720897 0.631579717,5.37164787 0.616592163,5.38009652 L0.0508937795,5.69898675 C0.0194510256,5.71671136 -2.26892955e-18,5.75000475 0,5.7860992 L0,8.15944621 C-5.11700812e-17,8.19489374 0.0187657719,8.22769229 0.0493247967,8.2456554 Z M2.41810463,9.10605447 L2.99938901,9.34373632 C3.05050914,9.36463887 3.10889507,9.34014269 3.12979762,9.28902256 C3.13470984,9.27700903 3.13723643,9.26415414 3.13723643,9.25117514 L3.13723643,4.68265315 C3.13723643,4.62742468 3.09246491,4.58265315 3.03723643,4.58265315 C3.01956317,4.58265315 3.00220559,4.58733692 2.98693135,4.59622747 L2.40633448,4.93417074 C2.37557173,4.95207656 2.3566457,4.98498475 2.35663957,5.0205792 L2.35595205,9.01347606 C2.35594506,9.0540943 2.38050791,9.09068151 2.41810463,9.10605447 Z M4.81388334,0.451339677 L3.77742224,0.153794454 C3.72433791,0.138555107 3.66895062,0.169234532 3.65371127,0.222318868 C3.65113575,0.231290369 3.64982896,0.240578277 3.64982896,0.249912148 L3.64982896,1.36445078 C3.64982896,1.40802112 3.67803952,1.4465766 3.71956689,1.45976189 L4.75602799,1.7888469 C4.80866686,1.80556018 4.86488788,1.77643674 4.88160116,1.72379787 C4.88470855,1.71401107 4.88629006,1.70380406 4.88629006,1.6935358 L4.88629006,0.54745737 C4.88629006,0.502856052 4.85675309,0.463646643 4.81388334,0.451339677 Z M6.55215965,1.06370528 L5.5426398,0.767438955 C5.48964626,0.751886808 5.434079,0.782239053 5.41852686,0.835232592 C5.41584284,0.844378321 5.41448015,0.853860806 5.41448015,0.863392245 L5.41448015,1.91269921 C5.41448015,1.95303093 5.43870839,1.98941484 5.47592128,2.00496629 L6.48544114,2.42684954 C6.53639884,2.44814502 6.59497161,2.42409903 6.61626708,2.37314132 C6.62137154,2.36092692 6.624,2.34782056 6.624,2.33458246 L6.624,1.15965857 C6.624,1.11527573 6.59474645,1.07620334 6.55215965,1.06370528 Z M3.75550945,9.30539292 L4.35523888,9.07274234 C4.39371701,9.05781568 4.41907225,9.02078351 4.41907225,8.97951158 L4.41907225,5.40520459 C4.41907225,5.36381977 4.39358007,5.32671072 4.35495062,5.31186252 L3.75522119,5.08134146 C3.70366979,5.06152638 3.64581583,5.08725376 3.62600075,5.13880517 C3.6215997,5.15025505 3.61934282,5.16241695 3.61934282,5.17468353 L3.61934282,9.21216216 C3.61934282,9.26739064 3.66411435,9.31216216 3.71934282,9.31216216 C3.73171329,9.31216216 3.74397637,9.3098669 3.75550945,9.30539292 Z" id="形状"></path>
                        <path d="M4.71400336,4.00838549 L4.71400336,3.25370774 L5.90472605,3.66471254 L5.90472605,4.37660651 L4.71400336,4.00838549 Z M5.8860437,7.8280649 L5.73173109,7.8280649 C5.67650262,7.8280649 5.63173109,7.78329337 5.63173109,7.7280649 L5.63173109,5.16454929 L5.63173109,5.16454929 L6.63231042,5.5032035 C6.68462377,5.52090938 6.74138557,5.49285448 6.75909144,5.44054113 C6.76258678,5.43021388 6.76436975,5.41938453 6.76436975,5.4084818 L6.76436975,3.27779643 C6.76436975,3.23558047 6.73785886,3.19791191 6.69811992,3.18366394 L3.87775017,2.17245126 C3.82576223,2.15381155 3.76850722,2.18084564 3.74986751,2.23283358 C3.74598495,2.2436624 3.744,2.25507994 3.744,2.26658375 L3.744,4.55227048 C3.744,4.596251 3.77273491,4.63506887 3.81479848,4.64791185 L4.85122689,4.9643574 L4.85122689,4.9643574 L4.85122689,8.96483131 C4.85122689,9.02005978 4.89599842,9.06483131 4.95122689,9.06483131 C4.96359567,9.06483131 4.97585713,9.06253667 4.98738886,9.05806388 L6.70416197,8.39218178 C6.74264255,8.37725638 6.768,8.34022297 6.768,8.29894921 L6.768,6.28271614 C6.768,6.24685264 6.74879496,6.21373523 6.71766777,6.19592263 L6.13571147,5.86289686 C6.08777674,5.83546611 6.02668095,5.85208786 5.99925019,5.90002259 C5.99059621,5.91514526 5.9860437,5.93226663 5.9860437,5.94969036 L5.9860437,7.7280649 C5.9860437,7.78329337 5.94127217,7.8280649 5.8860437,7.8280649 Z" id="形状"></path>
                    </g>
                </g>
                <g id="税务icon2" transform="translate(1.000000, 2.000000)" fill="#666666" fill-rule="nonzero">
                    <path d="M14.90625,15.75 L3.09375,15.75 C1.38785625,15.75 0,14.3621437 0,12.65625 L0,0.8445375 C0,0.3785625 0.37771875,0.0007875 0.84369375,0.0007875 L10.8702563,0 C11.231465,0 11.552617,0.22989411 11.6690063,0.5718375 L12.2403938,2.25 L14.90625,2.25 C16.6121437,2.25 18,3.63785625 18,5.34375 L18,12.65625 C18,14.3621437 16.6121437,15.75 14.90625,15.75 Z M1.6875,1.68823125 L1.6875,12.65625 C1.6875,13.4316562 2.31834375,14.0625 3.09375,14.0625 L14.90625,14.0625 C15.6816563,14.0625 16.3125,13.4316562 16.3125,12.65625 L16.3125,5.34375 C16.3125,4.56834375 15.6816563,3.9375 14.90625,3.9375 L11.6363813,3.9375 C11.2751932,3.93749957 10.95407,3.70758631 10.8376875,3.3656625 L10.2663,1.68755625 L1.6875,1.68823125 L1.6875,1.68823125 Z" id="形状"></path>
                    <g id="编组-2" transform="translate(4.032000, 3.600000)">
                        <path d="M2.09561568,1.99656548 L3.08290045,1.72010389 C3.12608288,1.70801185 3.15593548,1.66865154 3.15593548,1.62380804 L3.15593548,0.284136918 C3.15593548,0.228908443 3.11116396,0.184136918 3.05593548,0.184136918 C3.04486945,0.184136918 3.03388016,0.185973689 3.02341561,0.189572349 L0.0696091587,1.20535884 C0.0292351051,1.2192431 0.00212903226,1.25722872 0.00212903226,1.29992341 L0.00212903226,2.45525772 C0.00212903226,2.51048619 0.0469005573,2.55525772 0.102129032,2.55525772 C0.110407343,2.55525772 0.118653621,2.55422978 0.126678596,2.55219749 L0.932160114,2.34821289 C0.98569847,2.33465454 1.0400911,2.36706474 1.05364945,2.4206031 C1.05568174,2.42862807 1.05670968,2.43687435 1.05670968,2.44515266 L1.05670968,3.44401512 C1.05670968,3.48491973 1.03179757,3.52170035 0.993812695,3.5368772 L0.0628969824,3.9088243 C0.0249121031,3.92400115 3.66239925e-17,3.96078176 0,4.00168638 L0,5.07968329 C-1.32014341e-16,5.13491177 0.044771525,5.17968329 0.1,5.17968329 C0.111200193,5.17968329 0.122320809,5.17780172 0.132897581,5.17411713 L0.924521774,4.89834181 C0.976676141,4.88017298 1.03368436,4.9077237 1.05185319,4.95987807 C1.05553778,4.97045484 1.05741935,4.98157545 1.05741935,4.99277565 L1.05741935,8.68356594 C1.05741935,8.72680756 1.08521289,8.76515064 1.12630863,8.77860342 L1.89146992,9.02908062 C1.94395767,9.0462626 2.00043615,9.01764162 2.01761813,8.96515386 C2.02090569,8.95511096 2.02258065,8.94461045 2.02258065,8.93404314 L2.02258065,4.5851227 C2.02258065,4.54260978 2.04946001,4.50474409 2.08959327,4.4907202 L3.10098737,4.13730551 C3.14112064,4.12328162 3.168,4.08541593 3.168,4.042903 L3.168,2.81567774 C3.168,2.76044927 3.12322847,2.71567774 3.068,2.71567774 C3.05529172,2.71567774 3.0426999,2.71810005 3.03089865,2.722815 L2.159682,3.07089126 C2.10839532,3.09138178 2.05020841,3.06641655 2.0297179,3.01512987 C2.02500296,3.00332861 2.02258065,2.9907368 2.02258065,2.97802852 L2.02258065,2.09286132 C2.02258065,2.04801782 2.05243324,2.00865751 2.09561568,1.99656548 Z" id="路径"></path>
                        <path d="M0.0493247967,8.2456554 L0.61502318,8.57818238 C0.662635199,8.60616952 0.723920428,8.59026042 0.75190757,8.5426484 C0.760937245,8.52728702 0.765698384,8.50979192 0.765698384,8.4919732 L0.765698384,5.46720897 C0.765698384,5.41198049 0.720926859,5.36720897 0.665698384,5.36720897 C0.648493548,5.36720897 0.631579717,5.37164787 0.616592163,5.38009652 L0.0508937795,5.69898675 C0.0194510256,5.71671136 -2.26892955e-18,5.75000475 0,5.7860992 L0,8.15944621 C-5.11700812e-17,8.19489374 0.0187657719,8.22769229 0.0493247967,8.2456554 Z M2.41810463,9.10605447 L2.99938901,9.34373632 C3.05050914,9.36463887 3.10889507,9.34014269 3.12979762,9.28902256 C3.13470984,9.27700903 3.13723643,9.26415414 3.13723643,9.25117514 L3.13723643,4.68265315 C3.13723643,4.62742468 3.09246491,4.58265315 3.03723643,4.58265315 C3.01956317,4.58265315 3.00220559,4.58733692 2.98693135,4.59622747 L2.40633448,4.93417074 C2.37557173,4.95207656 2.3566457,4.98498475 2.35663957,5.0205792 L2.35595205,9.01347606 C2.35594506,9.0540943 2.38050791,9.09068151 2.41810463,9.10605447 Z M4.81388334,0.451339677 L3.77742224,0.153794454 C3.72433791,0.138555107 3.66895062,0.169234532 3.65371127,0.222318868 C3.65113575,0.231290369 3.64982896,0.240578277 3.64982896,0.249912148 L3.64982896,1.36445078 C3.64982896,1.40802112 3.67803952,1.4465766 3.71956689,1.45976189 L4.75602799,1.7888469 C4.80866686,1.80556018 4.86488788,1.77643674 4.88160116,1.72379787 C4.88470855,1.71401107 4.88629006,1.70380406 4.88629006,1.6935358 L4.88629006,0.54745737 C4.88629006,0.502856052 4.85675309,0.463646643 4.81388334,0.451339677 Z M6.55215965,1.06370528 L5.5426398,0.767438955 C5.48964626,0.751886808 5.434079,0.782239053 5.41852686,0.835232592 C5.41584284,0.844378321 5.41448015,0.853860806 5.41448015,0.863392245 L5.41448015,1.91269921 C5.41448015,1.95303093 5.43870839,1.98941484 5.47592128,2.00496629 L6.48544114,2.42684954 C6.53639884,2.44814502 6.59497161,2.42409903 6.61626708,2.37314132 C6.62137154,2.36092692 6.624,2.34782056 6.624,2.33458246 L6.624,1.15965857 C6.624,1.11527573 6.59474645,1.07620334 6.55215965,1.06370528 Z M3.75550945,9.30539292 L4.35523888,9.07274234 C4.39371701,9.05781568 4.41907225,9.02078351 4.41907225,8.97951158 L4.41907225,5.40520459 C4.41907225,5.36381977 4.39358007,5.32671072 4.35495062,5.31186252 L3.75522119,5.08134146 C3.70366979,5.06152638 3.64581583,5.08725376 3.62600075,5.13880517 C3.6215997,5.15025505 3.61934282,5.16241695 3.61934282,5.17468353 L3.61934282,9.21216216 C3.61934282,9.26739064 3.66411435,9.31216216 3.71934282,9.31216216 C3.73171329,9.31216216 3.74397637,9.3098669 3.75550945,9.30539292 Z" id="形状"></path>
                        <path d="M4.71400336,4.00838549 L4.71400336,3.25370774 L5.90472605,3.66471254 L5.90472605,4.37660651 L4.71400336,4.00838549 Z M5.8860437,7.8280649 L5.73173109,7.8280649 C5.67650262,7.8280649 5.63173109,7.78329337 5.63173109,7.7280649 L5.63173109,5.16454929 L5.63173109,5.16454929 L6.63231042,5.5032035 C6.68462377,5.52090938 6.74138557,5.49285448 6.75909144,5.44054113 C6.76258678,5.43021388 6.76436975,5.41938453 6.76436975,5.4084818 L6.76436975,3.27779643 C6.76436975,3.23558047 6.73785886,3.19791191 6.69811992,3.18366394 L3.87775017,2.17245126 C3.82576223,2.15381155 3.76850722,2.18084564 3.74986751,2.23283358 C3.74598495,2.2436624 3.744,2.25507994 3.744,2.26658375 L3.744,4.55227048 C3.744,4.596251 3.77273491,4.63506887 3.81479848,4.64791185 L4.85122689,4.9643574 L4.85122689,4.9643574 L4.85122689,8.96483131 C4.85122689,9.02005978 4.89599842,9.06483131 4.95122689,9.06483131 C4.96359567,9.06483131 4.97585713,9.06253667 4.98738886,9.05806388 L6.70416197,8.39218178 C6.74264255,8.37725638 6.768,8.34022297 6.768,8.29894921 L6.768,6.28271614 C6.768,6.24685264 6.74879496,6.21373523 6.71766777,6.19592263 L6.13571147,5.86289686 C6.08777674,5.83546611 6.02668095,5.85208786 5.99925019,5.90002259 C5.99059621,5.91514526 5.9860437,5.93226663 5.9860437,5.94969036 L5.9860437,7.7280649 C5.9860437,7.78329337 5.94127217,7.8280649 5.8860437,7.8280649 Z" id="形状"></path>
                    </g>
                </g>
            </g>
        </g>
    </g>
</svg>