<?xml version="1.0" encoding="UTF-8"?>
<svg width="20px" height="20px" viewBox="0 0 20 20" version="1.1" xmlns="http://www.w3.org/2000/svg" xmlns:xlink="http://www.w3.org/1999/xlink">
    <!-- Generator: Sketch 58 (84663) - https://sketch.com -->
    <title>矩形</title>
    <desc>Created with Sketch.</desc>
    <g id="工作台" stroke="none" stroke-width="1" fill="none" fill-rule="evenodd">
        <g id="左侧栏全部icon（两种状态）" transform="translate(-114.000000, -59.000000)">
            <g id="编组-3备份-2" transform="translate(114.000000, 59.000000)">
                <g id="工作台1" transform="translate(1.000000, 2.000000)" fill="#666666" fill-rule="nonzero">
                    <path d="M16.1676647,-3.67705866e-13 L1.7964072,-3.67705866e-13 C1.31997039,-3.67705866e-13 0.863047189,0.189263776 0.526155488,0.526155473 C0.189263787,0.86304717 6.1817218e-13,1.31997037 6.1817218e-13,1.79640718 L6.1817218e-13,9.88023951 C6.1817218e-13,10.3566763 0.189263779,10.8135995 0.526155481,11.1504912 C0.863047182,11.4873829 1.31997039,11.6766467 1.7964072,11.6766467 L16.1676647,11.6766467 C16.6441015,11.6766467 17.1010247,11.4873829 17.4379164,11.1504912 C17.7748081,10.8135995 17.9640719,10.3566763 17.9640719,9.88023951 L17.9640719,1.79640718 C17.9640719,1.31997037 17.7748081,0.86304717 17.4379164,0.526155473 C17.1010247,0.189263776 16.6441015,-3.67705866e-13 16.1676647,-3.67705866e-13 Z M16.1676647,9.88023951 L1.7964072,9.88023951 L1.7964072,1.79640718 L16.1676647,1.79640718 L16.1676647,9.88023951 Z M8.08383234,11.6766467 L9.88023953,11.6766467 L9.88023953,14.3712575 L8.08383234,14.3712575 L8.08383234,11.6766467 Z" id="形状"></path>
                    <polygon id="路径" points="3.59281438 14.3712575 14.3712575 14.3712575 14.3712575 16.1676647 3.59281438 16.1676647"></polygon>
                    <polygon id="路径" points="3.59281438 3.59281438 12.5748503 3.59281438 12.5748503 5.38922156 3.59281438 5.38922156"></polygon>
                    <polygon id="路径" points="3.59281438 6.28742516 10.7784431 6.28742516 10.7784431 8.08383234 3.59281438 8.08383234"></polygon>
                </g>
                <rect id="矩形" fill="#D8D8D8" opacity="0" x="0" y="0" width="20" height="20"></rect>
            </g>
        </g>
    </g>
</svg>