<svg width="20" height="20" viewBox="0 0 20 20" fill="none" xmlns="http://www.w3.org/2000/svg">
<g id="icon">
<g id="Group 427318646">
<path id="Rectangle 600" d="M14 11.5H15V11.5C15.5523 11.5 16 11.0523 16 10.5V5.5C16 4.94772 15.5523 4.5 15 4.5H9C8.44772 4.5 8 4.94772 8 5.5V10.5C8 11.0523 8.44772 11.5 9 11.5V11.5H10" stroke="#919498" stroke-linecap="round"/>
<path id="Rectangle 601" d="M10 9H11V9C11.5523 9 12 9.44772 12 10V15C12 15.5523 11.5523 16 11 16H5C4.44772 16 4 15.5523 4 15V10C4 9.44772 4.44772 9 5 9V9H6" stroke="#919498" stroke-linecap="round"/>
</g>
</g>
</svg>
