<svg width="20" height="20" viewBox="0 0 20 20" fill="none" xmlns="http://www.w3.org/2000/svg">
<g id="icon">
<rect id="Rectangle 599" opacity="0.06" width="20" height="20" rx="10" fill="#3A7FFF"/>
<g id="icon_2">
<path id="Rectangle 597" d="M5.16602 9H14.8327V15.5C14.8327 15.7761 14.6088 16 14.3327 16H5.66602C5.38987 16 5.16602 15.7761 5.16602 15.5V9Z" stroke="#3A7FFF"/>
<path id="Rectangle 598" d="M7.83398 8.44434H12.1673V12.4443C12.1673 12.7205 11.9435 12.9443 11.6673 12.9443H8.33399C8.05784 12.9443 7.83398 12.7205 7.83398 12.4443V8.44434Z" stroke="#3A7FFF"/>
<path id="Rectangle 596" d="M6.05267 4H13.9473C14.5726 4 15.1323 4.38786 15.3518 4.97331L16.701 8.571C16.9804 9.31619 16.4295 10.1111 15.6337 10.1111C15.2467 10.1111 14.8685 9.99658 14.5466 9.78196L14.0743 9.46715C13.7757 9.26809 13.3934 9.24429 13.0724 9.40477L12.4486 9.71668C12.0263 9.92783 11.5292 9.92783 11.107 9.71668L10.4472 9.38681C10.1657 9.24605 9.83431 9.24605 9.55279 9.38681L8.89304 9.71668C8.47075 9.92783 7.97369 9.92783 7.5514 9.71668L6.92758 9.40477C6.60661 9.24429 6.22425 9.26809 5.92567 9.46715L5.39965 9.81783C5.11279 10.0091 4.77576 10.1111 4.431 10.1111C3.60385 10.1111 3.03131 9.28494 3.32175 8.51045L4.64817 4.97332C4.86772 4.38786 5.4274 4 6.05267 4Z" fill="#ECF3FF" stroke="#3A7FFF"/>
</g>
</g>
</svg>
