<?xml version="1.0" encoding="UTF-8"?>
<svg width="358px" height="136px" viewBox="0 0 358 136" version="1.1" xmlns="http://www.w3.org/2000/svg" xmlns:xlink="http://www.w3.org/1999/xlink">
    <!-- Generator: Sketch 58 (84663) - https://sketch.com -->
    <title>Start sending block备份 2</title>
    <desc>Created with Sketch.</desc>
    <defs>
        <linearGradient x1="100%" y1="54.9407023%" x2="2.40697254%" y2="43.5389324%" id="linearGradient-1">
            <stop stop-color="#2DAFC9" offset="0%"></stop>
            <stop stop-color="#41CCC0" offset="100%"></stop>
        </linearGradient>
        <filter x="-24.6%" y="-67.0%" width="149.2%" height="233.9%" filterUnits="objectBoundingBox" id="filter-2">
            <feGaussianBlur stdDeviation="25" in="SourceGraphic"></feGaussianBlur>
        </filter>
        <linearGradient x1="100%" y1="55.2876668%" x2="2.40697254%" y2="43.0851991%" id="linearGradient-3">
            <stop stop-color="#F7C598" offset="0%"></stop>
            <stop stop-color="#FF8886" offset="100%"></stop>
        </linearGradient>
        <filter x="-5.2%" y="-12.1%" width="110.3%" height="127.2%" filterUnits="objectBoundingBox" id="filter-4">
            <feOffset dx="0" dy="2" in="SourceAlpha" result="shadowOffsetOuter1"></feOffset>
            <feGaussianBlur stdDeviation="2.5" in="shadowOffsetOuter1" result="shadowBlurOuter1"></feGaussianBlur>
            <feColorMatrix values="0 0 0 0 0.325490196   0 0 0 0 0.380392157   0 0 0 0 1  0 0 0 0.0534986413 0" type="matrix" in="shadowBlurOuter1" result="shadowMatrixOuter1"></feColorMatrix>
            <feMerge>
                <feMergeNode in="shadowMatrixOuter1"></feMergeNode>
                <feMergeNode in="SourceGraphic"></feMergeNode>
            </feMerge>
        </filter>
        <linearGradient x1="100%" y1="55.2876668%" x2="2.40697254%" y2="43.0851991%" id="linearGradient-5">
            <stop stop-color="#2CADCA" offset="0%"></stop>
            <stop stop-color="#42CEC0" offset="100%"></stop>
        </linearGradient>
        <rect id="path-6" x="0" y="0" width="358" height="136" rx="8"></rect>
        <filter x="-2.4%" y="-4.8%" width="104.7%" height="112.5%" filterUnits="objectBoundingBox" id="filter-8">
            <feOffset dx="0" dy="2" in="SourceAlpha" result="shadowOffsetOuter1"></feOffset>
            <feGaussianBlur stdDeviation="2.5" in="shadowOffsetOuter1" result="shadowBlurOuter1"></feGaussianBlur>
            <feColorMatrix values="0 0 0 0 0.325490196   0 0 0 0 0.380392157   0 0 0 0 1  0 0 0 0.0534986413 0" type="matrix" in="shadowBlurOuter1"></feColorMatrix>
        </filter>
    </defs>
    <g id="工作台" stroke="none" stroke-width="1" fill="none" fill-rule="evenodd">
        <g transform="translate(-1034.000000, -112.000000)" id="1">
            <g transform="translate(232.000000, 88.000000)">
                <g id="亮色" transform="translate(24.000000, 24.000000)">
                    <g id="Start-sending-block备份-2" transform="translate(778.000000, 0.000000)">
                        <rect id="Mask" fill="url(#linearGradient-1)" opacity="0.32" filter="url(#filter-2)" x="26" y="16" width="305" height="112" rx="8"></rect>
                        <g id="Oval" filter="url(#filter-4)">
                            <mask id="mask-7" fill="white">
                                <use xlink:href="#path-6"></use>
                            </mask>
                            <g id="Mask">
                                <use fill="black" fill-opacity="1" filter="url(#filter-8)" xlink:href="#path-6"></use>
                                <use fill="url(#linearGradient-5)" fill-rule="evenodd" xlink:href="#path-6"></use>
                            </g>
                            <g id="dingdan" opacity="0.1" mask="url(#mask-7)" fill="#FFFFFF" fill-rule="nonzero">
                                <g transform="translate(237.000000, 45.000000)">
                                    <path d="M94.5027273,0 L51.4888182,0 C46.216,0 42,4.24320512 42,9.48967154 C42,14.7449903 46.2272727,19 51.4916364,19 L94.7676364,19 C99.7727273,19.0029492 104,14.7449903 104,9.48967154 C104,4.24320512 99.7811818,0 94.5027273,0 Z" id="路径"></path>
                                    <path d="M128.715462,6 C141.091731,6 147,14.9710656 147,27.9082569 L147,136.328864 C147,151.902611 140.687481,158 127.700596,158 L17.6993654,158 C4.71248077,158 -1.42108547e-14,150.223006 -1.42108547e-14,136.320395 L-1.42108547e-14,27.9110797 C-1.42108547e-14,14.9738885 3.29053846,6.00564573 16.6873269,6.00564573 L36.8319808,6 C36.6603965,7.04819872 36.5696683,8.10800646 36.5605962,9.17007763 C36.5605962,17.1926606 41.4964038,25.0853917 47.6619231,25.0853917 L101.076635,25.0853917 C106.936846,25.0853917 111.864173,17.1926606 111.858519,9.17007763 C111.858519,8.10021171 111.762404,7.04446013 111.595615,6 L128.715462,6 Z M107.17049,116.091743 L41.1041958,116.091743 C37.1381734,116.091743 33.9230769,118.698654 33.9230769,121.914442 C33.9230769,125.130229 37.1381734,127.73714 41.1041958,127.73714 L107.17049,127.73714 C111.136512,127.73714 114.351608,125.130229 114.351608,121.914442 C114.351608,118.698654 111.136512,116.091743 107.17049,116.091743 Z M107.17049,84.7879643 L41.1041958,84.7879643 C37.1381734,84.7879643 33.9230769,87.3948752 33.9230769,90.6106627 C33.9230769,93.8264503 37.1381734,96.4333611 41.1041958,96.4333611 L107.17049,96.4333611 C111.136512,96.4333611 114.351608,93.8264503 114.351608,90.6106627 C114.351608,87.3948752 111.136512,84.7879643 107.17049,84.7879643 Z M106.759301,53.4841855 L40.693007,53.4841855 C36.7269845,53.4841855 33.5118881,56.0910964 33.5118881,59.3068839 C33.5118881,62.5226715 36.7269845,65.1295823 40.693007,65.1295823 L106.759301,65.1295823 C110.725323,65.1295823 113.94042,62.5226715 113.94042,59.3068839 C113.94042,56.0910964 110.725323,53.4841855 106.759301,53.4841855 Z" id="形状结合"></path>
                                </g>
                            </g>
                        </g>
                        <text id="我的订单" font-family="PingFangSC, 蘋方-簡" font-size="24" font-weight="normal" line-spacing="24" fill="#FFFFFF">
                            <tspan x="20" y="119">我的订单</tspan>
                        </text>
                        <path d="M0,76 L200,76" id="Line" stroke="#DDE1EE" opacity="0.5" stroke-linecap="square"></path>
                        <text id="My-Order" font-family="PingFangSC, 蘋方-簡" font-size="14" font-weight="normal" line-spacing="14" fill="#FFFFFF">
                            <tspan x="66" y="47">My Order</tspan>
                        </text>
                        <g id="Start/icon" transform="translate(20.000000, 20.000000)" fill="#FFFFFF" opacity="0.235491071">
                            <circle id="Oval-Copy-6" cx="18" cy="18" r="18"></circle>
                        </g>
                        <g id="dingdan" transform="translate(29.000000, 28.000000)" fill="#FFFFFF" fill-rule="nonzero">
                            <path d="M11.6054448,0 L6.33830521,0 C5.69263804,0 5.17638037,0.496242331 5.17638037,1.10981595 C5.17638037,1.72442485 5.6940184,2.22204773 6.33865031,2.22204773 L11.6378834,2.22204773 C12.2507669,2.22239264 12.7684049,1.72442485 12.7684049,1.10981595 C12.7684049,0.496242331 12.2518021,0 11.6054448,0 Z" id="路径"></path>
                            <path d="M4.49620399,0.740567485 C4.47525812,0.868708572 4.46418262,0.998268849 4.46307515,1.12810583 C4.46307515,2.10885736 5.06560583,3.07373466 5.81825153,3.07373466 L12.3387653,3.07373466 C13.0541411,3.07373466 13.6556365,2.10885736 13.6549463,1.12810583 C13.6549463,0.997315951 13.6432132,0.868251534 13.6228528,0.740567485 L15.7127301,0.740567485 C17.2235429,0.740567485 17.9447853,1.83726994 17.9447853,3.41882669 L17.9447853,16.6731212 C17.9447853,18.5769939 17.1741948,19.3223926 15.588842,19.3223926 L2.16062117,19.3223926 C0.575268405,19.3223926 -7.10542736e-15,18.3716641 -7.10542736e-15,16.6720859 L-7.10542736e-15,3.41917178 C-7.10542736e-15,1.83761503 0.401687117,0.741257669 2.03707822,0.741257669 L4.49620399,0.740567485 Z M13.0826627,14.1991564 L5.01772767,14.1991564 C4.53358195,14.1991564 4.14110429,14.5178483 4.14110429,14.9109746 C4.14110429,15.304101 4.53358195,15.6227928 5.01772767,15.6227928 L13.0826627,15.6227928 C13.5668085,15.6227928 13.9592861,15.304101 13.9592861,14.9109746 C13.9592861,14.5178483 13.5668085,14.1991564 13.0826627,14.1991564 Z M13.0826627,10.3723055 L5.01772767,10.3723055 C4.53358195,10.3723055 4.14110429,10.6909973 4.14110429,11.0841237 C4.14110429,11.47725 4.53358195,11.7959419 5.01772767,11.7959419 L13.0826627,11.7959419 C13.5668085,11.7959419 13.9592861,11.47725 13.9592861,11.0841237 C13.9592861,10.6909973 13.5668085,10.3723055 13.0826627,10.3723055 Z M13.0324675,6.54545455 L4.96753247,6.54545455 C4.48338675,6.54545455 4.09090909,6.8641464 4.09090909,7.25727273 C4.09090909,7.65039905 4.48338675,7.96909091 4.96753247,7.96909091 L13.0324675,7.96909091 C13.5166133,7.96909091 13.9090909,7.65039905 13.9090909,7.25727273 C13.9090909,6.8641464 13.5166133,6.54545455 13.0324675,6.54545455 Z" id="形状结合"></path>
                        </g>
                    </g>
                </g>
            </g>
        </g>
    </g>
</svg>