<?xml version="1.0" encoding="UTF-8"?>
<svg width="20px" height="21px" viewBox="0 0 20 21" version="1.1" xmlns="http://www.w3.org/2000/svg" xmlns:xlink="http://www.w3.org/1999/xlink">
    <!-- Generator: Sketch 58 (84663) - https://sketch.com -->
    <title>outdent</title>
    <desc>Created with Sketch.</desc>
    <g id="工作台" stroke="none" stroke-width="1" fill="none" fill-rule="evenodd">
        <g id="左侧栏全部icon（两种状态）" transform="translate(-16.000000, -126.000000)" fill-rule="nonzero">
            <g id="outdent" transform="translate(16.000000, 126.000000)">
                <rect id="矩形" fill-opacity="0.649999976" fill="#FFFFFF" opacity="0" x="0" y="0" width="20" height="20"></rect>
                <path d="M7.70875,8.3378125 L18.28375,8.3378125 C18.3806875,8.3378125 18.46,8.2585 18.46,8.1615625 L18.46,6.9278125 C18.46,6.830875 18.3806875,6.7515625 18.28375,6.7515625 L7.70875,6.7515625 C7.6118125,6.7515625 7.5325,6.830875 7.5325,6.9278125 L7.5325,8.1615625 C7.5325,8.2585 7.6118125,8.3378125 7.70875,8.3378125 Z M7.5325,12.8321875 C7.5325,12.929125 7.6118125,13.0084375 7.70875,13.0084375 L18.28375,13.0084375 C18.3806875,13.0084375 18.46,12.929125 18.46,12.8321875 L18.46,11.5984375 C18.46,11.5015 18.3806875,11.4221875 18.28375,11.4221875 L7.70875,11.4221875 C7.6118125,11.4221875 7.5325,11.5015 7.5325,11.5984375 L7.5325,12.8321875 Z M18.63625,2.125 L1.36375,2.125 C1.2668125,2.125 1.1875,2.2043125 1.1875,2.30125 L1.1875,3.535 C1.1875,3.6319375 1.2668125,3.71125 1.36375,3.71125 L18.63625,3.71125 C18.7331875,3.71125 18.8125,3.6319375 18.8125,3.535 L18.8125,2.30125 C18.8125,2.2043125 18.7331875,2.125 18.63625,2.125 Z M18.63625,16.04875 L1.36375,16.04875 C1.2668125,16.04875 1.1875,16.1280625 1.1875,16.225 L1.1875,17.45875 C1.1875,17.5556875 1.2668125,17.635 1.36375,17.635 L18.63625,17.635 C18.7331875,17.635 18.8125,17.5556875 18.8125,17.45875 L18.8125,16.225 C18.8125,16.1280625 18.7331875,16.04875 18.63625,16.04875 Z M1.26240625,10.0320156 L4.70589062,12.7440625 C4.83367187,12.8454062 5.02314062,12.7550781 5.02314062,12.5920469 L5.02314062,7.16795312 C5.02314062,7.00492187 4.835875,6.91459375 4.70589062,7.0159375 L1.26240625,9.72798437 C1.16326563,9.80509375 1.16326563,9.95490625 1.26240625,10.0320156 Z" id="形状" fill="#1890FF"></path>
            </g>
        </g>
    </g>
</svg>