<svg width="24" height="24" viewBox="0 0 24 24" fill="none" xmlns="http://www.w3.org/2000/svg">
<g id="icon" clip-path="url(#clip0_579_29035)">
<path id="Vector" d="M21.9612 2.66162C21.0055 1.87492 18.712 2.07162 15.5585 4.53C11.0671 7.97179 9.06025 12.4952 6.1934 16.9204C5.71559 17.6087 6.48009 18.0021 7.05346 17.7071L8.86914 16.6254C9.15583 16.527 9.25138 16.527 9.15583 16.0354C8.9647 14.5603 9.5381 13.1836 10.3981 12.0036C13.5517 13.3803 17.3742 12.5936 18.7121 8.66014C20.4322 8.26678 22.0568 6.30006 22.3434 4.92338C22.6301 3.94 22.5346 3.05499 21.9612 2.66164L21.9612 2.66162ZM2.75316 16.9204C5.33333 21.5422 10.9715 23.1156 15.4629 20.4605C18.4253 18.6905 20.0499 15.5437 20.1455 12.2986C20.1455 11.2169 18.9032 11.3152 18.9032 12.2986C18.9032 15.1504 17.4697 17.8055 14.8896 19.3788C10.9715 21.6406 6.00227 20.2639 3.80433 16.3304C1.51083 12.2986 2.8487 7.18514 6.76675 4.9234C8.86912 3.64503 11.4493 3.44835 13.5517 4.3334C14.4117 4.62842 14.794 3.44837 13.9339 3.15335C11.4493 2.26832 8.67801 2.36666 6.19338 3.84171C1.70194 6.49678 0.172963 12.397 2.75312 16.9204L2.75316 16.9204Z" fill="#3A7FFF"/>
</g>
<defs>
<clipPath id="clip0_579_29035">
<rect width="24" height="24" fill="white"/>
</clipPath>
</defs>
</svg>
