<svg width="24" height="24" viewBox="0 0 24 24" fill="none" xmlns="http://www.w3.org/2000/svg">
<g id="icon" clip-path="url(#clip0_579_29040)">
<path id="Vector" d="M21 8.7369C19.5264 6.36975 19.55 6.32505 19.55 6.32505C19.55 6.32505 14.4619 7.6998 13.5145 3H10.5671C10.5671 3 9.75405 7.7073 4.5555 6.3135C3.05265 8.72745 3.00135 8.8029 3 8.80425C3.0021 8.8056 7.0689 11.5442 3 15.2628L4.5792 17.7653C4.5792 17.7653 9.0723 15.8974 10.5438 21H13.5264C13.5264 21 14.4619 16.311 19.5147 17.6973C20.9533 15.3304 20.9764 15.3078 20.9764 15.3078C20.9764 15.3078 17.1621 12.1388 21 8.7369ZM11.9765 15.3136C10.0776 15.3136 8.53785 13.83 8.53785 11.9998C8.53785 10.1697 10.0776 8.68575 11.9765 8.68575C13.8756 8.68575 15.4155 10.1697 15.4155 11.9998C15.4155 13.83 13.8756 15.3136 11.9765 15.3136Z" fill="#3A7FFF"/>
</g>
<defs>
<clipPath id="clip0_579_29040">
<rect width="24" height="24" fill="white"/>
</clipPath>
</defs>
</svg>
