<svg width="24" height="24" viewBox="0 0 24 24" fill="none" xmlns="http://www.w3.org/2000/svg">
<g id="icon" clip-path="url(#clip0_579_29025)">
<path id="&#232;&#183;&#175;&#229;&#190;&#132;" d="M14.9364 1.5H9.21282C8.5112 1.5 7.9502 2.16998 7.9502 2.99837C7.9502 3.82816 8.5127 4.5 9.2132 4.5H14.9717C15.6377 4.50047 16.2002 3.82816 16.2002 2.99837C16.2002 2.16998 15.6388 1.5 14.9364 1.5Z" fill="#3A7FFF"/>
<path id="&#229;&#189;&#162;&#231;&#138;&#182;&#231;&#187;&#147;&#229;&#144;&#136;" fill-rule="evenodd" clip-rule="evenodd" d="M7.4768 2.72581C7.47791 2.58472 7.48902 2.44393 7.51003 2.30469L5.04334 2.30544C3.40292 2.30544 3 3.49681 3 5.21543V19.6169C3 21.4638 3.57704 22.4969 5.16726 22.4969H18.6368C20.227 22.4969 21 21.6869 21 19.618V5.21506C21 3.49643 20.2765 2.30469 18.761 2.30469H16.6647C16.6852 2.44344 16.6969 2.58369 16.6969 2.72581C16.6976 3.79156 16.0943 4.84006 15.3767 4.84006H8.83614C8.08118 4.84006 7.4768 3.79156 7.4768 2.72581ZM8.03341 16.9296H16.1231C16.6088 16.9296 17.0025 17.276 17.0025 17.7031C17.0025 18.1303 16.6088 18.4767 16.1231 18.4767H8.03341C7.54777 18.4767 7.15409 18.1303 7.15409 17.7031C7.15409 17.276 7.54777 16.9296 8.03341 16.9296ZM16.1231 12.7712H8.03341C7.54777 12.7712 7.15409 13.1175 7.15409 13.5447C7.15409 13.9719 7.54777 14.3182 8.03341 14.3182H16.1231C16.6088 14.3182 17.0025 13.9719 17.0025 13.5447C17.0025 13.1175 16.6088 12.7712 16.1231 12.7712ZM7.98256 8.61267H16.0723C16.5579 8.61267 16.9516 8.95898 16.9516 9.38618C16.9516 9.81337 16.5579 10.1597 16.0723 10.1597H7.98256C7.49692 10.1597 7.10324 9.81337 7.10324 9.38618C7.10324 8.95898 7.49692 8.61267 7.98256 8.61267Z" fill="#3A7FFF"/>
</g>
<defs>
<clipPath id="clip0_579_29025">
<rect width="24" height="24" fill="white"/>
</clipPath>
</defs>
</svg>
