<?xml version="1.0" encoding="UTF-8"?>
<svg width="18px" height="18px" viewBox="0 0 18 18" version="1.1" xmlns="http://www.w3.org/2000/svg" xmlns:xlink="http://www.w3.org/1999/xlink">
    <!-- Generator: Sketch 58 (84663) - https://sketch.com -->
    <title>Shape</title>
    <desc>Created with Sketch.</desc>
    <g id="工作台" stroke="none" stroke-width="1" fill="none" fill-rule="evenodd">
        <g transform="translate(-256.000000, -382.000000)" fill="#ED3E3E" fill-rule="nonzero" id="温馨提示">
            <g transform="translate(232.000000, 371.000000)">
                <g id="编组-12" transform="translate(24.000000, 11.000000)">
                    <path d="M9,2 C12.8660403,2 16,5.13395972 16,9 C16,12.8660403 12.8660403,16 9,16 C5.13395972,16 2,12.8660403 2,9 C2,5.13395972 5.13395972,2 9,2 Z M9,11.3977862 C8.41456136,11.3977862 7.93991572,11.8722907 7.93991572,12.4578704 C7.93991572,13.0433091 8.41456136,13.5179547 9,13.5179547 C9.58543864,13.5179547 10.0600843,13.0433091 10.0600843,12.4578704 C10.0600843,11.8722907 9.58543864,11.3977862 9,11.3977862 Z M8.96951429,10.5690264 C9.47379882,10.5690264 9.88253322,10.1601508 9.88253322,9.65600742 L9.88253322,5.39506422 C9.88253322,4.89077968 9.47379882,4.48204528 8.96951429,4.48204528 C8.46522975,4.48204528 8.05649535,4.89092082 8.05649535,5.39506422 L8.05649535,9.65600742 C8.05649535,10.160292 8.46522975,10.5690264 8.96951429,10.5690264 Z" id="Shape"></path>
                </g>
            </g>
        </g>
    </g>
</svg>