<?xml version="1.0" encoding="UTF-8"?>
<svg width="18px" height="18px" viewBox="0 0 18 18" version="1.1" xmlns="http://www.w3.org/2000/svg" xmlns:xlink="http://www.w3.org/1999/xlink">
    <!-- Generator: Sketch 58 (84663) - https://sketch.com -->
    <title>Rectangle</title>
    <desc>Created with Sketch.</desc>
    <g id="增值服务" stroke="none" stroke-width="1" fill="none" fill-rule="evenodd">
        <g id="增值服务申请-申请服务" transform="translate(-252.000000, -170.000000)">
            <g id="Group-7-Copy-12" transform="translate(261.000000, 179.000000) rotate(-270.000000) translate(-261.000000, -179.000000) translate(252.000000, 170.000000)">
                <rect id="Rectangle" fill="#FFFFFF" opacity="0" x="0" y="0" width="18" height="18"></rect>
                <path d="M8.99839518,12.375 C8.65351602,12.3756482 8.32246113,12.2384663 8.07785017,11.9935439 L3.03092225,6.90749386 C2.73969258,6.61410564 2.73969258,6.13842937 3.03092226,5.84504116 C3.32215193,5.55165295 3.79432853,5.55165295 4.08555821,5.84504115 L8.99988508,10.7960064 L13.9144248,5.84525557 C14.1028174,5.65546668 14.3774055,5.58134567 14.6347546,5.65081323 C14.8921036,5.72028079 15.0931161,5.92278313 15.1620725,6.18203958 C15.231029,6.44129604 15.1574533,6.71791938 14.9690608,6.90770828 L9.92191999,11.992043 C9.67653151,12.237812 9.34441847,12.3755281 8.99839518,12.375 Z" id="Path" fill="#262626"></path>
            </g>
        </g>
    </g>
</svg>