<svg width="40" height="128" viewBox="0 0 40 128" fill="none" xmlns="http://www.w3.org/2000/svg">
<path d="M0 4C0 1.79086 1.79086 0 4 0H40V128H4C1.79086 128 0 126.209 0 124V4Z" fill="#3A7FFF"/>
<path d="M15 117L19.9342 112L20.3947 112.467L15.9211 117L20.3947 121.533L19.9342 122L15 117ZM19.6053 117L24.5395 112L25 112.467L20.5263 117L25 121.533L24.5395 122L19.6053 117Z" fill="white"/>
<path d="M14.612 44.856V45.696H17.804C17.552 46.524 17.276 47.316 16.988 48.084H22.916C22.28 48.876 21.404 49.644 20.3 50.364C19.472 50.076 18.608 49.8 17.708 49.56L17.252 50.232C19.16 50.748 21.02 51.444 22.82 52.332L23.3 51.576C22.64 51.264 21.944 50.964 21.224 50.7C22.46 49.812 23.36 48.912 23.936 48.024V47.28H18.224C18.392 46.788 18.572 46.26 18.74 45.696H25.388V44.856H18.968C19.088 44.388 19.208 43.896 19.328 43.368H24.68V42.564H19.508C19.604 42.132 19.688 41.664 19.784 41.184L18.896 41.112C18.8 41.592 18.704 42.072 18.596 42.564H15.428V43.368H18.416C18.296 43.872 18.176 44.364 18.044 44.856H14.612ZM17.672 62.828V64.916H20.504V65.6H17.096V69.2H17.9V66.296H20.504V67.4C19.892 67.448 19.268 67.484 18.62 67.532L18.8 68.252C20.204 68.12 21.524 67.964 22.772 67.796C22.832 67.964 22.892 68.156 22.964 68.348L23.564 68.084C23.348 67.46 23.096 66.872 22.808 66.296H24.236V68C24.236 68.312 24.092 68.468 23.828 68.468L22.616 68.432L22.808 69.164H24.068C24.692 69.164 25.016 68.828 25.016 68.168V65.6H21.32V64.916H24.2V62.828H21.32V62.168C22.568 62.108 23.672 62.024 24.62 61.904L24.26 61.28C22.364 61.496 19.976 61.604 17.108 61.604L17.324 62.252C18.452 62.252 19.52 62.228 20.504 62.204V62.828H17.672ZM21.272 66.296H22.124C22.268 66.56 22.4 66.86 22.532 67.184L21.272 67.328V66.296ZM23.42 64.292H21.32V63.464H23.42V64.292ZM20.504 64.292H18.464V63.464H20.504V64.292ZM23.936 59.348V60.236H16.568V59.348H23.936ZM16.568 60.896H24.764V58.652H15.728V62.168C15.716 64.736 15.32 66.836 14.54 68.456L15.176 69.032C16.088 67.124 16.556 64.832 16.568 62.168V60.896ZM23.528 82.48H16.688V86.236H17.528V85.72H22.688V86.236H23.528V82.48ZM17.528 84.94V83.26H22.688V84.94H17.528ZM18.488 77.128C17.72 78.244 16.748 79.144 15.56 79.828L16.112 80.5C16.64 80.164 17.144 79.792 17.612 79.372C18.128 79.828 18.692 80.236 19.304 80.596C18.032 81.1 16.424 81.496 14.492 81.808L14.816 82.576C16.976 82.204 18.764 81.7 20.18 81.052C21.668 81.772 23.36 82.192 25.28 82.336L25.472 81.556C23.852 81.436 22.388 81.124 21.08 80.608C22.004 80.08 22.712 79.48 23.204 78.796V78.1H18.776C18.968 77.848 19.148 77.584 19.328 77.308L18.488 77.128ZM20.192 80.212C19.448 79.84 18.752 79.396 18.116 78.868L18.152 78.832H22.172C21.68 79.336 21.02 79.804 20.192 80.212ZM24.872 76.096H20.444C20.3 75.736 20.168 75.4 20.024 75.112L19.076 75.256C19.232 75.508 19.376 75.784 19.52 76.096H15.128V78.364H16.004V76.876H23.996V78.364H24.872V76.096ZM16.184 96.3H18.116V98.304H16.184V96.3ZM18.116 95.52H16.184V93.492H18.116V95.52ZM16.172 99.084H18.116V101.796C18.116 102.228 17.96 102.444 17.66 102.444C17.372 102.444 17.072 102.42 16.736 102.396L16.94 103.164H17.9C18.572 103.164 18.908 102.792 18.908 102.072V92.712H15.404V98.472C15.392 100.152 15.152 101.544 14.672 102.624L15.32 103.224C15.812 102.144 16.1 100.764 16.172 99.084ZM20.732 97.896H21.02C21.284 99.072 21.8 100.128 22.568 101.064C22.088 101.64 21.512 102.108 20.828 102.48L21.284 103.176C22.004 102.792 22.616 102.3 23.144 101.688C23.696 102.228 24.344 102.72 25.112 103.164L25.544 102.432C24.812 102.012 24.176 101.544 23.636 101.016C24.188 100.152 24.584 99.096 24.812 97.86V97.128H20.732V93.492H23.936C23.912 94.404 23.864 94.992 23.78 95.256C23.708 95.436 23.6 95.556 23.456 95.604C23.312 95.64 23.108 95.664 22.82 95.664C22.484 95.664 22.22 95.652 22.016 95.652L22.244 96.396H23.216C23.972 96.396 24.416 96.144 24.56 95.652C24.704 95.172 24.776 94.188 24.776 92.7H19.916V103.212H20.732V97.896ZM21.764 97.896H24.044C23.828 98.844 23.504 99.672 23.06 100.392C22.448 99.648 22.016 98.82 21.764 97.896Z" fill="white"/>
<circle opacity="0.1" cx="20" cy="19" r="13" fill="white"/>
<path d="M21.3491 21.3253C21.054 21.3253 20.8633 21.1346 20.8633 20.8395C20.8633 20.5443 21.054 20.3536 21.3491 20.3536C22.9888 20.3536 24.1416 20.0404 24.433 19.5157L24.4387 19.5042C24.5038 19.3403 24.6754 19.2302 24.8732 19.2302C24.9406 19.2302 25.0066 19.2429 25.0692 19.2679C25.1838 19.3137 25.2712 19.4057 25.3158 19.5271C25.3592 19.6454 25.3562 19.7777 25.3074 19.8996C24.7163 21.1407 22.6806 21.3253 21.5195 21.3253H21.3491V21.3253Z" fill="white" fill-opacity="0.9"/>
<path d="M13.4747 21.0494C13.1795 21.0494 12.9888 20.8587 12.9888 20.5635V18.1767C12.9888 18.0603 13.0604 17.9166 13.1802 17.7923L13.1862 17.7861L13.5548 17.5403L13.5568 17.4991C13.7276 14.1968 16.4373 11.6101 19.7257 11.6101C22.9576 11.6101 25.6674 14.1475 25.8948 17.3868L25.8984 17.4391L26.6912 17.7442C26.8854 17.7956 27.0311 17.9867 27.0311 18.1199V20.5067C27.0311 20.8019 26.8404 20.9926 26.5452 20.9926C26.25 20.9926 26.0593 20.8019 26.0593 20.5067V18.5179L25.2629 18.2116C25.0703 18.1614 24.9228 17.9726 24.9228 17.7788C24.9228 14.9132 22.5914 12.5819 19.7258 12.5819C16.8602 12.5819 14.5288 14.9133 14.5288 17.7788C14.5288 17.9397 14.4644 18.0881 14.3374 18.22L14.3314 18.2263L13.9605 18.4736V20.5635C13.9605 20.8587 13.7698 21.0494 13.4747 21.0494Z" fill="white" fill-opacity="0.9"/>
<path d="M25.8958 26.44C25.643 26.44 25.4562 26.2911 25.4083 26.0515C25.1817 24.8731 24.5027 23.8535 23.3325 22.9342L23.3229 22.9274C23.23 22.8719 23.166 22.7791 23.1432 22.6623C23.1156 22.521 23.1504 22.3641 23.2338 22.2529L23.239 22.2451C23.3103 22.1262 23.4434 22.0556 23.6015 22.0556C23.7155 22.0556 23.8295 22.0921 23.914 22.1556C25.2892 23.2071 26.1197 24.4518 26.383 25.8555C26.4325 26.1523 26.2324 26.3842 26.0105 26.4377L26.0014 26.44H25.8958ZM13.9116 26.3832L13.904 26.3816C13.7528 26.3516 13.6628 26.2609 13.614 26.1901C13.5358 26.0771 13.5048 25.9312 13.5312 25.7997C13.9121 23.7861 15.3365 22.1731 17.3415 21.4856L17.4991 21.4315L17.3604 21.3391C16.1197 20.5119 15.4081 19.2112 15.4081 17.7707C15.4081 15.3632 17.294 13.4773 19.7016 13.4773C22.069 13.4773 23.995 15.4033 23.995 17.7707C23.995 17.9949 23.9583 18.2871 23.8828 18.6639C23.8392 18.9251 23.6029 19.0631 23.3922 19.0631C23.3602 19.0631 23.3285 19.0601 23.298 19.054C23.2362 19.0443 23.177 19.0221 23.1241 18.9886C23.0713 18.9551 23.0258 18.9111 22.9907 18.8593C22.9125 18.746 22.8816 18.6001 22.9079 18.469C22.9663 18.2356 22.9663 17.9993 22.9663 17.7708C22.9663 15.9393 21.4762 14.4492 19.6447 14.4492C17.8132 14.4492 16.3231 15.9392 16.3231 17.7708C16.3231 19.6024 17.8132 21.0925 19.6447 21.0925C19.9278 21.0925 20.1301 21.2737 20.1859 21.5772L20.1874 21.5853L20.1872 21.5935C20.1808 21.8795 19.9902 22.0644 19.7015 22.0644C17.0528 22.0644 14.9648 23.6442 14.506 25.9955C14.4582 26.2349 14.2715 26.3835 14.0187 26.3835H13.9116V26.3832Z" fill="white" fill-opacity="0.9"/>
</svg>
