<svg width="16" height="16" viewBox="0 0 16 16" fill="none" xmlns="http://www.w3.org/2000/svg">
<g id="icon">
<path id="Vector" d="M6.66473 0.00940441H9.32927C11.102 -0.0296422 13.0231 0.513887 14.2351 1.76494C15.4877 2.97695 16.0297 4.89804 15.9922 6.67076V9.3353C16.0297 11.108 15.4877 13.0291 14.2351 14.2411C13.0231 15.4937 11.102 16.0357 9.32927 15.9982H6.66473C4.89201 16.0357 2.97092 15.4937 1.75891 14.2411C0.506297 13.0307 -0.0356705 11.1096 0.00181425 9.33686V6.67232C-0.0356705 4.89804 0.506297 2.97695 1.75891 1.76494C2.97092 0.513887 4.89201 -0.0296422 6.66473 0.00940441Z" fill="#FF8F21"/>
<g id="Group 427318471">
<path id="R" d="M6.56129 12.3349C6.11263 12.3349 5.79384 12.2545 5.60493 12.0938C5.42389 11.9257 5.33337 11.681 5.33337 11.3595C5.33337 11.2718 5.33731 11.1257 5.34518 10.9212C5.36092 10.7093 5.3806 10.4609 5.40422 10.176C5.42783 9.89103 5.45144 9.58052 5.47506 9.24445C5.50654 8.90107 5.53803 8.55404 5.56951 8.20336C5.63248 7.46546 5.67577 6.86637 5.69939 6.4061C5.73087 5.94583 5.75449 5.58418 5.77023 5.32117C5.79384 4.9924 5.81746 4.78418 5.84107 4.69651C5.86468 4.60154 5.91585 4.55405 5.99456 4.55405C6.23857 4.55405 6.48651 4.55039 6.73839 4.54309C6.99814 4.52848 7.24608 4.51386 7.48222 4.49925C7.71836 4.48464 7.93875 4.47368 8.14341 4.46638C8.35593 4.45176 8.54484 4.44446 8.71013 4.44446C9.21389 4.44446 9.64681 4.50291 10.0089 4.6198C10.371 4.73669 10.6622 4.90108 10.8826 5.11295C11.1109 5.32482 11.2762 5.58053 11.3785 5.88007C11.4887 6.17962 11.5438 6.51569 11.5438 6.88829C11.5438 7.45815 11.4218 7.96591 11.1778 8.41158C10.9338 8.85724 10.5441 9.19696 10.0089 9.43075L11.0007 10.7458C11.1817 10.9942 11.3194 11.1878 11.4139 11.3266C11.5084 11.4581 11.5556 11.5568 11.5556 11.6225C11.5556 11.6737 11.5202 11.7467 11.4493 11.8417C11.3864 11.9294 11.288 12.0207 11.1542 12.1157C11.0282 12.2034 10.8708 12.2801 10.6819 12.3458C10.5008 12.4116 10.2962 12.4444 10.0679 12.4444C9.81604 12.4444 9.59565 12.3677 9.40674 12.2143C9.2257 12.0609 9.0604 11.86 8.91085 11.6116C8.76917 11.3559 8.64323 11.0636 8.53303 10.7349C8.43071 10.4061 8.33232 10.0627 8.23786 9.70472C7.9545 9.69011 7.72229 9.66454 7.54126 9.62801C7.51764 9.94947 7.49403 10.2563 7.47041 10.5486C7.4468 10.8408 7.42712 11.1038 7.41138 11.3376C7.39564 11.5641 7.3799 11.754 7.36415 11.9075C7.34841 12.0536 7.34054 12.1413 7.34054 12.1705C7.33267 12.2289 7.31693 12.2728 7.29331 12.302C7.2697 12.3239 7.22247 12.3349 7.15163 12.3349H6.56129ZM8.474 6.08829C8.37954 6.08829 8.27328 6.0956 8.15521 6.11021C8.03714 6.11751 7.9112 6.12847 7.77739 6.14309C7.76165 6.39879 7.74197 6.70564 7.71836 7.06363C7.70262 7.41432 7.679 7.79057 7.64752 8.1924C7.92301 8.25085 8.16308 8.28007 8.36774 8.28007C8.61174 8.28007 8.80852 8.23623 8.95808 8.14856C9.1155 8.06089 9.23751 7.95496 9.32409 7.83075C9.41067 7.69925 9.46577 7.56044 9.48939 7.41432C9.52087 7.2682 9.53661 7.13669 9.53661 7.0198C9.53661 6.72025 9.4579 6.49012 9.30048 6.32939C9.14305 6.16866 8.86756 6.08829 8.474 6.08829Z" fill="white"/>
</g>
<path id="Vector_2" opacity="0.5" d="M1.75893 1.76496C0.576597 2.90981 0.0268209 4.68565 0.00183105 6.37246C2.1572 6.37246 3.90493 4.62318 3.90493 2.4678C3.90493 1.79933 3.73625 1.16989 3.44106 0.620117C2.80694 0.899691 2.22905 1.27922 1.75893 1.76496V1.76496Z" fill="white"/>
</g>
</svg>
