<svg width="16" height="16" viewBox="0 0 16 16" fill="none" xmlns="http://www.w3.org/2000/svg">
<g id="icon">
<g id="Group 427318472">
<path id="Vector" d="M6.66474 0.00928234H9.32929C11.102 -0.0297643 13.0231 0.513765 14.2351 1.76482C15.4877 2.97683 16.0297 4.89793 15.9922 6.67064V9.33519C16.0297 11.1079 15.4877 13.029 14.2351 14.241C13.0231 15.4936 11.102 16.0356 9.32929 15.9981H6.66474C4.89202 16.0356 2.97092 15.4936 1.75891 14.241C0.506297 13.0306 -0.0356706 11.1095 0.00181425 9.33675V6.67221C-0.0356706 4.89793 0.506297 2.97683 1.75891 1.76482C2.97092 0.513765 4.89202 -0.0297643 6.66474 0.00928234Z" fill="#FF8F21"/>
<path id="Vector_2" opacity="0.5" d="M1.75893 1.76497C0.576598 2.90981 0.0268209 4.68566 0.00183105 6.37247C2.15721 6.37247 3.90494 4.62318 3.90494 2.46781C3.90494 1.79933 3.73625 1.16989 3.44106 0.620117C2.80694 0.899691 2.22905 1.27922 1.75893 1.76497V1.76497Z" fill="white"/>
</g>
<g id="Group 427318473">
<mask id="mask0_603_30451" style="mask-type:alpha" maskUnits="userSpaceOnUse" x="3" y="4" width="10" height="8">
<path id="Vector_3" d="M8.80074 4.44446C9.42634 4.44446 9.91274 4.97858 9.95274 5.62964H11.7244C11.9154 5.62964 12.0985 5.70456 12.2335 5.83792C12.3686 5.97128 12.4444 6.15216 12.4444 6.34075V10.3704C12.4444 10.6847 12.318 10.9862 12.093 11.2084C11.8679 11.4307 11.5627 11.5556 11.2444 11.5556H4.75554C4.43728 11.5556 4.13206 11.4307 3.90701 11.2084C3.68197 10.9862 3.55554 10.6847 3.55554 10.3704V5.71735C3.55554 5.05206 4.02154 4.48633 4.64074 4.44683L4.71034 4.44446H8.80074ZM12.4444 7.20989H9.75554C9.39054 7.20937 9.03977 7.34966 8.77797 7.60086C8.51618 7.85206 8.36406 8.19431 8.35405 8.55467C8.34403 8.91503 8.47691 9.265 8.72436 9.53C8.97181 9.79501 9.31426 9.95409 9.67874 9.97335L9.75554 9.97532H12.4444V7.20989ZM10.6444 8.00001C10.8036 8.00001 10.9562 8.06245 11.0687 8.17358C11.1812 8.28471 11.2444 8.43544 11.2444 8.59261C11.2444 8.74977 11.1812 8.9005 11.0687 9.01163C10.9562 9.12276 10.8036 9.1852 10.6444 9.1852C10.4853 9.1852 10.3327 9.12276 10.2202 9.01163C10.1076 8.9005 10.0444 8.74977 10.0444 8.59261C10.0444 8.43544 10.1076 8.28471 10.2202 8.17358C10.3327 8.06245 10.4853 8.00001 10.6444 8.00001ZM8.80074 5.23458H4.71034C4.54954 5.23458 4.39354 5.39616 4.36154 5.62964H9.14954C9.11994 5.41354 8.98394 5.25908 8.83674 5.23735L8.80074 5.23458Z" fill="white"/>
</mask>
<g mask="url(#mask0_603_30451)">
<path id="Vector_4" d="M8.80074 4.44446C9.42634 4.44446 9.91274 4.97858 9.95274 5.62964H11.7244C11.9154 5.62964 12.0985 5.70456 12.2335 5.83792C12.3686 5.97128 12.4444 6.15216 12.4444 6.34075V10.3704C12.4444 10.6847 12.318 10.9862 12.093 11.2084C11.8679 11.4307 11.5627 11.5556 11.2444 11.5556H4.75554C4.43728 11.5556 4.13206 11.4307 3.90701 11.2084C3.68197 10.9862 3.55554 10.6847 3.55554 10.3704V5.71735C3.55554 5.05206 4.02154 4.48633 4.64074 4.44683L4.71034 4.44446H8.80074ZM12.4444 7.20989H9.75554C9.39054 7.20937 9.03977 7.34966 8.77797 7.60086C8.51618 7.85206 8.36406 8.19431 8.35405 8.55467C8.34403 8.91503 8.47691 9.265 8.72436 9.53C8.97181 9.79501 9.31426 9.95409 9.67874 9.97335L9.75554 9.97532H12.4444V7.20989ZM10.6444 8.00001C10.8036 8.00001 10.9562 8.06245 11.0687 8.17358C11.1812 8.28471 11.2444 8.43544 11.2444 8.59261C11.2444 8.74977 11.1812 8.9005 11.0687 9.01163C10.9562 9.12276 10.8036 9.1852 10.6444 9.1852C10.4853 9.1852 10.3327 9.12276 10.2202 9.01163C10.1076 8.9005 10.0444 8.74977 10.0444 8.59261C10.0444 8.43544 10.1076 8.28471 10.2202 8.17358C10.3327 8.06245 10.4853 8.00001 10.6444 8.00001ZM8.80074 5.23458H4.71034C4.54954 5.23458 4.39354 5.39616 4.36154 5.62964H9.14954C9.11994 5.41354 8.98394 5.25908 8.83674 5.23735L8.80074 5.23458Z" fill="white"/>
</g>
</g>
</g>
</svg>
