<svg width="16" height="16" viewBox="0 0 16 16" fill="none" xmlns="http://www.w3.org/2000/svg">
<g id="icon">
<path id="Vector" d="M6.66474 0.00940441H9.32929C11.102 -0.0296423 13.0231 0.513887 14.2351 1.76494C15.4877 2.97695 16.0297 4.89805 15.9922 6.67077V9.33531C16.0297 11.108 15.4877 13.0291 14.2351 14.2411C13.0231 15.4938 11.102 16.0357 9.32929 15.9982H6.66474C4.89202 16.0357 2.97092 15.4938 1.75891 14.2411C0.506297 13.0307 -0.0356706 11.1096 0.00181425 9.33687V6.67233C-0.0356706 4.89805 0.506297 2.97695 1.75891 1.76494C2.97092 0.513887 4.89202 -0.0296423 6.66474 0.00940441Z" fill="#FF8F21"/>
<path id="Vector_2" opacity="0.5" d="M1.75893 1.76497C0.576598 2.90981 0.0268209 4.68566 0.00183105 6.37247C2.15721 6.37247 3.90494 4.62318 3.90494 2.46781C3.90494 1.79933 3.73625 1.16989 3.44106 0.620117C2.80694 0.899691 2.22905 1.27922 1.75893 1.76497V1.76497Z" fill="white"/>
<path id="Vector_3" d="M12.2937 6.86591C12.2391 6.92683 12.1594 6.97212 12.0454 6.99399C11.7002 7.06271 11.4253 7.31886 11.3097 7.64529C11.2691 7.76086 11.2488 7.88269 11.2488 8.00452C11.2488 8.41216 11.5362 8.79482 11.9048 8.95726C12.2656 9.11657 12.3687 9.17748 12.3687 9.58669V10.0428C12.3687 10.9455 11.6315 11.678 10.7209 11.678H5.24033C4.33132 11.6796 3.59256 10.9471 3.59256 10.0428V9.51953C3.59256 9.03066 3.85651 9.03066 4.25167 8.83543C4.71554 8.6074 4.78114 7.9436 4.56404 7.5219C4.47033 7.34228 4.32039 7.19235 4.1439 7.09239C4.01739 7.0221 3.85651 7.02366 3.72219 6.96119C3.57382 6.89091 3.59256 6.76752 3.59256 6.62539V5.96316C3.59256 5.0604 4.32976 4.32788 5.24033 4.32788H10.7194C11.6299 4.32788 12.3671 5.0604 12.3671 5.96472C12.3671 6.26303 12.4811 6.65662 12.2937 6.86591V6.86591ZM9.44644 7.06115H6.50544C6.36956 7.06115 6.26023 7.17048 6.26023 7.30636C6.26023 7.44224 6.36956 7.55157 6.50544 7.55157H9.44644C9.58232 7.55157 9.69165 7.44224 9.69165 7.30636C9.69165 7.17204 9.58232 7.06115 9.44644 7.06115ZM9.44644 8.40904H6.50544C6.36956 8.40904 6.26023 8.51837 6.26023 8.65425C6.26023 8.79013 6.36956 8.89947 6.50544 8.89947H9.44644C9.58232 8.89947 9.69165 8.79013 9.69165 8.65425C9.69165 8.51993 9.58232 8.40904 9.44644 8.40904Z" fill="white"/>
</g>
</svg>
