<?xml version="1.0" encoding="UTF-8"?>
<svg width="358px" height="136px" viewBox="0 0 358 136" version="1.1" xmlns="http://www.w3.org/2000/svg" xmlns:xlink="http://www.w3.org/1999/xlink">
    <!-- Generator: Sketch 58 (84663) - https://sketch.com -->
    <title>Start sending block</title>
    <desc>Created with Sketch.</desc>
    <defs>
        <linearGradient x1="6.56957819%" y1="44.0741736%" x2="100%" y2="55.9258264%" id="linearGradient-1">
            <stop stop-color="#FAC058" offset="0%"></stop>
            <stop stop-color="#FA782D" offset="100%"></stop>
        </linearGradient>
        <rect id="path-2" x="26" y="23" width="305" height="105" rx="8"></rect>
        <filter x="-26.2%" y="-74.3%" width="152.5%" height="252.4%" filterUnits="objectBoundingBox" id="filter-3">
            <feGaussianBlur stdDeviation="25" in="SourceGraphic"></feGaussianBlur>
        </filter>
        <filter x="-27.4%" y="-77.6%" width="154.8%" height="259.0%" filterUnits="objectBoundingBox" id="filter-4">
            <feOffset dx="0" dy="2" in="SourceAlpha" result="shadowOffsetOuter1"></feOffset>
            <feGaussianBlur stdDeviation="2.5" in="shadowOffsetOuter1" result="shadowBlurOuter1"></feGaussianBlur>
            <feColorMatrix values="0 0 0 0 0.325490196   0 0 0 0 0.380392157   0 0 0 0 1  0 0 0 0.0534986413 0" type="matrix" in="shadowBlurOuter1"></feColorMatrix>
        </filter>
        <linearGradient x1="-13.7503429%" y1="41.2431803%" x2="100%" y2="57.2157548%" id="linearGradient-5">
            <stop stop-color="#FAC058" offset="0%"></stop>
            <stop stop-color="#FA782D" offset="100%"></stop>
        </linearGradient>
        <rect id="path-6" x="0" y="0" width="358" height="136" rx="8"></rect>
        <filter x="-2.4%" y="-4.8%" width="104.7%" height="112.5%" filterUnits="objectBoundingBox" id="filter-8">
            <feOffset dx="0" dy="2" in="SourceAlpha" result="shadowOffsetOuter1"></feOffset>
            <feGaussianBlur stdDeviation="2.5" in="shadowOffsetOuter1" result="shadowBlurOuter1"></feGaussianBlur>
            <feColorMatrix values="0 0 0 0 0.325490196   0 0 0 0 0.380392157   0 0 0 0 1  0 0 0 0.0534986413 0" type="matrix" in="shadowBlurOuter1"></feColorMatrix>
        </filter>
    </defs>
    <g id="工作台" stroke="none" stroke-width="1" fill="none" fill-rule="evenodd">
        <g transform="translate(-256.000000, -112.000000)" id="1">
            <g transform="translate(232.000000, 88.000000)">
                <g id="亮色" transform="translate(24.000000, 24.000000)">
                    <g id="Start-sending-block">
                        <g id="Mask" opacity="0.320452009" filter="url(#filter-3)">
                            <use fill="black" fill-opacity="1" filter="url(#filter-4)" xlink:href="#path-2"></use>
                            <use fill="url(#linearGradient-1)" fill-rule="evenodd" xlink:href="#path-2"></use>
                        </g>
                        <g id="Oval">
                            <mask id="mask-7" fill="white">
                                <use xlink:href="#path-6"></use>
                            </mask>
                            <g id="Mask">
                                <use fill="black" fill-opacity="1" filter="url(#filter-8)" xlink:href="#path-6"></use>
                                <use fill="url(#linearGradient-5)" fill-rule="evenodd" xlink:href="#path-6"></use>
                            </g>
                            <g id="guanli" opacity="0.1" mask="url(#mask-7)" fill="#FFFFFF" fill-rule="nonzero">
                                <g transform="translate(230.000000, 41.693431)" id="形状">
                                    <path d="M29.181,49.9737086 L29.181,49.1766416 C29.181,45.9883741 31.7383334,43.3865199 34.8665,43.3865199 L39.4160416,43.3865199 C42.5385,43.3865199 45.0958332,45.9883741 45.0958334,49.1766416 L45.0958334,50.0135619 C45.0958334,53.2132162 45.895,53.5149629 49.0231666,53.5149629 L88.6275834,53.5149629 C91.5274168,53.5149629 91.8185418,53.1164294 91.8185416,50.4519487 L91.8185416,49.1709484 C91.8185416,45.9826808 94.3701666,43.3808267 97.4983334,43.3808267 L101.922292,43.3808267 C105.04475,43.3808267 107.602083,45.9826808 107.602083,49.1709484 L107.602083,50.1843619 C107.602083,53.0424161 108.555375,53.5149629 111.335333,53.5149629 L133.19825,53.5149629 C136.160875,53.5206562 137,52.700816 137,49.8199886 L137,43.3466667 C137,36.9815182 131.885333,31.7664234 125.629,31.7664234 L11.371,31.7664234 C5.11466662,31.7664234 0,36.9815181 0,43.3523599 L0,49.4157617 C0,52.683736 0.947583378,53.5206562 4.4525,53.5206562 L25.10525,53.5206562 C28.4217916,53.5206562 29.181,53.1619761 29.181,49.9737086 L29.181,49.9737086 Z M107.607792,65.3172463 L107.607792,66.5470066 C107.63324,69.7074552 105.096529,72.2959847 101.928,72.3428217 L97.4983334,72.3428217 C94.3298047,72.2959848 91.7930936,69.7074552 91.8185416,66.5470066 L91.8185416,65.396953 C91.8185416,62.8975789 91.1107082,62.2029921 88.587625,62.2029921 L49.1772916,62.2029921 C45.946375,62.2029921 45.10725,62.914659 45.10725,65.8068732 L45.10725,66.5470066 C45.1326707,69.7096442 42.5925178,72.2990834 39.42175,72.3428217 L34.8665,72.3428217 C31.6957322,72.2990834 29.1555793,69.7096442 29.181,66.5470066 L29.181,66.0858465 C29.181,62.6983121 28.3475834,62.2029921 25.2536666,62.2029921 L4.34975,62.2029921 C0.8905,62.2029921 0,63.068379 0,66.5470066 L0,124.414063 C0,130.790598 5.11466662,136 11.371,136 L125.629,136 C131.885333,136 137,130.790598 137,124.414063 L137,65.6759264 C137,63.0740722 135.909708,62.2086854 133.5065,62.2086854 L111.495167,62.2086854 C108.4355,62.2029921 107.607792,62.7324721 107.607792,65.3172463 Z"></path>
                                    <path d="M41.4864648,61.8726919 C41.4864648,64.9708493 39.5758696,67.5036496 37.2432324,67.5036496 C34.9105952,67.5036496 33,64.9708493 33,61.8726919 L33,54.9583734 C33,51.8545624 34.9105952,49.3217621 37.2432324,49.3217621 C39.5758696,49.3217621 41.4864648,51.8545624 41.4864648,54.9583734 L41.4864648,61.8726919 Z M104,61.8726919 C104,64.9708493 102.095108,67.5036496 99.7624708,67.5036496 C97.4298336,67.5036496 95.5192384,64.9708493 95.5192384,61.8726919 L95.5192384,54.9583734 C95.5192384,51.8545624 97.4298336,49.3217621 99.7624708,49.3217621 C102.095108,49.3217621 104,51.8545624 104,54.9583734 L104,61.8726919 Z M44.6631859,26.1647312 C48.307575,16.3897051 57.6381236,9.43015809 68.5712908,9.43015809 C79.504458,9.43015809 88.8350068,16.3840516 92.4736926,26.1647312 C92.4736926,26.1647312 93.243634,29.3872672 97.7549201,29.3872672 C102.260503,29.3872672 102.249096,26.1647312 102.249096,26.1647312 C98.2796208,11.0979619 84.7058398,0 68.5712908,0 C52.4310386,0 38.8629608,11.0979619 34.8877822,26.1647312 C34.8877822,26.1647312 34.6425416,28.9858636 39.2964093,28.9858636 C43.9559804,28.9858636 44.6631857,26.1647312 44.6631859,26.1647312 Z"></path>
                                </g>
                            </g>
                        </g>
                        <text id="购买VAT服务" font-family="PingFangSC, 蘋方-簡" font-size="24" font-weight="normal" line-spacing="24" fill="#FFFFFF">
                            <tspan x="20" y="119">购买VAT服务</tspan>
                        </text>
                        <path d="M0,76 L200,76" id="Line" stroke="#DDE1EE" opacity="0.5" stroke-linecap="square"></path>
                        <text id="Purchase-Service" font-family="PingFangSC, 蘋方-簡" font-size="14" font-weight="normal" line-spacing="14" fill="#FFFFFF">
                            <tspan x="66" y="47">Purchase Service</tspan>
                        </text>
                        <g id="Start/icon" transform="translate(20.000000, 20.000000)" fill="#FFFFFF" opacity="0.235491071">
                            <circle id="Oval-Copy-6" cx="18" cy="18" r="18"></circle>
                        </g>
                        <g id="guanli" transform="translate(29.000000, 29.000000)" fill="#FFFFFF" fill-rule="nonzero">
                            <path d="M3.834,6.66750001 L3.834,6.56249999 C3.834,6.1425 4.17000001,5.79974999 4.581,5.79974999 L5.17874999,5.79974999 C5.589,5.79974999 5.92499999,6.1425 5.92500001,6.56249999 L5.92500001,6.67274999 C5.92500001,7.09425 6.03,7.13399999 6.44099999,7.13399999 L11.6445,7.13399999 C12.0255,7.13399999 12.06375,7.08149999 12.06375,6.73050001 L12.06375,6.56175001 C12.06375,6.14175001 12.399,5.79900001 12.81,5.79900001 L13.39125,5.79900001 C13.8015,5.79900001 14.1375,6.14175001 14.1375,6.56175001 L14.1375,6.69524999 C14.1375,7.07175 14.26275,7.13399999 14.628,7.13399999 L17.5005,7.13399999 C17.88975,7.13475 18,7.02675 18,6.64725001 L18,5.79450001 C18,4.95600001 17.328,4.26900001 16.506,4.26900001 L1.494,4.26900001 C0.671999994,4.26900001 0,4.95599999 0,5.79524999 L0,6.59399999 C0,7.0245 0.124500006,7.13475 0.585,7.13475 L3.2985,7.13475 C3.73424999,7.13475 3.834,7.0875 3.834,6.66750001 L3.834,6.66750001 Z M14.13825,8.68874999 L14.13825,8.85074999 C14.1415935,9.26708531 13.808303,9.60808003 13.392,9.61425 L12.81,9.61425 C12.393697,9.60808004 12.0604065,9.26708532 12.06375,8.85074999 L12.06375,8.69925001 C12.06375,8.37 11.97075,8.27850001 11.63925,8.27850001 L6.46124999,8.27850001 C6.03675,8.27850001 5.9265,8.37225 5.9265,8.75325001 L5.9265,8.85074999 C5.92983994,9.26737367 5.59609722,9.60848822 5.1795,9.61425 L4.581,9.61425 C4.16440278,9.60848822 3.83066006,9.26737367 3.834,8.85074999 L3.834,8.78999999 C3.834,8.34374999 3.72450001,8.27850001 3.31799999,8.27850001 L0.5715,8.27850001 C0.117,8.27850001 0,8.3925 0,8.85074999 L0,16.47375 C0,17.31375 0.671999994,18 1.494,18 L16.506,18 C17.328,18 18,17.31375 18,16.47375 L18,8.73599999 C18,8.39324999 17.85675,8.27924999 17.541,8.27924999 L14.649,8.27924999 C14.247,8.27850001 14.13825,8.34824999 14.13825,8.68874999 Z" id="形状"></path>
                            <path d="M5.44649999,8.208 C5.44649999,8.61899999 5.19525,8.955 4.88849999,8.955 C4.58174999,8.955 4.33049999,8.61899999 4.33049999,8.208 L4.33049999,7.29075001 C4.33049999,6.87900001 4.58174999,6.543 4.88849999,6.543 C5.19525,6.543 5.44649999,6.87900001 5.44649999,7.29075001 L5.44649999,8.208 Z M13.66725,8.208 C13.66725,8.61899999 13.41675,8.955 13.11,8.955 C12.80325,8.955 12.552,8.61899999 12.552,8.208 L12.552,7.29075001 C12.552,6.87900001 12.80325,6.543 13.11,6.543 C13.41675,6.543 13.66725,6.87900001 13.66725,7.29075001 L13.66725,8.208 Z M5.86425001,3.47099999 C6.34350001,2.17424999 7.57050001,1.251 9.00824999,1.251 C10.446,1.251 11.673,2.1735 12.1515,3.47099999 C12.1515,3.47099999 12.25275,3.89849999 12.846,3.89849999 C13.4385,3.89849999 13.437,3.47099999 13.437,3.47099999 C12.915,1.47225001 11.13,0 9.00824999,0 C6.88574999,0 5.10149999,1.47225001 4.57875,3.47099999 C4.57875,3.47099999 4.54649999,3.84525 5.15849999,3.84525 C5.77125,3.84525 5.86424999,3.47099999 5.86425001,3.47099999 Z" id="形状"></path>
                        </g>
                    </g>
                </g>
            </g>
        </g>
    </g>
</svg>