<?xml version="1.0" encoding="UTF-8"?>
<svg width="20px" height="20px" viewBox="0 0 20 20" version="1.1" xmlns="http://www.w3.org/2000/svg" xmlns:xlink="http://www.w3.org/1999/xlink">
    <!-- Generator: Sketch 58 (84663) - https://sketch.com -->
    <title>lianxiwomen</title>
    <desc>Created with Sketch.</desc>
    <g id="工作台" stroke="none" stroke-width="1" fill="none" fill-rule="evenodd">
        <g id="税务管理-VAT信件右侧客服浮窗" transform="translate(-1409.000000, -581.000000)" fill="#FFFFFF" fill-rule="nonzero">
            <g id="编组-9备份-3" transform="translate(1398.000000, 571.000000)">
                <g id="lianxiwomen" transform="translate(11.000000, 10.000000)">
                    <g id="返回顶部">
                        <path d="M13.7365798,9.54994248 L13.7341833,9.54754601 L10.6091833,7.07917945 C10.242523,6.75805215 9.74166028,6.75805215 9.36062117,7.07917945 L6.08703988,9.53796012 L6.0678681,9.55233896 C5.94564801,9.66257669 5.87615031,9.82074387 5.87615031,9.98610046 C5.87615031,10.1442676 5.94085506,10.3000383 6.05588574,10.4102761 C6.16851994,10.5181173 6.31470475,10.5756327 6.46807899,10.5684433 C6.5974885,10.5636503 6.72450153,10.5133244 6.85391104,10.4126725 L9.4013612,8.56978528 L9.4013612,15.2032209 C9.4013612,15.5243482 9.66257669,15.7855637 9.98370399,15.7855637 C10.3048313,15.7855637 10.5660468,15.5243482 10.5660468,15.2032209 L10.5660468,8.57937117 L12.9505368,10.4102761 C13.0799463,10.5157209 13.2093558,10.5684433 13.3507477,10.5684433 C13.671875,10.5684433 13.9331486,10.3072278 13.9331486,9.98610046 C13.935487,9.81595092 13.8635928,9.66018021 13.7365798,9.54994248 L13.7365798,9.54994248 Z" id="路径"></path>
                        <path d="M12.9529333,4.94152607 L7.04323236,4.94152607 C6.72210506,4.94152607 6.46088957,5.20274156 6.46088957,5.52386887 C6.46088957,5.84499617 6.72210506,6.10621166 7.04323236,6.10621166 L12.9529333,6.10621166 C13.2740606,6.10621166 13.5352761,5.84499617 13.5352761,5.52386887 C13.5352761,5.20274156 13.2740606,4.94152607 12.9529333,4.94152607 Z" id="路径"></path>
                        <path d="M19.7349502,8.16957439 C19.5384394,7.08157592 19.1621933,6.0415069 18.6157975,5.078125 C18.0837807,4.13631135 17.405579,3.2903566 16.6003643,2.56662193 C15.7831672,1.83090491 14.8605253,1.2413727 13.8564034,0.810007669 C12.8331097,0.371453221 11.7523006,0.11023773 10.637941,0.0335506135 C9.6266296,-0.0359470859 8.6201112,0.0479294479 7.63995399,0.28038727 C6.7364839,0.496069785 5.86896089,0.838765337 5.05655675,1.29888804 C4.26572086,1.74702837 3.53958972,2.30300997 2.89493865,2.95245399 C2.2478911,3.60429448 1.69670245,4.3400115 1.25095859,5.13803681 C0.800421779,5.94804448 0.467312117,6.81796396 0.258819018,7.71903758 C0.0311541411,8.70398773 -0.0431365031,9.72009202 0.0359470859,10.7361963 C0.11023773,11.67801 0.316334356,12.6006518 0.651840491,13.4801572 C0.977760736,14.3404908 1.4235046,15.1504985 1.97708972,15.8910084 C2.52108896,16.619536 3.16094709,17.2713765 3.88228528,17.8273581 C4.60841641,18.3881327 5.40644172,18.8458589 6.25479294,19.186158 C7.12950537,19.5384394 8.05214724,19.7613113 8.99396089,19.8523773 C9.31029525,19.8835314 9.63142255,19.8979103 9.95015337,19.8979103 C10.201783,19.8979103 10.455809,19.8883244 10.7050422,19.8691526 C11.8170054,19.7852761 12.8978144,19.5168712 13.9211081,19.0687308 C14.9252301,18.6301764 15.8454755,18.0310583 16.6578796,17.2857554 C17.4606979,16.5500383 18.1341066,15.6968942 18.658934,14.7478911 C19.2005368,13.7677339 19.5695936,12.7156825 19.7541219,11.6133052 C19.9506327,10.4677914 19.9434433,9.31029525 19.7349502,8.16957439 Z M18.100556,13.2764571 C17.5110238,14.7191334 16.5428489,15.9844709 15.3014762,16.9382669 C14.0385353,17.9064417 12.5383436,18.5127492 10.9638612,18.6924847 C10.5564609,18.7380176 10.1370782,18.7571894 9.7224885,18.7476035 C7.91075537,18.6996741 6.11819402,18.0741948 4.67312117,16.9837998 C3.17532592,15.8526649 2.05856979,14.2590107 1.52894939,12.4928106 C0.946606595,10.5612538 1.04965491,8.47392638 1.8141296,6.61666028 C2.48034893,4.99904141 3.65701687,3.57553681 5.12605445,2.60975844 C6.84672163,1.47622699 8.91727377,0.980157209 10.9590683,1.21261503 C12.8067485,1.4235046 14.5753451,2.23830521 15.9413344,3.50843558 C17.3025307,4.76898006 18.2419479,6.46328604 18.5918328,8.27501917 C18.9129601,9.94056748 18.7380176,11.7163535 18.100556,13.2764571 Z" id="形状"></path>
                    </g>
                </g>
            </g>
        </g>
    </g>
</svg>