<?xml version="1.0" encoding="UTF-8"?>
<svg width="20px" height="20px" viewBox="0 0 20 20" version="1.1" xmlns="http://www.w3.org/2000/svg" xmlns:xlink="http://www.w3.org/1999/xlink">
    <title>上传</title>
    <g id="业务中台1.7.7.1极简工单_个人中心_其他服务" stroke="none" stroke-width="1" fill="none" fill-rule="evenodd">
        <g id="个人中心_其他服务_待办理_在线办理" transform="translate(-468.000000, -533.000000)" fill="#FFFFFF">
            <g id="法人信息" transform="translate(232.000000, 448.000000)">
                <g id="Group-32" transform="translate(64.000000, 79.000000)">
                    <g id="Group-31" transform="translate(64.000000, 0.000000)">
                        <g id="编组-7" transform="translate(108.000000, 6.000000)">
                            <g id="上传" transform="translate(1.000000, 3.000000)">
                                <path d="M9.00399777,6.15025186 L12.1149643,9.27290613 L11.2058237,10.1854624 L9.64285714,8.61662385 L9.64285714,14.1353759 C9.64285714,14.4918082 9.3551183,14.7807692 9,14.7807692 C8.64496205,14.7807692 8.35714286,14.4919292 8.35714286,14.1353961 L8.35714286,14.1353961 L8.35714286,8.61662385 L6.79417634,10.1854422 L5.88503571,9.27288597 L9,6.15426465 L9.00399777,6.15025186 Z M9.16071429,0 C11.8365469,0 14.0660759,1.91662013 14.5848214,4.45641201 C16.4709844,4.45641201 18,5.99117207 18,7.88442124 C18,9.67571738 16.6311362,11.1458494 14.8861607,11.2519362 L14.8861607,11.2519362 L13.4955357,11.2519362 C12.5049229,11.2519362 12.5827534,10.0300332 13.3988903,10.0300332 C14.0894676,10.0300332 14.5180081,9.9808874 14.6335216,9.96576561 L14.6651786,9.96139154 C15.804,9.91747269 16.7142857,9.03790602 16.7142857,7.88442124 C16.7142857,6.72934345 15.8014487,5.78841541 14.6603973,5.74844885 C14.6599381,5.7600868 14.4734067,5.76271383 14.3668548,5.76326496 L14.2944101,5.76337371 C13.7796187,5.77128505 13.3437507,5.36409323 13.3086667,4.85651035 C13.3086667,4.85651035 13.2961138,4.70901596 13.3005134,4.70722129 C12.920846,2.75997089 11.2118705,1.29054465 9.16071429,1.29054465 C7.89828348,1.29054465 6.76546875,1.84723319 5.9966317,2.74242755 L5.9966317,2.74242755 L5.96929484,2.76992244 C5.90833805,2.8330445 5.75556027,3.00120864 5.61493527,3.23646418 L5.61493527,3.23646418 L5.57084574,3.29979678 C5.37587716,3.5365278 4.82768509,3.81213187 4.36032827,3.77175553 C4.36032827,3.77175553 4.30915179,3.74056302 3.94103571,3.76695869 C2.43739286,3.99822832 1.28571429,5.30220271 1.28571429,6.87618323 C1.28571429,8.61349831 2.68883036,9.96139154 4.4296875,9.9621578 C4.77072321,9.97796697 5.14285714,10.2604349 5.14285714,10.6066639 C5.14285714,10.9630357 4.79477009,11.2519362 4.41964286,11.2519362 C1.97875446,11.2519362 0,9.32626209 0,6.87618323 C0,4.42610437 1.97875446,2.43993598 4.41964286,2.43993598 C4.47715848,2.43993598 4.53433259,2.44132735 4.59132589,2.44352531 C5.57985937,0.96960233 7.25745536,1.45701319e-16 9.16071429,0 Z" id="Shape-Copy-11"></path>
                            </g>
                        </g>
                    </g>
                </g>
            </g>
        </g>
    </g>
</svg>