<?xml version="1.0" encoding="UTF-8"?>
<svg width="22px" height="21px" viewBox="0 0 22 21" version="1.1" xmlns="http://www.w3.org/2000/svg" xmlns:xlink="http://www.w3.org/1999/xlink">
    <!-- Generator: Sketch 58 (84663) - https://sketch.com -->
    <title>控制台</title>
    <desc>Created with Sketch.</desc>
    <g id="页面-1" stroke="none" stroke-width="1" fill="none" fill-rule="evenodd">
        <g id="首页-工作台-1.2版" transform="translate(-34.000000, -307.000000)" fill-rule="nonzero">
            <g id="编组-8" transform="translate(14.000000, 91.000000)">
                <g id="个人中心" transform="translate(20.000000, 216.000000)">
                    <g id="控制台">
                        <g id="编组-13">
                            <g id="gerenzhongxin-2">
                                <path d="M14.9392465,20.4784628 L7.03747483,20.4784628 C4.26670808,20.4750633 2.02140551,18.2297607 2.01800595,15.458994 L2.01800595,15.3588514 C2.02114405,12.5878993 4.26652305,10.342308 7.03747483,10.3389079 L14.9392465,10.3389079 C17.7098279,10.3425689 19.9548418,12.587795 19.9582408,15.3583768 L19.9582408,15.4585194 C19.9551032,18.2292864 17.7100129,20.4748013 14.9392465,20.4784628 L14.9392465,20.4784628 Z M7.03747483,12.0304158 C5.19926599,12.0330298 3.70975484,13.522541 3.70714077,15.3607498 L3.70714077,15.4608924 C3.70897211,17.299426 5.19894122,18.7893951 7.03747483,18.7912265 L14.9392465,18.7912265 C16.7774553,18.7886124 18.2669665,17.2991013 18.2695806,15.4608924 L18.2695806,15.3607498 C18.2677492,13.5222162 16.7777801,12.0322471 14.9392465,12.0304158 L7.03747483,12.0304158 Z" id="形状" fill="#333333"></path>
                                <path d="M10.988598,11.2781599 C8.91387723,11.2781599 7.04344686,10.0283783 6.24948561,8.11158623 C5.45552436,6.1947942 5.8943893,3.98847114 7.36143841,2.52142204 C8.82848752,1.05437294 11.0348106,0.615508001 12.9516026,1.40946926 C14.8683946,2.20343052 16.1181762,4.0738609 16.1181762,6.14858164 C16.1150375,8.98026834 13.8202847,11.2750211 10.988598,11.2781599 L10.988598,11.2781599 Z M10.988598,2.71098584 C9.08934189,2.71177224 7.5503036,4.25201464 7.55100232,6.15127076 C7.55170151,8.05052687 9.09187304,9.58963608 10.9911292,9.58902476 C12.8903853,9.58841308 14.4295655,8.04831242 14.4290415,6.14905625 C14.4253814,4.25085429 12.886802,2.71333611 10.988598,2.71098584 L10.988598,2.71098584 Z" id="形状" fill="#16ADE9"></path>
                            </g>
                        </g>
                    </g>
                </g>
            </g>
        </g>
    </g>
</svg>