<?xml version="1.0" encoding="UTF-8"?>
<svg width="22px" height="21px" viewBox="0 0 22 21" version="1.1" xmlns="http://www.w3.org/2000/svg" xmlns:xlink="http://www.w3.org/1999/xlink">
    <!-- Generator: Sketch 58 (84663) - https://sketch.com -->
    <title>控制台</title>
    <desc>Created with Sketch.</desc>
    <g id="页面-1" stroke="none" stroke-width="1" fill="none" fill-rule="evenodd">
        <g id="首页-工作台-1.2版" transform="translate(-34.000000, -256.000000)" fill-rule="nonzero">
            <g id="编组-8" transform="translate(14.000000, 91.000000)">
                <g id="信件" transform="translate(20.000000, 165.000000)">
                    <g id="youjiandingyue">
                        <path d="M18.4591734,6.3984375 C19.2608771,6.3984375 19.9107863,7.04834673 19.9107863,7.8500504 L19.9107863,17.0435988 C19.9107863,17.8453025 19.2608771,18.4952117 18.4591734,18.4952117 L3.45917339,18.4952117 C2.65746972,18.4952117 2.00756048,17.8453025 2.00756048,17.0435988 L2.00756048,7.8500504 C2.00756048,7.04834673 2.65746972,6.3984375 3.45917339,6.3984375 L4.91078629,6.3984375 L4.91078629,7.8500504 L3.45917339,7.8500504 L3.45917339,17.0435988 L18.4591734,17.0435988 L18.4591734,7.8500504 L16.765625,7.8500504 L16.765625,6.3984375 L18.4591734,6.3984375 Z" id="路径" fill="#333333"></path>
                        <path d="M15.7978831,4.46295363 L6.12046371,4.46295363 L6.12046371,11.2371472 L4.66885081,11.2371472 L4.66885081,4.46295363 C4.66885081,3.66124996 5.31876004,3.01134073 6.12046371,3.01134073 L15.7978831,3.01134073 C16.1828747,3.01134073 16.5520982,3.16427807 16.8243284,3.4365083 C17.0965586,3.70873853 17.249496,4.07796195 17.249496,4.46295363 L17.249496,11.2371472 L15.7978831,11.2371472 L15.7978831,4.46295363 Z" id="路径" fill="#16ADE9"></path>
                        <path d="M3.18917339,9.36650202 L3.22885081,9.38585685 L7.34175403,11.5632762 C7.38264113,11.5850504 7.420625,11.6099698 7.45546371,11.6377923 L10.6052218,9.87771169 L10.6497379,9.85472782 C10.8456914,9.76237247 11.0726553,9.76237247 11.2686089,9.85472782 L11.313125,9.87771169 L14.3716734,11.586744 L14.4043347,11.567873 L18.3909476,9.39045363 L18.4303831,9.37037298 C18.7776265,9.20776873 19.1914484,9.34331128 19.3752069,9.67983904 C19.5589654,10.0163668 19.4492628,10.437776 19.1247379,10.6419859 L19.086754,10.6644859 L15.8673185,12.4223891 L19.5389315,14.4744859 L19.5769153,14.4972278 C19.8996199,14.7045117 20.0053462,15.1270958 19.8182718,15.4619211 C19.6311974,15.7967465 19.2159039,15.9282253 18.8702218,15.7620665 L18.8310282,15.741502 L10.9591734,11.342631 L3.08731855,15.741502 L3.048125,15.7620665 C2.70244287,15.9282253 2.28714936,15.7967465 2.10007496,15.4619211 C1.91300057,15.1270958 2.01872683,14.7045117 2.34143145,14.4972278 L2.37941532,14.4744859 L5.95909274,12.4736794 L2.5497379,10.6688407 C2.20392637,10.4848996 2.06644267,10.0597543 2.23907231,9.70815936 C2.41170194,9.35656446 2.83216501,9.2053655 3.18917339,9.36650202 L3.18917339,9.36650202 Z" id="路径" fill="#333333"></path>
                    </g>
                </g>
            </g>
        </g>
    </g>
</svg>