<?xml version="1.0" encoding="UTF-8"?>
<svg width="300px" height="266px" viewBox="0 0 300 266" version="1.1" xmlns="http://www.w3.org/2000/svg" xmlns:xlink="http://www.w3.org/1999/xlink">
    <!-- Generator: Sketch 58 (84663) - https://sketch.com -->
    <title>编组 7</title>
    <desc>Created with Sketch.</desc>
    <defs>
        <linearGradient x1="48.8424789%" y1="101.415585%" x2="53.6448832%" y2="-1.02500887%" id="linearGradient-1">
            <stop stop-color="#808080" stop-opacity="0.25" offset="0%"></stop>
            <stop stop-color="#808080" stop-opacity="0.12" offset="54%"></stop>
            <stop stop-color="#808080" stop-opacity="0.1" offset="100%"></stop>
        </linearGradient>
        <linearGradient x1="50.0062933%" y1="99.9934644%" x2="50.0062933%" y2="0.0225885412%" id="linearGradient-2">
            <stop stop-color="#808080" stop-opacity="0.25" offset="0%"></stop>
            <stop stop-color="#808080" stop-opacity="0.12" offset="54%"></stop>
            <stop stop-color="#808080" stop-opacity="0.1" offset="100%"></stop>
        </linearGradient>
    </defs>
    <g id="个人中心" stroke="none" stroke-width="1" fill="none" fill-rule="evenodd">
        <g id="个人中心-客户经理-空状态" transform="translate(-664.000000, -320.000000)">
            <g id="编组-7" transform="translate(664.000000, 320.000000)">
                <text id="还没专属客户经理？请联系客服～" font-family="PingFangSC-Medium, 蘋方-簡" font-size="16" font-weight="500" fill="#666666">
                    <tspan x="30" y="264">还没专属客户经理？请联系客服～</tspan>
                </text>
                <g id="undraw_co-working_825n">
                    <path d="M281.016043,130.550802 C269.975936,147.157754 272.770053,170.240642 278.328877,188.524064 C280.200535,194.644385 282.315508,201.112299 281.058824,207.877005 C279.52139,216.149733 273.254011,222.52139 266.828877,226.088235 C255.120321,232.593583 241.529412,232.058824 231.446524,224.700535 C222.73262,218.339572 216.81016,207.486631 207.917112,201.438503 C193.053476,191.352941 173.205882,196.748663 156.066845,205.417112 C143.941176,211.542781 130.628342,219.355615 119.136364,214.454545 C111.050802,211.005348 105.81016,201.716578 103.205882,191.687166 C101.949198,186.84492 101.125668,181.569519 98.4465241,177.834225 C96.842246,175.614973 94.7032086,174.090909 92.486631,172.852941 C72.2433155,161.425134 45.5347594,169.871658 25.9491979,157.02139 C12.7326203,148.358289 4.86898396,130.941176 1.93315508,112.451872 C-1.0026738,93.9625668 0.443850267,74.2967914 2.40641711,54.9438503 C3.79946524,41.1925134 5.79679144,26.4812834 13.4679144,15.4572193 C21.5828877,3.79679144 34.7459893,-1.1684492 46.355615,0.229946524 C57.9652406,1.62834225 68.1737968,8.55347594 77.0588235,16.9144385 C88.1631016,27.342246 98.2807487,40.5668449 112.379679,44.1871658 C121.981283,46.6604278 132.328877,44.3395722 142.419786,43.1176471 C159.291444,41.0989305 176.010695,42.2219251 192.617647,43.5561497 C208.518717,44.8342246 224.52139,46.3342246 239.454545,51.7834225 C250.02139,55.6390374 258.262032,63.3181818 268.168449,68.4251337 C274.625668,71.7540107 281.818182,72.3368984 287.868984,76.7139037 C295.323529,82.1016043 301.911765,91.8716578 299.320856,103.94385 C296.858289,115.438503 286.874332,121.727273 281.016043,130.550802 Z" id="路径" fill="#16ADE9" fill-rule="nonzero" opacity="0.1"></path>
                    <rect id="矩形" fill="#16ADE9" fill-rule="nonzero" opacity="0.1" x="235.775401" y="68.5614973" width="10.9331551" height="16.5508021"></rect>
                    <rect id="矩形" fill="#16ADE9" fill-rule="nonzero" opacity="0.1" x="236.836898" y="70.171123" width="8.80748663" height="13.3315508"></rect>
                    <rect id="矩形" fill="#16ADE9" fill-rule="nonzero" opacity="0.1" x="213.582888" y="57.0641711" width="16.7914439" height="16.5508021"></rect>
                    <rect id="矩形" fill="#16ADE9" fill-rule="nonzero" opacity="0.1" x="215.213904" y="58.6737968" width="13.526738" height="13.3315508"></rect>
                    <rect id="矩形" fill="#16ADE9" fill-rule="nonzero" opacity="0.1" x="17.5454545" y="32.4385027" width="51.3235294" height="1.36631016"></rect>
                    <rect id="矩形" fill="#16ADE9" fill-rule="nonzero" opacity="0.1" x="17.5454545" y="39.1203209" width="51.3235294" height="1.36631016"></rect>
                    <rect id="矩形" fill="#D6D6E3" fill-rule="nonzero" x="104.125668" y="121.024064" width="5.24331551" height="58.5935829"></rect>
                    <path d="M262.524064,127.176471 L262.524064,73.1283422 C262.52554,69.9914049 265.068945,67.4491979 268.205882,67.4491979 L268.205882,67.4491979 C271.338643,67.4550945 273.875537,69.9955765 273.877005,73.1283422 L273.877005,138.540107 C273.877005,141.678088 271.333169,144.221925 268.195187,144.221925 L233.005348,144.221925 C229.867366,144.221925 227.323529,141.678088 227.323529,138.540107 L227.323529,138.540107 C227.323529,135.402125 229.867366,132.858289 233.005348,132.858289 L256.842246,132.858289 C259.980228,132.858289 262.524064,130.314452 262.524064,127.176471 L262.524064,127.176471 Z" id="路径" fill="#AEBEE1" fill-rule="nonzero"></path>
                    <path d="M262.524064,127.176471 L262.524064,73.1283422 C262.52554,69.9914049 265.068945,67.4491979 268.205882,67.4491979 L268.205882,67.4491979 C271.338643,67.4550945 273.875537,69.9955765 273.877005,73.1283422 L273.877005,138.540107 C273.877005,141.678088 271.333169,144.221925 268.195187,144.221925 L233.005348,144.221925 C229.867366,144.221925 227.323529,141.678088 227.323529,138.540107 L227.323529,138.540107 C227.323529,135.402125 229.867366,132.858289 233.005348,132.858289 L256.842246,132.858289 C259.980228,132.858289 262.524064,130.314452 262.524064,127.176471 L262.524064,127.176471 Z" id="路径" fill="#535461" fill-rule="nonzero"></path>
                    <path d="M227.331551,138.235294 C227.493544,135.220042 229.985747,132.858203 233.005348,132.858289 L256.842246,132.858289 C259.980228,132.858289 262.524064,130.314452 262.524064,127.176471 L262.524064,73.1283422 C262.521995,70.0948876 264.903196,67.594803 267.933155,67.4491979 L267.933155,138.235294 L227.331551,138.235294 Z" id="路径" fill="#D6D6E3" fill-rule="nonzero"></path>
                    <path d="M51.7379679,129 L51.7379679,74.9518717 C51.7379766,71.8191036 49.2022781,69.2774247 46.0695187,69.2700535 L46.0695187,69.2700535 C42.9315372,69.2700535 40.3876848,71.8138901 40.3876848,74.9518717 L40.3876848,140.363636 C40.3841494,141.872863 40.9811998,143.321493 42.0471325,144.389934 C43.1130652,145.458374 44.5602877,146.058824 46.0695187,146.058824 L81.2566845,146.058824 C84.394666,146.058824 86.9385027,143.514987 86.9385027,140.377005 L86.9385027,140.377005 C86.9385027,137.239024 84.394666,134.695187 81.2566845,134.695187 L57.4224599,134.695187 C55.9127656,134.695902 54.4648554,134.095762 53.398344,133.027244 C52.3318325,131.958726 51.7344155,130.50969 51.7379679,129 Z" id="路径" fill="#AEBEE1" fill-rule="nonzero"></path>
                    <path d="M51.7379679,129 L51.7379679,74.9518717 C51.7379766,71.8191036 49.2022781,69.2774247 46.0695187,69.2700535 L46.0695187,69.2700535 C42.9315372,69.2700535 40.3876848,71.8138901 40.3876848,74.9518717 L40.3876848,140.363636 C40.3841494,141.872863 40.9811998,143.321493 42.0471325,144.389934 C43.1130652,145.458374 44.5602877,146.058824 46.0695187,146.058824 L81.2566845,146.058824 C84.394666,146.058824 86.9385027,143.514987 86.9385027,140.377005 L86.9385027,140.377005 C86.9385027,137.239024 84.394666,134.695187 81.2566845,134.695187 L57.4224599,134.695187 C55.9127656,134.695902 54.4648554,134.095762 53.398344,133.027244 C52.3318325,131.958726 51.7344155,130.50969 51.7379679,129 Z" id="路径" fill="#535461" fill-rule="nonzero"></path>
                    <path d="M86.9304813,140.058824 C86.7684886,137.043571 84.2762853,134.681733 81.2566845,134.681818 L57.4224599,134.681818 C55.9150848,134.682528 54.4692051,134.084222 53.4030791,133.018598 C52.3369532,131.952973 51.7379677,130.507375 51.7379679,129 L51.7379679,74.9518717 C51.7373917,71.9234388 49.361632,69.427715 46.3368984,69.2780749 L46.3368984,140.058824 L86.9304813,140.058824 Z" id="路径" fill="#D6D6E3" fill-rule="nonzero"></path>
                    <rect id="矩形" fill="#D6D6E3" fill-rule="nonzero" x="207.860963" y="121.024064" width="5.24331551" height="59.959893"></rect>
                    <rect id="矩形" fill="#000000" fill-rule="nonzero" opacity="0.1" x="104.125668" y="121.024064" width="5.24331551" height="4.3315508"></rect>
                    <rect id="矩形" fill="#000000" fill-rule="nonzero" opacity="0.1" x="207.860963" y="121.024064" width="5.24331551" height="4.3315508"></rect>
                    <path d="M122.852941,85.342246 C122.769162,86.2655971 122.663102,87.201426 122.534759,88.1497326 L121.794118,88.1497326 L121.794118,85.342246 L122.852941,85.342246 Z" id="路径" fill="#000000" fill-rule="nonzero" opacity="0.1"></path>
                    <path d="M144.336898,114.508021 C144.352941,115.457219 143.668449,116.235294 142.820856,116.235294 L126.818182,116.235294 L126.818182,114.566845 L140.13369,114.566845 C140.708556,114.566845 141.066845,113.871658 140.778075,113.315508 L128.703209,88.7566845 C128.529065,88.3958806 128.16788,88.162658 127.76738,88.1524064 L121.794118,88.1524064 L121.794118,85.3449198 L129.336898,85.3449198 C129.617129,85.3519948 129.869929,85.5150249 129.991979,85.7673797 L143.834225,112.505348 C144.153192,113.125506 144.325187,113.810741 144.336898,114.508021 Z" id="路径" fill="#535461" fill-rule="nonzero"></path>
                    <path d="M114.946524,110.053476 L114.727273,110.42246 L112.676471,109.053476 L119.02139,60.2647059 L120.65508,60.2647059 C120.65508,60.2647059 120.721925,60.4893048 120.831551,60.9171123 C121.925134,65.1336898 127.296791,89.013369 114.946524,110.053476 Z" id="路径" fill="#535461" fill-rule="nonzero"></path>
                    <path d="M120.828877,60.9171123 L114.946524,110.053476 L114.727273,110.42246 L112.676471,109.053476 L119.02139,60.2647059 L120.65508,60.2647059 C120.65508,60.2647059 120.719251,60.4973262 120.828877,60.9171123 Z" id="路径" fill="#000000" fill-rule="nonzero" opacity="0.1"></path>
                    <polygon id="矩形" fill="#D6D6E3" fill-rule="nonzero" transform="translate(115.755139, 85.116990) rotate(-83.170000) translate(-115.755139, -85.116990) " points="90.4489895 83.1784873 141.061289 83.1784873 141.061289 87.0554926 90.4489895 87.0554926"></polygon>
                    <path d="M97.6283422,114.526738 C97.6268819,114.778646 97.4230308,114.982497 97.171123,114.983957 L96.486631,114.983957 C96.2341158,114.983957 96.0294118,114.779253 96.0294118,114.526738 C96.0272563,114.508978 96.0272563,114.491022 96.0294118,114.473262 C96.0576658,114.244919 96.251201,114.073142 96.4812834,114.072193 L97.1657754,114.072193 C97.3747241,114.074374 97.5559381,114.217149 97.6069519,114.419786 C97.6186735,114.454363 97.6258635,114.490313 97.6283422,114.526738 L97.6283422,114.526738 Z" id="路径" fill="#E3EDF9" fill-rule="nonzero"></path>
                    <path d="M99.6791444,114.526738 C99.677684,114.778646 99.473833,114.982497 99.2219251,114.983957 L98.5374332,114.983957 C98.2849179,114.983957 98.0802139,114.779253 98.0802139,114.526738 C98.0804672,114.484173 98.086769,114.441861 98.0989305,114.40107 C98.1191417,114.326909 98.1588407,114.259513 98.2139037,114.205882 C98.2984087,114.119812 98.4141405,114.07159 98.5347594,114.072187 L99.2192513,114.072187 C99.3994849,114.07136 99.5635919,114.175887 99.6390374,114.339572 C99.6650877,114.398554 99.678739,114.462261 99.6791444,114.526738 L99.6791444,114.526738 Z" id="路径" fill="#E3EDF9" fill-rule="nonzero"></path>
                    <path d="M101.502674,114.526738 C101.501213,114.778646 101.297362,114.982497 101.045455,114.983957 L100.360963,114.983957 C100.108447,114.983957 99.9037433,114.779253 99.9037433,114.526738 C99.902585,114.461239 99.916298,114.396331 99.9438503,114.336898 C100.019502,114.175855 100.18038,114.072063 100.358289,114.069511 L101.042781,114.069511 C101.164261,114.068802 101.280974,114.116743 101.366875,114.202644 C101.452776,114.288545 101.500717,114.405258 101.5,114.526738 L101.502674,114.526738 Z" id="路径" fill="#E3EDF9" fill-rule="nonzero"></path>
                    <path d="M103.55615,114.526738 C103.554689,114.778646 103.350838,114.982497 103.09893,114.983957 L102.414439,114.983957 C102.244052,114.983826 102.087874,114.888962 102.009213,114.73782 C101.930552,114.586678 101.942459,114.404335 102.040107,114.264706 L102.093583,114.205882 C102.178088,114.119812 102.29382,114.07159 102.414439,114.072187 L103.09893,114.072187 C103.224927,114.073722 103.344777,114.126881 103.430481,114.219251 C103.510831,114.30146 103.55592,114.411784 103.55615,114.526738 L103.55615,114.526738 Z" id="路径" fill="#E3EDF9" fill-rule="nonzero"></path>
                    <path d="M97.6149733,114.417112 C97.6242073,114.452912 97.628702,114.489769 97.6283422,114.526738 C97.6268819,114.778646 97.4230308,114.982497 97.171123,114.983957 L96.486631,114.983957 C96.2341158,114.983957 96.0294118,114.779253 96.0294118,114.526738 C96.0272563,114.508978 96.0272563,114.491022 96.0294118,114.473262 L97.6149733,114.417112 Z" id="路径" fill="#000000" fill-rule="nonzero" opacity="0.1"></path>
                    <path d="M99.6417112,114.34492 C99.6657923,114.401609 99.6785104,114.462475 99.6791444,114.524064 C99.677684,114.775972 99.473833,114.979823 99.2219251,114.981283 L98.5374332,114.981283 C98.2849179,114.981283 98.0802139,114.776579 98.0802139,114.524064 C98.0804672,114.481499 98.086769,114.439187 98.0989305,114.398396 L99.6417112,114.34492 Z" id="路径" fill="#000000" fill-rule="nonzero" opacity="0.1"></path>
                    <path d="M101.435829,114.283422 C101.480821,114.355659 101.504886,114.438963 101.505348,114.524064 C101.503887,114.775972 101.300036,114.979823 101.048128,114.981283 L100.363636,114.981283 C100.111121,114.981283 99.9064171,114.776579 99.9064171,114.524064 C99.9052588,114.458566 99.9189718,114.393658 99.9465241,114.334225 L101.435829,114.283422 Z" id="路径" fill="#000000" fill-rule="nonzero" opacity="0.1"></path>
                    <path d="M103.556153,114.526738 C103.554689,114.778646 103.350838,114.982497 103.09893,114.983957 L102.414439,114.983957 C102.244052,114.983826 102.087874,114.888962 102.009213,114.73782 C101.930552,114.586678 101.942459,114.404335 102.040107,114.264706 L103.430481,114.216578 C103.511479,114.299448 103.556619,114.410859 103.556153,114.526738 L103.556153,114.526738 Z" id="路径" fill="#000000" fill-rule="nonzero" opacity="0.1"></path>
                    <path d="M107.657754,116.350267 L94.4358287,116.350267 L94.4358287,115.748663 C94.4355123,115.193437 94.8755717,114.737999 95.4304813,114.719251 L106.034759,114.352941 C106.460453,114.338453 106.873809,114.497307 107.180239,114.793154 C107.48667,115.089001 107.65995,115.49652 107.660428,115.92246 L107.657754,116.350267 Z" id="路径" fill="#D6D6E3" fill-rule="nonzero"></path>
                    <path d="M172.890374,114.508021 C172.874332,115.457219 173.558824,116.235294 174.406417,116.235294 L190.417112,116.235294 L190.417112,114.566845 L177.085561,114.566845 C176.510695,114.566845 176.152406,113.871658 176.441176,113.315508 L188.516043,88.7566845 C188.690186,88.3958806 189.051372,88.162658 189.451872,88.1524064 L195.427807,88.1524064 L195.427807,85.3449198 L187.890374,85.3449198 C187.614631,85.3554017 187.367008,85.5167161 187.245989,85.7647059 L173.403743,112.502674 C173.080665,113.122743 172.904987,113.808985 172.890374,114.508021 L172.890374,114.508021 Z" id="路径" fill="#535461" fill-rule="nonzero"></path>
                    <path d="M202.283422,110.053476 L202.502674,110.42246 L204.553476,109.053476 L198.208556,60.2647059 L196.574866,60.2647059 C196.574866,60.2647059 196.508021,60.4893048 196.398396,60.9171123 C195.302139,65.1336898 189.919786,89.013369 202.283422,110.053476 Z" id="路径" fill="#535461" fill-rule="nonzero"></path>
                    <path d="M196.398396,60.9171123 L202.280749,110.053476 L202.5,110.42246 L204.550802,109.053476 L198.208556,60.2647059 L196.574866,60.2647059 C196.574866,60.2647059 196.508021,60.4973262 196.398396,60.9171123 Z" id="路径" fill="#000000" fill-rule="nonzero" opacity="0.1"></path>
                    <polygon id="矩形" fill="#D6D6E3" fill-rule="nonzero" transform="translate(201.477052, 85.112043) rotate(-6.830000) translate(-201.477052, -85.112043) " points="199.538549 59.8058928 203.415555 59.8058928 203.415555 110.418192 199.538549 110.418192"></polygon>
                    <path d="M219.59893,114.526738 C219.600391,114.778646 219.804242,114.982497 220.05615,114.983957 L220.740642,114.983957 C220.993157,114.983957 221.197861,114.779253 221.197861,114.526738 C221.200016,114.508978 221.200016,114.491022 221.197861,114.473262 C221.169607,114.244919 220.976072,114.073142 220.745989,114.072193 L220.061497,114.072193 C219.852549,114.074374 219.671335,114.217149 219.620321,114.419786 C219.608599,114.454363 219.601409,114.490313 219.59893,114.526738 L219.59893,114.526738 Z" id="路径" fill="#E3EDF9" fill-rule="nonzero"></path>
                    <path d="M217.548128,114.526738 C217.549589,114.778646 217.75344,114.982497 218.005348,114.983957 L218.68984,114.983957 C218.811102,114.983957 218.927397,114.935786 219.013142,114.850041 C219.098888,114.764296 219.147059,114.648 219.147059,114.526738 C219.146806,114.484173 219.140504,114.441861 219.128342,114.40107 C219.108131,114.326909 219.068432,114.259513 219.013369,114.205882 C218.928864,114.119812 218.813132,114.07159 218.692513,114.072187 L217.994652,114.072187 C217.814419,114.07136 217.650312,114.175887 217.574866,114.339572 C217.553384,114.39951 217.544287,114.463183 217.548128,114.526738 L217.548128,114.526738 Z" id="路径" fill="#E3EDF9" fill-rule="nonzero"></path>
                    <path d="M215.724599,114.526738 C215.726059,114.778646 215.92991,114.982497 216.181818,114.983957 L216.86631,114.983957 C217.118825,114.983957 217.323529,114.779253 217.323529,114.526738 C217.324688,114.461239 217.310975,114.396331 217.283422,114.336898 C217.20777,114.175855 217.046893,114.072063 216.868984,114.069511 L216.184492,114.069511 C216.063012,114.068802 215.946299,114.116743 215.860398,114.202644 C215.774497,114.288545 215.726556,114.405258 215.727273,114.526738 L215.724599,114.526738 Z" id="路径" fill="#E3EDF9" fill-rule="nonzero"></path>
                    <path d="M213.671123,114.526738 C213.672583,114.778646 213.876434,114.982497 214.128342,114.983957 L214.812834,114.983957 C214.98322,114.983826 215.139399,114.888962 215.21806,114.73782 C215.296721,114.586678 215.284814,114.404335 215.187166,114.264706 L215.13369,114.205882 C215.049185,114.119812 214.933453,114.07159 214.812834,114.072187 L214.128342,114.072187 C214.002346,114.073722 213.882495,114.126881 213.796791,114.219251 C213.716442,114.30146 213.671353,114.411784 213.671123,114.526738 L213.671123,114.526738 Z" id="路径" fill="#E3EDF9" fill-rule="nonzero"></path>
                    <path d="M219.612299,114.417112 C219.603065,114.452912 219.598571,114.489769 219.59893,114.526738 C219.600391,114.778646 219.804242,114.982497 220.05615,114.983957 L220.740642,114.983957 C220.993157,114.983957 221.197861,114.779253 221.197861,114.526738 C221.200016,114.508978 221.200016,114.491022 221.197861,114.473262 L219.612299,114.417112 Z" id="路径" fill="#000000" fill-rule="nonzero" opacity="0.1"></path>
                    <path d="M217.585561,114.34492 C217.56148,114.401609 217.548762,114.462475 217.548128,114.524064 C217.549589,114.775972 217.75344,114.979823 218.005348,114.981283 L218.68984,114.981283 C218.942355,114.981283 219.147059,114.776579 219.147059,114.524064 C219.146806,114.481499 219.140504,114.439187 219.128342,114.398396 L217.585561,114.34492 Z" id="路径" fill="#000000" fill-rule="nonzero" opacity="0.1"></path>
                    <path d="M215.791444,114.283422 C215.746452,114.355659 215.722387,114.438963 215.721925,114.524064 C215.723386,114.775972 215.927237,114.979823 216.179144,114.981283 L216.863636,114.981283 C217.116152,114.981283 217.320856,114.776579 217.320856,114.524064 C217.322014,114.458566 217.308301,114.393658 217.280749,114.334225 L215.791444,114.283422 Z" id="路径" fill="#000000" fill-rule="nonzero" opacity="0.1"></path>
                    <path d="M213.671119,114.526738 C213.672583,114.778646 213.876434,114.982497 214.128342,114.983957 L214.812834,114.983957 C214.98322,114.983826 215.139399,114.888962 215.21806,114.73782 C215.296721,114.586678 215.284814,114.404335 215.187166,114.264706 L213.796791,114.216578 C213.715794,114.299448 213.670653,114.410859 213.671119,114.526738 L213.671119,114.526738 Z" id="路径" fill="#000000" fill-rule="nonzero" opacity="0.1"></path>
                    <path d="M209.569519,116.350267 L222.791444,116.350267 L222.791444,115.748663 C222.79176,115.193437 222.351701,114.737999 221.796791,114.719251 L211.192513,114.352941 C210.766819,114.338453 210.353464,114.497307 210.047033,114.793154 C209.740603,115.089001 209.567323,115.49652 209.566845,115.92246 L209.569519,116.350267 Z" id="路径" fill="#D6D6E3" fill-rule="nonzero"></path>
                    <path d="M264.911765,123.59893 C271.080214,113.136364 268.84492,92.0320856 269.093583,91.6283422 C269.315508,91.2727273 268.465241,81.3342246 262.796791,78.9064171 C261.772727,76.8770053 260.764706,74.5909091 260.764706,74.5909091 C260.665522,74.6840882 260.556088,74.7657152 260.438503,74.8342246 C260.393939,74.7130125 260.350267,74.5900178 260.307487,74.4652406 C260.235294,74.2540107 260.168449,74.0374332 260.101604,73.8208556 C260.26031,73.8715251 260.421921,73.9125976 260.585561,73.9438503 C261.017802,74.0493806 261.472813,74.0089561 261.879679,73.828877 C262.018356,73.7544455 262.143904,73.6578005 262.251337,73.5427807 C262.697861,73.2459893 262.94385,72.7112299 263.152406,72.2058824 L264.802139,68.2540107 C265.545455,66.4705882 266.294118,64.6764706 266.68984,62.7860963 C267.27869,59.9413378 267.050657,56.9880247 266.032086,54.2673797 C265.641711,53.2299465 265.101604,52.1925134 264.184492,51.5721925 C262.347594,50.3262032 259.791444,51.1871658 257.692513,50.4572193 C257.002674,50.2165775 256.379679,49.8101604 255.68984,49.5641711 C254.200535,49.0294118 252.518717,49.315508 251.085561,49.9812834 C249.652406,50.6470588 248.491979,51.7058824 247.237968,52.6550802 C246.620321,53.1283422 245.63369,53.6176471 244.906417,54.2593583 C244.200535,54.8101604 243.657754,55.4759358 243.762032,56.3529412 C243.879679,57.355615 244.935829,57.9572193 245.919786,58.1925134 C246.082888,58.2299465 246.251337,58.2593583 246.417112,58.2887701 C244.041576,60.6953299 243.103067,64.1719132 243.944839,67.4469897 C244.78661,70.7220661 247.285187,73.3152379 250.526738,74.2780749 C251.028499,75.2202527 251.462746,76.1968605 251.826203,77.2005348 C251.874332,77.3377897 251.921569,77.4759358 251.967914,77.6149733 C250.347594,78.0748663 249.080214,78.4572193 248.826203,78.6684492 C248.058824,79.3048128 249.665775,84.8770053 249.665775,84.8770053 C249.256684,85.3957219 248.839572,85.986631 248.417112,86.6203209 C245.213399,91.4864475 243.184952,97.0308081 242.491979,102.815508 C242.224599,104.930481 241.877005,107.093583 241.435829,109.149733 L222.272727,105.307487 L222.23262,105.780749 L221.775401,105.668449 L221.775401,105.668449 L220.336898,105.312834 L220.280749,105.636364 L220.061497,105.532086 C216.497326,103.860963 210.491979,101.727273 206.425134,103.927807 C202.13369,106.237968 211.395722,109.307487 217.339572,110.941176 C215.368984,111.037433 213.483957,111.510695 211.991979,112.617647 C207.681818,115.847594 219.871658,117.529412 225.628342,118.125668 L225.860963,118.149733 L225.860963,118.272727 L227.855615,118.457219 L228.323529,118.5 L228.368984,119.21123 C228.368984,119.21123 231.224599,119.679144 235.040107,120.245989 C230.684492,121.334225 225.302139,122.088235 221.564171,122.529412 C217.601604,122.994652 214.227273,125.754011 213.163102,129.601604 C212.819118,130.704913 212.785813,131.881675 213.066845,133.002674 C214.179144,136.887701 212.820856,165.467914 212.513369,171.622995 L205.467914,175.679144 C205.467914,175.679144 194.505348,177.016043 201.807487,179.585561 C202.465421,179.810208 203.138162,179.988891 203.820856,180.120321 C202.858289,180.740642 202.941176,181.550802 205.778075,182.545455 C213.085561,185.106952 230.072193,182.433155 230.072193,182.433155 C230.072193,182.433155 229.700535,179.42246 229.096257,176.919786 L229.283422,176.935829 C229.283422,176.935829 227.529412,170.409091 230.18984,167.117647 C232.850267,163.826203 229.743316,138.775401 229.743316,138.775401 C229.743316,138.775401 234.40107,136.847594 248.323529,136.721925 C259.553476,139.604278 265.026738,129.286096 264.949198,123.951872 C264.925134,123.831551 264.919786,123.708556 264.911765,123.59893 Z" id="路径" fill="url(#linearGradient-1)" fill-rule="nonzero"></path>
                    <path d="M223.409091,107.385027 L222.219251,112.197861 C222.219251,112.197861 221.149733,111.957219 219.545455,111.545455 C214.112299,110.139037 202.652406,106.762032 207.245989,104.283422 C211.205882,102.144385 217.037433,104.224599 220.5,105.847594 C221.76738,106.44385 222.719251,106.97861 223.144385,107.229947 C223.323529,107.331551 223.409091,107.385027 223.409091,107.385027 Z" id="路径" fill="#F8B9BF" fill-rule="nonzero"></path>
                    <path d="M223.074866,108.743316 L222.219251,112.219251 C222.219251,112.219251 221.149733,111.97861 219.545455,111.566845 L220.510695,105.868984 C221.778075,106.465241 222.729947,107 223.15508,107.251337 L223.074866,108.743316 Z" id="路径" fill="#000000" fill-rule="nonzero" opacity="0.1"></path>
                    <polygon id="路径" fill="#D9DFE8" fill-rule="nonzero" points="223.07754 112.548128 219.756684 111.727273 220.78877 105.641711 223.44385 106.296791"></polygon>
                    <polygon id="路径" fill="#000000" fill-rule="nonzero" opacity="0.1" points="223.07754 112.548128 221.644385 112.195187 222.184492 105.986631 223.44385 106.296791"></polygon>
                    <path d="M255.120321,87.342246 C255.120321,87.342246 248.743316,83.657754 245.909091,94.2272727 C243.074866,104.796791 242.807487,109.665775 242.807487,109.665775 L222.668449,105.639037 L222.029412,112.994652 C222.029412,112.994652 243.561497,119.946524 246.270053,119.441176 C248.97861,118.935829 257.76738,104.200535 257.76738,104.200535 C257.76738,104.200535 265.756684,92.7807487 255.120321,87.342246 Z" id="路径" fill="#16ADE9" fill-rule="nonzero"></path>
                    <g id="编组" opacity="0.1" transform="translate(206.149733, 86.898396)" fill="#000000" fill-rule="nonzero">
                        <path d="M17.2593583,20.486631 L16.0695187,25.2994652 C16.0695187,25.2994652 15,25.0588235 13.3957219,24.6470588 C7.96256684,23.2406417 -3.4973262,19.8636364 1.09625668,17.3850267 C5.05614973,15.2459893 10.8877005,17.3262032 14.3502674,18.9491979 C15.6176471,19.5454545 16.5695187,20.0802139 16.9946524,20.3315508 C17.1737968,20.4331551 17.2593583,20.486631 17.2593583,20.486631 Z" id="路径"></path>
                        <path d="M16.9251337,21.8449198 L16.0695187,25.3208556 C16.0695187,25.3208556 15,25.0802139 13.3957219,24.6684492 L14.3609626,18.9705882 C15.6283422,19.5668449 16.5802139,20.1016043 17.0053476,20.3529412 L16.9251337,21.8449198 Z" id="路径"></path>
                        <polygon id="路径" points="16.9278075 25.6497326 13.6069519 24.828877 14.6390374 18.7433155 17.2941176 19.3983957"></polygon>
                        <polygon id="路径" points="16.9278075 25.6497326 15.4946524 25.2967914 16.0347594 19.0882353 17.2941176 19.3983957"></polygon>
                        <path d="M48.9705882,0.711229947 C48.9705882,0.711229947 42.5935829,-2.97326203 39.7593583,7.59625668 C36.9251337,18.1657754 36.657754,23.0347594 36.657754,23.0347594 L16.5187166,19.0080214 L15.8796791,26.3636364 C15.8796791,26.3636364 37.4117647,33.315508 40.1203209,32.8101604 C42.828877,32.3048128 51.6176471,17.5695187 51.6176471,17.5695187 C51.6176471,17.5695187 59.6069519,6.14973262 48.9705882,0.711229947 Z" id="路径"></path>
                    </g>
                    <path d="M214.558824,169.240642 L206.336898,173.975936 C206.336898,173.975936 195.684492,175.280749 202.780749,177.76738 C209.877005,180.254011 226.374332,177.657754 226.374332,177.657754 C226.374332,177.657754 225.457219,170.245989 224.179144,169.21123 C222.90107,168.176471 214.558824,169.240642 214.558824,169.240642 Z" id="路径" fill="#68739D" fill-rule="nonzero"></path>
                    <path d="M246.604278,116.112299 C246.604278,116.112299 242.513369,118.251337 235.245989,120.09893 C230.986631,121.168449 225.65508,121.927807 221.970588,122.360963 C218.11315,122.78075 214.890445,125.487104 213.81016,129.213904 C213.473695,130.289276 213.441306,131.436772 213.716578,132.529412 C214.927807,136.762032 213.120321,171.168449 213.120321,171.168449 L225.606952,172.323529 C225.606952,172.323529 223.903743,165.983957 226.489305,162.78877 C229.074866,159.593583 226.05615,135.272727 226.05615,135.272727 C226.05615,135.272727 230.580214,133.40107 244.09893,133.278075 C256.622995,136.486631 261.783422,122.778075 259.850267,118.935829 C257.917112,115.093583 246.604278,116.112299 246.604278,116.112299 Z" id="路径" fill="#6394E2" fill-rule="nonzero"></path>
                    <g id="编组" opacity="0.1" transform="translate(200.267380, 115.775401)" fill="#000000" fill-rule="nonzero">
                        <path d="M14.2914439,53.4652406 L6.06951872,58.2005348 C6.06951872,58.2005348 -4.5828877,59.5053476 2.51336898,61.9919786 C9.60962567,64.4786096 26.1069519,61.8823529 26.1069519,61.8823529 C26.1069519,61.8823529 25.1898396,54.4705882 23.9117647,53.4358289 C22.6336898,52.4010695 14.2914439,53.4652406 14.2914439,53.4652406 Z" id="路径"></path>
                        <path d="M46.3368984,0.336898396 C46.3368984,0.336898396 42.2459893,2.47593583 34.9786096,4.32352941 C30.7192513,5.39304813 25.3877005,6.15240642 21.7032086,6.5855615 C17.8457705,7.00534925 14.6230658,9.71170323 13.5427807,13.4385027 C13.206315,14.5138754 13.173926,15.6613712 13.4491979,16.7540107 C14.6604278,20.986631 12.8529412,55.3930481 12.8529412,55.3930481 L25.3395722,56.5481283 C25.3395722,56.5481283 23.6363636,50.2085561 26.2219251,47.013369 C28.8074866,43.8181818 25.7887701,19.4973262 25.7887701,19.4973262 C25.7887701,19.4973262 30.3128342,17.6256684 43.8315508,17.5026738 C56.355615,20.7112299 61.5160428,7.0026738 59.5828877,3.16042781 C57.6497326,-0.681818182 46.3368984,0.336898396 46.3368984,0.336898396 Z" id="路径"></path>
                    </g>
                    <path d="M218.414439,172.114973 L210.192513,176.850267 C210.192513,176.850267 199.545455,178.144385 206.636364,180.641711 C213.727273,183.139037 230.229947,180.532086 230.229947,180.532086 C230.229947,180.532086 229.312834,173.120321 228.034759,172.085561 C226.756684,171.050802 218.414439,172.114973 218.414439,172.114973 Z" id="路径" fill="#68739D" fill-rule="nonzero"></path>
                    <path d="M247.941176,136.152406 C234.42246,136.275401 229.898396,138.147059 229.898396,138.147059 C229.898396,138.147059 232.917112,162.47861 230.331551,165.663102 C227.745989,168.847594 229.449198,175.197861 229.449198,175.197861 L216.962567,174.042781 C216.962567,174.042781 216.983957,173.636364 217.018717,172.909091 C217.318182,166.930481 218.636364,139.176471 217.553476,135.403743 C217.280216,134.314488 217.312597,133.170976 217.647059,132.09893 C218.72215,128.367083 221.944401,125.653886 225.804813,125.229947 C229.486631,124.799465 234.818182,124.050802 239.07754,122.967914 L239.286096,122.914439 C246.425134,121.080214 250.435829,118.981283 250.435829,118.981283 C250.435829,118.981283 261.748663,117.965241 263.681818,121.807487 C263.954459,122.416761 264.089566,123.078604 264.07754,123.745989 C264.173797,128.930481 258.852941,138.951872 247.941176,136.152406 Z" id="路径" fill="#6394E2" fill-rule="nonzero"></path>
                    <path d="M229.109626,113.382353 L228.652406,118.328877 C228.652406,118.328877 227.553476,118.251337 225.919786,118.080214 C220.339572,117.5 208.502674,115.868984 212.687166,112.73262 C216.286096,110.037433 222.360963,111.213904 226.026738,112.304813 C227.363636,112.705882 228.390374,113.093583 228.847594,113.278075 C229.016043,113.342246 229.109626,113.382353 229.109626,113.382353 Z" id="路径" fill="#F8B9BF" fill-rule="nonzero"></path>
                    <path d="M262.320856,81.0427807 C262.320856,81.0427807 260.647059,82.3529412 258.601604,83.7914439 C256.358289,84.2994652 253.754011,84.7192513 251.877005,84.9919786 C252.548128,82.8529412 252.144385,80.4465241 251.387701,78.3368984 C250.564551,76.1324649 249.434909,74.0550049 248.032086,72.1657754 L259.347594,68.6336898 C258.459893,70.8823529 258.860963,73.4465241 259.614973,75.6764706 C260.280679,77.5748972 261.190255,79.3787702 262.320856,81.0427807 L262.320856,81.0427807 Z" id="路径" fill="#F8B9BF" fill-rule="nonzero"></path>
                    <path d="M228.981283,114.775401 L228.652406,118.328877 C228.652406,118.328877 227.553476,118.251337 225.919786,118.080214 L226.026738,112.302139 C227.363636,112.703209 228.390374,113.090909 228.847594,113.275401 L228.981283,114.775401 Z" id="路径" fill="#000000" fill-rule="nonzero" opacity="0.1"></path>
                    <polygon id="路径" fill="#D9DFE8" fill-rule="nonzero" points="229.550802 118.537433 226.144385 118.221925 226.256684 112.050802 228.981283 112.302139"></polygon>
                    <path d="M262.320856,81.0427807 C262.320856,81.0427807 260.647059,82.3529412 258.601604,83.7914439 C256.358289,84.2994652 253.754011,84.7192513 251.877005,84.9919786 C252.548128,82.8529412 252.144385,80.4465241 251.387701,78.3368984 C254.152406,77.5347594 258.106952,76.4973262 259.617647,75.6631016 C260.281453,77.5660336 261.190158,79.3744552 262.320856,81.0427807 L262.320856,81.0427807 Z" id="路径" fill="#000000" fill-rule="nonzero" opacity="0.1"></path>
                    <path d="M260.058824,75.7967914 C260.058824,75.7967914 261.951872,80.0935829 263.144385,82.0347594 C264.336898,83.9759358 249.28877,85.7780749 249.28877,85.7780749 C249.28877,85.7780749 247.727273,80.368984 248.473262,79.7486631 C249.219251,79.1283422 258.799465,77.0534759 260.058824,75.7967914 Z" id="路径" fill="#D9DFE8" fill-rule="nonzero"></path>
                    <path d="M264.09893,123.748663 C263.465878,124.865291 262.677233,125.886208 261.756684,126.780749 C255.109626,133.096257 244.213904,126.513369 239.296791,122.914439 C246.435829,121.080214 250.446524,118.981283 250.446524,118.981283 C250.446524,118.981283 261.759358,117.965241 263.692513,121.807487 C263.969217,122.416743 264.107992,123.079577 264.09893,123.748663 Z" id="路径" fill="#000000" fill-rule="nonzero" opacity="0.1"></path>
                    <path d="M261.799465,126.328877 C254.243316,133.505348 241.21123,124.002674 237.697861,121.203209 C237.128342,120.748663 236.81016,120.467914 236.81016,120.467914 C238.197861,119.168449 239.417112,116.414439 240.382353,113.045455 C241.281964,109.822181 241.931838,106.534372 242.326203,103.21123 C242.998876,97.5927557 244.968747,92.2076474 248.080214,87.4812834 C248.489305,86.8663102 248.882353,86.2914439 249.291444,85.7887701 C252.144385,82.1604278 256.938503,79.855615 256.938503,79.855615 C267.05615,76.8983957 268.417112,91.9064171 268.147059,92.3395722 C267.877005,92.7727273 270.582888,117.983957 261.799465,126.328877 Z" id="路径" fill="#16ADE9" fill-rule="nonzero"></path>
                    <path d="M262.778075,105.812834 C262.778075,105.812834 256.272727,121.695187 253.671123,122.601604 C252.181818,123.117647 244.227273,122.139037 237.697861,121.205882 C237.128342,120.751337 236.81016,120.470588 236.81016,120.470588 C238.197861,119.171123 239.417112,116.417112 240.382353,113.048128 L248.791444,113.449198 C248.791444,113.449198 248.323529,108.59893 249.558824,97.7219251 C250.794118,86.8449198 257.641711,89.540107 257.641711,89.540107 C268.970588,93.3342246 262.778075,105.812834 262.778075,105.812834 Z" id="路径" fill="#000000" fill-rule="nonzero" opacity="0.1"></path>
                    <polygon id="路径" fill="#000000" fill-rule="nonzero" opacity="0.1" points="229.550802 118.537433 228.080214 118.40107 227.68984 112.184492 228.981283 112.302139"></polygon>
                    <path d="M257.47861,88.8395722 C257.47861,88.8395722 250.631016,86.1470588 249.395722,97.0213904 C248.160428,107.895722 248.628342,112.748663 248.628342,112.748663 L228.112299,111.76738 L228.574866,119.136364 C228.574866,119.136364 250.903743,122.802139 253.505348,121.898396 C256.106952,120.994652 262.612299,105.109626 262.612299,105.109626 C262.612299,105.109626 268.796791,92.631016 257.47861,88.8395722 Z" id="路径" fill="#16ADE9" fill-rule="nonzero"></path>
                    <path d="M257.938503,72.7379679 C257.639037,71.1122995 259.336898,71.1336898 259.946524,69.6042781 L248.631016,73.1363636 C249.416453,74.190854 250.117385,75.3057283 250.727273,76.4705882 C251.314322,76.6448662 251.917015,76.7612853 252.526738,76.8181818 C255.224599,77.0748663 256.066845,74.4197861 257.938503,72.7379679 Z" id="路径" fill="#000000" fill-rule="nonzero" opacity="0.1"></path>
                    <circle id="椭圆形" fill="#F8B9BF" fill-rule="nonzero" transform="translate(252.779750, 66.534806) rotate(-84.720000) translate(-252.779750, -66.534806) " cx="252.77975" cy="66.5348062" r="9.34759358"></circle>
                    <path d="M243.55615,58.0909091 C243.671123,59.0641711 244.697861,59.657754 245.652406,59.8770053 C246.606952,60.0962567 247.641711,60.1069519 248.47861,60.6176471 C249.815508,61.4411765 250.176471,63.2700535 250.008021,64.842246 C249.914439,65.7299465 249.780749,66.8181818 250.508021,67.3342246 C250.736424,67.4741145 250.991338,67.5651552 251.256684,67.6016043 C252.015283,67.755193 252.794057,67.7822964 253.561497,67.6818182 C254.010695,67.6229947 254.473262,67.5213904 254.898396,67.6470588 C255.59893,67.8502674 256.013369,68.5882353 256.149733,69.302139 C256.286096,70.0160428 256.21123,70.7593583 256.320856,71.4786096 C256.633561,73.3221365 258.049419,74.7826389 259.882353,75.1524064 C260.302175,75.2545154 260.743972,75.2150357 261.139037,75.040107 C261.647059,74.7727273 261.906417,74.2032086 262.125668,73.671123 L263.729947,69.8315508 C264.451872,68.1016043 265.179144,66.355615 265.564171,64.5213904 C266.13589,61.7587496 265.914346,58.8907278 264.925134,56.2486631 C264.545455,55.2433155 264.02139,54.2352941 263.131016,53.631016 C261.347594,52.4197861 258.852941,53.2566845 256.826203,52.5614973 C256.15508,52.328877 255.550802,51.9331551 254.882353,51.6951872 C253.435829,51.1791444 251.802139,51.4518717 250.409091,52.1016043 C249.016043,52.7513369 247.890374,53.7754011 246.665775,54.7085561 C245.604278,55.5347594 243.355615,56.4090909 243.55615,58.0909091 Z" id="路径" fill="#000000" fill-rule="nonzero" opacity="0.1"></path>
                    <path d="M243.802139,57.8850267 C243.917112,58.8582888 244.94385,59.4518717 245.898396,59.671123 C246.852941,59.8903743 247.887701,59.9010695 248.724599,60.4117647 C250.061497,61.2352941 250.42246,63.0641711 250.254011,64.6363636 C250.160428,65.5240642 250.026738,66.6122995 250.754011,67.1283422 C250.982414,67.2682322 251.237328,67.3592728 251.502674,67.3957219 C252.261272,67.5493106 253.040046,67.5764141 253.807487,67.4759358 C254.256684,67.4171123 254.719251,67.315508 255.144385,67.4411765 C255.84492,67.644385 256.259358,68.3823529 256.395722,69.0962567 C256.532086,69.8101604 256.457219,70.5534759 256.566845,71.2727273 C256.87955,73.1162541 258.295408,74.5767565 260.128342,74.9465241 C260.548164,75.0486331 260.989961,75.0091533 261.385027,74.8342246 C261.893048,74.5668449 262.152406,73.9973262 262.371658,73.4652406 L263.975936,69.6256684 C264.697861,67.8957219 265.425134,66.1497326 265.81016,64.315508 C266.381879,61.5528672 266.160335,58.6848455 265.171123,56.0427807 C264.791444,55.0374332 264.26738,54.0294118 263.377005,53.4251337 C261.593583,52.2139037 259.09893,53.0508021 257.072193,52.355615 C256.40107,52.1229947 255.796791,51.7272727 255.128342,51.4893048 C253.681818,50.973262 252.048128,51.2459893 250.65508,51.8957219 C249.262032,52.5454545 248.136364,53.5695187 246.911765,54.5026738 C245.852941,55.328877 243.604278,56.2032086 243.802139,57.8850267 Z" id="路径" fill="#B96B6B" fill-rule="nonzero"></path>
                    <path d="M251.545455,94.8128342 C251.545455,94.8128342 247.975936,108.679144 244.42246,109.962567 C240.868984,111.245989 242.438503,111.609626 242.438503,111.609626" id="路径" fill="#000000" fill-rule="nonzero" opacity="0.1"></path>
                    <rect id="矩形" fill="#D6D6E3" fill-rule="nonzero" x="247.834225" y="145.609626" width="3.87967914" height="25.5"></rect>
                    <rect id="矩形" fill="#000000" fill-rule="nonzero" opacity="0.1" x="247.834225" y="145.609626" width="3.87967914" height="1.89037433"></rect>
                    <path d="M240.072193,145.475936 L240.072193,146.010695 C240.072193,146.34328 240.204311,146.662242 240.439484,146.897415 C240.674656,147.132587 240.993619,147.264706 241.326203,147.264706 L258.219251,147.264706 C258.551836,147.264706 258.870798,147.132587 259.105971,146.897415 C259.341143,146.662242 259.473262,146.34328 259.473262,146.010695 L259.473262,145.475936 C259.473262,144.783365 258.911822,144.221925 258.219251,144.221925 L241.326203,144.221925 C240.993619,144.221925 240.674656,144.354044 240.439484,144.589216 C240.204311,144.824389 240.072193,145.143352 240.072193,145.475936 L240.072193,145.475936 Z" id="路径" fill="#D6D6E3" fill-rule="nonzero"></path>
                    <path d="M240.360963,144.679144 L259.187166,144.679144 C258.949531,144.389156 258.594169,144.221292 258.219251,144.221923 L241.326203,144.221923 C240.952221,144.222094 240.598005,144.38988 240.360963,144.679144 L240.360963,144.679144 Z" id="路径" fill="#000000" fill-rule="nonzero" opacity="0.1"></path>
                    <rect id="矩形" fill="#D6D6E3" fill-rule="nonzero" x="233.839572" y="169.721925" width="31.8743316" height="3.04812834" rx="1.52406417"></rect>
                    <circle id="椭圆形" fill="#535461" fill-rule="nonzero" cx="263.911765" cy="174.71123" r="1.94117647"></circle>
                    <circle id="椭圆形" fill="#535461" fill-rule="nonzero" cx="235.639037" cy="174.71123" r="1.94117647"></circle>
                    <circle id="椭圆形" fill="#535461" fill-rule="nonzero" cx="249.775401" cy="174.71123" r="1.94117647"></circle>
                    <rect id="矩形" fill="#D6D6E3" fill-rule="nonzero" x="245.652406" y="114.28877" width="30.4893048" height="4.71122995" rx="2.35561497"></rect>
                    <path d="M251.713904,169.721925 C251.713904,169.721925 250.18984,171.227273 247.834225,169.721925" id="路径" fill="#000000" fill-rule="nonzero" opacity="0.1"></path>
                    <path d="M276.141711,116.692513 L276.141711,117.064171 C276.141711,118.134777 275.273814,119.002674 274.203209,119.002674 L247.590909,119.002674 C246.520304,119.002674 245.652406,118.134777 245.652406,117.064171 L245.652406,116.692513 L276.141711,116.692513 Z" id="路径" fill="#000000" fill-rule="nonzero" opacity="0.1"></path>
                    <rect id="矩形" fill="#D6D6E3" fill-rule="nonzero" x="220.171123" y="121.024064" width="5.24331551" height="66.8074866"></rect>
                    <rect id="矩形" fill="#000000" fill-rule="nonzero" opacity="0.1" x="220.171123" y="121.024064" width="5.24331551" height="4.3315508"></rect>
                    <rect id="矩形" fill="#D6D6E3" fill-rule="nonzero" x="62.5508021" y="147.433155" width="3.87967914" height="25.5"></rect>
                    <rect id="矩形" fill="#000000" fill-rule="nonzero" opacity="0.1" x="62.5508021" y="147.433155" width="3.87967914" height="1.89037433"></rect>
                    <path d="M74.1898396,147.302139 L74.1898396,147.836898 C74.1898396,148.529469 73.6283999,149.090909 72.9358289,149.090909 L56.0427807,149.090909 C55.7101964,149.090909 55.3912339,148.95879 55.1560613,148.723618 C54.9208887,148.488445 54.7887701,148.169483 54.7887701,147.836898 L54.7887701,147.302139 C54.7946414,146.613748 55.3543651,146.058824 56.0427807,146.058824 L72.9358289,146.058824 C73.2684132,146.058824 73.5873757,146.190942 73.8225483,146.426115 C74.057721,146.661287 74.1898396,146.98025 74.1898396,147.312834 L74.1898396,147.302139 Z" id="路径" fill="#D6D6E3" fill-rule="nonzero"></path>
                    <path d="M73.9037433,146.502674 L55.0748663,146.502674 C55.3150872,146.217675 55.6700679,146.054894 56.0427807,146.058824 L72.9358289,146.058824 C73.3085417,146.054894 73.6635225,146.217675 73.9037433,146.502674 Z" id="路径" fill="#000000" fill-rule="nonzero" opacity="0.1"></path>
                    <rect id="矩形" fill="#D6D6E3" fill-rule="nonzero" x="48.5534759" y="171.545455" width="31.8743316" height="3.04812834" rx="1.52406417"></rect>
                    <circle id="椭圆形" fill="#535461" fill-rule="nonzero" cx="50.355615" cy="176.534759" r="1.94117647"></circle>
                    <circle id="椭圆形" fill="#535461" fill-rule="nonzero" cx="78.6256684" cy="176.534759" r="1.94117647"></circle>
                    <circle id="椭圆形" fill="#535461" fill-rule="nonzero" cx="64.4893048" cy="176.534759" r="1.94117647"></circle>
                    <path d="M62.5508021,171.545455 C62.5508021,171.545455 64.0748663,173.050802 66.4304813,171.545455" id="路径" fill="#000000" fill-rule="nonzero" opacity="0.1"></path>
                    <path d="M161.526738,94.7807487 C161.526738,94.7807487 157.173797,86.868984 158.764706,79.9919786 C159.450066,77.1117738 159.182675,74.0869656 158.002674,71.3716578 C157.436114,70.0873977 156.753232,68.8576722 155.962567,67.697861" id="路径" stroke="#535461" stroke-width="2"></path>
                    <path d="M156.927807,63.355615 C157.15508,64.3930481 155.938503,67.8128342 155.938503,67.8128342 C155.938503,67.8128342 153.40107,65.2192513 153.171123,64.1818182 C152.96135,63.4905528 153.156804,62.7400382 153.67711,62.2389051 C154.197415,61.7377719 154.954736,61.5706204 155.637642,61.8061875 C156.320549,62.0417545 156.813753,62.6402723 156.914439,63.355615 L156.927807,63.355615 Z" id="路径" fill="#16ADE9" fill-rule="nonzero"></path>
                    <path d="M161.294118,68.4171123 C160.92246,69.4117647 158.042781,71.6256684 158.042781,71.6256684 C158.042781,71.6256684 157.320856,68.0695187 157.695187,67.0802139 C157.913546,66.4093244 158.481847,65.9119447 159.175755,65.7844141 C159.869664,65.6568836 160.577678,65.9196949 161.020309,66.4691038 C161.462941,67.0185128 161.569066,67.7662362 161.296791,68.4171123 L161.294118,68.4171123 Z" id="路径" fill="#16ADE9" fill-rule="nonzero"></path>
                    <path d="M163.315508,78.2620321 C162.491979,78.9331551 158.890374,79.3850267 158.890374,79.3850267 C158.890374,79.3850267 160.064171,75.9518717 160.887701,75.2807487 C161.419554,74.8399209 162.147032,74.7183349 162.79333,74.962254 C163.439627,75.2061732 163.90537,75.7780925 164.013342,76.4603969 C164.121314,77.1427012 163.854915,77.8304794 163.315508,78.2620321 L163.315508,78.2620321 Z" id="路径" fill="#16ADE9" fill-rule="nonzero"></path>
                    <path d="M163.168449,86.0534759 C162.470588,86.855615 158.997326,87.9090909 158.997326,87.9090909 C158.997326,87.9090909 159.572193,84.3262032 160.270053,83.526738 C160.714486,82.9848385 161.418598,82.727728 162.107649,82.8557297 C162.796699,82.9837314 163.361498,83.4765617 163.581664,84.1419204 C163.80183,84.8072791 163.642473,85.5397307 163.165775,86.0534759 L163.168449,86.0534759 Z" id="路径" fill="#16ADE9" fill-rule="nonzero"></path>
                    <path d="M154.144385,72.6871658 C155.048128,73.2459893 158.676471,73.2219251 158.676471,73.2219251 C158.676471,73.2219251 157.072193,69.9679144 156.168449,69.4090909 C155.584209,69.0249342 154.837459,68.9882828 154.218408,69.3133805 C153.599357,69.6384782 153.205632,70.2740564 153.190245,70.9731099 C153.174859,71.6721633 153.540238,72.3244498 154.144385,72.6764706 L154.144385,72.6871658 Z" id="路径" fill="#16ADE9" fill-rule="nonzero"></path>
                    <path d="M154.090909,81.8048128 C155.120321,82.0721925 158.57754,80.9705882 158.57754,80.9705882 C158.57754,80.9705882 156.072193,78.3449198 155.042781,78.0828877 C154.034116,77.8683639 153.03585,78.487887 152.780341,79.486957 C152.524832,80.4860271 153.103099,81.5087438 154.090909,81.8048128 Z" id="路径" fill="#16ADE9" fill-rule="nonzero"></path>
                    <path d="M155.248663,90.671123 C156.216578,91.1042781 159.812834,90.6069519 159.812834,90.6069519 C159.812834,90.6069519 157.786096,87.5962567 156.818182,87.1631016 C155.84873,86.729691 154.711485,87.1642381 154.278075,88.1336898 C153.844664,89.1031415 154.279211,90.2403862 155.248663,90.6737968 L155.248663,90.671123 Z" id="路径" fill="#16ADE9" fill-rule="nonzero"></path>
                    <path d="M156.927807,63.355615 C157.15508,64.3930481 155.938503,67.8128342 155.938503,67.8128342 C155.938503,67.8128342 153.40107,65.2192513 153.171123,64.1818182 C152.96135,63.4905528 153.156804,62.7400382 153.67711,62.2389051 C154.197415,61.7377719 154.954736,61.5706204 155.637642,61.8061875 C156.320549,62.0417545 156.813753,62.6402723 156.914439,63.355615 L156.927807,63.355615 Z" id="路径" fill="#16ADE9" fill-rule="nonzero"></path>
                    <path d="M161.294118,68.4171123 C160.92246,69.4117647 158.042781,71.6256684 158.042781,71.6256684 C158.042781,71.6256684 157.320856,68.0695187 157.695187,67.0802139 C157.913546,66.4093244 158.481847,65.9119447 159.175755,65.7844141 C159.869664,65.6568836 160.577678,65.9196949 161.020309,66.4691038 C161.462941,67.0185128 161.569066,67.7662362 161.296791,68.4171123 L161.294118,68.4171123 Z" id="路径" fill="#16ADE9" fill-rule="nonzero"></path>
                    <path d="M163.315508,78.2620321 C162.491979,78.9331551 158.890374,79.3850267 158.890374,79.3850267 C158.890374,79.3850267 160.064171,75.9518717 160.887701,75.2807487 C161.419554,74.8399209 162.147032,74.7183349 162.79333,74.962254 C163.439627,75.2061732 163.90537,75.7780925 164.013342,76.4603969 C164.121314,77.1427012 163.854915,77.8304794 163.315508,78.2620321 L163.315508,78.2620321 Z" id="路径" fill="#16ADE9" fill-rule="nonzero"></path>
                    <path d="M163.168449,86.0534759 C162.470588,86.855615 158.997326,87.9090909 158.997326,87.9090909 C158.997326,87.9090909 159.572193,84.3262032 160.270053,83.526738 C160.714486,82.9848385 161.418598,82.727728 162.107649,82.8557297 C162.796699,82.9837314 163.361498,83.4765617 163.581664,84.1419204 C163.80183,84.8072791 163.642473,85.5397307 163.165775,86.0534759 L163.168449,86.0534759 Z" id="路径" fill="#16ADE9" fill-rule="nonzero"></path>
                    <path d="M154.144385,72.6871658 C155.048128,73.2459893 158.676471,73.2219251 158.676471,73.2219251 C158.676471,73.2219251 157.072193,69.9679144 156.168449,69.4090909 C155.584209,69.0249342 154.837459,68.9882828 154.218408,69.3133805 C153.599357,69.6384782 153.205632,70.2740564 153.190245,70.9731099 C153.174859,71.6721633 153.540238,72.3244498 154.144385,72.6764706 L154.144385,72.6871658 Z" id="路径" fill="#16ADE9" fill-rule="nonzero"></path>
                    <path d="M154.090909,81.8048128 C155.120321,82.0721925 158.57754,80.9705882 158.57754,80.9705882 C158.57754,80.9705882 156.072193,78.3449198 155.042781,78.0828877 C154.034116,77.8683639 153.03585,78.487887 152.780341,79.486957 C152.524832,80.4860271 153.103099,81.5087438 154.090909,81.8048128 Z" id="路径" fill="#16ADE9" fill-rule="nonzero"></path>
                    <path d="M155.248663,90.671123 C156.216578,91.1042781 159.812834,90.6069519 159.812834,90.6069519 C159.812834,90.6069519 157.786096,87.5962567 156.818182,87.1631016 C155.84873,86.729691 154.711485,87.1642381 154.278075,88.1336898 C153.844664,89.1031415 154.279211,90.2403862 155.248663,90.6737968 L155.248663,90.671123 Z" id="路径" fill="#16ADE9" fill-rule="nonzero"></path>
                    <path d="M159.756684,116.724599 L159.756684,116.724599 C158.490893,116.724899 157.281345,116.201656 156.414843,115.278941 C155.548342,114.356226 155.10206,113.116217 155.181818,111.852941 L156.462567,91.5588235 L163.050802,91.5588235 L164.331551,111.852941 C164.411309,113.116217 163.965027,114.356226 163.098526,115.278941 C162.232024,116.201656 161.022476,116.724899 159.756684,116.724599 L159.756684,116.724599 Z" id="路径" fill="#16ADE9" fill-rule="nonzero"></path>
                    <rect id="矩形" fill="#16ADE9" fill-rule="nonzero" opacity="0.1" x="22.6203209" y="16.9572193" width="3.74331551" height="15.5080214"></rect>
                    <rect id="矩形" fill="#16ADE9" fill-rule="nonzero" opacity="0.1" x="27.4331551" y="16.9572193" width="3.74331551" height="15.5080214"></rect>
                    <rect id="矩形" fill="#16ADE9" fill-rule="nonzero" opacity="0.1" x="32.2459893" y="16.9572193" width="3.74331551" height="15.5080214"></rect>
                    <rect id="矩形" fill="#16ADE9" fill-rule="nonzero" opacity="0.1" x="37.0588235" y="16.9572193" width="3.74331551" height="15.5080214"></rect>
                    <rect id="矩形" fill="#16ADE9" fill-rule="nonzero" opacity="0.1" x="46.684492" y="16.9572193" width="3.74331551" height="15.5080214"></rect>
                    <rect id="矩形" fill="#16ADE9" fill-rule="nonzero" opacity="0.1" x="51.4973262" y="16.9572193" width="3.74331551" height="15.5080214"></rect>
                    <rect id="矩形" fill="#16ADE9" fill-rule="nonzero" opacity="0.1" x="22.6203209" y="19.8983957" width="3.74331551" height="1"></rect>
                    <rect id="矩形" fill="#16ADE9" fill-rule="nonzero" opacity="0.1" x="22.6203209" y="29.5240642" width="3.74331551" height="1"></rect>
                    <rect id="矩形" fill="#16ADE9" fill-rule="nonzero" opacity="0.1" x="27.4331551" y="19.8983957" width="3.74331551" height="1"></rect>
                    <rect id="矩形" fill="#16ADE9" fill-rule="nonzero" opacity="0.1" x="27.4331551" y="29.5240642" width="3.74331551" height="1"></rect>
                    <rect id="矩形" fill="#16ADE9" fill-rule="nonzero" opacity="0.1" x="32.2459893" y="19.8983957" width="3.74331551" height="1"></rect>
                    <rect id="矩形" fill="#16ADE9" fill-rule="nonzero" opacity="0.1" x="32.2459893" y="29.5240642" width="3.74331551" height="1"></rect>
                    <rect id="矩形" fill="#16ADE9" fill-rule="nonzero" opacity="0.1" x="37.0588235" y="19.8983957" width="3.74331551" height="1"></rect>
                    <rect id="矩形" fill="#16ADE9" fill-rule="nonzero" opacity="0.1" x="37.0588235" y="29.5240642" width="3.74331551" height="1"></rect>
                    <rect id="矩形" fill="#16ADE9" fill-rule="nonzero" opacity="0.1" x="41.8716578" y="19.8983957" width="3.74331551" height="1"></rect>
                    <rect id="矩形" fill="#16ADE9" fill-rule="nonzero" opacity="0.1" x="41.8716578" y="29.5240642" width="3.74331551" height="1"></rect>
                    <rect id="矩形" fill="#16ADE9" fill-rule="nonzero" opacity="0.1" x="46.684492" y="19.8983957" width="3.74331551" height="1"></rect>
                    <rect id="矩形" fill="#16ADE9" fill-rule="nonzero" opacity="0.1" x="46.684492" y="29.5240642" width="3.74331551" height="1"></rect>
                    <rect id="矩形" fill="#16ADE9" fill-rule="nonzero" opacity="0.1" x="51.4973262" y="19.8983957" width="3.74331551" height="1"></rect>
                    <rect id="矩形" fill="#16ADE9" fill-rule="nonzero" opacity="0.1" x="51.4973262" y="29.5240642" width="3.74331551" height="1"></rect>
                    <rect id="矩形" fill="#16ADE9" fill-rule="nonzero" opacity="0.1" x="41.8716578" y="16.9572193" width="3.74331551" height="15.5080214"></rect>
                    <polygon id="矩形" fill="#16ADE9" fill-rule="nonzero" opacity="0.1" transform="translate(60.319729, 24.708960) rotate(-24.840000) translate(-60.319729, -24.708960) " points="58.4480717 16.9549496 62.1913872 16.9549496 62.1913872 32.462971 58.4480717 32.462971"></polygon>
                    <polygon id="矩形" fill="#16ADE9" fill-rule="nonzero" opacity="0.1" transform="translate(58.467443, 20.707931) rotate(-24.840000) translate(-58.467443, -20.707931) " points="56.5957855 20.306862 60.339101 20.306862 60.339101 21.109001 56.5957855 21.109001"></polygon>
                    <polygon id="矩形" fill="#16ADE9" fill-rule="nonzero" opacity="0.1" transform="translate(62.508985, 29.442108) rotate(-24.840000) translate(-62.508985, -29.442108) " points="60.637327 29.0410384 64.3806425 29.0410384 64.3806425 29.8431775 60.637327 29.8431775"></polygon>
                    <path d="M104.315508,176.863636 L97.5213904,172.529412 C97.486631,166.425134 97.3903743,138.085561 98.6604278,134.294118 C98.9879982,133.196538 99.0065019,132.029876 98.7139037,130.92246 C97.8315508,127.069519 94.6122995,124.192513 90.7112299,123.558824 C87.0320856,122.959893 81.7379679,121.97861 77.4759358,120.71123 C81.2754011,120.318182 84.1229947,119.97861 84.1229947,119.97861 L84.197861,119.275401 L86.644385,119.157754 L86.644385,119.053476 L86.8770053,119.040107 C92.5909091,118.700535 104.724599,117.569519 100.601604,114.184492 C99.1871658,113.024064 97.342246,112.475936 95.3957219,112.291444 C101.347594,110.933155 110.649733,108.302139 106.502674,105.828877 C102.561497,103.481283 96.526738,105.326203 92.9251337,106.826203 L92.7032086,106.919786 L92.6631016,106.596257 L91.2245989,106.885027 L91.2245989,106.885027 L90.7673797,106.975936 L90.7459893,106.505348 L70.5614973,109.622995 C70.4032679,107.310248 70.1284085,105.006961 69.7379679,102.721925 C70.1898396,99.7112299 72.2914439,95.3208556 71.5508021,92.9652406 C70.6898396,90.2299465 67.1550802,89.3342246 65.6684492,86.8636364 C65.2780749,86.2192513 64.8903743,85.6149733 64.5106952,85.0855615 C63.6797602,83.9562983 62.7245704,82.9239757 61.6631016,82.0080214 C61.7273764,80.4194145 62.0826364,78.8560895 62.7112299,77.3957219 C63.1142049,76.4187849 63.5859773,75.4716661 64.1229947,74.5614973 C69.0064945,73.3500722 72.1037334,68.5472433 71.1925134,63.5989305 C72.4705882,64.1470588 74.0240642,64.2032086 74.8235294,63.1336898 L74.4438503,62.986631 C74.4812834,62.9465241 74.5187166,62.9064171 74.5508021,62.8609626 C73.7727273,62.5641711 72.9465241,62.2272727 72.3368984,61.6871658 C72.1825172,61.5137603 72.0521187,61.3204108 71.9491979,61.1122995 C71.5802139,60.3636364 71.6229947,59.4652406 71.2700535,58.7058824 C71.1039527,58.360136 70.8681831,58.0524522 70.5775401,57.802139 C69.9583551,57.1690514 69.1750765,56.7209346 68.315508,56.5080214 C67.3502674,56.2272727 66.3342246,56.0855615 65.4090909,55.7058824 C62.8313928,52.7127033 58.7119262,51.5540704 54.9518717,52.7647059 L54.6176471,52.8796791 C55.1005121,50.5514883 53.6293535,48.2656036 51.3102798,47.7406954 C48.9912061,47.2157872 46.6790791,48.6453481 46.1122995,50.9545455 C46.1970581,49.9800788 46.6077514,49.0626126 47.2780749,48.3502674 C47.2085561,48.4090909 47.1363636,48.4652406 47.0695187,48.526738 C46.2263136,49.319526 45.7325986,50.4148199 45.6969963,51.5716432 C45.661394,52.7284665 46.0868212,53.8520478 46.8796791,54.6951872 L46.9572193,54.7700535 C47.2659296,55.1477688 47.6355387,55.4712898 48.0508021,55.7272727 C46.4920862,55.1767885 45.3782543,53.7927799 45.1737968,52.1524064 C45.1737968,52.2433155 45.1737968,52.3342246 45.1737968,52.4197861 C45.2411607,53.5803271 45.7688174,54.666016 46.6397229,55.436027 C47.5106285,56.206038 48.6527825,56.596712 49.8128342,56.5213904 L49.9331551,56.5080214 L49.868984,56.5962567 C47.3089909,60.3614291 47.6743035,65.3927798 50.7513369,68.7486631 C50.9288054,69.1551696 51.1648185,69.5335112 51.4518717,69.8716578 C51.5527363,69.9870981 51.6607948,70.0960496 51.7754011,70.197861 C52.5077012,70.9704889 53.5090723,71.4319238 54.5721925,71.486631 C54.7504456,71.6987522 54.9402852,71.902852 55.1417112,72.0989305 C54.9654075,72.8490658 54.7348545,73.5854057 54.4518717,74.302139 C53.8820571,75.7294676 53.1727354,77.0970613 52.3342246,78.3850267 C46.5588235,80.026738 46.0508021,89.8342246 46.2593583,90.2058824 C46.5080214,90.6497326 45.3983957,106.050802 49.6764706,124.65508 C49.5,129.973262 52.6016043,138.76738 63.6122995,136.449198 C77.3823529,137.184492 81.8983957,139.294118 81.8983957,139.294118 C81.8983957,139.294118 80.5909091,163.243316 82.4572193,166.729947 C83.6256684,168.914439 82.7967914,172.122995 81.9224599,174.387701 C81.5983501,174.947916 81.3399571,175.543655 81.1524064,176.163102 C80.8850267,176.727273 80.6898396,177.069519 80.6898396,177.069519 L80.8770053,177.069519 C80.171123,179.52139 79.671123,182.481283 79.671123,182.481283 C79.671123,182.481283 96.3636364,185.868984 103.705882,183.652406 C106.55615,182.791444 106.673797,181.994652 105.748663,181.336898 C106.430083,181.236701 107.103718,181.089288 107.764706,180.895722 C115.112299,178.679144 104.315508,176.863636 104.315508,176.863636 Z" id="路径" fill="url(#linearGradient-2)" fill-rule="nonzero"></path>
                    <path d="M67.9946524,63.171123 C67.9946524,68.4872329 63.6850938,72.7967914 58.368984,72.7967914 C53.0528741,72.7967914 48.7433155,68.4872329 48.7433155,63.171123 C48.7433155,57.8550131 53.0528741,53.5454545 58.368984,53.5454545 C60.92187,53.5454545 63.3701964,54.5595846 65.1753594,56.3647476 C66.9805224,58.1699106 67.9946524,60.618237 67.9946524,63.171123 Z" id="路径" fill="#FA595F" fill-rule="nonzero"></path>
                    <path d="M89.6764706,108.393048 L90.6524064,113.264706 C90.6524064,113.264706 91.7379679,113.069519 93.3449198,112.729947 C98.8342246,111.566845 110.433155,108.695187 105.941176,106.016043 C102.07754,103.713904 96.1604278,105.524064 92.631016,106.994652 C91.3368984,107.529412 90.3636364,108.026738 89.9278075,108.259358 C89.7647059,108.342246 89.6764706,108.393048 89.6764706,108.393048 Z" id="路径" fill="#F8B9BF" fill-rule="nonzero"></path>
                    <path d="M89.9518717,109.76738 L90.6524064,113.264706 C90.6524064,113.264706 91.7379679,113.069519 93.3449198,112.729947 L92.631016,106.994652 C91.3368984,107.529412 90.3636364,108.026738 89.9278075,108.259358 L89.9518717,109.76738 Z" id="路径" fill="#000000" fill-rule="nonzero" opacity="0.1"></path>
                    <polygon id="路径" fill="#D9DFE8" fill-rule="nonzero" points="89.7834225 113.566845 93.1363636 112.895722 92.3770053 106.770053 89.6925134 107.307487"></polygon>
                    <polygon id="路径" fill="#000000" fill-rule="nonzero" opacity="0.1" points="89.7834225 113.566845 91.2299465 113.275401 90.9652406 107.053476 89.6925134 107.307487"></polygon>
                    <path d="M58.8796791,86.9679144 C58.8796791,86.9679144 65.4064171,83.5668449 67.7780749,94.2540107 C70.1497326,104.941176 70.184492,109.812834 70.184492,109.812834 L90.4839572,106.676471 L90.7994652,114.053476 C90.7994652,114.053476 68.9812834,120.050802 66.2994652,119.425134 C63.6176471,118.799465 55.4759358,103.68984 55.4759358,103.68984 C55.4759358,103.68984 48.0160428,91.9385027 58.8796791,86.9679144 Z" id="路径" fill="#16ADE9" fill-rule="nonzero"></path>
                    <g id="编组" opacity="0.1" transform="translate(53.475936, 86.898396)" fill="#000000" fill-rule="nonzero">
                        <path d="M36.2005348,21.4946524 L37.1764706,26.3663102 C37.1764706,26.3663102 38.2620321,26.171123 39.868984,25.8315508 C45.3582888,24.6684492 56.9572193,21.7967914 52.4652406,19.1176471 C48.6016043,16.815508 42.684492,18.6256684 39.1550802,20.0962567 C37.8609626,20.631016 36.8877005,21.1283422 36.4518717,21.3609626 C36.2887701,21.4438503 36.2005348,21.4946524 36.2005348,21.4946524 Z" id="路径"></path>
                        <path d="M36.4759358,22.868984 L37.1764706,26.3663102 C37.1764706,26.3663102 38.2620321,26.171123 39.868984,25.8315508 L39.1550802,20.0962567 C37.8609626,20.631016 36.8877005,21.1283422 36.4518717,21.3609626 L36.4759358,22.868984 Z" id="路径"></path>
                        <polygon id="路径" points="36.3074866 26.6684492 39.6604278 25.9973262 38.9010695 19.8716578 36.2165775 20.4090909"></polygon>
                        <polygon id="路径" points="36.3074866 26.6684492 37.7540107 26.3770053 37.4893048 20.1550802 36.2165775 20.4090909"></polygon>
                        <path d="M5.93850267,0.604278075 C5.93850267,0.604278075 12.4652406,-2.79679144 14.8368984,7.89037433 C17.2085561,18.5775401 17.2433155,23.4491979 17.2433155,23.4491979 L37.5427807,20.3128342 L37.8582888,27.6898396 C37.8582888,27.6898396 16.040107,33.6871658 13.3582888,33.0614973 C10.6764706,32.4358289 2.53475936,17.3262032 2.53475936,17.3262032 C2.53475936,17.3262032 -4.92513369,5.57486631 5.93850267,0.604278075 Z" id="路径"></path>
                    </g>
                    <path d="M95.802139,170.580214 L103.807487,175.660428 C103.807487,175.660428 114.393048,177.433155 107.192513,179.606952 C99.9919786,181.780749 83.6283422,178.457219 83.6283422,178.457219 C83.6283422,178.457219 84.8716578,171.093583 86.1951872,170.117647 C87.5187166,169.141711 95.802139,170.580214 95.802139,170.580214 Z" id="路径" fill="#F37291" fill-rule="nonzero"></path>
                    <path d="M66.1229947,116.085561 C66.1229947,116.085561 70.1149733,118.403743 77.2941176,120.569519 C81.5026738,121.839572 86.7967914,122.820856 90.4545455,123.417112 C94.2923244,124.009528 97.392238,126.861237 98.302139,130.636364 C98.5892989,131.721696 98.5717211,132.865183 98.2513369,133.941176 C96.855615,138.117647 97.1390374,172.569519 97.1390374,172.569519 L84.6149733,173.171123 C84.6149733,173.171123 86.5962567,166.911765 84.1550802,163.606952 C81.7139037,160.302139 85.802139,136.139037 85.802139,136.139037 C85.802139,136.139037 81.3663102,134.069519 67.8636364,133.350267 C55.2085561,136.024064 50.6604278,122.080214 52.7620321,118.326203 C54.8636364,114.572193 66.1229947,116.085561 66.1229947,116.085561 Z" id="路径" fill="#96A2D0" fill-rule="nonzero"></path>
                    <g id="编组" opacity="0.1" transform="translate(52.139037, 115.775401)" fill="#000000" fill-rule="nonzero">
                        <path d="M43.6631016,54.8048128 L51.6684492,59.8850267 C51.6684492,59.8850267 62.2540107,61.657754 55.0534759,63.8315508 C47.8529412,66.0053476 31.4893048,62.6818182 31.4893048,62.6818182 C31.4893048,62.6818182 32.7326203,55.3181818 34.0561497,54.342246 C35.3796791,53.3663102 43.6631016,54.8048128 43.6631016,54.8048128 Z" id="路径"></path>
                        <path d="M13.9839572,0.310160428 C13.9839572,0.310160428 17.9759358,2.62834225 25.1550802,4.79411765 C29.3636364,6.06417112 34.657754,7.04545455 38.315508,7.64171123 C42.153287,8.23412643 45.2532005,11.0858357 46.1631016,14.8609626 C46.4502615,15.9462949 46.4326836,17.0897824 46.1122995,18.1657754 C44.7165775,22.342246 45,56.7941176 45,56.7941176 L32.4759358,57.3957219 C32.4759358,57.3957219 34.4572193,51.1363636 32.0160428,47.8315508 C29.5748663,44.526738 33.6631016,20.3636364 33.6631016,20.3636364 C33.6631016,20.3636364 29.2272727,18.2941176 15.7245989,17.5748663 C3.06951872,20.2486631 -1.47860963,6.30481283 0.622994652,2.55080214 C2.72459893,-1.20320856 13.9839572,0.310160428 13.9839572,0.310160428 Z" id="路径"></path>
                    </g>
                    <path d="M91.8128342,173.283422 L99.8181818,178.363636 C99.8181818,178.363636 110.403743,180.136364 103.203209,182.31016 C96.0026738,184.483957 79.6390374,181.160428 79.6390374,181.160428 C79.6390374,181.160428 80.8823529,173.796791 82.2058824,172.820856 C83.5294118,171.84492 91.8128342,173.283422 91.8128342,173.283422 Z" id="路径" fill="#F37291" fill-rule="nonzero"></path>
                    <path d="M63.8877005,136.050802 C77.3903743,136.770053 81.8262032,138.839572 81.8262032,138.839572 C81.8262032,138.839572 80.5454545,162.320856 82.3609626,165.737968 C84.2994652,169.363636 80.6283422,175.871658 80.6283422,175.871658 L93.1524064,175.270053 C93.1524064,175.270053 93.1524064,174.863636 93.1524064,174.136364 C93.1149733,168.152406 93.0240642,140.36631 94.2673797,136.641711 C94.5877638,135.565718 94.6053417,134.422231 94.3181818,133.336898 C93.4076261,129.562157 90.3080378,126.710747 86.4705882,126.117647 C82.8101604,125.524064 77.5187166,124.542781 73.3101604,123.272727 L73.1042781,123.208556 C66.0534759,121.069519 62.1417112,118.78877 62.1417112,118.78877 C62.1417112,118.78877 53.802139,118.21123 51.7139037,121.965241 C51.4465241,122.451872 50.2941176,123.409091 50.2459893,124.181818 C49.9331551,129.352941 52.8770053,138.368984 63.8877005,136.050802 Z" id="路径" fill="#96A2D0" fill-rule="nonzero"></path>
                    <path d="M83.7192513,114.13369 L83.9572193,119.096257 C83.9572193,119.096257 85.0588235,119.066845 86.7005348,118.967914 C92.302139,118.63369 104.200535,117.526738 100.157754,114.208556 C96.6818182,111.355615 90.5588235,112.264706 86.8502674,113.192513 C85.4893048,113.534759 84.4438503,113.877005 83.9893048,114.040107 C83.8128342,114.09893 83.7192513,114.13369 83.7192513,114.13369 Z" id="路径" fill="#F8B9BF" fill-rule="nonzero"></path>
                    <path d="M51.9518717,80.3609626 C51.9518717,80.3609626 53.5561497,81.7433155 55.5454545,83.2727273 C57.7647059,83.8770053 60.3582888,84.4144385 62.2112299,84.7700535 C61.6363636,82.5909091 62.1470588,80.2245989 62.9946524,78.1417112 C63.9144483,75.9751019 65.1350078,73.9489371 66.6203209,72.1229947 L55.4705882,68.0935829 C56.2593583,70.3796791 55.7379679,72.9331551 54.8903743,75.1176471 C54.1421546,76.9853374 53.1543816,78.7478694 51.9518717,80.3609626 Z" id="路径" fill="#F8B9BF" fill-rule="nonzero"></path>
                    <path d="M83.7860963,115.532086 L83.9572193,119.096257 C83.9572193,119.096257 85.0588235,119.066845 86.7005348,118.967914 L86.8502674,113.18984 C85.4893048,113.532086 84.4438503,113.874332 83.9893048,114.037433 L83.7860963,115.532086 Z" id="路径" fill="#000000" fill-rule="nonzero" opacity="0.1"></path>
                    <polygon id="路径" fill="#D9DFE8" fill-rule="nonzero" points="83.0534759 119.264706 86.4679144 119.101604 86.6283422 112.930481 83.8957219 113.061497"></polygon>
                    <path d="M50.4893048,125.625668 C57.7085561,133.131016 71.171123,124.21123 74.7914439,121.569519 C75.3796791,121.139037 75.7085561,120.874332 75.7085561,120.874332 C74.3716578,119.513369 72.2326203,118.254011 71.4117647,114.84492 C70.6286252,111.365472 70.0978323,107.834002 69.8235294,104.278075 C69.6016043,101.457219 72.5160428,96.0855615 71.6737968,93.4064171 C70.8315508,90.7272727 67.3636364,89.8475936 65.9064171,87.4224599 C65.5240642,86.7914439 65.144385,86.197861 64.7700535,85.6791444 C62.0802139,81.9358289 57.3930481,79.4144385 57.3930481,79.4144385 C47.4064171,76.0053476 46.6229947,90.2673797 46.8716578,90.7112299 C47.1203209,91.1550802 45.9786096,106.877005 50.4893048,125.625668 Z" id="路径" fill="#16ADE9" fill-rule="nonzero"></path>
                    <path d="M50.4144385,105.085561 C50.4144385,105.085561 56.2139037,121.240642 58.7727273,122.259358 C60.2379679,122.842246 68.2299465,122.213904 74.7914439,121.569519 C75.3796791,121.139037 75.7085561,120.874332 75.7085561,120.874332 C74.3716578,119.513369 73.2834225,116.708556 72.4652406,113.302139 L64.0454545,113.331551 C64.0454545,113.331551 64.7272727,108.518717 63.973262,97.5855615 C63.2192513,86.6524064 56.2593583,89.0561497 56.2593583,89.0561497 C44.7807487,92.3475936 50.4144385,105.085561 50.4144385,105.085561 Z" id="路径" fill="#000000" fill-rule="nonzero" opacity="0.1"></path>
                    <polygon id="路径" fill="#000000" fill-rule="nonzero" opacity="0.1" points="83.0534759 119.264706 84.526738 119.195187 85.1925134 113 83.8957219 113.061497"></polygon>
                    <path d="M56.4572193,88.3609626 C56.4572193,88.3609626 63.4090909,85.973262 64.171123,96.8903743 C64.9331551,107.807487 64.2513369,112.636364 64.2513369,112.636364 L84.7914439,112.561497 L84.0026738,119.903743 C84.0026738,119.903743 61.5427807,122.57754 58.9759358,121.564171 C56.4090909,120.550802 50.6149733,104.393048 50.6149733,104.393048 C50.6149733,104.393048 44.9759358,91.6524064 56.4572193,88.3609626 Z" id="路径" fill="#16ADE9" fill-rule="nonzero"></path>
                    <path d="M56.7112299,72.2620321 C57.0828877,70.657754 55.3743316,70.6069519 54.8395722,69.0534759 L65.9946524,73.0641711 C65.1637129,74.082838 64.4145041,75.1655252 63.7540107,76.302139 C63.1598979,76.4501699 62.5527281,76.539723 61.9411765,76.5695187 C59.2299465,76.7032086 58.5053476,74.0213904 56.7112299,72.2620321 Z" id="路径" fill="#000000" fill-rule="nonzero" opacity="0.1"></path>
                    <circle id="椭圆形" fill="#F8B9BF" fill-rule="nonzero" transform="translate(62.128920, 66.296114) rotate(-2.750000) translate(-62.128920, -66.296114) " cx="62.1289197" cy="66.2961144" r="9.34759358"></circle>
                    <path d="M57.2994652,95.2941176 C57.2994652,95.2941176 60.2566845,109.302139 63.7486631,110.73262 C67.2406417,112.163102 65.657754,112.467914 65.657754,112.467914" id="路径" fill="#000000" fill-rule="nonzero" opacity="0.1"></path>
                    <path d="M69.486631,103.205882 C69.486631,103.205882 67.0160428,103.97861 64.1390374,100.286096" id="路径" fill="#000000" fill-rule="nonzero" opacity="0.1"></path>
                    <circle id="椭圆形" fill="#FA595F" fill-rule="nonzero" cx="50.8823529" cy="53.2780749" r="4.27807487"></circle>
                    <path d="M47.8770053,55.5374332 C46.3336094,53.891693 46.3336094,51.3302321 47.8770053,49.684492 C47.8074866,49.7406417 47.7379679,49.7967914 47.6737968,49.8582888 C45.9519679,51.4767489 45.868171,54.1845881 47.4866311,55.906417 C49.1050912,57.6282459 51.8129304,57.7120429 53.5347594,56.0935829 C53.6016043,56.0320856 53.6604278,55.9652406 53.7192513,55.9010695 C51.9807026,57.3396231 49.4237479,57.1804717 47.8770053,55.5374332 Z" id="路径" fill="#FA595F" fill-rule="nonzero"></path>
                    <path d="M50.3208556,57.1524064 C48.0673834,57.288124 46.0962931,55.6494503 45.8181818,53.4090909 C45.8181818,53.4973262 45.8181818,53.5855615 45.8181818,53.6764706 C45.9137074,55.2020138 46.8158442,56.5607115 48.1847662,57.2407555 C49.5536881,57.9207996 51.1814233,57.818875 52.4548196,56.9733759 C53.728216,56.1278767 54.4538143,54.6672544 54.3582888,53.1417112 C54.3582888,53.0508021 54.3395722,52.9652406 54.328877,52.8743316 C54.3333863,55.1354805 52.5774997,57.0096756 50.3208556,57.1524064 Z" id="路径" fill="#FA595F" fill-rule="nonzero"></path>
                    <path d="M65.5748663,56.9973262 C66.5721925,57.4893048 67.7139037,57.6256684 68.7834225,57.9358289 C69.8529412,58.2459893 70.9438503,58.8128342 71.4144385,59.8235294 C71.7593583,60.5668449 71.7192513,61.4465241 72.0802139,62.1818182 C72.5989305,63.2513369 73.7967914,63.7433155 74.8983957,64.1631016 C73.9518717,65.4331551 71.9197861,65.0882353 70.5935829,64.2245989 C69.2673797,63.3609626 68.1256684,62.0855615 66.5828877,61.7513369 C65.0232957,61.443751 63.4385747,62.1489037 62.6229947,63.513369 C62.2005348,64.2540107 62.0508021,65.1176471 61.842246,65.9411765 C61.3074866,68.1122995 60.2379679,70.2727273 58.3663102,71.5053476 C56.4946524,72.7379679 53.7058824,72.7299465 52.2379679,71.0427807 C51.3823529,70.0588235 51.0962567,68.7192513 50.842246,67.4411765 C50.6975997,66.8452479 50.6284301,66.2335015 50.6363636,65.6203209 C50.7219251,64.0855615 51.7433155,62.7780749 52.7754011,61.6390374 C53.9919786,60.302139 55.2860963,59.0187166 56.5802139,57.7433155 C57.697861,56.6417112 58.986631,54.7754011 60.671123,54.644385 C62.6122995,54.4893048 63.9839572,56.2192513 65.5748663,56.9973262 Z" id="路径" fill="#000000" fill-rule="nonzero" opacity="0.1"></path>
                    <path d="M65.3074866,56.7299465 C66.3048128,57.2219251 67.4465241,57.3582888 68.5160428,57.6684492 C69.5855615,57.9786096 70.6764706,58.5454545 71.1470588,59.5561497 C71.4919786,60.2994652 71.4518717,61.1791444 71.8128342,61.9144385 C72.3315508,62.9839572 73.5294118,63.4759358 74.631016,63.8957219 C73.684492,65.1657754 71.6524064,64.8208556 70.3262032,63.9572193 C69,63.0935829 67.8582888,61.8181818 66.315508,61.4839572 C64.755916,61.1763714 63.171195,61.8815241 62.355615,63.2459893 C61.9331551,63.986631 61.7834225,64.8502674 61.5748663,65.6737968 C61.040107,67.8449198 59.9705882,70.0053476 58.0989305,71.2379679 C56.2272727,72.4705882 53.4385027,72.4625668 51.9705882,70.7754011 C51.1149733,69.7914439 50.828877,68.4518717 50.5748663,67.1737968 C50.43022,66.5778682 50.3610504,65.9661218 50.368984,65.3529412 C50.4545455,63.8181818 51.4759358,62.5106952 52.5080214,61.3716578 C53.7245989,60.0347594 55.0187166,58.7513369 56.3128342,57.4759358 C57.4304813,56.3743316 58.7192513,54.5080214 60.4037433,54.3770053 C62.3449198,54.2219251 63.7165775,55.9518717 65.3074866,56.7299465 Z" id="路径" fill="#FA595F" fill-rule="nonzero"></path>
                    <rect id="矩形" fill="#D6D6E3" fill-rule="nonzero" x="38.1229947" y="116.112299" width="30.4893048" height="4.71122995" rx="2.35561497"></rect>
                    <path d="M38.1229947,118.518717 L38.1229947,118.890374 C38.1229947,119.96098 38.9908919,120.828877 40.0614973,120.828877 L66.6737968,120.828877 C67.7444023,120.828877 68.6122995,119.96098 68.6122995,118.890374 L68.6122995,118.518717 L38.1229947,118.518717 Z" id="路径" fill="#000000" fill-rule="nonzero" opacity="0.1"></path>
                    <rect id="矩形" fill="#D6D6E3" fill-rule="nonzero" x="91.815508" y="121.024064" width="5.24331551" height="66.7994652"></rect>
                    <rect id="矩形" fill="#000000" fill-rule="nonzero" opacity="0.1" x="91.815508" y="121.024064" width="5.24331551" height="4.3315508"></rect>
                    <rect id="矩形" fill="#D6D6E3" fill-rule="nonzero" x="89.3074866" y="116.235294" width="138.614973" height="8.6631016"></rect>
                </g>
            </g>
        </g>
    </g>
</svg>