<?xml version="1.0" encoding="UTF-8"?>
<svg width="22px" height="21px" viewBox="0 0 22 21" version="1.1" xmlns="http://www.w3.org/2000/svg" xmlns:xlink="http://www.w3.org/1999/xlink">
    <!-- Generator: Sketch 58 (84663) - https://sketch.com -->
    <title>控制台</title>
    <desc>Created with Sketch.</desc>
    <g id="页面-1" stroke="none" stroke-width="1" fill="none" fill-rule="evenodd">
        <g id="首页-工作台-1.2版" transform="translate(-34.000000, -92.000000)" fill-rule="nonzero">
            <g id="编组-8" transform="translate(14.000000, 91.000000)">
                <g id="控制台" transform="translate(20.000000, 1.000000)">
                    <g id="gongzuotai">
                        <path d="M18.1746819,2 L3.80342441,2 C3.3269876,2 2.8700644,2.18926378 2.5331727,2.52615547 C2.196281,2.86304717 2.00701721,3.31997037 2.00701721,3.79640718 L2.00701721,11.8802395 C2.00701721,12.3566763 2.19628099,12.8135995 2.53317269,13.1504912 C2.87006439,13.4873829 3.32698759,13.6766467 3.80342441,13.6766467 L18.1746819,13.6766467 C18.6511187,13.6766467 19.1080419,13.4873829 19.4449336,13.1504912 C19.7818253,12.8135995 19.9710891,12.3566763 19.9710891,11.8802395 L19.9710891,3.79640718 C19.9710891,3.31997037 19.7818253,2.86304717 19.4449336,2.52615547 C19.1080419,2.18926378 18.6511187,2 18.1746819,2 Z M18.1746819,11.8802395 L3.80342441,11.8802395 L3.80342441,3.79640718 L18.1746819,3.79640718 L18.1746819,11.8802395 Z M10.0908495,13.6766467 L11.8872567,13.6766467 L11.8872567,16.3712575 L10.0908495,16.3712575 L10.0908495,13.6766467 Z" id="形状" fill="#333333"></path>
                        <polygon id="路径" fill="#333333" points="5.59983159 16.3712575 16.3782747 16.3712575 16.3782747 18.1676647 5.59983159 18.1676647"></polygon>
                        <polygon id="路径" fill="#16ADE9" points="5.59983159 5.59281438 14.5818675 5.59281438 14.5818675 7.38922156 5.59983159 7.38922156"></polygon>
                        <polygon id="路径" fill="#16ADE9" points="5.59983159 8.28742516 12.7854603 8.28742516 12.7854603 10.0838323 5.59983159 10.0838323"></polygon>
                    </g>
                </g>
            </g>
        </g>
    </g>
</svg>