<svg width="28" height="28" viewBox="0 0 28 28" fill="none" xmlns="http://www.w3.org/2000/svg">
<g id="wangyin">
<g id="Frame" clip-path="url(#clip0_3496_238828)">
<path id="Vector" d="M25.8921 15.68V19.76L24.6921 18.62C22.4121 21.32 20.4321 23.12 18.6921 24.08C11.9721 27.8 4.53214 25.1 2.55214 20.18C0.572139 15.26 4.05214 6.62 10.8321 2.9C11.3721 2.6 11.9721 2.3 12.5121 2.12C12.5721 2.06 12.6921 2 12.8121 2C13.2921 2 13.6521 2.48 13.6521 3.02C13.6521 3.56 13.2921 4.04 12.8121 4.04H12.9921L12.6321 4.22C7.05214 7.28 3.93214 13.58 5.67214 18.32C7.41214 23.06 13.4121 24.38 19.0521 21.32C20.3121 20.6 21.7521 19.4 23.4321 17.72L21.9321 16.28L25.8921 15.68ZM18.0321 13.22C18.4521 13.46 18.7521 13.82 18.9921 14.24C19.2321 14.66 19.3521 15.2 19.3521 15.8C19.3521 16.28 19.2321 16.76 18.9321 17.18C18.6921 17.54 18.3321 17.9 17.9121 18.14C17.4921 18.38 17.0121 18.56 16.5321 18.74C16.1721 18.86 15.8121 18.86 15.4521 18.92V19.34C15.4521 19.46 15.3921 19.58 15.3321 19.7C15.2721 19.76 15.1521 19.82 14.9721 19.82H14.1321C14.0121 19.82 13.8921 19.76 13.7721 19.7C13.7121 19.64 13.6521 19.52 13.6521 19.34V18.92C12.7521 18.86 11.9121 18.62 11.2521 18.2C10.4721 17.72 9.93214 17 9.69214 16.1C9.69214 15.98 9.63214 15.86 9.63214 15.68C9.63214 15.56 9.63214 15.44 9.57214 15.32C9.57214 15.2 9.57214 15.08 9.69214 14.96C9.75214 14.84 9.93214 14.78 10.0521 14.78H11.1921C11.3121 14.78 11.4321 14.84 11.5521 14.9C11.6121 14.96 11.6721 15.08 11.6721 15.26C11.6721 15.5 11.7321 15.74 11.8521 15.98C11.9721 16.22 12.0921 16.4 12.3321 16.58C12.5121 16.76 12.7521 16.88 13.0521 17C13.1721 17.06 13.4721 17.12 13.6521 17.12V13.76C13.2921 13.7 12.9321 13.58 12.5721 13.52C12.0921 13.4 11.6721 13.22 11.3121 12.98C10.9521 12.74 10.5921 12.44 10.4121 12.08C10.1721 11.66 10.0521 11.24 10.0521 10.7C10.0521 10.22 10.1721 9.8 10.4121 9.38C10.6521 9.02 10.9521 8.66 11.3121 8.42C11.6721 8.18 12.0921 7.94 12.5721 7.82C12.9321 7.7 13.2321 7.7 13.5921 7.64V7.28C13.5921 7.16 13.6521 7.04 13.7121 6.92C13.8321 6.86 13.9521 6.8 14.1321 6.8H14.9721C15.0921 6.8 15.2121 6.86 15.3321 6.92C15.3921 6.98 15.4521 7.1 15.4521 7.28V7.7C15.8121 7.7 16.1721 7.76 16.4721 7.88C16.9521 8 17.3721 8.18 17.7321 8.42C18.0921 8.66 18.3921 8.96 18.6321 9.38C18.8721 9.74 18.9921 10.22 18.9921 10.64C18.9921 10.76 18.9321 10.88 18.8721 11C18.8121 11.12 18.6321 11.12 18.5121 11.12H17.3721C17.2521 11.12 17.1321 11.06 17.0721 11C17.0121 10.94 16.9521 10.82 16.9521 10.64C16.9521 10.46 16.8921 10.34 16.8321 10.16C16.7121 9.98 16.5921 9.86 16.4721 9.74C16.2921 9.62 16.1121 9.5 15.8721 9.44C15.7521 9.44 15.6921 9.38 15.5721 9.38V12.32C15.9921 12.44 16.4721 12.5 16.8321 12.62C17.1921 12.8 17.6121 12.98 18.0321 13.22ZM13.2921 11.9C13.4121 11.96 13.5321 11.96 13.6521 12.02V9.44C13.5321 9.44 13.4121 9.5 13.2921 9.5C13.0521 9.56 12.8121 9.68 12.6321 9.8C12.4521 9.92 12.3321 10.04 12.2721 10.22C12.2121 10.34 12.1521 10.52 12.1521 10.7C12.1521 10.94 12.2121 11.12 12.2721 11.24C12.3321 11.36 12.4521 11.48 12.6321 11.6C12.8121 11.72 12.9921 11.84 13.2921 11.9ZM16.5921 16.76C16.7721 16.64 16.9521 16.46 17.0721 16.28C17.1921 16.1 17.2521 15.92 17.2521 15.68C17.2521 15.38 17.1921 15.2 17.1321 15.02C17.0121 14.84 16.8921 14.72 16.7121 14.6C16.5321 14.48 16.2921 14.36 15.9921 14.3C15.8121 14.24 15.6921 14.24 15.5121 14.18V17.24C15.6921 17.24 15.8121 17.18 15.9321 17.12C16.1121 17 16.3521 16.88 16.5921 16.76Z" fill="#10385C"/>
</g>
</g>
<defs>
<clipPath id="clip0_3496_238828">
<rect width="24" height="24" fill="white" transform="translate(2 2)"/>
</clipPath>
</defs>
</svg>
