<svg width="31" height="29" viewBox="0 0 31 29" fill="none" xmlns="http://www.w3.org/2000/svg">
<path d="M25.9564 0.453125H5.04645C4.19144 0.454086 3.37169 0.794041 2.76693 1.39846C2.16217 2.00288 1.82175 2.82243 1.82031 3.67745V24.5892C1.82175 25.4443 2.16217 26.2638 2.76693 26.8682C3.37169 27.4726 4.19144 27.8126 5.04645 27.8136H25.9564C26.8114 27.8126 27.6312 27.4726 28.236 26.8682C28.8407 26.2638 29.1811 25.4443 29.1826 24.5892V3.67745C29.1811 2.82243 28.8407 2.00288 28.236 1.39846C27.6312 0.794041 26.8114 0.454086 25.9564 0.453125V0.453125ZM7.59322 10.1406H20.6722L19.0682 8.53664C18.9577 8.43238 18.8693 8.307 18.8081 8.16794C18.747 8.02888 18.7144 7.87896 18.7122 7.72707C18.7101 7.57518 18.7384 7.4244 18.7956 7.28366C18.8528 7.14293 18.9376 7.0151 19.0451 6.90774C19.1526 6.80039 19.2805 6.7157 19.4213 6.65868C19.5621 6.60166 19.7129 6.57348 19.8648 6.5758C20.0167 6.57813 20.1666 6.61091 20.3056 6.6722C20.4446 6.7335 20.5698 6.82207 20.674 6.93266L24.2162 10.4731C24.375 10.6318 24.4832 10.8341 24.527 11.0544C24.5708 11.2747 24.5484 11.503 24.4624 11.7105C24.3765 11.9179 24.2309 12.0953 24.0442 12.22C23.8574 12.3448 23.6379 12.4113 23.4133 12.4113H7.60957C7.30846 12.4113 7.01968 12.2917 6.80677 12.0788C6.59385 11.8658 6.47424 11.5771 6.47424 11.276C6.47424 10.9749 6.59385 10.6861 6.80677 10.4732C7.01968 10.2602 7.30846 10.1406 7.60957 10.1406H7.59322ZM23.397 18.2968H10.318L11.922 19.9008C12.1349 20.1137 12.2546 20.4026 12.2546 20.7037C12.2546 21.0048 12.1349 21.2937 11.922 21.5066C11.709 21.7195 11.4202 21.8392 11.1191 21.8392C10.8179 21.8392 10.5291 21.7195 10.3162 21.5066L6.79032 17.9662C6.63149 17.8074 6.52333 17.6051 6.47951 17.3849C6.43568 17.1646 6.45817 16.9363 6.54411 16.7288C6.63006 16.5213 6.77561 16.344 6.96235 16.2192C7.1491 16.0945 7.36864 16.0279 7.59322 16.028H23.397C23.6981 16.028 23.9868 16.1476 24.1997 16.3605C24.4127 16.5734 24.5323 16.8622 24.5323 17.1633C24.5323 17.4644 24.4127 17.7532 24.1997 17.9661C23.9868 18.179 23.6981 18.2986 23.397 18.2986V18.2968Z" fill="#1890FF"/>
</svg>
