<?xml version="1.0" encoding="UTF-8"?>
<svg width="33px" height="35px" viewBox="0 0 33 35" version="1.1" xmlns="http://www.w3.org/2000/svg" xmlns:xlink="http://www.w3.org/1999/xlink">
    <title>logo_小</title>
    <defs>
        <polygon id="path-1" points="0 0.263871 32.944563 0.263871 32.944563 28.89 0 28.89"></polygon>
        <polygon id="path-3" points="0.183978 0.1647 19.031328 0.1647 19.031328 25.052733 0.183978 25.052733"></polygon>
    </defs>
    <g id="切图" stroke="none" stroke-width="1" fill="none" fill-rule="evenodd">
        <g transform="translate(-366.000000, -540.000000)" id="head">
            <g transform="translate(350.000000, 525.000000)">
                <g id="编组-13" transform="translate(16.000000, 15.000000)">
                    <g id="编组" transform="translate(0.000000, 5.400000)">
                        <mask id="mask-2" fill="white">
                            <use xlink:href="#path-1"></use>
                        </mask>
                        <g id="Clip-2"></g>
                        <path d="M20.169513,23.867271 C10.787013,23.867271 3.181383,16.261371 3.181383,6.879141 C3.181383,4.532301 3.657123,2.296971 4.517343,0.263871 C1.713663,3.304071 -2.7e-05,7.365411 -2.7e-05,11.827431 C-2.7e-05,21.250971 7.639083,28.890081 17.062623,28.890081 C24.280263,28.890081 30.451113,24.408351 32.944563,18.076311 C29.830923,21.625731 25.262253,23.867271 20.169513,23.867271" id="Fill-1" fill="#24569D" mask="url(#mask-2)"></path>
                    </g>
                    <g id="编组" transform="translate(4.590000, 0.000000)">
                        <mask id="mask-4" fill="white">
                            <use xlink:href="#path-3"></use>
                        </mask>
                        <g id="Clip-4"></g>
                        <path d="M4.335228,14.017293 C4.335228,7.201413 9.860508,1.676133 16.676388,1.676133 C17.482068,1.676133 18.268848,1.755783 19.031328,1.903203 C17.169138,0.800253 14.996988,0.164673 12.675798,0.164673 C5.776758,0.164673 0.183978,5.757723 0.183978,12.656763 C0.183978,19.040103 4.972698,24.301323 11.152998,25.052733 C7.111098,23.025843 4.335228,18.847053 4.335228,14.017293" id="Fill-3" fill="#24569D" mask="url(#mask-4)"></path>
                    </g>
                    <path d="M13.003551,16.360947 C13.003551,11.129697 17.244171,6.889077 22.475421,6.889077 C25.949511,6.889077 28.984851,8.760717 30.633201,11.549277 C29.777301,7.143147 25.899291,3.816207 21.242871,3.816207 C15.958701,3.816207 11.674881,8.100027 11.674881,13.384197 C11.674881,15.359787 12.274011,17.195247 13.299741,18.719667 C13.106421,17.965557 13.003551,17.175267 13.003551,16.360947" id="Fill-5" fill="#24569D"></path>
                    <path d="M31.011957,18.188307 C27.603477,17.162577 24.840027,14.206347 24.658857,10.670157 C24.658857,10.670157 24.658587,10.619937 24.644817,10.619937 C24.631047,10.619937 24.631047,10.670157 24.631047,10.670157 C24.449607,14.206347 21.686157,17.162577 18.277677,18.188307 C18.243117,18.198837 18.243117,18.243117 18.277677,18.253647 C21.686157,19.279647 24.449607,22.235337 24.631047,25.771797 C24.631047,25.771797 24.631047,25.822017 24.644817,25.822017 C24.658587,25.822017 24.658857,25.771797 24.658857,25.771797 C24.840027,22.235337 27.603477,19.279647 31.011957,18.253647 C31.046517,18.243117 31.046517,18.198837 31.011957,18.188307" id="Fill-7" fill="#CB2B20"></path>
                </g>
            </g>
        </g>
    </g>
</svg>