<?xml version="1.0" encoding="UTF-8"?>
<svg width="72px" height="28px" viewBox="0 0 72 28" version="1.1" xmlns="http://www.w3.org/2000/svg" xmlns:xlink="http://www.w3.org/1999/xlink">
    <!-- Generator: Sketch 59 (86127) - https://sketch.com -->
    <title>亚马逊 2</title>
    <desc>Created with Sketch.</desc>
    <g id="页面-1" stroke="none" stroke-width="1" fill="none" fill-rule="evenodd">
        <g id="自定义预设-3备份-13" transform="translate(-481.000000, -240.000000)">
            <g id="编组-2" transform="translate(465.000000, 230.000000)">
                <g id="亚马逊-2" transform="translate(16.000000, 10.000000)">
                    <g id="亚马逊" transform="translate(2.000000, 0.000000)">
                        <path d="M40.9600477,8.89778813 L37.0133868,8.89778813 L37.0133868,6.6733411 L44.3733954,6.6733411 L44.3733954,8.685935 L40.6400473,14.0881635 C40.6400473,14.0881635 42.1333834,14.1940895 42.7733841,14.4059417 C43.6267195,14.6177939 44.6933864,15.147423 44.6933864,15.147423 L44.6933864,17.37187 C44.6933864,17.37187 42.1333834,16.5244606 40.7467255,16.5244606 C39.0400579,16.5244606 36.8000647,17.37187 36.8000647,17.37187 L36.8000647,14.9355698 L40.9600695,8.89778503 L40.9600477,8.89778813 Z M9.70658317,15.8889074 L8.63990693,14.8296479 L8.63990693,8.79186312 C8.63990693,7.52075053 6.39990432,6.35556295 4.69324609,6.35556295 C2.23990886,6.35556295 0.319897247,7.94445369 0.213240873,9.95703828 L2.77324385,9.95703828 C2.98657754,9.10962885 3.62657922,8.58000067 4.47991146,8.58000067 C5.33324683,8.58000067 5.97324758,9.10963195 5.97324758,9.95703828 L5.97324758,10.9103727 L3.83991072,10.9103727 C3.30657572,10.9103727 2.77324385,11.0162987 2.34657461,11.2281509 C0.426572371,12.0755603 -0.426762997,14.0881542 0.319906622,15.7829606 C1.06657312,17.4777764 3.19990997,18.2192608 5.11991221,17.3718514 C5.6532472,17.1599992 6.07991332,16.8422201 6.3999137,16.4185169 L7.78658094,17.7955545 L9.70658317,15.8888857 L9.70658317,15.8889074 Z M3.30656635,15.3592761 C2.6665656,14.7237198 2.87990023,13.6644603 3.62656672,12.9229759 C3.83990041,12.7111237 4.15990172,12.4992728 4.37323321,12.4992728 L5.97323508,12.4992728 L5.97323508,14.8296448 L5.75990139,15.041497 C5.0132349,15.7829783 3.9465649,15.8889064 3.30656416,15.3592752 L3.30656635,15.3592761 Z M35.733176,15.8889074 L34.6664997,14.8296479 L34.6664997,8.79186312 C34.6664997,7.52075053 32.4264971,6.35556295 30.7198389,6.35556295 C28.2665016,6.35556295 26.34649,7.94445369 26.2398337,9.95703828 L28.7998366,9.95703828 C29.0131703,9.10962885 29.653172,8.58000067 30.5065042,8.58000067 C31.3598396,8.58000067 31.9998404,9.10963195 31.9998404,9.95703828 L31.9998404,10.9103727 L29.7598378,10.9103727 C29.2265028,10.9103727 28.6931709,11.0162987 28.2665016,11.2281509 C26.3464994,12.0755603 25.493164,14.0881542 26.2398337,15.7829606 C26.9865002,17.4777764 29.119837,18.2192608 31.0398392,17.3718514 C31.5731742,17.1599992 31.9998404,16.8422201 32.3198407,16.4185169 L33.706508,17.7955545 L35.733176,15.8888857 L35.733176,15.8889074 Z M29.4398155,15.3592761 C28.7998148,14.7237198 29.0131494,13.6644603 29.7598159,12.9229759 C29.9731496,12.7111237 30.2931509,12.4992728 30.5064824,12.4992728 L32.1064842,12.4992728 L32.1064842,14.8296448 L31.9998175,14.9355708 C31.1464822,15.7829802 30.0798153,15.8889052 29.4398146,15.3592739 L29.4398155,15.3592761 Z" id="形状" fill="#221E1F" fill-rule="nonzero"></path>
                        <g id="编组"></g>
                        <path d="M21.4400249,6.35553192 C20.2666892,6.35553192 19.3066881,7.09704426 18.880022,8.36815685 C18.346687,7.09704426 17.3866859,6.35553192 16.2133532,6.35553192 C15.0400175,6.35553192 14.0800164,7.30889739 13.6533503,8.58000998 L13.6533503,6.6733411 L10.9866815,6.6733411 L10.9866815,17.7955763 L13.6533503,17.7955763 L13.6533503,10.5925946 C13.6533503,9.63926013 14.4000168,9.00370384 15.2533521,9.00370384 C15.6800182,9.00370384 16.4266879,9.74518515 16.4266879,10.1688914 L16.4266879,17.6896512 L19.0933566,17.6896512 L19.0933566,11.7577821 L19.0933566,10.2748164 C19.2000233,9.63926013 19.946692,9.00370384 20.5866927,9.10962885 C21.1200277,9.10962885 21.7600284,9.85111016 21.7600284,10.3807414 L21.7600284,17.7955763 L24.4266972,17.7955763 L24.4266972,9.32146026 C24.0000311,7.62664451 23.2533614,6.35553192 21.4400281,6.35553192 L21.4400249,6.35553192 Z" id="路径" fill="#221E1F" fill-rule="nonzero"></path>
                        <path d="M24.2133719,9.42742872 L24.2133719,9.85113188 C24.4073113,9.74520594 24.4073113,9.53335374 24.2133719,9.42742872 Z" id="路径" fill="#221E1F" fill-rule="nonzero"></path>
                        <path d="M61.3335089,6.35555364 C60.1601731,6.35555364 59.200172,7.30889739 58.7735059,8.58000998 L58.7735059,6.6733411 L56.1068372,6.6733411 L56.1068372,17.7955763 L58.7735059,17.7955763 L58.7735059,10.5925946 C58.7735059,9.63926013 59.5201724,9.00370384 60.3735078,9.00370384 C60.8001739,9.00370384 61.5468435,9.74518515 61.5468435,10.1688914 L61.5468435,17.6896512 L64.0001807,17.6896512 L64.0001807,8.89777882 C64.0001807,7.4148131 62.5068446,6.35555364 61.333512,6.35555364 L61.3335089,6.35555364 Z M50.1334958,6.35556295 C47.5734929,6.35556295 45.5468342,8.89778813 45.5468342,12.1814853 C45.5468342,15.3592668 47.5735022,18.0074077 50.1334958,18.0074077 C52.6934988,18.0074077 54.7201574,15.4651825 54.7201574,12.1814853 C54.6134907,9.00370384 52.5868206,6.35556295 50.1334958,6.35556295 Z M51.5201631,14.1941009 C51.5201631,14.9355822 50.8801623,15.5711385 50.1334958,15.5711385 L50.0268292,15.5711385 C49.2801627,15.5711385 48.6401619,14.9355822 48.6401619,14.1941009 L48.6401619,10.062985 C48.6401619,9.32150371 49.2801627,8.68594741 50.0268292,8.68594741 L50.1334958,8.68594741 C50.8801623,8.68594741 51.5201631,9.32150371 51.5201631,10.062985 L51.5201631,14.1941009 L51.5201631,14.1941009 Z" id="形状" fill="#221E1F" fill-rule="nonzero"></path>
                        <path d="M9.70666755,18.7489107 C9.70666755,18.7489107 16.7466757,23.1978048 26.1333429,23.3037205 C35.5200101,23.4096464 38.9333578,20.6555703 39.7867025,20.4437171 C40.6400379,20.2318649 40.4267033,21.1851985 39.7867025,21.7148297 C39.1467018,22.244461 31.1466925,26.3755862 24.8533414,25.74003 C18.5599903,25.1044737 12.6933273,22.5622485 9.59997992,19.4903827 C8.6399788,18.4311232 9.70664661,18.7489014 9.70664661,18.7489014 L9.70666755,18.7489107 Z" id="路径" fill="#F59328" fill-rule="nonzero"></path>
                        <path d="M37.2266058,19.5963294 C37.2266058,19.5963294 41.0666103,18.8548481 41.3866107,19.5963294 C41.706611,20.3378108 40.6399442,23.0918891 40.2132749,23.8333611 C39.8932745,24.3629923 40.639941,24.4689174 40.9599414,24.1511392 C41.2799418,23.7274361 43.0932783,21.502989 42.8799436,19.0666889 C42.8799436,18.2192794 42.2399429,18.0074294 41.0666072,18.0074294 C40.3199407,18.0074294 37.7599471,18.5370607 36.7999459,19.0666889 C36.6932793,19.1726148 36.5866123,19.7022451 37.2266121,19.5963201 L37.2266058,19.5963294 Z" id="路径" fill="#F59328" fill-rule="nonzero"></path>
                    </g>
                </g>
            </g>
        </g>
    </g>
</svg>