<?xml version="1.0" encoding="UTF-8"?>
<svg width="16px" height="16px" viewBox="0 0 16 16" version="1.1" xmlns="http://www.w3.org/2000/svg" xmlns:xlink="http://www.w3.org/1999/xlink">
    <!-- Generator: Sketch 59 (86127) - https://sketch.com -->
    <title>system-wait-L</title>
    <desc>Created with Sketch.</desc>
    <g id="页面-1" stroke="none" stroke-width="1" fill="none" fill-rule="evenodd">
        <g id="自定义预设-3备份-8" transform="translate(-1312.000000, -937.000000)" fill="#00A4FF" fill-rule="nonzero">
            <g id="编组-6备份-2" transform="translate(616.000000, 902.000000)">
                <g id="system-wait-L" transform="translate(696.000000, 35.000000)">
                    <path d="M8.75096614,3.82851018 L7.74560708,3.82851018 L7.74560708,8.16505895 L10.814203,11.2336549 L11.5194549,10.5209003 L8.75096614,7.75241158 L8.75096614,3.82851018 Z M8.24828661,1 C4.38440666,1 1.24828661,4.13612004 1.24828661,8 C1.24828661,11.86388 4.38440666,15 8.24828661,15 C12.1121666,15 15.2482866,11.86388 15.2482866,8 C15.2482866,4.13612004 12.1121666,1 8.24828661,1 Z M8.24828661,14.0021436 C4.93960494,14.0021436 2.24614299,11.3086817 2.24614299,8 C2.24614299,4.69131833 4.93960494,1.99785638 8.24828661,1.99785638 C11.5569683,1.99785638 14.2504302,4.69131833 14.2504302,8 C14.2504302,11.3086817 11.5569683,14.0021436 8.24828661,14.0021436 Z" id="形状"></path>
                </g>
            </g>
        </g>
    </g>
</svg>