<?xml version="1.0" encoding="UTF-8"?>
<svg width="140px" height="139px" viewBox="0 0 140 139" version="1.1" xmlns="http://www.w3.org/2000/svg" xmlns:xlink="http://www.w3.org/1999/xlink">
    <!-- Generator: Sketch 63.1 (92452) - https://sketch.com -->
    <title>营销短信</title>
    <desc>Created with Sketch.</desc>
    <defs>
        <linearGradient x1="50%" y1="0%" x2="50%" y2="100%" id="linearGradient-1">
            <stop stop-color="#7E59FC" offset="0%"></stop>
            <stop stop-color="#DF4BFF" offset="100%"></stop>
        </linearGradient>
        <linearGradient x1="50%" y1="0%" x2="50%" y2="100%" id="linearGradient-2">
            <stop stop-color="#B79AFE" offset="0%"></stop>
            <stop stop-color="#E1BBFF" offset="100%"></stop>
        </linearGradient>
        <linearGradient x1="50%" y1="0%" x2="50%" y2="100%" id="linearGradient-3">
            <stop stop-color="#5A59FC" stop-opacity="0.217493444" offset="0%"></stop>
            <stop stop-color="#7C20FC" offset="100%"></stop>
        </linearGradient>
        <linearGradient x1="50%" y1="0%" x2="50%" y2="100%" id="linearGradient-4">
            <stop stop-color="#8C78F9" offset="0%"></stop>
            <stop stop-color="#E4E1FF" offset="100%"></stop>
        </linearGradient>
        <linearGradient x1="0%" y1="50%" x2="100%" y2="50%" id="linearGradient-5">
            <stop stop-color="#9D8BFA" offset="0%"></stop>
            <stop stop-color="#907EF9" offset="100%"></stop>
        </linearGradient>
        <linearGradient x1="50%" y1="0%" x2="50%" y2="100%" id="linearGradient-6">
            <stop stop-color="#775BFF" offset="0%"></stop>
            <stop stop-color="#352EF6" offset="100%"></stop>
        </linearGradient>
        <linearGradient x1="50%" y1="0%" x2="50%" y2="97.4609375%" id="linearGradient-7">
            <stop stop-color="#421DFC" offset="0%"></stop>
            <stop stop-color="#4C0AFF" offset="100%"></stop>
        </linearGradient>
        <linearGradient x1="9.72686135%" y1="77.4401549%" x2="85.0694405%" y2="0%" id="linearGradient-8">
            <stop stop-color="#D0E0E7" offset="0%"></stop>
            <stop stop-color="#ADA1F8" offset="24.8073269%"></stop>
            <stop stop-color="#ABA0F8" offset="100%"></stop>
        </linearGradient>
    </defs>
    <g id="新增-日标" stroke="none" stroke-width="1" fill="none" fill-rule="evenodd">
        <g id="日标-服务详情" transform="translate(-481.000000, -1334.000000)">
            <g id="所需资料" transform="translate(360.000000, 1224.000000)">
                <g id="编组-28" transform="translate(72.000000, 85.000000)">
                    <g id="编组-5">
                        <g id="营销短信" transform="translate(49.000000, 25.000000)">
                            <polygon id="路径-27复制-9" stroke="url(#linearGradient-2)" fill-opacity="0.1" fill="url(#linearGradient-1)" fill-rule="nonzero" opacity="0.538690476" points="1 99.3871652 65.7051627 138 132 99.3871652 66.5 60"></polygon>
                            <circle id="椭圆形复制-7" stroke="#CCA3FB" fill="#E9E5FD" fill-rule="nonzero" cx="131.5" cy="17.5" r="7.5"></circle>
                            <circle id="椭圆形复制-9" stroke="#4D2EFC" fill="#EDEBFD" fill-rule="nonzero" cx="33.5" cy="120.5" r="7.5"></circle>
                            <circle id="椭圆形复制-8" fill="#4120FC" fill-rule="nonzero" cx="131.5" cy="17.5" r="1.5"></circle>
                            <circle id="椭圆形复制-14" fill="#4221FC" fill-rule="nonzero" cx="33.5" cy="120.5" r="1.5"></circle>
                            <path d="M66,16 L115,44.25 L115,100.75 L66,129 L17,100.75 L17,44.25 L66,16 Z" id="多边形" stroke="url(#linearGradient-4)" fill-opacity="0.46" fill="url(#linearGradient-3)" fill-rule="nonzero" stroke-dasharray="5"></path>
                            <polygon id="多边形复制" fill-opacity="0.46" fill="url(#linearGradient-5)" fill-rule="nonzero" points="66.5 71 115 100.647322 66.5 129 18 100.647322"></polygon>
                            <path d="M110.440171,40.0365854 L115,42.7418088 L115,49 M18,49 L18,43.0069555 L23.8034188,39.6097561 M60.6965812,17.5841678 L66.4989968,14 L66.4989968,14 L72.7179487,17.8414634" id="形状" stroke="url(#linearGradient-6)" stroke-width="3"></path>
                            <polygon id="多边形复制-3" fill="url(#linearGradient-7)" fill-rule="nonzero" points="65.4999999 36 96 54 96 90 65.4999999 108 35 90 35 54"></polygon>
                            <g id="编组-31" transform="translate(48.000000, 52.000000)">
                                <path d="M5.47903593,0.264246812 L33.4450307,16.3061455 C34.0570372,16.6572056 34.4387835,17.3058699 34.4492478,18.0125134 L34.728651,36.8803185 C34.7331022,37.181026 34.669842,37.4788699 34.5435751,37.7516901 C33.9620497,39.0081737 32.6430492,40.0496454 30.5865741,40.8761059 C24.8130054,37.4957036 15.4615135,31.2399545 2.53209759,22.1088586 C2.03878366,21.7604704 1.72924591,21.2070864 1.69008755,20.6035371 L0.495754896,2.19528685 L3.40786035,0.317978762 C4.03418448,-0.0857853205 4.8327075,-0.106501161 5.47903593,0.264246812 Z" id="矩形复制-33" fill="url(#linearGradient-8)" fill-rule="nonzero"></path>
                                <path d="M3.00181225,1.84107574 L30.9441243,18.1826522 C31.5571431,18.5411656 31.9340709,19.1989815 31.9340709,19.9103108 L31.9340709,38.9776472 C31.9340709,40.0823811 31.0404854,40.9779446 29.9381915,40.9779446 C29.5847069,40.9779446 29.2375636,40.8838583 28.9322587,40.7053057 L0.989946618,24.3637294 C0.376927819,24.005216 -2.10100137e-13,23.3474001 -2.10100137e-13,22.6360708 L-2.10100137e-13,3.56873433 C-2.10100137e-13,2.46400057 0.893585559,1.56843687 1.99587943,1.56843687 C2.34936405,1.56843687 2.69650736,1.66252343 3.00181225,1.84107574 Z" id="矩形" fill="#AFB4FD" fill-rule="nonzero"></path>
                                <line x1="19.599536" y1="17.5026665" x2="27.7227653" y2="21.8550955" id="直线-3" stroke="#421FFC" stroke-width="2" stroke-linecap="round" stroke-linejoin="round"></line>
                                <line x1="14.1900589" y1="21.0842738" x2="27.3242333" y2="28.2631191" id="直线-3复制" stroke="#421FFC" stroke-width="2" stroke-linecap="round" stroke-linejoin="round"></line>
                                <line x1="3.41050289" y1="20.6907512" x2="27.7252163" y2="35.0575934" id="直线-3复制-2" stroke="#421FFC" stroke-width="2" stroke-linecap="round" stroke-linejoin="round"></line>
                            </g>
                            <g id="qiye" transform="translate(57.448467, 65.971603) rotate(29.000000) translate(-57.448467, -65.971603) translate(52.948467, 60.971603)" fill-rule="nonzero">
                                <path d="M8.21159812,9.49781309 L5.34162066,9.49781309 C5.12364769,9.53416697 4.90567472,9.3523976 4.86934589,9.09792048 L4.86934589,3.53577777 C4.90567472,3.28130065 5.12364769,3.09953129 5.37794949,3.13588516 C5.41427832,3.13588516 5.45060715,3.13588516 5.48693597,3.17223904 L8.35691343,4.15379363 C8.53855757,4.19014751 8.64754406,4.335563 8.64754406,4.51733237 L8.64754406,9.13427435 C8.64754406,9.35239759 8.46589992,9.53416696 8.21159812,9.49781309 Z" id="路径" fill="#4727FC"></path>
                                <path d="M0.437228803,9.49781309 L5.12364769,9.49781309 C5.34162066,9.53416697 5.55959363,9.3523976 5.59592246,9.09792048 L5.59592246,0.409344624 C5.55959363,0.154867507 5.34162066,-0.0269018596 5.08731886,0.00945200579 C5.05099003,0.00945200579 5.0146612,0.00945200579 4.97833237,0.0458058811 L0.291913493,1.60902246 C0.110269353,1.64537634 0.00128286318,1.79079183 0.00128286318,1.97256119 L0.00128286318,9.09792048 C0.00128286318,9.35239759 0.182927003,9.53416696 0.437228803,9.49781309 Z" id="路径" fill="#4727FC"></path>
                                <path d="M7.92096749,8.5162585 L6.21351254,8.5162585 C6.06819723,8.5162585 5.92288192,8.40719688 5.92288192,8.22542751 C5.92288192,8.08001202 6.03186841,7.93459652 6.21351254,7.93459652 L7.92096749,7.93459652 C8.0662828,7.93459652 8.21159812,8.04365814 8.21159812,8.22542751 C8.21159812,8.40719688 8.06628281,8.5162585 7.92096749,8.5162585 Z M4.10644049,4.19014751 L1.38177834,4.19014751 C1.16380537,4.19014751 1.01849006,4.00837814 1.01849006,3.82660876 C1.01849006,3.60848552 1.2001342,3.46307003 1.38177834,3.46307003 L4.10644049,3.46307003 C4.32441346,3.46307003 4.46972878,3.6448394 4.46972877,3.82660876 C4.5060576,4.00837813 4.32441346,4.19014751 4.10644049,4.19014751 L4.10644049,4.19014751 Z M4.10644049,6.0078412 L1.38177834,6.0078412 C1.16380537,6.0078412 1.01849006,5.82607184 1.01849006,5.64430246 C1.01849006,5.42617922 1.2001342,5.28076372 1.38177834,5.28076372 L4.10644049,5.28076372 C4.32441346,5.28076372 4.46972878,5.46253308 4.46972877,5.64430246 C4.5060576,5.8624257 4.32441346,6.0078412 4.10644049,6.0078412 L4.10644049,6.0078412 Z M4.10644049,7.86188877 L1.38177834,7.86188877 C1.16380537,7.86188877 1.01849006,7.6801194 1.01849006,7.49835003 C1.01849006,7.28022679 1.2001342,7.13481129 1.38177834,7.13481129 L4.10644049,7.13481129 C4.32441346,7.13481129 4.46972878,7.31658066 4.46972877,7.49835003 C4.5060576,7.6801194 4.32441346,7.86188877 4.10644049,7.86188877 L4.10644049,7.86188877 Z" id="形状" fill="#D4C1FF"></path>
                            </g>
                        </g>
                    </g>
                </g>
            </g>
        </g>
    </g>
</svg>