<?xml version="1.0" encoding="UTF-8"?>
<svg width="136px" height="142px" viewBox="0 0 136 142" version="1.1" xmlns="http://www.w3.org/2000/svg" xmlns:xlink="http://www.w3.org/1999/xlink">
    <!-- Generator: Sketch 63.1 (92452) - https://sketch.com -->
    <title>来电名片</title>
    <desc>Created with Sketch.</desc>
    <defs>
        <linearGradient x1="53.5628878%" y1="39.2601769%" x2="50%" y2="60.7398231%" id="linearGradient-1">
            <stop stop-color="#5C4AF7" offset="0%"></stop>
            <stop stop-color="#6024F4" offset="100%"></stop>
        </linearGradient>
        <linearGradient x1="50%" y1="0%" x2="50%" y2="100%" id="linearGradient-2">
            <stop stop-color="#59D0FC" stop-opacity="0" offset="0%"></stop>
            <stop stop-color="#6E41FF" offset="100%"></stop>
        </linearGradient>
        <linearGradient x1="50%" y1="0%" x2="50%" y2="100%" id="linearGradient-3">
            <stop stop-color="#431DF1" offset="0%"></stop>
            <stop stop-color="#5126F9" offset="100%"></stop>
        </linearGradient>
        <linearGradient x1="53.5628878%" y1="39.2601769%" x2="50%" y2="60.7398231%" id="linearGradient-4">
            <stop stop-color="#634DFA" offset="0%"></stop>
            <stop stop-color="#6B26FC" offset="100%"></stop>
        </linearGradient>
        <linearGradient x1="50%" y1="0%" x2="50%" y2="100%" id="linearGradient-5">
            <stop stop-color="#A093FA" offset="0%"></stop>
            <stop stop-color="#654BFB" offset="100%"></stop>
        </linearGradient>
        <linearGradient x1="50%" y1="0%" x2="50%" y2="100%" id="linearGradient-6">
            <stop stop-color="#A093FA" offset="0%"></stop>
            <stop stop-color="#7058FC" offset="100%"></stop>
        </linearGradient>
        <linearGradient x1="50%" y1="0%" x2="50%" y2="100%" id="linearGradient-7">
            <stop stop-color="#9E90FA" offset="0%"></stop>
            <stop stop-color="#644AFB" offset="100%"></stop>
        </linearGradient>
        <linearGradient x1="50%" y1="0%" x2="50%" y2="100%" id="linearGradient-8">
            <stop stop-color="#755EFC" offset="0%"></stop>
            <stop stop-color="#DEDAFE" offset="100%"></stop>
        </linearGradient>
        <linearGradient x1="50%" y1="0%" x2="50%" y2="100%" id="linearGradient-9">
            <stop stop-color="#644AFB" offset="0%"></stop>
            <stop stop-color="#E5E2FF" offset="100%"></stop>
        </linearGradient>
        <linearGradient x1="50%" y1="0.137246622%" x2="50%" y2="100%" id="linearGradient-10">
            <stop stop-color="#6950FB" offset="0%"></stop>
            <stop stop-color="#CEC7FF" offset="100%"></stop>
        </linearGradient>
        <linearGradient x1="50%" y1="41.838236%" x2="50%" y2="96.7020963%" id="linearGradient-11">
            <stop stop-color="#2624FB" offset="0%"></stop>
            <stop stop-color="#6231F9" offset="100%"></stop>
        </linearGradient>
        <linearGradient x1="9.41004765%" y1="77.4401549%" x2="85.3453186%" y2="0%" id="linearGradient-12">
            <stop stop-color="#8276F9" offset="0%"></stop>
            <stop stop-color="#8D83F8" offset="24.8073269%"></stop>
            <stop stop-color="#AEA2F8" offset="100%"></stop>
        </linearGradient>
    </defs>
    <g id="新增-日标" stroke="none" stroke-width="1" fill="none" fill-rule="evenodd">
        <g id="日标-服务详情" transform="translate(-870.000000, -1333.000000)">
            <g id="来电名片" transform="translate(871.000000, 1334.000000)">
                <path d="M19,80 L19,98.4519804 C19,98.6178597 19.0872688,98.7710911 19.2288286,98.8537691 L63.701662,124.828248 C66.3521938,126.376299 69.6094814,126.391388 72.2738006,124.867958 L117.767471,98.8551614 C117.913045,98.7719239 118.002196,98.6145186 118,98.4448352 L117.757023,80.7132927 C117.757023,81.3476559 117.548527,81.8346708 117.131534,82.1743374 C103.300241,89.9536782 88.4598819,98.3404306 72.6104577,107.334595 C69.4954644,109.102279 65.6908594,109.057087 62.6174041,107.215896 C36.4766861,91.5559766 22.2473406,83.0389572 19.929368,81.6648373 C19.3097893,81.1990688 19,80.6441232 19,80 Z" id="路径-57复制" fill="url(#linearGradient-1)" fill-rule="nonzero"></path>
                <path d="M19,1 L19,113.951538 C19,114.11395 19.0871142,114.264 19.2284749,114.345077 L63.6936992,139.847839 C66.3476958,141.370022 69.6116126,141.384847 72.2794502,139.886833 L117.767909,114.344683 C117.911612,114.263992 118,114.11235 118,113.948104 L117.754597,1.70044161 L19,1 Z" id="路径-57复制-2" fill="url(#linearGradient-2)" fill-rule="nonzero" opacity="0.187104725"></path>
                <path d="M19.9334857,78.8033434 L66.1316449,52.5914837 C67.5467337,51.7885919 69.2770478,51.8040387 70.6778762,52.6320681 L117.320902,80.2027525 C117.974617,80.5891636 118.19454,81.4378741 117.812113,82.0984001 C117.688453,82.3119843 117.510443,82.488212 117.296579,82.608771 L72.7643085,107.712426 C69.6413194,109.472912 65.8279821,109.425178 62.7491152,107.587059 L19.8986037,82.0048074 C19.0292081,81.4857682 18.7408498,80.3528772 19.2545375,79.4744241 C19.4183987,79.1942065 19.6526169,78.9627022 19.9334857,78.8033434 Z" id="矩形复制-7" fill="url(#linearGradient-3)" fill-rule="nonzero" opacity="0.481538318"></path>
                <path d="M19,54 L19,72.4519804 C19,72.6178597 19.0872689,72.7710911 19.2288288,72.8537691 L63.7016998,98.8282482 C66.3522339,100.376299 69.6095243,100.391388 72.2738457,98.8679584 L117.767555,72.8551614 C117.913128,72.7719239 118.00228,72.6145186 118,72.4448352 L117.757107,54.7132927 L117.757107,54.7132927 C117.757107,55.3476559 117.54861,55.8346708 117.131617,56.1743374 C103.300312,63.9536782 88.4599407,72.3404306 72.6105031,81.3345947 L72.6105035,81.3345956 C69.4955072,83.1022788 65.690899,83.0570868 62.617441,81.2158956 C36.4767008,65.5559766 22.2473434,57.0389572 19.9293688,55.6648373 C19.3097896,55.1990688 19,54.6441232 19,54 Z" id="路径-57" fill="url(#linearGradient-4)" fill-rule="nonzero"></path>
                <circle id="椭圆形复制-7" stroke="url(#linearGradient-5)" cx="20" cy="2" r="2"></circle>
                <circle id="椭圆形复制-13" stroke="url(#linearGradient-6)" cx="132" cy="78" r="2"></circle>
                <circle id="椭圆形复制-14" stroke="url(#linearGradient-7)" cx="2" cy="92" r="2"></circle>
                <line x1="20" y1="4" x2="20" y2="29" id="直线复制-6" stroke="url(#linearGradient-8)" stroke-linecap="square"></line>
                <line x1="132" y1="80" x2="132" y2="105" id="直线复制-8" stroke="url(#linearGradient-9)" stroke-linecap="square"></line>
                <line x1="2" y1="94" x2="2" y2="119" id="直线复制-9" stroke="url(#linearGradient-10)" stroke-linecap="square"></line>
                <path d="M19.9334857,53.8033434 L66.1316449,27.5914836 C67.5467337,26.7885921 69.2770478,26.8040386 70.6778762,27.632068 L117.320902,55.2027525 C117.974617,55.5891636 118.19454,56.4378741 117.812113,57.0984001 C117.688453,57.3119843 117.510443,57.488212 117.296579,57.608771 L72.7643085,82.7124262 C69.6413194,84.4729124 65.8279821,84.4251777 62.7491152,82.5870587 L19.8986037,57.0048074 C19.0292081,56.4857682 18.7408498,55.3528772 19.2545375,54.4744241 C19.4183987,54.1942065 19.6526169,53.9627022 19.9334857,53.8033434 Z" id="矩形" fill="url(#linearGradient-11)" fill-rule="nonzero"></path>
                <g id="编组-31" transform="translate(48.000000, 15.000000)">
                    <path d="M6.24414766,0.299967853 L38.1154117,18.5104199 C38.8128809,18.9089365 39.2479356,19.6452877 39.2598612,20.4474557 L39.5785315,41.8658218 C39.583354,42.2071792 39.51126,42.5452858 39.3673607,42.8549859 C38.704629,44.2813218 37.2014387,45.4635802 34.8577902,46.4017621 C28.2779802,42.5643951 17.6206133,35.4629901 2.88568855,25.0975472 C2.32348653,24.7020637 1.97072385,24.0738729 1.92609729,23.3887355 L0.564983842,2.49204703 L0.564983842,2.49204703 L3.88374588,0.36096332 C4.5975321,-0.097381831 5.50756366,-0.120898051 6.24414766,0.299967853 Z" id="矩形复制-33" fill="url(#linearGradient-12)" fill-rule="nonzero"></path>
                    <path d="M3.4209958,2.08995345 L35.26527,20.6405939 C35.9638929,21.0475713 36.3934562,21.7943112 36.3934562,22.6017984 L36.3934562,44.2466687 C36.3934562,45.5007411 35.3750873,46.5173675 34.1188652,46.5173675 C33.7160188,46.5173675 33.3203991,46.4105625 32.9724604,46.2078731 L1.12818622,27.6572328 C0.429563337,27.2502554 -2.11009661e-13,26.5035155 -2.11009661e-13,25.6960283 L-2.11009661e-13,4.05115796 C-2.11009661e-13,2.79708563 1.01836897,1.7804591 2.27459101,1.7804591 C2.67743746,1.7804591 3.07305707,1.88726433 3.4209958,2.08995345 Z" id="矩形" fill="#B6BDFD" fill-rule="nonzero"></path>
                    <line x1="22.3364838" y1="19.8686873" x2="31.5940692" y2="24.8094803" id="直线-3" stroke="#421FFC" stroke-width="2" stroke-linecap="round" stroke-linejoin="round"></line>
                    <line x1="16.1716083" y1="23.9344585" x2="31.1398848" y2="32.0837443" id="直线-3复制" stroke="#421FFC" stroke-width="2" stroke-linecap="round" stroke-linejoin="round"></line>
                    <line x1="3.88675744" y1="23.4877393" x2="31.5968624" y2="39.7966997" id="直线-3复制-2" stroke="#421FFC" stroke-width="2" stroke-linecap="round" stroke-linejoin="round"></line>
                    <g id="geren-2" transform="translate(9.556903, 15.754325) scale(-1, 1) rotate(-28.000000) translate(-9.556903, -15.754325) translate(4.556903, 10.754325)" fill="#421FFC" fill-rule="nonzero">
                        <path d="M1.95086356,2.59348672 C1.95086356,4.02476495 3.11313262,5.1850452 4.54686417,5.1850452 C5.98059572,5.1850452 7.14286478,4.02476495 7.14286478,2.59348672 C7.14286478,1.1622085 5.98059572,0.00192824291 4.54686417,0.00192824291 C3.11313262,0.00192824291 1.95086356,1.1622085 1.95086356,2.59348672 Z" id="路径"></path>
                        <path d="M8.25543648,9.72798551 L0.830565673,9.72798551 C0.374720327,9.72798551 0.00386309615,9.35776287 0.00386309615,8.90269754 L0.00386309615,8.33965061 L0.0193154808,8.29337278 C0.575601327,6.75077845 2.43761367,5.67096241 4.53913798,5.67096241 C6.64066228,5.67096241 8.50267463,6.75077845 9.05896048,8.29337278 L9.07441286,8.33965061 L9.07441286,8.90269754 C9.08213905,9.35776287 8.71128182,9.72798551 8.25543648,9.72798551 Z" id="路径"></path>
                    </g>
                </g>
                <g id="来电" transform="translate(52.000000, 24.000000)"></g>
            </g>
        </g>
    </g>
</svg>