<?xml version="1.0" encoding="UTF-8"?>
<svg width="138px" height="144px" viewBox="0 0 138 144" version="1.1" xmlns="http://www.w3.org/2000/svg" xmlns:xlink="http://www.w3.org/1999/xlink">
    <!-- Generator: Sketch 58 (84663) - https://sketch.com -->
    <title>个人申请</title>
    <desc>Created with Sketch.</desc>
    <defs>
        <linearGradient x1="50%" y1="0%" x2="50%" y2="100%" id="linearGradient-1">
            <stop stop-color="#73A3F9" offset="0%"></stop>
            <stop stop-color="#055CF8" offset="100%"></stop>
        </linearGradient>
        <linearGradient x1="50%" y1="0%" x2="50%" y2="100%" id="linearGradient-2">
            <stop stop-color="#59D0FC" stop-opacity="0" offset="0%"></stop>
            <stop stop-color="#4B79FF" offset="100%"></stop>
        </linearGradient>
        <linearGradient x1="50%" y1="0%" x2="50%" y2="100%" id="linearGradient-3">
            <stop stop-color="#2A58AB" offset="0%"></stop>
            <stop stop-color="#3158FE" offset="100%"></stop>
        </linearGradient>
        <linearGradient x1="53.5628878%" y1="39.2601769%" x2="50%" y2="60.7398231%" id="linearGradient-4">
            <stop stop-color="#73A3F9" offset="0%"></stop>
            <stop stop-color="#055CF8" offset="100%"></stop>
        </linearGradient>
        <linearGradient x1="50%" y1="0%" x2="50%" y2="100%" id="linearGradient-5">
            <stop stop-color="#59D0FC" offset="0%"></stop>
            <stop stop-color="#4B79FF" offset="100%"></stop>
        </linearGradient>
        <linearGradient x1="50%" y1="0%" x2="50%" y2="100%" id="linearGradient-6">
            <stop stop-color="#4B79FF" offset="0%"></stop>
            <stop stop-color="#59D0FC" stop-opacity="0" offset="100%"></stop>
        </linearGradient>
        <linearGradient x1="50%" y1="15.7437711%" x2="50%" y2="99.5908995%" id="linearGradient-7">
            <stop stop-color="#73A3F9" offset="0%"></stop>
            <stop stop-color="#1C6AF5" offset="100%"></stop>
        </linearGradient>
        <linearGradient x1="9.87704226%" y1="77.4401549%" x2="84.9386644%" y2="0%" id="linearGradient-8">
            <stop stop-color="#B6E8FD" offset="0%"></stop>
            <stop stop-color="#7CD5FF" offset="25.306962%"></stop>
            <stop stop-color="#93AEFF" offset="100%"></stop>
        </linearGradient>
    </defs>
    <g id="欧标" stroke="none" stroke-width="1" fill="none" fill-rule="evenodd">
        <g id="欧标-服务详情" transform="translate(-869.000000, -1334.000000)">
            <g id="所需资料" transform="translate(360.000000, 1224.000000)">
                <g id="编组-28" transform="translate(72.000000, 85.000000)">
                    <g id="编组-5备份-4" transform="translate(387.000000, 0.000000)">
                        <g id="来电名片" transform="translate(50.000000, 25.000000)">
                            <path d="M21,82 L21,100.45198 C21,100.61786 21.0872689,100.771091 21.2288288,100.853769 L65.7016998,126.828248 C68.3522339,128.376299 71.6095243,128.391388 74.2738457,126.867958 L119.767555,100.855161 C119.913128,100.771924 120.00228,100.614519 120,100.444835 L119.757107,82.7132927 L119.757107,82.7132927 C119.757107,83.3476559 119.54861,83.8346708 119.131617,84.1743374 C105.300312,91.9536782 90.4599407,100.340431 74.6105031,109.334595 L74.6105035,109.334596 C71.4955072,111.102279 67.690899,111.057087 64.617441,109.215896 C38.4767008,93.5559766 24.2473434,85.0389572 21.9293688,83.6648373 C21.3097896,83.1990688 21,82.6441232 21,82 Z" id="路径-57复制" fill="url(#linearGradient-1)" fill-rule="nonzero" opacity="0.558570499"></path>
                            <path d="M21,2 L21,115.758335 C21,115.921906 21.0871142,116.073029 21.2284749,116.154684 L65.6936992,141.839609 C68.3476958,143.372666 71.6116126,143.387596 74.2794502,141.878882 L119.767909,116.154288 C119.911612,116.073021 120,115.920296 120,115.754876 L119.754597,2.70544476 L119.754597,2.70544476 L21,2 Z" id="路径-57复制-2" fill="url(#linearGradient-2)" fill-rule="nonzero" opacity="0.187104725"></path>
                            <path d="M20.9334857,79.8033434 L67.1316449,53.5914837 C68.5467337,52.7885919 70.2770478,52.8040387 71.6778762,53.6320681 L118.320902,81.2027525 C118.974617,81.5891636 119.19454,82.4378741 118.812113,83.0984001 C118.688453,83.3119843 118.510443,83.488212 118.296579,83.608771 L73.7643085,108.712426 C70.6413194,110.472912 66.8279821,110.425178 63.7491152,108.587059 L20.8986037,83.0048074 C20.0292081,82.4857682 19.7408498,81.3528772 20.2545375,80.4744241 C20.4183987,80.1942065 20.6526169,79.9627022 20.9334857,79.8033434 Z" id="矩形复制-7" fill="url(#linearGradient-3)" fill-rule="nonzero" opacity="0.481538318"></path>
                            <path d="M21,56 L21,74.4519804 C21,74.6178597 21.0872689,74.7710911 21.2288288,74.8537691 L65.7016998,100.828248 C68.3522339,102.376299 71.6095243,102.391388 74.2738457,100.867958 L119.767555,74.8551614 C119.913128,74.7719239 120.00228,74.6145186 120,74.4448352 L119.757107,56.7132927 L119.757107,56.7132927 C119.757107,57.3476559 119.54861,57.8346708 119.131617,58.1743374 C105.300312,65.9536782 90.4599407,74.3404306 74.6105031,83.3345947 L74.6105035,83.3345956 C71.4955072,85.1022788 67.690899,85.0570868 64.617441,83.2158956 C38.4767008,67.5559766 24.2473434,59.0389572 21.9293688,57.6648373 C21.3097896,57.1990688 21,56.6441232 21,56 Z" id="路径-57" fill="url(#linearGradient-4)" fill-rule="nonzero"></path>
                            <circle id="椭圆形复制-7" stroke="url(#linearGradient-5)" cx="23.5" cy="3.5" r="2.5"></circle>
                            <circle id="椭圆形复制-13" stroke="url(#linearGradient-5)" cx="134.5" cy="80.5" r="2.5"></circle>
                            <circle id="椭圆形复制-14" stroke="url(#linearGradient-5)" cx="3.5" cy="94.5" r="2.5"></circle>
                            <path d="M23,6 L23,31" id="直线复制-6" stroke="url(#linearGradient-6)" stroke-linecap="square"></path>
                            <path d="M135,82 L135,107" id="直线复制-8" stroke="url(#linearGradient-6)" stroke-linecap="square"></path>
                            <path d="M3,97 L3,122" id="直线复制-9" stroke="url(#linearGradient-6)" stroke-linecap="square"></path>
                            <path d="M20.9334857,54.8033434 L67.1316449,28.5914836 C68.5467337,27.7885921 70.2770478,27.8040386 71.6778762,28.632068 L118.320902,56.2027525 C118.974617,56.5891636 119.19454,57.4378741 118.812113,58.0984001 C118.688453,58.3119843 118.510443,58.488212 118.296579,58.608771 L73.7643085,83.7124262 C70.6413194,85.4729124 66.8279821,85.4251777 63.7491152,83.5870587 L20.8986037,58.0048074 C20.0292081,57.4857682 19.7408498,56.3528772 20.2545375,55.4744241 C20.4183987,55.1942065 20.6526169,54.9627022 20.9334857,54.8033434 Z" id="矩形" fill="url(#linearGradient-7)" fill-rule="nonzero"></path>
                            <g id="编组-31" transform="translate(50.000000, 16.000000)">
                                <path d="M6.29111691,0.303977967 L38.4021205,18.7578761 C39.1048362,19.1617202 39.5431634,19.9079154 39.5551788,20.7208071 L39.8762462,42.4255043 C39.8811049,42.771425 39.8084686,43.1140516 39.6634869,43.427892 C38.99577,44.8732958 37.4812725,46.0713592 35.1199948,47.0220832 C28.4906907,43.1334164 17.7531578,35.9370764 2.90739506,25.4330633 C2.34096409,25.0322927 1.98554788,24.395704 1.94058563,23.7014074 L0.569233721,2.52536191 L0.569233721,2.52536191 L3.9129599,0.365788851 C4.63211531,-0.0986836781 5.54899224,-0.122514274 6.29111691,0.303977967 Z" id="矩形复制-33" fill="url(#linearGradient-8)" fill-rule="nonzero"></path>
                                <path d="M3.44672896,2.11789295 L35.5305397,20.9165273 C36.2344177,21.3289454 36.6672123,22.085668 36.6672123,22.9039501 L36.6672123,44.8381794 C36.6672123,46.1090169 35.641183,47.139234 34.3755115,47.139234 C33.9696348,47.139234 33.5710393,47.0310012 33.2204834,46.8256021 L1.13667258,28.026968 C0.432794565,27.6145499 -1.7408297e-13,26.8578272 -1.7408297e-13,26.0395451 L-1.7408297e-13,4.10531578 C-1.7408297e-13,2.83447842 1.02602927,1.80426113 2.29170077,1.80426113 C2.69757748,1.80426113 3.09617299,1.91249419 3.44672896,2.11789295 Z" id="矩形" fill="#B6E5FD" fill-rule="nonzero"></path>
                                <path d="M22.5045016,20.1343015 L31.8317237,25.1411454" id="直线-3" stroke="#8CB5ED" stroke-width="2" stroke-linecap="round" stroke-linejoin="round"></path>
                                <path d="M16.2932532,24.2544258 L31.3741228,32.5126552" id="直线-3复制" stroke="#8CB5ED" stroke-width="2" stroke-linecap="round" stroke-linejoin="round"></path>
                                <path d="M3.91599411,23.8017346 L31.8345379,40.3287211" id="直线-3复制-2" stroke="#8CB5ED" stroke-width="2" stroke-linecap="round" stroke-linejoin="round"></path>
                                <g id="geren-2" transform="translate(9.694072, 15.923898) scale(-1, 1) rotate(-28.000000) translate(-9.694072, -15.923898) translate(4.694072, 10.923898)" fill="#8CB5ED" fill-rule="nonzero">
                                    <path d="M1.96553819,2.6281577 C1.96553819,4.07856994 3.13654999,5.25436137 4.58106625,5.25436137 C6.0255825,5.25436137 7.1965943,4.07856994 7.1965943,2.6281577 C7.1965943,1.17774546 6.0255825,0.00195402059 4.58106625,0.00195402059 C3.13654999,0.00195402059 1.96553819,1.17774546 1.96553819,2.6281577 Z" id="路径"></path>
                                    <path d="M8.31753489,9.85803389 L0.83681329,9.85803389 C0.377539019,9.85803389 0.00389215484,9.48286194 0.00389215484,9.02171308 L0.00389215484,8.45113906 L0.0194607742,8.40424257 C0.579931071,6.8410261 2.4559497,5.74677456 4.57328194,5.74677456 C6.69061417,5.74677456 8.5666328,6.8410261 9.1271031,8.40424257 L9.14267172,8.45113906 L9.14267172,9.02171308 C9.15045603,9.48286194 8.77680916,9.85803389 8.31753489,9.85803389 Z" id="路径"></path>
                                </g>
                            </g>
                            <g id="来电" transform="translate(55.000000, 26.000000)"></g>
                        </g>
                    </g>
                </g>
            </g>
        </g>
    </g>
</svg>