<?xml version="1.0" encoding="UTF-8"?>
<svg width="139px" height="138px" viewBox="0 0 139 138" version="1.1" xmlns="http://www.w3.org/2000/svg" xmlns:xlink="http://www.w3.org/1999/xlink">
    <!-- Generator: Sketch 58 (84663) - https://sketch.com -->
    <title>企业申请</title>
    <desc>Created with Sketch.</desc>
    <defs>
        <linearGradient x1="50%" y1="0%" x2="50%" y2="100%" id="linearGradient-1">
            <stop stop-color="#59D0FC" offset="0%"></stop>
            <stop stop-color="#4B79FF" offset="100%"></stop>
        </linearGradient>
        <linearGradient x1="50%" y1="0%" x2="50%" y2="100%" id="linearGradient-2">
            <stop stop-color="#59D0FC" stop-opacity="0" offset="0%"></stop>
            <stop stop-color="#20B7FC" offset="100%"></stop>
        </linearGradient>
        <linearGradient x1="50%" y1="0%" x2="50%" y2="100%" id="linearGradient-3">
            <stop stop-color="#59D0FC" stop-opacity="0.217493444" offset="0%"></stop>
            <stop stop-color="#20B7FC" offset="100%"></stop>
        </linearGradient>
        <linearGradient x1="50%" y1="0%" x2="50%" y2="100%" id="linearGradient-4">
            <stop stop-color="#5CC9FB" offset="0%"></stop>
            <stop stop-color="#20B7FC" offset="100%"></stop>
        </linearGradient>
        <linearGradient x1="0%" y1="50%" x2="100%" y2="50%" id="linearGradient-5">
            <stop stop-color="#7CD0F7" offset="0%"></stop>
            <stop stop-color="#58C4F6" offset="100%"></stop>
        </linearGradient>
        <linearGradient x1="50%" y1="0%" x2="50%" y2="100%" id="linearGradient-6">
            <stop stop-color="#20B7FC" offset="0%"></stop>
            <stop stop-color="#20B7FC" offset="100%"></stop>
        </linearGradient>
        <linearGradient x1="50%" y1="0%" x2="50%" y2="97.4609375%" id="linearGradient-7">
            <stop stop-color="#20B7FC" offset="0%"></stop>
            <stop stop-color="#0A93FF" offset="100%"></stop>
        </linearGradient>
        <linearGradient x1="10.1858108%" y1="77.4401549%" x2="84.669792%" y2="0%" id="linearGradient-8">
            <stop stop-color="#D0E0E7" offset="0%"></stop>
            <stop stop-color="#B1E0F6" offset="24.8073269%"></stop>
            <stop stop-color="#96DDFA" offset="100%"></stop>
        </linearGradient>
    </defs>
    <g id="新增-英标" stroke="none" stroke-width="1" fill="none" fill-rule="evenodd">
        <g id="英标-服务详情" transform="translate(-482.000000, -1335.000000)">
            <g id="所需资料" transform="translate(360.000000, 1224.000000)">
                <g id="编组-28" transform="translate(72.000000, 85.000000)">
                    <g id="编组-5">
                        <g id="营销短信" transform="translate(50.000000, 26.000000)">
                            <polygon id="路径-27复制-9" stroke="url(#linearGradient-1)" fill-opacity="0.1" fill="url(#linearGradient-1)" fill-rule="nonzero" opacity="0.538690476" points="1 98.8822015 65.2112302 137 131 98.8822015 66 60"></polygon>
                            <polygon id="路径-27复制-10" fill-opacity="0.97" fill="url(#linearGradient-2)" fill-rule="nonzero" opacity="0.177408854" points="1 99.1023493 65.2112302 137 131 99.1023493 131 0 1 0"></polygon>
                            <circle id="椭圆形复制-7" stroke="#73A3F9" fill-opacity="0.22" fill="#8AD3F4" fill-rule="nonzero" cx="130.5" cy="17.5" r="7.5"></circle>
                            <circle id="椭圆形复制-9" stroke="#20B7FC" fill-opacity="0.22" fill="#A3DDF7" fill-rule="nonzero" cx="33.5" cy="119.5" r="7.5"></circle>
                            <circle id="椭圆形复制-8" fill="#20B7FC" fill-rule="nonzero" cx="130.5" cy="17.5" r="1.5"></circle>
                            <circle id="椭圆形复制-14" fill="#20B7FC" fill-rule="nonzero" cx="33.5" cy="119.5" r="1.5"></circle>
                            <path d="M65.5,15 L114,43 L114,99 L65.5,127 L17,99 L17,43 L65.5,15 Z" id="多边形" stroke="url(#linearGradient-4)" fill-opacity="0.46" fill="url(#linearGradient-3)" fill-rule="nonzero" stroke-dasharray="5"></path>
                            <polygon id="多边形复制" fill-opacity="0.46" fill="url(#linearGradient-5)" fill-rule="nonzero" points="66 70 114 99.1361609 66 127 18 99.1361609"></polygon>
                            <path d="M109.487179,40.2926829 L114,42.9206142 L114,49 M18,49 L18,43.1781854 L23.7435897,39.8780488 M60.2564103,18.481763 L65.9990072,15 L65.9990072,15 L72.1538462,18.7317073" id="形状" stroke="url(#linearGradient-6)" stroke-width="3"></path>
                            <polygon id="多边形复制-3" fill="url(#linearGradient-7)" fill-rule="nonzero" points="65.4999999 36 96 53.75 96 89.25 65.4999999 107 35 89.25 35 53.75"></polygon>
                            <g id="编组-31" transform="translate(48.000000, 51.000000)">
                                <path d="M5.39340508,0.261611872 L32.9223245,16.1435486 C33.524766,16.4911081 33.9005461,17.1333043 33.9108469,17.8329015 L34.1858833,36.512566 C34.190265,36.810275 34.1279935,37.105149 34.0036999,37.3752487 C33.4312631,38.6192033 32.132877,39.65029 30.1085422,40.4685094 C24.4252075,37.1218148 15.2198684,30.928445 2.4925239,21.8883999 C2.00691988,21.5434856 1.70221984,20.9956197 1.66367348,20.3980888 L0.488006834,2.17339653 L3.35459952,0.314808034 C3.97113495,-0.0849299113 4.757178,-0.105439184 5.39340508,0.261611872 Z" id="矩形复制-33" fill="url(#linearGradient-8)" fill-rule="nonzero"></path>
                                <path d="M2.95489748,1.82271743 L30.4605043,18.0013437 C31.0639423,18.3562821 31.4349792,19.0075387 31.4349792,19.7117749 L31.4349792,38.5889812 C31.4349792,39.6826992 30.5553593,40.5693327 29.470293,40.5693327 C29.1223329,40.5693327 28.7806151,40.4761845 28.4800817,40.2994123 L0.974474925,24.1207863 C0.371036883,23.7658478 -1.7408297e-13,23.1145913 -1.7408297e-13,22.410355 L-1.7408297e-13,3.53314866 C-1.7408297e-13,2.43943077 0.879619875,1.55279719 1.9646862,1.55279719 C2.31264627,1.55279719 2.65436414,1.64594556 2.95489748,1.82271743 Z" id="矩形" fill="#B6F8FD" fill-rule="nonzero"></path>
                                <path d="M19.2932185,17.3281385 L27.2894913,21.6371672" id="直线-3" stroke="#1FB5FC" stroke-width="2" stroke-linecap="round" stroke-linejoin="round"></path>
                                <path d="M13.9682851,20.8740318 L26.8971879,27.9812931" id="直线-3复制" stroke="#1FB5FC" stroke-width="2" stroke-linecap="round" stroke-linejoin="round"></path>
                                <path d="M3.35720077,20.4844332 L27.291904,34.7080163" id="直线-3复制-2" stroke="#1FB5FC" stroke-width="2" stroke-linecap="round" stroke-linejoin="round"></path>
                            </g>
                            <g id="qiye" transform="translate(57.057180, 65.438742) rotate(29.000000) translate(-57.057180, -65.438742) translate(52.557180, 60.438742)" fill-rule="nonzero">
                                <path d="M8.14672497,9.4130166 L5.29942087,9.4130166 C5.08316992,9.44904591 4.86691898,9.26889938 4.83087716,9.01669423 L4.83087716,3.50421034 C4.86691898,3.2520052 5.08316992,3.07185867 5.33546269,3.10788798 C5.37150452,3.10788798 5.40754634,3.10788798 5.44358816,3.14391728 L8.29089226,4.11670856 C8.47110138,4.15273786 8.57922686,4.29685509 8.57922686,4.47700161 L8.57922686,9.05272353 C8.57922686,9.26889937 8.39901774,9.4490459 8.14672497,9.4130166 Z" id="路径" fill="#1FB5FC"></path>
                                <path d="M0.433774614,9.4130166 L5.08316992,9.4130166 C5.29942087,9.44904591 5.51567181,9.26889938 5.55171364,9.01669423 L5.55171364,0.405689995 C5.51567181,0.15348485 5.29942087,-0.0266616797 5.0471281,0.00936761827 C5.01108627,0.00936761827 4.97504445,0.00936761827 4.93900262,0.0453969261 L0.289607322,1.5946571 C0.109398205,1.63068641 0.00127272832,1.77480363 0.00127272832,1.95495016 L0.00127272832,9.01669423 C0.00127272832,9.26889937 0.181481846,9.4490459 0.433774614,9.4130166 Z" id="路径" fill="#1FB5FC"></path>
                                <path d="M7.85839038,8.44022533 L6.16442464,8.44022533 C6.02025735,8.44022533 5.87609006,8.33213741 5.87609006,8.15199088 C5.87609006,8.00787366 5.98421553,7.86375643 6.16442464,7.86375643 L7.85839038,7.86375643 C8.00255767,7.86375643 8.14672497,7.97184435 8.14672497,8.15199088 C8.14672497,8.33213741 8.00255768,8.44022533 7.85839038,8.44022533 Z M4.07399885,4.15273786 L1.37086204,4.15273786 C1.15461109,4.15273786 1.0104438,3.97259133 1.0104438,3.7924448 C1.0104438,3.57626896 1.19065292,3.43215174 1.37086204,3.43215174 L4.07399885,3.43215174 C4.29024979,3.43215174 4.43441709,3.61229827 4.43441709,3.7924448 C4.47045891,3.97259132 4.29024979,4.15273786 4.07399885,4.15273786 L4.07399885,4.15273786 Z M4.07399885,5.95420319 L1.37086204,5.95420319 C1.15461109,5.95420319 1.0104438,5.77405666 1.0104438,5.59391012 C1.0104438,5.37773428 1.19065292,5.23361705 1.37086204,5.23361705 L4.07399885,5.23361705 C4.29024979,5.23361705 4.43441709,5.41376358 4.43441709,5.59391012 C4.47045891,5.81008596 4.29024979,5.95420319 4.07399885,5.95420319 L4.07399885,5.95420319 Z M4.07399885,7.79169781 L1.37086204,7.79169781 C1.15461109,7.79169781 1.0104438,7.61155128 1.0104438,7.43140475 C1.0104438,7.21522891 1.19065292,7.07111168 1.37086204,7.07111168 L4.07399885,7.07111168 C4.29024979,7.07111168 4.43441709,7.25125821 4.43441709,7.43140475 C4.47045891,7.61155128 4.29024979,7.79169781 4.07399885,7.79169781 L4.07399885,7.79169781 Z" id="形状" fill="#B6E8FD"></path>
                            </g>
                        </g>
                    </g>
                </g>
            </g>
        </g>
    </g>
</svg>