<?xml version="1.0" encoding="UTF-8"?>
<svg width="14px" height="14px" viewBox="0 0 14 14" version="1.1" xmlns="http://www.w3.org/2000/svg" xmlns:xlink="http://www.w3.org/1999/xlink">
    <!-- Generator: Sketch 58 (84663) - https://sketch.com -->
    <title>Shape</title>
    <desc>Created with Sketch.</desc>
    <g id="页面-1" stroke="none" stroke-width="1" fill="none" fill-rule="evenodd">
        <g id="服务详情" transform="translate(-1176.000000, -247.000000)" fill-rule="nonzero">
            <g id="商标注册" transform="translate(360.000000, 102.000000)">
                <g id="编组-13">
                    <g id="编组-18" transform="translate(565.000000, 40.000000)">
                        <g id="编组-10" transform="translate(24.000000, 89.000000)">
                            <g id="编组-40">
                                <g id="提示" transform="translate(227.000000, 16.000000)">
                                    <path d="M7,0 C10.8660403,0 14,3.13395972 14,7 C14,10.8660403 10.8660403,14 7,14 C3.13395972,14 0,10.8660403 0,7 C0,3.13395972 3.13395972,0 7,0 Z" id="Shape" fill="#FBB73C"></path>
                                    <path d="M7.0585492,3 C6.21530892,3 5.55945538,3.25765675 5.09098856,3.77297025 C4.62252174,4.26486041 4.4,4.92071396 4.4,5.74053089 L5.32522197,5.74053089 C5.32522197,5.16665904 5.45405034,4.72161556 5.71170709,4.39368879 C5.99278719,4.00720366 6.42611899,3.81981693 7.01170252,3.81981693 C7.50359268,3.81981693 7.8900778,3.94864531 8.15944622,4.2297254 C8.41710297,4.48738215 8.55764302,4.85044394 8.55764302,5.31891076 C8.55764302,5.64683753 8.44052632,5.95134096 8.20629291,6.24413272 C8.13602288,6.33782609 7.99548284,6.47836613 7.80809611,6.66575286 C7.1756659,7.22791304 6.78918078,7.67295652 6.62521739,8.02430664 C6.48467735,8.3170984 6.41440732,8.65673684 6.41440732,9.04322197 L6.41440732,9.31259039 L7.35134096,9.31259039 L7.35134096,9.04322197 C7.35134096,8.72700686 7.42161098,8.44592677 7.5738627,8.18827002 C7.67145995,8.01259497 7.80972273,7.83691991 8.0022062,7.65446726 L8.50150443,7.20463049 C8.79729671,6.93347584 8.98778074,6.74454046 9.07295652,6.64232952 C9.36574828,6.25584439 9.518,5.79908924 9.518,5.27206407 C9.518,4.56936384 9.29547826,4.01891533 8.86214645,3.62071854 C8.4053913,3.1990984 7.80809611,3 7.0585492,3 Z M6.88287414,10.1324073 C7.08197254,10.1324073 7.2576476,10.1909657 7.39818764,10.3315057 C7.52701602,10.4603341 7.59728604,10.6242975 7.59728604,10.8233959 C7.59728604,11.0342059 7.52701602,11.1981693 7.38647597,11.3269977 C7.24593593,11.4558261 7.08197254,11.5260961 6.88287414,11.5260961 C6.68377574,11.5260961 6.51981236,11.4558261 6.37927231,11.3269977 C6.23873227,11.1864577 6.18017391,11.0224943 6.18017391,10.8233959 C6.18017391,10.6242975 6.23873227,10.4603341 6.37927231,10.3315057 C6.51981236,10.1909657 6.68377574,10.1324073 6.88287414,10.1324073 Z" id="？" fill="#FFFFFF"></path>
                                </g>
                            </g>
                        </g>
                    </g>
                </g>
            </g>
        </g>
    </g>
</svg>