<?xml version="1.0" encoding="UTF-8"?>
<svg width="48px" height="48px" viewBox="0 0 48 48" version="1.1" xmlns="http://www.w3.org/2000/svg" xmlns:xlink="http://www.w3.org/1999/xlink">
    <!-- Generator: Sketch 63.1 (92452) - https://sketch.com -->
    <title>shengtaikaifang-icon256</title>
    <desc>Created with Sketch.</desc>
    <g id="新增-日标" stroke="none" stroke-width="1" fill="none" fill-rule="evenodd">
        <g id="日标-服务详情" transform="translate(-617.000000, -800.000000)" fill-rule="nonzero">
            <g id="编组-27" transform="translate(488.000000, 773.000000)">
                <g id="编组-54">
                    <g id="shengtaikaifang-icon256" transform="translate(129.000000, 27.000000)">
                        <path d="M24,47 C11.2975313,47 1,36.7024688 1,24 C1,11.2975313 11.2975313,1 24,1 C36.7024688,1 47,11.2975313 47,24 C47,36.7024688 36.7024688,47 24,47 Z M24,45.203125 C35.7102344,45.203125 45.203125,35.7102344 45.203125,24 C45.203125,12.2897656 35.7102344,2.796875 24,2.796875 C12.2897656,2.796875 2.796875,12.2897656 2.796875,24 C2.796875,35.7102344 12.2897656,45.203125 24,45.203125 Z" id="形状" fill="#334966"></path>
                        <path d="M24,34.421875 C11.2975313,34.421875 1,29.7559297 1,24 C1,18.2440703 11.2975313,13.578125 24,13.578125 C36.7024688,13.578125 47,18.2440703 47,24 C47,29.7559297 36.7024688,34.421875 24,34.421875 Z M24,32.625 C35.7102344,32.625 45.203125,28.7635156 45.203125,24 C45.203125,19.2364844 35.7102344,15.375 24,15.375 C12.2897656,15.375 2.796875,19.2364844 2.796875,24 C2.796875,28.7635156 12.2897656,32.625 24,32.625 Z" id="形状" fill="#334966"></path>
                        <path d="M4.59375,24 C4.59375,27.7710693 13.2822241,30.828125 24,30.828125 C34.7177759,30.828125 43.40625,27.7710693 43.40625,24 C43.40625,20.2289307 34.7177759,17.171875 24,17.171875 C13.2822241,17.171875 4.59375,20.2289307 4.59375,24 Z" id="路径" fill="#9581F8"></path>
                        <path d="M13.578125,24 C13.578125,11.2975313 18.2440703,1 24,1 C29.7559297,1 34.421875,11.2975313 34.421875,24 C34.421875,36.7024688 29.7559297,47 24,47 C18.2440703,47 13.578125,36.7024688 13.578125,24 Z M15.375,24 C15.375,35.7102344 19.2364844,45.203125 24,45.203125 C28.7635156,45.203125 32.625,35.7102344 32.625,24 C32.625,12.2897656 28.7635156,2.796875 24,2.796875 C19.2364844,2.796875 15.375,12.2897656 15.375,24 Z" id="形状" fill="#334966"></path>
                    </g>
                </g>
            </g>
        </g>
    </g>
</svg>