<?xml version="1.0" encoding="UTF-8"?>
<svg width="48px" height="48px" viewBox="0 0 48 48" version="1.1" xmlns="http://www.w3.org/2000/svg" xmlns:xlink="http://www.w3.org/1999/xlink">
    <!-- Generator: Sketch 63.1 (92452) - https://sketch.com -->
    <title>kehuzhuanhua-icon256</title>
    <desc>Created with Sketch.</desc>
    <g id="新增-日标" stroke="none" stroke-width="1" fill="none" fill-rule="evenodd">
        <g id="日标-服务详情" transform="translate(-955.000000, -800.000000)" fill-rule="nonzero">
            <g id="编组-27" transform="translate(488.000000, 773.000000)">
                <g id="编组-5备份" transform="translate(338.000000, 0.000000)">
                    <g id="编组-53">
                        <g id="kehuzhuanhua-icon256" transform="translate(129.000000, 27.000000)">
                            <path d="M24,47 C11.2973729,47 1,36.7026271 1,24 C1,11.2973729 11.2973729,1 24,1 C36.7026271,1 47,11.2973729 47,24 C47,36.7026271 36.7026271,47 24,47 Z M24,45.0508474 C35.6261102,45.0508474 45.0508474,35.6261102 45.0508474,24 C45.0508474,12.3738898 35.6261102,2.94915256 24,2.94915256 C12.3738898,2.94915256 2.94915256,12.3738898 2.94915256,24 C2.94915256,35.6261102 12.3738898,45.0508474 24,45.0508474 Z" id="形状" fill="#334966"></path>
                            <path d="M21.3485678,23.774678 C18.8528729,24.8402797 16.8721441,27.3609237 16.0125678,30.5561695 C15.7114237,31.6749831 32.3068983,31.7055847 31.9870424,30.5561695 C31.0832203,27.3084915 29.0173135,24.7092966 26.4346864,23.6893051 C27.3270084,22.9533051 27.8949915,21.8454068 27.8949915,20.6061356 C27.8949915,18.3899492 26.0787712,16.5932203 23.8382203,16.5932203 C21.5976695,16.5932203 19.7812542,18.3897542 19.7812542,20.6061356 C19.7812542,21.8941356 20.3948475,23.0404322 21.3485678,23.774678 Z M24,38.6186441 C15.9264153,38.6186441 9.38135592,32.0735847 9.38135592,24 C9.38135592,15.9264153 15.9264153,9.38135592 24,9.38135592 C32.0735847,9.38135592 38.6186441,15.9264153 38.6186441,24 C38.6186441,32.0735847 32.0735847,38.6186441 24,38.6186441 Z" id="形状" fill="#9581F8"></path>
                            <path d="M29.4749746,6.7143305 C30.0659181,6.05396967 30.9104444,5.67697812 31.7966102,5.67796415 C33.5190763,5.67796415 34.9152542,7.07414408 34.9152542,8.79661017 C34.9152542,9.02836441 34.8899153,9.25407626 34.842161,9.47140676 C39.2643983,12.7767797 42.1271187,18.0541102 42.1271187,24 C42.1271187,34.0112373 34.0112373,42.1271187 24,42.1271187 C13.9887627,42.1271187 5.87288134,34.0112373 5.87288134,24 C5.87288134,13.9887627 13.9887627,5.87288134 24,5.87288134 C25.9082203,5.87288134 27.7474407,6.16778811 29.4749746,6.7143305 Z M28.6906356,8.51261866 C27.1694889,8.05331927 25.5889749,7.82062611 24,7.82202756 C15.0650847,7.82202756 7.82203391,15.0650847 7.82203391,24 C7.82203391,32.9349153 15.0650847,40.1779661 24,40.1779661 C32.9349153,40.1779661 40.1779661,32.9349153 40.1779661,24 C40.1779661,18.7657458 37.6922118,14.112339 33.8369831,11.1550847 C33.2708392,11.6463307 32.5461703,11.9163162 31.7966102,11.9152542 C30.0741441,11.9152542 28.6779661,10.5190763 28.6779661,8.79661017 C28.6779661,8.70090676 28.6822542,8.60617798 28.6906356,8.51261866 Z M31.7966102,10.5508474 C32.4233388,10.5508474 33.0024599,10.2164917 33.3158242,9.67372882 C33.6291886,9.13096591 33.6291886,8.46225443 33.3158242,7.91949152 C33.0024599,7.37672861 32.4233388,7.0423729 31.7966102,7.0423729 C30.8277717,7.0423729 30.0423729,7.82777168 30.0423729,8.79661017 C30.0423729,9.76544866 30.8277717,10.5508474 31.7966102,10.5508474 L31.7966102,10.5508474 Z" id="形状" fill="#334966"></path>
                            <path d="M3.72881357,40.3728813 C3.72881357,41.7656116 4.4718263,43.0525475 5.6779661,43.7489126 C6.8841059,44.4452778 8.37013142,44.4452778 9.57627122,43.7489126 C10.782411,43.0525475 11.5254237,41.7656116 11.5254237,40.3728813 C11.5254237,38.2199069 9.7800931,36.4745763 7.62711866,36.4745763 C5.47414421,36.4745763 3.72881357,38.2199069 3.72881357,40.3728813 Z" id="路径" fill="#9784F8"></path>
                            <path d="M5.28813557,40.3728813 C5.28801977,41.2085967 5.73380209,41.9808791 6.45753353,42.3987702 C7.18126497,42.8166613 8.0729723,42.8166613 8.79670374,42.3987702 C9.52043518,41.9808791 9.9662175,41.2085967 9.9661017,40.3728813 C9.9662175,39.537166 9.52043518,38.7648836 8.79670374,38.3469925 C8.0729723,37.9291013 7.18126497,37.9291013 6.45753353,38.3469925 C5.73380209,38.7648836 5.28801977,39.537166 5.28813557,40.3728813 Z" id="路径" fill="#FFFFFF"></path>
                        </g>
                    </g>
                </g>
            </g>
        </g>
    </g>
</svg>