<?xml version="1.0" encoding="UTF-8"?>
<svg width="48px" height="48px" viewBox="0 0 48 48" version="1.1" xmlns="http://www.w3.org/2000/svg" xmlns:xlink="http://www.w3.org/1999/xlink">
    <!-- Generator: Sketch 63.1 (92452) - https://sketch.com -->
    <title>dashujuhangai-icon256</title>
    <desc>Created with Sketch.</desc>
    <g id="新增-日标" stroke="none" stroke-width="1" fill="none" fill-rule="evenodd">
        <g id="日标-服务详情" transform="translate(-617.000000, -1020.000000)" fill-rule="nonzero">
            <g id="编组-27" transform="translate(488.000000, 773.000000)">
                <g id="编组-5备份-2" transform="translate(0.000000, 220.000000)">
                    <g id="编组-52">
                        <g id="dashujuhangai-icon256" transform="translate(129.000000, 27.000000)">
                            <path d="M24,47 C11.2975313,47 1,36.7024688 1,24 C1,11.2975313 11.2975313,1 24,1 C36.7024688,1 47,11.2975313 47,24 C47,36.7024688 36.7024688,47 24,47 Z M24,45.203125 C35.7102344,45.203125 45.203125,35.7102344 45.203125,24 C45.203125,12.2897656 35.7102344,2.796875 24,2.796875 C12.2897656,2.796875 2.796875,12.2897656 2.796875,24 C2.796875,35.7102344 12.2897656,45.203125 24,45.203125 Z" id="形状" fill="#334966"></path>
                            <path d="M16.0685937,24.7615156 C19.6900156,22.4085078 22.3605313,20.2980781 24.0799609,18.4296875 C26.5910937,21.2134063 28.9088828,23.3240156 31.0331484,24.7615156 C33.1572344,26.1990156 36.5628516,27.3772266 41.25,28.2956094 L41.25,32.8474531 L6.75,32.8474531 L6.75,27.9355156 C9.34091406,28.1727031 12.4469922,27.1145234 16.0685937,24.7615156 Z" id="路径" fill="#9581F8"></path>
                            <path d="M9.984375,22.921875 C10.4805683,22.921875 10.8828125,23.3241192 10.8828125,23.8203125 L10.8828125,32.984375 L9.0859375,32.984375 L9.0859375,23.8203125 C9.0859375,23.3241192 9.48818167,22.921875 9.984375,22.921875 L9.984375,22.921875 Z M16.9921875,19.5078125 C17.4883808,19.5078125 17.890625,19.9100567 17.890625,20.40625 L17.890625,32.8046875 L16.09375,32.8046875 L16.09375,20.40625 C16.09375,19.9100567 16.4959942,19.5078125 16.9921875,19.5078125 Z M24.1796875,15.015625 C24.6758808,15.015625 25.078125,15.4178692 25.078125,15.9140625 L25.078125,32.984375 L23.28125,32.984375 L23.28125,15.9140625 C23.28125,15.4178692 23.6834942,15.015625 24.1796875,15.015625 Z M31.1875,21.3046875 C31.6836933,21.3046875 32.0859375,21.7069317 32.0859375,22.203125 L32.0859375,32.8046875 L30.2890625,32.8046875 L30.2890625,22.203125 C30.2890625,21.7069317 30.6913067,21.3046875 31.1875,21.3046875 Z M38.1953125,24.5390625 C38.6915058,24.5390625 39.09375,24.9413067 39.09375,25.4375 L39.09375,32.8046875 L37.296875,32.8046875 L37.296875,25.4375 C37.296875,24.9413067 37.6991192,24.5390625 38.1953125,24.5390625 L38.1953125,24.5390625 Z" id="形状" fill="#334966"></path>
                        </g>
                    </g>
                </g>
            </g>
        </g>
    </g>
</svg>