<?xml version="1.0" encoding="UTF-8"?>
<svg width="48px" height="48px" viewBox="0 0 48 48" version="1.1" xmlns="http://www.w3.org/2000/svg" xmlns:xlink="http://www.w3.org/1999/xlink">
    <!-- Generator: Sketch 58 (84663) - https://sketch.com -->
    <title>shijianyunhang-icon256</title>
    <desc>Created with Sketch.</desc>
    <g id="知产百科" stroke="none" stroke-width="1" fill="none" fill-rule="evenodd">
        <g id="服务详情-2.2版本" transform="translate(-890.000000, -1008.000000)" fill-rule="nonzero">
            <g id="编组-27" transform="translate(423.000000, 761.000000)">
                <g id="编组-5备份-3" transform="translate(338.000000, 220.000000)">
                    <g id="编组-51">
                        <g id="shijianyunhang-icon256" transform="translate(129.000000, 27.000000)">
                            <path d="M33.1052782,37.8159171 C33.6418776,38.9764279 33.4318846,40.397247 32.4750034,41.3541283 C31.3205601,42.5085716 29.4904101,42.5759055 28.2573859,41.555982 C19.3389747,47.4622743 9.88988365,48.656082 5.03444399,43.8006424 C-1.09530811,37.6708903 2.41626545,24.2208341 12.8777327,13.7593668 C23.3391999,3.2978996 36.7892561,-0.213673918 42.9190082,5.91607814 C49.0487603,12.0458302 45.5371868,25.4958864 35.0757195,35.9573537 C34.4294621,36.6036111 33.7718098,37.2233789 33.1052782,37.8159171 Z M31.8518319,36.4304668 C32.4948336,35.8587946 33.129992,35.2603369 33.7543474,34.6359815 C43.3986328,24.9916962 46.8393207,12.7961222 41.4391425,7.39594396 C36.0391122,1.99591366 23.8433902,5.43645366 14.1991049,15.080739 C4.55481956,24.7250244 1.11413154,36.9205983 6.51430981,42.3207766 C10.746726,46.5531927 19.1541395,45.3547974 27.2356866,39.9947236 C26.9348299,38.9352876 27.2013537,37.7485833 28.035554,36.9143829 C29.0702762,35.8796608 30.6478131,35.7183554 31.8518319,36.4304668 Z M28.9233255,40.4662088 C29.3991484,40.9421017 30.0927214,41.1279804 30.7427597,40.9538203 C31.3927979,40.7796601 31.9005352,40.2719228 32.0746954,39.6218845 C32.2488556,38.9718463 32.0629769,38.2782733 31.5870839,37.8024504 C30.8514915,37.0669661 29.6589618,37.0670099 28.9234234,37.8025483 C28.1878851,38.5380866 28.1878412,39.7306164 28.9233255,40.4662088 Z" id="形状" fill="#334966"></path>
                            <path d="M16.4452452,17.3268793 C10.9992873,22.7725859 7.40248667,29.2403159 7.00979704,34.2936054 C6.61710742,39.3468948 9.48819157,42.217979 14.541481,41.8252893 C19.5947704,41.4325997 26.0625004,37.8357991 31.5082071,32.3898413 C36.9541649,26.9441346 40.5509656,20.4764046 40.9436552,15.4231152 C41.3363448,10.3698258 38.4652607,7.4987416 33.4119712,7.89143121 C28.3586818,8.28412082 21.8909518,11.8809214 16.4452452,17.3268793 Z" id="路径" fill="#00A4FF"></path>
                            <path d="M42.9190768,43.8007991 C36.7891301,49.9305365 23.3392443,46.4189498 12.8777336,35.9574391 C2.41622297,25.4959285 -1.09536379,12.0460426 5.03437368,5.91609591 C11.1643204,-0.213641512 24.6142062,3.29794521 35.0757169,13.7594559 C45.5372275,24.2209665 49.0488143,37.6708524 42.9190768,43.8007991 Z M41.4392253,42.3209475 C46.8391872,36.9207763 43.3985479,24.7249239 33.7542938,15.0806697 C24.1104582,5.43683411 11.9146058,1.99619484 6.51443455,7.39594749 C1.11447261,12.7961187 4.55511188,24.9919711 14.1991567,34.6362253 C23.8432017,44.2802702 36.039054,47.7209094 41.4392253,42.3209475 Z" id="形状" fill="#334966"></path>
                            <path d="M31.4701613,32.3518836 C39.8884261,23.9336187 43.3407854,13.737481 39.1814627,9.577949 C35.0219307,5.41841703 24.8255837,8.87077625 16.4073189,17.2890411 L31.4701613,32.3518836 Z" id="路径" fill="#00A4FF"></path>
                            <path d="M11.8382169,4.13926939 C11.8382169,5.87304002 13.2437157,7.27853881 14.9774863,7.27853881 C16.7112569,7.27853881 18.1167557,5.87304002 18.1167557,4.13926939 C18.1167557,2.40549877 16.7112569,0.99999998 14.9774863,0.99999998 C13.2437157,0.99999998 11.8382169,2.40549877 11.8382169,4.13926939 Z" id="路径" fill="#334966"></path>
                            <path d="M13.0939246,4.13926939 C13.0939246,4.81220117 13.4529294,5.43401579 14.0357054,5.77048168 C14.6184815,6.10694758 15.3364911,6.10694758 15.9192671,5.77048168 C16.5020431,5.43401579 16.8610479,4.81220117 16.8610479,4.13926939 C16.8610479,3.46633761 16.5020431,2.844523 15.9192671,2.5080571 C15.3364911,2.17159121 14.6184815,2.17159121 14.0357054,2.5080571 C13.4529294,2.844523 13.0939246,3.46633761 13.0939246,4.13926939 Z" id="路径" fill="#00A4FF"></path>
                        </g>
                    </g>
                </g>
            </g>
        </g>
    </g>
</svg>