<svg width="28" height="28" viewBox="0 0 28 28" fill="none" xmlns="http://www.w3.org/2000/svg">
<g id="Frame" clip-path="url(#clip0_3624_238771)">
<path id="Vector" d="M6.2786 6.39521C5.56618 6.4849 4.8538 7.0746 4.62058 7.75387C4.46519 8.17688 1.68015 20.1739 1.66732 20.3919C1.64137 21.0199 2.00403 21.4814 2.59985 21.5968C2.82011 21.648 9.89251 21.648 10.1257 21.5968C10.7992 21.4685 11.4339 20.943 11.6671 20.3022C11.7578 20.0586 14.6334 7.83087 14.6334 7.62574C14.6723 7.04889 14.3224 6.57464 13.7656 6.40804C13.636 6.3825 6.57656 6.3568 6.27857 6.39519L6.2786 6.39521Z" fill="#E60012"/>
<path id="Vector_2" d="M12.873 6.39521C12.1606 6.4849 11.4482 7.0746 11.2151 7.75387C11.0726 8.17688 8.27475 20.1739 8.27475 20.3919C8.24877 21.0199 8.61146 21.4814 9.20739 21.5968C9.4275 21.648 16.4999 21.648 16.7331 21.5968C17.4067 21.4685 18.0414 20.943 18.2745 20.3022C18.3652 20.0586 21.2408 7.83087 21.2408 7.62574C21.2797 7.04889 20.93 6.57464 20.373 6.40804C20.2304 6.3825 13.171 6.35682 12.873 6.39521Z" fill="#00508E"/>
<path id="Vector_3" d="M19.7501 6.39522C19.0377 6.4849 18.3252 7.0746 18.0921 7.75387C17.9496 8.17688 15.1517 20.1739 15.1517 20.3919C15.1258 21.0199 15.4886 21.4814 16.0843 21.5968C16.3046 21.648 21.5635 21.648 21.7967 21.5968C22.4702 21.4685 23.105 20.943 23.3381 20.3022C23.4287 20.0586 26.3044 7.83087 26.3044 7.62574C26.3432 7.0489 25.9935 6.57464 25.4365 6.40804C25.307 6.36965 19.4004 6.34397 19.1024 6.3825H19.7501V6.39522Z" fill="#00908C"/>
<path id="Vector_4" d="M6.05914 10.2917C6.05914 10.3046 6.04613 10.3815 6.02032 10.4584C5.72238 11.4581 5.42441 12.8039 5.46332 12.9706C5.56696 13.4705 6.30532 13.432 6.56435 12.9065C6.64206 12.7656 7.19905 10.42 7.19905 10.2534C7.19905 10.2405 8.07985 10.2534 8.07985 10.2661C8.07985 10.2661 8.07985 10.3046 8.06686 10.3431C8.0539 10.3815 7.91147 10.9198 7.75607 11.5607C7.40621 12.9193 7.36743 13.0603 7.18609 13.3294C6.59019 14.2011 4.59538 14.1755 4.43998 13.291C4.4011 13.0988 4.82862 10.8814 5.02295 10.2789C5.02295 10.2405 6.05914 10.266 6.05914 10.2917ZM19.2973 10.2917C19.8931 10.42 20.0744 10.8941 19.8024 11.5992C19.5304 12.3041 18.9476 12.6117 17.9243 12.6117C17.6134 12.6117 17.6393 12.5604 17.445 13.5217C17.4062 13.7011 17.3673 13.8678 17.3673 13.8934C17.3543 13.9575 16.4346 13.9575 16.4476 13.8934C17.2249 10.5994 17.2896 10.3174 17.2896 10.2917L17.3025 10.2534H18.2351C18.9734 10.2661 19.1807 10.266 19.2973 10.2917ZM11.3052 11.5607C11.4347 11.5863 11.5254 11.6889 11.5254 11.7786C11.5254 12.099 10.8647 12.317 10.6186 12.0733C10.3855 11.8299 10.8777 11.4581 11.3052 11.5607V11.5607ZM9.01249 11.8041C9.01249 11.8299 8.99953 11.8812 8.99953 11.9195L8.98657 11.9709L9.14196 11.8939C9.55649 11.6889 9.95801 11.7273 10.0876 11.9836C10.1653 12.1375 10.1523 12.2272 9.94513 13.1757C9.90625 13.3423 9.85448 13.5731 9.8415 13.6883C9.78963 13.9448 9.82854 13.9319 9.36221 13.9319C8.96062 13.9319 8.96062 13.9319 8.97361 13.8934C8.97361 13.8678 9.02545 13.6628 9.07724 13.4192C9.2845 12.5092 9.29749 12.381 9.11612 12.381C9.01249 12.381 8.86992 12.4451 8.85709 12.4835C8.83117 12.5733 8.59793 13.6883 8.58497 13.7909L8.55913 13.9063L8.15753 13.9319C7.6654 13.9448 7.70417 13.9831 7.80781 13.5474C7.95027 12.9834 8.02806 12.5861 8.07985 12.2272C8.14457 11.8427 8.10577 11.8812 8.46846 11.8299C8.63684 11.8041 8.8052 11.7786 8.85709 11.7658C8.98657 11.7273 9.01249 11.7401 9.01249 11.8041ZM15.1652 11.7915C15.1652 11.817 15.1523 11.8683 15.1523 11.9067L15.1392 11.9709L15.2948 11.8939C16.0979 11.4838 16.4087 11.817 16.1756 12.8681C16.1238 13.0988 16.0589 13.432 16.0202 13.5859C15.9942 13.7525 15.9553 13.8934 15.9425 13.9063C15.8906 13.9575 15.1264 13.9448 15.1392 13.9063C15.1392 13.8806 15.1911 13.6756 15.2429 13.4448C15.4632 12.5092 15.4632 12.3938 15.2688 12.3938C15.1135 12.3938 15.0357 12.4451 15.0098 12.5604C14.9709 12.7014 14.7766 13.6243 14.7507 13.7909L14.7248 13.9319L14.3232 13.9448C13.8311 13.9575 13.8699 14.0088 13.9865 13.5345C14.1161 13.0218 14.2067 12.5476 14.2715 12.2016C14.3232 11.8683 14.2844 11.9067 14.6082 11.8555C14.7507 11.8299 14.9321 11.8041 14.9969 11.7915C15.1264 11.7273 15.1652 11.7401 15.1652 11.7915ZM23.0278 11.7786C23.0796 12.5604 23.0926 12.7911 23.0926 12.8039C23.0926 12.8168 23.2092 12.6117 23.3386 12.3553C23.5977 11.8427 23.5459 11.8939 23.8309 11.8555C23.9086 11.8427 24.064 11.817 24.1806 11.7915C24.4656 11.7401 24.4656 11.7144 24.1417 12.2785C23.7013 13.0347 23.0926 14.0986 22.8723 14.4831C22.2118 15.675 22.2118 15.675 21.6548 15.6879L21.318 15.7007L21.3439 15.611C21.3568 15.5598 21.3957 15.4572 21.4087 15.3803L21.4475 15.2393H21.5511C21.6678 15.2393 21.6936 15.2136 21.7972 15.0341C21.8361 14.9701 21.9009 14.8675 21.9268 14.8035C21.9656 14.7394 22.0952 14.5343 22.1988 14.3292L22.4061 13.9703L22.3542 13.4962C22.2895 12.945 22.2118 12.2913 22.1729 12.099C22.1469 11.9196 22.1469 11.9196 22.3802 11.8939C22.4838 11.8812 22.6522 11.8427 22.7429 11.8299C22.9889 11.753 23.0148 11.753 23.0278 11.7786ZM13.2611 11.7915C14.2585 11.9709 13.9088 13.6883 12.8207 13.9319C12.0823 14.0986 11.5773 13.8165 11.5773 13.2525C11.5901 12.2656 12.3284 11.6247 13.2611 11.7915H13.2611ZM20.7221 11.8427C20.7739 11.8683 20.8517 11.9196 20.8905 11.9581C20.9552 12.0221 20.9552 12.0221 20.9552 11.9836C20.9682 11.9324 20.9552 11.9324 21.4734 11.8555C21.8879 11.7915 21.8749 11.7915 21.8491 11.9067C21.6807 12.6245 21.5382 13.2525 21.4734 13.5602C21.3828 14.0217 21.4475 13.9703 20.9424 13.9575H20.5149V13.9063C20.5149 13.855 20.489 13.8294 20.4631 13.8678C20.3205 14.0986 19.6211 14.0088 19.4268 13.7268C18.9476 13.009 19.9708 11.4966 20.7221 11.8427H20.7221ZM11.4217 12.2144C11.4217 12.2144 11.4217 12.2785 11.4088 12.3298C11.3052 12.7399 11.1239 13.5731 11.085 13.7268L11.0461 13.9191L10.6186 13.9319C10.1135 13.9448 10.1394 13.9703 10.243 13.6628C10.3337 13.3679 10.4244 13.009 10.4762 12.6245C10.528 12.2913 10.4762 12.3425 10.8519 12.2913C11.0202 12.2656 11.2016 12.2401 11.2404 12.2272C11.344 12.2016 11.4088 12.2016 11.4217 12.2144V12.2144ZM13.6885 14.8675C13.6885 14.8804 13.6627 14.9317 13.6238 14.9958C13.5978 15.0598 13.5591 15.1112 13.5591 15.1112C14.3232 15.1238 14.3492 15.1238 14.3362 15.1624L14.1937 15.6238H13.0798L13.015 15.675C12.8725 15.8033 12.1213 15.9699 12.1213 15.8673L12.2637 15.4059H12.3673C12.5487 15.4059 12.5875 15.3675 12.743 15.0983L12.8725 14.8547C13.5461 14.842 13.6885 14.8547 13.6885 14.8675L13.6885 14.8675ZM15.3855 14.8675C15.3855 14.8804 15.3725 14.9444 15.3465 15.0214C15.3206 15.0855 15.3078 15.1495 15.3078 15.1624C15.3078 15.1624 15.3725 15.1367 15.4502 15.0727C15.7352 14.8804 15.9812 14.842 16.7066 14.842C16.9916 14.842 17.2377 14.842 17.2506 14.8547C17.2636 14.8804 16.8362 16.2647 16.7714 16.3928C16.6807 16.5595 16.59 16.6492 16.4476 16.7133L16.318 16.7645L15.5798 16.7774L14.8414 16.7902L14.7119 17.2259C14.4528 18.0591 14.4528 17.9951 14.8284 17.9566C15.1264 17.9309 15.1135 17.9054 15.0228 18.2129L14.9451 18.4692H14.5694C13.7534 18.4821 13.6497 18.4309 13.7274 18.0975C13.7663 17.9309 14.6989 14.8804 14.7119 14.8547C14.7248 14.842 15.3855 14.842 15.3855 14.8675ZM18.7921 14.8675C18.7921 14.8804 18.7791 14.9188 18.7663 14.9701C18.7273 15.0983 18.7273 15.0983 18.8957 15.0086C19.1159 14.8932 19.6341 14.8547 20.6962 14.8547H21.033V15.0086C21.033 15.188 21.046 15.2008 21.2014 15.2264L21.318 15.2393L21.2532 15.47L21.1885 15.7007H20.9552C20.3594 15.7135 20.2688 15.6495 20.2558 15.3034V15.1367L20.217 15.2521L20.1781 15.3803H20.0485C19.9838 15.3803 19.919 15.3803 19.919 15.3932C19.919 15.3932 19.2844 17.4823 19.1937 17.7771C19.1807 17.8028 19.1937 17.8156 19.2714 17.8156C19.388 17.8156 19.388 17.8156 19.3491 17.918C19.3103 18.0335 19.3103 18.0335 19.4398 18.0335C19.5304 18.0335 19.5823 18.0206 19.647 17.9822C19.7377 17.9309 19.7377 17.9437 20.1521 17.367L20.3205 17.1234H19.9708C19.5434 17.1234 19.5823 17.1491 19.66 16.8928L19.7247 16.6876H20.5797C20.6574 16.4185 20.6832 16.3416 20.6832 16.3287C20.6832 16.3159 20.5019 16.3159 20.2688 16.3159H19.8543L19.9838 15.8545H21.1495C21.7842 15.8545 22.3154 15.8545 22.3154 15.8673C22.3154 15.8801 22.2895 15.9827 22.2506 16.0981L22.1859 16.3159L21.7972 16.3287L21.4087 16.3416C21.3439 16.5339 21.318 16.6236 21.3051 16.6492L21.2921 16.7005H21.6678C22.1081 16.7005 22.0822 16.6748 21.9915 16.9311L21.9268 17.1362H21.0718L20.9424 17.29H21.2791L21.3309 17.5977C21.3828 17.9437 21.3828 17.9437 21.5511 17.9437C21.6807 17.9437 21.6807 17.918 21.5901 18.2257L21.5122 18.4821H21.2662C20.8387 18.4821 20.761 18.418 20.6832 17.9822L20.6444 17.7002L20.489 17.9054C20.0615 18.4821 20.0357 18.4949 19.4916 18.4949C19.1418 18.4949 19.1418 18.4949 19.1937 18.3924C19.2066 18.3411 19.2066 18.3411 19.103 18.3411C18.9994 18.3411 18.9994 18.3411 18.9734 18.418L18.9604 18.4949H18.2351L18.248 18.4564C18.287 18.3283 18.3517 18.3411 17.5616 18.3411C16.875 18.3411 16.8362 18.3411 16.8492 18.3026L16.9139 18.072C16.9916 17.8412 16.9787 17.8412 17.0564 17.8412C17.1212 17.8412 17.1212 17.8412 17.147 17.7515C17.7559 15.7392 17.9502 15.0983 17.976 15.0086L18.0279 14.842H18.3906C18.6237 14.842 18.7921 14.8547 18.7921 14.8675ZM14.1937 15.9699L14.0512 16.4185H13.2741C13.1964 16.6748 13.1705 16.7517 13.1574 16.7773C13.1445 16.8159 13.1704 16.8159 13.5461 16.8159C13.7663 16.8159 13.9477 16.8287 13.9477 16.8287C13.9477 16.8414 13.9347 16.8671 13.9217 16.9056C13.9088 16.9311 13.8828 17.0337 13.857 17.1362L13.8051 17.3028H13.002L12.9114 17.6105C12.7818 18.0463 12.7948 18.0591 13.287 17.9951C13.4943 17.9694 13.4813 17.9437 13.3906 18.2514L13.3129 18.5077H12.7688C11.914 18.5077 11.901 18.4821 12.1341 17.7515C12.199 17.5208 12.2637 17.3285 12.2637 17.3285C12.2637 17.3285 12.173 17.3157 12.0434 17.3157C11.9269 17.3157 11.8233 17.3157 11.8233 17.3028C11.914 16.9825 11.9528 16.8799 11.9528 16.8542C11.9657 16.8287 11.9917 16.8159 12.186 16.8159H12.4061L12.5098 16.4185H12.3026C12.1471 16.4185 12.0953 16.4185 12.0953 16.3928C12.0953 16.3673 12.2119 15.9955 12.2248 15.957C12.2507 15.9315 14.2067 15.9442 14.1937 15.9699H14.1937ZM16.7066 16.8928C16.7066 16.9184 16.6807 16.9953 16.6678 17.0594C16.59 17.4183 16.4865 17.4951 16.0719 17.5208C15.9295 17.5336 15.7999 17.5464 15.7999 17.5464C15.774 17.5849 15.774 17.8925 15.7999 17.9437L15.8388 17.9951L16.0979 17.9822C16.2403 17.9694 16.3569 17.9694 16.3569 17.9694C16.3569 17.9951 16.2144 18.4437 16.2015 18.4564C16.1756 18.4821 15.3855 18.4692 15.2818 18.4309C15.1264 18.3795 15.1264 18.3923 15.1392 17.5848L15.1523 16.8799H15.8129V17.1491H15.9425C16.0849 17.1491 16.0979 17.1362 16.1626 16.9568L16.2015 16.8542H16.4606C16.6936 16.8671 16.7196 16.8671 16.7066 16.8928ZM17.9243 11.4069L17.7817 12.0221H17.976C18.9734 12.0478 19.388 10.9069 18.4164 10.8301C18.261 10.8172 18.1186 10.8044 18.1056 10.8044C18.0667 10.8044 18.0667 10.8429 17.9243 11.4069ZM12.7688 12.2785C12.5227 12.381 12.2896 13.3039 12.484 13.4448C12.6264 13.5602 12.8337 13.3679 12.9373 13.0475C13.1057 12.4579 13.0538 12.1759 12.7688 12.2785ZM20.489 12.3425C20.2299 12.4707 20.0357 13.3808 20.2299 13.4833C20.489 13.6243 20.8258 13.1373 20.8258 12.6117C20.8258 12.3682 20.6832 12.2528 20.489 12.3425ZM15.2559 15.3932L15.1911 15.6238C15.1523 15.7392 15.1264 15.8418 15.1135 15.8545C15.1135 15.8673 15.1782 15.8418 15.2688 15.7904C15.5279 15.6623 15.6056 15.6366 15.9812 15.6238L16.3051 15.611C16.3569 15.4572 16.3699 15.3932 16.3699 15.3803C16.3829 15.3675 15.2688 15.3675 15.2559 15.3932V15.3932ZM15.0358 16.1365L14.9838 16.3416L16.0979 16.3287L16.1626 16.1236C15.2818 16.1236 15.0358 16.1236 15.0358 16.1365ZM18.559 15.675C18.5071 15.8418 18.4683 15.9699 18.4813 15.9699L18.6367 15.9186C18.7144 15.8929 18.8569 15.8545 18.9346 15.8418C19.0123 15.8289 19.0771 15.816 19.09 15.816C19.09 15.816 19.2196 15.4187 19.2196 15.4059C19.2196 15.4059 19.09 15.3932 18.9346 15.3932H18.6496L18.5589 15.6751L18.559 15.675ZM18.3517 16.3287C18.3517 16.3416 18.2999 16.4698 18.261 16.6236C18.2093 16.7773 18.1703 16.9184 18.1703 16.9184C18.1703 16.9311 18.2351 16.9056 18.3257 16.8671C18.4164 16.8287 18.546 16.7902 18.6237 16.7774C18.7921 16.7517 18.805 16.739 18.818 16.6748C18.831 16.6492 18.8569 16.5467 18.8827 16.4698L18.9346 16.3159H18.6496C18.4942 16.3159 18.3516 16.3159 18.3516 16.3287H18.3517ZM17.8983 17.8028L18.4683 17.8156C18.5849 17.4311 18.6237 17.3028 18.6237 17.29L18.0538 17.2645L17.8983 17.8028Z" fill="white"/>
</g>
<defs>
<clipPath id="clip0_3624_238771">
<rect width="28" height="28" fill="white"/>
</clipPath>
</defs>
</svg>
