<?xml version="1.0" encoding="UTF-8"?>
<svg width="475px" height="38px" viewBox="0 0 475 38" version="1.1" xmlns="http://www.w3.org/2000/svg" xmlns:xlink="http://www.w3.org/1999/xlink">
    <title>编组 2</title>
    <defs>
        <linearGradient x1="0%" y1="50%" x2="100%" y2="50%" id="linearGradient-1">
            <stop stop-color="#00A3FF" stop-opacity="0.02" offset="0%"></stop>
            <stop stop-color="#00A3FF" offset="100%"></stop>
        </linearGradient>
    </defs>
    <g id="V1.7.7.3商标工单服务优化" stroke="none" stroke-width="1" fill="none" fill-rule="evenodd">
        <g id="OA-我的商标-答复弹窗" transform="translate(-714.000000, -579.000000)">
            <g id="弹框2" transform="translate(680.000000, 273.000000)">
                <g id="编组-2" transform="translate(34.000000, 306.000000)">
                    <g id="编组-7" transform="translate(1.000000, 0.000000)">
                        <g id="1" fill-rule="nonzero">
                            <path d="M18.7164256,17.0506199 C19.3775826,16.3894628 20.3693182,16.3894628 21.0304752,17.0506199 C21.6916322,17.7117769 21.6916322,18.7035124 21.0304752,19.3646694 L14.418905,25.9762397 C13.757748,26.6373967 12.7660124,26.6373967 12.1048554,25.9762397 L8.79907026,22.6704545 C8.13791326,22.0092975 8.13791326,21.017562 8.79907026,20.3564049 C9.46022727,19.6952479 10.4519628,19.6952479 11.1131198,20.3564049 L13.2618802,22.5051653 L18.7164256,17.0506199 Z" id="路径" fill="#00A3FF"></path>
                            <path d="M26.4850206,18.2076446 C26.4850206,17.2159091 27.1461777,16.5547521 28.1379132,16.5547521 C29.1296488,16.5547521 29.7908058,17.2159091 29.7908058,18.2076446 L29.7908058,31.4307851 C29.7908058,34.2407025 27.6420455,36.3894628 24.8321281,36.3894628 L4.99741736,36.3894628 C2.18749998,36.3894628 0.0387396694,34.2407025 0.0387396694,31.4307851 L0.0387396694,4.98450412 C0.0387396694,2.17458674 2.18749998,0.0258264301 4.99741736,0.0258264301 L19.0470041,0.0258264301 C20.0387397,0.0258264301 21.0304752,0.521694199 21.526343,1.18285126 L29.294938,10.4390496 C29.956095,11.1002066 29.7908058,12.2572314 29.1296488,12.7530992 C28.4684918,13.4142562 27.3114669,13.2489669 26.8155992,12.5878099 L19.0470041,3.33161157 L4.99741736,3.33161157 C4.00568182,3.33161157 3.34452481,3.99276858 3.34452481,4.98450412 L3.34452481,31.4307851 C3.34452481,32.4225207 4.00568182,33.0836777 4.99741736,33.0836777 L24.8321281,33.0836777 C25.8238636,33.0836777 26.4850206,32.4225207 26.4850206,31.4307851 L26.4850206,18.2076446 Z" id="路径" fill="#334966"></path>
                            <path d="M18.2205579,0.0258264301 C20.0387397,0.0258264301 21.526343,1.51342974 21.526343,3.33161157 L21.526343,9.9431818 L28.1379132,9.9431818 L28.1379132,13.2489669 L21.526343,13.2489669 C19.7081611,13.2489669 18.2205579,11.7613636 18.2205579,9.9431818 L18.2205579,0.0258264301 Z" id="路径" fill="#334966"></path>
                        </g>
                        <g id="2" transform="translate(107.250000, 2.000000)">
                            <path d="M27,32 L1.63636364,32 C0.732624955,32 0,31.2255736 0,30.2702703 L0,1.72972973 C0,0.774426379 0.732624955,0 1.63636364,0 L25.3636364,0 C26.267375,0 27,0.774426379 27,1.72972973 L27,12.6621655 L27,13.7640263" id="路径" stroke="#334966" stroke-width="3" stroke-linecap="round"></path>
                            <rect id="矩形" fill="#334966" transform="translate(26.000000, 22.500000) rotate(12.000000) translate(-26.000000, -22.500000) " x="25" y="17" width="2" height="11" rx="1"></rect>
                            <path d="M25,26 L20,26 C19.4477153,26 19,25.5522847 19,25 L19,20" id="路径" stroke="#334966" stroke-width="2" stroke-linecap="round" transform="translate(22.000000, 23.000000) rotate(-315.000000) translate(-22.000000, -23.000000) "></path>
                            <path d="M33,26 L28,26 C27.4477153,26 27,25.5522847 27,25 L27,20" id="路径" stroke="#334966" stroke-width="2" stroke-linecap="round" transform="translate(30.000000, 23.000000) scale(-1, 1) rotate(-315.000000) translate(-30.000000, -23.000000) "></path>
                            <rect id="矩形" fill="#00A3FF" x="6" y="5" width="16" height="3" rx="1.5"></rect>
                            <rect id="矩形备份-2" fill="#00A3FF" x="6" y="14" width="12" height="3" rx="1.5"></rect>
                            <rect id="矩形备份-3" fill="#00A3FF" x="6" y="24" width="8" height="3" rx="1.5"></rect>
                        </g>
                        <g id="3" transform="translate(220.500000, 1.000000)" fill-rule="nonzero">
                            <path d="M0.0330379518,15.2450249 C0.0330379518,14.2300995 0.709654851,13.5534826 1.72458022,13.5534826 C2.7395056,13.5534826 3.4161225,14.2300995 3.4161225,15.2450249 L3.4161225,33.85199 C3.4161225,34.8669154 2.7395056,35.5435324 1.72458022,35.5435324 C0.709654851,35.5435324 0.0330379518,34.8669155 0.0330379518,33.85199 L0.0330379518,15.2450249 Z" id="路径" fill="#334966"></path>
                            <path d="M2.7395056,21.1654229 C2.0628887,21.6728856 0.878809063,21.6728856 0.371346377,20.9962687 C-0.13611631,20.3196518 -0.13611631,19.1355721 0.540500638,18.6281094 L4.60020213,15.2450249 C6.12259019,14.0609453 7.98328672,13.7226368 9.674829,14.3992537 L14.0728389,16.2599503 C17.117615,17.6131841 18.3016946,19.9813433 17.117615,22.6878109 C15.7643812,25.5634328 12.5504509,25.732587 8.32159515,23.7027363 C7.47582399,23.3644278 7.13751556,22.3495025 7.47582399,21.5037313 C7.81413246,20.6579602 8.82905784,20.3196518 9.674829,20.6579602 C12.3812966,22.011194 13.5653763,21.8420398 13.9036847,21.1654229 C14.2419932,20.3196517 14.0728389,19.812189 12.5504509,19.3047264 L8.49074936,17.6131841 C7.98328668,17.4440299 7.30666978,17.4440299 6.79920709,17.9514925 L2.7395056,21.1654229 L2.7395056,21.1654229 Z" id="路径" fill="#334966"></path>
                            <path d="M27.6051772,18.7972637 C29.9733365,17.7823383 32.0031872,17.9514925 33.1872668,19.6430348 C34.7096549,21.6728856 33.8638837,23.8718905 32.0031872,25.5634328 C31.3265703,26.2400497 27.7743315,29.1156716 21.0081623,34.1902985 C19.6549285,35.2052239 17.9633862,35.5435324 16.4409981,35.0360697 L6.2917444,31.8221393 C5.44597324,31.4838308 4.93851056,30.6380597 5.10766482,29.6231343 C5.44597329,28.7773632 6.2917444,28.2699005 7.30666978,28.4390547 L17.4559235,31.6529851 C17.9633862,31.8221393 18.6400031,31.6529851 18.9783116,31.3146766 C25.5753265,26.2400497 29.1275653,23.3644278 29.8041822,22.8569652 C30.6499534,22.011194 30.8191076,21.6728856 30.6499534,21.3345771 C30.4807991,21.1654229 30.3116449,21.1654229 29.2967195,21.5037313 L19.4857743,26.5783582 C19.1474658,26.7475124 18.6400031,26.7475124 18.1325404,26.7475124 L8.99821205,23.8718906 C8.15244089,23.5335821 7.6449782,22.687811 7.98328668,21.6728856 C8.32159515,20.8271144 9.16736626,20.3196517 10.1822917,20.6579602 L18.6400031,23.3644279 L27.6051772,18.7972637 L27.6051772,18.7972637 Z" id="路径" fill="#334966"></path>
                            <path d="M28.7892568,5.09577116 C29.8041822,5.09577116 30.4807991,4.41915426 30.4807991,3.40422884 C30.4807991,2.38930342 29.8041822,1.71268657 28.7892568,1.71268657 L20.3315454,1.71268657 C18.4708489,1.71268657 16.9484608,3.23507463 16.9484608,5.09577116 L16.9484608,6.78731343 C16.9484608,8.64800997 18.4708489,10.170398 20.3315454,10.170398 L27.0977146,10.170398 L27.0977146,11.8619403 L18.6400031,11.8619403 C17.6250777,11.8619403 16.9484608,12.5385572 16.9484608,13.5534826 C16.9484608,14.5684079 17.6250777,15.2450249 18.6400031,15.2450249 L27.0977146,15.2450249 C28.9584111,15.2450249 30.4807991,13.7226368 30.4807991,11.8619403 L30.4807991,10.170398 C30.4807991,8.30970149 28.9584111,6.78731343 27.0977146,6.78731343 L20.3315454,6.78731343 L20.3315454,5.09577116 L28.7892568,5.09577116 Z" id="路径" fill="#00A3FF"></path>
                            <path d="M25.4061723,15.2450249 C25.4061723,16.2599503 24.7295554,16.9365672 23.71463,16.9365672 C22.6997045,16.9365672 22.0230877,16.2599503 22.0230877,15.2450249 L22.0230877,13.5534826 C22.0230877,12.5385572 22.6997046,11.8619403 23.71463,11.8619403 C24.7295553,11.8619403 25.4061723,12.5385572 25.4061723,13.5534826 L25.4061723,15.2450249 Z M25.4061723,3.40422884 C25.4061723,4.41915421 24.7295554,5.09577116 23.71463,5.09577116 C22.6997045,5.09577116 22.0230877,4.41915426 22.0230877,3.40422884 L22.0230877,1.71268657 C22.0230877,0.697761194 22.6997046,0.0211442951 23.71463,0.0211442951 C24.7295553,0.0211442951 25.4061723,0.697761194 25.4061723,1.71268657 L25.4061723,3.40422884 Z" id="形状" fill="#00A3FF"></path>
                        </g>
                        <g id="4" transform="translate(331.750000, 3.000000)" fill-rule="nonzero">
                            <path d="M5.7882883,12.8440315 C5.7882883,13.7088964 5.21171174,14.285473 4.34684683,14.285473 C3.48198193,14.285473 2.90540541,13.7088964 2.90540541,12.8440315 L2.90540541,2.8980856 C2.90540541,1.3125 4.2027027,0.0152027027 5.7882883,0.0152027027 L25.9684685,0.0152027027 C27.5540541,0.0152027027 28.8513514,1.3125 28.8513514,2.8980856 L28.8513514,12.9881757 C28.8513514,13.8530405 28.2747748,14.4296171 27.4099099,14.4296171 C26.5450451,14.4296171 25.9684685,13.8530405 25.9684685,12.9881757 L25.9684685,2.8980856 L5.7882883,2.8980856 L5.7882883,12.8440315 Z" id="路径" fill="#334966"></path>
                            <path d="M2.90540541,14.1413288 L2.90540541,27.4025901 C2.90540541,28.2674549 3.48198197,28.8440315 4.34684683,28.8440315 L27.4099099,28.8440315 C28.2747748,28.8440315 28.8513514,28.267455 28.8513514,27.4025901 L28.8513514,17.3125 C28.8513514,16.4476351 29.4279279,15.8710586 30.2927928,15.8710586 C31.1576576,15.8710586 31.7342342,16.4476351 31.7342342,17.3125 L31.7342342,27.4025901 C31.7342342,29.8530405 29.8603604,31.7269144 27.4099099,31.7269144 L4.34684683,31.7269144 C1.89639637,31.7269144 0.0225225084,29.8530405 0.0225225084,27.4025901 L0.0225225084,11.5467342 C0.0225225084,10.3935811 1.31981981,9.67286039 2.18468467,10.249437 L15.8783784,18.6097973 L29.5720721,10.249437 C30.2927928,9.81700452 31.1576577,10.1052928 31.5900901,10.6818694 C32.0225225,11.4025901 31.7342342,12.267455 31.1576576,12.6998874 L16.7432432,21.4926802 C16.3108108,21.7809685 15.7342342,21.7809685 15.3018018,21.4926802 L2.90540541,14.1413288 Z" id="路径" fill="#334966"></path>
                            <path d="M26.4009009,9.67286035 C25.8243243,9.09628378 25.8243243,8.23141892 26.4009009,7.65484236 C26.9774774,7.07826579 27.8423423,7.07826579 28.4189189,7.65484236 L31.3018018,10.5377252 C31.8783784,11.1143018 31.8783784,11.9791666 31.3018018,12.5557432 C30.7252253,13.1323198 29.8603604,13.1323198 29.2837838,12.5557432 L26.4009009,9.67286035 Z M2.90540541,14.5737613 C2.90540541,15.4386261 2.32882884,16.0152027 1.46396398,16.0152027 C0.599099113,16.0152027 0.0225225084,15.4386261 0.0225225084,14.5737613 L0.0225225084,11.6908784 C0.0225225084,11.2584459 0.166666639,10.9701576 0.454954941,10.6818694 L3.33783784,7.79898649 C3.9144144,7.22240992 4.77927927,7.22240992 5.35585587,7.79898649 C5.93243243,8.37556305 5.93243243,9.24042791 5.35585587,9.81700452 L2.90540541,12.2674549 L2.90540541,14.5737613 Z" id="形状" fill="#334966"></path>
                            <path d="M17.3198198,14.5737613 C17.3198198,15.4386261 16.7432432,16.0152027 15.8783784,16.0152027 C15.0135135,16.0152027 14.436937,15.4386261 14.436937,14.5737613 L14.436937,5.92511263 C14.436937,5.06024776 15.0135135,4.48367116 15.8783784,4.48367116 C16.7432432,4.48367116 17.3198198,5.06024772 17.3198198,5.92511263 L17.3198198,14.5737613 Z" id="路径" fill="#00A3FF"></path>
                            <path d="M19.7702703,7.79898649 C20.3468468,8.37556305 20.3468468,9.24042791 19.7702703,9.81700452 C19.1936937,10.3935811 18.3288288,10.3935811 17.7522522,9.81700452 L14.8693694,6.93412162 C14.2927928,6.35754506 14.2927928,5.49268019 14.8693694,4.91610359 C15.4459459,4.33952703 16.3108108,4.33952703 16.8873874,4.91610359 L19.7702703,7.79898649 Z" id="路径" fill="#00A3FF"></path>
                            <path d="M14.0045045,9.81700452 C13.427928,10.3935811 12.5630631,10.3935811 11.9864865,9.81700452 C11.4099099,9.24042796 11.4099099,8.37556309 11.9864865,7.79898649 L14.8693694,4.91610359 C15.4459459,4.33952703 16.3108108,4.33952703 16.8873874,4.91610359 C17.4639639,5.49268015 17.4639639,6.35754502 16.8873874,6.93412162 L14.0045045,9.81700452 Z" id="路径" fill="#00A3FF"></path>
                        </g>
                        <g id="5" transform="translate(441.000000, 3.000000)" fill-rule="nonzero">
                            <path d="M5.7882883,12.8440315 C5.7882883,13.7088964 5.21171174,14.285473 4.34684683,14.285473 C3.48198193,14.285473 2.90540541,13.7088964 2.90540541,12.8440315 L2.90540541,2.8980856 C2.90540541,1.3125 4.2027027,0.0152027027 5.7882883,0.0152027027 L25.9684685,0.0152027027 C27.5540541,0.0152027027 28.8513514,1.3125 28.8513514,2.8980856 L28.8513514,12.9881757 C28.8513514,13.8530405 28.2747748,14.4296171 27.4099099,14.4296171 C26.5450451,14.4296171 25.9684685,13.8530405 25.9684685,12.9881757 L25.9684685,2.8980856 L5.7882883,2.8980856 L5.7882883,12.8440315 Z" id="路径" fill="#334966"></path>
                            <path d="M11.5540541,8.66385135 C10.6891892,8.66385135 10.1126126,8.08727479 10.1126126,7.22240992 C10.1126126,6.35754506 10.6891892,5.78096845 11.5540541,5.78096845 L20.2027027,5.78096845 C21.0675676,5.78096845 21.6441441,6.35754502 21.6441441,7.22240992 C21.6441441,8.08727483 21.0675676,8.66385135 20.2027027,8.66385135 L11.5540541,8.66385135 Z M11.5540541,12.9881757 C10.6891892,12.9881757 10.1126126,12.4115991 10.1126126,11.5467342 C10.1126126,10.6818694 10.6891892,10.1052928 11.5540541,10.1052928 L20.2027027,10.1052928 C21.0675676,10.1052928 21.6441441,10.6818693 21.6441441,11.5467342 C21.6441441,12.4115992 21.0675676,12.9881757 20.2027027,12.9881757 L11.5540541,12.9881757 Z" id="形状" fill="#00A3FF"></path>
                            <path d="M2.90540541,14.4296171 L2.90540541,27.4025901 C2.90540541,28.2674549 3.48198197,28.8440315 4.34684683,28.8440315 L27.4099099,28.8440315 C28.2747748,28.8440315 28.8513514,28.267455 28.8513514,27.4025901 L28.8513514,17.7449324 C28.8513514,16.8800676 29.4279279,16.303491 30.2927928,16.303491 C31.1576576,16.303491 31.7342342,16.8800676 31.7342342,17.7449324 L31.7342342,27.4025901 C31.7342342,29.8530405 29.8603604,31.7269144 27.4099099,31.7269144 L4.34684683,31.7269144 C1.89639637,31.7269144 0.0225225084,29.8530405 0.0225225084,27.4025901 L0.0225225084,11.9791667 C0.0225225084,10.8260135 1.17567568,10.1052928 2.18468467,10.6818694 L15.8783784,18.7539414 L29.5720721,10.6818694 C30.2927928,10.249437 31.1576577,10.5377253 31.5900901,11.2584459 C32.0225225,11.9791667 31.7342342,12.8440315 31.0135135,13.276464 L16.5990991,21.7809685 C16.1666667,22.0692568 15.5900901,22.0692568 15.1576576,21.7809685 L2.90540541,14.4296171 Z" id="路径" fill="#334966"></path>
                            <path d="M2.47297297,12.5557432 C1.89639641,13.1323198 1.03153155,13.1323198 0.454954941,12.5557432 C-0.121621621,11.9791667 -0.121621621,11.1143018 0.454954941,10.5377252 L3.33783784,7.65484236 C3.9144144,7.07826579 4.77927927,7.07826579 5.35585587,7.65484236 C5.93243243,8.23141892 5.93243243,9.09628378 5.35585587,9.67286035 L2.47297297,12.5557432 L2.47297297,12.5557432 Z M29.2837838,12.5557432 C29.8603603,13.1323198 30.7252252,13.1323198 31.3018018,12.5557432 C31.8783784,11.9791667 31.8783784,11.1143018 31.3018018,10.5377252 L28.4189189,7.65484236 C27.8423424,7.07826579 26.9774775,7.07826579 26.4009009,7.65484236 C25.8243243,8.23141892 25.8243243,9.09628378 26.4009009,9.67286035 L29.2837838,12.5557432 L29.2837838,12.5557432 Z" id="形状" fill="#334966"></path>
                        </g>
                        <path d="M195.118192,12 L204.078325,18.1395791 L195.118192,24.2791582 L195.118192,20.2882471 L156,20.2882471 L156,16.7320478 L195.118192,16.7320478 L195.118192,12 Z" id="形状结合备份-4" fill="url(#linearGradient-1)" transform="translate(180.039163, 18.139579) rotate(-360.000000) translate(-180.039163, -18.139579) "></path>
                        <path d="M82.1181917,12 L91.078325,18.1395791 L82.1181917,24.2791582 L82.1181917,20.2882471 L43,20.2882471 L43,16.7320478 L82.1181917,16.7320478 L82.1181917,12 Z" id="形状结合备份-7" fill="url(#linearGradient-1)" transform="translate(67.039163, 18.139579) rotate(-360.000000) translate(-67.039163, -18.139579) "></path>
                        <path d="M308.118192,12 L317.078325,18.1395791 L308.118192,24.2791582 L308.118192,20.2882471 L269,20.2882471 L269,16.7320478 L308.118192,16.7320478 L308.118192,12 Z" id="形状结合备份-5" fill="url(#linearGradient-1)" transform="translate(293.039163, 18.139579) rotate(-360.000000) translate(-293.039163, -18.139579) "></path>
                        <path d="M416.118192,12 L425.078325,18.1395791 L416.118192,24.2791582 L416.118192,20.2882471 L377,20.2882471 L377,16.7320478 L416.118192,16.7320478 L416.118192,12 Z" id="形状结合备份-6" fill="url(#linearGradient-1)" transform="translate(401.039163, 18.139579) rotate(-360.000000) translate(-401.039163, -18.139579) "></path>
                    </g>
                </g>
            </g>
        </g>
    </g>
</svg>