<?xml version="1.0" encoding="UTF-8"?>
<svg width="12px" height="12px" viewBox="0 0 12 12" version="1.1" xmlns="http://www.w3.org/2000/svg" xmlns:xlink="http://www.w3.org/1999/xlink">
    <!-- Generator: Sketch 58 (84663) - https://sketch.com -->
    <title>元素</title>
    <desc>Created with Sketch.</desc>
    <g id="新增-OA" stroke="none" stroke-width="1" fill="none" fill-rule="evenodd">
        <g id="欧标-查看商标信息" transform="translate(-833.000000, -174.000000)" fill="#00A3FF" fill-rule="nonzero">
            <g id="基本信息" transform="translate(592.000000, 102.000000)">
                <g id="全局提示-Alert-基本型警告提示-小（提示）" transform="translate(24.000000, 60.000000)">
                    <g id="Group-31" transform="translate(12.000000, 7.000000)">
                        <g id="Group-32">
                            <g id="编组-17">
                                <g id="编组-6" transform="translate(204.000000, 4.000000)">
                                    <g id="fanhui" transform="translate(7.300000, 7.000000) rotate(-180.000000) translate(-7.300000, -7.000000) translate(0.800000, 0.500000)">
                                        <path d="M2.4753791,5.83578429 C2.5990915,5.8372735 2.7174805,5.88633997 2.80597633,5.97280073 L6.64176063,9.77072522 C6.8257135,9.95206443 6.8278323,10.2481922 6.6464931,10.432145 C6.4651539,10.6160979 6.16902616,10.6182167 5.98507328,10.4368775 L2.14928898,6.63895304 C1.96614926,6.45727093 1.96403528,6.16181732 2.14455651,5.97753321 C2.22852559,5.8838015 2.34959533,5.83192625 2.4753791,5.83578429 Z" id="路径"></path>
                                        <path d="M6.49425566,5.83578429 C6.61796807,5.8372735 6.73635706,5.88633997 6.8248529,5.97280073 L10.6606372,9.77072522 C10.8445901,9.95206443 10.8467089,10.2481922 10.6653697,10.432145 C10.4840305,10.6160979 10.1879027,10.6182167 10.0039498,10.4368775 L6.16816554,6.63895304 C5.98502582,6.45727093 5.98291185,6.16181732 6.16343307,5.97753321 C6.24740215,5.8838015 6.36847189,5.83192625 6.49425566,5.83578429 Z" id="路径备份"></path>
                                        <path d="M6.26969789,2 C6.3934103,2.00148921 6.51179929,2.05055568 6.60029512,2.13701645 C6.7835577,2.31864684 6.78567241,2.61420211 6.60502761,2.79843627 L2.80710312,6.63399521 C2.68979722,6.75299186 2.51791814,6.80036734 2.35621108,6.75827578 C2.19450401,6.71618422 2.0675361,6.59102031 2.02313493,6.4299321 C1.97873375,6.26884389 2.02364492,6.0963045 2.14095081,5.97730786 L5.9388753,2.14152356 C6.02524997,2.0512292 6.14474332,2.00011079 6.26969789,2 Z" id="路径"></path>
                                        <path d="M10.2885745,2 C10.4122869,2.00148921 10.5306758,2.05055568 10.6191717,2.13701645 C10.8024343,2.31864684 10.804549,2.61420211 10.6239042,2.79843627 L6.82597968,6.63399521 C6.70867378,6.75299186 6.53679471,6.80036734 6.37508764,6.75827578 C6.21338057,6.71618422 6.08641266,6.59102031 6.04201149,6.4299321 C5.99761032,6.26884389 6.04252148,6.0963045 6.15982738,5.97730786 L9.95775186,2.14152356 C10.0441265,2.0512292 10.1636199,2.00011079 10.2885745,2 Z" id="路径备份-2"></path>
                                    </g>
                                </g>
                            </g>
                        </g>
                    </g>
                </g>
            </g>
        </g>
    </g>
</svg>