<?xml version="1.0" encoding="UTF-8"?>
<svg width="196px" height="148px" viewBox="0 0 196 148" version="1.1" xmlns="http://www.w3.org/2000/svg" xmlns:xlink="http://www.w3.org/1999/xlink">
    <!-- Generator: Sketch 58 (84663) - https://sketch.com -->
    <title>示例图2</title>
    <desc>Created with Sketch.</desc>
    <defs>
        <path d="M60.4858508,0.0467226473 C44.0000887,0.0467226473 30.3636815,12.3031438 28.1656774,28.155262 L28.1656774,28.155262 C12.2819879,30.3487929 0,43.9450833 0,60.3831813 L0,60.3831813 C0,78.0720836 14.2160363,92.4806667 31.8469073,92.9177181 L31.8469073,92.9177181 C31.984496,92.9284254 32.1167177,92.9586004 32.2557702,92.9586004 L32.2557702,92.9586004 C32.3030968,92.9586004 32.3450565,92.9459464 32.3914073,92.9439996 L32.3914073,92.9439996 C32.4826452,92.944973 32.5694919,92.9586004 32.6602419,92.9586004 L32.6602419,92.9586004 L32.6602419,92.9177181 C35.1373266,92.7098997 37.0899153,90.6609169 37.0899153,88.1359472 L37.0899153,88.1359472 L37.0899153,74.5849194 C37.0899153,71.9207551 34.9255766,69.7627528 32.2557702,69.7627528 L32.2557702,69.7627528 C29.5859637,69.7627528 27.4226008,71.9207551 27.4226008,74.5849194 L27.4226008,74.5849194 L27.4226008,82.6917854 C17.2634798,80.3181775 9.66780242,71.2281892 9.66780242,60.3831813 L9.66780242,60.3831813 C9.66780242,47.7393516 19.9791492,37.4540422 32.6543871,37.4540422 L32.6543871,37.4540422 C40.5798871,37.4540422 47.5817863,41.4712165 51.7192056,47.5724155 L51.7192056,47.5724155 C54.2016573,51.2318695 55.6521935,55.6422927 55.6521935,60.3831813 L55.6521935,60.3831813 C55.6521935,78.3446324 70.3019758,92.9586004 88.3075565,92.9586004 L88.3075565,92.9586004 C106.319968,92.9586004 120.974141,78.3446324 120.974141,60.3831813 L120.974141,60.3831813 C120.974141,43.9514103 108.710206,30.3225114 92.8304194,28.1197333 L92.8304194,28.1197333 C90.6231452,12.2792958 76.960879,0.0467226473 60.4858508,0.0467226473 Z M65.319996,60.3831813 C65.319996,59.312454 65.2609597,58.2558408 65.1585,57.2118817 L65.1585,57.2118817 C65.1253226,56.864382 65.0618952,56.5261295 65.0170081,56.1800899 L65.0170081,56.1800899 C64.926746,55.4894707 64.8335565,54.8017718 64.7008468,54.1252668 L64.7008468,54.1252668 C64.6222944,53.723744 64.5178831,53.3334152 64.4256694,52.9372461 L64.4256694,52.9372461 C64.2822258,52.3317985 64.1368306,51.7273242 63.9592339,51.135504 L63.9592339,51.135504 C63.837746,50.7266809 63.6982056,50.3241847 63.560129,49.9216886 L63.560129,49.9216886 C63.3693589,49.3600434 63.1702944,48.8047253 62.9492742,48.2591411 L62.9492742,48.2591411 C62.7863145,47.8576183 62.6135968,47.4629093 62.4355121,47.0672269 L62.4355121,47.0672269 C62.1964395,46.5381902 61.9446815,46.0174274 61.6787742,45.5020182 L61.6787742,45.5020182 C61.4792218,45.1199632 61.2782056,44.7408284 61.0654798,44.3675339 L61.0654798,44.3675339 C60.7781048,43.862832 60.4731653,43.3698107 60.1584677,42.8811697 L60.1584677,42.8811697 C59.9311048,42.5249095 59.7056935,42.1696227 59.4636935,41.8235831 L59.4636935,41.8235831 C59.1206976,41.3344554 58.7572097,40.862362 58.3903065,40.3931887 L58.3903065,40.3931887 C58.1429395,40.0758641 57.9028911,39.7546459 57.6438145,39.4475418 L57.6438145,39.4475418 C57.2276331,38.9540338 56.7855927,38.485834 56.340625,38.0186075 L56.340625,38.0186075 C56.0991129,37.763093 55.8702863,37.4978447 55.6199919,37.2510907 L55.6199919,37.2510907 C54.9813266,36.6203349 54.3133871,36.0187808 53.6249556,35.4420482 L53.6249556,35.4420482 C53.5507944,35.3792646 53.4834637,35.310154 53.4078387,35.2473705 L53.4078387,35.2473705 C52.6428065,34.6180748 51.843621,34.027228 51.0229677,33.4680163 L51.0229677,33.4680163 C50.7424234,33.2762588 50.4457782,33.1093227 50.1584032,32.927299 L50.1584032,32.927299 C49.6007298,32.5715255 49.0425685,32.2201323 48.4629395,31.8994008 L48.4629395,31.8994008 C48.1121371,31.7037497 47.7486492,31.53292 47.391504,31.3513831 L47.391504,31.3513831 C46.8513952,31.0783476 46.3093347,30.8077456 45.753125,30.5639118 L45.753125,30.5639118 C45.3628024,30.3935688 44.9656492,30.2397734 44.5680081,30.0854913 L44.5680081,30.0854913 C44.0191169,29.8698858 43.4677863,29.6620673 42.9037702,29.4766368 L42.9037702,29.4766368 C42.4900282,29.3393891 42.0714073,29.215282 41.6503468,29.0950685 L41.6503468,29.0950685 C41.0809637,28.9305659 40.5057258,28.7835842 39.9236573,28.65023 L39.9236573,28.65023 C39.4952782,28.5543512 39.0654355,28.4618793 38.6302258,28.3820615 L38.6302258,28.3820615 C38.3892016,28.3358255 38.155496,28.2710952 37.9120323,28.2311863 L37.9120323,28.2311863 C39.9763508,17.6786817 49.3138427,9.69008238 60.4858508,9.69008238 L60.4858508,9.69008238 C73.1620645,9.69008238 83.4738992,19.9822055 83.4738992,32.6313889 L83.4738992,32.6313889 C83.4738992,35.2945798 85.6387258,37.4540422 88.3075565,37.4540422 L88.3075565,37.4540422 C100.990113,37.4540422 111.306339,47.7393516 111.306339,60.3831813 L111.306339,60.3831813 C111.306339,73.0265244 100.990113,83.3152407 88.3075565,83.3152407 L88.3075565,83.3152407 C75.6332944,83.3152407 65.319996,73.0265244 65.319996,60.3831813 L65.319996,60.3831813 Z" id="path-1"></path>
        <linearGradient x1="0%" y1="49.9998703%" x2="100.000119%" y2="49.9998703%" id="linearGradient-3">
            <stop stop-color="#016EFF" offset="0%"></stop>
            <stop stop-color="#00A3FF" offset="100%"></stop>
        </linearGradient>
    </defs>
    <g id="页面-1" stroke="none" stroke-width="1" fill="none" fill-rule="evenodd">
        <g id="我的商标-填写商标信息-LOGO示例图" transform="translate(-691.000000, -490.000000)">
            <g id="弹框2" transform="translate(667.000000, 401.000000)">
                <g id="编组-25" transform="translate(24.000000, 89.000000)">
                    <rect id="矩形" fill="#F4F7FC" x="0" y="0" width="196" height="148"></rect>
                    <g id="编组" transform="translate(38.000000, 28.000000)">
                        <g>
                            <mask id="mask-2" fill="white">
                                <use xlink:href="#path-1"></use>
                            </mask>
                            <g id="Clip-2"></g>
                            <path d="M60.4858508,0.0467226473 C44.0000887,0.0467226473 30.3636815,12.3031438 28.1656774,28.155262 L28.1656774,28.155262 C12.2819879,30.3487929 0,43.9450833 0,60.3831813 L0,60.3831813 C0,78.0720836 14.2160363,92.4806667 31.8469073,92.9177181 L31.8469073,92.9177181 C31.984496,92.9284254 32.1167177,92.9586004 32.2557702,92.9586004 L32.2557702,92.9586004 C32.3030968,92.9586004 32.3450565,92.9459464 32.3914073,92.9439996 L32.3914073,92.9439996 C32.4826452,92.944973 32.5694919,92.9586004 32.6602419,92.9586004 L32.6602419,92.9586004 L32.6602419,92.9177181 C35.1373266,92.7098997 37.0899153,90.6609169 37.0899153,88.1359472 L37.0899153,88.1359472 L37.0899153,74.5849194 C37.0899153,71.9207551 34.9255766,69.7627528 32.2557702,69.7627528 L32.2557702,69.7627528 C29.5859637,69.7627528 27.4226008,71.9207551 27.4226008,74.5849194 L27.4226008,74.5849194 L27.4226008,82.6917854 C17.2634798,80.3181775 9.66780242,71.2281892 9.66780242,60.3831813 L9.66780242,60.3831813 C9.66780242,47.7393516 19.9791492,37.4540422 32.6543871,37.4540422 L32.6543871,37.4540422 C40.5798871,37.4540422 47.5817863,41.4712165 51.7192056,47.5724155 L51.7192056,47.5724155 C54.2016573,51.2318695 55.6521935,55.6422927 55.6521935,60.3831813 L55.6521935,60.3831813 C55.6521935,78.3446324 70.3019758,92.9586004 88.3075565,92.9586004 L88.3075565,92.9586004 C106.319968,92.9586004 120.974141,78.3446324 120.974141,60.3831813 L120.974141,60.3831813 C120.974141,43.9514103 108.710206,30.3225114 92.8304194,28.1197333 L92.8304194,28.1197333 C90.6231452,12.2792958 76.960879,0.0467226473 60.4858508,0.0467226473 Z M65.319996,60.3831813 C65.319996,59.312454 65.2609597,58.2558408 65.1585,57.2118817 L65.1585,57.2118817 C65.1253226,56.864382 65.0618952,56.5261295 65.0170081,56.1800899 L65.0170081,56.1800899 C64.926746,55.4894707 64.8335565,54.8017718 64.7008468,54.1252668 L64.7008468,54.1252668 C64.6222944,53.723744 64.5178831,53.3334152 64.4256694,52.9372461 L64.4256694,52.9372461 C64.2822258,52.3317985 64.1368306,51.7273242 63.9592339,51.135504 L63.9592339,51.135504 C63.837746,50.7266809 63.6982056,50.3241847 63.560129,49.9216886 L63.560129,49.9216886 C63.3693589,49.3600434 63.1702944,48.8047253 62.9492742,48.2591411 L62.9492742,48.2591411 C62.7863145,47.8576183 62.6135968,47.4629093 62.4355121,47.0672269 L62.4355121,47.0672269 C62.1964395,46.5381902 61.9446815,46.0174274 61.6787742,45.5020182 L61.6787742,45.5020182 C61.4792218,45.1199632 61.2782056,44.7408284 61.0654798,44.3675339 L61.0654798,44.3675339 C60.7781048,43.862832 60.4731653,43.3698107 60.1584677,42.8811697 L60.1584677,42.8811697 C59.9311048,42.5249095 59.7056935,42.1696227 59.4636935,41.8235831 L59.4636935,41.8235831 C59.1206976,41.3344554 58.7572097,40.862362 58.3903065,40.3931887 L58.3903065,40.3931887 C58.1429395,40.0758641 57.9028911,39.7546459 57.6438145,39.4475418 L57.6438145,39.4475418 C57.2276331,38.9540338 56.7855927,38.485834 56.340625,38.0186075 L56.340625,38.0186075 C56.0991129,37.763093 55.8702863,37.4978447 55.6199919,37.2510907 L55.6199919,37.2510907 C54.9813266,36.6203349 54.3133871,36.0187808 53.6249556,35.4420482 L53.6249556,35.4420482 C53.5507944,35.3792646 53.4834637,35.310154 53.4078387,35.2473705 L53.4078387,35.2473705 C52.6428065,34.6180748 51.843621,34.027228 51.0229677,33.4680163 L51.0229677,33.4680163 C50.7424234,33.2762588 50.4457782,33.1093227 50.1584032,32.927299 L50.1584032,32.927299 C49.6007298,32.5715255 49.0425685,32.2201323 48.4629395,31.8994008 L48.4629395,31.8994008 C48.1121371,31.7037497 47.7486492,31.53292 47.391504,31.3513831 L47.391504,31.3513831 C46.8513952,31.0783476 46.3093347,30.8077456 45.753125,30.5639118 L45.753125,30.5639118 C45.3628024,30.3935688 44.9656492,30.2397734 44.5680081,30.0854913 L44.5680081,30.0854913 C44.0191169,29.8698858 43.4677863,29.6620673 42.9037702,29.4766368 L42.9037702,29.4766368 C42.4900282,29.3393891 42.0714073,29.215282 41.6503468,29.0950685 L41.6503468,29.0950685 C41.0809637,28.9305659 40.5057258,28.7835842 39.9236573,28.65023 L39.9236573,28.65023 C39.4952782,28.5543512 39.0654355,28.4618793 38.6302258,28.3820615 L38.6302258,28.3820615 C38.3892016,28.3358255 38.155496,28.2710952 37.9120323,28.2311863 L37.9120323,28.2311863 C39.9763508,17.6786817 49.3138427,9.69008238 60.4858508,9.69008238 L60.4858508,9.69008238 C73.1620645,9.69008238 83.4738992,19.9822055 83.4738992,32.6313889 L83.4738992,32.6313889 C83.4738992,35.2945798 85.6387258,37.4540422 88.3075565,37.4540422 L88.3075565,37.4540422 C100.990113,37.4540422 111.306339,47.7393516 111.306339,60.3831813 L111.306339,60.3831813 C111.306339,73.0265244 100.990113,83.3152407 88.3075565,83.3152407 L88.3075565,83.3152407 C75.6332944,83.3152407 65.319996,73.0265244 65.319996,60.3831813 L65.319996,60.3831813 Z" id="Fill-1" fill="url(#linearGradient-3)" mask="url(#mask-2)"></path>
                        </g>
                        <g transform="translate(27.089552, 55.955662)">
                            <path d="M0.0970579957,4.99661954 L0.0970579957,4.99959782 C0.0970579957,7.71678674 2.19572431,9.91476126 4.78346453,9.91476126 C7.37073177,9.91476126 9.46892509,7.71281569 9.46892509,4.99661954 C9.46892509,2.28042338 7.37073177,0.0794705783 4.78346453,0.0794705783 C2.19572431,0.0794705783 0.0970579957,2.28042338 0.0970579957,4.99661954" id="Fill-3" fill="#FBB73C"></path>
                            <path d="M0.0970579957,4.99661954 L0.0970579957,4.99959782 C0.0970579957,7.71678674 2.19572431,9.91476126 4.78346453,9.91476126 C7.37073177,9.91476126 9.46892509,7.71281569 9.46892509,4.99661954 C9.46892509,2.28042338 7.37073177,0.0794705783 4.78346453,0.0794705783 C2.19572431,0.0794705783 0.0970579957,2.28042338 0.0970579957,4.99661954" id="Fill-5" fill="#00A3FF"></path>
                        </g>
                    </g>
                </g>
            </g>
        </g>
    </g>
</svg>