<?xml version="1.0" encoding="UTF-8"?>
<svg width="126px" height="77px" viewBox="0 0 126 77" version="1.1" xmlns="http://www.w3.org/2000/svg" xmlns:xlink="http://www.w3.org/1999/xlink">
    <!-- Generator: Sketch 58 (84663) - https://sketch.com -->
    <title>示例图</title>
    <desc>Created with Sketch.</desc>
    <g id="页面-1" stroke="none" stroke-width="1" fill="none" fill-rule="evenodd">
        <g id="我的商标-填写商标信息-基本信息" transform="translate(-814.000000, -555.000000)">
            <g id="编组-5" transform="translate(630.000000, 500.000000)">
                <g id="编组-27" transform="translate(168.000000, 30.000000)">
                    <g id="编组-28">
                        <g id="编组-26" transform="translate(16.188679, 25.018868)">
                            <rect id="矩形" fill="#F4F7FC" x="0" y="0" width="125.09434" height="76.5283019"></rect>
                            <g id="编组" transform="translate(13.245283, 22.075472)" fill="#4C4B4C">
                                <polygon id="Fill-1" points="59.6383283 16.6225473 62.7337184 29.837758 62.8008202 30.1138486 65.5251016 30.1138486 62.4297115 16.6225473"></polygon>
                                <polygon id="Fill-2" points="47.1981689 4.38312982 63.5617852 4.38312982 63.5617852 1.85938544 47.1981689 1.85938544"></polygon>
                                <polygon id="Fill-3" points="65.1848034 12.65153 45.6394865 12.65153 45.6394865 15.1752744 54.3063741 15.1752744 54.3063741 27.8662204 49.0975337 27.8662204 50.3271355 30.3231191 57.0142642 30.3231191 57.0142642 15.1752744 65.1848034 15.1752744"></polygon>
                                <polygon id="Fill-4" points="50.7036227 16.6225473 47.9706334 16.6225473 44.2172872 30.1138486 47.016866 30.1138486 50.578127 17.0743319"></polygon>
                                <polygon id="Fill-5" points="39.5267697 0.256139309 39.5267697 6.31578939 34.9756293 6.31578939 34.9756293 8.83927766 37.6999107 8.83927766 34.7692016 23.1142868 37.4937392 23.1142868 39.5267697 13.1896249 39.5267697 30.3231191 42.2372209 30.3231191 42.2372209 14.2409717 43.6845195 18.4489197 46.5596518 18.4489197 43.6932273 10.1444331 42.2372209 10.1444331 42.2372209 8.83927766 46.2891958 8.83927766 46.2891958 6.31578939 42.2372209 6.31578939 42.2372209 0.256139309"></polygon>
                                <path d="M18.6559364,0.256139309 L17.5961379,2.34756376 L10.9761111,2.34756376 L10.9761111,4.87130814 L15.2258057,4.87130814 L10.8506154,8.30963453 L10.8506154,11.5889143 L13.0954519,9.80713132 L13.0954519,12.2525049 L26.9045903,12.2525049 L26.9045903,9.92673642 L28.8372242,11.443954 L28.8372242,8.17030868 L24.698683,4.87130814 L28.8372242,4.87130814 L28.8372242,2.34756376 L20.454879,2.34756376 L21.5144214,0.256139309 L18.6559364,0.256139309 Z M19.3141486,4.87130814 L21.826624,4.87130814 L21.826624,5.93904615 L26.6482205,9.72645551 L13.1986657,9.72645551 L19.3141486,4.87130814 Z" id="Fill-6"></path>
                                <path d="M1.24655659,1.37130957 L1.24655659,13.2257882 L5.30134865,13.2257882 L5.30134865,27.6237319 L3.77030097,27.6237319 L3.77030097,14.6008626 L1.12387813,14.6008626 L1.12387813,27.6237319 L5.12227395e-05,27.6237319 L5.12227395e-05,28.4266484 L5.12227395e-05,29.4528959 L5.12227395e-05,30.1136693 L11.7597678,30.1136693 L11.7597678,27.6237319 L8.00872655,27.6237319 L8.00872655,18.5885529 L11.037271,18.5885529 L11.037271,16.0648085 L8.00872655,16.0648085 L8.00872655,13.2257882 L10.6915175,13.2257882 L10.6915175,1.37130957 L1.24655659,1.37130957 Z M3.95700785,10.7022999 L7.98106627,10.7022999 L7.98106627,3.89505395 L3.95700785,3.89505395 L3.95700785,10.7022999 Z" id="Fill-7"></path>
                                <polygon id="Fill-8" points="23.3324701 17.5455811 28.7118822 17.5455811 28.7118822 15.0190195 12.7690606 15.0190195 11.7597165 15.0190195 11.7597165 17.5455811 14.8179702 17.5455811 12.7690606 23.7417398 15.479768 23.7417398 25.8590317 23.7417398 25.8590317 27.6236551 16.799778 27.6236551 18.0465395 30.1138486 25.8590317 30.1138486 27.5516871 30.1138486 28.569483 30.1138486 28.569483 21.2963662 28.5684585 21.2963662 28.569483 21.2879144 16.2481091 21.2879144 17.5286776 17.5455811"></polygon>
                                <polygon id="Fill-9" points="73.4377855 4.17414104 95.5181158 4.17414104 95.5181158 1.65039667 73.4377855 1.65039667"></polygon>
                                <polygon id="Fill-10" points="70.7552251 12.649558 70.7552251 15.1758635 78.6079271 15.1758635 79.0481866 15.1758635 73.075359 30.3231959 96.9461801 30.3231959 93.4005421 21.3105549 90.3307633 21.3105549 92.8406775 27.8337708 77.5814234 27.8337708 82.0621326 15.1758635 82.452706 15.1758635 98.5074492 15.1758635 98.5074492 12.649558"></polygon>
                            </g>
                        </g>
                    </g>
                </g>
            </g>
        </g>
    </g>
</svg>