<?xml version="1.0" encoding="UTF-8"?>
<svg width="181px" height="181px" viewBox="0 0 181 181" version="1.1" xmlns="http://www.w3.org/2000/svg" xmlns:xlink="http://www.w3.org/1999/xlink">
    <!-- Generator: Sketch 58 (84663) - https://sketch.com -->
    <title>暂无文件</title>
    <desc>Created with Sketch.</desc>
    <g id="页面-1" stroke="none" stroke-width="1" fill="none" fill-rule="evenodd">
        <g id="我的商标-查看商标信息-官方文件空状态" transform="translate(-986.000000, -227.000000)" fill-rule="nonzero">
            <g id="暂无" transform="translate(972.000000, 213.000000)">
                <g id="img_moneyillustration" transform="translate(14.373984, 14.373984)">
                    <rect id="矩形" fill-opacity="0" fill="#D8D8D8" x="0" y="0" width="179.252033" height="179.252033"></rect>
                    <g id="bg" transform="translate(12.682927, 18.601626)">
                        <rect id="矩形" fill="#E6EDF5" opacity="0.400000006" x="0" y="95.5447154" width="87.0894309" height="54.9593496" rx="6"></rect>
                        <rect id="矩形备份-4" fill="#E7EEF6" opacity="0.49983724" x="109.073171" y="0" width="40.5853659" height="40.5853659" rx="20.2926829"></rect>
                    </g>
                    <g id="element" transform="translate(17.756140, 7.439796)">
                        <path d="M96.6991447,154.056139 L104.536543,154.056139 C105.641113,154.056139 106.536543,154.951569 106.536543,156.056139 L106.536543,163.893537 C106.536543,164.998106 105.641113,165.893537 104.536543,165.893537 L96.6991447,165.893537 C95.5945752,165.893537 94.6991447,164.998106 94.6991447,163.893537 L94.6991447,156.056139 C94.6991447,154.951569 95.5945752,154.056139 96.6991447,154.056139 Z" id="矩形" fill="#C4D8FC" transform="translate(100.617844, 159.974838) rotate(-45.000000) translate(-100.617844, -159.974838) "></path>
                        <path d="M130.350323,5.07317073 L150.02512,5.07317073 C151.129689,5.07317073 152.02512,5.96860123 152.02512,7.07317073 L152.02512,26.7479675 C152.02512,27.852537 151.129689,28.7479675 150.02512,28.7479675 L130.350323,28.7479675 C129.245754,28.7479675 128.350323,27.852537 128.350323,26.7479675 L128.350323,7.07317073 C128.350323,5.96860123 129.245754,5.07317073 130.350323,5.07317073 Z" id="矩形" opacity="0.251697359" transform="translate(140.187722, 16.910569) rotate(-45.000000) translate(-140.187722, -16.910569) "></path>
                        <path d="M8.19760976,81.4147598 L4.82056911,84.7918003 C4.48996748,85.122402 3.95474797,85.122402 3.62499187,84.7918003 L0.24795122,81.4147598 C-0.0826504065,81.0841581 -0.0826504065,80.5497841 0.24795122,80.2191825 L3.62499187,76.8421419 C3.95474797,76.5115402 4.48996748,76.5115402 4.82056911,76.8421419 L8.19760976,80.2191825 C8.52821138,80.5497841 8.52821138,81.0841581 8.19760976,81.4147598" id="Fill-9" fill="#BBD9FA"></path>
                        <path d="M20.4492748,103.919049 L13.9057301,110.462594 C13.575974,110.793195 13.0399089,110.793195 12.7101528,110.462594 L6.16660813,103.919049 C5.8360065,103.589293 5.8360065,103.054073 6.16660813,102.723472 L12.7101528,96.1807727 C13.0399089,95.8501711 13.575974,95.8501711 13.9057301,96.1807727 L20.4492748,102.723472 C20.7798764,103.054073 20.7798764,103.589293 20.4492748,103.919049" id="Fill-11"></path>
                    </g>
                    <g id="order" transform="translate(45.658537, 22.829268)">
                        <rect id="矩形" fill="#CFD8E3" x="7.6097561" y="98.9268293" width="82.8617886" height="35.5121951" rx="13"></rect>
                        <rect id="矩形" fill="#CFD8E3" x="0" y="10.1463415" width="98.0813008" height="120.065041" rx="13"></rect>
                        <rect id="矩形" fill="#FFFFFF" opacity="0.600000024" x="14.3739837" y="43.1219512" width="69.2318699" height="77.7886179" rx="4"></rect>
                        <rect id="矩形" fill="#FFFFFF" opacity="0.600000024" x="10.9918699" y="32.1300813" width="75.2520325" height="84.5528455" rx="4"></rect>
                        <rect id="矩形" fill="#FFFFFF" x="8" y="19" width="82.8617886" height="93.0081301" rx="4"></rect>
                        <path d="M55.3514466,69.4475591 C55.7859974,69.4475591 56.1379653,69.80271 56.1379653,70.2403068 L56.1379653,72.6185499 C56.1379653,73.0561465 55.7859974,73.4112976 55.3514466,73.4112976 L52.3556205,73.4112674 L52.3556205,78.0360307 L59.9532076,78.0369407 C60.3877584,78.0369407 60.7397263,78.3920917 60.7397263,78.8296884 L60.7397263,81.2079314 C60.7397263,81.6455282 60.3877584,82.0006791 59.9532076,82.0006791 L43.1590759,82.0006791 C42.7245238,82.0006791 42.3725572,81.6455282 42.3725572,81.2079314 L42.3725572,78.8296884 C42.3725572,78.3920917 42.7245238,78.0369407 43.1590759,78.0369407 L48.4226573,78.0360307 L48.4226573,73.4112674 L45.4247994,73.4112976 C44.9902472,73.4112976 44.6382807,73.0561465 44.6382807,72.6185499 L44.6382807,70.2403068 C44.6382807,69.80271 44.9902472,69.4475591 45.4247994,69.4475591 L55.3514466,69.4475591 Z M42.2183993,61.4484178 L44.5531787,61.7936595 C44.983011,61.8570792 45.2803148,62.2601914 45.2170006,62.6934281 L44.5995834,66.9318535 C44.5362692,67.3650902 44.1371111,67.6647489 43.7072787,67.601329 L41.3724994,67.255691 C40.9430604,67.1918748 40.6457567,66.7895554 40.7086775,66.3563188 L41.3260946,62.1174968 C41.3890168,61.6842602 41.7889604,61.3846016 42.2183993,61.4484178 Z M56.5244202,61.158074 C56.9542525,61.0946541 57.3538041,61.3943128 57.4171183,61.8275494 L57.4171183,61.8275494 L58.0345354,66.0659749 C58.0974576,66.4992115 57.8001525,66.901531 57.3707136,66.9657435 L57.3707136,66.9657435 L55.0359342,67.3109852 C54.6061019,67.3748014 54.2065503,67.0751428 54.1436295,66.6415097 L54.1436295,66.6415097 L53.5262124,62.4030842 C53.4628981,61.9698476 53.7602019,61.5671317 54.1900342,61.5033156 L54.1900342,61.5033156 L56.5244202,61.158074 Z M35.6602526,56.0092174 L37.9946385,56.3544589 C38.4244708,56.4182751 38.7217746,56.820991 38.6584604,57.2542276 L37.5604811,64.7916727 C37.497559,65.2249092 37.0980087,65.5245679 36.6681764,65.4607517 L34.333397,65.1155101 C33.9039568,65.0516939 33.606653,64.648978 33.6695751,64.2157415 L34.7675544,56.6782964 C34.8308687,56.2454562 35.2304202,55.9457975 35.6602526,56.0092174 Z M60.2195625,55.0577219 L60.3152831,55.0653606 L61.9196997,55.0658476 C62.3538584,55.0658476 62.7062184,55.4209986 62.7062184,55.8585953 L62.7062184,62.1843255 C62.7062184,62.6219222 62.3538584,62.9770732 61.9196997,62.9770732 L59.5601449,62.9770732 C59.1255941,62.9770732 58.7736262,62.6219222 58.7736262,62.1843255 L58.7732552,59.0207677 L40.5566042,59.0214604 C40.1224468,59.0214604 39.7700855,58.6663095 39.7700855,58.2287127 L39.7700855,55.8504696 C39.7700855,55.412873 40.1224468,55.0577219 40.5566042,55.0577219 L60.2195625,55.0577219 Z M50.6696546,48.9949462 C51.103812,48.9949462 51.4561733,49.3497008 51.4561733,49.7876938 L51.4561733,53.1017756 C51.4561733,53.5393724 51.103812,53.8945233 50.6696546,53.8945233 L48.3100998,53.8945233 C47.8759411,53.8945233 47.5235811,53.5393724 47.5235811,53.1017756 L47.5235811,49.7876938 C47.5235811,49.3497008 47.8759411,48.9949462 48.3100998,48.9949462 L50.6696546,48.9949462 Z" id="形状结合" fill="#00A3FF"></path>
                        <path d="M40.4603037,8.66074289 L40.4603037,8.69841195 C40.4603037,10.2878367 39.2723434,11.6261344 37.6990986,11.7757643 L37.6990986,11.7757643 L30.9265853,12.4642708 C27.7687029,12.7896896 25.3658537,15.4788414 25.3658537,18.6932671 L25.3658537,18.6932671 L25.3658537,24.9599325 C25.3658537,25.6494854 25.9116733,26.2113821 26.6045638,26.2113821 L26.6045638,26.2113821 L71.4777727,26.2113821 C72.1582347,26.2113821 72.7154472,25.6494854 72.7154472,24.9599325 L72.7154472,24.9599325 L72.7154472,18.6430417 C72.7154472,15.454775 70.3384907,12.7771332 67.1930368,12.4266017 L67.1930368,12.4266017 L60.221667,11.6627571 C58.7105649,11.5005709 57.6220328,10.1999422 57.6220328,8.66074289 L57.6220328,8.66074289 C57.6085685,8.07268715 57.5598901,7.47207504 57.4366405,6.85890658 L57.4366405,6.85890658 C56.7302857,3.4571819 53.981509,0.742917418 50.6009488,0.142305308 L50.6009488,0.142305308 C50.0696291,0.0460399526 49.543488,0 49.0287397,0 L49.0287397,0 C44.2976125,0 40.4603037,3.87781965 40.4603037,8.66074289 M45.721715,6.39536797 C46.0489996,5.36993265 46.8744611,4.53807442 47.8894577,4.20637749 L47.8894577,4.20637749 C50.69727,3.29185661 53.2658329,5.88683576 52.3595858,8.72457099 L52.3595858,8.72457099 C52.0333369,9.74896 51.2078754,10.5818645 50.1928788,10.9135615 L50.1928788,10.9135615 C49.8013801,11.0412177 49.4140242,11.1008604 49.0401325,11.1008604 L49.0401325,11.1008604 C46.7346401,11.1008604 44.9418246,8.83757815 45.721715,6.39536797" id="Fill-35" fill="#00A3FF"></path>
                    </g>
                </g>
            </g>
        </g>
    </g>
</svg>