<?xml version="1.0" encoding="UTF-8"?>
<svg width="26px" height="26px" viewBox="0 0 26 26" version="1.1" xmlns="http://www.w3.org/2000/svg" xmlns:xlink="http://www.w3.org/1999/xlink">
    <!-- Generator: Sketch 58 (84663) - https://sketch.com -->
    <title>Shape</title>
    <desc>Created with Sketch.</desc>
    <g id="页面-1" stroke="none" stroke-width="1" fill="none" fill-rule="evenodd">
        <g id="我的商标-填写商标信息-出现填写信息时离开本页面弹窗" transform="translate(-794.000000, -464.000000)" fill="#FF6600" fill-rule="nonzero">
            <g id="编组" transform="translate(755.000000, 436.000000)">
                <g id="编组-14" transform="translate(39.000000, 28.000000)">
                    <path d="M13,6.14285714 C12.0571429,6.14285714 11.2857143,6.91428571 11.2857143,7.85714286 L11.2857143,13 C11.2857143,13.9428571 12.0571429,14.7142857 13,14.7142857 C13.9428571,14.7142857 14.7142857,13.9428571 14.7142857,13 L14.7142857,7.85714286 C14.7142857,6.91428571 13.9428571,6.14285714 13,6.14285714 Z M13,1 C6.36571429,1 1,6.36571429 1,13 C1,19.6342857 6.36571429,25 13,25 C19.6342857,25 25,19.6342857 25,13 C25,6.36571429 19.6171429,1 13,1 Z M13,23.2857143 C7.32571429,23.2857143 2.71428571,18.6742857 2.71428571,13 C2.71428571,7.32571429 7.32571429,2.71428571 13,2.71428571 C18.6742857,2.71428571 23.2857143,7.32571429 23.2857143,13 C23.2857143,18.6742857 18.6742857,23.2857143 13,23.2857143 Z M13,16.4285714 C12.0571429,16.4285714 11.2857143,17.2 11.2857143,18.1428571 C11.2857143,19.0857143 12.0571429,19.8571429 13,19.8571429 C13.9428571,19.8571429 14.7142857,19.0857143 14.7142857,18.1428571 C14.7142857,17.2 13.9428571,16.4285714 13,16.4285714 Z" id="Shape"></path>
                </g>
            </g>
        </g>
    </g>
</svg>