<?xml version="1.0" encoding="UTF-8"?>
<svg width="38px" height="38px" viewBox="0 0 38 38" version="1.1" xmlns="http://www.w3.org/2000/svg" xmlns:xlink="http://www.w3.org/1999/xlink">
    <!-- Generator: Sketch 58 (84663) - https://sketch.com -->
    <title>shangchuan</title>
    <desc>Created with Sketch.</desc>
    <g id="页面-1" stroke="none" stroke-width="1" fill="none" fill-rule="evenodd">
        <g id="我的商标-填写商标信息-基本信息" transform="translate(-811.000000, -1697.000000)" fill-rule="nonzero">
            <g id="编组-5" transform="translate(631.000000, 1607.000000)">
                <g id="icon-add_image" transform="translate(0.000000, 30.000000)">
                    <g id="编组-12" transform="translate(121.000000, 60.000000)">
                        <g id="shangchuan" transform="translate(59.000000, 0.000000)">
                            <polygon id="路径" fill="#00A3FF" points="13.2398438 18.2004434 10.9789062 15.7953547 18.6976563 8.14159628 26.415625 15.7953547 24.1546875 18.2004434 18.6976563 12.7884924"></polygon>
                            <polygon id="路径" fill="#00A3FF" points="17.0695313 9.99746622 17.0695313 25.6756757 20.8695313 25.6756757 20.8695313 9.99746622"></polygon>
                            <path d="M29.6984301,2.62539726 L8.3015699,2.62539726 L2.55445012,25.0252867 L2.55445012,35.3746027 L35.4455499,35.3746027 L35.4455499,25.0252867 L29.6984301,2.62539726 Z M31.6665357,0 L38,24.6851968 L38,38 L0,38 L0,24.6851968 L6.33346433,0 L31.6665357,0 Z" id="形状" fill="#999999"></path>
                            <polygon id="路径" fill="#999999" points="12.1851563 32.6851351 25.3332031 32.6851351 25.3332031 28.8851351 12.1851563 28.8851351"></polygon>
                        </g>
                    </g>
                </g>
            </g>
        </g>
    </g>
</svg>