<?xml version="1.0" encoding="UTF-8"?>
<svg width="18px" height="18px" viewBox="0 0 18 18" version="1.1" xmlns="http://www.w3.org/2000/svg" xmlns:xlink="http://www.w3.org/1999/xlink">
    <!-- Generator: Sketch 58 (84663) - https://sketch.com -->
    <title>下载</title>
    <desc>Created with Sketch.</desc>
    <g id="页面-1" stroke="none" stroke-width="1" fill="none" fill-rule="evenodd">
        <g id="我的商标" transform="translate(-1390.000000, -779.000000)" fill="#00A3FF">
            <g id="基本信息" transform="translate(592.000000, 102.000000)">
                <g id="编组-17备份-4" transform="translate(24.000000, 624.000000)">
                    <g id="编组-15" transform="translate(12.000000, 0.000000)">
                        <g id="编组-18" transform="translate(762.000000, 52.000000)">
                            <g id="下载" transform="translate(1.000000, 3.000000)">
                                <path d="M8,5.3715378 C8.31558929,5.3715378 8.57142857,5.62380635 8.57142857,5.93519704 L8.57142857,5.93519704 L8.57142857,10.75521 L9.96073214,9.38502757 L10.7688571,10.1820405 L8.00355357,12.9093023 L8,12.9057976 L7.99644643,12.9093023 L5.23114286,10.1820229 L6.03926786,9.38500996 L7.42857143,10.75521 L7.42857143,5.93521465 C7.42857143,5.62391202 7.68433929,5.3715378 8,5.3715378 Z M11.107,8.711 L11.1071429,8.70013008 C11.1071429,8.90763126 11.1991057,9.10203636 11.359483,9.26902041 L11.426,9.332 L11.3591354,9.39816297 C11.1989595,9.56514702 11.1071429,9.7246069 11.1071429,9.82727244 L11.107,8.711 Z M8.14285714,3.58824082e-13 C10.521375,3.58824082e-13 12.5031786,1.6739473 12.9642857,3.89216346 C14.640875,3.89216346 16,5.2325999 16,6.88613535 C16,8.45062655 14.7832321,9.73461781 13.2321429,9.82727244 L13.2321429,9.82727244 L12.9543362,9.82727244 C12.3312913,9.82727244 11.7798988,9.63881164 11.4452639,9.35016103 L11.426,9.332 L11.4448114,9.31427203 C11.7486629,9.03406621 12.2315416,8.75577019 12.7848494,8.70748666 L12.952846,8.70013008 L13.0357143,8.70013008 C14.048,8.66177202 14.8571429,7.89357166 14.8571429,6.88613535 C14.8571429,5.87730771 14.0457321,5.05551526 13.0314643,5.02060907 C13.0311214,5.02914718 12.9516191,5.03131672 12.888072,5.03168625 L12.8104339,5.03137897 C12.2996219,5.03992823 11.8578988,4.63134969 11.8227496,4.12195376 C11.8227496,4.12195376 11.8187679,4.11278396 11.8226786,4.11121653 C11.4851964,2.41051722 9.96610714,1.12714236 8.14285714,1.12714236 C7.02069643,1.12714236 6.01375,1.61334578 5.33033929,2.39519512 C5.33033929,2.39519512 5.15176786,2.56250532 4.99105357,2.82667931 L4.99105357,2.82667931 L4.95616787,2.87257831 C4.79207613,3.05092177 4.24421205,3.32730192 3.78052657,3.28982621 C3.78052657,3.28982621 3.83035714,3.26695168 3.50314286,3.29000526 C2.16657143,3.4919927 1.14285714,4.63086438 1.14285714,6.00555538 C1.14285714,7.52290033 2.39007143,8.70013008 3.9375,8.70079932 C4.24064286,8.71460681 4.57142857,8.9613101 4.57142857,9.26370126 C4.57142857,9.57495105 4.26201786,9.82727244 3.92857143,9.82727244 C1.75889286,9.82727244 0,8.14541754 0,6.00555538 C0,3.86569322 1.75889286,2.13100352 3.92857143,2.13100352 C3.97969643,2.13100352 4.03051786,2.13221872 4.08117857,2.13413839 C4.959875,0.846836143 6.45107143,3.58824082e-13 8.14285714,3.58824082e-13 Z M4.978,2.847 L4.96203535,2.87437645 L4.96203535,2.87437645 L4.949,2.894 L4.96656944,2.86692377 L4.96656944,2.86692377 L4.978,2.847 Z" id="Shape-Copy-11"></path>
                            </g>
                        </g>
                    </g>
                </g>
            </g>
        </g>
    </g>
</svg>