<svg  xmlns="http://www.w3.org/2000/svg" xmlns:xlink="http://www.w3.org/1999/xlink" width="1920px" height="4038px"><defs><linearGradient id="PSgrad_0" x1="0%" x2="0%" y1="100%" y2="0%">  <stop offset="43%" stop-color="rgb(99,142,243)" stop-opacity="1" />  <stop offset="82%" stop-color="rgb(120,157,244)" stop-opacity="1" />  <stop offset="94%" stop-color="rgb(164,189,249)" stop-opacity="1" />  <stop offset="100%" stop-color="rgb(215,235,255)" stop-opacity="1" /></linearGradient></defs><path fill-rule="evenodd"  fill="url(#PSgrad_0)" d="M-0.000,19.740 C-0.000,19.740 126.137,-11.536 185.996,77.288 C244.522,45.844 326.992,48.514 353.595,102.308 C386.447,90.137 599.677,74.994 629.827,76.245 C646.011,76.917 670.286,77.183 685.250,83.334 C664.012,82.433 661.885,85.719 665.187,91.987 C669.398,99.982 692.009,103.892 698.455,108.797 C765.947,70.407 892.311,94.190 932.217,141.410 C976.113,113.568 1049.272,61.024 1178.298,136.086 C1178.298,136.086 1244.806,45.392 1393.784,87.310 C1437.347,35.713 1577.762,11.630 1679.770,65.425 C1689.081,24.141 1829.020,-35.909 1920.000,27.894 L1920.000,4036.978 L-0.000,4038.000 L-0.000,19.740 Z"/></svg>