<svg  xmlns="http://www.w3.org/2000/svg" xmlns:xlink="http://www.w3.org/1999/xlink" width="1092px" height="552px"><path fill-rule="evenodd"  stroke-width="4px" stroke-linecap="butt" stroke-linejoin="miter" fill="rgb(254, 245, 238)" d="M1022.108,273.500 C1022.108,286.254 1032.463,296.627 1045.371,296.983 L1045.371,349.001 C1045.371,354.523 1040.893,359.001 1035.370,359.001 L35.662,359.001 C30.139,359.001 25.662,354.523 25.662,349.001 L25.662,296.993 C25.757,296.994 25.850,297.000 25.946,297.000 C39.171,297.000 49.892,286.479 49.892,273.500 C49.892,260.521 39.171,250.000 25.946,250.000 C25.850,250.000 25.757,250.006 25.662,250.007 L25.662,197.001 C25.662,191.478 30.139,187.001 35.662,187.001 L1035.370,187.001 C1040.893,187.001 1045.371,191.478 1045.371,197.001 L1045.371,250.017 C1032.463,250.373 1022.108,260.746 1022.108,273.500 Z"/><path fill-rule="evenodd"  fill="rgb(254, 234, 218)" d="M137.728,0.261 L166.767,11.083 L166.767,11.083 L36.250,361.553 L36.250,361.553 L7.211,350.731 L7.211,350.731 L137.728,0.261 L137.728,0.261 Z"/><path fill-rule="evenodd"  opacity="0.8" fill="rgb(254, 234, 218)" d="M202.364,24.349 L231.403,35.171 L231.403,35.171 L100.886,385.641 L100.886,385.641 L71.847,374.819 L71.847,374.819 L202.364,24.349 L202.364,24.349 Z"/><path fill-rule="evenodd"  opacity="0.6" fill="rgb(254, 234, 218)" d="M267.000,48.437 L296.039,59.259 L296.039,59.259 L165.522,409.729 L165.522,409.729 L136.483,398.907 L136.483,398.907 L267.000,48.437 L267.000,48.437 Z"/><path fill-rule="evenodd"  opacity="0.502" fill="rgb(254, 234, 218)" d="M331.635,72.525 L360.675,83.347 L360.675,83.347 L230.158,433.817 L230.158,433.817 L201.118,422.994 L201.118,422.994 L331.635,72.525 L331.635,72.525 Z"/><path fill-rule="evenodd"  opacity="0.4" fill="rgb(254, 234, 218)" d="M396.271,96.613 L425.310,107.435 L425.310,107.435 L294.793,457.905 L294.793,457.905 L265.754,447.082 L265.754,447.082 L396.271,96.613 L396.271,96.613 Z"/><path fill-rule="evenodd"  opacity="0.702" fill="rgb(254, 234, 218)" d="M460.907,120.701 L489.946,131.523 L489.946,131.523 L359.429,481.993 L359.429,481.993 L330.390,471.170 L330.390,471.170 L460.907,120.701 L460.907,120.701 Z"/><path fill-rule="evenodd"  opacity="0.502" fill="rgb(254, 234, 218)" d="M525.543,144.788 L554.582,155.611 L554.582,155.611 L424.065,506.080 L424.065,506.080 L395.026,495.258 L395.026,495.258 L525.543,144.788 L525.543,144.788 Z"/><path fill-rule="evenodd"  opacity="0.4" fill="rgb(254, 234, 218)" d="M590.178,168.876 L619.218,179.699 L619.218,179.699 L488.701,530.168 L488.701,530.168 L459.661,519.346 L459.661,519.346 L590.178,168.876 L590.178,168.876 Z"/><path fill-rule="evenodd"  opacity="0.4" fill="rgb(254, 234, 218)" d="M668.178,175.876 L697.218,186.699 L697.218,186.699 L566.701,537.168 L566.701,537.168 L537.661,526.346 L537.661,526.346 L668.178,175.876 L668.178,175.876 Z"/><path fill-rule="evenodd"  opacity="0.349" fill="rgb(254, 234, 218)" d="M750.178,171.876 L779.218,182.699 L779.218,182.699 L648.701,533.168 L648.701,533.168 L619.661,522.346 L619.661,522.346 L750.178,171.876 L750.178,171.876 Z"/><path fill-rule="evenodd"  opacity="0.302" fill="rgb(254, 234, 218)" d="M831.178,170.876 L860.218,181.699 L860.218,181.699 L729.701,532.168 L729.701,532.168 L700.661,521.346 L700.661,521.346 L831.178,170.876 L831.178,170.876 Z"/><path fill-rule="evenodd"  opacity="0.251" fill="rgb(254, 234, 218)" d="M910.178,171.876 L939.218,182.699 L939.218,182.699 L808.701,533.168 L808.701,533.168 L779.661,522.346 L779.661,522.346 L910.178,171.876 L910.178,171.876 Z"/><path fill-rule="evenodd"  opacity="0.2" fill="rgb(254, 234, 218)" d="M990.178,168.876 L1019.218,179.699 L1019.218,179.699 L888.701,530.168 L888.701,530.168 L859.661,519.346 L859.661,519.346 L990.178,168.876 L990.178,168.876 Z"/><path fill-rule="evenodd"  opacity="0.2" fill="rgb(254, 234, 218)" d="M1060.178,187.876 L1089.218,198.699 L1089.218,198.699 L958.701,549.168 L958.701,549.168 L929.661,538.346 L929.661,538.346 L1060.178,187.876 L1060.178,187.876 Z"/></svg>