<svg  xmlns="http://www.w3.org/2000/svg" xmlns:xlink="http://www.w3.org/1999/xlink" width="1046px" height="426px"><defs><filter id="Filter_0">                <feOffset in="SourceAlpha" dx="3.936" dy="4.528" />                <feGaussianBlur result="blurOut" stdDeviation="2.449" />                <feFlood flood-color="rgb(174, 55, 10)" result="floodOut" />                <feComposite operator="out" in="floodOut" in2="blurOut" result="compOut" />                <feComposite operator="in" in="compOut" in2="SourceAlpha" />                <feComponentTransfer><feFuncA type="linear" slope="0.53"/></feComponentTransfer>                <feBlend mode="multiply" in2="SourceGraphic" />            </filter><linearGradient id="PSgrad_0" x1="0%" x2="0%" y1="0%" y2="100%">  <stop offset="0%" stop-color="rgb(255,121,74)" stop-opacity="1" />  <stop offset="100%" stop-color="rgb(229,60,21)" stop-opacity="1" /></linearGradient><filter filterUnits="userSpaceOnUse" id="Filter_1" x="422px" y="25px" width="209px" height="33px"  >                <feOffset in="SourceAlpha" dx="0" dy="4" />                <feGaussianBlur result="blurOut" stdDeviation="0" />                <feFlood flood-color="rgb(244, 96, 59)" result="floodOut" />                <feComposite operator="atop" in="floodOut" in2="blurOut" />                <feComponentTransfer><feFuncA type="linear" slope="0.56"/></feComponentTransfer>                <feMerge>    <feMergeNode/>    <feMergeNode in="SourceGraphic"/>  </feMerge>            </filter></defs><path fill-rule="evenodd"  stroke-width="4px" stroke-linecap="butt" stroke-linejoin="miter" fill="rgb(254, 245, 238)" d="M32.000,42.000 C32.000,42.000 147.526,42.000 279.000,42.000 C285.368,53.881 296.236,77.238 301.000,85.000 C357.620,85.123 470.504,85.000 528.000,85.000 C597.381,85.000 701.364,83.618 751.000,83.000 C756.458,73.940 765.726,52.887 772.000,42.000 C899.873,42.000 1013.000,42.000 1013.000,42.000 C1024.046,42.000 1033.000,50.954 1033.000,62.000 L1033.000,392.000 C1033.000,403.046 1024.046,412.000 1013.000,412.000 L32.000,412.000 C20.954,412.000 12.000,403.046 12.000,392.000 L12.000,62.000 C12.000,50.954 20.954,42.000 32.000,42.000 Z"/><g filter="url(#Filter_0)"><path fill-rule="evenodd"  stroke-width="4px" stroke-linecap="butt" stroke-linejoin="miter" fill="url(#PSgrad_0)" d="M306.735,2.651 L744.263,2.651 L744.263,2.651 C744.263,2.651 755.711,24.697 762.921,37.606 C754.440,57.266 744.263,76.349 744.263,76.349 L744.263,76.349 L306.735,76.349 L306.735,76.349 C306.735,76.349 297.238,58.320 288.076,39.859 C299.397,19.900 306.735,2.651 306.735,2.651 L306.735,2.651 Z"/></g><g filter="url(#Filter_1)"><text kerning="auto" font-family="Adobe Heiti Std" fill="rgb(0, 0, 0)" font-size="40px" x="422px" y="54.641px"><tspan font-size="40px" font-family="YouSheBiaoTiHei" fill="#FFEFD1">&#29190;&#27454;&#48;&#20803;&#36141;</tspan></text></g><text kerning="auto" font-family="Adobe Heiti Std" fill="rgb(0, 0, 0)" transform="matrix( 0.73598216547509, 0, 0, 0.73940533833777,644.370614387209, 45.9016799791248)" font-size="16.229px"><tspan font-size="16.229px" font-family="HarmonyOS Sans SC" font-weight="bold" fill="#F2592E">HOT</tspan></text></svg>