<svg width="281" height="375" viewBox="0 0 281 375" fill="none" xmlns="http://www.w3.org/2000/svg">
<path d="M0 4C0 1.79086 1.79086 0 4 0H281V375H4.00001C1.79087 375 0 373.209 0 371V4Z" fill="#EBF2FF"/>
<mask id="mask0_608_15948" style="mask-type:alpha" maskUnits="userSpaceOnUse" x="0" y="0" width="281" height="375">
<path d="M0 4C0 1.79086 1.79086 0 4 0H281V375H4.00001C1.79087 375 0 373.209 0 371V4Z" fill="#D9E0F1"/>
</mask>
<g mask="url(#mask0_608_15948)">
<g opacity="0.2" filter="url(#filter0_f_608_15948)">
<path d="M285.584 307.238C292.026 310.968 292.054 316.998 285.66 320.762L171.961 387.198C165.567 390.934 155.164 390.934 148.729 387.198L34.2875 320.762C27.8519 317.033 27.8103 311.003 34.2113 307.238L147.91 240.803C154.304 237.066 164.707 237.066 171.142 240.803L285.584 307.238Z" fill="#1654E7"/>
</g>
<path d="M265.422 313.529L292.21 328.749L307.278 337.311L286.826 351.58L313.937 365.849" stroke="white" stroke-width="0.6" stroke-linecap="round"/>
<path d="M254.957 322.566L280.642 337.311L258.287 352.531L294.911 371.557" stroke="white" stroke-width="0.6" stroke-linecap="round"/>
<path d="M200.26 352.055L216.907 361.093L256.385 337.311" stroke="white" stroke-width="0.6" stroke-linecap="round"/>
<path d="M185.514 361.093L243.066 393.436" stroke="white" stroke-width="0.6" stroke-linecap="round"/>
<path d="M218.334 379.643L243.543 363.946L279.692 383.448" stroke="white" stroke-width="0.6" stroke-linecap="round"/>
<path d="M169.818 370.13L196.454 385.35L179.807 396.29L214.529 415.791" stroke="white" stroke-width="0.6" stroke-linecap="round"/>
<path d="M54.7126 316.858L29.5037 331.603L0.489682 314.004L-29 329.7" stroke="white" stroke-width="0.6" stroke-linecap="round"/>
<path d="M74.2146 324.944L31.8826 349.202L2.86859 331.603L-26.6211 347.299" stroke="white" stroke-width="0.6" stroke-linecap="round"/>
<path d="M93.7151 335.884L62.3229 354.434L93.7151 371.081L39.4922 406.754" stroke="white" stroke-width="0.6" stroke-linecap="round"/>
<path d="M141.755 364.898L126.535 374.886L146.512 385.826L68.9824 441" stroke="white" stroke-width="0.6" stroke-linecap="round"/>
<path fill-rule="evenodd" clip-rule="evenodd" d="M159.28 258.291H160.3C160.454 258.294 160.61 258.305 160.765 258.316L160.766 258.316C160.942 258.328 161.118 258.341 161.293 258.341C161.624 258.369 161.949 258.407 162.28 258.451V254.855H162.275C162.194 254.844 162.113 254.832 162.033 254.82L162.033 254.82C161.789 254.783 161.545 254.746 161.298 254.745V254.745C160.973 254.696 160.642 254.695 160.317 254.695V254.695V254.69H159.28V258.291ZM162.286 258.451C162.622 258.501 162.958 258.562 163.289 258.628C163.646 258.699 163.997 258.787 164.337 258.885V258.887C164.762 259.008 165.176 259.146 165.573 259.301V255.705H165.567C165.177 255.551 164.766 255.414 164.343 255.293V255.291C164.001 255.192 163.648 255.103 163.289 255.032H163.295C162.964 254.96 162.628 254.905 162.286 254.855V258.451ZM167.04 256.405V256.405L246.56 302.315V302.321L246.549 305.917L167.028 260.001V260C166.562 259.732 166.078 259.499 165.578 259.301V255.705C166.084 255.901 166.574 256.135 167.045 256.405H167.04ZM246.56 302.321C248.557 303.474 249.555 304.985 249.55 306.502V310.098C249.55 308.581 248.557 307.07 246.56 305.917V302.321ZM159.263 258.297V254.695C158.905 254.712 158.53 254.734 158.16 254.773V258.369C158.513 258.33 158.888 258.297 159.263 258.297ZM158.138 254.773V258.369C157.704 258.413 157.274 258.473 156.847 258.551C156.197 258.664 155.556 258.822 154.928 259.025C154.159 259.271 153.419 259.6 152.722 260.007V256.405C153.421 256.003 154.16 255.676 154.928 255.429C155.556 255.226 156.197 255.068 156.847 254.955C157.27 254.877 157.7 254.817 158.138 254.773ZM152.705 256.405L152.694 260.001L73.7248 305.894V305.917L73.6034 305.989V302.393L73.6971 302.337L73.6972 302.321L152.705 256.405ZM73.5758 305.989V302.393C73.1172 302.666 72.6868 302.983 72.2908 303.341C72.0639 303.551 71.8537 303.778 71.662 304.02V304.014C71.5116 304.206 71.3752 304.409 71.2539 304.621V304.626V304.648C71.1503 304.825 71.06 305.01 70.9836 305.2V308.801C71.0578 308.601 71.1482 308.408 71.2539 308.222V308.217C71.3752 308.005 71.5116 307.802 71.662 307.61V307.616C71.8525 307.374 72.0628 307.149 72.2908 306.943C72.6862 306.583 73.1167 306.263 73.5758 305.989ZM70.9671 308.801V305.205C70.8978 305.385 70.8425 305.569 70.8016 305.757V305.889C70.7746 306.042 70.758 306.197 70.752 306.353V309.954C70.7573 309.758 70.7795 309.562 70.8181 309.37V309.279C70.8563 309.117 70.9061 308.957 70.9671 308.801Z" fill="url(#paint0_linear_608_15948)"/>
<path d="M271.503 300.506C277.206 303.816 277.239 309.138 271.569 312.431L170.797 370.988C165.127 374.297 155.906 374.297 150.208 370.988L48.8019 312.436C43.0989 309.127 43.0658 303.805 48.7357 300.512L149.497 241.955C155.167 238.645 164.388 238.645 170.086 241.955L271.503 300.506ZM167.598 356.537L246.607 310.633C250.556 308.338 250.534 304.621 246.562 302.359L167.041 256.405C163.065 254.116 156.65 254.116 152.701 256.405L73.726 302.321C69.7825 304.61 69.799 308.333 73.7701 310.594L153.291 356.51C157.262 358.799 163.682 358.799 167.631 356.51" fill="url(#paint1_linear_608_15948)"/>
<mask id="mask1_608_15948" style="mask-type:alpha" maskUnits="userSpaceOnUse" x="44" y="239" width="232" height="135">
<path d="M271.503 300.506C277.206 303.816 277.239 309.138 271.569 312.431L170.797 370.988C165.127 374.297 155.906 374.297 150.208 370.988L48.8019 312.436C43.0989 309.127 43.0658 303.805 48.7357 300.512L149.497 241.955C155.167 238.645 164.388 238.645 170.086 241.955L271.503 300.506ZM167.598 356.537L246.607 310.633C250.556 308.338 250.534 304.621 246.562 302.359L167.041 256.405C163.065 254.116 156.65 254.116 152.701 256.405L73.726 302.321C69.7825 304.61 69.799 308.333 73.7701 310.594L153.291 356.51C157.262 358.799 163.682 358.799 167.631 356.51" fill="url(#paint2_linear_608_15948)"/>
</mask>
<g mask="url(#mask1_608_15948)">
<g filter="url(#filter1_f_608_15948)">
<path d="M261.18 299.767C266.304 302.718 266.326 307.489 261.241 310.467L170.816 363.029C165.73 365.985 157.457 365.985 152.339 363.029L61.3236 310.467C56.2053 307.516 56.1722 302.746 61.263 299.767L151.688 247.205C156.773 244.249 165.046 244.249 170.165 247.205L261.18 299.767Z" fill="#5BA4E8"/>
</g>
</g>
<path fill-rule="evenodd" clip-rule="evenodd" d="M48.8024 312.436C45.9344 310.776 44.5059 308.603 44.5059 306.43V310.026C44.5004 312.196 45.9307 314.372 48.7914 316.026L48.7913 316.032L150.209 374.584L150.22 370.988L48.8024 312.436ZM275.8 310.236C275.791 310.517 275.759 310.797 275.706 311.074V307.472C275.764 307.198 275.797 306.92 275.806 306.64L275.8 310.236ZM275.701 307.472V311.074C275.643 311.346 275.566 311.614 275.469 311.875V311.89C275.363 312.176 275.234 312.453 275.083 312.718V309.121C275.231 308.866 275.358 308.599 275.464 308.323V308.294C275.562 308.027 275.639 307.752 275.695 307.472H275.701ZM275.078 312.718V309.121H275.072C274.9 309.426 274.704 309.718 274.487 309.993C274.213 310.339 273.913 310.664 273.588 310.964V310.969C273.021 311.481 272.404 311.936 271.746 312.326V315.922C272.407 315.532 273.026 315.075 273.594 314.56V314.555C273.916 314.256 274.215 313.933 274.487 313.589C274.705 313.313 274.903 313.022 275.078 312.718ZM271.73 315.922V312.326C271.673 312.364 271.614 312.399 271.553 312.431V312.44L170.809 370.988L170.799 374.261V371.002L170.804 370.999L170.799 370.988V371.002C169.788 371.579 168.719 372.05 167.611 372.405V372.407C166.711 372.693 165.793 372.921 164.864 373.088V373.078C164.252 373.189 163.634 373.277 163.005 373.337V373.338C162.494 373.393 161.945 373.442 161.395 373.442V377.038C161.935 377.022 162.454 376.989 163.005 376.934C163.632 376.873 164.248 376.785 164.859 376.675V376.685C165.792 376.519 166.713 376.291 167.616 376.001V375.989C168.724 375.634 169.79 375.163 170.799 374.584V374.583L271.553 316.03V316.032L271.73 315.922ZM152.322 371.999V371.997C151.598 371.713 150.895 371.376 150.221 370.988V374.584C150.894 374.971 151.594 375.308 152.317 375.591V375.593C152.896 375.823 153.487 376.022 154.087 376.189V372.593H154.082C153.485 372.426 152.898 372.228 152.322 371.999ZM161.389 377.038V373.442H161.384H159.895V373.453C159.417 373.437 158.939 373.415 158.466 373.376H158.472C157.997 373.337 157.523 373.282 157.054 373.216V376.812C157.518 376.878 157.992 376.934 158.466 376.972L158.482 376.973L158.482 376.973C158.957 377.012 159.426 377.049 159.9 377.049V377.038H161.389ZM157.049 373.216V376.818C156.558 376.752 156.078 376.663 155.604 376.57V376.552C155.093 376.442 154.587 376.321 154.093 376.178V372.582C154.589 372.725 155.096 372.847 155.615 372.957H155.609V372.975C156.082 373.068 156.56 373.156 157.043 373.222L157.049 373.216Z" fill="url(#paint3_linear_608_15948)"/>
<path d="M262.775 283.287V289.362C262.764 289.646 262.73 289.928 262.675 290.207C262.621 290.491 262.542 290.769 262.439 291.039V291.064C262.33 291.353 262.199 291.633 262.048 291.903V291.878C261.872 292.175 261.673 292.458 261.452 292.724V292.754C261.176 293.105 260.873 293.433 260.545 293.735V287.66C260.864 287.371 261.159 287.056 261.427 286.718V286.679C261.658 286.403 261.866 286.108 262.048 285.797V285.822C262.2 285.555 262.331 285.277 262.439 284.989V284.965C262.539 284.693 262.618 284.415 262.675 284.132C262.73 283.854 262.764 283.571 262.775 283.287Z" fill="url(#paint4_linear_608_15948)"/>
<path d="M260.539 293.735V287.66C259.967 288.183 259.343 288.645 258.675 289.039V289.043L258.501 289.145L170.673 340.183L170.654 346.258L258.483 295.219L258.501 289.157V295.219L258.682 295.114V295.11C259.345 294.715 259.967 294.255 260.539 293.735Z" fill="url(#paint5_linear_608_15948)"/>
<path d="M57.0413 290.65V286.604C54.1344 284.927 52.6934 282.728 52.6934 280.536V286.61C52.6934 288.802 54.1385 290.999 57.0351 292.675L57.0351 292.679L149.845 346.264L149.864 340.183L57.0537 286.598L57.0413 290.65Z" fill="url(#paint6_linear_608_15948)"/>
<g filter="url(#filter2_i_608_15948)">
<path d="M258.431 277.089C264.196 280.418 264.22 285.784 258.5 289.145L170.671 340.184C164.944 343.513 155.621 343.513 149.863 340.184L57.0406 286.604C51.2765 283.275 51.2454 277.908 56.9723 274.548L144.813 223.497C150.54 220.168 159.857 220.168 165.621 223.497L258.431 277.089Z" fill="url(#paint7_linear_608_15948)"/>
</g>
<path d="M149.988 339.967L149.988 339.967C152.82 341.605 156.545 342.43 160.279 342.43C164.013 342.43 167.729 341.605 170.546 339.967L170.671 340.184L170.546 339.967L258.373 288.929L149.988 339.967ZM149.988 339.967L57.1657 286.388C57.1657 286.388 57.1656 286.388 57.1656 286.388C54.3285 284.749 52.9591 282.644 52.9473 280.586C52.9356 278.529 54.2804 276.418 57.0982 274.764C57.0984 274.764 57.0986 274.764 57.0988 274.764L144.939 223.713L144.813 223.497L144.939 223.713C147.755 222.076 151.47 221.25 155.203 221.25C158.937 221.25 162.661 222.076 165.496 223.713L165.621 223.497L165.496 223.713L258.306 277.305C261.143 278.944 262.511 281.049 262.522 283.106M149.988 339.967L262.522 283.106M262.522 283.106C262.533 285.163 261.189 287.275 258.374 288.929L262.522 283.106Z" stroke="white" stroke-opacity="0.4" stroke-width="0.5"/>
<g filter="url(#filter3_di_608_15948)">
<path d="M168.805 331.853L168.804 331.853C166.466 333.215 163.345 333.918 160.179 333.918C157.013 333.918 153.885 333.215 151.531 331.852L151.531 331.852L71.1169 285.356C71.1168 285.356 71.1167 285.356 71.1167 285.356C68.7552 283.99 67.7373 282.31 67.7286 280.78C67.7199 279.252 68.717 277.569 71.0609 276.191C71.0613 276.19 71.0617 276.19 71.0621 276.19L147.158 231.89L147.158 231.89C149.497 230.528 152.617 229.825 155.782 229.825C158.947 229.825 162.075 230.528 164.432 231.891L164.432 231.891L244.835 278.397C247.196 279.763 248.213 281.443 248.221 282.973C248.229 284.501 247.232 286.185 244.891 287.563C244.89 287.563 244.89 287.563 244.889 287.564L168.805 331.853Z" stroke="#AAE0FF" stroke-width="1.5" shape-rendering="crispEdges"/>
</g>
<g filter="url(#filter4_f_608_15948)">
<path d="M207.982 279.494C210.863 281.16 210.875 283.844 208.017 285.525L164.13 311.058C161.268 312.723 156.609 312.723 153.732 311.058L107.35 284.255C104.47 282.589 104.454 279.904 107.316 278.223L151.209 252.685C154.071 251.019 158.726 251.019 161.606 252.685L207.982 279.494Z" fill="#2449CB"/>
<path d="M164.004 310.842L164.004 310.842C162.62 311.647 160.786 312.057 158.937 312.057C157.087 312.057 155.249 311.647 153.857 310.841L153.857 310.841L107.475 284.038C107.475 284.038 107.475 284.038 107.475 284.038C106.08 283.231 105.435 282.213 105.43 281.243C105.424 280.275 106.057 279.253 107.442 278.439C107.442 278.439 107.442 278.439 107.443 278.439L151.335 252.901L151.335 252.901C152.718 252.096 154.551 251.686 156.401 251.686C158.25 251.686 160.088 252.096 161.481 252.901L161.481 252.901L207.857 279.711C209.252 280.517 209.896 281.536 209.902 282.505C209.907 283.474 209.274 284.496 207.89 285.31C207.89 285.31 207.89 285.31 207.89 285.31L164.004 310.842Z" stroke="white" stroke-opacity="0.4" stroke-width="0.5"/>
</g>
<path d="M151.981 347.277V341.202C151.251 340.915 150.543 340.575 149.863 340.183V346.258C150.543 346.651 151.251 346.991 151.981 347.277Z" fill="url(#paint8_linear_608_15948)"/>
<path d="M170.671 340.183V346.258C169.65 346.842 168.569 347.316 167.448 347.672V347.674C166.537 347.97 165.607 348.202 164.665 348.37V342.295C165.605 342.128 166.533 341.897 167.441 341.604V341.6C168.564 341.244 169.644 340.77 170.665 340.183H170.671Z" fill="url(#paint9_linear_608_15948)"/>
<path d="M164.659 348.37V342.295C164.038 342.407 163.416 342.494 162.795 342.556V348.631C163.416 348.569 164.038 348.482 164.659 348.37Z" fill="url(#paint10_linear_608_15948)"/>
<path d="M162.783 342.556V348.631C162.243 348.687 161.696 348.724 161.149 348.743V342.668C161.696 342.668 162.243 342.612 162.783 342.556Z" fill="url(#paint11_linear_608_15948)"/>
<path d="M161.149 348.743V342.668L159.646 342.668V348.743L161.149 348.743Z" fill="url(#paint12_linear_608_15948)"/>
<path d="M159.64 342.674V348.749C159.155 348.749 158.671 348.712 158.187 348.668C157.71 348.631 157.234 348.575 156.764 348.513V342.432C157.242 342.5 157.721 342.556 158.199 342.593H158.193C158.669 342.637 159.151 342.662 159.634 342.674H159.64Z" fill="url(#paint13_linear_608_15948)"/>
<path d="M156.758 342.432V348.513C156.267 348.438 155.776 348.358 155.298 348.258V348.257C154.779 348.145 154.271 348.022 153.77 347.879V341.805C154.267 341.947 154.783 342.072 155.304 342.184V342.185C155.781 342.284 156.263 342.364 156.752 342.432H156.758Z" fill="url(#paint14_linear_608_15948)"/>
<path d="M153.77 341.805V347.879C153.164 347.703 152.567 347.496 151.981 347.258V341.183C152.567 341.421 153.164 341.629 153.77 341.805Z" fill="url(#paint15_linear_608_15948)"/>
<path d="M178.481 209.276L160.719 219.524L142.836 209.269L160.599 199.021L178.481 209.276Z" fill="url(#paint16_linear_608_15948)"/>
<path d="M178.482 189.255L178.425 209.657L160.662 219.905L160.719 199.503L178.482 189.255Z" fill="url(#paint17_linear_608_15948)"/>
<path d="M160.719 199.503L160.662 219.905L142.779 209.651L142.836 189.248L160.719 199.503Z" fill="url(#paint18_linear_608_15948)"/>
<path d="M178.481 189.255L160.719 199.503L142.836 189.248L160.599 179L178.481 189.255Z" fill="url(#paint19_linear_608_15948)"/>
<path d="M198.015 223.666L180.252 233.914L162.369 223.659L180.132 213.411L198.015 223.666Z" fill="url(#paint20_linear_608_15948)"/>
<path d="M198.015 203.645L197.958 224.047L180.195 234.296L180.252 213.893L198.015 203.645Z" fill="url(#paint21_linear_608_15948)"/>
<path d="M180.252 213.893L180.195 234.296L162.312 224.041L162.369 203.638L180.252 213.893Z" fill="url(#paint22_linear_608_15948)"/>
<path d="M198.015 203.645L180.252 213.893L162.369 203.638L180.132 193.39L198.015 203.645Z" fill="url(#paint23_linear_608_15948)"/>
<path d="M217.548 276.846L199.785 287.095L181.902 276.84L199.665 266.592L217.548 276.846Z" fill="url(#paint24_linear_608_15948)"/>
<path d="M217.548 256.825L217.491 277.228L199.729 287.476L199.785 267.074L217.548 256.825Z" fill="url(#paint25_linear_608_15948)"/>
<path d="M199.785 267.074L199.728 287.476L181.846 277.222L181.902 256.819L199.785 267.074Z" fill="url(#paint26_linear_608_15948)"/>
<path d="M217.548 256.825L199.785 267.074L181.902 256.819L199.665 246.571L217.548 256.825Z" fill="url(#paint27_linear_608_15948)"/>
<path d="M235.193 234.927L235.136 255.33L217.373 265.578L217.43 245.176L235.193 234.927Z" fill="url(#paint28_linear_608_15948)"/>
<path d="M217.43 245.176L217.373 265.578L199.49 255.324L199.547 234.921L217.43 245.176Z" fill="url(#paint29_linear_608_15948)"/>
<mask id="mask2_608_15948" style="mask-type:alpha" maskUnits="userSpaceOnUse" x="199" y="234" width="37" height="32">
<path fill-rule="evenodd" clip-rule="evenodd" d="M199.49 255.324L217.373 265.578L217.43 245.176L199.547 234.921L199.49 255.324ZM235.136 255.33L235.192 234.928L217.43 245.176L217.373 265.578L235.136 255.33Z" fill="url(#paint30_linear_608_15948)"/>
</mask>
<g mask="url(#mask2_608_15948)">
<g filter="url(#filter5_d_608_15948)">
<path d="M235.192 254.948L217.43 265.197L199.547 254.942L217.31 244.694L235.192 254.948Z" fill="#3FC07A" fill-opacity="0.19" shape-rendering="crispEdges"/>
</g>
<g filter="url(#filter6_f_608_15948)">
<path d="M218.438 255.213V256.581H215.693V255.213C212.674 255.213 210.203 252.749 210.203 249.738H212.948C212.948 251.244 214.183 252.476 215.693 252.476V247.001C212.674 247.001 210.203 244.538 210.203 241.527C210.203 238.516 212.674 236.052 215.693 236.052V234.683H218.438V236.052C221.458 236.052 223.928 238.516 223.928 241.527H221.183C221.183 240.021 219.948 238.789 218.438 238.789V244.264H218.987C219.948 244.264 221.183 244.811 222.144 245.632C223.242 246.59 224.066 248.096 224.066 249.738C223.928 252.749 221.458 255.213 218.438 255.213ZM218.438 252.476C219.948 252.476 221.183 251.244 221.183 249.738C221.183 248.233 219.948 247.001 218.438 247.001V252.476ZM215.693 238.789C214.183 238.789 212.948 240.021 212.948 241.527C212.948 243.032 214.183 244.264 215.693 244.264V238.789Z" fill="white"/>
</g>
<g filter="url(#filter7_f_608_15948)">
<path d="M218.438 255.213V256.581H215.693V255.213C212.674 255.213 210.203 252.749 210.203 249.738H212.948C212.948 251.244 214.183 252.476 215.693 252.476V247.001C212.674 247.001 210.203 244.538 210.203 241.527C210.203 238.516 212.674 236.052 215.693 236.052V234.683H218.438V236.052C221.458 236.052 223.928 238.516 223.928 241.527H221.183C221.183 240.021 219.948 238.789 218.438 238.789V244.264H218.987C219.948 244.264 221.183 244.811 222.144 245.632C223.242 246.59 224.066 248.096 224.066 249.738C223.928 252.749 221.458 255.213 218.438 255.213ZM218.438 252.476C219.948 252.476 221.183 251.244 221.183 249.738C221.183 248.233 219.948 247.001 218.438 247.001V252.476ZM215.693 238.789C214.183 238.789 212.948 240.021 212.948 241.527C212.948 243.032 214.183 244.264 215.693 244.264V238.789Z" fill="white"/>
</g>
<g filter="url(#filter8_f_608_15948)">
<path d="M218.438 255.213V256.581H215.693V255.213C212.674 255.213 210.203 252.749 210.203 249.738H212.948C212.948 251.244 214.183 252.476 215.693 252.476V247.001C212.674 247.001 210.203 244.538 210.203 241.527C210.203 238.516 212.674 236.052 215.693 236.052V234.683H218.438V236.052C221.458 236.052 223.928 238.516 223.928 241.527H221.183C221.183 240.021 219.948 238.789 218.438 238.789V244.264H218.987C219.948 244.264 221.183 244.811 222.144 245.632C223.242 246.59 224.066 248.096 224.066 249.738C223.928 252.749 221.458 255.213 218.438 255.213ZM218.438 252.476C219.948 252.476 221.183 251.244 221.183 249.738C221.183 248.233 219.948 247.001 218.438 247.001V252.476ZM215.693 238.789C214.183 238.789 212.948 240.021 212.948 241.527C212.948 243.032 214.183 244.264 215.693 244.264V238.789Z" fill="white"/>
</g>
</g>
<g filter="url(#filter9_i_608_15948)">
<path d="M235.192 234.927L217.43 245.176L199.547 234.921L217.31 224.673L235.192 234.927Z" fill="#4DDA8D" fill-opacity="0.83"/>
</g>
<mask id="mask3_608_15948" style="mask-type:alpha" maskUnits="userSpaceOnUse" x="199" y="224" width="37" height="22">
<path d="M235.192 234.927L217.43 245.176L199.547 234.921L217.31 224.673L235.192 234.927Z" fill="#4DDA8D" fill-opacity="0.83"/>
</mask>
<g mask="url(#mask3_608_15948)">
<path d="M218.436 255.213V256.581H215.691V255.213C212.672 255.213 210.201 252.749 210.201 249.738H212.946C212.946 251.244 214.181 252.476 215.691 252.476V247.001C212.672 247.001 210.201 244.538 210.201 241.527C210.201 238.516 212.672 236.052 215.691 236.052V234.683H218.436V236.052C221.456 236.052 223.926 238.516 223.926 241.527H221.181C221.181 240.021 219.946 238.789 218.436 238.789V244.264H218.985C219.946 244.264 221.181 244.811 222.142 245.632C223.24 246.59 224.064 248.096 224.064 249.738C223.926 252.749 221.456 255.213 218.436 255.213ZM218.436 252.476C219.946 252.476 221.181 251.244 221.181 249.738C221.181 248.233 219.946 247.001 218.436 247.001V252.476ZM215.691 238.789C214.181 238.789 212.946 240.021 212.946 241.527C212.946 243.032 214.181 244.264 215.691 244.264V238.789Z" fill="white"/>
</g>
<path d="M224.48 228.045L206.717 238.293L188.834 228.039L206.597 217.791L224.48 228.045Z" fill="url(#paint31_linear_608_15948)"/>
<path d="M224.48 208.024L224.423 228.427L206.66 238.675L206.717 218.272L224.48 208.024Z" fill="url(#paint32_linear_608_15948)"/>
<path d="M206.717 218.272L206.66 238.675L188.777 228.421L188.834 208.018L206.717 218.272Z" fill="url(#paint33_linear_608_15948)"/>
<path d="M224.48 208.024L206.717 218.272L188.834 208.018L206.597 197.77L224.48 208.024Z" fill="url(#paint34_linear_608_15948)"/>
<path d="M158.949 189.88L158.892 210.283L141.129 220.531L141.186 200.128L158.949 189.88Z" fill="url(#paint35_linear_608_15948)"/>
<path d="M141.185 200.128L141.129 220.531L123.246 210.277L123.303 189.874L141.185 200.128Z" fill="url(#paint36_linear_608_15948)"/>
<g filter="url(#filter10_i_608_15948)">
<path d="M158.948 189.88L141.185 200.128L123.303 189.874L141.066 179.626L158.948 189.88Z" fill="#306AF2"/>
</g>
<mask id="mask4_608_15948" style="mask-type:alpha" maskUnits="userSpaceOnUse" x="123" y="179" width="36" height="22">
<path d="M158.948 189.88L141.185 200.128L123.303 189.874L141.066 179.626L158.948 189.88Z" fill="#1251E7"/>
</mask>
<g mask="url(#mask4_608_15948)">
<g filter="url(#filter11_i_608_15948)">
<path d="M141.185 200.128L123.303 189.874L141.066 179.626L141.185 200.128Z" fill="#497CF1"/>
</g>
<path d="M151.397 195.002C151.398 195.007 151.399 195.012 151.399 195.018C151.528 195.414 151.6 195.849 151.6 196.289C151.6 197.802 150.778 199.19 149.453 199.916C148.892 200.223 148.231 200.38 147.482 200.384C146.245 200.384 145.104 199.848 144.327 198.92C143.557 199.84 142.429 200.38 141.212 200.389C139.982 200.38 138.854 199.844 138.08 198.924C137.303 199.848 136.162 200.389 134.933 200.393H134.929C134.196 200.393 133.543 200.243 132.991 199.945C131.645 199.227 130.807 197.83 130.807 196.301C130.807 195.866 130.875 195.434 131.012 195.01C131.018 194.979 131.027 194.951 131.034 194.927C131.036 194.919 131.038 194.912 131.04 194.905L132.93 190.435C133.22 189.563 134.026 189.01 135.062 189.01H147.397C148.453 189.01 149.295 189.575 149.598 190.479L151.359 194.861C151.375 194.901 151.387 194.942 151.395 194.986C151.395 194.992 151.396 194.997 151.397 195.002Z" fill="white"/>
<path d="M149.295 201.002C149.71 201.002 150.045 201.337 150.045 201.752L150.049 205.848C150.049 206.905 149.187 207.768 148.131 207.772L134.022 207.78C132.963 207.78 132.1 206.917 132.1 205.86L132.096 201.837C132.096 201.425 132.431 201.087 132.846 201.087C132.902 201.087 133.011 201.107 133.011 201.107C133.027 201.113 133.041 201.118 133.055 201.123C133.069 201.128 133.083 201.133 133.1 201.139C133.108 201.142 133.117 201.145 133.125 201.148C133.136 201.151 133.147 201.155 133.156 201.159C133.809 201.401 134.216 201.538 134.933 201.538H134.937C136.114 201.538 137.218 201.179 138.084 200.441C138.943 201.175 140.043 201.47 141.22 201.478C142.38 201.466 143.472 201.05 144.327 200.32C145.193 201.058 146.096 201.292 147.276 201.357C147.812 201.385 148.522 201.268 149.078 201.046C149.15 201.022 149.219 201.002 149.295 201.002Z" fill="white"/>
<g filter="url(#filter12_i_608_15948)">
<path d="M141.066 179.972L158.347 189.881L141.185 199.782L123.904 189.873L141.066 179.972Z" stroke="url(#paint37_linear_608_15948)" stroke-width="0.6"/>
</g>
</g>
<mask id="mask5_608_15948" style="mask-type:alpha" maskUnits="userSpaceOnUse" x="123" y="189" width="36" height="32">
<path d="M123.246 210.277L141.129 220.531L141.185 200.128L123.303 189.874L123.246 210.277Z" fill="url(#paint38_linear_608_15948)"/>
<path d="M158.892 210.283L158.948 189.88L141.185 200.128L141.129 220.531L158.892 210.283Z" fill="url(#paint39_linear_608_15948)"/>
</mask>
<g mask="url(#mask5_608_15948)">
<g opacity="0.3" filter="url(#filter13_d_608_15948)">
<path d="M158.948 209.901L141.185 220.149L123.303 209.895L141.066 199.647L158.948 209.901Z" fill="#608DFA"/>
</g>
<g opacity="0.8" filter="url(#filter14_f_608_15948)">
<ellipse cx="151.246" cy="226.126" rx="17" ry="6.5" fill="#0042DC"/>
</g>
<g filter="url(#filter15_f_608_15948)">
<path d="M151.397 195.002C151.398 195.007 151.399 195.012 151.399 195.018C151.528 195.414 151.6 195.849 151.6 196.289C151.6 197.802 150.778 199.19 149.453 199.916C148.892 200.223 148.231 200.38 147.482 200.384C146.245 200.384 145.104 199.848 144.327 198.92C143.557 199.84 142.429 200.38 141.212 200.389C139.982 200.38 138.854 199.844 138.08 198.924C137.303 199.848 136.162 200.389 134.933 200.393H134.929C134.196 200.393 133.543 200.243 132.991 199.945C131.645 199.227 130.807 197.83 130.807 196.301C130.807 195.866 130.875 195.434 131.012 195.01C131.018 194.979 131.027 194.951 131.034 194.927C131.036 194.919 131.038 194.912 131.04 194.905L132.93 190.435C133.22 189.563 134.026 189.01 135.062 189.01H147.397C148.453 189.01 149.295 189.575 149.598 190.479L151.359 194.861C151.375 194.901 151.387 194.942 151.395 194.986C151.395 194.992 151.396 194.997 151.397 195.002Z" fill="white"/>
<path d="M149.295 201.002C149.71 201.002 150.045 201.337 150.045 201.752L150.049 205.848C150.049 206.905 149.187 207.768 148.131 207.772L134.022 207.78C132.963 207.78 132.1 206.917 132.1 205.86L132.096 201.837C132.096 201.425 132.431 201.087 132.846 201.087C132.902 201.087 133.011 201.107 133.011 201.107C133.027 201.113 133.041 201.118 133.055 201.123C133.069 201.128 133.083 201.133 133.1 201.139C133.108 201.142 133.117 201.145 133.125 201.148C133.136 201.151 133.147 201.155 133.156 201.159C133.809 201.401 134.216 201.538 134.933 201.538H134.937C136.114 201.538 137.218 201.179 138.084 200.441C138.943 201.175 140.043 201.47 141.22 201.478C142.38 201.466 143.472 201.05 144.327 200.32C145.193 201.058 146.096 201.292 147.276 201.357C147.812 201.385 148.522 201.268 149.078 201.046C149.15 201.022 149.219 201.002 149.295 201.002Z" fill="white"/>
</g>
<path d="M141.205 199.96V214.037" stroke="url(#paint40_linear_608_15948)" stroke-width="0.6" stroke-linecap="round"/>
</g>
<path d="M178.481 231.799L160.719 242.047L142.836 231.793L160.599 221.545L178.481 231.799Z" fill="url(#paint41_linear_608_15948)"/>
<path d="M178.482 211.778L178.425 232.181L160.662 242.429L160.719 222.026L178.482 211.778Z" fill="url(#paint42_linear_608_15948)"/>
<path d="M160.719 222.026L160.662 242.429L142.779 232.175L142.836 211.772L160.719 222.026Z" fill="url(#paint43_linear_608_15948)"/>
<path d="M178.481 211.778L160.719 222.026L142.836 211.772L160.599 201.524L178.481 211.778Z" fill="url(#paint44_linear_608_15948)"/>
<path d="M198.015 288.108L180.252 298.357L162.369 288.102L180.132 277.854L198.015 288.108Z" fill="url(#paint45_linear_608_15948)"/>
<path d="M198.015 268.087L197.958 288.49L180.195 298.738L180.252 278.336L198.015 268.087Z" fill="url(#paint46_linear_608_15948)"/>
<path d="M180.252 278.336L180.195 298.738L162.312 288.484L162.369 268.081L180.252 278.336Z" fill="url(#paint47_linear_608_15948)"/>
<path d="M198.015 268.087L180.252 278.336L162.369 268.081L180.132 257.833L198.015 268.087Z" fill="url(#paint48_linear_608_15948)"/>
<path d="M198.015 265.585L180.252 275.833L162.369 265.578L180.132 255.33L198.015 265.585Z" fill="url(#paint49_linear_608_15948)"/>
<path d="M198.015 245.564L197.958 265.966L180.195 276.215L180.252 255.812L198.015 245.564Z" fill="url(#paint50_linear_608_15948)"/>
<path d="M180.252 255.812L180.195 276.215L162.312 265.96L162.369 245.557L180.252 255.812Z" fill="url(#paint51_linear_608_15948)"/>
<path d="M198.015 245.564L180.252 255.812L162.369 245.557L180.132 235.309L198.015 245.564Z" fill="url(#paint52_linear_608_15948)"/>
<path d="M198.015 243.061L180.252 253.309L162.369 243.055L180.132 232.807L198.015 243.061Z" fill="url(#paint53_linear_608_15948)"/>
<path d="M198.015 223.04L197.958 243.443L180.195 253.691L180.252 233.288L198.015 223.04Z" fill="url(#paint54_linear_608_15948)"/>
<path d="M180.252 233.288L180.195 253.691L162.312 243.436L162.369 223.034L180.252 233.288Z" fill="url(#paint55_linear_608_15948)"/>
<path d="M198.015 223.04L180.252 233.288L162.369 223.034L180.132 212.786L198.015 223.04Z" fill="url(#paint56_linear_608_15948)"/>
<path d="M126.183 279.975L108.42 290.223L90.5371 279.968L108.3 269.72L126.183 279.975Z" fill="url(#paint57_linear_608_15948)"/>
<path d="M126.183 259.954L126.126 280.356L108.363 290.605L108.42 270.202L126.183 259.954Z" fill="url(#paint58_linear_608_15948)"/>
<path d="M108.42 270.202L108.363 290.605L90.4805 280.35L90.5372 259.948L108.42 270.202Z" fill="url(#paint59_linear_608_15948)"/>
<g filter="url(#filter16_i_608_15948)">
<path d="M126.183 259.954L108.42 270.202L90.5371 259.947L108.3 249.699L126.183 259.954Z" fill="#B2F9F5"/>
</g>
<path d="M155.167 289.985L137.404 300.233L119.521 289.979L137.284 279.731L155.167 289.985Z" fill="url(#paint60_linear_608_15948)"/>
<path d="M155.167 269.964L155.111 290.367L137.348 300.615L137.404 280.212L155.167 269.964Z" fill="url(#paint61_linear_608_15948)"/>
<path d="M137.404 280.213L137.347 300.615L119.465 290.361L119.522 269.958L137.404 280.213Z" fill="url(#paint62_linear_608_15948)"/>
<path d="M155.167 269.964L137.404 280.212L119.521 269.958L137.284 259.71L155.167 269.964Z" fill="url(#paint63_linear_608_15948)"/>
<path d="M178.481 299.37L160.719 309.618L142.836 299.364L160.599 289.116L178.481 299.37Z" fill="url(#paint64_linear_608_15948)"/>
<path d="M178.482 279.349L178.425 299.752L160.662 310L160.719 289.597L178.482 279.349Z" fill="url(#paint65_linear_608_15948)"/>
<path d="M160.719 289.597L160.662 310L142.779 299.746L142.836 279.343L160.719 289.597Z" fill="url(#paint66_linear_608_15948)"/>
<path d="M178.481 279.349L160.719 289.597L142.836 279.343L160.599 269.095L178.481 279.349Z" fill="url(#paint67_linear_608_15948)"/>
<path d="M139.415 254.323L121.652 264.571L103.77 254.316L121.532 244.068L139.415 254.323Z" fill="url(#paint68_linear_608_15948)"/>
<path d="M139.415 234.302L139.359 254.704L121.596 264.953L121.652 244.55L139.415 234.302Z" fill="url(#paint69_linear_608_15948)"/>
<path d="M121.652 244.55L121.596 264.953L103.713 254.698L103.77 234.296L121.652 244.55Z" fill="url(#paint70_linear_608_15948)"/>
<path d="M139.415 234.302L121.652 244.55L103.77 234.295L121.532 224.047L139.415 234.302Z" fill="url(#paint71_linear_608_15948)"/>
<path d="M158.948 266.21L141.185 276.458L123.303 266.204L141.066 255.956L158.948 266.21Z" fill="url(#paint72_linear_608_15948)"/>
<path d="M158.949 246.189L158.892 266.592L141.129 276.84L141.186 256.437L158.949 246.189Z" fill="url(#paint73_linear_608_15948)"/>
<path d="M141.185 256.437L141.129 276.84L123.246 266.586L123.303 246.183L141.185 256.437Z" fill="url(#paint74_linear_608_15948)"/>
<path d="M158.948 246.189L141.185 256.437L123.303 246.183L141.066 235.935L158.948 246.189Z" fill="url(#paint75_linear_608_15948)"/>
<path d="M178.481 283.729L160.719 293.977L142.836 283.722L160.599 273.474L178.481 283.729Z" fill="#BED6F4"/>
<path d="M178.482 263.708L178.425 284.11L160.662 294.359L160.719 273.956L178.482 263.708Z" fill="url(#paint76_linear_608_15948)"/>
<path d="M160.719 273.956L160.662 294.359L142.779 284.104L142.836 263.701L160.719 273.956Z" fill="url(#paint77_linear_608_15948)"/>
<path d="M178.481 263.708L160.719 273.956L142.836 263.701L160.599 253.453L178.481 263.708Z" fill="#94C3FB"/>
<path d="M135.634 229.297L117.871 239.545L99.9883 229.29L117.751 219.042L135.634 229.297Z" fill="url(#paint78_linear_608_15948)"/>
<path d="M135.634 209.276L135.577 229.678L117.814 239.926L117.871 219.524L135.634 209.276Z" fill="url(#paint79_linear_608_15948)"/>
<path d="M117.871 219.524L117.814 239.926L99.9316 229.672L99.9883 209.269L117.871 219.524Z" fill="url(#paint80_linear_608_15948)"/>
<path d="M135.634 209.276L117.871 219.524L99.9883 209.269L117.751 199.021L135.634 209.276Z" fill="url(#paint81_linear_608_15948)"/>
<path d="M158.948 243.061L141.185 253.309L123.303 243.055L141.066 232.806L158.948 243.061Z" fill="url(#paint82_linear_608_15948)"/>
<path d="M158.949 223.04L158.892 243.443L141.129 253.691L141.186 233.288L158.949 223.04Z" fill="url(#paint83_linear_608_15948)"/>
<path d="M141.185 233.288L141.129 253.691L123.246 243.436L123.303 223.034L141.185 233.288Z" fill="url(#paint84_linear_608_15948)"/>
<path d="M158.948 223.04L141.185 233.288L123.303 223.034L141.066 212.785L158.948 223.04Z" fill="url(#paint85_linear_608_15948)"/>
<path d="M178.481 254.323L160.719 264.571L142.836 254.316L160.599 244.068L178.481 254.323Z" fill="url(#paint86_linear_608_15948)"/>
<path d="M178.482 234.302L178.425 254.704L160.662 264.953L160.719 244.55L178.482 234.302Z" fill="url(#paint87_linear_608_15948)"/>
<path d="M160.719 244.55L160.662 264.953L142.779 254.698L142.836 234.296L160.719 244.55Z" fill="url(#paint88_linear_608_15948)"/>
<path d="M178.481 234.302L160.719 244.55L142.836 234.295L160.599 224.047L178.481 234.302Z" fill="url(#paint89_linear_608_15948)"/>
</g>
<defs>
<filter id="filter0_f_608_15948" x="5.43555" y="214" width="309" height="200" filterUnits="userSpaceOnUse" color-interpolation-filters="sRGB">
<feFlood flood-opacity="0" result="BackgroundImageFix"/>
<feBlend mode="normal" in="SourceGraphic" in2="BackgroundImageFix" result="shape"/>
<feGaussianBlur stdDeviation="12" result="effect1_foregroundBlur_608_15948"/>
</filter>
<filter id="filter1_f_608_15948" x="33.4648" y="220.988" width="255.574" height="168.258" filterUnits="userSpaceOnUse" color-interpolation-filters="sRGB">
<feFlood flood-opacity="0" result="BackgroundImageFix"/>
<feBlend mode="normal" in="SourceGraphic" in2="BackgroundImageFix" result="shape"/>
<feGaussianBlur stdDeviation="12" result="effect1_foregroundBlur_608_15948"/>
</filter>
<filter id="filter2_i_608_15948" x="52.6973" y="219" width="210.074" height="123.68" filterUnits="userSpaceOnUse" color-interpolation-filters="sRGB">
<feFlood flood-opacity="0" result="BackgroundImageFix"/>
<feBlend mode="normal" in="SourceGraphic" in2="BackgroundImageFix" result="shape"/>
<feColorMatrix in="SourceAlpha" type="matrix" values="0 0 0 0 0 0 0 0 0 0 0 0 0 0 0 0 0 0 127 0" result="hardAlpha"/>
<feOffset dy="-2"/>
<feGaussianBlur stdDeviation="4"/>
<feComposite in2="hardAlpha" operator="arithmetic" k2="-1" k3="1"/>
<feColorMatrix type="matrix" values="0 0 0 0 1 0 0 0 0 1 0 0 0 0 1 0 0 0 0.08 0"/>
<feBlend mode="normal" in2="shape" result="effect1_innerShadow_608_15948"/>
</filter>
<filter id="filter3_di_608_15948" x="60.9785" y="223.075" width="193.992" height="117.593" filterUnits="userSpaceOnUse" color-interpolation-filters="sRGB">
<feFlood flood-opacity="0" result="BackgroundImageFix"/>
<feColorMatrix in="SourceAlpha" type="matrix" values="0 0 0 0 0 0 0 0 0 0 0 0 0 0 0 0 0 0 127 0" result="hardAlpha"/>
<feOffset/>
<feGaussianBlur stdDeviation="3"/>
<feComposite in2="hardAlpha" operator="out"/>
<feColorMatrix type="matrix" values="0 0 0 0 0.568627 0 0 0 0 0.729412 0 0 0 0 1 0 0 0 1 0"/>
<feBlend mode="normal" in2="BackgroundImageFix" result="effect1_dropShadow_608_15948"/>
<feBlend mode="normal" in="SourceGraphic" in2="effect1_dropShadow_608_15948" result="shape"/>
<feColorMatrix in="SourceAlpha" type="matrix" values="0 0 0 0 0 0 0 0 0 0 0 0 0 0 0 0 0 0 127 0" result="hardAlpha"/>
<feOffset dy="-2"/>
<feGaussianBlur stdDeviation="4"/>
<feComposite in2="hardAlpha" operator="arithmetic" k2="-1" k3="1"/>
<feColorMatrix type="matrix" values="0 0 0 0 1 0 0 0 0 1 0 0 0 0 1 0 0 0 0.08 0"/>
<feBlend mode="normal" in2="shape" result="effect2_innerShadow_608_15948"/>
</filter>
<filter id="filter4_f_608_15948" x="89.1797" y="235.436" width="136.973" height="92.8713" filterUnits="userSpaceOnUse" color-interpolation-filters="sRGB">
<feFlood flood-opacity="0" result="BackgroundImageFix"/>
<feBlend mode="normal" in="SourceGraphic" in2="BackgroundImageFix" result="shape"/>
<feGaussianBlur stdDeviation="8" result="effect1_foregroundBlur_608_15948"/>
</filter>
<filter id="filter5_d_608_15948" x="193.547" y="234.694" width="47.6465" height="32.5028" filterUnits="userSpaceOnUse" color-interpolation-filters="sRGB">
<feFlood flood-opacity="0" result="BackgroundImageFix"/>
<feColorMatrix in="SourceAlpha" type="matrix" values="0 0 0 0 0 0 0 0 0 0 0 0 0 0 0 0 0 0 127 0" result="hardAlpha"/>
<feOffset dy="-4"/>
<feGaussianBlur stdDeviation="3"/>
<feComposite in2="hardAlpha" operator="out"/>
<feColorMatrix type="matrix" values="0 0 0 0 1 0 0 0 0 1 0 0 0 0 1 0 0 0 0.12 0"/>
<feBlend mode="normal" in2="BackgroundImageFix" result="effect1_dropShadow_608_15948"/>
<feBlend mode="normal" in="SourceGraphic" in2="effect1_dropShadow_608_15948" result="shape"/>
</filter>
<filter id="filter6_f_608_15948" x="204.203" y="228.683" width="25.8633" height="33.8979" filterUnits="userSpaceOnUse" color-interpolation-filters="sRGB">
<feFlood flood-opacity="0" result="BackgroundImageFix"/>
<feBlend mode="normal" in="SourceGraphic" in2="BackgroundImageFix" result="shape"/>
<feGaussianBlur stdDeviation="3" result="effect1_foregroundBlur_608_15948"/>
</filter>
<filter id="filter7_f_608_15948" x="209.203" y="233.683" width="15.8633" height="23.8979" filterUnits="userSpaceOnUse" color-interpolation-filters="sRGB">
<feFlood flood-opacity="0" result="BackgroundImageFix"/>
<feBlend mode="normal" in="SourceGraphic" in2="BackgroundImageFix" result="shape"/>
<feGaussianBlur stdDeviation="0.5" result="effect1_foregroundBlur_608_15948"/>
</filter>
<filter id="filter8_f_608_15948" x="209.203" y="233.683" width="15.8633" height="23.8979" filterUnits="userSpaceOnUse" color-interpolation-filters="sRGB">
<feFlood flood-opacity="0" result="BackgroundImageFix"/>
<feBlend mode="normal" in="SourceGraphic" in2="BackgroundImageFix" result="shape"/>
<feGaussianBlur stdDeviation="0.5" result="effect1_foregroundBlur_608_15948"/>
</filter>
<filter id="filter9_i_608_15948" x="199.547" y="221.673" width="35.6465" height="23.5028" filterUnits="userSpaceOnUse" color-interpolation-filters="sRGB">
<feFlood flood-opacity="0" result="BackgroundImageFix"/>
<feBlend mode="normal" in="SourceGraphic" in2="BackgroundImageFix" result="shape"/>
<feColorMatrix in="SourceAlpha" type="matrix" values="0 0 0 0 0 0 0 0 0 0 0 0 0 0 0 0 0 0 127 0" result="hardAlpha"/>
<feOffset dy="-3"/>
<feGaussianBlur stdDeviation="3"/>
<feComposite in2="hardAlpha" operator="arithmetic" k2="-1" k3="1"/>
<feColorMatrix type="matrix" values="0 0 0 0 1 0 0 0 0 1 0 0 0 0 1 0 0 0 0.62 0"/>
<feBlend mode="normal" in2="shape" result="effect1_innerShadow_608_15948"/>
</filter>
<filter id="filter10_i_608_15948" x="123.303" y="178.626" width="35.6465" height="21.5028" filterUnits="userSpaceOnUse" color-interpolation-filters="sRGB">
<feFlood flood-opacity="0" result="BackgroundImageFix"/>
<feBlend mode="normal" in="SourceGraphic" in2="BackgroundImageFix" result="shape"/>
<feColorMatrix in="SourceAlpha" type="matrix" values="0 0 0 0 0 0 0 0 0 0 0 0 0 0 0 0 0 0 127 0" result="hardAlpha"/>
<feOffset dy="-1"/>
<feGaussianBlur stdDeviation="1"/>
<feComposite in2="hardAlpha" operator="arithmetic" k2="-1" k3="1"/>
<feColorMatrix type="matrix" values="0 0 0 0 0.8625 0 0 0 0 0.8845 0 0 0 0 1 0 0 0 0.28 0"/>
<feBlend mode="normal" in2="shape" result="effect1_innerShadow_608_15948"/>
</filter>
<filter id="filter11_i_608_15948" x="123.303" y="178.626" width="17.8828" height="21.5028" filterUnits="userSpaceOnUse" color-interpolation-filters="sRGB">
<feFlood flood-opacity="0" result="BackgroundImageFix"/>
<feBlend mode="normal" in="SourceGraphic" in2="BackgroundImageFix" result="shape"/>
<feColorMatrix in="SourceAlpha" type="matrix" values="0 0 0 0 0 0 0 0 0 0 0 0 0 0 0 0 0 0 127 0" result="hardAlpha"/>
<feOffset dy="-1"/>
<feGaussianBlur stdDeviation="1"/>
<feComposite in2="hardAlpha" operator="arithmetic" k2="-1" k3="1"/>
<feColorMatrix type="matrix" values="0 0 0 0 0.8625 0 0 0 0 0.8845 0 0 0 0 1 0 0 0 0.28 0"/>
<feBlend mode="normal" in2="shape" result="effect1_innerShadow_608_15948"/>
</filter>
<filter id="filter12_i_608_15948" x="123.303" y="178.626" width="35.6465" height="21.5028" filterUnits="userSpaceOnUse" color-interpolation-filters="sRGB">
<feFlood flood-opacity="0" result="BackgroundImageFix"/>
<feBlend mode="normal" in="SourceGraphic" in2="BackgroundImageFix" result="shape"/>
<feColorMatrix in="SourceAlpha" type="matrix" values="0 0 0 0 0 0 0 0 0 0 0 0 0 0 0 0 0 0 127 0" result="hardAlpha"/>
<feOffset dy="-1"/>
<feGaussianBlur stdDeviation="1"/>
<feComposite in2="hardAlpha" operator="arithmetic" k2="-1" k3="1"/>
<feColorMatrix type="matrix" values="0 0 0 0 0.8625 0 0 0 0 0.8845 0 0 0 0 1 0 0 0 0.28 0"/>
<feBlend mode="normal" in2="shape" result="effect1_innerShadow_608_15948"/>
</filter>
<filter id="filter13_d_608_15948" x="119.303" y="193.647" width="43.6465" height="28.5028" filterUnits="userSpaceOnUse" color-interpolation-filters="sRGB">
<feFlood flood-opacity="0" result="BackgroundImageFix"/>
<feColorMatrix in="SourceAlpha" type="matrix" values="0 0 0 0 0 0 0 0 0 0 0 0 0 0 0 0 0 0 127 0" result="hardAlpha"/>
<feOffset dy="-2"/>
<feGaussianBlur stdDeviation="2"/>
<feComposite in2="hardAlpha" operator="out"/>
<feColorMatrix type="matrix" values="0 0 0 0 0.432465 0 0 0 0 0.595912 0 0 0 0 0.979167 0 0 0 1 0"/>
<feBlend mode="normal" in2="BackgroundImageFix" result="effect1_dropShadow_608_15948"/>
<feBlend mode="normal" in="SourceGraphic" in2="effect1_dropShadow_608_15948" result="shape"/>
</filter>
<filter id="filter14_f_608_15948" x="126.246" y="211.626" width="50" height="29" filterUnits="userSpaceOnUse" color-interpolation-filters="sRGB">
<feFlood flood-opacity="0" result="BackgroundImageFix"/>
<feBlend mode="normal" in="SourceGraphic" in2="BackgroundImageFix" result="shape"/>
<feGaussianBlur stdDeviation="4" result="effect1_foregroundBlur_608_15948"/>
</filter>
<filter id="filter15_f_608_15948" x="127.807" y="186.01" width="26.793" height="24.7697" filterUnits="userSpaceOnUse" color-interpolation-filters="sRGB">
<feFlood flood-opacity="0" result="BackgroundImageFix"/>
<feBlend mode="normal" in="SourceGraphic" in2="BackgroundImageFix" result="shape"/>
<feGaussianBlur stdDeviation="1.5" result="effect1_foregroundBlur_608_15948"/>
</filter>
<filter id="filter16_i_608_15948" x="90.5371" y="247.699" width="35.6465" height="22.5028" filterUnits="userSpaceOnUse" color-interpolation-filters="sRGB">
<feFlood flood-opacity="0" result="BackgroundImageFix"/>
<feBlend mode="normal" in="SourceGraphic" in2="BackgroundImageFix" result="shape"/>
<feColorMatrix in="SourceAlpha" type="matrix" values="0 0 0 0 0 0 0 0 0 0 0 0 0 0 0 0 0 0 127 0" result="hardAlpha"/>
<feOffset dy="-2"/>
<feGaussianBlur stdDeviation="3"/>
<feComposite in2="hardAlpha" operator="arithmetic" k2="-1" k3="1"/>
<feColorMatrix type="matrix" values="0 0 0 0 1 0 0 0 0 1 0 0 0 0 1 0 0 0 0.63 0"/>
<feBlend mode="normal" in2="shape" result="effect1_innerShadow_608_15948"/>
</filter>
<linearGradient id="paint0_linear_608_15948" x1="248.572" y1="307.588" x2="70.9766" y2="306.485" gradientUnits="userSpaceOnUse">
<stop stop-color="#8DBDFA"/>
<stop offset="1" stop-color="#658FE1"/>
</linearGradient>
<linearGradient id="paint1_linear_608_15948" x1="262.363" y1="306.209" x2="51.3982" y2="306.209" gradientUnits="userSpaceOnUse">
<stop stop-color="#EBF6FF"/>
<stop offset="1" stop-color="white"/>
</linearGradient>
<linearGradient id="paint2_linear_608_15948" x1="262.363" y1="306.209" x2="51.3982" y2="306.209" gradientUnits="userSpaceOnUse">
<stop stop-color="#D0E0FF"/>
<stop offset="1" stop-color="white"/>
</linearGradient>
<linearGradient id="paint3_linear_608_15948" x1="275.6" y1="306.209" x2="53.0533" y2="317.24" gradientUnits="userSpaceOnUse">
<stop stop-color="#618CE0"/>
<stop offset="1" stop-color="#B3D1F8"/>
</linearGradient>
<linearGradient id="paint4_linear_608_15948" x1="258.601" y1="291.188" x2="173.195" y2="341.19" gradientUnits="userSpaceOnUse">
<stop stop-color="#2161F5"/>
<stop offset="1" stop-color="#6896FF"/>
</linearGradient>
<linearGradient id="paint5_linear_608_15948" x1="258.601" y1="291.188" x2="173.195" y2="341.19" gradientUnits="userSpaceOnUse">
<stop stop-color="#2161F5"/>
<stop offset="1" stop-color="#6896FF"/>
</linearGradient>
<linearGradient id="paint6_linear_608_15948" x1="54.2462" y1="287.461" x2="144.621" y2="344.295" gradientUnits="userSpaceOnUse">
<stop stop-color="#4D82FF"/>
<stop offset="1" stop-color="#0752FF"/>
</linearGradient>
<linearGradient id="paint7_linear_608_15948" x1="160.149" y1="340.258" x2="157.665" y2="243.671" gradientUnits="userSpaceOnUse">
<stop stop-color="#80B2FF"/>
<stop offset="1" stop-color="#50A9FC"/>
</linearGradient>
<linearGradient id="paint8_linear_608_15948" x1="150.522" y1="343.674" x2="170.087" y2="343.985" gradientUnits="userSpaceOnUse">
<stop stop-color="#0752FF"/>
<stop offset="1" stop-color="#6896FF"/>
</linearGradient>
<linearGradient id="paint9_linear_608_15948" x1="150.522" y1="343.674" x2="170.087" y2="343.985" gradientUnits="userSpaceOnUse">
<stop stop-color="#0752FF"/>
<stop offset="1" stop-color="#6896FF"/>
</linearGradient>
<linearGradient id="paint10_linear_608_15948" x1="150.522" y1="343.674" x2="170.087" y2="343.985" gradientUnits="userSpaceOnUse">
<stop stop-color="#0752FF"/>
<stop offset="1" stop-color="#6896FF"/>
</linearGradient>
<linearGradient id="paint11_linear_608_15948" x1="150.522" y1="343.674" x2="170.087" y2="343.985" gradientUnits="userSpaceOnUse">
<stop stop-color="#0752FF"/>
<stop offset="1" stop-color="#6896FF"/>
</linearGradient>
<linearGradient id="paint12_linear_608_15948" x1="150.522" y1="343.674" x2="170.087" y2="343.985" gradientUnits="userSpaceOnUse">
<stop stop-color="#0752FF"/>
<stop offset="1" stop-color="#6896FF"/>
</linearGradient>
<linearGradient id="paint13_linear_608_15948" x1="150.522" y1="343.674" x2="170.087" y2="343.985" gradientUnits="userSpaceOnUse">
<stop stop-color="#0752FF"/>
<stop offset="1" stop-color="#6896FF"/>
</linearGradient>
<linearGradient id="paint14_linear_608_15948" x1="150.522" y1="343.674" x2="170.087" y2="343.985" gradientUnits="userSpaceOnUse">
<stop stop-color="#0752FF"/>
<stop offset="1" stop-color="#6896FF"/>
</linearGradient>
<linearGradient id="paint15_linear_608_15948" x1="150.522" y1="343.674" x2="170.087" y2="343.985" gradientUnits="userSpaceOnUse">
<stop stop-color="#0752FF"/>
<stop offset="1" stop-color="#6896FF"/>
</linearGradient>
<linearGradient id="paint16_linear_608_15948" x1="175.545" y1="209.032" x2="145.615" y2="209.032" gradientUnits="userSpaceOnUse">
<stop stop-color="#FCFEFF"/>
<stop offset="1" stop-color="#F0F7FF"/>
</linearGradient>
<linearGradient id="paint17_linear_608_15948" x1="181.216" y1="201.524" x2="162.37" y2="211.33" gradientUnits="userSpaceOnUse">
<stop stop-color="#C6E2FF"/>
<stop offset="1" stop-color="#C4DCF8"/>
</linearGradient>
<linearGradient id="paint18_linear_608_15948" x1="144.67" y1="190.575" x2="158.084" y2="210.996" gradientUnits="userSpaceOnUse">
<stop stop-color="#D9E8FF"/>
<stop offset="1" stop-color="#D5E9FF"/>
</linearGradient>
<linearGradient id="paint19_linear_608_15948" x1="175.545" y1="189.011" x2="145.615" y2="189.011" gradientUnits="userSpaceOnUse">
<stop stop-color="#FCFEFF"/>
<stop offset="1" stop-color="#F0F7FF"/>
</linearGradient>
<linearGradient id="paint20_linear_608_15948" x1="195.078" y1="223.422" x2="165.148" y2="223.422" gradientUnits="userSpaceOnUse">
<stop stop-color="#FCFEFF"/>
<stop offset="1" stop-color="#F0F7FF"/>
</linearGradient>
<linearGradient id="paint21_linear_608_15948" x1="200.75" y1="215.914" x2="181.903" y2="225.721" gradientUnits="userSpaceOnUse">
<stop stop-color="#C6E2FF"/>
<stop offset="1" stop-color="#C4DCF8"/>
</linearGradient>
<linearGradient id="paint22_linear_608_15948" x1="164.203" y1="204.965" x2="177.617" y2="225.386" gradientUnits="userSpaceOnUse">
<stop stop-color="#D9E8FF"/>
<stop offset="1" stop-color="#D5E9FF"/>
</linearGradient>
<linearGradient id="paint23_linear_608_15948" x1="195.078" y1="203.401" x2="165.148" y2="203.401" gradientUnits="userSpaceOnUse">
<stop stop-color="#FCFEFF"/>
<stop offset="1" stop-color="#F0F7FF"/>
</linearGradient>
<linearGradient id="paint24_linear_608_15948" x1="214.612" y1="276.602" x2="184.681" y2="276.602" gradientUnits="userSpaceOnUse">
<stop stop-color="#FCFEFF"/>
<stop offset="1" stop-color="#F0F7FF"/>
</linearGradient>
<linearGradient id="paint25_linear_608_15948" x1="220.283" y1="269.095" x2="201.436" y2="278.901" gradientUnits="userSpaceOnUse">
<stop stop-color="#C6E2FF"/>
<stop offset="1" stop-color="#C4DCF8"/>
</linearGradient>
<linearGradient id="paint26_linear_608_15948" x1="183.736" y1="258.146" x2="197.15" y2="278.567" gradientUnits="userSpaceOnUse">
<stop stop-color="#D9E8FF"/>
<stop offset="1" stop-color="#D5E9FF"/>
</linearGradient>
<linearGradient id="paint27_linear_608_15948" x1="214.612" y1="256.581" x2="184.681" y2="256.581" gradientUnits="userSpaceOnUse">
<stop stop-color="#FCFEFF"/>
<stop offset="1" stop-color="#F0F7FF"/>
</linearGradient>
<linearGradient id="paint28_linear_608_15948" x1="230.996" y1="242.504" x2="220.09" y2="262.903" gradientUnits="userSpaceOnUse">
<stop stop-color="#55D391"/>
<stop offset="1" stop-color="#D9F8E7" stop-opacity="0.87"/>
</linearGradient>
<linearGradient id="paint29_linear_608_15948" x1="204.531" y1="238.125" x2="215.744" y2="261.024" gradientUnits="userSpaceOnUse">
<stop stop-color="#66DD96"/>
<stop offset="1" stop-color="#D1FBE2" stop-opacity="0.87"/>
</linearGradient>
<linearGradient id="paint30_linear_608_15948" x1="204.531" y1="238.125" x2="215.744" y2="261.024" gradientUnits="userSpaceOnUse">
<stop stop-color="#66DD96"/>
<stop offset="1" stop-color="#66DD96" stop-opacity="0"/>
</linearGradient>
<linearGradient id="paint31_linear_608_15948" x1="221.543" y1="227.801" x2="191.613" y2="227.801" gradientUnits="userSpaceOnUse">
<stop stop-color="#FCFEFF"/>
<stop offset="1" stop-color="#F0F7FF"/>
</linearGradient>
<linearGradient id="paint32_linear_608_15948" x1="227.214" y1="220.293" x2="208.368" y2="230.1" gradientUnits="userSpaceOnUse">
<stop stop-color="#C6E2FF"/>
<stop offset="1" stop-color="#C4DCF8"/>
</linearGradient>
<linearGradient id="paint33_linear_608_15948" x1="190.668" y1="209.344" x2="204.082" y2="229.766" gradientUnits="userSpaceOnUse">
<stop stop-color="#D9E8FF"/>
<stop offset="1" stop-color="#D5E9FF"/>
</linearGradient>
<linearGradient id="paint34_linear_608_15948" x1="221.543" y1="207.78" x2="191.613" y2="207.78" gradientUnits="userSpaceOnUse">
<stop stop-color="#FCFEFF"/>
<stop offset="1" stop-color="#F0F7FF"/>
</linearGradient>
<linearGradient id="paint35_linear_608_15948" x1="155.382" y1="193.703" x2="143.847" y2="213.17" gradientUnits="userSpaceOnUse">
<stop offset="0.359375" stop-color="#86A9F9"/>
<stop offset="1" stop-color="#0F4AD0"/>
</linearGradient>
<linearGradient id="paint36_linear_608_15948" x1="127.027" y1="195.58" x2="137.935" y2="215.354" gradientUnits="userSpaceOnUse">
<stop stop-color="#8EB6FF"/>
<stop offset="1" stop-color="#3371E6"/>
</linearGradient>
<linearGradient id="paint37_linear_608_15948" x1="141.126" y1="179.626" x2="141.126" y2="200.128" gradientUnits="userSpaceOnUse">
<stop offset="0.0853624" stop-color="white" stop-opacity="0"/>
<stop offset="1" stop-color="white"/>
</linearGradient>
<linearGradient id="paint38_linear_608_15948" x1="128.917" y1="195.58" x2="136.697" y2="215.638" gradientUnits="userSpaceOnUse">
<stop stop-color="#2B72F5"/>
<stop offset="1" stop-color="#A7C3F9"/>
</linearGradient>
<linearGradient id="paint39_linear_608_15948" x1="128.917" y1="195.58" x2="136.697" y2="215.638" gradientUnits="userSpaceOnUse">
<stop stop-color="#2B72F5"/>
<stop offset="1" stop-color="#A7C3F9"/>
</linearGradient>
<linearGradient id="paint40_linear_608_15948" x1="140.705" y1="199.96" x2="139.378" y2="200.173" gradientUnits="userSpaceOnUse">
<stop stop-color="#F7F8FF"/>
<stop offset="1" stop-color="white" stop-opacity="0"/>
</linearGradient>
<linearGradient id="paint41_linear_608_15948" x1="175.545" y1="231.555" x2="145.615" y2="231.555" gradientUnits="userSpaceOnUse">
<stop stop-color="#FCFEFF"/>
<stop offset="1" stop-color="#F0F7FF"/>
</linearGradient>
<linearGradient id="paint42_linear_608_15948" x1="181.216" y1="224.047" x2="162.37" y2="233.854" gradientUnits="userSpaceOnUse">
<stop stop-color="#C6E2FF"/>
<stop offset="1" stop-color="#C4DCF8"/>
</linearGradient>
<linearGradient id="paint43_linear_608_15948" x1="144.67" y1="213.098" x2="158.084" y2="233.52" gradientUnits="userSpaceOnUse">
<stop stop-color="#D9E8FF"/>
<stop offset="1" stop-color="#D5E9FF"/>
</linearGradient>
<linearGradient id="paint44_linear_608_15948" x1="175.545" y1="211.534" x2="145.615" y2="211.534" gradientUnits="userSpaceOnUse">
<stop stop-color="#FCFEFF"/>
<stop offset="1" stop-color="#F0F7FF"/>
</linearGradient>
<linearGradient id="paint45_linear_608_15948" x1="195.078" y1="287.864" x2="165.148" y2="287.864" gradientUnits="userSpaceOnUse">
<stop stop-color="#FCFEFF"/>
<stop offset="1" stop-color="#F0F7FF"/>
</linearGradient>
<linearGradient id="paint46_linear_608_15948" x1="200.75" y1="280.356" x2="181.903" y2="290.163" gradientUnits="userSpaceOnUse">
<stop stop-color="#C6E2FF"/>
<stop offset="1" stop-color="#C4DCF8"/>
</linearGradient>
<linearGradient id="paint47_linear_608_15948" x1="164.203" y1="269.407" x2="177.617" y2="289.829" gradientUnits="userSpaceOnUse">
<stop stop-color="#D9E8FF"/>
<stop offset="1" stop-color="#D5E9FF"/>
</linearGradient>
<linearGradient id="paint48_linear_608_15948" x1="195.078" y1="267.843" x2="165.148" y2="267.843" gradientUnits="userSpaceOnUse">
<stop stop-color="#FCFEFF"/>
<stop offset="1" stop-color="#F0F7FF"/>
</linearGradient>
<linearGradient id="paint49_linear_608_15948" x1="195.078" y1="265.341" x2="165.148" y2="265.341" gradientUnits="userSpaceOnUse">
<stop stop-color="#FCFEFF"/>
<stop offset="1" stop-color="#F0F7FF"/>
</linearGradient>
<linearGradient id="paint50_linear_608_15948" x1="200.75" y1="257.833" x2="181.903" y2="267.64" gradientUnits="userSpaceOnUse">
<stop stop-color="#C6E2FF"/>
<stop offset="1" stop-color="#C4DCF8"/>
</linearGradient>
<linearGradient id="paint51_linear_608_15948" x1="164.203" y1="246.884" x2="177.617" y2="267.305" gradientUnits="userSpaceOnUse">
<stop stop-color="#D9E8FF"/>
<stop offset="1" stop-color="#D5E9FF"/>
</linearGradient>
<linearGradient id="paint52_linear_608_15948" x1="195.078" y1="245.32" x2="165.148" y2="245.32" gradientUnits="userSpaceOnUse">
<stop stop-color="#FCFEFF"/>
<stop offset="1" stop-color="#F0F7FF"/>
</linearGradient>
<linearGradient id="paint53_linear_608_15948" x1="195.078" y1="242.817" x2="165.148" y2="242.817" gradientUnits="userSpaceOnUse">
<stop stop-color="#FCFEFF"/>
<stop offset="1" stop-color="#F0F7FF"/>
</linearGradient>
<linearGradient id="paint54_linear_608_15948" x1="200.75" y1="235.309" x2="181.903" y2="245.116" gradientUnits="userSpaceOnUse">
<stop stop-color="#C6E2FF"/>
<stop offset="1" stop-color="#C4DCF8"/>
</linearGradient>
<linearGradient id="paint55_linear_608_15948" x1="164.203" y1="224.36" x2="177.617" y2="244.782" gradientUnits="userSpaceOnUse">
<stop stop-color="#D9E8FF"/>
<stop offset="1" stop-color="#D5E9FF"/>
</linearGradient>
<linearGradient id="paint56_linear_608_15948" x1="195.078" y1="222.796" x2="165.148" y2="222.796" gradientUnits="userSpaceOnUse">
<stop stop-color="#FCFEFF"/>
<stop offset="1" stop-color="#F0F7FF"/>
</linearGradient>
<linearGradient id="paint57_linear_608_15948" x1="123.246" y1="279.731" x2="93.3159" y2="279.731" gradientUnits="userSpaceOnUse">
<stop stop-color="#FCFEFF"/>
<stop offset="1" stop-color="#F0F7FF"/>
</linearGradient>
<linearGradient id="paint58_linear_608_15948" x1="110.644" y1="279.731" x2="120.072" y2="275.3" gradientUnits="userSpaceOnUse">
<stop stop-color="#5FF2EF"/>
<stop offset="1" stop-color="#ABFEFC"/>
</linearGradient>
<linearGradient id="paint59_linear_608_15948" x1="93.0009" y1="264.715" x2="102.962" y2="288.541" gradientUnits="userSpaceOnUse">
<stop stop-color="#80F7EE"/>
<stop offset="1" stop-color="#BBFFFA"/>
</linearGradient>
<linearGradient id="paint60_linear_608_15948" x1="152.231" y1="289.741" x2="122.3" y2="289.741" gradientUnits="userSpaceOnUse">
<stop stop-color="#FCFEFF"/>
<stop offset="1" stop-color="#F0F7FF"/>
</linearGradient>
<linearGradient id="paint61_linear_608_15948" x1="157.902" y1="282.233" x2="139.055" y2="292.04" gradientUnits="userSpaceOnUse">
<stop stop-color="#C6E2FF"/>
<stop offset="1" stop-color="#C4DCF8"/>
</linearGradient>
<linearGradient id="paint62_linear_608_15948" x1="121.355" y1="271.284" x2="134.769" y2="291.706" gradientUnits="userSpaceOnUse">
<stop stop-color="#D9E8FF"/>
<stop offset="1" stop-color="#D5E9FF"/>
</linearGradient>
<linearGradient id="paint63_linear_608_15948" x1="152.231" y1="269.72" x2="122.3" y2="269.72" gradientUnits="userSpaceOnUse">
<stop stop-color="#FCFEFF"/>
<stop offset="1" stop-color="#F0F7FF"/>
</linearGradient>
<linearGradient id="paint64_linear_608_15948" x1="175.545" y1="299.126" x2="145.615" y2="299.126" gradientUnits="userSpaceOnUse">
<stop stop-color="#FCFEFF"/>
<stop offset="1" stop-color="#F0F7FF"/>
</linearGradient>
<linearGradient id="paint65_linear_608_15948" x1="181.216" y1="291.618" x2="162.37" y2="301.425" gradientUnits="userSpaceOnUse">
<stop stop-color="#C6E2FF"/>
<stop offset="1" stop-color="#C4DCF8"/>
</linearGradient>
<linearGradient id="paint66_linear_608_15948" x1="144.67" y1="280.669" x2="158.084" y2="301.091" gradientUnits="userSpaceOnUse">
<stop stop-color="#D9E8FF"/>
<stop offset="1" stop-color="#D5E9FF"/>
</linearGradient>
<linearGradient id="paint67_linear_608_15948" x1="175.545" y1="279.105" x2="145.615" y2="279.105" gradientUnits="userSpaceOnUse">
<stop stop-color="#FCFEFF"/>
<stop offset="1" stop-color="#F0F7FF"/>
</linearGradient>
<linearGradient id="paint68_linear_608_15948" x1="136.479" y1="254.079" x2="106.548" y2="254.079" gradientUnits="userSpaceOnUse">
<stop stop-color="#FCFEFF"/>
<stop offset="1" stop-color="#F0F7FF"/>
</linearGradient>
<linearGradient id="paint69_linear_608_15948" x1="142.15" y1="246.571" x2="123.303" y2="256.378" gradientUnits="userSpaceOnUse">
<stop stop-color="#C6E2FF"/>
<stop offset="1" stop-color="#C4DCF8"/>
</linearGradient>
<linearGradient id="paint70_linear_608_15948" x1="105.603" y1="235.622" x2="119.017" y2="256.043" gradientUnits="userSpaceOnUse">
<stop stop-color="#D9E8FF"/>
<stop offset="1" stop-color="#D5E9FF"/>
</linearGradient>
<linearGradient id="paint71_linear_608_15948" x1="136.479" y1="234.058" x2="106.548" y2="234.058" gradientUnits="userSpaceOnUse">
<stop stop-color="#FCFEFF"/>
<stop offset="1" stop-color="#F0F7FF"/>
</linearGradient>
<linearGradient id="paint72_linear_608_15948" x1="156.012" y1="265.966" x2="126.082" y2="265.966" gradientUnits="userSpaceOnUse">
<stop stop-color="#FCFEFF"/>
<stop offset="1" stop-color="#F0F7FF"/>
</linearGradient>
<linearGradient id="paint73_linear_608_15948" x1="161.683" y1="258.458" x2="142.837" y2="268.265" gradientUnits="userSpaceOnUse">
<stop stop-color="#C6E2FF"/>
<stop offset="1" stop-color="#C4DCF8"/>
</linearGradient>
<linearGradient id="paint74_linear_608_15948" x1="125.136" y1="247.509" x2="138.55" y2="267.931" gradientUnits="userSpaceOnUse">
<stop stop-color="#D9E8FF"/>
<stop offset="1" stop-color="#D5E9FF"/>
</linearGradient>
<linearGradient id="paint75_linear_608_15948" x1="156.012" y1="245.945" x2="126.082" y2="245.945" gradientUnits="userSpaceOnUse">
<stop stop-color="#FCFEFF"/>
<stop offset="1" stop-color="#F0F7FF"/>
</linearGradient>
<linearGradient id="paint76_linear_608_15948" x1="167.039" y1="286.3" x2="177.957" y2="269.649" gradientUnits="userSpaceOnUse">
<stop stop-color="#215EE9"/>
<stop offset="1" stop-color="#92C2FB"/>
</linearGradient>
<linearGradient id="paint77_linear_608_15948" x1="145.3" y1="270.659" x2="157.767" y2="292.945" gradientUnits="userSpaceOnUse">
<stop stop-color="#306CEC"/>
<stop offset="1" stop-color="#CFDDFF"/>
</linearGradient>
<linearGradient id="paint78_linear_608_15948" x1="132.698" y1="229.052" x2="102.767" y2="229.052" gradientUnits="userSpaceOnUse">
<stop stop-color="#FCFEFF"/>
<stop offset="1" stop-color="#F0F7FF"/>
</linearGradient>
<linearGradient id="paint79_linear_608_15948" x1="138.369" y1="221.545" x2="119.522" y2="231.351" gradientUnits="userSpaceOnUse">
<stop stop-color="#C6E2FF"/>
<stop offset="1" stop-color="#C4DCF8"/>
</linearGradient>
<linearGradient id="paint80_linear_608_15948" x1="101.822" y1="210.596" x2="115.236" y2="231.017" gradientUnits="userSpaceOnUse">
<stop stop-color="#D9E8FF"/>
<stop offset="1" stop-color="#D5E9FF"/>
</linearGradient>
<linearGradient id="paint81_linear_608_15948" x1="132.698" y1="209.032" x2="102.767" y2="209.032" gradientUnits="userSpaceOnUse">
<stop stop-color="#FCFEFF"/>
<stop offset="1" stop-color="#F0F7FF"/>
</linearGradient>
<linearGradient id="paint82_linear_608_15948" x1="156.012" y1="242.817" x2="126.082" y2="242.817" gradientUnits="userSpaceOnUse">
<stop stop-color="#FCFEFF"/>
<stop offset="1" stop-color="#F0F7FF"/>
</linearGradient>
<linearGradient id="paint83_linear_608_15948" x1="161.683" y1="235.309" x2="142.837" y2="245.116" gradientUnits="userSpaceOnUse">
<stop stop-color="#C6E2FF"/>
<stop offset="1" stop-color="#C4DCF8"/>
</linearGradient>
<linearGradient id="paint84_linear_608_15948" x1="125.136" y1="224.36" x2="138.55" y2="244.782" gradientUnits="userSpaceOnUse">
<stop stop-color="#D9E8FF"/>
<stop offset="1" stop-color="#D5E9FF"/>
</linearGradient>
<linearGradient id="paint85_linear_608_15948" x1="156.012" y1="222.796" x2="126.082" y2="222.796" gradientUnits="userSpaceOnUse">
<stop stop-color="#FCFEFF"/>
<stop offset="1" stop-color="#F0F7FF"/>
</linearGradient>
<linearGradient id="paint86_linear_608_15948" x1="175.545" y1="254.079" x2="145.615" y2="254.079" gradientUnits="userSpaceOnUse">
<stop stop-color="#FCFEFF"/>
<stop offset="1" stop-color="#F0F7FF"/>
</linearGradient>
<linearGradient id="paint87_linear_608_15948" x1="181.216" y1="246.571" x2="162.37" y2="256.378" gradientUnits="userSpaceOnUse">
<stop stop-color="#C6E2FF"/>
<stop offset="1" stop-color="#C4DCF8"/>
</linearGradient>
<linearGradient id="paint88_linear_608_15948" x1="144.67" y1="235.622" x2="158.084" y2="256.043" gradientUnits="userSpaceOnUse">
<stop stop-color="#D9E8FF"/>
<stop offset="1" stop-color="#D5E9FF"/>
</linearGradient>
<linearGradient id="paint89_linear_608_15948" x1="175.545" y1="234.058" x2="145.615" y2="234.058" gradientUnits="userSpaceOnUse">
<stop stop-color="#FCFEFF"/>
<stop offset="1" stop-color="#F0F7FF"/>
</linearGradient>
</defs>
</svg>
