<?xml version="1.0" encoding="UTF-8"?>
<svg width="382px" height="166px" viewBox="0 0 382 166" version="1.1" xmlns="http://www.w3.org/2000/svg" xmlns:xlink="http://www.w3.org/1999/xlink">
    <title>领券中心_优惠券_382px</title>
    <defs>
        <rect id="path-1" x="0" y="0" width="382" height="166"></rect>
        <linearGradient x1="0%" y1="40.5580987%" x2="97.5235602%" y2="61.185354%" id="linearGradient-3">
            <stop stop-color="#FFEFC4" offset="0.789421%"></stop>
            <stop stop-color="#FFD28E" offset="100%"></stop>
        </linearGradient>
        <linearGradient x1="15.3508772%" y1="46.0603263%" x2="50%" y2="53.9396737%" id="linearGradient-4">
            <stop stop-color="#FE9C09" offset="0%"></stop>
            <stop stop-color="#FE7A09" offset="100%"></stop>
        </linearGradient>
    </defs>
    <g id="页面-1" stroke="none" stroke-width="1" fill="none" fill-rule="evenodd">
        <g id="领券中心_优惠券_382px">
            <mask id="mask-2" fill="white">
                <use xlink:href="#path-1"></use>
            </mask>
            <g id="矩形"></g>
            <g id="编组" mask="url(#mask-2)">
                <g transform="translate(-103.997474, -110.000000)">
                    <path d="M103.997474,115 C103.997474,112.23858 106.236054,110 108.997474,110 L480.997474,110 C483.758474,110 485.997474,112.23858 485.997474,115 L485.997474,229 C485.997474,229 485.992474,229 485.990474,229 C480.160474,229 475.435474,233.477 475.435474,239 C475.435474,244.523 480.160474,249 485.990474,249 C485.992474,249 485.997474,249 485.997474,249 L485.997474,271 C485.997474,273.761 483.758474,276 480.997474,276 L108.997474,276 C106.236044,276 103.997474,273.761 103.997474,271 L103.997474,249 C109.823954,248.996 114.546074,244.521 114.546074,239 C114.546074,233.479 109.823954,229.004 103.997474,229 L103.997474,115 Z" id="路径" stroke="none" fill="url(#linearGradient-3)" fill-rule="evenodd"></path>
                    <rect id="矩形" stroke="none" fill="#FFFFFF" fill-rule="nonzero" opacity="0.1" transform="translate(160.390337, 128.460235) rotate(60.000000) translate(-160.390337, -128.460235) " x="115.996737" y="16.0317354" width="88.7872" height="224.857"></rect>
                    <rect id="矩形" stroke="none" fill="#FFFFFF" fill-rule="nonzero" opacity="0.2" transform="translate(138.851612, 113.258436) rotate(60.000000) translate(-138.851612, -113.258436) " x="95.3794621" y="0.829936257" width="86.9443" height="224.857"></rect>
                    <rect id="矩形" stroke="none" fill="#FFFFFF" fill-rule="nonzero" opacity="0.3" transform="translate(119.102012, 93.862236) rotate(60.000000) translate(-119.102012, -93.862236) " x="75.6298621" y="-18.5662637" width="86.9443" height="224.857"></rect>
                    <g id="编组" opacity="0.1" stroke="none" stroke-width="1" fill="none" fill-rule="evenodd" transform="translate(329.997276, 177.000000)">
                        <path d="M128.312198,38.814 C126.788198,28.0456 121.427198,18.1893 113.215198,11.058 C105.003198,3.9267 94.4931983,-1.42108547e-14 83.6171983,-1.42108547e-14 C72.7411983,-1.42108547e-14 62.2311983,3.9267 54.0191983,11.058 C45.8071983,18.1893 40.4461983,28.0456 38.9221983,38.814 C27.6991983,40.375 17.4731983,46.1 10.2751983,54.852 C3.07819829,63.604 -0.564801708,74.743 0.0711982917,86.057 C0.707198292,97.371 5.57519829,108.031 13.7071983,115.922 C21.8401983,123.813 32.6431983,128.356 43.9711983,128.649 L45.1591983,128.649 C46.8261983,128.501 48.3771983,127.731 49.5041983,126.494 C50.6321983,125.257 51.2531983,123.641 51.2471983,121.967 L51.2471983,103.258 C51.2471983,101.486 50.5431983,99.786 49.2901983,98.533 C48.0371983,97.28 46.3371983,96.576 44.5651983,96.576 C42.7931983,96.576 41.0931983,97.28 39.8401983,98.533 C38.5871983,99.786 37.8831983,101.486 37.8831983,103.258 L37.8831983,114.394 C32.8411983,113.221 28.1621983,110.833 24.2531983,107.438 C20.3441983,104.044 17.3241983,99.746 15.4551983,94.918 C13.5861983,90.09 12.9251983,84.879 13.5291983,79.737 C14.1331983,74.596 15.9841983,69.679 18.9221983,65.416 C21.8591983,61.153 25.7931983,57.673 30.3821983,55.277 C34.9721983,52.881 40.0771983,51.643 45.2541983,51.67 C50.4311983,51.697 55.5231983,52.988 60.0871983,55.432 C64.6511983,57.875 68.5481983,61.397 71.4411983,65.691 C74.9811983,70.963 76.8911983,77.159 76.9351983,83.509 C76.9331983,92.171 79.4231983,100.651 84.1081983,107.937 C88.7931983,115.223 95.4761983,121.007 103.358198,124.598 C111.240198,128.19 119.990198,129.438 128.562198,128.193 C137.134198,126.949 145.167198,123.264 151.703198,117.578 C158.238198,111.893 163.000198,104.447 165.419198,96.13 C167.839198,87.813 167.814198,78.975 165.348198,70.671 C162.882198,62.367 158.079198,54.948 151.512198,49.3 C144.945198,43.651 136.891198,40.011 128.312198,38.814 Z M122.075198,115.285 C117.902198,115.285 113.770198,114.463 109.915198,112.867 C106.060198,111.27 102.557198,108.929 99.6061983,105.978 C96.6551983,103.028 94.3151983,99.525 92.7181983,95.669 C91.1211983,91.814 90.2991983,87.682 90.2991983,83.509 C90.2991983,82.024 90.1511983,80.539 90.0021983,79.054 C89.8541983,77.57 89.8541983,78.163 89.8541983,77.718 L89.4081983,74.897 C89.2511983,74.365 89.1511983,73.817 89.1111983,73.263 C88.8141983,72.372 88.6661983,71.482 88.3691983,70.739 C88.2391983,70.125 88.0391983,69.527 87.7751983,68.957 C87.5951983,68.194 87.3461983,67.449 87.0321983,66.73 C86.8131983,66.173 86.5651983,65.628 86.2901983,65.097 L85.2501983,62.869 L84.3601983,61.384 C84.0531983,60.644 83.6541983,59.946 83.1721983,59.306 C82.9121983,58.755 82.5611983,58.253 82.1321983,57.821 L80.6471983,55.742 C80.3831983,55.281 80.0301983,54.877 79.6081983,54.554 L77.8261983,52.475 L76.9351983,51.436 L74.1141983,48.911 L73.8171983,48.614 L70.5501983,46.239 L69.3621983,45.496 L66.9861983,44.011 L65.5021983,43.269 L63.2741983,42.229 L61.6411983,41.487 L59.2651983,40.596 L57.4831983,40.151 L55.1071983,39.557 L53.3261983,39.111 L52.4351983,39.111 C53.9541983,31.3653 58.3011983,24.462 64.6311983,19.7457 C70.9601983,15.0294 78.8191983,12.8377 86.6761983,13.5974 C94.5321983,14.3572 101.825198,18.014 107.134198,23.8557 C112.442198,29.6974 115.387198,37.306 115.393198,45.199 C115.393198,46.971 116.097198,48.671 117.351198,49.924 C118.604198,51.177 120.303198,51.881 122.075198,51.881 C130.503198,51.881 138.585198,55.229 144.545198,61.188 C150.504198,67.147 153.852198,75.23 153.852198,83.658 C153.852198,92.085 150.504198,100.168 144.545198,106.127 C138.585198,112.086 130.503198,115.434 122.075198,115.434 L122.075198,115.285 Z" id="形状" fill="#FFFFFF" fill-rule="nonzero"></path>
                        <path d="M37.8911983,83.509 C37.8911983,84.831 38.2831983,86.123 39.0171983,87.221 C39.7511983,88.32 40.7951983,89.177 42.0151983,89.682 C43.2361983,90.188 44.5801983,90.32 45.8761983,90.063 C47.1721983,89.805 48.3631983,89.168 49.2971983,88.234 C50.2321983,87.299 50.8681983,86.109 51.1261983,84.813 C51.3841983,83.517 51.2521983,82.173 50.7461983,80.952 C50.2401983,79.731 49.3841983,78.687 48.2851983,77.953 C47.1861983,77.219 45.8941983,76.827 44.5731983,76.827 C42.8001983,76.827 41.1011983,77.531 39.8481983,78.784 C38.5951983,80.037 37.8911983,81.737 37.8911983,83.509 Z" id="路径" fill="#FFFFFF" fill-rule="nonzero"></path>
                        <path d="M37.8911983,83.509 C37.8911983,84.831 38.2831983,86.123 39.0171983,87.221 C39.7511983,88.32 40.7951983,89.177 42.0151983,89.682 C43.2361983,90.188 44.5801983,90.32 45.8761983,90.063 C47.1721983,89.805 48.3631983,89.168 49.2971983,88.234 C50.2321983,87.299 50.8681983,86.109 51.1261983,84.813 C51.3841983,83.517 51.2521983,82.173 50.7461983,80.952 C50.2401983,79.731 49.3841983,78.687 48.2851983,77.953 C47.1861983,77.219 45.8941983,76.827 44.5731983,76.827 C42.8001983,76.827 41.1011983,77.531 39.8481983,78.784 C38.5951983,80.037 37.8911983,81.737 37.8911983,83.509 Z" id="路径" fill="#FFFFFF" fill-rule="nonzero"></path>
                    </g>
                    <line x1="463.497474" y1="239.5" x2="124.497474" y2="239.5" id="路径" stroke="#FFFFFF" stroke-width="1" fill="none" stroke-linecap="round" stroke-dasharray="6"></line>
                    <rect id="矩形" stroke="none" fill="url(#linearGradient-4)" fill-rule="nonzero" x="351.997474" y="134" width="114" height="32" rx="16"></rect>
                    <path d="M382.117474,145.662 L382.117474,146.95 L393.919474,146.95 L393.919474,145.662 L388.781474,145.662 C388.585474,144.878 388.375474,144.164 388.179474,143.548 L386.639474,143.8 C386.877474,144.374 387.101474,144.99 387.311474,145.662 L382.117474,145.662 Z M381.641474,154.412 L381.641474,155.7 L394.395474,155.7 L394.395474,154.412 L390.055474,154.412 C390.853474,152.536 391.525474,150.38 392.085474,147.958 L390.671474,147.594 C390.055474,150.31 389.327474,152.592 388.515474,154.412 L381.641474,154.412 Z M385.365474,147.594 L383.965474,148.056 C384.609474,150.016 385.141474,152.046 385.561474,154.16 L386.989474,153.796 C386.513474,151.458 385.981474,149.386 385.365474,147.594 Z M397.531474,147.916 L400.471474,147.916 L400.471474,149.54 L397.531474,149.54 L397.531474,147.916 Z M400.471474,146.726 L397.531474,146.726 L397.531474,145.186 L400.471474,145.186 L400.471474,146.726 Z M396.117474,156.05 C397.937474,155.602 399.575474,155.084 401.003474,154.482 C401.227474,154.93 401.437474,155.35 401.633474,155.77 L402.669474,155.042 C402.207474,154.062 401.549474,152.9 400.681474,151.57 L399.673474,152.214 C399.911474,152.606 400.149474,152.984 400.387474,153.376 C399.547474,153.712 398.595474,154.034 397.531474,154.342 L397.531474,150.772 L401.703474,150.772 L401.703474,143.996 L396.229474,143.996 L396.229474,154.09 C396.229474,154.412 396.033474,154.636 395.655474,154.776 L396.117474,156.05 Z M406.477474,154.524 C407.457474,154.524 407.961474,154.02 407.961474,153.012 L407.961474,144.01 L403.159474,144.01 L403.159474,156.4 L404.489474,156.4 L404.489474,145.256 L406.631474,145.256 L406.631474,152.718 C406.631474,153.082 406.435474,153.278 406.043474,153.278 L405.007474,153.236 L405.357474,154.524 L406.477474,154.524 Z M415.535474,143.996 L415.535474,145.256 L418.265474,145.256 C418.209474,145.676 418.139474,146.082 418.055474,146.488 L416.053474,146.488 L416.053474,153.404 L417.355474,153.404 L417.355474,147.72 L420.645474,147.72 L420.645474,153.264 L421.933474,153.264 L421.933474,146.488 L419.357474,146.488 C419.441474,146.096 419.511474,145.676 419.567474,145.256 L422.255474,145.256 L422.255474,143.996 L415.535474,143.996 Z M420.155474,153.208 L419.259474,154.076 C420.239474,154.944 421.009474,155.756 421.555474,156.512 L422.507474,155.56 C421.863474,154.776 421.079474,153.992 420.155474,153.208 Z M418.349474,148.448 L418.349474,150.884 C418.307474,152.046 418.083474,152.984 417.691474,153.698 C417.271474,154.384 416.501474,154.944 415.381474,155.392 L416.081474,156.498 C417.285474,156.022 418.167474,155.378 418.699474,154.538 C419.245474,153.614 419.539474,152.396 419.595474,150.884 L419.595474,148.448 L418.349474,148.448 Z M412.203474,143.59 C411.349474,145.102 410.411474,146.432 409.403474,147.552 L410.159474,148.616 C411.195474,147.44 412.077474,146.18 412.833474,144.864 C413.421474,145.578 414.163474,146.628 415.031474,148 L415.913474,147.062 C415.045474,145.858 414.149474,144.696 413.197474,143.59 L412.203474,143.59 Z M410.215474,149.652 L410.215474,150.898 L413.939474,150.898 C413.463474,151.794 413.001474,152.564 412.525474,153.208 C412.133474,152.872 411.727474,152.536 411.307474,152.2 L410.425474,153.068 C411.881474,154.258 413.029474,155.364 413.841474,156.4 L414.793474,155.448 C414.373474,154.972 413.911474,154.482 413.407474,154.006 C414.135474,153.054 414.793474,151.976 415.367474,150.772 L415.367474,149.652 L410.215474,149.652 Z M412.777474,146.684 L411.825474,147.272 C412.385474,148.07 412.833474,148.798 413.169474,149.456 L414.121474,148.784 C413.813474,148.196 413.365474,147.496 412.777474,146.684 Z M430.711474,152.382 C430.333474,152.48 429.941474,152.578 429.535474,152.676 L429.535474,145.228 L430.389474,145.228 L430.389474,146.026 L430.949474,146.026 C431.131474,148.294 431.719474,150.394 432.699474,152.326 C431.985474,153.502 431.089474,154.524 429.997474,155.378 L430.907474,156.414 C431.887474,155.644 432.727474,154.72 433.455474,153.642 C434.057474,154.594 434.785474,155.518 435.653474,156.414 L436.549474,155.392 C435.611474,154.496 434.813474,153.502 434.169474,152.41 C435.079474,150.618 435.681474,148.476 435.989474,145.97 L435.989474,144.752 L430.501474,144.752 L430.501474,143.982 L423.753474,143.982 L423.753474,145.228 L424.761474,145.228 L424.761474,153.572 L423.585474,153.712 L423.907474,155.014 C425.405474,154.79 426.847474,154.538 428.247474,154.258 L428.247474,156.414 L429.535474,156.414 L429.535474,153.992 L430.711474,153.712 L430.711474,152.382 Z M432.167474,146.026 L434.743474,146.026 C434.505474,147.874 434.057474,149.526 433.413474,150.982 C432.741474,149.484 432.335474,147.832 432.167474,146.026 Z M428.247474,152.97 C427.533474,153.11 426.805474,153.25 426.063474,153.376 L426.063474,151.318 L428.247474,151.318 L428.247474,152.97 Z M426.063474,150.128 L426.063474,148.28 L428.247474,148.28 L428.247474,150.128 L426.063474,150.128 Z M426.063474,147.076 L426.063474,145.228 L428.247474,145.228 L428.247474,147.076 L426.063474,147.076 Z" id="形状" stroke="none" fill="#FFFFFF" fill-rule="nonzero"></path>
                </g>
            </g>
        </g>
    </g>
</svg>