<?xml version="1.0" encoding="UTF-8"?>
<svg width="17px" height="16px" viewBox="0 0 17 16" version="1.1" xmlns="http://www.w3.org/2000/svg" xmlns:xlink="http://www.w3.org/1999/xlink">
    <title>切换主体</title>
    <g id="切图" stroke="none" stroke-width="1" fill="none" fill-rule="evenodd">
        <g transform="translate(-2045.000000, -101.000000)" fill="#2390e9" fill-rule="nonzero" id="编组-15">
            <g transform="translate(350.000000, 77.000000)">
                <g id="编组-8" transform="translate(1695.000000, 24.000000)">
                    <path d="M16.3559898,12.6865288 C16.6292816,12.6860266 16.8577223,12.8942947 16.8824156,13.1664692 C16.9071088,13.4386436 16.7198801,13.6846236 16.4509601,13.7333131 L16.3559898,13.7417549 L10.2356839,13.7417549 L11.5863721,15.0945535 C11.7779324,15.2876513 11.7913063,15.59473 11.617259,15.8037507 C11.4432117,16.0127714 11.1387881,16.0552265 10.9141937,15.9018008 L10.8403279,15.8405977 L8.60325064,13.6024652 C8.5519234,13.5514451 8.51168776,13.4903732 8.48506541,13.4230769 C8.42048339,13.2753932 8.42725051,13.1062398 8.50342367,12.9641871 C8.57959684,12.8221345 8.71674911,12.7228977 8.87549873,12.6949716 L8.96941376,12.6865288 L16.3559898,12.6865288 L16.3559898,12.6865288 Z M8.89343755,0.663294417 C8.94341557,0.787775425 8.96920137,0.920643909 8.96941376,1.05478294 L8.96941376,3.16523325 C9.1035528,3.16544563 9.23642129,3.19123143 9.3609023,3.24120946 L15.1646406,5.56270477 C15.5652573,5.72275587 15.8281042,6.11054897 15.8283772,6.54195372 L15.8283772,6.88279143 L14.7731521,6.88279143 L14.7731521,6.54195372 L8.96941376,4.22045838 L8.96941376,6.88279143 L7.91418863,6.88279143 L7.91418863,1.05478294 L2.1104503,3.37627827 L2.1104503,13.2141423 L7.38657604,13.2141423 L7.38657604,14.2693675 L0.527612578,14.2693675 C0.236220198,14.2693675 -6.75015599e-14,14.0331473 -6.75015599e-14,13.7417549 C-6.75015599e-14,13.4503625 0.236220198,13.2141423 0.527612578,13.2141423 L1.05522514,13.2141423 L1.05522514,3.37627827 C1.0554982,2.94487353 1.31834504,2.55708043 1.71896178,2.39702933 L7.52270008,0.0755340173 C7.78255146,-0.0284532889 8.07307037,-0.0249469237 8.33033631,0.0852816365 C8.58760225,0.195510197 8.79053782,0.403430089 8.89449278,0.663294417 L8.89343755,0.663294417 Z M14.4122651,7.88420011 L14.4840204,7.94434794 L16.7232082,10.1835357 C16.7759694,10.236297 16.8150127,10.2975 16.8403381,10.362924 C16.9049202,10.5106077 16.8981531,10.6797611 16.8219799,10.8218138 C16.7458067,10.9638664 16.6086545,11.0631032 16.4499048,11.0910293 L16.3559898,11.099472 L8.96941376,11.099472 C8.69612196,11.0999743 8.46768123,10.8917061 8.44298798,10.6195317 C8.41829474,10.3473573 8.60552344,10.1013773 8.87444349,10.0526878 L8.96941376,10.044246 L15.0897196,10.044246 L13.7390314,8.69144735 C13.5474712,8.49834957 13.5340974,8.19127088 13.7081446,7.98225025 C13.8821919,7.77322961 14.1866155,7.7307744 14.4112098,7.88420011 L14.4122651,7.88420011 Z M6.59515717,8.99324175 C6.88654955,8.99324175 7.12276974,9.22946194 7.12276974,9.52085431 C7.12276974,9.81224669 6.88654955,10.0484669 6.59515717,10.0484669 L3.42948173,10.0484669 C3.13808935,10.0484669 2.90186916,9.81224669 2.90186916,9.52085431 C2.90186916,9.22946194 3.13808935,8.99324175 3.42948173,8.99324175 L6.59515717,8.99324175 Z M6.59515717,5.8275663 C6.88654955,5.8275663 7.12276974,6.06378649 7.12276974,6.35517887 C7.12276974,6.64657124 6.88654955,6.88279143 6.59515717,6.88279143 L3.42948173,6.88279143 C3.13808935,6.88279143 2.90186916,6.64657124 2.90186916,6.35517887 C2.90186916,6.06378649 3.13808935,5.8275663 3.42948173,5.8275663 L6.59515717,5.8275663 L6.59515717,5.8275663 Z" id="形状"></path>
                </g>
            </g>
        </g>
    </g>
</svg>