<?xml version="1.0" encoding="UTF-8"?>
<svg width="15px" height="15px" viewBox="0 0 15 15" version="1.1" xmlns="http://www.w3.org/2000/svg" xmlns:xlink="http://www.w3.org/1999/xlink">
    <title>操作_取消发布</title>
    <g id="切图" stroke="none" stroke-width="1" fill="none" fill-rule="evenodd">
        <g transform="translate(-357.000000, -235.000000)">
            <rect fill="#797979" x="0" y="0" width="2736" height="1620"></rect>
            <g id="编组-4" transform="translate(307.000000, 137.000000)">
                <rect id="矩形" fill="#FFFFFF" x="0" y="28" width="375" height="123"></rect>
                <g id="编组" transform="translate(50.000000, 98.000000)" fill="#1890FF" fill-rule="nonzero">
                    <g id="形状">
                        <path d="M7.65983376,6.555 L9.88531967,4.329375 C10.023701,4.17982997 10.2327977,4.11797188 10.4302605,4.16816255 C10.6277232,4.21835321 10.7819104,4.37255005 10.8320979,4.57002513 C10.8822855,4.7675002 10.8204313,4.97661 10.6708956,5.115 L8.44540966,7.3415625 L10.6708956,9.5671875 C10.8737352,9.78639084 10.867146,10.1267029 10.655973,10.337889 C10.4448001,10.5490752 10.1045093,10.5556648 9.88531967,10.3528125 L7.65889632,8.128125 L5.43341041,10.35375 C5.29502906,10.503295 5.08593233,10.5651531 4.8884696,10.5149625 C4.69100686,10.4647718 4.53681966,10.3105749 4.48663213,10.1130999 C4.4364446,9.9156248 4.49829882,9.706515 4.64783451,9.568125 L6.87238298,7.3415625 L4.64783451,5.115 C4.44499491,4.89579666 4.45158412,4.55548458 4.66275704,4.34429846 C4.87392996,4.13311235 5.21422077,4.12652272 5.43341041,4.329375 L7.65889632,6.555 L7.65983376,6.555 Z M1.11086807,9.3515625 C1.09862757,9.64946821 0.853572505,9.8846752 0.555434035,9.8846752 C0.257295566,9.8846752 0.0122404985,9.64946821 0,9.3515625 L0,1.9453125 C0.00093744141,0.87 0.871820511,0 1.94519093,0 L13.0557465,0 C14.1281795,0 15,0.8709375 15,1.944375 L15,13.055625 C15,13.5713053 14.7951596,14.0658647 14.4305413,14.4305057 C14.0659231,14.7951468 13.5713946,15 13.0557465,15 L5.64902194,15 C5.35113485,14.9877587 5.11594256,14.7426884 5.11594256,14.4445313 C5.11594256,14.1463741 5.35113485,13.9013038 5.64902194,13.8890625 L13.0548091,13.8890625 C13.5160302,13.8890625 13.8891319,13.5159375 13.8891319,13.0546875 L13.8891319,1.94625 C13.8893811,1.72488371 13.8015594,1.51251237 13.6450395,1.35598266 C13.4885196,1.19945296 13.2761615,1.11162585 13.0548091,1.111875 L1.94706581,1.111875 C1.72571335,1.11162585 1.51335529,1.19945296 1.35683536,1.35598266 C1.20031544,1.51251237 1.11249382,1.72488371 1.11274295,1.94625 L1.11274295,9.3525 L1.11086807,9.3515625 Z"></path>
                    </g>
                </g>
                <g id="操作/取消发布" transform="translate(50.000000, 98.000000)" fill="#1890FF" fill-rule="nonzero">
                    <g id="编组">
                        <path d="M7.65983376,6.555 L9.88531967,4.329375 C10.023701,4.17982997 10.2327977,4.11797188 10.4302605,4.16816255 C10.6277232,4.21835321 10.7819104,4.37255005 10.8320979,4.57002513 C10.8822855,4.7675002 10.8204313,4.97661 10.6708956,5.115 L8.44540966,7.3415625 L10.6708956,9.5671875 C10.8737352,9.78639084 10.867146,10.1267029 10.655973,10.337889 C10.4448001,10.5490752 10.1045093,10.5556648 9.88531967,10.3528125 L7.65889632,8.128125 L5.43341041,10.35375 C5.29502906,10.503295 5.08593233,10.5651531 4.8884696,10.5149625 C4.69100686,10.4647718 4.53681966,10.3105749 4.48663213,10.1130999 C4.4364446,9.9156248 4.49829882,9.706515 4.64783451,9.568125 L6.87238298,7.3415625 L4.64783451,5.115 C4.44499491,4.89579666 4.45158412,4.55548458 4.66275704,4.34429846 C4.87392996,4.13311235 5.21422077,4.12652272 5.43341041,4.329375 L7.65889632,6.555 L7.65983376,6.555 Z M1.11086807,9.3515625 C1.09862757,9.64946821 0.853572505,9.8846752 0.555434035,9.8846752 C0.257295566,9.8846752 0.0122404985,9.64946821 0,9.3515625 L0,1.9453125 C0.00093744141,0.87 0.871820511,0 1.94519093,0 L13.0557465,0 C14.1281795,0 15,0.8709375 15,1.944375 L15,13.055625 C15,13.5713053 14.7951596,14.0658647 14.4305413,14.4305057 C14.0659231,14.7951468 13.5713946,15 13.0557465,15 L5.64902194,15 C5.35113485,14.9877587 5.11594256,14.7426884 5.11594256,14.4445313 C5.11594256,14.1463741 5.35113485,13.9013038 5.64902194,13.8890625 L13.0548091,13.8890625 C13.5160302,13.8890625 13.8891319,13.5159375 13.8891319,13.0546875 L13.8891319,1.94625 C13.8893811,1.72488371 13.8015594,1.51251237 13.6450395,1.35598266 C13.4885196,1.19945296 13.2761615,1.11162585 13.0548091,1.111875 L1.94706581,1.111875 C1.72571335,1.11162585 1.51335529,1.19945296 1.35683536,1.35598266 C1.20031544,1.51251237 1.11249382,1.72488371 1.11274295,1.94625 L1.11274295,9.3525 L1.11086807,9.3515625 Z" id="形状"></path>
                    </g>
                </g>
            </g>
        </g>
    </g>
</svg>