<?xml version="1.0" encoding="UTF-8"?>
<svg width="17px" height="15px" viewBox="0 0 17 15" version="1.1" xmlns="http://www.w3.org/2000/svg" xmlns:xlink="http://www.w3.org/1999/xlink">
    <title>操作_转出</title>
    <g id="切图" stroke="none" stroke-width="1" fill="none" fill-rule="evenodd">
        <g transform="translate(-542.000000, -257.000000)" id="编组-4">
            <g transform="translate(307.000000, 137.000000)">
                <g id="编组" transform="translate(235.000000, 120.000000)">
                    <path d="M15.8550505,0.00170609151 L3.56906271,0.00170609151 C3.2772467,-0.0103224499 2.99118846,0.081908561 2.76655245,0.260451771 C2.55769331,0.424604894 2.43642146,0.669399159 2.43587639,0.927940632 L2.43587639,2.89540778 C2.43587639,3.17154554 2.6699455,3.39539943 2.95868438,3.39539943 C3.24742326,3.39539943 3.48149237,3.17154554 3.48149237,2.89540778 L3.5755978,0.875441503 L15.9609191,0.927940632 L15.8668137,14.1252203 L3.48149237,14.0727212 L3.48149237,12.105254 C3.48149237,11.8291163 3.24742326,11.6052624 2.95868438,11.6052624 C2.6699455,11.6052624 2.43587639,11.8291163 2.43587639,12.105254 L2.43587639,14.0727212 C2.46539922,14.6009773 2.9284898,15.0111953 3.48149237,14.9989557 L15.8668137,14.9989557 C16.1586297,15.0109843 16.4446879,14.9187532 16.6693239,14.74021 C16.8781831,14.5760569 16.9994549,14.3312626 17,14.0727212 L17,0.925440666 C16.9994549,0.666899198 16.8781831,0.422104939 16.6693239,0.257951819 C16.4412622,0.0776281553 16.1505145,-0.0138679467 15.8550505,0.00170609151 Z" id="路径" fill="#1890FF" fill-rule="nonzero"></path>
                    <g id="编组-2" transform="translate(1.000000, 5.000000)" stroke="#1890FF" stroke-linecap="round">
                        <path d="M4.02656042,0.775768618 L6.80816923,0.803466487 C7.32024927,0.808565524 7.73950575,1.227822 7.74460479,1.73990205 L7.77230265,4.52151085" id="路径" stroke-linejoin="round" transform="translate(5.899432, 2.648640) rotate(-315.000000) translate(-5.899432, -2.648640) "></path>
                        <line x1="7.99358194" y1="2.64863974" x2="0" y2="2.63031302" id="路径-7"></line>
                    </g>
                </g>
            </g>
        </g>
    </g>
</svg>