<?xml version="1.0" encoding="UTF-8"?>
<svg width="15px" height="15px" viewBox="0 0 15 15" version="1.1" xmlns="http://www.w3.org/2000/svg" xmlns:xlink="http://www.w3.org/1999/xlink">
    <title>操作_编辑</title>
    <g id="切图" stroke="none" stroke-width="1" fill="none" fill-rule="evenodd">
        <g transform="translate(-385.000000, -206.000000)" id="编组-4">
            <g transform="translate(307.000000, 137.000000)">
                <g id="编组" transform="translate(78.000000, 69.000000)">
                    <path d="M14.2350776,3.02224 L13.642983,3.65042226 C13.6035896,3.69220313 13.5450963,3.70111026 13.5124063,3.6702567 L12.0644007,2.09819409 C12.0317106,2.06734052 12.0371283,2.00838817 12.0765217,1.9666073 L12.6306003,1.36698296 C12.9853245,0.990679652 13.5000097,0.929339826 13.8056988,1.18810574 L14.3563798,1.70729043 C14.703207,2.04135374 14.6291033,2.60424765 14.2350776,3.02224" id="Fill-1" fill="#1890FF"></path>
                    <polygon id="Fill-3" fill="#1890FF" points="8.5740544 8.94573885 7.03367179 7.25219033 11.6859487 2.31672181 13.2815187 3.95177711"></polygon>
                    <path d="M5.48384946,10.6040813 L6.35114685,8.40576473 C6.35114685,8.40576473 6.46317468,8.15884438 6.63250198,7.72753725 L6.65637677,7.67234977 L8.2535079,9.35671569 L8.19483103,9.38610003 C8.19483103,9.38610003 7.98482477,9.50023986 7.56068007,9.66727151 L5.48384946,10.6040813 Z" id="Fill-5" fill="#1890FF"></path>
                    <path d="M14.5691133,5.63121197 L14.5691133,12.2128467 C14.5691133,13.5513956 13.4739036,14.6466054 12.1353547,14.6466054 L3.43373106,14.6466054 C2.09518219,14.6466054 0.999972452,13.5513956 0.999972452,12.2128467 L0.999972452,3.51131492 C0.999972452,2.17267423 2.09518219,1.07755631 3.43373106,1.07755631 L10.1576045,1.07755631" id="Stroke-7" stroke="#1890FF" stroke-width="0.96"></path>
                </g>
            </g>
        </g>
    </g>
</svg>