<?xml version="1.0" encoding="UTF-8"?>
<svg width="16px" height="13px" viewBox="0 0 16 13" version="1.1" xmlns="http://www.w3.org/2000/svg" xmlns:xlink="http://www.w3.org/1999/xlink">
    <title>上传_小</title>
    <g id="切图" stroke="none" stroke-width="1" fill="none" fill-rule="evenodd">
        <g transform="translate(-1964.000000, -451.000000)" fill="#1890FF" fill-rule="nonzero" id="编组-6">
            <g transform="translate(1859.000000, 442.000000)">
                <g id="编组-3" transform="translate(42.000000, 0.000000)">
                    <g id="编组-2" transform="translate(63.000000, 7.000000)">
                        <g id="编组" transform="translate(0.000000, 2.000000)">
                            <path d="M13.0693058,12.2416147 L1.10569423,12.2416147 C0.495982839,12.2416147 0,11.7456318 0,11.1359204 L0,1.10569423 C0,0.495982839 0.495982839,0 1.10569423,0 L6.29613885,0 C6.90585023,0 7.40183307,0.495982839 7.40183307,1.10569423 C7.40183307,1.27944618 7.25967239,1.42160686 7.08592044,1.42160686 C6.91216849,1.42160686 6.7700078,1.27944618 6.7700078,1.10569423 C6.7700078,0.843486739 6.55834633,0.631825273 6.29613885,0.631825273 L1.10569423,0.631825273 C0.843486739,0.631825273 0.631825273,0.843486739 0.631825273,1.10569423 L0.631825273,11.1359204 C0.631825273,11.3981279 0.843486739,11.6097894 1.10569423,11.6097894 L13.0693058,11.6097894 C13.2430577,11.6097894 13.3852184,11.7519501 13.3852184,11.925702 C13.3852184,12.099454 13.2462168,12.2416147 13.0693058,12.2416147 Z" id="路径"></path>
                            <path d="M13.0693058,12.2416147 C12.8955538,12.2416147 12.7533931,12.099454 12.7533931,11.925702 C12.7533931,11.7519501 12.8955538,11.6097894 13.0693058,11.6097894 C13.3315133,11.6097894 13.5431747,11.3981279 13.5431747,11.1359204 L13.5431747,4.6375975 C13.5431747,4.37539002 13.3315133,4.16372855 13.0693058,4.16372855 L3.72460998,4.16372855 C3.4624025,4.16372855 3.25074103,4.37539002 3.25074103,4.6375975 L3.25074103,8.88030421 C3.25074103,9.05405616 3.10858034,9.19621685 2.93482839,9.19621685 C2.76107644,9.19621685 2.61891576,9.05405616 2.61891576,8.88030421 L2.61891576,4.6375975 C2.61891576,4.02788612 3.1148986,3.53190328 3.72460998,3.53190328 L13.0693058,3.53190328 C13.6790172,3.53190328 14.175,4.02788612 14.175,4.6375975 L14.175,11.1359204 C14.175,11.7456318 13.6790172,12.2416147 13.0693058,12.2416147 L13.0693058,12.2416147 Z M10.6968019,2.53361934 L7.88202028,2.53361934 C7.27230889,2.53361934 6.77632605,2.03763651 6.77632605,1.42792512 L6.77632605,1.26365055 C6.77632605,1.0898986 6.91848674,0.94773791 7.09223869,0.94773791 C7.26599064,0.94773791 7.40815133,1.0898986 7.40815133,1.26365055 L7.40815133,1.42792512 C7.40815133,1.69013261 7.61981279,1.90179407 7.88202028,1.90179407 L10.6968019,1.90179407 C10.8705538,1.90179407 11.0127145,2.04395476 11.0127145,2.21770671 C11.0127145,2.39145866 10.8705538,2.53361934 10.6968019,2.53361934 Z" id="形状"></path>
                            <path d="M2.14820593,12.2416147 L1.89863495,12.2416147 C1.724883,12.2416147 1.58272231,12.099454 1.58272231,11.925702 C1.58272231,11.7519501 1.724883,11.6097894 1.89863495,11.6097894 L2.14820593,11.6097894 C2.41041342,11.6097894 2.62207488,11.3981279 2.62207488,11.1359204 L2.62207488,8.47277691 C2.62207488,8.29902496 2.76423557,8.15686427 2.93798752,8.15686427 C3.11173947,8.15686427 3.25390016,8.29902496 3.25390016,8.47277691 L3.25390016,11.1359204 C3.25074103,11.7456318 2.75791732,12.2416147 2.14820593,12.2416147 Z M12.0236349,4.16688768 C11.849883,4.16688768 11.7077223,4.02472699 11.7077223,3.85097504 L11.7077223,3.01064743 C11.7077223,2.74843994 11.4960608,2.53677847 11.2338534,2.53677847 L9.80592824,2.53677847 C9.63217629,2.53677847 9.4900156,2.39461778 9.4900156,2.22086583 C9.4900156,2.04711388 9.63217629,1.9049532 9.80592824,1.9049532 L11.2338534,1.9049532 C11.8435647,1.9049532 12.3395476,2.40093604 12.3395476,3.01064743 L12.3395476,3.85097504 C12.3395476,4.02472699 12.1973869,4.16688768 12.0236349,4.16688768 Z" id="形状"></path>
                            <path d="M8.55175507,9.95124805 C8.37800312,9.95124805 8.23584243,9.80908736 8.23584243,9.63533541 L8.23584243,6.28350234 C8.23584243,6.10975039 8.37800312,5.9675897 8.55175507,5.9675897 C8.72550702,5.9675897 8.86766771,6.10975039 8.86766771,6.28350234 L8.86766771,9.63533541 C8.86766771,9.80908736 8.72550702,9.95124805 8.55175507,9.95124805 L8.55175507,9.95124805 Z" id="路径"></path>
                            <path d="M9.90386115,7.95152106 C9.82172387,7.95152106 9.74274571,7.9199298 9.67956318,7.8599064 L8.3274571,6.50780031 C8.20425117,6.38459438 8.20425117,6.18556942 8.3274571,6.06236349 C8.45066303,5.93915757 8.64968799,5.93915757 8.77289392,6.06236349 L10.1281591,7.41446958 C10.2513651,7.53767551 10.2513651,7.73670047 10.1281591,7.8599064 C10.0649766,7.92308892 9.98599844,7.95152106 9.90386115,7.95152106 Z" id="路径"></path>
                            <path d="M7.19648986,7.95152106 C7.11435257,7.95152106 7.03537441,7.9199298 6.97219189,7.8599064 C6.84898596,7.73670047 6.84898596,7.53767551 6.97219189,7.41446958 L8.3274571,6.05920437 C8.45066303,5.93599844 8.64968799,5.93599844 8.77289392,6.05920437 C8.89609984,6.1824103 8.89609984,6.38143526 8.77289392,6.50464119 L7.41762871,7.8599064 C7.3576053,7.92308892 7.27862715,7.95152106 7.19648986,7.95152106 L7.19648986,7.95152106 Z" id="路径"></path>
                        </g>
                    </g>
                </g>
            </g>
        </g>
    </g>
</svg>