<?xml version="1.0" encoding="UTF-8"?>
<svg width="15px" height="14px" viewBox="0 0 15 14" version="1.1" xmlns="http://www.w3.org/2000/svg" xmlns:xlink="http://www.w3.org/1999/xlink">
    <title> 全屏</title>
    <g id="切图" stroke="none" stroke-width="1" fill="none" fill-rule="evenodd">
        <g transform="translate(-2226.000000, -102.000000)" fill="#2390e9" fill-rule="nonzero" id="编组-15">
            <g transform="translate(350.000000, 77.000000)">
                <g id="编组" transform="translate(1876.000000, 25.000000)">
                    <path d="M4.84110345,2.17241379 L2.65517241,2.17241379 C2.38855219,2.17241379 2.17241379,2.38855219 2.17241379,2.65517241 L2.17241379,4.73537931 C2.17241379,5.00199953 2.38855219,5.21813793 2.65517241,5.21813793 C2.92179264,5.21813793 3.13793103,5.00199953 3.13793103,4.73537931 L3.13793103,3.13793103 L4.84110345,3.13793103 C5.10772367,3.13793103 5.32386207,2.92179264 5.32386207,2.65517241 C5.32386207,2.38855219 5.10772367,2.17241379 4.84110345,2.17241379 Z M11.1164828,2.17241379 L8.93103448,2.17241379 C8.66441426,2.17241379 8.44827586,2.38855219 8.44827586,2.65517241 C8.44827586,2.92179264 8.66441426,3.13793103 8.93103448,3.13793103 L10.6337241,3.13793103 L10.6337241,4.73537931 C10.6337241,5.00199953 10.8498625,5.21813793 11.1164828,5.21813793 C11.383103,5.21813793 11.5992414,5.00199953 11.5992414,4.73537931 L11.5992414,2.65517241 C11.5992414,2.38855219 11.383103,2.17241379 11.1164828,2.17241379 Z M4.84110345,11.0117241 L3.13793103,11.0117241 L3.13793103,9.4137931 C3.13793103,9.14717288 2.92179264,8.93103448 2.65517241,8.93103448 C2.38855219,8.93103448 2.17241379,9.14717288 2.17241379,9.4137931 L2.17241379,11.4944828 C2.17241379,11.761103 2.38855219,11.9772414 2.65517241,11.9772414 L4.84110345,11.9772414 C5.10772367,11.9772414 5.32386207,11.761103 5.32386207,11.4944828 C5.32386207,11.2278625 5.10772367,11.0117241 4.84110345,11.0117241 L4.84110345,11.0117241 Z M11.1164828,8.93103448 C10.8498625,8.93103448 10.6337241,9.14717288 10.6337241,9.4137931 L10.6337241,11.0117241 L8.93103448,11.0117241 C8.66441426,11.0117241 8.44827586,11.2278625 8.44827586,11.4944828 C8.44827586,11.761103 8.66441426,11.9772414 8.93103448,11.9772414 L11.1164828,11.9772414 C11.383103,11.9772414 11.5992414,11.761103 11.5992414,11.4944828 L11.5992414,9.4137931 C11.5992414,9.14717288 11.383103,8.93103448 11.1164828,8.93103448 Z" id="形状"></path>
                    <path d="M13.0344828,0 L0.965517241,0 C0.433034483,0 0,0.433034483 0,0.965517241 L0,13.0344828 C0,13.5669655 0.433034483,14 0.965517241,14 L13.0344828,14 C13.5669655,14 14,13.5669655 14,13.0344828 L14,0.965517241 C14,0.433034483 13.5669655,0 13.0344828,0 Z M0.965517241,13.0344828 L0.965517241,0.965517241 L13.0344828,0.965517241 L13.0354483,13.0344828 L0.965517241,13.0344828 Z" id="形状"></path>
                </g>
            </g>
        </g>
    </g>
</svg>