<?xml version="1.0" encoding="UTF-8"?>
<svg width="16px" height="16px" viewBox="0 0 16 16" version="1.1" xmlns="http://www.w3.org/2000/svg" xmlns:xlink="http://www.w3.org/1999/xlink">
    <title>编组</title>
    <defs>
        <polygon id="path-1" points="0 0.01583 13.76568 0.01583 13.76568 15.36983 0 15.36983"></polygon>
    </defs>
    <g id="切图" stroke="none" stroke-width="1" fill="none" fill-rule="evenodd">
        <g transform="translate(-573.000000, -256.000000)" id="编组-4">
            <g transform="translate(307.000000, 137.000000)">
                <g id="编组" transform="translate(266.000000, 119.000000)">
                    <g transform="translate(0.000000, 0.084200)">
                        <mask id="mask-2" fill="white">
                            <use xlink:href="#path-1"></use>
                        </mask>
                        <g id="Clip-2"></g>
                        <path d="M6.32698,15.36983 L1.41008,15.36983 C0.63148,15.36983 -2e-05,14.73843 -2e-05,13.95963 L-2e-05,1.45163 C-2e-05,0.65833 0.64248,0.01583 1.43578,0.01583 L12.32808,0.01583 C13.18768,0.01583 13.76568,0.61773 13.76568,1.51613 L13.76568,5.07193 C13.76568,5.39413 13.50428,5.65553 13.18398,5.65553 C12.86198,5.65553 12.60048,5.39413 12.60048,5.07193 L12.60048,1.51423 C12.60048,1.18103 12.47528,1.18103 12.32988,1.18103 L1.43578,1.18103 C1.29038,1.18103 1.16698,1.30443 1.16698,1.45163 L1.16698,13.95793 C1.16698,14.09233 1.27758,14.20273 1.41198,14.20273 L6.31598,14.20273 C6.63438,14.20273 6.90138,14.45113 6.91048,14.76973 C6.91788,15.09913 6.65458,15.36983 6.32698,15.36983" id="Fill-1" fill="#1890FF" mask="url(#mask-2)"></path>
                    </g>
                    <path d="M10.34084,4.54554 L3.26204,4.54554 C2.93984,4.54554 2.67834,4.28424 2.67834,3.96204 C2.67834,3.63984 2.93984,3.37854 3.26204,3.37854 L10.34084,3.37854 C10.66294,3.37854 10.92434,3.63984 10.92434,3.96204 C10.92434,4.28424 10.66294,4.54554 10.34084,4.54554" id="Fill-3" fill="#1890FF"></path>
                    <path d="M8.34084,7.15403 L3.26204,7.15403 C2.93984,7.15403 2.67834,6.89263 2.67834,6.57053 C2.67834,6.24833 2.93984,5.98693 3.26204,5.98693 L8.34084,5.98693 C8.66294,5.98693 8.92434,6.24833 8.92434,6.57053 C8.92434,6.89263 8.66294,7.15403 8.34084,7.15403" id="Fill-5" fill="#1890FF"></path>
                    <path d="M5.48196,9.76253 L3.26206,9.76253 C2.93986,9.76253 2.67836,9.50113 2.67836,9.17893 C2.67836,8.85673 2.93986,8.59543 3.26206,8.59543 L5.48196,8.59543 C5.80416,8.59543 6.06556,8.85673 6.06556,9.17893 C6.06556,9.50283 5.80416,9.76253 5.48196,9.76253" id="Fill-7" fill="#1890FF"></path>
                    <path d="M13.22824,8.40814 C13.38684,9.34774 12.75384,10.23804 11.81424,10.39674 C10.87474,10.55544 9.98444,9.92234 9.82574,8.98274 C9.66704,8.04324 10.30004,7.15284 11.23964,6.99414 C12.17924,6.83544 13.06954,7.46854 13.22824,8.40814 Z" id="Stroke-9" stroke="#1890FF" stroke-width="0.8"></path>
                    <polygon id="Fill-11" fill="#1890FF" points="9.48391 12.79085 8.73991 12.62355 10.13421 9.90855 10.87821 10.07585"></polygon>
                    <polygon id="Fill-13" fill="#1890FF" points="14.44475 12.62357 13.71115 12.80307 12.22385 10.08987 12.95745 9.91027"></polygon>
                    <path d="M14.65383,15.08421 L8.52043,15.08421 C8.23693,15.08421 8.00513,14.85231 8.00513,14.56891 L8.00513,13.13881 C8.00513,12.85541 8.23693,12.62361 8.52043,12.62361 L14.65383,12.62361 C14.93723,12.62361 15.16913,12.85541 15.16913,13.13881 L15.16913,14.56891 C15.16913,14.85231 14.93723,15.08421 14.65383,15.08421 Z" id="Stroke-15" stroke="#1890FF" stroke-width="0.8"></path>
                </g>
            </g>
        </g>
    </g>
</svg>