<?xml version="1.0" encoding="UTF-8"?>
<svg width="14px" height="14px" viewBox="0 0 14 14" version="1.1" xmlns="http://www.w3.org/2000/svg" xmlns:xlink="http://www.w3.org/1999/xlink">
    <title>操作_下架</title>
    <defs>
        <polygon id="path-1" points="0.001955 0.011441 13.6772905 0.011441 13.6772905 13.6399372 0.001955 13.6399372"></polygon>
    </defs>
    <g id="切图" stroke="none" stroke-width="1" fill="none" fill-rule="evenodd">
        <g transform="translate(-483.000000, -258.000000)" id="编组-4">
            <g transform="translate(307.000000, 137.000000)">
                <g id="编组" transform="translate(176.000000, 121.000000)">
                    <mask id="mask-2" fill="white">
                        <use xlink:href="#path-1"></use>
                    </mask>
                    <g id="Clip-2"></g>
                    <path d="M13.1887955,0.988431 C13.4818755,0.988431 13.6772905,0.793016 13.6772905,0.499936 C13.6772905,0.206856 13.4818755,0.011441 13.1887955,0.011441 L0.4885205,0.011441 C0.1954405,0.011441 2.55e-05,0.206856 2.55e-05,0.499936 C2.55e-05,0.793016 0.1954405,0.988431 0.4885205,0.988431 L13.1887955,0.988431 Z M13.1887955,3.919231 L6.3502055,3.919231 C6.0571255,3.919231 5.8617105,4.114646 5.8617105,4.407726 C5.8617105,4.700806 6.0571255,4.896221 6.3502055,4.896221 L13.1887955,4.896221 C13.4818755,4.896221 13.6772905,4.700806 13.6772905,4.407726 C13.6772905,4.114646 13.4818755,3.919231 13.1887955,3.919231 L13.1887955,3.919231 Z M13.1887955,7.827021 L7.3271105,7.827021 C7.0341155,7.827021 6.8387005,8.022436 6.8387005,8.315516 C6.8387005,8.608596 7.0341155,8.804011 7.3271105,8.804011 L13.1887955,8.804011 C13.4818755,8.804011 13.6772905,8.608596 13.6772905,8.315516 C13.6772905,8.022436 13.4818755,7.827021 13.1887955,7.827021 L13.1887955,7.827021 Z M13.1887955,11.734896 L8.3040155,11.734896 C8.0109355,11.734896 7.8155205,11.930311 7.8155205,12.223306 C7.8155205,12.516471 8.0109355,12.711801 8.3040155,12.711801 L13.1887955,12.711801 C13.4818755,12.711801 13.6772905,12.516471 13.6772905,12.223306 C13.6772905,11.930311 13.4818755,11.734896 13.1887955,11.734896 L13.1887955,11.734896 Z M5.9593755,10.073996 L4.0054805,12.027891 L4.0054805,3.626236 C4.0054805,3.333071 3.8101505,3.137741 3.5170705,3.137741 C3.2239905,3.137741 3.0285755,3.333071 3.0285755,3.626236 L3.0285755,12.027891 L1.0745955,10.073996 C0.8792655,9.878666 0.5861005,9.878666 0.3908555,10.073996 C0.1954405,10.269411 0.1954405,10.562491 0.3908555,10.757906 L3.1262405,13.493376 C3.3216555,13.688791 3.6147355,13.688791 3.8101505,13.493376 L6.6432855,10.757906 C6.8387005,10.562491 6.8387005,10.269411 6.6432855,10.073996 C6.4478705,9.878666 6.1547905,9.878666 5.9593755,10.073996 L5.9593755,10.073996 Z" id="Fill-1" fill="#1890FF" mask="url(#mask-2)"></path>
                </g>
            </g>
        </g>
    </g>
</svg>