<svg width="17" height="17" viewBox="0 0 17 17" fill="none" xmlns="http://www.w3.org/2000/svg">
<g id="&#230;&#147;&#141;&#228;&#189;&#156;/&#233;&#162;&#132;&#232;&#173;&#166;&#233;&#133;&#141;&#231;&#189;&#174;">
<path id="Rectangle 73" d="M13.9688 6.11618L8.15109 1.51273C7.78587 1.22373 7.2695 1.22512 6.90584 1.51608L1.15625 6.11618" stroke="#1890FF" stroke-linecap="round"/>
<path id="Rectangle 74" d="M6.29276 13.2985H3.42773C2.87545 13.2985 2.42773 12.8508 2.42773 12.2985V5.30679" stroke="#1890FF" stroke-linecap="round"/>
<path id="Vector 1" d="M2.42773 15.8752H6.29276" stroke="#1890FF" stroke-linecap="round"/>
<path id="Vector 2" d="M12.6367 6.24448L12.6367 5.30682" stroke="#1890FF" stroke-linecap="round"/>
<path id="Polygon 1" d="M13.907 8.74265L15.7538 11.9414C15.8431 12.0961 15.8431 12.2867 15.7538 12.4414L13.907 15.6402C13.8177 15.7949 13.6526 15.8902 13.474 15.8902L9.78034 15.8902C9.6017 15.8902 9.43664 15.7949 9.34732 15.6402L7.50051 12.4414C7.41119 12.2867 7.41119 12.0961 7.50051 11.9414L9.34732 8.74265C9.43664 8.58795 9.6017 8.49265 9.78034 8.49265L13.474 8.49265C13.6526 8.49265 13.8177 8.58795 13.907 8.74265Z" stroke="#1890FF"/>
<circle id="Ellipse 2" cx="11.6271" cy="12.1913" r="1.47278" stroke="#1890FF"/>
</g>
</svg>
