<?xml version="1.0" encoding="UTF-8"?>
<svg width="15px" height="15px" viewBox="0 0 15 15" version="1.1" xmlns="http://www.w3.org/2000/svg" xmlns:xlink="http://www.w3.org/1999/xlink">
    <title>操作/税号信息</title>
    <g id="切图" stroke="none" stroke-width="1" fill="none" fill-rule="evenodd">
        <g transform="translate(-335.000000, -205.000000)" id="编组-4">
            <g transform="translate(307.000000, 137.000000)">
                <g id="编组-4" transform="translate(28.000000, 68.000000)">
                    <path d="M9.63494039,0.5 L11.4857122,2.32412043 L13.3571429,4.19925975 L13.3571429,14 L2,14.5 L1.5,1 L9.63494039,0.5 Z" id="矩形" stroke="#1890FF"></path>
                    <g id="编组" transform="translate(3.142857, 2.142857)" fill-rule="nonzero">
                        <path d="M1.09477389,1.00310146 L1.32946969,1.00310146 C1.45245457,1.01423423 1.51951339,1.09282919 1.53078734,1.23793843 C1.51951339,1.37205608 1.44682767,1.44488297 1.31271003,1.45601574 L1.09463272,1.45601574 L1.09463272,1.57337373 C1.12829322,1.618167 1.17859238,1.67971994 1.2456512,1.75779053 C1.51402767,2.09334684 1.63687137,2.28901742 1.61446465,2.34482247 C1.61446465,2.50160902 1.54163776,2.57951826 1.39638734,2.57951826 C1.32932851,2.57951826 1.25650162,2.52936028 1.17831003,2.42864095 C1.14464952,2.38398885 1.11675709,2.35030818 1.09435036,2.3280628 L1.09435036,3.80402247 C1.08307641,3.92714852 1.01053188,3.99406616 0.876273052,4.00534011 C0.730881456,3.99420734 0.652568851,3.92700734 0.641577254,3.80402247 L0.641577254,2.41186112 C0.496185657,2.76994515 0.350673052,2.93183423 0.205422632,2.89843591 C-0.0292731661,2.85378381 -0.0629538383,2.69711826 0.104844481,2.42876196 C0.104844481,2.41762919 0.110350363,2.40635524 0.121745321,2.39510146 C0.300394061,2.16040566 0.457180615,1.84723591 0.591278094,1.45575356 L0.238962128,1.45575356 C0.127251204,1.44476196 0.0711839768,1.36630818 0.0711839768,1.22105776 C0.0823167499,1.08694011 0.143869691,1.0142544 0.255721792,1.00298045 L0.641436078,1.00298045 L0.641436078,0.617266163 C0.551708347,0.617266163 0.462525153,0.622893054 0.373059607,0.634025827 C0.216273052,0.634025827 0.132313389,0.561461121 0.121462968,0.415948516 C0.121462968,0.270698096 0.199654565,0.192385491 0.356158767,0.181252717 C0.769765489,0.158845995 1.08293524,0.125326667 1.29550667,0.0806745662 C1.45201087,0.0582678435 1.5471033,0.108567003 1.5806428,0.231693054 C1.60304952,0.376943474 1.54135541,0.472298096 1.39622599,0.516829188 C1.29564784,0.550489692 1.19490835,0.567128348 1.09418902,0.567128348 L1.09418902,1.00314179 L1.09477389,1.00314179 L1.09477389,1.00310146 Z" id="路径" fill="#1890FF"></path>
                        <path d="M2.15145961,0.852224146 C2.10680751,0.852224146 2.05624616,0.779538432 2.00044112,0.634025827 C2.00044112,0.6451586 1.99467305,0.634025827 1.98368146,0.600365323 C1.95002095,0.533306499 1.90522767,0.455114902 1.84942263,0.365669524 C1.80462935,0.276203978 1.78236381,0.214651037 1.78236381,0.181252717 C1.78236381,0.114052717 1.81602431,0.0638947343 1.88282095,0.0302342301 C1.97240751,-0.00342627411 2.05074028,-0.00893215646 2.11765793,0.0134745662 C2.20712347,0.0581266671 2.30207473,0.170119944 2.40279406,0.34890986 C2.54804448,0.617286331 2.55943944,0.785064482 2.43645457,0.851982129 L2.989947,0.851982129 C2.93402095,0.829575407 2.92288818,0.768022465 2.9562865,0.667565323 C2.96741927,0.656432549 2.98405793,0.633904818 3.00658566,0.600365323 C3.07378566,0.49990818 3.17450499,0.337756919 3.30862263,0.113931709 C3.37568146,0.00234179312 3.47654196,-0.0258128287 3.61065961,0.0299720452 C3.71123776,0.0971720452 3.73915036,0.192123306 3.69461927,0.315229188 C3.59404112,0.561198936 3.48204784,0.740372045 3.35906297,0.851961961 L3.45964112,0.851961961 C3.66095877,0.851961961 3.76167809,0.952540112 3.76167809,1.15399894 L3.76167809,2.026167 C3.77281087,2.2608628 3.67195036,2.37299726 3.45964112,2.3616023 L3.20816549,2.3616023 L3.20816549,3.3346107 C3.21915709,3.40166952 3.24733188,3.4410981 3.29198398,3.45196868 L3.39256213,3.45196868 C3.48200751,3.47449641 3.53230667,3.3009502 3.54358062,2.93213675 C3.55471339,2.8090107 3.63304616,2.74759894 3.77827641,2.74759894 C3.90140246,2.77012667 3.96269322,2.8425502 3.96269322,2.96567625 C3.95170162,3.33463087 3.90676717,3.58636868 3.82857557,3.72048633 C3.7502428,3.85474515 3.61049826,3.92180398 3.40920078,3.92180398 L3.17450499,3.92180398 C2.90612851,3.9106712 2.76612179,3.78191826 2.7551302,3.53608969 L2.7551302,2.36202583 L2.55381255,2.36202583 C2.56494532,3.14472835 2.27968818,3.67032835 1.69842431,3.93870482 C1.53064616,4.02802919 1.39638734,4.01126952 1.29595036,3.88840566 C1.22875036,3.74301406 1.27328146,3.62553507 1.43006801,3.53608969 C1.88848818,3.35731994 2.1120512,2.96569641 2.10105961,2.36202583 L1.96680078,2.36202583 C1.76548314,2.36202583 1.66476381,2.26144768 1.66476381,2.05998885 L1.66476381,1.15430146 C1.66490499,0.952721625 1.77661591,0.852264482 2.00046129,0.852264482 L2.15145961,0.852264482 L2.15145961,0.852224146 Z" id="路径" fill="#1890FF"></path>
                        <path d="M3.29200414,1.37205608 C3.29200414,1.3162712 3.26411171,1.28809641 3.20818566,1.28809641 L2.2185386,1.28809641 C2.16261255,1.28809641 2.13457893,1.31613003 2.13457893,1.37205608 L2.13457893,1.84173003 C2.13457893,1.89765608 2.16235036,1.92568969 2.2185386,1.92568969 L3.20818566,1.92568969 C3.27524448,1.92568969 3.30287473,1.90328297 3.29200414,1.85848969 L3.29200414,1.37205608 Z" id="路径" fill="#FFFFFF"></path>
                    </g>
                    <path d="M9.57142857,0.535714286 L9.57142857,3.99521008 C9.57142857,4.27135246 9.7952862,4.49521008 10.0714286,4.49521008 L13.2142857,4.49521008 L13.2142857,4.49521008" id="路径-3" stroke="#1890FF"></path>
                    <g id="编组-2" transform="translate(4.214286, 7.821429)" stroke="#1890FF" stroke-linecap="round" stroke-width="0.9">
                        <g id="编组-3">
                            <line x1="1.57968876e-13" y1="4.82142857" x2="6.44718229" y2="4.82142857" id="路径-4"></line>
                            <line x1="2.75018104e-13" y1="2.67857143" x2="6.44718229" y2="2.67857143" id="路径-4备份"></line>
                            <line x1="-7.16093851e-14" y1="0.535714286" x2="3.23289657" y2="0.535714286" id="路径-4备份-2"></line>
                        </g>
                    </g>
                </g>
            </g>
        </g>
    </g>
</svg>