<?xml version="1.0" encoding="UTF-8"?>
<svg width="17px" height="15px" viewBox="0 0 17 15" version="1.1" xmlns="http://www.w3.org/2000/svg" xmlns:xlink="http://www.w3.org/1999/xlink">
    <title>提示</title>
    <g id="切图" stroke="none" stroke-width="1" fill="none" fill-rule="evenodd">
        <g transform="translate(-517.000000, -629.000000)" id="提示">
            <g transform="translate(517.000000, 629.000000)">
                <g id="编组-2" transform="translate(0.944444, 0.000000)">
                    <ellipse id="椭圆形" fill="#F0B955" cx="7.27222222" cy="7.5" rx="7.27222222" ry="7.5"></ellipse>
                    <g id="编组-4" transform="translate(6.611111, 3.000000)" fill="#FFFFFF">
                        <path d="M0.755555556,0 C1.15406392,-7.32047989e-17 1.47711878,0.323054859 1.47711878,0.721563223 C1.47711878,0.732631785 1.4768641,0.743698881 1.47635493,0.754755726 L1.2753125,5.12053848 C1.26295768,5.38883246 1.04184219,5.6 0.773263889,5.6 C0.504217404,5.6 0.282262507,5.38936556 0.268190759,5.12068732 L0.0395172877,0.754521425 C0.0188056311,0.35906441 0.322596768,0.0216930425 0.718053784,0.000981385931 C0.730543676,0.000327240617 0.743048545,2.29750052e-18 0.755555556,0 Z" id="矩形"></path>
                        <ellipse id="椭圆形" cx="0.755555556" cy="7.2" rx="1" ry="1"></ellipse>
                    </g>
                </g>
            </g>
        </g>
    </g>
</svg>