<?xml version="1.0" encoding="UTF-8"?>
<svg width="15px" height="15px" viewBox="0 0 15 15" version="1.1" xmlns="http://www.w3.org/2000/svg" xmlns:xlink="http://www.w3.org/1999/xlink">
    <title>操作_复制</title>
    <defs>
        <polygon id="path-1" points="0.002208 0.0127488 14.6931264 0.0127488 14.6931264 14.7059328 0.002208 14.7059328"></polygon>
    </defs>
    <g id="切图" stroke="none" stroke-width="1" fill="none" fill-rule="evenodd">
        <g transform="translate(-512.000000, -206.000000)" id="编组-4">
            <g transform="translate(307.000000, 137.000000)">
                <g id="编组" transform="translate(205.000000, 69.000000)">
                    <mask id="mask-2" fill="white">
                        <use xlink:href="#path-1"></use>
                    </mask>
                    <g id="Clip-2"></g>
                    <path d="M9.5000064,7.7927808 L8.6374464,7.7927808 L8.6374464,6.0675648 L6.9122304,6.0675648 L6.9122304,5.2049088 L8.6374464,5.2049088 L8.6374464,3.4796928 L9.5000064,3.4796928 L9.5000064,5.2049088 L11.2253184,5.2049088 L11.2253184,6.0675648 L9.5000064,6.0675648 L9.5000064,7.7927808 Z M13.7492544,1.8962688 C13.7492544,1.3309248 13.3714944,0.9548928 12.8044224,0.9548928 L5.3321664,0.9548928 C4.7659584,0.9548928 4.3882944,1.3309248 4.3882944,1.8962688 L4.3882944,9.3512448 C4.3882944,9.9156288 4.7659584,10.2925248 5.3321664,10.2925248 L12.8044224,10.2925248 C13.3714944,10.2925248 13.7492544,9.9156288 13.7492544,9.3512448 L13.7492544,1.8962688 Z M3.5074944,9.8084928 C3.4911744,9.7404288 3.4786944,9.6714048 3.4703424,9.6019008 C3.4686144,9.5716608 3.4547904,9.5483328 3.4547904,9.5180928 L3.4547904,9.4514688 C3.4530624,9.4177728 3.4444224,9.3849408 3.4444224,9.3512448 L3.4444224,5.1962688 L1.7260224,5.1962688 C1.1729664,5.1962688 0.9222144,5.8557888 0.9222144,6.4090368 L0.9222144,12.8612928 C0.9222144,13.4145408 1.2913344,13.7835648 1.8445824,13.7835648 L8.2969344,13.7835648 C8.8499904,13.7835648 9.5052864,13.5286848 9.5052864,12.9754368 L9.5052864,11.2467648 L5.1834624,11.2467648 C4.2750144,11.2467648 3.6371904,10.6572288 3.5074944,9.8084928 L3.5074944,9.8084928 Z M12.8044224,11.2338048 L10.3695744,11.2338048 L10.3695744,12.9754368 C10.3695744,13.9892928 9.3106944,14.7059328 8.2969344,14.7059328 L1.8445824,14.7059328 C0.8269824,14.7029568 0.0028224,13.8788928 3.84e-05,12.8612928 L3.84e-05,6.4090368 C3.84e-05,5.3950848 0.7121664,4.3319808 1.7260224,4.3319808 L3.4444224,4.3319808 L3.4444224,1.8962688 C3.4444224,0.8608128 4.2940224,0.0127488 5.3321664,0.0127488 L12.8044224,0.0127488 C13.8434304,0.0127488 14.6931264,0.8608128 14.6931264,1.8962688 L14.6931264,9.3512448 C14.6883264,10.3913088 13.8445824,11.2323648 12.8044224,11.2338048 L12.8044224,11.2338048 Z" id="Fill-1" fill="#1890FF" mask="url(#mask-2)"></path>
                </g>
            </g>
        </g>
    </g>
</svg>