<?xml version="1.0" encoding="UTF-8"?>
<svg width="14px" height="14px" viewBox="0 0 14 14" version="1.1" xmlns="http://www.w3.org/2000/svg" xmlns:xlink="http://www.w3.org/1999/xlink">
    <title>操作_上架</title>
    <defs>
        <polygon id="path-1" points="0.001955 0.01134325 13.5754775 0.01134325 13.5754775 13.538392 0.001955 13.538392"></polygon>
    </defs>
    <g id="切图" stroke="none" stroke-width="1" fill="none" fill-rule="evenodd">
        <g transform="translate(-509.000000, -234.000000)" id="编组-4">
            <g transform="translate(307.000000, 137.000000)">
                <g id="编组" transform="translate(202.000000, 97.000000)">
                    <mask id="mask-2" fill="white">
                        <use xlink:href="#path-1"></use>
                    </mask>
                    <g id="Clip-2"></g>
                    <path d="M13.0906375,12.568712 C13.3815925,12.568712 13.5754775,12.762597 13.5754775,13.053467 C13.5754775,13.344422 13.3815925,13.538392 13.0906375,13.538392 L0.4847975,13.538392 C0.1939275,13.538392 -4.25e-05,13.344422 -4.25e-05,13.053467 C-4.25e-05,12.762597 0.1939275,12.568712 0.4847975,12.568712 L13.0906375,12.568712 Z M13.0906375,9.659672 L6.3029625,9.659672 C6.0120925,9.659672 5.8180375,9.465702 5.8180375,9.174832 C5.8180375,8.883877 6.0120925,8.689992 6.3029625,8.689992 L13.0906375,8.689992 C13.3815925,8.689992 13.5754775,8.883877 13.5754775,9.174832 C13.5754775,9.465702 13.3815925,9.659672 13.0906375,9.659672 L13.0906375,9.659672 Z M13.0906375,5.780952 L7.2725575,5.780952 C6.9817725,5.780952 6.7878025,5.586982 6.7878025,5.296027 C6.7878025,5.005157 6.9817725,4.811187 7.2725575,4.811187 L13.0906375,4.811187 C13.3815925,4.811187 13.5754775,5.005157 13.5754775,5.296027 C13.5754775,5.586982 13.3815925,5.780952 13.0906375,5.780952 L13.0906375,5.780952 Z M13.0906375,1.902147 L8.2422375,1.902147 C7.9513675,1.902147 7.7573975,1.708177 7.7573975,1.417392 C7.7573975,1.126522 7.9513675,0.932552 8.2422375,0.932552 L13.0906375,0.932552 C13.3815925,0.932552 13.5754775,1.126522 13.5754775,1.417392 C13.5754775,1.708177 13.3815925,1.902147 13.0906375,1.902147 L13.0906375,1.902147 Z M5.9150225,3.550637 L3.9757475,1.611277 L3.9757475,9.950542 C3.9757475,10.241412 3.7817775,10.435382 3.4909075,10.435382 C3.1999525,10.435382 3.0059825,10.241412 3.0059825,9.950542 L3.0059825,1.611277 L1.0667075,3.550637 C0.8727375,3.744607 0.5817825,3.744607 0.3878975,3.550637 C0.1939275,3.356752 0.1939275,3.065797 0.3878975,2.871827 L3.1029675,0.156757 C3.2968525,-0.037128 3.5878075,-0.037128 3.7817775,0.156757 L6.5938325,2.871827 C6.7878025,3.065797 6.7878025,3.356752 6.5938325,3.550637 C6.3998625,3.744607 6.1089925,3.744607 5.9150225,3.550637 L5.9150225,3.550637 Z" id="Fill-1" fill="#1890FF" mask="url(#mask-2)"></path>
                </g>
            </g>
        </g>
    </g>
</svg>