<?xml version="1.0" encoding="UTF-8"?>
<svg width="17px" height="16px" viewBox="0 0 17 16" version="1.1" xmlns="http://www.w3.org/2000/svg" xmlns:xlink="http://www.w3.org/1999/xlink">
    <title>操作_标记完成</title>
    <g id="切图" stroke="none" stroke-width="1" fill="none" fill-rule="evenodd">
        <g transform="translate(-604.000000, -256.000000)" fill="#1890FF" fill-rule="nonzero" id="编组-4">
            <g transform="translate(307.000000, 137.000000)">
                <g id="操作/标记处理完成" transform="translate(297.500000, 119.000000)">
                    <g id="编组" transform="translate(0.500000, 0.500000)">
                        <path d="M14.8675553,2.39200221 C14.8713717,2.34685288 14.8731969,2.3015708 14.8731969,2.25640487 C14.8731969,1.01309735 13.8616925,0.00159292035 12.618385,0.00159292035 C12.5928319,0.00159292035 12.5680088,0.00258849558 12.5101659,0.00512721239 L2.35933075,0.00441371681 C2.32999447,0.00300331858 2.30021018,0.00159292035 2.26933075,0.00159292035 C1.02798119,0.00159292035 0.0181692478,1.01110619 0.0181692478,2.25345133 L0.0212887168,2.43517699 L0.0162112832,2.43517699 L0.022699115,12.3075 L0.0200110619,12.6456969 C0.0200110619,13.8740708 1.01923673,14.8732965 2.24744469,14.8732965 C2.27512168,14.8732965 2.36371128,14.8693308 2.36525442,14.8693308 L12.4692478,14.8707412 C12.5187777,14.8766648 12.5723894,14.8785066 12.6277102,14.8785066 C13.2219856,14.8785066 13.7811504,14.646969 14.2020299,14.2263717 C14.623042,13.8059071 14.8548617,13.2476051 14.8548617,12.6534624 L14.8524558,12.4540985 L14.8676881,12.4540985 L14.8675553,2.39198562 L14.8675553,2.39200221 Z M2.29584624,13.9045022 L2.25295354,13.9011338 C1.54735619,13.9011338 0.989469027,13.3226549 0.982981195,12.5851659 L0.982981195,4.4580365 L13.9013827,4.4580365 L13.9090155,12.5086892 L13.8943308,12.5562279 C13.8854535,12.5867091 13.8810564,12.6156305 13.8810564,12.6420133 C13.8810564,13.3120686 13.3574668,13.8660066 12.6888219,13.9031084 L12.5093529,13.9134126 L12.5093529,13.9046681 L2.29586283,13.9045022 L2.29584624,13.9045022 Z M13.9012168,3.49154867 L0.983960177,3.49154867 L0.977737832,2.39751106 L0.991841814,2.34899336 C1.00047013,2.31879425 1.00481748,2.28876106 1.00481748,2.26193031 C1.00481748,1.56111173 1.58103982,0.989834071 2.3020354,0.98744469 L2.30950221,0.986316372 L12.5668639,0.986615044 L12.6110343,0.989983407 C13.313396,0.989983407 13.884823,1.56142699 13.884823,2.26378872 C13.884823,2.28579093 13.8880752,2.30837389 13.8956914,2.33898783 L13.9012168,2.35365597 L13.9012168,3.49154867 L13.9012168,3.49154867 Z" id="形状"></path>
                        <path d="M10.5310288,6.7605365 C10.4002434,6.7605365 10.2769248,6.81160951 10.1839381,6.90459624 L6.47658186,10.6121018 L4.70573562,8.84137168 C4.61374447,8.74840155 4.4908573,8.6971792 4.35990597,8.6971792 C4.22895465,8.6971792 4.10565265,8.74825221 4.01281527,8.84095686 C3.92025996,8.93251659 3.86888827,9.05500553 3.8684557,9.18592367 C3.86817478,9.31714049 3.91939712,9.44074115 4.01264934,9.53427544 L6.12907633,11.6508352 C6.22149889,11.7430918 6.34495022,11.7938993 6.47658186,11.7938993 C6.60808075,11.7938993 6.73151549,11.743125 6.82393805,11.6507024 L10.8767091,7.59793142 C10.9692644,7.50648783 11.0206361,7.38416482 11.0210686,7.25308075 C11.0213496,7.12129978 10.9699779,6.99741704 10.8770077,6.90486173 C10.7848838,6.81174226 10.6619967,6.7605365 10.5310454,6.7605365 L10.5310288,6.7605365 Z" id="路径"></path>
                    </g>
                </g>
            </g>
        </g>
    </g>
</svg>