<?xml version="1.0" encoding="UTF-8"?>
<svg width="16px" height="16px" viewBox="0 0 16 16" version="1.1" xmlns="http://www.w3.org/2000/svg" xmlns:xlink="http://www.w3.org/1999/xlink">
    <title>操作/跟进人</title>
    <g id="切图" stroke="none" stroke-width="1" fill="none" fill-rule="evenodd">
        <g transform="translate(-633.000000, -256.000000)" fill="#1890FF" fill-rule="nonzero" id="编组-4">
            <g transform="translate(307.000000, 137.000000)">
                <g id="编组-2" transform="translate(326.000000, 119.000000)">
                    <g id="编组" transform="translate(1.000000, 0.000000)">
                        <path d="M11.4911925,4.56081988 L11.4911925,4.54531677 C11.4911925,3.33607453 10.9950932,2.17334161 10.1191677,1.32842236 C9.25099379,0.475751553 8.07275776,0.0029068323 6.84026087,0.0029068323 L6.82475776,0.0029068323 C4.25899379,0.0106583851 2.18157764,2.05706832 2.18932919,4.56857143 C2.18932919,5.43674534 2.44513043,6.2816646 2.92572671,7.01031056 C3.3055528,7.59167702 3.80940373,8.08002484 4.41402484,8.43659627 C3.20478261,8.89393789 2.15057143,9.67684472 1.37541615,10.6922981 C0.483987578,11.8550311 0.00339130435,13.2658137 0.011050538,14.7231056 C0.011050538,15.0254161 0.266944099,15.2812174 0.577006211,15.2812174 C0.887068323,15.2812174 1.14286957,15.0331677 1.15062112,14.7231056 L1.15062112,14.715354 C1.14286957,13.2580621 1.72423602,11.8627826 2.75519255,10.8240745 C3.77839752,9.76986335 5.17367702,9.15749068 6.6542236,9.10322981 C7.95648447,9.15749068 9.21998758,8.67689441 10.1346708,7.76996273 C11.0028447,6.91729193 11.4911925,5.76231056 11.4911925,4.56081988 Z M6.84026087,7.98700621 L6.82475776,7.98700621 C5.89457143,7.98700621 5.00314286,7.62268323 4.34426087,6.9715528 C3.68537888,6.32817391 3.3210559,5.45224845 3.32880745,4.54531677 C3.34431056,2.65393789 4.91012422,1.12688199 6.84026087,1.11913043 L6.85576398,1.11913043 C7.78595031,1.11913043 8.67737888,1.48345342 9.32850932,2.1268323 C9.9873913,2.77021118 10.3517143,3.64613665 10.3517143,4.55306832 L10.3517143,4.56081988 C10.3517143,5.47550311 9.97963975,6.34367702 9.31300621,6.9870559 C8.65412422,7.63043478 7.7704472,7.99475776 6.84026087,7.98700621 L6.84026087,7.98700621 Z" id="形状"></path>
                    </g>
                    <path d="M14.1016365,10.8971962 L15.687306,12.3694261 C15.800988,12.4387467 15.8908499,12.5409842 15.9449441,12.6625457 C16.0382482,12.8596341 16.01148,13.092528 15.8758864,13.2633747 L15.8015167,13.3456073 L14.1096046,14.9133332 C13.8521159,15.156377 13.4494237,15.156377 13.191935,14.9133332 C12.9663269,14.7006189 12.9376855,14.3522127 13.1255334,14.1055963 L13.191935,14.032648 L13.6806505,13.5379257 L9.15604751,13.5379257 C8.80131521,13.5445908 8.50798413,13.2634954 8.5,12.9092437 C8.5,12.7155991 8.59030613,12.5431757 8.73373351,12.4264584 C8.82413978,12.352345 8.93203553,12.3025755 9.04714894,12.2818881 L9.16534373,12.2712774 L13.6726823,12.2712774 L13.1826387,11.7778815 C13.0614523,11.6633951 12.9927916,11.5041393 12.9927916,11.3375388 C12.9927916,11.1709383 13.0614523,11.0116825 13.1826387,10.8971962 C13.4403068,10.6533156 13.8439684,10.6533156 14.1016365,10.8971962 L14.1016365,10.8971962 Z" id="路径"></path>
                </g>
            </g>
        </g>
    </g>
</svg>