<?xml version="1.0" encoding="UTF-8"?>
<svg width="14px" height="15px" viewBox="0 0 14 15" version="1.1" xmlns="http://www.w3.org/2000/svg" xmlns:xlink="http://www.w3.org/1999/xlink">
    <title>权限分配</title>
    <g id="切图" stroke="none" stroke-width="1" fill="none" fill-rule="evenodd">
        <g transform="translate(-892.000000, -857.000000)" fill="#1890FF" fill-rule="nonzero" id="编组-4">
            <g transform="translate(509.000000, 737.000000)">
                <g id="编组" transform="translate(383.000000, 120.000000)">
                    <path d="M7.19167136,0 L1.36640982,1.85036684 C1.14840051,1.91942023 1.00032425,2.12174225 1.00003103,2.35045411 L1.03008612,9.6267164 L1.03697679,9.70984436 C1.27699848,10.6423939 1.77663281,11.4877256 2.47786146,12.1476781 C3.39358853,13.0509433 5.64082908,14.2317416 6.59980614,14.7356407 C6.75052139,14.8149568 6.86297139,14.8737475 6.92733324,14.9093737 L7.03670442,14.9687509 C7.11109147,15.0092987 7.20071366,15.0104512 7.27611882,14.9718297 L7.43548406,14.8906076 C7.99817386,14.615567 10.8460763,13.1921289 11.9050414,12.1482646 C12.6071575,11.4889587 13.1072448,10.6434579 13.3465125,9.71043081 L13.3802402,2.35353292 C13.3814397,2.12368585 13.2329707,1.9197861 13.0138541,1.85036684 L7.19167136,0 Z M12.4007304,9.57466981 C12.1856244,10.3049707 11.7820129,10.9657568 11.2304881,11.4905714 C10.3909983,12.3187722 8.1156086,13.5014764 7.28858068,13.9184357 C7.21474359,13.9568483 7.12681524,13.9568483 7.05297814,13.9184357 C6.2096765,13.4759662 3.97181901,12.3001527 3.15549362,11.4943832 C2.6030975,10.9701692 2.19916455,10.309188 1.98466487,9.57848167 L1.9551959,2.81799391 C1.95502807,2.7165102 2.02045538,2.62654765 2.11705385,2.59543968 L7.033479,1.03272197 C7.13519644,1.00061481 7.24433442,1.00061481 7.34605186,1.03272197 L12.262477,2.59543968 C12.359632,2.62603291 12.4256541,2.71613598 12.4256541,2.81799391 L12.397505,9.57481641 L12.4007304,9.57481641 L12.4007304,9.57466981 Z M7.28051713,3.51131336 C7.84965777,3.51014048 8.39607384,3.73504046 8.79939838,4.13631248 C9.20095555,4.53192871 9.42628473,5.07258136 9.42455413,5.63628104 C9.42291404,6.19993508 9.19442131,6.73919694 8.79060178,7.13243774 C8.51645729,7.39863202 8.17608766,7.58663511 7.80479505,7.67694787 L7.79863743,8.56393936 L8.68753483,8.56393936 C8.82901363,8.56276648 8.96521448,8.6180385 9.06593566,8.7175868 C9.16665208,8.81703132 9.22353801,8.95254437 9.22398141,9.0940817 C9.22356727,9.2353417 9.16634562,9.37049682 9.06520261,9.46911048 C8.96380526,9.56905849 8.82697774,9.62482256 8.68460264,9.62422404 L7.79570523,9.62422404 L7.79189336,11.1045468 C7.79145114,11.2458011 7.7342339,11.3809458 7.63311456,11.4795756 C7.53175533,11.579564 7.39489015,11.6352907 7.25251457,11.6345609 C7.11103577,11.6357154 6.97483493,11.5804434 6.87411375,11.4808951 C6.77342065,11.3814348 6.71653899,11.2459319 6.716068,11.1044002 L6.72926292,7.67386906 C6.35891199,7.58228835 6.01983856,7.39321112 5.74726806,7.12628011 C5.34450346,6.73055031 5.11820471,6.18920999 5.11949586,5.62456876 C5.12079809,5.05992752 5.34958081,4.51963229 5.75415873,4.12575654 C6.16045464,3.72637246 6.70846139,3.50427026 7.27817135,3.50803953 L7.28051713,3.51131336 L7.28051713,3.51131336 Z M8.57320022,5.61091748 C8.57513519,5.27916061 8.44227009,4.96083468 8.20504079,4.72891076 C7.70861878,4.2417252 6.9138451,4.23996587 6.41537056,4.7252455 C6.17621998,4.95485386 6.04082296,5.27190941 6.04033552,5.60344036 C6.03928709,5.93536245 6.17198703,6.25371546 6.40847989,6.48661998 C6.64581474,6.72194994 6.96696547,6.85327944 7.30118915,6.85169373 C7.99011029,6.84493521 8.55089417,6.29573355 8.57200604,5.60710562 L8.57320022,5.61091748 L8.57320022,5.61091748 Z" id="形状"></path>
                </g>
            </g>
        </g>
    </g>
</svg>