<?xml version="1.0" encoding="UTF-8"?>
<svg width="12px" height="16px" viewBox="0 0 12 16" version="1.1" xmlns="http://www.w3.org/2000/svg" xmlns:xlink="http://www.w3.org/1999/xlink">
    <title>编组</title>
    <g id="切图" stroke="none" stroke-width="1" fill="none" fill-rule="evenodd">
        <g transform="translate(-467.000000, -429.000000)" fill="#FFFFFF" fill-rule="nonzero" id="编组-3">
            <g transform="translate(307.000000, 360.000000)">
                <g id="btn/批量提醒" transform="translate(141.000000, 61.000000)">
                    <g id="编组" transform="translate(19.000000, 8.000000)">
                        <path d="M5.84114631,1 C5.19213006,1 4.67291706,1.519213 4.47821218,2.10332763 C2.53116341,2.75234389 1.16822926,4.69939267 1.16822926,6.84114631 L1.16822926,9.30740808 C0.454311374,9.76171946 0,10.6054406 0,11.4491617 L0,11.5140634 C0,11.8385715 0.064901627,12.1630796 0.194704881,12.4875877 L0.194704881,12.5524894 C0.259606508,12.8120959 0.519213016,12.9418991 0.713917882,13.0068007 L10.6438666,13.0068007 C10.7087683,13.0068007 10.7736699,13.0068007 10.8385715,12.9418991 C11.1630796,12.8769975 11.3577845,12.6822926 11.4226861,12.4875877 C11.5524894,12.1630796 11.617391,11.8385715 11.617391,11.5140634 L11.617391,11.4491617 C11.617391,10.6703422 11.2928829,9.95642435 10.7087682,9.50211296 L10.7087682,6.84114631 C10.7087682,4.50468779 9.21603084,2.55763902 7.13917882,2.038426 C7.00937557,1.45431137 6.49016257,1 5.84114631,1 M5.84114631,1.64901626 C6.16565445,1.64901626 6.49016257,1.90862276 6.5550642,2.23313088 C6.61996582,2.49273739 6.8146707,2.62254063 7.00937557,2.68744226 C8.8266211,3.14175363 10.1246536,4.82919591 10.1246536,6.84114631 L10.1246536,9.50211296 C10.1246536,9.69681784 10.1895552,9.89152271 10.3842601,10.021326 C10.8385715,10.3458341 11.0332764,10.8650471 11.0332764,11.4491617 L11.0332764,11.5140634 C11.0332764,11.7736699 10.9683747,12.0332764 10.9034731,12.2279813 C10.9034731,12.2279813 10.8385715,12.2928829 10.7736699,12.2928829 L0.97352439,12.2928829 L0.908622763,12.2928829 C0.843721136,12.2928829 0.843721136,12.2279812 0.778819509,12.1630796 C0.778819509,12.098178 0.713917882,12.098178 0.713917882,12.0332764 C0.649016255,11.9034731 0.649016255,11.7087682 0.649016255,11.4491617 C0.649016255,10.8001455 0.97352439,10.2160309 1.49273739,9.89152272 C1.68744227,9.76171947 1.81724553,9.56701459 1.81724551,9.37230971 L1.81724551,6.84114631 C1.81724551,4.95899917 3.0503764,3.2715569 4.73781867,2.75234389 C4.93252355,2.68744226 5.12722842,2.49273738 5.19213006,2.23313088 C5.19213006,1.90862275 5.51663819,1.64901626 5.84114631,1.64901626 M7.72329345,13.7207186 C7.72329345,13.5260138 7.5934902,13.3962105 7.39878533,13.3962105 C7.20408047,13.3962105 7.0742772,13.5260138 7.0742772,13.7207186 C7.0742772,14.2399316 6.68486745,14.6293414 6.16565445,14.6293414 C5.64644145,14.6293414 5.25703169,14.2399316 5.25703169,13.7207186 C5.25703169,13.5260138 5.12722843,13.3962105 4.93252355,13.3962105 C4.73781867,13.3962105 4.60801543,13.5260138 4.60801543,13.7207186 C4.60801543,14.5644398 5.32193331,15.2783576 6.10075282,15.2783576 C7.00937558,15.2783576 7.72329345,14.5644398 7.72329345,13.7207186" id="形状"></path>
                    </g>
                </g>
            </g>
        </g>
    </g>
</svg>