<?xml version="1.0" encoding="UTF-8"?>
<svg width="29px" height="29px" viewBox="0 0 29 29" version="1.1" xmlns="http://www.w3.org/2000/svg" xmlns:xlink="http://www.w3.org/1999/xlink">
    <title>提示弹窗</title>
    <g id="切图" stroke="none" stroke-width="1" fill="none" fill-rule="evenodd">
        <g transform="translate(-343.000000, -767.000000)" fill="#FF6700" fill-rule="nonzero" id="弹窗">
            <g transform="translate(313.000000, 749.000000)">
                <g id="tips_icon" transform="translate(30.000000, 18.000000)">
                    <path d="M14.4,0 C6.46120018,0 0,6.46120018 0,14.4 C0,22.3387998 6.46120018,28.8 14.4,28.8 C22.3387998,28.8 28.8,22.3387998 28.8,14.4 C28.8,6.46120018 22.342098,0 14.4,0 Z" id="形状" opacity="0.200000003"></path>
                    <path d="M14.8,19.2 C15.4627417,19.2 16,19.7372583 16,20.4 C16,21.0627417 15.4627417,21.6 14.8,21.6 C14.1372583,21.6 13.6,21.0627417 13.6,20.4 C13.6,19.7372583 14.1372583,19.2 14.8,19.2 Z M14.8829095,7.2 C15.9808027,7.2 16.6620596,7.82818792 16.7943698,8.97181208 L16.8,9.03087248 L16.7915547,9.08993289 C16.3861787,11.9973154 15.8963494,14.6738255 15.3417725,17.5812081 C15.2066472,17.5543624 15.0658917,17.538255 14.9195059,17.5275168 L14.5084997,17.5248322 L14.3930802,17.5328859 C14.2720304,17.5516779 14.1566108,17.5731544 14.0440064,17.6 C13.5823282,14.4697987 13.2839264,12.6442953 13.1290953,11.4738255 C12.7828367,9.41744966 12.7687611,9.00402685 12.8250634,8.82416107 C12.9798945,7.83892617 13.6414455,7.26174497 14.694297,7.2 L14.8829095,7.2 Z" id="路径-4"></path>
                </g>
            </g>
        </g>
    </g>
</svg>