<svg width="16" height="16" viewBox="0 0 16 16" fill="none" xmlns="http://www.w3.org/2000/svg">
<g id="&#230;&#147;&#141;&#228;&#189;&#156;/&#233;&#162;&#132;&#232;&#167;&#136;">
<path id="Vector" d="M7.32008 14.6988C5.88815 14.6988 4.48837 14.2741 3.29775 13.4786C2.10714 12.6831 1.17917 11.5523 0.631194 10.2294C0.0832151 8.90645 -0.0601611 7.45072 0.219196 6.0463C0.498553 4.64188 1.1881 3.35183 2.20063 2.3393C3.21316 1.32677 4.50321 0.637225 5.90763 0.357868C7.31205 0.0785108 8.76777 0.221887 10.0907 0.769866C11.4136 1.31784 12.5444 2.24581 13.3399 3.43643C14.1355 4.62704 14.5601 6.02682 14.5601 7.45875C14.5601 9.37892 13.7973 11.2204 12.4395 12.5782C11.0818 13.936 9.24025 14.6988 7.32008 14.6988V14.6988ZM7.32008 1.21875C6.08593 1.21875 4.87949 1.58472 3.85332 2.27038C2.82716 2.95604 2.02736 3.9306 1.55507 5.07081C1.08278 6.21102 0.95921 7.46568 1.19998 8.67612C1.44075 9.88656 2.03506 10.9984 2.90774 11.8711C3.78041 12.7438 4.89228 13.3381 6.10272 13.5789C7.31316 13.8196 8.56782 13.6961 9.70803 13.2238C10.8482 12.7515 11.8228 11.9517 12.5085 10.9255C13.1941 9.89935 13.5601 8.69291 13.5601 7.45875C13.5574 5.80461 12.8992 4.21898 11.7295 3.04933C10.5599 1.87967 8.97422 1.2214 7.32008 1.21875V1.21875Z" fill="#1890FF"/>
<path id="Vector_2" d="M2.62012 7.60938C2.48751 7.60938 2.36033 7.5567 2.26656 7.46293C2.1728 7.36916 2.12012 7.24198 2.12012 7.10938C2.12012 5.78329 2.6469 4.51152 3.58458 3.57384C4.52227 2.63616 5.79403 2.10938 7.12012 2.10938C7.25273 2.10937 7.3799 2.16205 7.47367 2.25582C7.56744 2.34959 7.62012 2.47677 7.62012 2.60938C7.62012 2.74198 7.56744 2.86916 7.47367 2.96293C7.3799 3.0567 7.25273 3.10938 7.12012 3.10938C6.05925 3.10938 5.04184 3.5308 4.29169 4.28095C3.54154 5.03109 3.12012 6.04851 3.12012 7.10938C3.12012 7.24198 3.06744 7.36916 2.97367 7.46293C2.8799 7.5567 2.75273 7.60938 2.62012 7.60938ZM15.4201 15.8794C15.2904 15.8763 15.1662 15.8266 15.0701 15.7394L13.1901 13.8494C13.0973 13.7565 13.0451 13.6307 13.0451 13.4994C13.0451 13.3681 13.0973 13.2422 13.1901 13.1494C13.2829 13.0565 13.4088 13.0044 13.5401 13.0044C13.6714 13.0044 13.7973 13.0565 13.8901 13.1494L15.7801 14.9994C15.8724 15.0945 15.924 15.2218 15.924 15.3544C15.924 15.4869 15.8724 15.6142 15.7801 15.7094C15.6861 15.8098 15.5574 15.8706 15.4201 15.8794Z" fill="#1890FF"/>
</g>
</svg>
