<?xml version="1.0" encoding="UTF-8"?>
<svg width="16px" height="16px" viewBox="0 0 16 16" version="1.1" xmlns="http://www.w3.org/2000/svg" xmlns:xlink="http://www.w3.org/1999/xlink">
    <title>操作_标记处理中</title>
    <g id="切图" stroke="none" stroke-width="1" fill="none" fill-rule="evenodd">
        <g transform="translate(-574.000000, -256.000000)" fill="#1890FF" fill-rule="nonzero" id="编组-4">
            <g transform="translate(307.000000, 137.000000)">
                <g id="编组" transform="translate(267.000000, 119.000000)">
                    <path d="M8,14.8965517 C11.8088276,14.8965517 14.8965517,11.8088276 14.8965517,8 C14.8965517,4.19117242 11.8088276,1.10344828 8,1.10344828 C4.19117241,1.10344828 1.10344828,4.19117241 1.10344828,8 C1.10344828,11.8088276 4.19117242,14.8965517 8,14.8965517 Z M8,16 C3.58179311,16 0,12.4182069 0,8 C0,3.58179311 3.58179311,0 8,0 C12.4182069,0 16,3.58179311 16,8 C16,12.4182069 12.4182069,16 8,16 Z" id="形状"></path>
                    <path d="M8.55172414,7.44827586 L11.0344828,7.44827586 C11.3391916,7.44827586 11.5862069,7.69529117 11.5862069,8 C11.5862069,8.30470883 11.3391916,8.55172414 11.0344828,8.55172414 L7.44827586,8.55172414 L7.44827586,4.96551723 C7.44827586,4.66080841 7.69529117,4.41379309 8,4.41379309 C8.30470883,4.41379309 8.55172414,4.66080841 8.55172414,4.96551723 L8.55172414,7.44827586 Z" id="路径"></path>
                </g>
            </g>
        </g>
    </g>
</svg>