<?xml version="1.0" encoding="UTF-8"?>
<svg width="18px" height="18px" viewBox="0 0 18 18" version="1.1" xmlns="http://www.w3.org/2000/svg" xmlns:xlink="http://www.w3.org/1999/xlink">
    <title>封存工单</title>
    <g id="切图" stroke="none" stroke-width="1" fill="none" fill-rule="evenodd">
        <g transform="translate(-541.000000, -1073.000000)" id="编组-3">
            <g transform="translate(509.000000, 942.000000)">
                <g id="btn/封存工单" transform="translate(17.000000, 124.000000)">
                    <g id="编组" transform="translate(15.000000, 7.000000)">
                        <path d="M12.348,9.232 C10.0817004,9.232 8.232,11.0817004 8.232,13.348 C8.232,15.6142996 10.0817004,17.464 12.348,17.464 C14.6142996,17.464 16.464,15.6142996 16.464,13.348 C16.464,11.0650364 14.6309636,9.232 12.348,9.232 Z M12.348,16.6308016 C11.0148826,16.6308016 9.81507692,15.8309312 9.29849393,14.5977976 C8.78191093,13.364664 9.06519838,11.9482267 10.0150445,11.0150445 C10.9648907,10.0651984 12.3813279,9.7985749 13.5977976,10.2984939 C14.8309312,10.8150769 15.6308016,12.0148826 15.6308016,13.348 C15.6474656,15.1643725 14.1643725,16.6308016 12.348,16.6308016 L12.348,16.6308016 Z" id="形状" fill="#FFFFFF" fill-rule="nonzero"></path>
                        <path d="M7.81540081,15.1143806 L1.2331336,15.1143806 C1.11648583,15.1143806 1.01650202,15.0643887 0.949846154,14.9977328 C0.866526316,14.914413 0.833198381,14.8144291 0.833198381,14.7144453 L0.833198381,8.11551417 C0.833198381,7.9988664 0.883190283,7.89888259 0.949846154,7.83222672 C1.03316599,7.74890688 1.1331498,7.71557895 1.2331336,7.71557895 L11.9314008,7.71557895 C12.0480486,7.71557895 12.1480324,7.76557085 12.2146883,7.83222672 C12.2980081,7.91554656 12.331336,8.01553036 12.331336,8.11551417 L12.331336,8.53211336 C12.331336,8.76540891 12.5146397,8.94871255 12.7479352,8.94871255 C12.9812308,8.94871255 13.1645344,8.76540891 13.1645344,8.53211336 L13.1645344,8.11551417 C13.1645344,7.4322915 12.6146235,6.88238057 11.9314008,6.88238057 L10.6982672,6.88238057 L10.6982672,5.116 C10.6982672,2.8497004 8.8485668,1 6.58226721,1 C4.31596761,1 2.46626721,2.8497004 2.46626721,5.116 C2.46626721,5.34929555 2.64957085,5.53259919 2.8828664,5.53259919 C3.11616194,5.53259919 3.29946559,5.34929555 3.29946559,5.116 C3.29946559,3.29962753 4.76589474,1.81653441 6.58226721,1.81653441 C8.39863968,1.81653441 9.88173279,3.28296356 9.88173279,5.116 L9.88173279,6.88238057 L1.2331336,6.88238057 C0.899854251,6.88238057 0.583238866,7.01569231 0.366607287,7.24898785 C0.133311741,7.4822834 0,7.79889879 0,8.11551417 L0,14.6977814 C0,15.381004 0.549910931,15.930915 1.2331336,15.930915 L7.81540081,15.930915 C8.04869636,15.930915 8.232,15.7476113 8.232,15.5143158 C8.232,15.2976842 8.04869636,15.0977166 7.81540081,15.1143806 Z" id="形状" fill="#FFFFFF" fill-rule="nonzero"></path>
                        <polygon id="形状" fill="#FFFFFF" fill-rule="nonzero" points="2.46626721 5.0660081 3.28280162 5.0660081 3.28280162 6.94903644 2.46626721 6.94903644"></polygon>
                        <line x1="10.0714789" y1="15.930915" x2="14.7037595" y2="10.84625" id="路径-8" stroke="#FFFFFF"></line>
                    </g>
                </g>
            </g>
        </g>
    </g>
</svg>