<?xml version="1.0" encoding="UTF-8"?>
<svg width="14px" height="16px" viewBox="0 0 14 16" version="1.1" xmlns="http://www.w3.org/2000/svg" xmlns:xlink="http://www.w3.org/1999/xlink">
    <title>取消封存</title>
    <g id="切图" stroke="none" stroke-width="1" fill="none" fill-rule="evenodd">
        <g transform="translate(-340.000000, -539.000000)" fill="#1890FF" fill-rule="nonzero" id="编组-3">
            <g transform="translate(307.000000, 360.000000)">
                <g id="btn/取消封存" transform="translate(18.000000, 171.000000)">
                    <g id="取消封存" transform="translate(15.000000, 7.581219)">
                        <path d="M9.96698645,6.35903832 L1.24795323,6.35903832 C0.915165701,6.35903832 0.59901755,6.49215333 0.36606628,6.7251046 C0.133115011,6.95805587 0,7.27420402 0,7.60699155 L0,14.2461027 C0,14.9283172 0.565738797,15.494056 1.24795323,15.494056 L12.8847071,15.494056 C13.1176584,15.494056 13.3006916,15.3110228 13.3006916,15.0780715 C13.3173309,14.8451203 13.1176584,14.6620871 12.9013465,14.6620871 L1.24795323,14.6620871 C1.13147759,14.6620871 1.03164134,14.612169 0.948444453,14.5456115 C0.865247572,14.4624146 0.831968819,14.3625784 0.831968819,14.2461027 L0.831968819,7.60699155 C0.831968819,7.49051592 0.881886948,7.39067966 0.948444453,7.30748278 C1.03164134,7.22428589 1.13147759,7.19100714 1.24795323,7.19100714 L12.0469085,7.19100714 C12.1633841,7.19100714 12.2632204,7.24092527 12.3464173,7.30748278 C12.4296142,7.37404028 12.4628929,7.49051592 12.4628929,7.60699155 L12.4628929,15.0780715 C12.4628929,15.3110228 12.645926,15.494056 12.8788773,15.494056 C13.1118286,15.494056 13.2948617,15.3110228 13.2948617,15.0780715 L13.2948617,7.60699155 C13.2948617,6.92477712 12.7291229,6.35903832 12.0469085,6.35903832 L10.7989553,6.35903832" id="路径" transform="translate(6.650832, 10.926547) scale(-1, 1) translate(-6.650832, -10.926547) "></path>
                        <path d="M10.7989553,6.27524235 C10.7989553,5.89821628 10.7989553,5.33267718 10.7989553,4.57862505 C10.7989553,2.28239111 8.93534511,0.418780956 6.63911117,0.418780956 C4.34287723,0.418780956 2.47926708,2.28239111 2.47926708,4.57862505 C2.47926708,4.81157632 2.66230022,4.99460946 2.89525149,4.99460946 C3.12820276,4.99460946 3.3112359,4.81157632 3.3112359,4.57862505 C3.3112359,2.74829365 4.7921404,1.25074978 6.63911117,1.25074978 C8.46944258,1.25074978 9.96698645,2.73165427 9.96698645,4.57862505 C9.96698645,5.33130551 9.96698645,5.89581586 9.96698645,6.27215609" id="路径" transform="translate(6.639111, 3.347012) scale(-1, 1) rotate(6.000000) translate(-6.639111, -3.347012) "></path>
                    </g>
                </g>
            </g>
        </g>
    </g>
</svg>