<?xml version="1.0" encoding="UTF-8"?>
<svg width="16px" height="16px" viewBox="0 0 16 16" version="1.1" xmlns="http://www.w3.org/2000/svg" xmlns:xlink="http://www.w3.org/1999/xlink">
    <title>操作/邀请人</title>
    <g id="切图" stroke="none" stroke-width="1" fill="none" fill-rule="evenodd">
        <g transform="translate(-661.000000, -256.000000)" fill="#1890FF" fill-rule="nonzero" id="编组-4">
            <g transform="translate(307.000000, 137.000000)">
                <g id="编组" transform="translate(354.000000, 119.000000)">
                    <path d="M15.9992117,11.7406008 C15.9804238,11.3742382 15.6798186,11.073633 15.2946681,11.0548451 L13.5474002,11.0548451 L13.5474002,9.11030504 L13.5098246,9.11030504 C13.3689159,8.7345485 12.9461898,8.53727631 12.5610393,8.6687911 C12.269828,8.77212415 12.0725558,9.04454764 12.0725558,9.34515287 L12.0725558,11.0548451 L10.3252879,11.0548451 C9.91195569,11.073633 9.60195654,11.4212078 9.62074437,11.8157521 C9.6395322,12.1821148 9.94013743,12.48272 10.3252879,12.5015078 L12.0725558,12.5015078 L12.0725558,14.4460479 L12.1101315,14.4460479 C12.2322523,14.8218045 12.6549784,15.0378645 13.0401289,14.9063497 C13.2655828,14.8311984 13.4440672,14.6621079 13.5098246,14.4460479 L13.5474002,14.4460479 L13.5474002,12.5015078 L15.2946681,12.5015078 C15.6986064,12.48272 16.0179995,12.1351452 15.9992117,11.7406008 Z M12.5599801,4.58957478 L12.5599801,4.57396398 C12.5599801,3.35632169 12.0604345,2.1855118 11.1784244,1.33472328 C10.3042197,0.476129357 9.117799,2.66453526e-15 7.87674051,2.66453526e-15 L7.86112971,2.66453526e-15 C5.27754255,0.00780539929 3.18569554,2.06843081 3.19350094,4.59738018 C3.19350094,5.4715849 3.45107911,6.32237342 3.93501387,7.05608096 C4.31747843,7.6414859 4.82482939,8.13322606 5.43365053,8.49227442 C4.21600824,8.95279298 3.15447394,9.74113831 2.37393401,10.7636456 C1.47631309,11.9344555 0.992378337,13.3550382 1.00009078,14.8224532 C1.00009078,15.1268638 1.25776191,15.384442 1.56997788,15.384442 C1.88219386,15.384442 2.13977203,15.1346692 2.14757743,14.8224532 L2.14757743,14.8146478 C2.13977203,13.3472328 2.72517698,11.9422609 3.76329508,10.8963374 C4.79360779,9.8348031 6.19857966,9.21817656 7.68941093,9.16353876 C9.00071801,9.21817656 10.2729981,8.7342418 11.1940352,7.82101009 C12.0682399,6.96241616 12.5599801,5.79941167 12.5599801,4.58957478 Z M7.87674051,8.03956127 L7.86112971,8.03956127 C6.9244818,8.03956127 6.02686088,7.6727075 5.36340194,7.01705396 C4.699943,6.36920582 4.33308923,5.4871957 4.34089463,4.57396398 C4.35650543,2.66944656 5.93319609,1.1317829 7.87674051,1.1239775 L7.89235131,1.1239775 C8.82899922,1.1239775 9.72662014,1.49083126 10.3822737,2.1386794 C11.0457326,2.78652755 11.4125864,3.66853767 11.4125864,4.58176938 L11.4125864,4.58957478 C11.4125864,5.5106119 11.0379272,6.38481662 10.3666629,7.03266476 C9.70320394,7.6805129 8.81338842,8.04736667 7.87674051,8.03956127 L7.87674051,8.03956127 Z" id="形状"></path>
                </g>
            </g>
        </g>
    </g>
</svg>