<?xml version="1.0" encoding="UTF-8"?>
<svg width="15px" height="14px" viewBox="0 0 15 14" version="1.1" xmlns="http://www.w3.org/2000/svg" xmlns:xlink="http://www.w3.org/1999/xlink">
    <title>退出</title>
    <g id="切图" stroke="none" stroke-width="1" fill="none" fill-rule="evenodd">
        <g transform="translate(-2181.000000, -102.000000)" fill="#2390e9" fill-rule="nonzero" id="编组-15">
            <g transform="translate(350.000000, 77.000000)">
                <g id="编组" transform="translate(1830.009462, 25.000000)">
                    <path d="M11.0941722,2.55187692 C10.8300951,2.41484233 10.7271068,2.08967708 10.8641414,1.8256 C11.001176,1.56152292 11.3263413,1.45853464 11.5904184,1.59556923 C14.2805306,2.98846728 15.669347,6.04029453 14.9525421,8.98360217 C14.2357372,11.9269098 11.5991993,13.9984136 8.56986452,13.9984136 C5.54052976,13.9984136 2.90399178,11.9269098 2.18718692,8.98360217 C1.47038205,6.04029453 2.85919839,2.98846728 5.54931067,1.59556923 C5.72013859,1.50692339 5.92528209,1.51614686 6.0874656,1.61976526 C6.2496491,1.72338365 6.34423309,1.90565487 6.33558868,2.09791911 C6.32694426,2.29018335 6.21638475,2.46323109 6.04555682,2.55187692 C3.79599002,3.71603971 2.6343061,6.26764211 3.23338454,8.72872537 C3.83246298,11.1898086 6.03691647,12.9220237 8.56986452,12.9220237 C11.1028126,12.9220237 13.307266,11.1898086 13.9063445,8.72872537 C14.5054229,6.26764211 13.343739,3.71603971 11.0941722,2.55187692 L11.0941722,2.55187692 Z M9.10832605,4.84615385 C9.10832605,5.14353794 8.86724861,5.38461538 8.56986452,5.38461538 C8.27248042,5.38461538 8.03140298,5.14353794 8.03140298,4.84615385 L8.03140298,0.538461538 C8.03140298,0.241077442 8.27248042,0 8.56986452,0 C8.86724861,0 9.10832605,0.241077442 9.10832605,0.538461538 L9.10832605,4.84615385 Z" id="形状"></path>
                </g>
            </g>
        </g>
    </g>
</svg>