<?xml version="1.0" encoding="UTF-8"?>
<svg width="15px" height="14px" viewBox="0 0 15 14" version="1.1" xmlns="http://www.w3.org/2000/svg" xmlns:xlink="http://www.w3.org/1999/xlink">
    <title>编组</title>
    <defs>
        <polygon id="path-1" points="0.0252315391 0.0155469304 9.07448 0.0155469304 9.07448 7.521464 0.0252315391 7.521464"></polygon>
    </defs>
    <g id="切图" stroke="none" stroke-width="1" fill="none" fill-rule="evenodd">
        <g transform="translate(-713.000000, -430.000000)" id="编组-3">
            <g transform="translate(307.000000, 360.000000)">
                <g id="btn/export" transform="translate(393.000000, 61.000000)">
                    <g id="编组" transform="translate(13.000000, 9.000000)">
                        <g transform="translate(5.000000, 1.224480)">
                            <mask id="mask-2" fill="white">
                                <use xlink:href="#path-1"></use>
                            </mask>
                            <g id="Clip-2"></g>
                            <path d="M0.026088,7.521464 C1.357768,6.261464 2.701608,4.313224 5.078488,4.438984 C5.246168,4.448424 5.377288,4.579624 5.377288,4.748584 L5.377288,5.573304 C5.375928,5.832904 5.677448,5.977544 5.878808,5.813944 L8.960008,3.322184 C9.112888,3.199224 9.112888,2.965384 8.958648,2.842344 L5.892328,0.084264 C5.690968,-0.077976 5.377288,0.065304 5.375928,0.323544 L5.375928,1.159064 C5.375928,1.315944 5.269128,1.429464 5.114968,1.464584 C1.025208,2.397464 -0.009032,7.191624 0.026088,7.521464" id="Fill-1" fill="#FFFFFF" mask="url(#mask-2)"></path>
                        </g>
                        <path d="M13.144448,7.194616 L13.144448,11.024136 C13.144448,12.190296 12.190288,13.144456 11.024128,13.144456 L3.120288,13.144456 C1.954128,13.144456 0.999968,12.190296 0.999968,11.024136 L0.999968,3.120296 C0.999968,1.954136 1.954128,0.999976 3.120288,0.999976 L8.178048,0.999976" id="Stroke-3" stroke="#FFFFFF" stroke-width="0.8" stroke-linecap="round"></path>
                    </g>
                </g>
            </g>
        </g>
    </g>
</svg>