<?xml version="1.0" encoding="UTF-8"?>
<svg width="15px" height="15px" viewBox="0 0 15 15" version="1.1" xmlns="http://www.w3.org/2000/svg" xmlns:xlink="http://www.w3.org/1999/xlink">
    <title>操作_确认退票</title>
    <defs>
        <polygon id="path-1" points="0 0 14.9893671 0 14.9893671 14.9893006 0 14.9893006"></polygon>
    </defs>
    <g id="切图" stroke="none" stroke-width="1" fill="none" fill-rule="evenodd">
        <g transform="translate(-385.000000, -235.000000)" id="编组-4">
            <g transform="translate(307.000000, 137.000000)">
                <g id="编组" transform="translate(78.000000, 98.000000)">
                    <mask id="mask-2" fill="white">
                        <use xlink:href="#path-1"></use>
                    </mask>
                    <g id="Clip-2"></g>
                    <path d="M12.948731,6.81221203 L13.8630665,7.32676899 C13.7736361,3.88597785 10.9568639,1.12417405 7.49471203,1.12417405 C3.97626266,1.12417405 1.12417405,3.97626266 1.12417405,7.49461709 C1.12417405,11.0130665 3.97626266,13.8651551 7.49471203,13.8651551 C9.64721203,13.8651551 11.6164842,12.7901867 12.7921804,11.0344272 C12.9033513,10.8664842 13.0961677,10.7709778 13.2971487,10.7839842 C13.4982247,10.7970854 13.6768956,10.9167057 13.7655665,11.09775 C13.8540475,11.2786044 13.8390475,11.4931614 13.7261677,11.6599652 C12.3439842,13.7240791 10.0262943,14.9893006 7.49471203,14.9893006 C3.35556646,14.9893006 -6.64556962e-05,11.6337627 -6.64556962e-05,7.49461709 C-6.64556962e-05,3.35556646 3.35556646,-6.64556962e-05 7.49471203,-6.64556962e-05 C11.6337627,-6.64556962e-05 14.9893956,3.35556646 14.9893956,7.49461709 C14.9893956,7.6870538 14.9743956,7.95762342 14.9451551,8.31192722 C14.9112627,8.72015506 14.4660095,8.95626266 14.1091424,8.75547152 L12.3973386,7.79195886 C12.126769,7.63977532 12.030788,7.29686392 12.1831614,7.0262943 C12.3353449,6.75572468 12.6781614,6.65983861 12.948731,6.81211709 L12.948731,6.81221203 Z M7.0262943,8.43145253 L7.0262943,7.68202215 L5.6209462,7.68202215 C5.3105981,7.68202215 5.05892089,7.43034494 5.05892089,7.1199019 C5.05892089,6.80945886 5.3105981,6.55787658 5.6209462,6.55787658 L6.45069304,6.55787658 L5.18917405,5.04392089 C5.05873101,4.88974367 5.02085127,4.67756013 5.09015506,4.48797152 C5.15926899,4.29838291 5.32493354,4.16034494 5.52401582,4.12654747 C5.7230981,4.09275 5.92493354,4.16822468 6.05281329,4.32439557 L7.49471203,6.05442722 L8.93642089,4.32411076 C9.13531329,4.08553481 9.48971203,4.05325633 9.72828797,4.25214873 C9.96686392,4.45075633 9.99914241,4.80534494 9.80025,5.04392089 L8.53873101,6.55787658 L9.36838291,6.55787658 C9.56917405,6.55787658 9.75477532,6.66496519 9.85512342,6.8387943 C9.95556646,7.01271835 9.95556646,7.22699051 9.85512342,7.40100949 C9.75477532,7.57493354 9.56917405,7.68202215 9.36838291,7.68202215 L8.15043987,7.68202215 L8.15043987,8.43145253 L9.36838291,8.43145253 C9.67882595,8.43145253 9.93040823,8.68312975 9.93040823,8.99366772 C9.93040823,9.30401582 9.67882595,9.55569304 9.36838291,9.55569304 L8.15043987,9.55569304 L8.15043987,10.3051234 C8.15043987,10.6156614 7.89885759,10.8672437 7.58841456,10.8672437 C7.27797152,10.8672437 7.0262943,10.6156614 7.0262943,10.3051234 L7.0262943,9.55569304 L5.6209462,9.55569304 C5.3105981,9.55569304 5.05892089,9.30401582 5.05892089,8.99366772 C5.05892089,8.68312975 5.3105981,8.43145253 5.6209462,8.43145253 L7.0262943,8.43145253 Z" id="Fill-1" fill="#1890FF" mask="url(#mask-2)"></path>
                </g>
            </g>
        </g>
    </g>
</svg>