<svg width="17" height="16" viewBox="0 0 17 16" fill="none" xmlns="http://www.w3.org/2000/svg">
<g id="&#230;&#147;&#141;&#228;&#189;&#156;/&#233;&#133;&#141;&#231;&#189;&#174;">
<path id="Vector" d="M3.03863 1.13076C2.99831 1.13076 2.95965 1.14678 2.93114 1.17528C2.90264 1.20379 2.88662 1.24245 2.88662 1.28277V14.659C2.88662 14.7429 2.95472 14.811 3.03863 14.811H7.5987C7.71964 14.811 7.83563 14.859 7.92114 14.9445C8.00666 15.0301 8.05471 15.1461 8.05471 15.267C8.05471 15.3879 8.00666 15.5039 7.92114 15.5894C7.83563 15.675 7.71964 15.723 7.5987 15.723H3.03863C2.75643 15.723 2.48579 15.6109 2.28625 15.4114C2.08671 15.2118 1.97461 14.9412 1.97461 14.659V1.28277C1.97461 0.695429 2.45129 0.21875 3.03863 0.21875H11.7392L15.0468 3.52632V7.36286C15.0468 7.48381 14.9988 7.59979 14.9133 7.68531C14.8277 7.77083 14.7118 7.81887 14.5908 7.81887C14.4699 7.81887 14.3539 7.77083 14.2684 7.68531C14.1828 7.59979 14.1348 7.48381 14.1348 7.36286V4.17081L12.63 2.63559L11.0948 1.13076H3.03863Z" fill="#1890FF"/>
<path id="Vector_2" d="M5.01465 6.14351C5.01465 6.02257 5.06269 5.90658 5.14821 5.82106C5.23373 5.73554 5.34972 5.6875 5.47066 5.6875H11.5508C11.6717 5.6875 11.7877 5.73554 11.8732 5.82106C11.9587 5.90658 12.0068 6.02257 12.0068 6.14351C12.0068 6.26445 11.9587 6.38044 11.8732 6.46595C11.7877 6.55147 11.6717 6.59951 11.5508 6.59951H5.47066C5.34972 6.59951 5.23373 6.55147 5.14821 6.46595C5.06269 6.38044 5.01465 6.26445 5.01465 6.14351V6.14351ZM11.5508 11.6156L13.6788 10.7048L12.7668 12.8316L10.6387 13.7436L11.5508 11.6156Z" fill="#1890FF"/>
<path id="Vector_3" d="M12.1588 15.8742C13.1263 15.8742 14.0542 15.4899 14.7383 14.8057C15.4225 14.1216 15.8068 13.1937 15.8068 12.2262C15.8068 11.2587 15.4225 10.3308 14.7383 9.64662C14.0542 8.96247 13.1263 8.57812 12.1588 8.57812C11.1912 8.57812 10.2633 8.96247 9.5792 9.64662C8.89505 10.3308 8.5107 11.2587 8.5107 12.2262C8.5107 13.1937 8.89505 14.1216 9.5792 14.8057C10.2633 15.4899 11.1912 15.8742 12.1588 15.8742V15.8742ZM12.1588 14.9622C11.4331 14.9622 10.7372 14.674 10.2241 14.1609C9.71098 13.6478 9.42272 12.9518 9.42272 12.2262C9.42272 11.5005 9.71098 10.8046 10.2241 10.2915C10.7372 9.7784 11.4331 9.49014 12.1588 9.49014C12.8844 9.49014 13.5803 9.7784 14.0934 10.2915C14.6065 10.8046 14.8948 11.5005 14.8948 12.2262C14.8948 12.9518 14.6065 13.6478 14.0934 14.1609C13.5803 14.674 12.8844 14.9622 12.1588 14.9622V14.9622ZM5.47066 9.33814C5.34972 9.33814 5.23373 9.38618 5.14821 9.4717C5.06269 9.55722 5.01465 9.6732 5.01465 9.79414C5.01465 9.91509 5.06269 10.0311 5.14821 10.1166C5.23373 10.2021 5.34972 10.2502 5.47066 10.2502H7.29468C7.41563 10.2502 7.53161 10.2021 7.61713 10.1166C7.70265 10.0311 7.75069 9.91509 7.75069 9.79414C7.75069 9.6732 7.70265 9.55722 7.61713 9.4717C7.53161 9.38618 7.41563 9.33814 7.29468 9.33814H5.47066Z" fill="#1890FF"/>
</g>
</svg>
