<?xml version="1.0" encoding="UTF-8"?>
<svg width="16px" height="14px" viewBox="0 0 16 14" version="1.1" xmlns="http://www.w3.org/2000/svg" xmlns:xlink="http://www.w3.org/1999/xlink">
    <title>菜单栏_收缩</title>
    <g id="切图" stroke="none" stroke-width="1" fill="none" fill-rule="evenodd">
        <g transform="translate(-562.000000, -101.000000)" fill="#666666" fill-rule="nonzero" id="编组-15">
            <g transform="translate(350.000000, 77.000000)">
                <g id="编组" transform="translate(212.000000, 24.000000)">
                    <path d="M12.0102292,6.41320873 L15.0965844,4.25196262 C15.3358367,4.0765109 15.6628149,4.12436136 15.8462417,4.35563864 C15.9180174,4.44336449 15.9499177,4.55501559 15.9499177,4.67464174 L15.9499177,9.04498443 C15.9499177,9.46766355 15.471413,9.73084112 15.0965844,9.46766355 L12.0022541,7.30641744 C11.7390766,7.04323987 11.7390766,6.62056075 12.0102292,6.41320873 Z M15.314891,1.27725856 L0.640747664,1.27725856 C0.289844243,1.27725856 0.00274143925,0.990155757 0.00274143925,0.639252336 C0.00274143925,0.288348916 0.289844243,0.00124611215 0.640747664,0.00124611215 L15.314891,0.00124611215 C15.6657944,0.00124611215 15.9528972,0.288348916 15.9528972,0.639252336 C15.9528972,0.990155757 15.6737695,1.27725856 15.314891,1.27725856 Z M15.314891,13.7183801 L0.640747664,13.7183801 C0.289844243,13.7183801 0.00274143925,13.4312773 0.00274143925,13.0803738 C0.00274143925,12.7294704 0.289844243,12.4423676 0.640747664,12.4423676 L15.314891,12.4423676 C15.6657944,12.4423676 15.9528972,12.7294704 15.9528972,13.0803738 C15.9528972,13.4312773 15.6737695,13.7183801 15.314891,13.7183801 Z M9.891838,5.42429907 L0.640747664,5.42429907 C0.289844243,5.42429907 0.00274143925,5.13719626 0.00274143925,4.78629284 C0.00274143925,4.43538942 0.289844243,4.1482866 0.640747664,4.1482866 L9.891838,4.1482866 C10.2427414,4.1482866 10.5298442,4.4353894 10.5298442,4.78629284 C10.5298442,5.13719628 10.2507165,5.42429907 9.891838,5.42429907 Z M9.89981308,9.57133957 L0.640747664,9.57133957 C0.289844243,9.57133957 0.00274143925,9.28423677 0.00274143925,8.93333333 C0.00274143925,8.58242989 0.289844243,8.2953271 0.640747664,8.2953271 L9.89981308,8.2953271 C10.2507165,8.2953271 10.5378193,8.58242991 10.5378193,8.93333333 L10.5378193,8.94130841 C10.5298442,9.28423677 10.2507165,9.57133957 9.89981308,9.57133957 Z" id="形状"></path>
                </g>
            </g>
        </g>
    </g>
</svg>