<?xml version="1.0" encoding="UTF-8"?>
<svg width="77px" height="82px" viewBox="0 0 77 82" version="1.1" xmlns="http://www.w3.org/2000/svg" xmlns:xlink="http://www.w3.org/1999/xlink">
    <title>缺省页</title>
    <g id="切图" stroke="none" stroke-width="1" fill="none" fill-rule="evenodd">
        <g transform="translate(-2524.000000, -747.000000)" id="缺省页-暂无数据">
            <g transform="translate(2524.000000, 747.000000)" id="缺省页">
                <path d="M54.269,0 L54.27,4.05 C54.27,6.73410388 56.4458961,8.91 59.13,8.91 L59.13,8.91 L62.37,8.91 L62.37,8.91 L62.37,67.23 C62.37,69.9141039 60.1941039,72.09 57.51,72.09 L20.25,72.09 C17.5658961,72.09 15.39,69.9141039 15.39,67.23 L15.39,4.86 C15.39,2.17589612 17.5658961,4.93061885e-16 20.25,0 L54.269,0 Z" id="形状结合" fill="#EBECEF"></path>
                <path d="M49.41,4.05 L49.41,8.1 C49.41,10.7841039 51.5858961,12.96 54.27,12.96 L54.27,12.96 L58.32,12.96 L58.32,12.96 L58.32,71.28 C58.32,73.9641039 56.1441039,76.14 53.46,76.14 L13.77,76.14 C11.0858961,76.14 8.91,73.9641039 8.91,71.28 L8.91,8.91 C8.91,6.22589612 11.0858961,4.05 13.77,4.05 L49.41,4.05 Z" id="形状结合" fill="#F0F1F3"></path>
                <path d="M58.32,12.96 L54.27,12.96 C51.5858961,12.96 49.41,10.7841039 49.41,8.1 L49.41,3.24" id="路径" fill="#FFFFFF"></path>
                <path d="M14.985,12.15 L29.565,12.15 C30.236026,12.15 30.78,12.693974 30.78,13.365 C30.78,14.036026 30.236026,14.58 29.565,14.58 L14.985,14.58 C14.313974,14.58 13.77,14.036026 13.77,13.365 C13.77,12.693974 14.313974,12.15 14.985,12.15 Z" id="矩形" fill="#FDFDFD"></path>
                <path d="M14.985,18.63 L40.095,18.63 C40.766026,18.63 41.31,19.173974 41.31,19.845 C41.31,20.516026 40.766026,21.06 40.095,21.06 L14.985,21.06 C14.313974,21.06 13.77,20.516026 13.77,19.845 C13.77,19.173974 14.313974,18.63 14.985,18.63 Z" id="矩形备份" fill="#FDFDFD"></path>
                <path d="M5.67,78.57 C2.98589612,78.57 0.81,76.3941039 0.81,73.71 L0.81,42.93 C0.81,40.2458961 2.98589612,38.07 5.67,38.07 L8.91,38.07 L8.91,26.73 L30.78,26.73 C33.4641039,26.73 35.64,28.9058961 35.64,31.59 L35.64,38.07 L58.32,38.07 L58.32,73.71 C58.32,76.3941039 56.1441039,78.57 53.46,78.57 L5.67,78.57 Z" id="形状结合" fill="#D2D7DF"></path>
                <path d="M4.86,81 C2.17589612,81 2.99324318e-15,78.8241039 0,76.14 L0,34.02 C-3.28707923e-16,31.3358961 2.17589612,29.16 4.86,29.16 L28.35,29.16 C31.0341039,29.16 33.21,31.3358961 33.21,34.02 L33.21,40.5 L64.8,40.5 C67.4841039,40.5 69.66,42.6758961 69.66,45.36 L69.66,76.14 C69.66,78.8241039 67.4841039,81 64.8,81 L4.86,81 Z" id="形状结合" fill="#F0F1F3"></path>
                <g id="编组备份" transform="translate(41.310000, 48.600000)" opacity="0.162644159">
                    <circle id="椭圆形" stroke="#4E89BF" stroke-width="4.86" cx="13.77" cy="13.77" r="11.34"></circle>
                    <rect id="矩形" fill="#4E89BF" transform="translate(29.160000, 27.135000) rotate(-45.000000) translate(-29.160000, -27.135000) " x="26.73" y="21.87" width="4.86" height="10.53" rx="2.43"></rect>
                </g>
                <g id="编组" transform="translate(41.310000, 46.170000)">
                    <circle id="椭圆形" stroke="#ACD7FE" stroke-width="4.86" cx="13.77" cy="13.77" r="11.34"></circle>
                    <rect id="矩形" fill="#ACD7FE" transform="translate(29.160000, 27.135000) rotate(-45.000000) translate(-29.160000, -27.135000) " x="26.73" y="21.87" width="4.86" height="10.53" rx="2.43"></rect>
                </g>
                <path d="M6.885,46.17 L27.945,46.17 C28.616026,46.17 29.16,46.713974 29.16,47.385 C29.16,48.056026 28.616026,48.6 27.945,48.6 L6.885,48.6 C6.21397403,48.6 5.67,48.056026 5.67,47.385 C5.67,46.713974 6.21397403,46.17 6.885,46.17 Z" id="矩形" fill="#D2D4DF" transform="translate(17.415000, 47.385000) scale(-1, -1) translate(-17.415000, -47.385000) "></path>
                <path d="M6.885,52.65 L19.1971582,52.65 C19.8681842,52.65 20.4121582,53.193974 20.4121582,53.865 C20.4121582,54.536026 19.8681842,55.08 19.1971582,55.08 L6.885,55.08 C6.21397403,55.08 5.67,54.536026 5.67,53.865 C5.67,53.193974 6.21397403,52.65 6.885,52.65 Z" id="矩形备份" fill="#ACD7FE" transform="translate(13.041079, 53.865000) scale(-1, -1) translate(-13.041079, -53.865000) "></path>
            </g>
        </g>
    </g>
</svg>