<?xml version="1.0" encoding="UTF-8"?>
<svg width="32px" height="25px" viewBox="0 0 32 25" version="1.1" xmlns="http://www.w3.org/2000/svg" xmlns:xlink="http://www.w3.org/1999/xlink">
    <title>上传</title>
    <g id="切图" stroke="none" stroke-width="1" fill="none" fill-rule="evenodd">
        <g transform="translate(-1659.000000, -468.000000)" fill="#1890FF" fill-rule="nonzero" id="编组-5">
            <g transform="translate(1484.000000, 442.000000)">
                <g id="编组-3" transform="translate(41.877551, 0.000000)">
                    <g id="编组-2" transform="translate(73.285714, 26.000000)">
                        <g id="编组" transform="translate(60.822157, 0.000000)">
                            <path d="M25.9015266,24.3320983 L2.19133051,24.3320983 C0.982968258,24.3320983 0,23.3462559 0,22.1343604 L0,2.19773791 C0,0.985842434 0.982968258,0 2.19133051,0 L12.478062,0 C13.6864243,0 14.6693925,0.985842434 14.6693925,2.19773791 C14.6693925,2.54309672 14.38765,2.82566303 14.0432981,2.82566303 C13.6989462,2.82566303 13.4172037,2.54309672 13.4172037,2.19773791 C13.4172037,1.67656006 12.9977204,1.25585023 12.478062,1.25585023 L2.19133051,1.25585023 C1.67167213,1.25585023 1.25218886,1.67656006 1.25218886,2.19773791 L1.25218886,22.1343604 C1.25218886,22.6555382 1.67167213,23.076248 2.19133051,23.076248 L25.9015266,23.076248 C26.2458786,23.076248 26.5276211,23.3588144 26.5276211,23.7041732 C26.5276211,24.049532 26.2521395,24.3320983 25.9015266,24.3320983 Z" id="路径"></path>
                            <path d="M25.9015266,24.3320983 C25.5571747,24.3320983 25.2754322,24.049532 25.2754322,23.7041732 C25.2754322,23.3588144 25.5571747,23.076248 25.9015266,23.076248 C26.421185,23.076248 26.8406683,22.6555382 26.8406683,22.1343604 L26.8406683,9.21794072 C26.8406683,8.69676287 26.421185,8.27605304 25.9015266,8.27605304 L7.38165335,8.27605304 C6.86199497,8.27605304 6.4425117,8.69676287 6.4425117,9.21794072 L6.4425117,17.650975 C6.4425117,17.9963339 6.16076921,18.2789002 5.81641727,18.2789002 C5.47206533,18.2789002 5.19032284,17.9963339 5.19032284,17.650975 L5.19032284,9.21794072 C5.19032284,8.00604524 6.17329109,7.02020281 7.38165335,7.02020281 L25.9015266,7.02020281 C27.1098889,7.02020281 28.0928571,8.00604524 28.0928571,9.21794072 L28.0928571,22.1343604 C28.0928571,23.3462559 27.1098889,24.3320983 25.9015266,24.3320983 L25.9015266,24.3320983 Z M21.1995575,5.03595944 L15.6210561,5.03595944 C14.4126938,5.03595944 13.4297256,4.050117 13.4297256,2.83822153 L13.4297256,2.51170047 C13.4297256,2.16634165 13.7114681,1.88377535 14.05582,1.88377535 C14.4001719,1.88377535 14.6819144,2.16634165 14.6819144,2.51170047 L14.6819144,2.83822153 C14.6819144,3.35939938 15.1013977,3.7801092 15.6210561,3.7801092 L21.1995575,3.7801092 C21.5439094,3.7801092 21.8256519,4.06267551 21.8256519,4.40803432 C21.8256519,4.75339314 21.5439094,5.03595944 21.1995575,5.03595944 Z" id="形状"></path>
                            <path d="M4.25744213,24.3320983 L3.76282753,24.3320983 C3.4184756,24.3320983 3.1367331,24.049532 3.1367331,23.7041732 C3.1367331,23.3588144 3.4184756,23.076248 3.76282753,23.076248 L4.25744213,23.076248 C4.77710051,23.076248 5.19658378,22.6555382 5.19658378,22.1343604 L5.19658378,16.8409516 C5.19658378,16.4955928 5.47832628,16.2130265 5.82267821,16.2130265 C6.16703015,16.2130265 6.44877264,16.4955928 6.44877264,16.8409516 L6.44877264,22.1343604 C6.4425117,23.3462559 5.46580439,24.3320983 4.25744213,24.3320983 Z M23.8291541,8.28233229 C23.4848021,8.28233229 23.2030596,7.99976599 23.2030596,7.65440718 L23.2030596,5.98412637 C23.2030596,5.46294852 22.7835764,5.04223869 22.263918,5.04223869 L19.4339712,5.04223869 C19.0896192,5.04223869 18.8078767,4.75967239 18.8078767,4.41431357 C18.8078767,4.06895476 19.0896192,3.78638846 19.4339712,3.78638846 L22.263918,3.78638846 C23.4722802,3.78638846 24.4552485,4.77223089 24.4552485,5.98412637 L24.4552485,7.65440718 C24.4552485,7.99976599 24.173506,8.28233229 23.8291541,8.28233229 Z" id="形状"></path>
                            <path d="M16.9483763,19.7796412 C16.6040243,19.7796412 16.3222818,19.4970749 16.3222818,19.1517161 L16.3222818,12.4894306 C16.3222818,12.1440718 16.6040243,11.8615055 16.9483763,11.8615055 C17.2927282,11.8615055 17.5744707,12.1440718 17.5744707,12.4894306 L17.5744707,19.1517161 C17.5744707,19.4970749 17.2927282,19.7796412 16.9483763,19.7796412 L16.9483763,19.7796412 Z" id="路径"></path>
                            <path d="M19.6280604,15.8048752 C19.4652759,15.8048752 19.3087523,15.7420827 19.1835334,15.6227769 L16.5038492,12.9352574 C16.2596724,12.6903666 16.2596724,12.2947738 16.5038492,12.049883 C16.748026,11.8049922 17.1424655,11.8049922 17.3866424,12.049883 L20.0725875,14.7374025 C20.3167643,14.9822933 20.3167643,15.3778861 20.0725875,15.6227769 C19.9473686,15.7483619 19.790845,15.8048752 19.6280604,15.8048752 Z" id="路径"></path>
                            <path d="M14.2624312,15.8048752 C14.0996466,15.8048752 13.943123,15.7420827 13.8179041,15.6227769 C13.5737273,15.3778861 13.5737273,14.9822933 13.8179041,14.7374025 L16.5038492,12.0436037 C16.748026,11.7987129 17.1424655,11.7987129 17.3866424,12.0436037 C17.6308192,12.2884945 17.6308192,12.6840874 17.3866424,12.9289782 L14.7006973,15.6227769 C14.5817393,15.7483619 14.4252157,15.8048752 14.2624312,15.8048752 L14.2624312,15.8048752 Z" id="路径"></path>
                        </g>
                    </g>
                </g>
            </g>
        </g>
    </g>
</svg>