<?xml version="1.0" encoding="UTF-8"?>
<svg width="13px" height="14px" viewBox="0 0 13 14" version="1.1" xmlns="http://www.w3.org/2000/svg" xmlns:xlink="http://www.w3.org/1999/xlink">
    <title>修改税务经理</title>
    <g id="切图" stroke="none" stroke-width="1" fill="none" fill-rule="evenodd">
        <g transform="translate(-467.000000, -604.000000)" fill="#FFFFFF" fill-rule="nonzero" id="编组-3">
            <g transform="translate(307.000000, 360.000000)">
                <g id="btn/修改税务经理" transform="translate(142.000000, 235.000000)">
                    <g id="编组" transform="translate(18.000000, 9.000000)">
                        <path d="M8.77229535,0.197240464 C9.04378754,-0.073887309 9.4923874,-0.0651412518 9.77882076,0.221292121 L11.3250508,1.76752214 C11.6096621,2.05213341 11.6213235,2.50182653 11.3494669,2.77404756 L3.73675293,10.3867615 C3.60118904,10.521961 3.3420871,10.6728305 3.15222477,10.724578 L0.69749806,11.395109 C0.323239702,11.4975108 0.0976642995,11.2737575 0.192413258,10.9005924 L0.828688918,8.3933893 C0.876063389,8.20644233 1.02620405,7.94333177 1.15994583,7.80958998 L8.77265977,0.19687605 L8.77229535,0.197240464 Z M1.67523436,8.32524294 C1.62567338,8.37480393 1.53675512,8.53150413 1.519263,8.59892164 L1.021831,10.5594961 L2.93430218,10.0372836 C3.01010134,10.0165118 3.16716596,9.92540699 3.22146438,9.87110855 L10.8341783,2.2583946 L9.2879483,0.712528994 L1.67523436,8.32524294 L1.67523436,8.32524294 Z M8.7482437,1.2518692 L10.2944737,2.79809922 L9.77882076,3.31375218 L8.23295515,1.76752214 L8.7482437,1.25223361 L8.7482437,1.2518692 Z M2.56405242,7.43642488 L4.10991803,8.9826549 L3.5946295,9.49794343 L2.04839946,7.95207783 L2.56368801,7.43642488 L2.56405242,7.43642488 Z M0,13.1355744 C0,12.9344151 0.161073214,12.7711553 0.366605558,12.7711553 L11.659223,12.7711553 C11.8604861,12.7711553 12.0236421,12.9343113 12.0236421,13.1355744 C12.0236421,13.3368375 11.8604861,13.5 11.659223,13.5 L0.366605558,13.5 C0.269577331,13.5005756 0.176323213,13.4624387 0.107507753,13.3940337 C0.038692293,13.3256287 0,13.2326044 0,13.1355744 Z" id="形状"></path>
                    </g>
                </g>
            </g>
        </g>
    </g>
</svg>