<svg width="14" height="15" viewBox="0 0 14 15" fill="none" xmlns="http://www.w3.org/2000/svg">
<g id="Group 427318493">
<circle id="Ellipse 122" cx="7" cy="7" r="7" fill="#FAD344"/>
<path id="Vector" d="M8.80727 3.85413C9.07249 3.85413 9.32684 3.95948 9.51438 4.14702C9.70191 4.33456 9.80727 4.58891 9.80727 4.85413V9.14579C9.80727 9.41101 9.70191 9.66536 9.51438 9.8529C9.32684 10.0404 9.07249 10.1458 8.80727 10.1458H5.19269C4.92747 10.1458 4.67312 10.0404 4.48558 9.8529C4.29804 9.66536 4.19269 9.41101 4.19269 9.14579V4.85413C4.19269 4.58891 4.29804 4.33456 4.48558 4.14702C4.67312 3.95948 4.92747 3.85413 5.19269 3.85413H8.80727ZM7.1406 6.52079H6.1406L6.1016 6.52313C6.02059 6.53276 5.94592 6.57178 5.89174 6.63278C5.83757 6.69378 5.80764 6.77254 5.80764 6.85413C5.80764 6.93571 5.83757 7.01447 5.89174 7.07547C5.94592 7.13647 6.02059 7.17549 6.1016 7.18513L6.1406 7.18746H7.1406L7.1796 7.18513C7.26062 7.17549 7.33529 7.13647 7.38947 7.07547C7.44364 7.01447 7.47357 6.93571 7.47357 6.85413C7.47357 6.77254 7.44364 6.69378 7.38947 6.63278C7.33529 6.57178 7.26062 6.53276 7.1796 6.52313L7.1406 6.52079ZM8.1406 5.18746H6.1406L6.1016 5.18979C6.02059 5.19943 5.94592 5.23844 5.89174 5.29945C5.83757 5.36045 5.80764 5.4392 5.80764 5.52079C5.80764 5.60238 5.83757 5.68113 5.89174 5.74214C5.94592 5.80314 6.02059 5.84216 6.1016 5.85179L6.1406 5.85413H8.1406L8.1796 5.85179C8.26062 5.84216 8.33529 5.80314 8.38947 5.74214C8.44364 5.68113 8.47357 5.60238 8.47357 5.52079C8.47357 5.4392 8.44364 5.36045 8.38947 5.29945C8.33529 5.23844 8.26062 5.19943 8.1796 5.18979L8.1406 5.18746Z" fill="white"/>
</g>
</svg>
