<svg width="141" height="130" viewBox="0 0 141 130" fill="none" xmlns="http://www.w3.org/2000/svg">
<g id="empty/basic">
<g id=".components/empty-img-gray">
<g id="empty-img-default">
<g id="Group">
<path id="Vector" d="M70.6033 99.4921C95.237 99.4921 115.207 95.7608 115.207 91.1579C115.207 86.5551 95.237 82.8237 70.6033 82.8237C45.9696 82.8237 26 86.5551 26 91.1579C26 95.7608 45.9696 99.4921 70.6033 99.4921Z" fill="#F5F5F7" fill-opacity="0.8"/>
<path id="Vector_2" fill-rule="evenodd" clip-rule="evenodd" d="M106.285 66.6738L90.5452 47.3021C89.79 46.3902 88.686 45.8383 87.5235 45.8383H53.6814C52.5196 45.8383 51.4156 46.3902 50.6604 47.3021L34.9209 66.6738V76.7942H106.286V66.6738H106.285Z" fill="#AEB8C2"/>
<path id="Vector_3" fill-rule="evenodd" clip-rule="evenodd" d="M48.2566 20.8356H92.9493C93.6473 20.8356 94.3166 21.1128 94.8102 21.6063C95.3037 22.0999 95.5809 22.7692 95.5809 23.4671V84.8777C95.5809 85.5756 95.3037 86.2449 94.8102 86.7385C94.3166 87.232 93.6473 87.5092 92.9493 87.5092H48.2566C47.5586 87.5092 46.8893 87.232 46.3958 86.7385C45.9023 86.2449 45.625 85.5756 45.625 84.8777V23.4671C45.625 22.7692 45.9023 22.0999 46.3958 21.6063C46.8893 21.1128 47.5586 20.8356 48.2566 20.8356V20.8356Z" fill="#F5F5F7"/>
<path id="Vector_4" fill-rule="evenodd" clip-rule="evenodd" d="M54.0777 27.3835H87.1283C87.4773 27.3835 87.812 27.5222 88.0587 27.7689C88.3055 28.0157 88.4441 28.3504 88.4441 28.6993V45.1184C88.4441 45.4674 88.3055 45.8021 88.0587 46.0488C87.812 46.2956 87.4773 46.4342 87.1283 46.4342H54.0777C53.7287 46.4342 53.394 46.2956 53.1472 46.0488C52.9005 45.8021 52.7619 45.4674 52.7619 45.1184V28.6993C52.7619 28.3504 52.9005 28.0157 53.1472 27.7689C53.394 27.5222 53.7287 27.3835 54.0777 27.3835ZM54.25 53.577H86.9559C87.3506 53.577 87.7291 53.7338 88.0082 54.0128C88.2873 54.2919 88.4441 54.6704 88.4441 55.0651C88.4441 55.4598 88.2873 55.8383 88.0082 56.1174C87.7291 56.3965 87.3506 56.5533 86.9559 56.5533H54.25C53.8553 56.5533 53.4768 56.3965 53.1977 56.1174C52.9186 55.8383 52.7619 55.4598 52.7619 55.0651C52.7619 54.6704 52.9186 54.2919 53.1977 54.0128C53.4768 53.7338 53.8553 53.577 54.25 53.577ZM54.25 61.3158H86.9559C87.3507 61.3158 87.7293 61.4726 88.0085 61.7518C88.2876 62.0309 88.4444 62.4095 88.4444 62.8043C88.4444 63.199 88.2876 63.5776 88.0085 63.8568C87.7293 64.1359 87.3507 64.2928 86.9559 64.2928H54.25C53.8552 64.2928 53.4766 64.1359 53.1975 63.8568C52.9184 63.5776 52.7615 63.199 52.7615 62.8043C52.7615 62.4095 52.9184 62.0309 53.1975 61.7518C53.4766 61.4726 53.8552 61.3158 54.25 61.3158ZM106.14 89.9355C105.63 91.9559 103.84 93.4618 101.709 93.4618H39.4967C37.3665 93.4618 35.5757 91.9553 35.0665 89.9355C34.9693 89.5505 34.9203 89.1549 34.9204 88.7579V66.6743H52.2349C54.1474 66.6743 55.6888 68.2849 55.6888 70.2401V70.2664C55.6888 72.221 57.248 73.7993 59.1605 73.7993H82.0454C83.9579 73.7993 85.5171 72.2066 85.5171 70.2513V70.2434C85.5171 68.2881 87.0586 66.6737 88.9711 66.6737H106.286V88.7585C106.286 89.1645 106.235 89.5585 106.14 89.9355Z" fill="#DCE0E6"/>
</g>
<path id="Vector_5" fill-rule="evenodd" clip-rule="evenodd" d="M108.317 21.9026L103.823 23.6461C103.708 23.6909 103.582 23.7023 103.46 23.6789C103.339 23.6555 103.226 23.5982 103.136 23.5137C103.045 23.4292 102.98 23.3208 102.949 23.2011C102.917 23.0813 102.92 22.9551 102.957 22.8368L104.231 18.7533C102.528 16.8164 101.528 14.4546 101.528 11.9059C101.528 5.33026 108.184 0 116.396 0C124.606 0 131.263 5.33026 131.263 11.9059C131.263 18.4816 124.607 23.8118 116.396 23.8118C113.417 23.8118 110.643 23.1105 108.317 21.9026Z" fill="#DCE0E6"/>
<g id="Group_2">
<path id="Vector_6" d="M122.253 14.0559C123.288 14.0559 124.127 13.2267 124.127 12.2039C124.127 11.1811 123.288 10.3519 122.253 10.3519C121.218 10.3519 120.378 11.1811 120.378 12.2039C120.378 13.2267 121.218 14.0559 122.253 14.0559Z" fill="white"/>
<path id="Vector_7" fill-rule="evenodd" clip-rule="evenodd" d="M112.413 13.8243H108.665L110.571 10.5835L112.413 13.8243ZM114.756 10.5835H118.036V13.8243H114.756V10.5835Z" fill="white"/>
</g>
</g>
</g>
<path id="No Data" d="M46.9275 119.898H47.9075V118.68C48.6495 118.61 49.3215 118.54 49.8535 118.484L49.8395 118.176L49.8255 117.686C49.3075 117.742 48.6355 117.812 47.9075 117.868V116.916H49.6995V116.132H47.9075V115.124L46.9275 115.082V116.132H45.5975C45.8915 115.726 46.1995 115.18 46.4935 114.62H49.9095V113.822H46.8995C47.0815 113.458 47.2355 113.108 47.3615 112.814L46.4235 112.59C46.2975 112.926 46.1015 113.36 45.8775 113.822H43.9875V114.62H45.4575C45.1215 115.236 44.7715 115.824 44.4635 116.216V116.916H46.9275V117.952C45.7795 118.05 44.5755 118.134 43.6655 118.19L43.7915 119.03C44.6875 118.96 45.8215 118.862 46.9275 118.764V119.898ZM56.0695 116.146H51.3375V114.704C52.5695 114.578 54.0395 114.34 55.3975 113.99L55.1315 113.08C53.6335 113.444 52.0095 113.724 50.3855 113.822V115.978C50.3855 117.742 50.3155 118.344 49.2655 119.548L50.0775 120.038C50.9455 118.96 51.2395 118.232 51.3235 117H53.1995V119.744H54.2075V117H56.0695V116.146ZM45.5415 125.386H46.6055V124.714H53.0735V125.372H54.1515V120.164H45.5415V125.386ZM53.0735 120.99V122.054H46.6055V120.99H53.0735ZM46.6055 123.958V122.852H53.0735V123.958H46.6055ZM69.1928 118.428V117.42H63.6488C63.6768 117.07 63.7048 116.72 63.7188 116.342C63.7328 116.118 63.7608 115.222 63.7608 114.634H68.3668V113.626H58.7628V114.634H62.6688C62.6548 115.208 62.6408 116.048 62.6268 116.258C62.6128 116.664 62.5708 117.056 62.5288 117.42H57.9368V118.428H62.3608C61.8008 121.018 60.3448 122.768 57.3068 124.504L57.9928 125.4C61.3248 123.37 62.9488 121.438 63.5088 118.428H69.1928ZM68.5348 121.774C68.5348 122.096 68.4928 122.628 68.4508 122.936C68.3528 123.706 68.1848 123.874 67.3028 123.93C66.8408 123.958 66.3088 123.958 65.8188 123.93C65.0768 123.888 64.7828 123.664 64.7828 122.922V119.086L63.6908 119.044V123.216C63.6908 124.504 64.2368 124.868 65.4548 124.924C66.1408 124.952 66.8688 124.952 67.5548 124.924C68.9548 124.868 69.2908 124.56 69.4588 123.384C69.5148 123.006 69.5708 122.474 69.5848 122.096L68.5348 121.774ZM79.572 112.73L78.564 112.688V116.622H75.512V125.246H76.52V122.376H81.616V123.314C81.616 123.986 81.56 124.07 80.72 124.154L79.712 124.252L80.048 125.26L81.014 125.176C82.316 125.064 82.624 124.84 82.624 123.65V116.622H79.572V112.73ZM71.83 113.99C72.488 114.41 73.65 115.306 74.266 115.95L74.84 114.984C74.266 114.452 73.104 113.598 72.404 113.164L71.83 113.99ZM77.752 115.474C77.29 114.83 76.296 113.71 75.736 113.178L75.064 113.822C75.652 114.368 76.52 115.418 77.038 116.174L77.752 115.474ZM83.058 113.878L82.33 113.234C81.798 114.004 80.958 114.956 80.314 115.572L81.042 116.216C81.686 115.586 82.554 114.564 83.058 113.878ZM73.636 119.114L74.238 118.092C73.636 117.532 72.404 116.58 71.704 116.174L71.13 117.014C71.83 117.448 73.062 118.414 73.636 119.114ZM81.616 119.03H76.52V117.588H81.616V119.03ZM76.52 121.452V119.968H81.616V121.452H76.52ZM73.258 120.094C73.006 121.382 72.18 123.804 71.648 124.938L72.684 125.26C73.202 124.112 73.972 121.718 74.28 120.43L73.258 120.094ZM90.3153 121.088C90.7633 121.62 91.4493 122.614 91.7853 123.328L92.5973 122.698C92.3033 122.138 91.6033 121.214 91.1133 120.626H95.3833V113.99H90.8893C91.0433 113.584 91.1973 113.164 91.2812 112.898L90.1613 112.674C90.0493 113.01 89.8813 113.528 89.7133 113.99H86.6193V120.626H91.0153L90.3153 121.088ZM94.3473 114.858V115.852H87.6553V114.858H94.3473ZM94.3473 117.77H87.6553V116.72H94.3473V117.77ZM87.6553 118.638H94.3473V119.758H87.6553V118.638ZM95.1873 121.116L94.4453 121.648C95.0193 122.348 96.0273 123.72 96.5453 124.742L97.3433 124.042C96.7413 123.076 95.8593 121.844 95.1873 121.116ZM93.1433 123.328C93.0593 123.972 92.9613 124.07 92.1633 124.112C91.4493 124.154 90.7493 124.154 90.0353 124.112C89.3353 124.07 89.2373 123.916 89.2373 123.23V121.298L88.1873 121.242V123.44C88.1873 124.7 88.4813 124.98 89.6433 125.05C90.5813 125.106 91.4772 125.106 92.4153 125.05C93.6053 124.98 93.8993 124.826 94.0953 123.734C94.1513 123.426 94.1933 123.104 94.2213 122.796L93.2273 122.39C93.2133 122.698 93.1853 123.02 93.1433 123.328ZM84.7573 124.476L85.6253 124.896C86.2133 123.972 86.8013 122.698 87.1233 121.578L86.1713 121.256C85.8773 122.334 85.3453 123.594 84.7573 124.476Z" fill="black" fill-opacity="0.6"/>
</g>
</svg>
