<svg width="14" height="15" viewBox="0 0 14 15" fill="none" xmlns="http://www.w3.org/2000/svg">
<g id="Group 427318501">
<circle id="Ellipse 122" cx="7" cy="7" r="7" fill="#4A74F7"/>
<path id="Subtract" fill-rule="evenodd" clip-rule="evenodd" d="M5.19495 3.85498C4.64266 3.85498 4.19495 4.3027 4.19495 4.85498V9.14498C4.19495 9.69727 4.64266 10.145 5.19495 10.145H8.80495C9.35723 10.145 9.80495 9.69726 9.80495 9.14498V4.85498C9.80495 4.3027 9.35723 3.85498 8.80495 3.85498H5.19495ZM5.8489 5.34114C5.81075 5.27448 5.85888 5.19147 5.93569 5.19147H6.33394C6.37121 5.19147 6.40539 5.2122 6.42262 5.24526L6.90923 6.17896C6.94638 6.25024 7.04819 6.25078 7.08609 6.1799L7.58642 5.24431C7.60382 5.21178 7.63771 5.19147 7.6746 5.19147H8.07183C8.14903 5.19147 8.19712 5.27523 8.15819 5.3419L7.54376 6.3942C7.50483 6.46086 7.55292 6.54462 7.63012 6.54462H8.30613C8.36136 6.54462 8.40613 6.58939 8.40613 6.64462V6.90498C8.40613 6.96021 8.36136 7.00498 8.30613 7.00498H7.37737C7.32214 7.00498 7.27737 7.04975 7.27737 7.10498V7.29359C7.27737 7.34882 7.32214 7.39359 7.37737 7.39359H8.30613C8.36136 7.39359 8.40613 7.43836 8.40613 7.49359V7.75195C8.40613 7.80718 8.36136 7.85195 8.30613 7.85195H7.37737C7.32214 7.85195 7.27737 7.89672 7.27737 7.95195V8.70852C7.27737 8.76375 7.2326 8.80852 7.17737 8.80852H6.81618C6.76095 8.80852 6.71618 8.76375 6.71618 8.70852V7.95195C6.71618 7.89672 6.67141 7.85195 6.61618 7.85195H5.69379C5.63856 7.85195 5.59379 7.80718 5.59379 7.75195V7.49359C5.59379 7.43836 5.63856 7.39359 5.69379 7.39359H6.61618C6.67141 7.39359 6.71618 7.34882 6.71618 7.29359V7.10498C6.71618 7.04975 6.67141 7.00498 6.61618 7.00498H5.69379C5.63856 7.00498 5.59379 6.96021 5.59379 6.90498V6.64462C5.59379 6.58939 5.63856 6.54462 5.69379 6.54462H6.36517C6.44198 6.54462 6.49012 6.46162 6.45196 6.39495L5.8489 5.34114Z" fill="white"/>
</g>
</svg>
