<?xml version="1.0" encoding="UTF-8"?>
<svg width="15px" height="15px" viewBox="0 0 15 15" version="1.1" xmlns="http://www.w3.org/2000/svg" xmlns:xlink="http://www.w3.org/1999/xlink">
    <title>操作_无需处理</title>
    <defs>
        <polygon id="path-1" points="0 0.0430871454 12.8884307 0.0430871454 12.8884307 14.418558 0 14.418558"></polygon>
    </defs>
    <g id="切图" stroke="none" stroke-width="1" fill="none" fill-rule="evenodd">
        <g transform="translate(-574.000000, -233.000000)" id="编组-4">
            <g transform="translate(307.000000, 137.000000)">
                <g id="编组" transform="translate(267.000000, 96.000000)">
                    <g transform="translate(1.000000, 0.050559)">
                        <mask id="mask-2" fill="white">
                            <use xlink:href="#path-1"></use>
                        </mask>
                        <g id="Clip-2"></g>
                        <path d="M7.14095002,14.4185767 L1.32025305,14.4185767 C0.591179603,14.4185767 -7.49016e-05,13.8274158 -7.49016e-05,13.0983424 L-7.49016e-05,1.38738361 C-7.49016e-05,0.64464062 0.601478573,0.0430871454 1.34431519,0.0430871454 L11.5424489,0.0430871454 C12.3472666,0.0430871454 12.8884307,0.606628058 12.8884307,1.4476794 L12.8884307,4.77705552 C12.8884307,5.07872171 12.6435961,5.32336906 12.3438024,5.32336906 C12.0422298,5.32336906 11.7974889,5.07872171 11.7974889,4.77705552 L11.7974889,1.44608774 C11.7974889,1.13412258 11.6801742,1.13412258 11.5440406,1.13412258 L1.34431519,1.13412258 C1.20818153,1.13412258 1.09264582,1.24956467 1.09264582,1.38738361 L1.09264582,13.0966571 C1.09264582,13.2224918 1.19610365,13.325856 1.32193834,13.325856 L7.13065105,13.325856 C7.42866579,13.325856 7.67864988,13.5584255 7.68726356,13.8567211 C7.69419196,14.1651284 7.44767207,14.4185767 7.14095002,14.4185767" id="Fill-1" fill="#1890FF" mask="url(#mask-2)"></path>
                    </g>
                    <path d="M14.4251194,11.2336015 L8.32213699,11.2336015 C8.02056442,11.2336015 7.77572981,10.9888605 7.77572981,10.687288 C7.77572981,10.3856218 8.02056442,10.1409744 8.32213699,10.1409744 L14.4251194,10.1409744 C14.7267855,10.1409744 14.9714329,10.3856218 14.9714329,10.687288 C14.9697476,10.9888605 14.7267855,11.2336015 14.4251194,11.2336015" id="Fill-3" fill="#1890FF" transform="translate(11.373581, 10.687288) rotate(-315.000000) translate(-11.373581, -10.687288) "></path>
                    <path d="M10.6817715,4.25588082 L4.05410338,4.25588082 C3.75243718,4.25588082 3.50769621,4.01113985 3.50769621,3.70956728 C3.50769621,3.40790108 3.75243718,3.16325373 4.05410338,3.16325373 L10.6817715,3.16325373 C10.9834376,3.16325373 11.2281786,3.40790108 11.2281786,3.70956728 C11.2281786,4.01113985 10.9834376,4.25588082 10.6817715,4.25588082" id="Fill-5" fill="#1890FF"></path>
                    <path d="M8.80923145,6.69809431 L4.05410338,6.69809431 C3.75243718,6.69809431 3.50769621,6.45335333 3.50769621,6.15178076 C3.50769621,5.85011457 3.75243718,5.60546722 4.05410338,5.60546722 L8.80923145,5.60546722 C9.11089765,5.60546722 9.35563863,5.85011457 9.35563863,6.15178076 C9.35563863,6.45335333 9.11089765,6.69809431 8.80923145,6.69809431" id="Fill-7" fill="#1890FF"></path>
                    <path d="M6.13253851,9.14029842 L4.05411274,9.14029842 C3.75244655,9.14029842 3.50770557,8.89555745 3.50770557,8.59398488 C3.50770557,8.29231869 3.75244655,8.04767133 4.05411274,8.04767133 L6.13253851,8.04767133 C6.43420471,8.04767133 6.67903931,8.29231869 6.67903931,8.59398488 C6.67903931,8.89724273 6.43420471,9.14029842 6.13253851,9.14029842" id="Fill-9" fill="#1890FF"></path>
                    <path d="M11.3730588,14.2837275 C11.0713926,14.2837275 10.8266516,14.0388929 10.8266516,13.7373204 L10.8266516,7.63602327 C10.8266516,7.3344507 11.0713926,7.08970973 11.3730588,7.08970973 C11.674725,7.08970973 11.9193724,7.3344507 11.9193724,7.63602327 L11.9193724,13.7373204 C11.9193724,14.0388929 11.674725,14.2837275 11.3730588,14.2837275" id="Fill-11" fill="#1890FF" transform="translate(11.373012, 10.686719) rotate(-315.000000) translate(-11.373012, -10.686719) "></path>
                </g>
            </g>
        </g>
    </g>
</svg>