<?xml version="1.0" encoding="UTF-8"?>
<svg width="16px" height="16px" viewBox="0 0 16 16" version="1.1" xmlns="http://www.w3.org/2000/svg" xmlns:xlink="http://www.w3.org/1999/xlink">
    <title>操作_提交</title>
    <g id="切图" stroke="none" stroke-width="1" fill="none" fill-rule="evenodd">
        <g transform="translate(-511.000000, -233.000000)" fill="#1890FF" fill-rule="nonzero" id="编组-4">
            <g transform="translate(307.000000, 137.000000)">
                <g id="编组" transform="translate(204.000000, 96.000000)">
                    <path d="M14.996874,13.8076396 L14.996874,4.34397649 C14.996874,4.16219393 14.931227,3.98667973 14.8140002,3.84877571 L11.7598526,0.266405485 C11.6160545,0.0971596474 11.4034833,0 11.181534,0 L2.68493915,0 C1.75806632,0 1,0.760039177 1,1.68932419 L1,14.3106758 C1,15.2399608 1.75806632,16 2.68493915,16 L13.3150608,16 C14.2419337,16 15,15.2399608 15,14.3091087 L15,13.8076396 L14.996874,13.8076396 Z M13.996539,14.3764936 C13.9637155,14.7243879 13.6698671,14.9970617 13.3150608,14.9970617 L2.68493915,14.9970617 C2.30668751,14.9970617 2.00033493,14.6899119 2.00033493,14.3106758 L2.00033493,1.68932419 C2.00033493,1.31008815 2.30668751,1.0029383 2.68493915,1.0029383 L10.8704924,1.0029383 C11.0017863,1.0029383 11.1268282,1.06092067 11.2127945,1.1612145 L13.8886904,4.31263467 C13.9590265,4.39412341 13.996539,4.49911851 13.996539,4.60568071 L13.996539,14.3764936 Z" id="形状"></path>
                    <path d="M11.3440884,6.20411361 L7.15049682,9.8993144 L4.80752484,7.26033301 C4.62621413,7.05661117 4.31673551,7.03937316 4.11354248,7.21958864 C3.91034945,7.4013712 3.89315619,7.71165524 4.07290387,7.91537708 L6.6065647,10.76905 C6.85977448,11.0558276 7.29742101,11.0824682 7.58345428,10.8301665 L11.9927431,6.9453477 C12.1974992,6.76513222 12.2178185,6.4532811 12.0380708,6.24955926 C11.8583231,6.04427032 11.5472815,6.02389814 11.3440884,6.20411361 L11.3440884,6.20411361 Z" id="路径"></path>
                </g>
            </g>
        </g>
    </g>
</svg>