<svg width="117" height="24" viewBox="0 0 117 24" fill="none" xmlns="http://www.w3.org/2000/svg">
<rect x="0.75" y="0.25" width="115.5" height="23.5" rx="1.75" fill="#1890FF" fill-opacity="0.1"/>
<g clip-path="url(#clip0_1273_69540)">
<path d="M22.5496 11.3472H22.8832C22.927 10.3776 22.7364 9.41174 22.3275 8.53149C21.8656 7.54021 21.1462 6.69106 20.2442 6.07263C19.3423 5.4542 18.2909 5.08916 17.1998 5.01559C16.1411 4.94073 15.0808 5.13634 14.1185 5.58404C11.0085 7.02589 9.63992 10.6831 11.0626 13.7527C12.4854 16.8224 16.1628 18.142 19.2706 16.7012C19.7443 16.4818 20.1887 16.2042 20.5935 15.8746C20.5656 15.7707 20.5527 15.6634 20.5552 15.5558C20.5478 15.4095 20.5762 15.2636 20.6381 15.1308C20.6583 14.4423 20.1302 13.8983 19.9613 13.7421C19.668 13.4722 18.9455 13.1142 17.8139 12.6796C17.5122 12.5595 17.4516 12.3906 17.2997 11.8742L17.2827 11.8158C17.1764 11.4619 17.1711 11.2282 18.2166 10.529C18.7479 10.1742 19.0018 10.3303 19.3557 10.5471L19.4736 10.6172C19.7036 10.7654 19.9768 10.832 20.2492 10.8064C20.3693 10.8064 20.5191 10.8064 20.7284 10.8191C21.1715 10.8552 21.3118 11.0582 21.5179 11.4917C21.7538 11.3854 22.081 11.3472 22.5496 11.3472ZM16.0873 6.9122C16.0576 7.06095 16.0353 7.19908 16.0151 7.32552C15.9481 7.75053 15.9088 7.93753 15.7239 8.05441C15.6044 8.1198 15.4796 8.17523 15.351 8.22017C14.9621 8.37211 14.4308 8.57824 14.4755 9.09463C14.501 9.42295 14.8335 10.1901 15.3542 10.427C15.4039 10.4599 15.4453 10.5039 15.475 10.5555C15.5047 10.6072 15.5219 10.6651 15.5252 10.7245C15.549 10.852 15.5357 10.9837 15.487 11.1039C15.3583 11.0706 15.2337 11.0236 15.1151 10.9636C14.824 10.834 14.4627 10.6725 14.1174 10.7299C13.9931 10.7511 13.8592 10.783 13.7285 10.8127C13.3651 10.8977 12.9539 10.9944 12.7807 10.851C12.6543 10.7447 12.5682 10.5598 12.4779 10.3633C12.3688 10.0824 12.1999 9.82856 11.9828 9.61951C11.8889 9.53794 11.7784 9.47781 11.659 9.44331C11.5395 9.40881 11.414 9.40078 11.2911 9.41976C11.678 8.26757 12.4195 7.2673 13.4094 6.56211C14.3994 5.85692 15.587 5.48295 16.8024 5.49373C16.5368 5.89961 16.1702 6.51375 16.0873 6.9122Z" fill="#1890FF"/>
<path d="M26.2566 12.0889H22.8151C22.3327 12.0942 22.0383 12.159 21.8588 12.3364C21.6792 12.5139 21.6197 12.8379 21.6187 13.3405H21.6516H21.624C21.3456 13.3405 21.268 13.5679 21.268 13.8484C21.2528 14.0012 21.2982 14.1538 21.3945 14.2734C21.4566 14.3295 21.5382 14.3589 21.6218 14.3552V15.0108C21.3456 15.0108 21.268 15.2393 21.268 15.5187C21.268 15.7981 21.3456 16.0245 21.6218 16.0255V16.6875C21.3456 16.6875 21.268 16.9159 21.268 17.1954C21.268 17.4748 21.2861 17.7659 21.5645 17.7659H21.6165C21.624 18.65 21.829 18.8125 22.8916 18.8125H26.2566C27.1916 18.8125 27.4997 18.5926 27.4997 17.7107V13.3405C27.4997 12.2737 27.2203 12.0889 26.2566 12.0889ZM25.4374 16.7884C25.2454 16.9347 25.0159 17.0235 24.7754 17.0445V17.4695H24.3185V17.037C24.0828 17.019 23.8577 16.9318 23.6715 16.7863C23.5775 16.7124 23.4994 16.6205 23.4415 16.5159C23.3837 16.4114 23.3473 16.2963 23.3346 16.1775L24.021 16.0096C24.021 16.2348 24.2537 16.4941 24.6012 16.4941C24.8084 16.4941 25.0549 16.3878 25.0527 16.1222C25.0527 15.9023 24.8179 15.745 24.5661 15.6876C24.3143 15.6303 23.7777 15.4496 23.6321 15.2892C23.4866 15.1288 23.4441 14.9046 23.4441 14.6411C23.4439 14.5289 23.4674 14.418 23.5132 14.3156C23.559 14.2132 23.626 14.1217 23.7097 14.0471C23.882 13.9027 24.0946 13.8148 24.3185 13.7953V13.4308H24.7754V13.7932C24.9996 13.8082 25.2138 13.8912 25.3896 14.0312C25.5524 14.1582 25.6592 14.3439 25.6871 14.5486L25.0017 14.7091C25.0017 14.5401 24.7478 14.3319 24.5767 14.3319C24.3525 14.3319 24.1762 14.3945 24.1762 14.6751C24.1762 14.8759 24.3281 14.9417 24.5937 15.0268C25.04 15.1691 25.3779 15.354 25.5341 15.5134C25.6113 15.5939 25.6717 15.6891 25.7117 15.7932C25.7516 15.8974 25.7704 16.0086 25.7668 16.1201C25.7732 16.2503 25.7463 16.38 25.6886 16.4969C25.631 16.6139 25.5445 16.7142 25.4374 16.7884Z" fill="#1890FF"/>
</g>
<path d="M32.436 7.432H33.408V16H32.436V7.432ZM37.9957 9.628C39.5317 9.628 40.3117 10.48 40.3117 12.184V16H39.3517V12.256C39.3517 11.044 38.7997 10.444 37.7197 10.444C37.2877 10.444 36.9157 10.6 36.6037 10.912C36.2677 11.248 36.0877 11.692 36.0517 12.256V16H35.0917V9.796H36.0517V10.708C36.2677 10.36 36.5437 10.096 36.8797 9.916C37.2157 9.724 37.5877 9.628 37.9957 9.628ZM43.4508 7.792V9.796H44.9868V10.6H43.4508V14.548C43.4508 14.776 43.4868 14.944 43.5828 15.04C43.6668 15.136 43.8228 15.196 44.0388 15.196H44.8308V16H43.8948C43.3908 16 43.0188 15.868 42.8028 15.604C42.5988 15.364 42.5028 15.016 42.5028 14.548V10.6H41.2548V9.796H42.5028V8.188L43.4508 7.792ZM46.2524 7.264H47.2004V16H46.2524V7.264ZM55.8447 9.628C56.7327 9.628 57.4407 9.952 57.9567 10.624C58.4247 11.224 58.6647 11.98 58.6647 12.916C58.6647 13.828 58.4247 14.584 57.9687 15.184C57.4647 15.832 56.7807 16.168 55.8927 16.168C55.0047 16.168 54.3207 15.736 53.8407 14.872V18.376H52.8807V9.796H53.7807V10.816C54.2247 10.024 54.9087 9.628 55.8447 9.628ZM55.7247 10.42C55.1007 10.42 54.6087 10.66 54.2727 11.152C53.9607 11.584 53.8047 12.16 53.8047 12.856V12.976C53.8047 13.696 53.9727 14.272 54.3327 14.716C54.6687 15.148 55.1127 15.376 55.6887 15.376C56.3607 15.376 56.8647 15.136 57.2127 14.68C57.5247 14.248 57.6807 13.66 57.6807 12.916C57.6807 12.184 57.5247 11.596 57.2367 11.164C56.8887 10.66 56.3847 10.42 55.7247 10.42ZM62.612 9.628C63.5 9.628 64.148 9.856 64.58 10.324C64.94 10.732 65.132 11.296 65.132 12.016V16H64.232V14.956C63.992 15.292 63.668 15.568 63.284 15.784C62.828 16.036 62.312 16.168 61.736 16.168C61.112 16.168 60.62 16.012 60.248 15.7C59.864 15.376 59.672 14.956 59.672 14.452C59.672 13.744 59.948 13.216 60.524 12.856C61.028 12.52 61.748 12.34 62.684 12.328L64.172 12.304V11.98C64.172 10.936 63.632 10.42 62.552 10.42C62.096 10.42 61.724 10.504 61.436 10.696C61.112 10.888 60.908 11.188 60.812 11.584L59.864 11.512C59.996 10.864 60.32 10.372 60.824 10.06C61.28 9.772 61.868 9.628 62.612 9.628ZM64.172 13.024L62.744 13.048C61.352 13.072 60.656 13.528 60.656 14.428C60.656 14.716 60.764 14.944 61.004 15.136C61.244 15.316 61.556 15.412 61.94 15.412C62.528 15.412 63.044 15.22 63.5 14.836C63.944 14.464 64.172 14.032 64.172 13.552V13.024ZM65.9311 9.796H66.9751L68.8711 14.692L70.7071 9.796H71.7631L68.3671 18.376H67.3231L68.3911 15.856L65.9311 9.796ZM75.2802 9.628C76.2282 9.628 76.8762 10.012 77.2242 10.804C77.4642 10.396 77.7522 10.096 78.0882 9.916C78.3882 9.724 78.7482 9.628 79.1802 9.628C79.8282 9.628 80.3442 9.832 80.7522 10.24C81.1362 10.66 81.3402 11.224 81.3402 11.932V16H80.3802V12.088C80.3802 11.536 80.2602 11.128 80.0322 10.864C79.7922 10.576 79.4082 10.444 78.8802 10.444C78.4722 10.444 78.1242 10.588 77.8602 10.9C77.5722 11.212 77.4402 11.608 77.4402 12.112V16H76.4802V12.088C76.4802 10.984 76.0002 10.444 75.0522 10.444C74.6082 10.444 74.2482 10.612 73.9602 10.972C73.6722 11.308 73.5282 11.728 73.5282 12.22V16H72.5682V9.796H73.5282V10.624C73.9962 9.952 74.5842 9.628 75.2802 9.628ZM85.3898 9.628C86.3858 9.628 87.1418 9.964 87.6458 10.636C88.1018 11.236 88.3418 12.088 88.3658 13.168H83.4698C83.5178 13.864 83.6978 14.404 84.0338 14.788C84.3698 15.172 84.8378 15.364 85.4258 15.364C85.9298 15.364 86.3498 15.232 86.6618 14.98C86.9258 14.764 87.1298 14.44 87.2858 14.008H88.2458C88.1018 14.608 87.8258 15.088 87.4058 15.472C86.8898 15.928 86.2298 16.168 85.4258 16.168C84.5378 16.168 83.8178 15.868 83.2898 15.292C82.7378 14.692 82.4738 13.9 82.4738 12.892C82.4738 11.98 82.7258 11.212 83.2538 10.6C83.7818 9.952 84.4898 9.628 85.3898 9.628ZM85.4138 10.432C84.8618 10.432 84.4178 10.612 84.0818 10.972C83.7458 11.332 83.5538 11.812 83.4938 12.424H87.3698C87.2498 11.092 86.5898 10.432 85.4138 10.432ZM92.3941 9.628C93.9301 9.628 94.7101 10.48 94.7101 12.184V16H93.7501V12.256C93.7501 11.044 93.1981 10.444 92.1181 10.444C91.6861 10.444 91.3141 10.6 91.0021 10.912C90.6661 11.248 90.4861 11.692 90.4501 12.256V16H89.4901V9.796H90.4501V10.708C90.6661 10.36 90.9421 10.096 91.2781 9.916C91.6141 9.724 91.9861 9.628 92.3941 9.628ZM97.8492 7.792V9.796H99.3852V10.6H97.8492V14.548C97.8492 14.776 97.8852 14.944 97.9812 15.04C98.0652 15.136 98.2212 15.196 98.4372 15.196H99.2292V16H98.2932C97.7892 16 97.4172 15.868 97.2012 15.604C96.9972 15.364 96.9012 15.016 96.9012 14.548V10.6H95.6532V9.796H96.9012V8.188L97.8492 7.792ZM102.655 9.628C104.191 9.628 105.031 10.264 105.199 11.56H104.263C104.179 11.176 104.023 10.888 103.783 10.72C103.519 10.528 103.135 10.432 102.643 10.432C102.211 10.432 101.875 10.504 101.635 10.672C101.371 10.828 101.239 11.044 101.239 11.32C101.239 11.584 101.407 11.812 101.767 11.992C101.995 12.1 102.427 12.232 103.051 12.4C103.795 12.58 104.323 12.772 104.647 12.976C105.139 13.288 105.391 13.708 105.391 14.248C105.391 15.52 104.515 16.168 102.763 16.168C101.131 16.168 100.243 15.448 100.099 14.02H101.035C101.107 14.512 101.287 14.86 101.551 15.076C101.815 15.268 102.211 15.364 102.739 15.364C103.843 15.364 104.407 15.004 104.407 14.308C104.407 13.96 104.203 13.696 103.819 13.504C103.615 13.408 103.171 13.276 102.499 13.108C101.767 12.928 101.251 12.748 100.963 12.556C100.483 12.268 100.255 11.872 100.255 11.344C100.255 10.816 100.483 10.408 100.951 10.096C101.383 9.784 101.959 9.628 102.655 9.628Z" fill="#1890FF"/>
<rect x="0.75" y="0.25" width="115.5" height="23.5" rx="1.75" stroke="#1890FF" stroke-width="0.5"/>
<defs>
<clipPath id="clip0_1273_69540">
<rect width="17" height="17" fill="white" transform="translate(10.5 3.5)"/>
</clipPath>
</defs>
</svg>
