<svg width="17" height="17" viewBox="0 0 17 17" fill="none" xmlns="http://www.w3.org/2000/svg">
<path d="M1.60177 14.9889C1.60177 15.3161 1.86673 15.5825 2.1954 15.5825H8.65295C8.98017 15.5825 9.24658 15.3176 9.24658 14.9889C9.24658 14.6617 8.98162 14.3953 8.65295 14.3953H2.1954C1.86818 14.3953 1.60177 14.6602 1.60177 14.9889Z" fill="#B39BF5"/>
<path d="M1.764 15.4186C1.9971 15.6517 2.37211 15.6517 2.60377 15.4201L4.95223 13.0702C5.18389 12.8385 5.18389 12.4635 4.95223 12.2318L4.95078 12.2304C4.71912 11.9987 4.34412 11.9987 4.11246 12.2304L1.764 14.5789C1.53234 14.8105 1.53234 15.187 1.764 15.4186Z" fill="#B39BF5"/>
<path d="M4.07298 13.2544L2.66274 14.989L6.09277 14.7964L5.22404 13.6888L4.07298 13.2544Z" fill="#B39BF5"/>
<path d="M15.2002 8.79925C15.2002 10.6025 14.4838 12.3319 13.2087 13.607C11.9336 14.8822 10.2042 15.5985 8.40094 15.5985C6.59767 15.5985 4.86825 14.8822 3.59315 13.607C2.31804 12.3319 1.60169 10.6025 1.60169 8.79925C1.60169 6.99598 2.31804 5.26656 3.59315 3.99145C4.86825 2.71635 6.59767 2 8.40094 2C10.2042 2 11.9336 2.71635 13.2087 3.99145C14.4838 5.26656 15.2002 6.99598 15.2002 8.79925Z" fill="#B39BF5"/>
<path d="M6.1599 8.84681C5.83268 8.84681 5.56627 8.58185 5.56627 8.25318C5.56627 7.92596 5.83123 7.65955 6.1599 7.65955H7.55276L6.01222 6.119C5.78055 5.88734 5.78055 5.51234 6.01222 5.28068C6.24388 5.04902 6.61888 5.04902 6.85054 5.28068L8.38385 6.81543L9.9186 5.28213C10.1503 5.05047 10.5253 5.05047 10.7569 5.28213C10.9886 5.51379 10.9886 5.88879 10.7569 6.12045L9.21638 7.661H10.5875C10.9147 7.661 11.1812 7.92596 11.1812 8.25463C11.1812 8.58185 10.9162 8.84826 10.5875 8.84826H8.96589V9.6779H10.5875C10.9147 9.6779 11.1812 9.94286 11.1812 10.2715C11.1812 10.5987 10.9162 10.8652 10.5875 10.8652H8.96589V12.7069C8.96589 13.0341 8.70093 13.3005 8.37226 13.3005C8.04504 13.3005 7.77863 13.0355 7.77863 12.7069V10.8652H6.157C5.82978 10.8652 5.56337 10.6002 5.56337 10.2715C5.56337 9.94431 5.82833 9.6779 6.157 9.6779H7.77863V8.84681H6.1599Z" fill="white"/>
</svg>
