<svg width="90" height="24" viewBox="0 0 90 24" fill="none" xmlns="http://www.w3.org/2000/svg">
<rect x="0.75" y="0.25" width="88.5" height="23.5" rx="1.75" fill="#B39BF5" fill-opacity="0.1"/>
<path d="M12.1018 18.4889C12.1018 18.8161 12.3667 19.0825 12.6954 19.0825H19.153C19.4802 19.0825 19.7466 18.8176 19.7466 18.4889C19.7466 18.1617 19.4816 17.8953 19.153 17.8953H12.6954C12.3682 17.8953 12.1018 18.1602 12.1018 18.4889Z" fill="#B39BF5"/>
<path d="M12.264 18.9186C12.4971 19.1517 12.8721 19.1517 13.1038 18.9201L15.4522 16.5702C15.6839 16.3385 15.6839 15.9635 15.4522 15.7318L15.4508 15.7304C15.2191 15.4987 14.8441 15.4987 14.6125 15.7304L12.264 18.0789C12.0323 18.3105 12.0323 18.687 12.264 18.9186Z" fill="#B39BF5"/>
<path d="M14.573 16.7544L13.1627 18.489L16.5928 18.2964L15.724 17.1888L14.573 16.7544Z" fill="#B39BF5"/>
<path d="M25.7002 12.2993C25.7002 14.1025 24.9838 15.8319 23.7087 17.107C22.4336 18.3822 20.7042 19.0985 18.9009 19.0985C17.0977 19.0985 15.3683 18.3822 14.0931 17.107C12.818 15.8319 12.1017 14.1025 12.1017 12.2993C12.1017 10.496 12.818 8.76656 14.0931 7.49145C15.3683 6.21635 17.0977 5.5 18.9009 5.5C20.7042 5.5 22.4336 6.21635 23.7087 7.49145C24.9838 8.76656 25.7002 10.496 25.7002 12.2993Z" fill="#B39BF5"/>
<path d="M16.6599 12.3468C16.3327 12.3468 16.0663 12.0818 16.0663 11.7532C16.0663 11.426 16.3312 11.1595 16.6599 11.1595H18.0528L16.5122 9.619C16.2806 9.38734 16.2806 9.01234 16.5122 8.78068C16.7439 8.54902 17.1189 8.54902 17.3505 8.78068L18.8838 10.3154L20.4186 8.78213C20.6503 8.55047 21.0253 8.55047 21.2569 8.78213C21.4886 9.01379 21.4886 9.38879 21.2569 9.62045L19.7164 11.161H21.0875C21.4147 11.161 21.6812 11.426 21.6812 11.7546C21.6812 12.0818 21.4162 12.3483 21.0875 12.3483H19.4659V13.1779H21.0875C21.4147 13.1779 21.6812 13.4429 21.6812 13.7715C21.6812 14.0987 21.4162 14.3652 21.0875 14.3652H19.4659V16.2069C19.4659 16.5341 19.2009 16.8005 18.8723 16.8005C18.545 16.8005 18.2786 16.5355 18.2786 16.2069V14.3652H16.657C16.3298 14.3652 16.0634 14.1002 16.0634 13.7715C16.0634 13.4443 16.3283 13.1779 16.657 13.1779H18.2786V12.3468H16.6599Z" fill="white"/>
<path d="M34.524 8.656H40.464V9.436H37.944V11.164H40.092V11.932H37.944V13.84H40.812V14.632H34.2V13.84H37.056V11.932H34.908V11.164H37.056V9.436H34.524V8.656ZM42.432 6.748V17.176H41.556V16.66H33.444V17.176H32.568V6.748H42.432ZM33.444 15.844H41.556V7.564H33.444V15.844ZM39.36 12.184C39.66 12.592 39.924 13.036 40.14 13.504L39.468 13.816C39.228 13.276 38.964 12.808 38.676 12.412L39.36 12.184ZM49.464 11.116C48.972 12.484 48.036 13.612 46.644 14.524L46.068 13.816C47.412 12.928 48.3 11.824 48.732 10.492C48.864 10.024 48.972 9.52 49.056 8.968H45.636V17.188H44.76V8.128H49.152C49.212 7.516 49.248 6.856 49.248 6.16H50.124C50.124 6.868 50.088 7.528 50.04 8.128H54.252V15.856C54.252 16.66 53.856 17.068 53.088 17.068H51.204L50.964 16.204L52.8 16.252C53.184 16.252 53.376 16.048 53.376 15.664V8.968H49.944C49.884 9.424 49.812 9.856 49.716 10.252C50.964 11.428 52.008 12.592 52.86 13.732L52.212 14.392C51.516 13.36 50.592 12.268 49.464 11.116ZM61.032 6.196H61.92V7.768H66.636V8.608H61.92V10.444H65.148V11.212C64.476 12.556 63.504 13.708 62.232 14.668C62.832 15.004 63.492 15.328 64.212 15.616C65.064 15.94 65.976 16.216 66.948 16.456L66.444 17.212C65.412 16.936 64.428 16.6 63.504 16.216C62.772 15.904 62.1 15.556 61.5 15.172C60.132 16.036 58.5 16.72 56.592 17.236L56.1 16.468C57.924 16.036 59.484 15.436 60.78 14.668C60.156 14.2 59.604 13.66 59.136 13.06C58.704 12.508 58.392 11.896 58.2 11.248H57.276V10.444H61.032V8.608H56.364V7.768H61.032V6.196ZM61.488 14.2C62.652 13.384 63.552 12.4 64.176 11.248H59.052C59.268 11.884 59.604 12.448 60.06 12.94C60.48 13.42 60.96 13.84 61.488 14.2ZM70.68 6.088L71.484 6.472C71.22 7.312 70.884 8.092 70.5 8.836V17.224H69.636V10.264C69.204 10.9 68.712 11.5 68.172 12.076L67.908 11.176C69.18 9.7 70.104 8.008 70.68 6.088ZM71.736 8.8H76.332V6.22H77.196V8.8H78.924V9.64H77.196V15.904C77.196 16.72 76.812 17.128 76.068 17.128H74.328L74.136 16.276C74.7 16.312 75.24 16.336 75.768 16.336C76.14 16.336 76.332 16.12 76.332 15.688V9.64H71.736V8.8ZM72.84 10.948C73.752 12.028 74.46 12.976 74.952 13.78L74.22 14.296C73.704 13.42 73.008 12.448 72.132 11.38L72.84 10.948Z" fill="#B39BF5"/>
<rect x="0.75" y="0.25" width="88.5" height="23.5" rx="1.75" stroke="#B39BF5" stroke-width="0.5"/>
</svg>
