<svg width="17" height="17" viewBox="0 0 17 17" fill="none" xmlns="http://www.w3.org/2000/svg">
<path d="M12.0496 7.84718H12.3832C12.427 6.87759 12.2364 5.91174 11.8275 5.03149C11.3656 4.04021 10.6462 3.19106 9.74425 2.57263C8.8423 1.9542 7.79091 1.58916 6.69979 1.51559C5.64109 1.44073 4.58075 1.63634 3.61846 2.08404C0.50845 3.52589 -0.860083 7.1831 0.562639 10.2527C1.98536 13.3224 5.66276 14.642 8.77065 13.2012C9.24429 12.9818 9.68868 12.7042 10.0935 12.3746C10.0656 12.2707 10.0527 12.1634 10.0552 12.0558C10.0478 11.9095 10.0762 11.7636 10.1381 11.6308C10.1583 10.9423 9.63023 10.3983 9.46129 10.2421C9.16803 9.97223 8.44552 9.61416 7.31393 9.17959C7.01217 9.05952 6.95161 8.89058 6.79966 8.37419L6.78266 8.31575C6.67641 7.96193 6.6711 7.72818 7.71662 7.02904C8.24789 6.67415 8.50183 6.83034 8.85565 7.0471L8.97359 7.11722C9.20364 7.26541 9.4768 7.33202 9.74924 7.30635C9.8693 7.30635 10.0191 7.30635 10.2284 7.3191C10.6715 7.35523 10.8118 7.55817 11.0179 7.99168C11.2538 7.88543 11.581 7.84718 12.0496 7.84718ZM5.58732 3.4122C5.55757 3.56095 5.53526 3.69908 5.51507 3.82552C5.44813 4.25053 5.40882 4.43753 5.22394 4.55441C5.10438 4.6198 4.97964 4.67523 4.85099 4.72017C4.46211 4.87211 3.93085 5.07824 3.97547 5.59463C4.00097 5.92295 4.33354 6.69009 4.85418 6.92703C4.90389 6.95987 4.94525 7.00387 4.97495 7.05553C5.00465 7.10718 5.02187 7.16505 5.02525 7.22454C5.04899 7.35204 5.03571 7.48367 4.987 7.60386C4.85834 7.57064 4.73366 7.52362 4.61511 7.46361C4.32398 7.33398 3.96272 7.17248 3.6174 7.22985C3.49308 7.2511 3.35921 7.28298 3.22852 7.31273C2.86513 7.39773 2.45393 7.49442 2.28074 7.35098C2.1543 7.24473 2.06824 7.05985 1.97792 6.86328C1.86881 6.58236 1.69986 6.32856 1.48279 6.11951C1.38894 6.03794 1.27844 5.97781 1.15898 5.94331C1.03951 5.90881 0.913968 5.90078 0.791082 5.91976C1.17802 4.76757 1.91951 3.7673 2.90945 3.06211C3.89938 2.35692 5.08702 1.98295 6.3024 1.99373C6.03677 2.39961 5.6702 3.01375 5.58732 3.4122Z" fill="#1890FF"/>
<path d="M15.7566 8.58887H12.3151C11.8327 8.59418 11.5383 8.65899 11.3588 8.83644C11.1792 9.01388 11.1197 9.33795 11.1187 9.84052H11.1516H11.124C10.8456 9.84052 10.768 10.0679 10.768 10.3484C10.7528 10.5012 10.7982 10.6538 10.8945 10.7734C10.9566 10.8295 11.0382 10.8589 11.1218 10.8552V11.5108C10.8456 11.5108 10.768 11.7393 10.768 12.0187C10.768 12.2981 10.8456 12.5245 11.1218 12.5255V13.1875C10.8456 13.1875 10.768 13.4159 10.768 13.6954C10.768 13.9748 10.7861 14.2659 11.0645 14.2659H11.1165C11.124 15.15 11.329 15.3125 12.3916 15.3125H15.7566C16.6916 15.3125 16.9997 15.0926 16.9997 14.2107V9.84052C16.9997 8.77375 16.7203 8.58887 15.7566 8.58887ZM14.9374 13.2884C14.7454 13.4347 14.5159 13.5235 14.2754 13.5445V13.9695H13.8185V13.537C13.5828 13.519 13.3577 13.4318 13.1715 13.2863C13.0775 13.2124 12.9994 13.1205 12.9415 13.0159C12.8837 12.9114 12.8473 12.7963 12.8346 12.6775L13.521 12.5096C13.521 12.7348 13.7537 12.9941 14.1012 12.9941C14.3084 12.9941 14.5549 12.8878 14.5527 12.6222C14.5527 12.4023 14.3179 12.245 14.0661 12.1876C13.8143 12.1303 13.2777 11.9496 13.1321 11.7892C12.9866 11.6288 12.9441 11.4046 12.9441 11.1411C12.9439 11.0289 12.9674 10.918 13.0132 10.8156C13.059 10.7132 13.126 10.6217 13.2097 10.5471C13.382 10.4027 13.5946 10.3148 13.8185 10.2953V9.93084H14.2754V10.2932C14.4996 10.3082 14.7138 10.3912 14.8896 10.5312C15.0524 10.6582 15.1592 10.8439 15.1871 11.0486L14.5017 11.2091C14.5017 11.0401 14.2478 10.8319 14.0767 10.8319C13.8525 10.8319 13.6762 10.8945 13.6762 11.1751C13.6762 11.3759 13.8281 11.4417 14.0937 11.5268C14.54 11.6691 14.8779 11.854 15.0341 12.0134C15.1113 12.0939 15.1717 12.1891 15.2117 12.2932C15.2516 12.3974 15.2704 12.5086 15.2668 12.6201C15.2732 12.7503 15.2463 12.88 15.1886 12.9969C15.131 13.1139 15.0445 13.2142 14.9374 13.2884Z" fill="#1890FF"/>
</svg>
