<?xml version="1.0" encoding="UTF-8"?>
<svg width="15px" height="15px" viewBox="0 0 15 15" version="1.1" xmlns="http://www.w3.org/2000/svg" xmlns:xlink="http://www.w3.org/1999/xlink">
    <title>操作_查看回执</title>
    <defs>
        <polygon id="path-1" points="0 0.0441792 13.2151104 0.0441792 13.2151104 14.784 0 14.784"></polygon>
    </defs>
    <g id="切图" stroke="none" stroke-width="1" fill="none" fill-rule="evenodd">
        <g transform="translate(-415.000000, -206.000000)" id="编组-4">
            <g transform="translate(307.000000, 137.000000)">
                <g id="编组" transform="translate(108.000000, 69.000000)">
                    <path d="M7.2664192,10.9775712 C7.2664192,10.6682592 7.5173632,10.4174112 7.8266752,10.4174112 L14.0825152,10.4174112 C14.3918272,10.4174112 14.6426752,10.6682592 14.6426752,10.9775712 C14.6426752,11.2867872 14.3918272,11.5377312 14.0825152,11.5377312 L7.8266752,11.5377312 C7.5173632,11.5377312 7.2664192,11.2867872 7.2664192,10.9775712" id="Fill-1" fill="#1890FF"></path>
                    <g transform="translate(1.000000, 0.051840)">
                        <mask id="mask-2" fill="white">
                            <use xlink:href="#path-1"></use>
                        </mask>
                        <g id="Clip-4"></g>
                        <path d="M7.3219584,14.7840192 L1.3537344,14.7840192 C0.6061824,14.7840192 -5.76e-05,14.1778752 -5.76e-05,13.4303232 L-5.76e-05,1.4225472 C-5.76e-05,0.6609792 0.6167424,0.0441792 1.3784064,0.0441792 L11.8350144,0.0441792 C12.6601344,0.0441792 13.2151104,0.6220032 13.2151104,1.4843712 L13.2151104,4.8981312 C13.2151104,5.2074432 12.9640704,5.4582912 12.6566784,5.4582912 C12.3474624,5.4582912 12.0964224,5.2074432 12.0964224,4.8981312 L12.0964224,1.4827392 C12.0964224,1.1628672 11.9762304,1.1628672 11.8366464,1.1628672 L1.3784064,1.1628672 C1.2388224,1.1628672 1.1203584,1.2812352 1.1203584,1.4225472 L1.1203584,13.4285952 C1.1203584,13.5576192 1.2264384,13.6636032 1.3554624,13.6636032 L7.3113024,13.6636032 C7.6169664,13.6636032 7.8732864,13.9020672 7.8821184,14.2079232 C7.8891264,14.5241472 7.6363584,14.7840192 7.3219584,14.7840192" id="Fill-3" fill="#1890FF" mask="url(#mask-2)"></path>
                    </g>
                    <path d="M10.9271776,4.3637472 L4.1315296,4.3637472 C3.8222176,4.3637472 3.5712736,4.1128032 3.5712736,3.8035872 C3.5712736,3.4942752 3.8222176,3.2434272 4.1315296,3.2434272 L10.9271776,3.2434272 C11.2364896,3.2434272 11.4874336,3.4942752 11.4874336,3.8035872 C11.4874336,4.1128032 11.2364896,4.3637472 10.9271776,4.3637472" id="Fill-5" fill="#1890FF"></path>
                    <path d="M9.0071776,6.8678592 L4.1315296,6.8678592 C3.8222176,6.8678592 3.5712736,6.6169152 3.5712736,6.3076992 C3.5712736,5.9983872 3.8222176,5.7475392 4.1315296,5.7475392 L9.0071776,5.7475392 C9.3164896,5.7475392 9.5673376,5.9983872 9.5673376,6.3076992 C9.5673376,6.6169152 9.3164896,6.8678592 9.0071776,6.8678592" id="Fill-7" fill="#1890FF"></path>
                    <path d="M6.2626432,9.3719616 L4.1315392,9.3719616 C3.8222272,9.3719616 3.5712832,9.1210176 3.5712832,8.8118016 C3.5712832,8.5024896 3.8222272,8.2516416 4.1315392,8.2516416 L6.2626432,8.2516416 C6.5719552,8.2516416 6.8229952,8.5024896 6.8229952,8.8118016 C6.8229952,9.1227456 6.5719552,9.3719616 6.2626432,9.3719616" id="Fill-9" fill="#1890FF"></path>
                    <path d="M11.8609216,8.9088864 C12.0715456,8.6825184 12.4263616,8.6697504 12.6527296,8.8804704 L14.4214336,10.5260064 C14.6478016,10.7366304 14.6606656,11.0912544 14.4500416,11.3177184 C14.2393216,11.5440864 13.8846976,11.5568544 13.6583296,11.3462304 L11.8896256,9.7006944 C11.6631616,9.4900704 11.6502976,9.1353504 11.8609216,8.9088864" id="Fill-11" fill="#1890FF"></path>
                    <path d="M14.4897664,10.6098816 C14.6927104,10.8432576 14.6678464,11.1973056 14.4345664,11.4002496 L12.6115264,12.9854016 C12.3781504,13.1883456 12.0241024,13.1636736 11.8211584,12.9302016 C11.6183104,12.6969216 11.6429824,12.3428736 11.8763584,12.1399296 L13.6994944,10.5547776 C13.9327744,10.3518336 14.2869184,10.3765056 14.4897664,10.6098816" id="Fill-13" fill="#1890FF"></path>
                </g>
            </g>
        </g>
    </g>
</svg>