<?xml version="1.0" encoding="UTF-8"?>
<svg width="14px" height="14px" viewBox="0 0 14 14" version="1.1" xmlns="http://www.w3.org/2000/svg" xmlns:xlink="http://www.w3.org/1999/xlink">
    <title>操作日志</title>
    <g id="切图" stroke="none" stroke-width="1" fill="none" fill-rule="evenodd">
        <g transform="translate(-126.000000, -1442.000000)" id="菜单栏">
            <g transform="translate(85.000000, 525.000000)">
                <g id="编组" transform="translate(41.000000, 917.000000)">
                    <path d="M10.9111,11.299 C10.7471,11.325 10.5751,11.343 10.4021,11.343 C9.1081,11.334 8.0731,10.29 8.0731,8.996 C8.0901,7.702 9.1421,6.667 10.4361,6.651 C10.6001,6.651 10.7641,6.676 10.9191,6.71 C11.9801,6.944 12.7741,7.892 12.7651,9.022 C12.7571,10.144 11.9631,11.075 10.9111,11.299 M10.9191,6.028 C10.7641,5.994 10.6091,5.987 10.4531,5.987 L10.4361,5.987 C8.7711,5.994 7.4341,7.357 7.44305483,9.022 C7.4521,10.687 8.8061,12.024 10.4791,12.0160357 C10.5311,12.0160357 10.5921,12.0160357 10.6431,12.007 C12.2221,11.92 13.4731,10.611 13.4731,8.996 C13.4731,7.486 12.3691,6.244 10.9191,6.028 M4.0881,0 L3.8281,0 C3.6791,0.021 3.5681,0.152 3.5781,0.311 L3.5781,2.05 C3.5781,2.2 3.7081,2.33 3.8691,2.33 L4.0881,2.33 C4.2381,2.33 4.3691,2.2 4.3691,2.05 L4.3691,0.28 C4.3691,0.12 4.2381,0 4.0881,0 M9.4631,0 L9.2131,0 C9.0531,0.021 8.9431,0.152 8.9631,0.311 L8.9631,2.05 C8.9631,2.2 9.0831,2.33 9.2431,2.33 L9.4631,2.33 C9.6131,2.33 9.7431,2.2 9.7431,2.05 L9.7431,0.271 C9.7431,0.12 9.6131,0 9.4631,0 M10.1631,3.91 L3.9031,3.91 C3.6931,3.91 3.5131,4.09 3.5131,4.3 C3.5131,4.51 3.6931,4.692 3.9031,4.692 L10.1631,4.692 C10.3731,4.692 10.5531,4.51 10.5531,4.3 C10.5531,4.09 10.3731,3.91 10.1631,3.91 M7.0331,6.24 L3.9031,6.24 C3.6931,6.24 3.5131,6.42 3.5131,6.63 C3.5131,6.851 3.6931,7.021 3.9031,7.021 L7.0331,7.021 C7.2431,7.021 7.4231,6.851 7.4231,6.63 C7.4231,6.42 7.2431,6.24 7.0331,6.24 M6.2531,8.58 L3.9031,8.58 C3.6931,8.58 3.5131,8.75 3.5131,8.96 C3.5131,9.181 3.6931,9.351 3.9031,9.351 L6.2531,9.351 C6.4631,9.351 6.6331,9.181 6.6331,8.96 L6.6331,8.95 C6.6331,8.74 6.4631,8.57 6.2531,8.58" id="Fill-3" fill="#D4D8DC"></path>
                    <path d="M11.5639,12.4504 C11.2789,12.7904 10.8299,13.0004 10.3249,13.0004 L3.0899,13.0004 C2.2129,13.0004 1.4999,12.3504 1.4999,11.5514 L1.4999,2.4504 C1.4999,1.6504 2.2129,1.0004 3.0899,1.0004 L4.0109,1.0004 L4.8769,1.0004 L9.1629,1.0004 L10.0179,1.0004 L10.3249,1.0004 C11.2019,1.0004 11.9149,1.6504 11.9149,2.4504 L11.9149,5.5204" id="Stroke-5" stroke="#D4D8DC" stroke-linecap="round"></path>
                    <path d="M10.4243,9.4201 L10.4243,9.4201 C10.2923,9.4201 10.1843,9.3121 10.1843,9.1801 L10.1843,8.2311 C10.1843,8.0991 10.2923,7.9911 10.4243,7.9911 C10.5563,7.9911 10.6643,8.0991 10.6643,8.2311 L10.6643,9.1801 C10.6643,9.3121 10.5563,9.4201 10.4243,9.4201" id="Fill-7" fill="#D4D8DC"></path>
                    <path d="M10.1845,9.2746 L10.1845,9.2746 C10.1845,9.1416 10.2925,9.0346 10.4245,9.0346 L11.3735,9.0346 C11.5055,9.0346 11.6135,9.1416 11.6135,9.2746 C11.6135,9.4066 11.5055,9.5136 11.3735,9.5136 L10.4245,9.5136 C10.2925,9.5136 10.1845,9.4066 10.1845,9.2746" id="Fill-9" fill="#D4D8DC"></path>
                </g>
            </g>
        </g>
    </g>
</svg>