<?xml version="1.0" encoding="UTF-8"?>
<svg width="14px" height="14px" viewBox="0 0 14 14" version="1.1" xmlns="http://www.w3.org/2000/svg" xmlns:xlink="http://www.w3.org/1999/xlink">
    <title>帮助中心</title>
    <g id="切图" stroke="none" stroke-width="1" fill="none" fill-rule="evenodd">
        <g transform="translate(-126.000000, -1288.000000)" id="菜单栏">
            <g transform="translate(85.000000, 525.000000)">
                <g id="帮助中心" transform="translate(41.000000, 763.000000)">
                    <path d="M6.9991,2.5143 C5.8411,2.5143 4.8991,3.4493 4.8991,4.5963 C4.8991,4.8273 5.0861,5.0173 5.3191,5.0173 C5.5511,5.0173 5.7401,4.8283 5.7401,4.5963 C5.7401,3.9003 6.2931,3.3543 7.0001,3.3543 C7.6951,3.3543 8.2611,3.9243 8.2611,4.6223 C8.2611,4.9043 7.9091,5.2533 7.5691,5.5963 C7.1051,6.0593 6.5801,6.5843 6.5801,7.2733 L6.5801,7.9833 C6.5801,8.2133 6.7681,8.4043 7.0001,8.4043 C7.2321,8.4043 7.4211,8.2133 7.4211,7.9833 L7.4211,7.2733 C7.4211,6.9333 7.7991,6.5563 8.1641,6.1923 C8.6241,5.7323 9.1011,5.2533 9.1011,4.6243 C9.0991,3.4613 8.1571,2.5143 6.9991,2.5143 M6.9991,9.2273 C6.6511,9.2273 6.3701,9.5083 6.3701,9.8583 C6.3701,10.2053 6.6511,10.4873 6.9991,10.4873 C7.3471,10.4873 7.6281,10.2043 7.6281,9.8583 C7.6281,9.5083 7.3471,9.2273 6.9991,9.2273" id="Fill-2" fill="#D4D8DC"></path>
                    <path d="M11.6329,12.5006 L1.8979,12.5006 C1.1259,12.5006 0.4999,11.8516 0.4999,11.0506 L0.4999,1.9496 C0.4999,1.1486 1.1259,0.5006 1.8979,0.5006 L11.6329,0.5006 C12.4049,0.5006 13.0299,1.1486 13.0299,1.9496 L13.0299,11.0506 C13.0299,11.8516 12.4049,12.5006 11.6329,12.5006 Z" id="Stroke-4" stroke="#D4D8DC"></path>
                </g>
            </g>
        </g>
    </g>
</svg>