<?xml version="1.0" encoding="UTF-8"?>
<svg width="14px" height="14px" viewBox="0 0 14 14" version="1.1" xmlns="http://www.w3.org/2000/svg" xmlns:xlink="http://www.w3.org/1999/xlink">
    <title>编组</title>
    <g id="切图" stroke="none" stroke-width="1" fill="none" fill-rule="evenodd">
        <g transform="translate(-127.000000, -1595.000000)" id="菜单栏">
            <g transform="translate(85.000000, 525.000000)">
                <g id="编组" transform="translate(42.000000, 1070.000000)">
                    <path d="M13.6348,9.5967 L12.1098,8.0607 C11.9798,7.9307 11.7698,7.9307 11.6398,8.0607 L7.8358,11.8877 C7.7738,11.9507 7.7388,12.0357 7.7388,12.1237 L7.7388,13.5437 C7.7388,13.7287 7.8878,13.8767 8.0718,13.8767 L9.5898,13.8767 C9.6778,13.8767 9.7628,13.8427 9.8258,13.7807 L12.1048,11.5837 C12.1678,11.5217 12.2028,11.4367 12.2018,11.3487 C12.2028,11.2607 12.1678,11.1757 12.1058,11.1137 C12.0428,11.0507 11.9588,11.0157 11.8708,11.0157 C11.7808,11.0157 11.7938,11.0977 11.7308,11.1597 L9.4658,13.3067 L8.3138,13.3167 L8.3048,12.2717 L11.8738,8.7647 L12.9458,9.8257 L12.6558,10.1317 L12.1228,9.5967 C11.9918,9.4667 11.7808,9.4677 11.6518,9.5987 C11.5218,9.7287 11.5228,9.9397 11.6528,10.0697 L12.4118,10.8377 C12.5418,10.9667 12.7518,10.9667 12.8818,10.8377 L13.6408,10.0697 C13.7708,9.9387 13.7708,9.7277 13.6408,9.5967 L13.6348,9.5967 Z" id="Fill-3" fill="#D4D8DC"></path>
                    <path d="M2.9361,0.002 L11.1241,0.002 C12.5221,0.002 13.6211,1.1 13.6211,2.498 L13.6211,7.387 C13.6211,7.687 13.4211,7.887 13.1211,7.887 C12.8211,7.887 12.6221,7.687 12.6221,7.387 L12.6221,2.498 C12.6221,1.699 11.9231,1 11.1241,1 L2.9361,1 C2.1371,1 1.4381,1.699 1.4381,2.498 L1.4381,11.485 C1.4381,12.284 2.1371,12.982 2.9361,12.982 L6.4241,12.982 C6.7241,12.982 6.9231,13.183 6.9231,13.482 C6.9231,13.781 6.7241,13.981 6.4241,13.981 L2.9361,13.981 C1.5381,13.981 0.4391,12.883 0.4391,11.485 L0.4391,2.598 C0.4391,1.1 1.5381,0.002 2.9361,0.002" id="Fill-5" fill="#D4D8DC"></path>
                    <polyline id="Stroke-7" stroke="#D4D8DC" stroke-linecap="round" stroke-linejoin="round" points="2.6861 8.4492 3.9161 5.7732 6.7501 8.6162 10.4841 4.5422"></polyline>
                    <path d="M9.3638,3.7627 L10.8448,3.7627 C11.1308,3.7627 11.3638,3.9947 11.3638,4.2807 L11.3638,5.7627" id="Stroke-9" stroke="#D4D8DC" stroke-linecap="round" stroke-linejoin="round"></path>
                </g>
            </g>
        </g>
    </g>
</svg>