<?xml version="1.0" encoding="UTF-8"?>
<svg width="14px" height="13px" viewBox="0 0 14 13" version="1.1" xmlns="http://www.w3.org/2000/svg" xmlns:xlink="http://www.w3.org/1999/xlink">
    <title>编组</title>
    <g id="切图" stroke="none" stroke-width="1" fill="none" fill-rule="evenodd">
        <g transform="translate(-127.000000, -1493.000000)" id="菜单栏">
            <g transform="translate(85.000000, 525.000000)">
                <g id="编组" transform="translate(42.000000, 968.000000)">
                    <path d="M12.834,1.6393 C13.398,1.6393 13.86,2.0533 13.901,2.5783 L13.904,2.6533 L13.904,6.9483 C13.896,7.2363 13.656,7.4613 13.369,7.4533 C13.105,7.4593 12.877,7.2683 12.838,7.0063 L12.834,6.9483 L12.834,2.6533 L1.07,2.6533 L1.07,11.2653 L6.767,11.2653 C7.061,11.2653 7.3,11.4933 7.3,11.7723 C7.3,12.0323 7.094,12.2453 6.828,12.2753 L6.766,12.2783 L1.07,12.2783 C0.506,12.2783 0.044,11.8653 0.003,11.3403 L0,11.2653 L0,2.6533 C0,2.1183 0.437,1.6813 0.99,1.6433 L1.071,1.6403 L12.834,1.6403 L12.834,1.6393 Z" id="Fill-1" fill="#D4D8DC"></path>
                    <path d="M5.3472,6.4538 C5.6432,6.4538 5.8832,6.6808 5.8832,6.9608 C5.8832,7.2198 5.6762,7.4348 5.4102,7.4638 L5.3472,7.4678 L2.6742,7.4678 C2.5352,7.4718 2.4012,7.4198 2.3012,7.3248 C2.2012,7.2288 2.1422,7.0988 2.1382,6.9608 C2.1382,6.7008 2.3452,6.4848 2.6122,6.4578 L2.6742,6.4538 L5.3472,6.4538 Z" id="Fill-3" fill="#D4D8DC"></path>
                    <path d="M8.022,4.4255 C8.318,4.4255 8.558,4.6535 8.558,4.9335 C8.558,5.1935 8.351,5.4075 8.084,5.4365 L8.022,5.4395 L2.674,5.4395 C2.386,5.4465 2.147,5.2205 2.138,4.9335 C2.138,4.6735 2.345,4.4585 2.612,4.4305 L2.674,4.4255 L8.022,4.4255 Z" id="Fill-5" fill="#D4D8DC"></path>
                    <path d="M11.23,-0.0003 C11.525,-0.0003 11.766,0.2277 11.766,0.5077 C11.766,0.7667 11.559,0.9807 11.293,1.0107 L11.23,1.0137 L2.675,1.0137 C2.387,1.0207 2.147,0.7947 2.139,0.5077 C2.139,0.2477 2.345,0.0317 2.612,0.0037 L2.674,-0.0003 L11.23,-0.0003 Z" id="Fill-7" fill="#D4D8DC"></path>
                    <path d="M11.6411,7.9186 C12.4691,8.7456 12.4691,10.0886 11.6411,10.9166 C10.8131,11.7436 9.4711,11.7436 8.6431,10.9166 C7.8151,10.0886 7.8151,8.7456 8.6431,7.9186 C9.4711,7.0906 10.8131,7.0906 11.6411,7.9186 Z" id="Stroke-9" stroke="#D4D8DC"></path>
                    <path d="M13.2314,12.4089 L13.2314,12.4089 C13.0374,12.6029 12.7204,12.6029 12.5254,12.4089 L11.5874,11.4709 C11.3944,11.2769 11.3944,10.9589 11.5874,10.7649 C11.7814,10.5709 12.0994,10.5709 12.2934,10.7649 L13.2314,11.7039 C13.4254,11.8969 13.4254,12.2149 13.2314,12.4089" id="Fill-11" fill="#D4D8DC"></path>
                </g>
            </g>
        </g>
    </g>
</svg>