<?xml version="1.0" encoding="UTF-8"?>
<svg width="14px" height="14px" viewBox="0 0 14 14" version="1.1" xmlns="http://www.w3.org/2000/svg" xmlns:xlink="http://www.w3.org/1999/xlink">
    <title>服务商品</title>
    <g id="切图" stroke="none" stroke-width="1" fill="none" fill-rule="evenodd">
        <g transform="translate(-126.000000, -825.000000)" id="菜单栏">
            <g transform="translate(85.000000, 525.000000)">
                <g id="服务商品" transform="translate(41.000000, 300.000000)">
                    <path d="M7.4097,12.7535 L3.1427,10.2895 C2.7447,10.0605 2.4997,9.6355 2.4997,9.1765 L2.4997,4.2495 C2.4997,3.7895 2.7447,3.3655 3.1427,3.1355 L7.4097,0.6725 C7.8077,0.4425 8.2977,0.4425 8.6957,0.6725 L12.9627,3.1355 C13.3607,3.3655 13.6057,3.7895 13.6057,4.2495 L13.6057,9.1765 C13.6057,9.6355 13.3607,10.0605 12.9627,10.2895 L8.6957,12.7535 C8.2977,12.9825 7.8077,12.9825 7.4097,12.7535 Z" id="Stroke-1" stroke="#DFDFDF" stroke-linecap="round"></path>
                    <path d="M8.1172,12.9732 L7.9882,12.9732 C7.7482,12.9732 7.5532,12.7772 7.5532,12.5372 L7.5532,6.9692 C7.5532,6.7302 7.7482,6.5342 7.9882,6.5342 L8.1172,6.5342 C8.3562,6.5342 8.5532,6.7302 8.5532,6.9692 L8.5532,12.5372 C8.5532,12.7772 8.3562,12.9732 8.1172,12.9732" id="Fill-3" fill="#DFDFDF"></path>
                    <path d="M5.2295,8.854 L4.7235,8.557 C4.5445,8.442 4.4765,8.446 4.4765,8.311 L4.4765,5.174 C4.4765,5.039 4.5875,4.928 4.7235,4.928 L5.2295,4.928 C5.3655,4.928 5.4765,5.039 5.4765,5.174 L5.4765,8.608 C5.4765,8.744 5.3675,8.936 5.2295,8.854" id="Fill-5" fill="#DFDFDF"></path>
                    <path d="M8.3169,7.1138 L8.3169,7.1138 C8.1799,7.3518 7.8719,7.4338 7.6339,7.2968 L2.8179,4.5158 C2.5809,4.3788 2.4979,4.0718 2.6359,3.8338 C2.7729,3.5948 3.0809,3.5128 3.3179,3.6498 L8.1339,6.4298 C8.3719,6.5678 8.4549,6.8758 8.3169,7.1138" id="Fill-7" fill="#DFDFDF"></path>
                    <path d="M7.898,7.1138 L7.898,7.1138 C8.036,7.3518 8.343,7.4338 8.581,7.2968 L13.397,4.5158 C13.635,4.3788 13.717,4.0718 13.58,3.8338 C13.442,3.5948 13.135,3.5128 12.897,3.6498 L8.081,6.4298 C7.843,6.5678 7.761,6.8758 7.898,7.1138" id="Fill-9" fill="#DFDFDF"></path>
                </g>
            </g>
        </g>
    </g>
</svg>