<?xml version="1.0" encoding="UTF-8"?>
<svg width="14px" height="14px" viewBox="0 0 14 14" version="1.1" xmlns="http://www.w3.org/2000/svg" xmlns:xlink="http://www.w3.org/1999/xlink">
    <title>编组</title>
    <g id="切图" stroke="none" stroke-width="1" fill="none" fill-rule="evenodd">
        <g transform="translate(-127.000000, -1543.000000)" fill="#D4D8DC" id="菜单栏">
            <g transform="translate(85.000000, 525.000000)">
                <g id="编组" transform="translate(42.000000, 1018.000000)">
                    <path d="M11.0916,13.9814 L2.9036,13.9814 C1.5056,13.9814 0.4066,12.8824 0.4066,11.4854 L0.4066,4.0954 C0.4066,3.7954 0.6066,3.5964 0.9066,3.5964 C1.2056,3.5964 1.4056,3.7954 1.4056,4.0954 L1.4056,11.4854 C1.4056,12.2844 2.1046,12.9824 2.9036,12.9824 L11.0916,12.9824 C11.8906,12.9824 12.5896,12.2844 12.5896,11.4854 L12.5896,2.4984 C12.5896,1.6994 11.8906,1.0004 11.0916,1.0004 L2.9036,1.0004 C2.6046,1.0004 2.4036,0.8004 2.4036,0.5014 C2.4036,0.2014 2.6046,0.0024 2.9036,0.0024 L11.0916,0.0024 C12.4896,0.0024 13.5886,1.0994 13.5886,2.4984 L13.5886,11.3844 C13.5886,12.8824 12.4896,13.9814 11.0916,13.9814" id="Fill-3"></path>
                    <path d="M5.9993,12.084 C5.8993,12.084 5.6993,11.984 5.6003,11.984 L3.4033,9.787 C3.2033,9.588 3.2033,9.288 3.4033,9.089 C3.6033,8.889 4.0023,8.889 4.2013,8.988 L5.9993,10.886 L9.7933,7.091 C9.9933,6.892 10.2923,6.892 10.4923,7.091 C10.6923,7.291 10.6923,7.591 10.4923,7.79 L6.3983,11.984 C6.2983,12.084 6.1993,12.084 5.9993,12.084 M10.1933,3.696 L3.8023,3.696 C3.5023,3.696 3.3033,3.496 3.3033,3.197 C3.3033,2.897 3.5023,2.697 3.8023,2.697 L10.1933,2.697 C10.4923,2.697 10.6923,2.897 10.6923,3.197 C10.6923,3.496 10.4923,3.696 10.1933,3.696 M10.1933,5.893 L3.8023,5.893 C3.5023,5.893 3.3033,5.693 3.3033,5.394 C3.3033,5.094 3.5023,4.895 3.8023,4.895 L10.1933,4.895 C10.4923,4.895 10.6923,5.094 10.6923,5.394 C10.6923,5.693 10.4923,5.893 10.1933,5.893" id="Fill-5"></path>
                </g>
            </g>
        </g>
    </g>
</svg>