<?xml version="1.0" encoding="UTF-8"?>
<svg width="15px" height="14px" viewBox="0 0 15 14" version="1.1" xmlns="http://www.w3.org/2000/svg" xmlns:xlink="http://www.w3.org/1999/xlink">
    <title>供应链</title>
    <g id="切图" stroke="none" stroke-width="1" fill="none" fill-rule="evenodd">
        <g transform="translate(-126.000000, -1031.000000)" fill="#DFDFDF" id="菜单栏">
            <g transform="translate(85.000000, 525.000000)">
                <g id="供应链" transform="translate(41.000000, 506.000000)">
                    <path d="M2.07,8.71 C1.413,8.71 0.873,9.25 0.873,9.907 C0.873,10.564 1.413,11.105 2.07,11.105 C2.726,11.105 3.266,10.564 3.266,9.907 C3.266,9.241 2.726,8.71 2.07,8.71 L2.07,8.71 Z M2.07,11.968 C0.926,11.968 -8.8817842e-16,11.041 -8.8817842e-16,9.898 C-8.8817842e-16,8.755 0.926,7.828 2.07,7.828 C3.213,7.828 4.139,8.755 4.139,9.898 C4.139,11.041 3.204,11.968 2.07,11.968 L2.07,11.968 Z M10.762,8.71 C10.106,8.71 9.566,9.25 9.566,9.907 C9.566,10.564 10.106,11.105 10.762,11.105 C11.42,11.105 11.96,10.564 11.96,9.907 C11.96,9.241 11.428,8.71 10.762,8.71 L10.762,8.71 Z M10.762,11.968 C9.62,11.968 8.693,11.041 8.693,9.898 C8.693,8.755 9.62,7.828 10.762,7.828 C11.906,7.828 12.833,8.755 12.833,9.898 C12.833,11.041 11.906,11.968 10.762,11.968 L10.762,11.968 Z M6.416,0.882 C5.759,0.882 5.219,1.421 5.219,2.078 C5.219,2.735 5.759,3.275 6.416,3.275 C7.073,3.275 7.613,2.735 7.613,2.078 C7.613,1.421 7.073,0.882 6.416,0.882 L6.416,0.882 Z M6.416,4.139 C5.273,4.139 4.346,3.212 4.346,2.069 C4.346,0.926 5.273,7.99360578e-15 6.416,7.99360578e-15 C7.559,7.99360578e-15 8.486,0.926 8.486,2.069 C8.486,3.212 7.559,4.139 6.416,4.139 L6.416,4.139 Z M12.067,7.505 L11.195,7.495 L11.195,7.397 C11.195,5.597 10.205,3.968 8.603,3.14 L8.999,2.366 C10.888,3.338 12.058,5.264 12.058,7.397 L12.067,7.505 Z M6.416,13.057 C5.687,13.057 4.967,12.922 4.293,12.643 L4.616,11.833 C5.759,12.292 7.064,12.292 8.207,11.833 L8.531,12.643 C7.865,12.922 7.145,13.057 6.416,13.057 L6.416,13.057 Z M0.765,7.523 L0.765,7.405 C0.765,5.282 1.934,3.356 3.825,2.375 L4.22,3.149 C2.628,3.971 1.628,5.613 1.629,7.405 L1.629,7.505 L0.765,7.523 Z" id="Fill-1"></path>
                </g>
            </g>
        </g>
    </g>
</svg>