<?xml version="1.0" encoding="UTF-8"?>
<svg width="14px" height="14px" viewBox="0 0 14 14" version="1.1" xmlns="http://www.w3.org/2000/svg" xmlns:xlink="http://www.w3.org/1999/xlink">
    <title>系统管理</title>
    <defs>
        <polygon id="path-1" points="0.6219 0.0004 6.0699 0.0004 6.0699 1 0.6219 1"></polygon>
    </defs>
    <g id="切图" stroke="none" stroke-width="1" fill="none" fill-rule="evenodd">
        <g transform="translate(-126.000000, -619.000000)" id="菜单栏">
            <g transform="translate(85.000000, 525.000000)">
                <g id="系统管理" transform="translate(41.000000, 94.000000)">
                    <path d="M4.9972,11.1767 L2.2262,11.1767 C1.3492,11.1767 0.6312,10.4227 0.6312,9.5007 L0.6312,2.1767 C0.6312,1.2547 1.3492,0.4997 2.2262,0.4997 L11.6072,0.4997 C12.4842,0.4997 13.2022,1.2547 13.2022,2.1767 L13.2022,3.2797" id="Stroke-1" stroke="#DFDFDF" stroke-linecap="round"></path>
                    <g id="编组" transform="translate(1.000000, 12.371600)">
                        <mask id="mask-2" fill="white">
                            <use xlink:href="#path-1"></use>
                        </mask>
                        <g id="Clip-4"></g>
                        <path d="M5.5699,1.0004 L1.1219,1.0004 C0.8459,1.0004 0.6219,0.7754 0.6219,0.5004 C0.6219,0.2244 0.8459,0.0004 1.1219,0.0004 L5.5699,0.0004 C5.8459,0.0004 6.0699,0.2244 6.0699,0.5004 C6.0699,0.7754 5.8459,1.0004 5.5699,1.0004" id="Fill-3" fill="#DFDFDF" mask="url(#mask-2)"></path>
                    </g>
                    <path d="M12.8941,8.2079 C12.8941,8.4069 12.8541,8.6629 12.8361,8.7699 C12.1131,8.8289 11.5521,9.4349 11.5521,10.1649 C11.5521,10.3719 11.6181,10.5689 11.6521,10.6599 L10.8671,11.0939 C10.8281,11.0539 10.7141,10.9379 10.5591,10.8229 C10.2861,10.6209 10.0251,10.5179 9.7831,10.5179 C9.5421,10.5179 9.2831,10.6179 9.0121,10.8169 C8.8571,10.9309 8.7451,11.0419 8.7051,11.0839 L7.9501,10.6609 C7.9861,10.5649 8.0501,10.3699 8.0501,10.1649 C8.0501,9.4349 7.4891,8.8289 6.7661,8.7699 C6.7481,8.6629 6.7081,8.4069 6.7081,8.2079 C6.7081,8.0089 6.7481,7.7519 6.7661,7.6459 C7.4891,7.5859 8.0501,6.9809 8.0501,6.2499 C8.0501,6.0449 7.9851,5.8469 7.9501,5.7559 L8.7551,5.3129 C8.7901,5.3489 8.9051,5.4609 9.0611,5.5729 C9.3291,5.7639 9.5841,5.8599 9.8201,5.8599 C10.0531,5.8599 10.3061,5.7659 10.5721,5.5779 C10.7301,5.4669 10.8451,5.3559 10.8781,5.3249 L11.6521,5.7549 C11.6181,5.8459 11.5521,6.0429 11.5521,6.2499 C11.5521,6.9809 12.1131,7.5859 12.8361,7.6459 C12.8541,7.7529 12.8941,8.0099 12.8941,8.2079 M13.3431,7.4989 C13.3001,7.2719 13.1611,7.1249 12.9821,7.1249 L12.9521,7.1249 C12.4691,7.1249 12.0771,6.7319 12.0771,6.2499 C12.0771,6.0979 12.1501,5.9239 12.1531,5.9169 C12.2421,5.7169 12.1731,5.4719 11.9941,5.3459 L11.0881,4.8419 L11.0751,4.8349 C10.8941,4.7569 10.6461,4.8069 10.5111,4.9469 C10.4141,5.0489 10.0771,5.3359 9.8201,5.3359 C9.5591,5.3359 9.2221,5.0429 9.1231,4.9399 C8.9891,4.7979 8.7441,4.7449 8.5611,4.8229 L7.6231,5.3369 L7.6091,5.3459 C7.4291,5.4719 7.3601,5.7169 7.4491,5.9159 C7.4521,5.9239 7.5251,6.0959 7.5251,6.2499 C7.5251,6.7319 7.1331,7.1249 6.6511,7.1249 L6.6141,7.1249 C6.4411,7.1249 6.3021,7.2719 6.2591,7.4989 C6.2561,7.5159 6.1831,7.8989 6.1831,8.2079 C6.1831,8.5159 6.2561,8.8999 6.2591,8.9159 C6.3021,9.1439 6.4411,9.2909 6.6201,9.2909 L6.6511,9.2909 C7.1331,9.2909 7.5251,9.6829 7.5251,10.1649 C7.5251,10.3179 7.4521,10.4919 7.4491,10.4979 C7.3601,10.6989 7.4281,10.9439 7.6081,11.0689 L8.4961,11.5669 L8.5091,11.5739 C8.6931,11.6539 8.9411,11.6019 9.0761,11.4549 C9.2001,11.3209 9.5361,11.0429 9.7831,11.0429 C10.0501,11.0429 10.3941,11.3539 10.4941,11.4639 C10.5851,11.5639 10.7261,11.6239 10.8701,11.6239 C10.9371,11.6239 11.0011,11.6109 11.0591,11.5859 L11.9801,11.0789 L11.9941,11.0699 C12.1731,10.9439 12.2421,10.6989 12.1531,10.4999 C12.1501,10.4919 12.0771,10.3189 12.0771,10.1649 C12.0771,9.6829 12.4691,9.2909 12.9521,9.2909 L12.9871,9.2909 C13.1611,9.2909 13.3001,9.1439 13.3431,8.9159 C13.3461,8.8999 13.4191,8.5159 13.4191,8.2079 C13.4191,7.8989 13.3461,7.5159 13.3431,7.4989" id="Fill-5" fill="#DFDFDF"></path>
                    <path d="M10.548,8.203 C10.548,8.623 10.206,8.965 9.785,8.965 C9.365,8.965 9.024,8.623 9.024,8.203 C9.024,7.783 9.365,7.441 9.785,7.441 C10.206,7.441 10.548,7.783 10.548,8.203 M9.785,6.916 C9.076,6.916 8.498,7.493 8.498,8.203 C8.498,8.913 9.076,9.49 9.785,9.49 C10.495,9.49 11.073,8.913 11.073,8.203 C11.073,7.493 10.495,6.916 9.785,6.916" id="Fill-7" fill="#DFDFDF"></path>
                </g>
            </g>
        </g>
    </g>
</svg>