<?xml version="1.0" encoding="UTF-8"?>
<svg width="14px" height="14px" viewBox="0 0 14 14" version="1.1" xmlns="http://www.w3.org/2000/svg" xmlns:xlink="http://www.w3.org/1999/xlink">
    <title>推广管理</title>
    <g id="切图" stroke="none" stroke-width="1" fill="none" fill-rule="evenodd">
        <g transform="translate(-126.000000, -1185.000000)" id="菜单栏">
            <g transform="translate(85.000000, 525.000000)">
                <g id="推广管理" transform="translate(41.000000, 660.000000)">
                    <g id="编组-3" transform="translate(2.000000, 1.500100)">
                        <path d="M8.0034,11.1281 L6.5924,10.3141 C6.1944,10.0841 5.9494,9.6591 5.9494,9.2001 L5.9494,7.5701 C5.9494,7.1111 6.1944,6.6871 6.5924,6.4571 L8.0034,5.6431 C8.4004,5.4131 8.8914,5.4131 9.2894,5.6431 L10.7004,6.4571 C11.0984,6.6871 11.3434,7.1111 11.3434,7.5701 L11.3434,9.2001 C11.3434,9.6591 11.0984,10.0841 10.7004,10.3141 L9.2894,11.1281 C8.8914,11.3581 8.4004,11.3581 8.0034,11.1281 Z" id="Stroke-1" stroke="#DFDFDF" stroke-width="0.75" stroke-linecap="round"></path>
                        <path d="M8.45993537,2.9249 C8.4559,3.1979 8.2329,3.4179 7.9599,3.4179 L1.8539,3.4179 C1.5799,3.4179 1.3569,3.1979 1.35286444,2.9249 C1.3499,2.6089 1.5369,2.4179 1.8519,2.4179 L7.9609,2.4179 C8.2749,2.4189 8.4629,2.6089 8.45993537,2.9249" id="Fill-3" fill="#DFDFDF"></path>
                        <path d="M5.06593537,5.6242 C5.0619,5.8962 4.8379,6.1162 4.5659,6.1162 L1.8539,6.1162 C1.5799,6.1162 1.3569,5.8962 1.35286444,5.6232 C1.3499,5.3072 1.5369,5.1172 1.8519,5.1172 L4.5659,5.1172 C4.8809,5.1172 5.0689,5.3072 5.06593537,5.6242" id="Fill-5" fill="#DFDFDF"></path>
                        <path d="M3.102,8.089 C3.097,8.362 2.874,8.581 2.601,8.581 L1.854,8.581 C1.581,8.581 1.358,8.361 1.353,8.088 C1.35,7.772 1.538,7.582 1.852,7.582 L2.603,7.582 C2.918,7.582 3.105,7.772 3.102,8.089" id="Fill-7" fill="#DFDFDF"></path>
                        <path d="M4.833,11.674 L1.477,11.674 C0.665,11.674 8.8817842e-16,11.01 8.8817842e-16,10.197 L8.8817842e-16,1.476 C8.8817842e-16,0.664 0.665,3.55271368e-15 1.477,3.55271368e-15 L9.069,3.55271368e-15 C9.881,3.55271368e-15 10.545,0.664 10.545,1.476 L10.545,3.859" id="Stroke-9" stroke="#DFDFDF" stroke-linecap="round"></path>
                        <path d="M9.6894,8.6476 L7.5884,8.6476 C7.4364,8.6476 7.3114,8.5226 7.3114,8.3706 C7.3114,8.2186 7.4364,8.0936 7.5884,8.0936 L9.6894,8.0936 C9.8414,8.0936 9.9654,8.2186 9.9654,8.3706 C9.9654,8.5226 9.8414,8.6476 9.6894,8.6476" id="Fill-11" fill="#DFDFDF"></path>
                        <path d="M9.58,8.6183 L8.917,8.0113 C8.782,7.9423 8.726,7.7753 8.795,7.6393 C8.863,7.5043 9.03,7.4493 9.166,7.5173 L9.829,8.1243 C9.964,8.1923 10.019,8.3593 9.951,8.4953 C9.883,8.6313 9.716,8.6863 9.58,8.6183" id="Fill-13" fill="#DFDFDF"></path>
                        <path d="M9.58,8.1535 L8.917,8.7595 C8.782,8.8285 8.726,8.9955 8.795,9.1315 C8.863,9.2665 9.03,9.3225 9.166,9.2545 L9.829,8.6475 C9.964,8.5795 10.019,8.4125 9.951,8.2755 C9.883,8.1395 9.716,8.0855 9.58,8.1535" id="Fill-15" fill="#DFDFDF"></path>
                    </g>
                </g>
            </g>
        </g>
    </g>
</svg>