<?xml version="1.0" encoding="UTF-8"?>
<svg width="14px" height="14px" viewBox="0 0 14 14" version="1.1" xmlns="http://www.w3.org/2000/svg" xmlns:xlink="http://www.w3.org/1999/xlink">
    <title>支付中心</title>
    <g id="切图" stroke="none" stroke-width="1" fill="none" fill-rule="evenodd">
        <g transform="translate(-126.000000, -1133.000000)" id="菜单栏">
            <g transform="translate(85.000000, 525.000000)">
                <g id="支付中心" transform="translate(41.000000, 608.000000)">
                    <path d="M5.2432,4.2794 C5.2872,4.2044 5.3602,4.1494 5.4442,4.1284 C5.5292,4.1054 5.6182,4.1184 5.6942,4.1634 L7.4862,5.2204 L9.2312,4.1654 C9.3872,4.0724 9.5882,4.1224 9.6812,4.2764 C9.7752,4.4314 9.7262,4.6334 9.5722,4.7274 L7.8172,5.7904 L7.8172,6.2884 L9.9912,6.2884 C10.1722,6.2884 10.3192,6.4354 10.3192,6.6174 C10.3192,6.7994 10.1722,6.9464 9.9912,6.9464 L7.8172,6.9464 L7.8172,7.8294 L9.9932,7.8444 C10.1102,7.8454 10.2182,7.9094 10.2762,8.0114 C10.3342,8.1134 10.3332,8.2394 10.2742,8.3414 C10.2152,8.4414 10.1052,8.5044 9.9882,8.5034 L7.8172,8.4874 L7.8172,9.4034 C7.8172,9.5204 7.7552,9.6294 7.6532,9.6874 C7.5512,9.7474 7.4262,9.7474 7.3242,9.6874 C7.2222,9.6294 7.1602,9.5204 7.1602,9.4034 L7.1602,8.4844 L4.9382,8.4844 C4.7562,8.4844 4.6092,8.3384 4.6092,8.1564 C4.6092,7.9744 4.7562,7.8274 4.9382,7.8274 L7.1602,7.8274 L7.1602,6.9464 L4.9382,6.9464 C4.7562,6.9464 4.6092,6.8004 4.6092,6.6184 C4.6092,6.4364 4.7562,6.2894 4.9382,6.2894 L7.1602,6.2894 L7.1602,5.7924 L5.3592,4.7294 C5.2032,4.6364 5.1512,4.4354 5.2432,4.2794 Z" id="Fill-1" fill="#DFDFDF"></path>
                    <path d="M7.3848,12.2697 C4.1348,12.2697 1.4998,9.6347 1.4998,6.3847 C1.4998,3.1347 4.1348,0.4997 7.3848,0.4997 C10.6348,0.4997 13.2688,3.1347 13.2688,6.3847" id="Stroke-3" stroke="#DFDFDF" stroke-linecap="round"></path>
                    <path d="M13.5669,8.7658 L11.4019,11.5708 C10.9989,12.0918 10.2429,12.1898 9.7209,11.7868 L8.7939,11.0708" id="Stroke-5" stroke="#DFDFDF" stroke-width="0.75" stroke-linecap="round"></path>
                </g>
            </g>
        </g>
    </g>
</svg>