<?xml version="1.0" encoding="UTF-8"?>
<svg width="14px" height="14px" viewBox="0 0 14 14" version="1.1" xmlns="http://www.w3.org/2000/svg" xmlns:xlink="http://www.w3.org/1999/xlink">
    <title>编组</title>
    <g id="切图" stroke="none" stroke-width="1" fill="none" fill-rule="evenodd">
        <g transform="translate(-128.000000, -1646.000000)" id="菜单栏">
            <g transform="translate(85.000000, 525.000000)">
                <g id="编组" transform="translate(43.000000, 1121.000000)">
                    <path d="M2.4963,13.6391 L10.6843,13.6391 C12.0823,13.6391 13.1813,12.5401 13.1813,11.1431 L13.1813,5.6541 C13.1813,5.3541 12.9813,5.1551 12.6813,5.1551 C12.3823,5.1551 12.1823,5.3541 12.1823,5.6541 L12.1823,11.1431 C12.1823,11.9421 11.4833,12.6411 10.6843,12.6411 L2.4963,12.6411 C1.6973,12.6411 0.9983,11.9421 0.9983,11.1431 L0.9983,3.2561 C0.9983,2.4571 1.6973,1.7581 2.4963,1.7581 L7.0843,1.7581 C7.3843,1.7581 7.5833,1.5581 7.5833,1.2591 C7.5833,0.9591 7.3843,0.7591 7.0843,0.7591 L2.4963,0.7591 C1.0983,0.7591 0.0003,1.8581 0.0003,3.2561 L0.0003,11.0431 C0.0003,12.5401 1.0983,13.6391 2.4963,13.6391" id="Fill-1" fill="#D4D8DC"></path>
                    <polyline id="Stroke-3" stroke="#D4D8DC" stroke-linecap="round" stroke-linejoin="round" points="2.6916 9.183 3.9216 6.506 6.7556 9.35 10.4896 5.276"></polyline>
                    <path d="M12.7741,2.0004 C12.7741,2.8284 12.1021,3.5004 11.2741,3.5004 C10.4451,3.5004 9.7741,2.8284 9.7741,2.0004 C9.7741,1.1714 10.4451,0.5004 11.2741,0.5004 C12.1021,0.5004 12.7741,1.1714 12.7741,2.0004 Z" id="Stroke-5" stroke="#D4D8DC" stroke-linecap="round" stroke-linejoin="round"></path>
                </g>
            </g>
        </g>
    </g>
</svg>