<?xml version="1.0" encoding="UTF-8"?>
<svg width="14px" height="14px" viewBox="0 0 14 14" version="1.1" xmlns="http://www.w3.org/2000/svg" xmlns:xlink="http://www.w3.org/1999/xlink">
    <title>基础资料</title>
    <g id="切图" stroke="none" stroke-width="1" fill="none" fill-rule="evenodd">
        <g transform="translate(-126.000000, -721.000000)" id="菜单栏">
            <g transform="translate(85.000000, 525.000000)">
                <g id="基础资料" transform="translate(41.000000, 196.000000)">
                    <path d="M9.3449,8.8099 C9.1479,9.0189 9.0569,9.3069 9.0959,9.5909 L9.2669,10.5859 L8.3789,10.1179 C8.1229,9.9939 7.8239,9.9939 7.5679,10.1179 L6.6799,10.5859 L6.8499,9.5909 C6.8899,9.3069 6.7979,9.0189 6.6009,8.8099 L5.8909,8.0989 L6.8789,7.9559 C7.1589,7.9039 7.3999,7.7249 7.5329,7.4729 L7.9729,6.5639 L8.4139,7.4729 C8.5469,7.7249 8.7879,7.9039 9.0679,7.9559 L10.0559,8.0989 L9.3449,8.8099 Z M10.6669,8.2899 C10.8029,8.1729 10.8589,7.9879 10.8089,7.8149 C10.7489,7.6469 10.5959,7.5309 10.4179,7.5159 L9.1529,7.2949 C9.0709,7.2719 8.9999,7.2189 8.9539,7.1459 L8.3709,5.9589 C8.3139,5.7849 8.1509,5.6659 7.9659,5.6659 C7.7819,5.6659 7.6179,5.7849 7.5609,5.9589 L6.9779,7.1459 C6.9319,7.2189 6.8619,7.2719 6.7789,7.2949 L5.4789,7.4879 C5.3009,7.5019 5.1479,7.6189 5.0879,7.7869 C5.0379,7.9589 5.0939,8.1449 5.2299,8.2619 L6.1679,9.2439 C6.2229,9.3119 6.2509,9.3979 6.2459,9.4849 L6.0259,10.7919 C5.9949,10.9349 6.0289,11.0829 6.1179,11.1979 C6.1959,11.2899 6.3109,11.3419 6.4309,11.3399556 C6.5179,11.3389 6.6029,11.3179 6.6799,11.2759 L7.8239,10.6289 C7.9039,10.5989 7.9929,10.5989 8.0729,10.6289 L9.2309,11.2479 C9.3079,11.2889 9.3929,11.3109 9.4799,11.3119 C9.5999,11.3139 9.7159,11.2619 9.7929,11.1689 C9.8819,11.0549 9.9159,10.9069 9.8859,10.7639 L9.6859,9.4279 C9.6809,9.3399 9.7099,9.2539 9.7639,9.1859 L10.6669,8.2899 Z" id="Fill-1" fill="#DFDFDF"></path>
                    <path d="M6.6823,4.4369 L12.8443,4.4369 L12.8443,12.6289 L3.4583,12.6289 C2.9313,12.6289 2.5003,12.1979 2.5003,11.6699 L2.5003,2.4679" id="Stroke-3" stroke="#DFDFDF"></path>
                    <path d="M11.3498,4.4369 L4.4688,4.4369 C3.3858,4.4369 2.4998,3.5509 2.4998,2.4679 C2.4998,1.3859 3.3858,0.4999 4.4688,0.4999 L12.8438,0.4999" id="Stroke-5" stroke="#DFDFDF" stroke-linecap="round"></path>
                    <path d="M12.904,3.0414 L4.438,3.0414 C4.195,3.0414 3.996,2.8434 3.996,2.5994 L3.996,2.4834 C3.996,2.2404 4.195,2.0414 4.438,2.0414 L12.904,2.0414 C13.147,2.0414 13.346,2.2404 13.346,2.4834 L13.346,2.5994 C13.346,2.8434 13.147,3.0414 12.904,3.0414" id="Fill-7" fill="#DFDFDF"></path>
                </g>
            </g>
        </g>
    </g>
</svg>