<?xml version="1.0" encoding="UTF-8"?>
<svg width="14px" height="14px" viewBox="0 0 14 14" version="1.1" xmlns="http://www.w3.org/2000/svg" xmlns:xlink="http://www.w3.org/1999/xlink">
    <title>数据中心</title>
    <defs>
        <polygon id="path-1" points="0.0003 0.0001 11.1643 0.0001 11.1643 12.406 0.0003 12.406"></polygon>
    </defs>
    <g id="切图" stroke="none" stroke-width="1" fill="none" fill-rule="evenodd">
        <g transform="translate(-126.000000, -1082.000000)" id="菜单栏">
            <g transform="translate(85.000000, 525.000000)">
                <g id="数据中心" transform="translate(43.000000, 558.000000)">
                    <mask id="mask-2" fill="white">
                        <use xlink:href="#path-1"></use>
                    </mask>
                    <g id="Clip-2"></g>
                    <path d="M5.7893,6.207 L6.7543,5.219 L8.8473,3.077 L9.7003,3.949 L10.6653,0 L6.8063,0.987 L7.8833,2.09 L5.7893,4.231 L3.8593,2.257 L0.0003,6.207 L0.9653,7.194 L3.8593,4.232 L4.8243,5.22 L5.7893,6.207 Z M10.4823,6.122 L9.1183,6.122 C8.7413,6.122 8.4353,6.435 8.4353,6.82 L8.4353,11.708 C8.4353,12.094 8.7413,12.406 9.1183,12.406 L10.4823,12.406 C10.8593,12.406 11.1643,12.094 11.1643,11.708 L11.1643,6.82 C11.1643,6.435 10.8593,6.122 10.4823,6.122 L10.4823,6.122 Z M6.3883,7.519 L5.0233,7.519 C4.6473,7.519 4.3413,7.831 4.3413,8.218 L4.3413,11.708 C4.3413,12.094 4.6473,12.406 5.0233,12.406 L6.3883,12.406 C6.7643,12.406 7.07030244,12.094 7.07030244,11.708 L7.07030244,8.218 C7.0713,7.831 6.7653,7.519 6.3883,7.519 L6.3883,7.519 Z M2.2953,8.915 L0.9303,8.915 C0.5543,8.915 0.2483,9.227 0.2483,9.613 L0.2483,11.708 C0.2483,12.093 0.5543,12.405 0.9303,12.405 L2.2953,12.405 C2.6713,12.405 2.9773,12.093 2.9773,11.708 L2.9773,9.613 C2.9773,9.227 2.6713,8.915 2.2953,8.915 L2.2953,8.915 Z" id="Fill-1" fill="#DFDFDF" mask="url(#mask-2)"></path>
                </g>
            </g>
        </g>
    </g>
</svg>