<?xml version="1.0" encoding="UTF-8"?>
<svg width="14px" height="14px" viewBox="0 0 14 14" version="1.1" xmlns="http://www.w3.org/2000/svg" xmlns:xlink="http://www.w3.org/1999/xlink">
    <title>客户管理</title>
    <g id="切图" stroke="none" stroke-width="1" fill="none" fill-rule="evenodd">
        <g transform="translate(-126.000000, -773.000000)" id="菜单栏">
            <g transform="translate(85.000000, 525.000000)">
                <g id="客户管理" transform="translate(41.000000, 248.000000)">
                    <path d="M11.4612308,3.84526154 C11.4612308,5.67172308 9.98046154,7.15141538 8.15507692,7.15141538 C6.32861538,7.15141538 4.84784615,5.67172308 4.84784615,3.84526154 C4.84784615,2.0188 6.32861538,0.539107692 8.15507692,0.539107692 C9.98046154,0.539107692 11.4612308,2.0188 11.4612308,3.84526154 Z" id="Stroke-1" stroke="#DFDFDF" stroke-linecap="round"></path>
                    <path d="M1.53856923,12.9044462 C1.53856923,9.73183077 4.44195385,7.15906154 8.02487692,7.15906154 C8.68072308,7.15906154 9.31503077,7.24521538 9.91164615,7.40675385" id="Stroke-3" stroke="#DFDFDF" stroke-linecap="round"></path>
                    <path d="M7.56212308,13.4965385 L1.6552,13.4965385 C1.32781538,13.4965385 1.06289231,13.2316154 1.06289231,12.9042308 C1.06289231,12.5768462 1.32781538,12.3108462 1.6552,12.3108462 L7.56212308,12.3108462 C7.88950769,12.3108462 8.15443077,12.5768462 8.15443077,12.9042308 C8.15443077,13.2316154 7.88950769,13.4965385 7.56212308,13.4965385" id="Fill-5" fill="#DFDFDF"></path>
                    <path d="M13.9273846,10.8389077 C13.9273846,10.9842923 13.8983077,11.1706 13.8843077,11.2481385 C13.3587692,11.2912154 12.9506154,11.7306 12.9506154,12.2626 C12.9506154,12.4133692 12.998,12.5576769 13.0227692,12.6233692 L12.4509231,12.9389077 C12.424,12.9098308 12.34,12.8269077 12.2269231,12.7429077 C12.0287692,12.5953692 11.8392308,12.5199846 11.6615385,12.5199846 C11.4870769,12.5199846 11.2986154,12.5932154 11.1004615,12.7386 C10.9884615,12.8204462 10.9066154,12.9012154 10.8775385,12.9313692 L10.3283077,12.6233692 C10.3552308,12.5544462 10.4015385,12.4122923 10.4015385,12.2626 C10.4015385,11.7306 9.99230769,11.2912154 9.46569231,11.2481385 C9.45276923,11.1706 9.42369231,10.9842923 9.42369231,10.8389077 C9.42369231,10.6935231 9.45276923,10.5061385 9.46569231,10.4286 C9.99230769,10.3855231 10.4015385,9.94613846 10.4015385,9.41413846 C10.4015385,9.26444615 10.3530769,9.11906154 10.3283077,9.05444615 L10.9141538,8.73136923 C10.94,8.75721538 11.0229231,8.83906154 11.1370769,8.92090769 C11.332,9.05983077 11.5172308,9.12983077 11.6884615,9.12983077 C11.8596923,9.12983077 12.0427692,9.06090769 12.2366154,8.92521538 C12.3518462,8.84336923 12.4347692,8.7626 12.4595385,8.73998462 L13.0238462,9.05336923 C12.998,9.11798462 12.9506154,9.26229231 12.9506154,9.41413846 C12.9506154,9.94613846 13.3587692,10.3855231 13.8843077,10.4286 C13.8983077,10.5061385 13.9273846,10.6935231 13.9273846,10.8389077 M14.2536923,10.3230615 C14.2224615,10.1572154 14.1212308,10.0506 13.992,10.0506 L13.9693846,10.0506 C13.6172308,10.0506 13.3318462,9.76521538 13.3318462,9.41413846 C13.3318462,9.30213846 13.3856923,9.17613846 13.3878462,9.17075385 C13.4524615,9.02536923 13.4029231,8.8466 13.2715385,8.75398462 L12.6124615,8.38890769 L12.6027692,8.38352308 C12.4713846,8.32644615 12.2904615,8.36306154 12.1924615,8.46536923 C12.1213846,8.5386 11.8758462,8.7486 11.6884615,8.7486 C11.5,8.7486 11.2544615,8.53429231 11.1823077,8.45998462 C11.0843077,8.3566 10.9055385,8.31783077 10.772,8.37490769 L10.0903077,8.74967692 L10.0795385,8.75506154 C9.94923077,8.8466 9.89861538,9.02429231 9.96323077,9.16967692 C9.96538462,9.17506154 10.0192308,9.30106154 10.0192308,9.41413846 C10.0192308,9.76521538 9.73276923,10.0506 9.38276923,10.0506 L9.35584615,10.0506 C9.22984615,10.0506 9.12861538,10.1572154 9.09738462,10.3230615 C9.09523077,10.3338308 9.04246154,10.6138308 9.04246154,10.8389077 C9.04246154,11.0629077 9.09523077,11.3429077 9.09738462,11.3547538 C9.12861538,11.5195231 9.22984615,11.6261385 9.36015385,11.6261385 L9.38276923,11.6261385 C9.73276923,11.6261385 10.0192308,11.9126 10.0192308,12.2626 C10.0192308,12.3756769 9.96538462,12.5006 9.96323077,12.5059846 C9.89861538,12.6524462 9.94815385,12.8312154 10.0795385,12.9216769 L10.7256923,13.2846 L10.7353846,13.2878308 C10.8689231,13.3470615 11.0498462,13.3093692 11.1478462,13.2016769 C11.2372308,13.1047538 11.4816923,12.9022923 11.6615385,12.9022923 C11.8564615,12.9022923 12.1073846,13.1284462 12.1795385,13.2081385 C12.2463077,13.2824462 12.3486154,13.3255231 12.4530769,13.3255231 C12.5026154,13.3255231 12.5489231,13.3158308 12.5909231,13.2975231 L13.2618462,12.9281385 L13.2715385,12.9227538 C13.4029231,12.8312154 13.4524615,12.6524462 13.3878462,12.5070615 C13.3856923,12.5016769 13.3318462,12.3756769 13.3318462,12.2626 C13.3318462,11.9126 13.6172308,11.6261385 13.9693846,11.6261385 L13.9952308,11.6261385 C14.1212308,11.6261385 14.2224615,11.5195231 14.2536923,11.3547538 C14.2558462,11.3429077 14.3086154,11.0629077 14.3086154,10.8389077 C14.3086154,10.6138308 14.2558462,10.3338308 14.2536923,10.3230615" id="Fill-7" fill="#DFDFDF"></path>
                    <path d="M12.2189538,10.8347077 C12.2189538,11.1405538 11.9701846,11.3904 11.6643385,11.3904 C11.3584923,11.3904 11.1097231,11.1405538 11.1097231,10.8347077 C11.1097231,10.5299385 11.3584923,10.2800923 11.6643385,10.2800923 C11.9701846,10.2800923 12.2189538,10.5299385 12.2189538,10.8347077 M11.6643385,9.89778462 C11.1474154,9.89778462 10.7274154,10.3188615 10.7274154,10.8347077 C10.7274154,11.3516308 11.1474154,11.7716308 11.6643385,11.7716308 C12.1801846,11.7716308 12.6012615,11.3516308 12.6012615,10.8347077 C12.6012615,10.3188615 12.1801846,9.89778462 11.6643385,9.89778462" id="Fill-9" fill="#DFDFDF"></path>
                </g>
            </g>
        </g>
    </g>
</svg>