<?xml version="1.0" encoding="UTF-8"?>
<svg width="14px" height="14px" viewBox="0 0 14 14" version="1.1" xmlns="http://www.w3.org/2000/svg" xmlns:xlink="http://www.w3.org/1999/xlink">
    <title>营销管理</title>
    <g id="切图" stroke="none" stroke-width="1" fill="none" fill-rule="evenodd">
        <g transform="translate(-126.000000, -1236.000000)" id="菜单栏">
            <g transform="translate(85.000000, 525.000000)">
                <g id="营销管理" transform="translate(41.000000, 711.000000)">
                    <path d="M13.5985,10.7932 C13.5985,10.9282 13.5715,11.1012 13.5595,11.1732 C13.0705,11.2132 12.6915,11.6222 12.6915,12.1162 C12.6915,12.2562 12.7355,12.3902 12.7595,12.4512 L12.2285,12.7442 C12.2025,12.7172 12.1255,12.6392 12.0205,12.5612 C11.8355,12.4242 11.6595,12.3552 11.4955,12.3552 C11.3325,12.3552 11.1575,12.4222 10.9735,12.5582 C10.8695,12.6332 10.7935,12.7092 10.7665,12.7372 L10.2565,12.4512 C10.2815,12.3872 10.3245,12.2552 10.3245,12.1162 C10.3245,11.6222 9.9455,11.2132 9.4565,11.1732 C9.4445,11.1012 9.4175,10.9282 9.4175,10.7932 C9.4175,10.6582 9.4445,10.4852 9.4565,10.4132 C9.9455,10.3732 10.3245,9.9642 10.3245,9.4702 C10.3245,9.3312 10.2805,9.1972 10.2565,9.1362 L10.8005,8.8372 C10.8245,8.8602 10.9015,8.9372 11.0085,9.0122 C11.1885,9.1412 11.3615,9.2062 11.5205,9.2062 C11.6785,9.2062 11.8495,9.1432 12.0285,9.0162 C12.1365,8.9402 12.2135,8.8652 12.2355,8.8452 L12.7595,9.1352 C12.7355,9.1962 12.6915,9.3302 12.6915,9.4702 C12.6915,9.9642 13.0705,10.3732 13.5595,10.4132 C13.5715,10.4852 13.5985,10.6592 13.5985,10.7932 M13.9025,10.3142 C13.8725,10.1602 13.7795,10.0622 13.6585,10.0622 L13.6375,10.0622 C13.3115,10.0622 13.0465,9.7962 13.0465,9.4702 C13.0465,9.3672 13.0955,9.2492 13.0975,9.2452 C13.1575,9.1092 13.1115,8.9432 12.9895,8.8582 L12.3775,8.5182 L12.3695,8.5142 C12.2465,8.4602 12.0785,8.4942 11.9875,8.5892 C11.9215,8.6572 11.6945,8.8522 11.5205,8.8522 C11.3445,8.8522 11.1165,8.6532 11.0505,8.5842 C10.9585,8.4882 10.7925,8.4522 10.6695,8.5062 L10.0355,8.8532 L10.0265,8.8582 C9.9045,8.9432 9.8585,9.1092 9.9175,9.2442 C9.9205,9.2492 9.9695,9.3652 9.9695,9.4702 C9.9695,9.7962 9.7045,10.0622 9.3785,10.0622 L9.3535,10.0622 C9.2375,10.0622 9.1425,10.1602 9.1135,10.3142 C9.1115,10.3252 9.0625,10.5852 9.0625,10.7932 C9.0625,11.0012 9.1115,11.2612 9.1135,11.2722 C9.1425,11.4262 9.2375,11.5252 9.3575,11.5252 L9.3785,11.5252 C9.7045,11.5252 9.9695,11.7902 9.9695,12.1162 C9.9695,12.2202 9.9205,12.3372 9.9185,12.3422 C9.8585,12.4772 9.9045,12.6432 10.0255,12.7282 L10.6255,13.0642 L10.6345,13.0682 C10.7595,13.1232 10.9265,13.0872 11.0175,12.9882 C11.1015,12.8972 11.3285,12.7092 11.4955,12.7092 C11.6765,12.7092 11.9095,12.9202 11.9755,12.9942 C12.0375,13.0622 12.1335,13.1032 12.2305,13.1032 C12.2755,13.1032 12.3185,13.0942 12.3585,13.0762 L12.9805,12.7332 L12.9895,12.7282 C13.1115,12.6432 13.1585,12.4772 13.0985,12.3422 C13.0955,12.3372 13.0465,12.2212 13.0465,12.1162 C13.0465,11.7902 13.3115,11.5252 13.6375,11.5252 L13.6615,11.5252 C13.7785,11.5252 13.8725,11.4262 13.9025,11.2722 C13.9045,11.2612 13.9535,11.0012 13.9535,10.7932 C13.9535,10.5852 13.9045,10.3252 13.9025,10.3142" id="Fill-1" fill="#DFDFDF"></path>
                    <path d="M12.0126,10.7903 C12.0126,11.0743 11.7816,11.3053 11.4976,11.3053 C11.2136,11.3053 10.9826,11.0743 10.9826,10.7903 C10.9826,10.5063 11.2136,10.2743 11.4976,10.2743 C11.7816,10.2743 12.0126,10.5063 12.0126,10.7903 M11.4976,9.9203 C11.0176,9.9203 10.6276,10.3113 10.6276,10.7903 C10.6276,11.2693 11.0176,11.6603 11.4976,11.6603 C11.9766,11.6603 12.3676,11.2693 12.3676,10.7903 C12.3676,10.3113 11.9766,9.9203 11.4976,9.9203" id="Fill-3" fill="#DFDFDF"></path>
                    <path d="M8.77972257,8.4886 C8.7767,8.7616 8.6207,8.9806 8.4287,8.9806 L5.0377,8.9806 C4.8457,8.9806 4.6897,8.7616 4.6867,8.4886 C4.6837,8.1716 4.8157,7.9816 5.0367,7.9816 L8.4297,7.9816 C8.6507,7.9816 8.7817,8.1716 8.77972257,8.4886" id="Fill-5" fill="#DFDFDF"></path>
                    <path d="M7.3329,13.1741 L3.9769,13.1741 C3.1649,13.1741 2.4999,12.5101 2.4999,11.6971 L2.4999,2.9761 C2.4999,2.1641 3.1649,1.5001 3.9769,1.5001 L11.5679,1.5001 C12.3799,1.5001 13.0449,2.1641 13.0449,2.9761 L13.0449,5.3591" id="Stroke-7" stroke="#DFDFDF" stroke-linecap="round"></path>
                    <path d="M6.5809,5.1487 L7.9939,6.5617 C8.0729,6.6407 8.1799,6.6847 8.2909,6.6837 C8.4029,6.6837 8.5089,6.6387 8.5869,6.5597 L10.4949,4.6307 C10.6569,4.4667 10.6559,4.2027 10.4919,4.0397 C10.3269,3.8777 10.0619,3.8777 9.8999,4.0427 L8.2889,5.6717 L6.8769,4.2607 C6.7989,4.1827 6.6919,4.1387 6.5809,4.1387 C6.4699,4.1387 6.3639,4.1827 6.2859,4.2607 L4.5769,5.9697 C4.4709,6.0757 4.4299,6.2297 4.4679,6.3747 C4.5069,6.5187 4.6199,6.6307 4.7639,6.6697 C4.9089,6.7087 5.0629,6.6677 5.1679,6.5617 L6.5809,5.1487 Z" id="Fill-9" fill="#DFDFDF"></path>
                </g>
            </g>
        </g>
    </g>
</svg>