<?xml version="1.0" encoding="UTF-8"?>
<svg width="14px" height="14px" viewBox="0 0 14 14" version="1.1" xmlns="http://www.w3.org/2000/svg" xmlns:xlink="http://www.w3.org/1999/xlink">
    <title>财务管理</title>
    <g id="切图" stroke="none" stroke-width="1" fill="none" fill-rule="evenodd">
        <g transform="translate(-126.000000, -979.000000)" id="菜单栏">
            <g transform="translate(85.000000, 525.000000)">
                <g id="财务管理" transform="translate(41.000000, 454.000000)">
                    <path d="M13.4382,8.8279 C13.4382,8.9709 13.4102,9.1539 13.3972,9.2309 C12.8772,9.2739 12.4752,9.7079 12.4752,10.2319 C12.4752,10.3799 12.5222,10.5219 12.5472,10.5869 L11.9842,10.8979 C11.9562,10.8689 11.8752,10.7869 11.7632,10.7039 C11.5672,10.5589 11.3792,10.4849 11.2062,10.4849 C11.0342,10.4849 10.8472,10.5569 10.6532,10.6999 C10.5422,10.7809 10.4612,10.8609 10.4332,10.8909 L9.8912,10.5879 C9.9172,10.5189 9.9632,10.3789 9.9632,10.2319 C9.9632,9.7079 9.5602,9.2739 9.0422,9.2309 C9.0292,9.1539 9.0012,8.9709 9.0012,8.8279 C9.0012,8.6839 9.0292,8.5009 9.0422,8.4249 C9.5602,8.3819 9.9632,7.9479 9.9632,7.4239 C9.9632,7.2759 9.9162,7.1339 9.8912,7.0689 L10.4682,6.7519 C10.4942,6.7759 10.5762,6.8569 10.6892,6.9369 C10.8802,7.0739 11.0632,7.1429 11.2322,7.1429 C11.4002,7.1429 11.5822,7.0759 11.7722,6.9409 C11.8852,6.8609 11.9672,6.7819 11.9922,6.7599 L12.5472,7.0679 C12.5222,7.1329 12.4752,7.2749 12.4752,7.4239 C12.4752,7.9479 12.8772,8.3819 13.3972,8.4249 C13.4102,8.5009 13.4382,8.6849 13.4382,8.8279 M13.7602,8.3189 C13.7292,8.1559 13.6292,8.0509 13.5012,8.0509 L13.4792,8.0509 C13.1332,8.0509 12.8522,7.7689 12.8522,7.4239 C12.8522,7.3139 12.9042,7.1889 12.9062,7.1839 C12.9702,7.0409 12.9212,6.8649 12.7922,6.7739 L12.1422,6.4129 L12.1332,6.4079 C12.0032,6.3519 11.8262,6.3879 11.7282,6.4889 C11.6592,6.5609 11.4172,6.7669 11.2322,6.7669 C11.0452,6.7669 10.8032,6.5569 10.7332,6.4829 C10.6362,6.3819 10.4602,6.3439 10.3292,6.3999 L9.6572,6.7679 L9.6462,6.7739 C9.5172,6.8649 9.4682,7.0409 9.5322,7.1829 C9.5342,7.1889 9.5862,7.3119 9.5862,7.4239 C9.5862,7.7689 9.3052,8.0509 8.9592,8.0509 L8.9332,8.0509 C8.8092,8.0509 8.7092,8.1559 8.6782,8.3189 C8.6752,8.3309 8.6242,8.6069 8.6242,8.8279 C8.6242,9.0489 8.6752,9.3249 8.6782,9.3359 C8.7092,9.4989 8.8092,9.6039 8.9372,9.6039 L8.9592,9.6039 C9.3052,9.6039 9.5862,9.8869 9.5862,10.2319 C9.5862,10.3429 9.5342,10.4669 9.5322,10.4719 C9.4682,10.6149 9.5172,10.7909 9.6462,10.8809 L10.2832,11.2379 L10.2922,11.2429 C10.4242,11.3009 10.6022,11.2629 10.6992,11.1569 C10.7882,11.0609 11.0292,10.8619 11.2062,10.8619 C11.3982,10.8619 11.6452,11.0849 11.7162,11.1639 C11.7822,11.2349 11.8822,11.2789 11.9862,11.2789 C12.0342,11.2789 12.0802,11.2689 12.1222,11.2519 L12.7822,10.8879 L12.7922,10.8809 C12.9212,10.7909 12.9702,10.6149 12.9072,10.4719 C12.9052,10.4669 12.8522,10.3429 12.8522,10.2319 C12.8522,9.8869 13.1332,9.6039 13.4792,9.6039 L13.5052,9.6039 C13.6292,9.6039 13.7292,9.4989 13.7602,9.3359 C13.7622,9.3249 13.8152,9.0489 13.8152,8.8279 C13.8152,8.6069 13.7622,8.3309 13.7602,8.3189" id="Fill-1" fill="#DFDFDF"></path>
                    <path d="M11.7546,8.824 C11.7546,9.126 11.5096,9.371 11.2076,9.371 C10.9056,9.371 10.6606,9.126 10.6606,8.824 C10.6606,8.523 10.9056,8.277 11.2076,8.277 C11.5096,8.277 11.7546,8.523 11.7546,8.824 M11.2076,7.901 C10.6986,7.901 10.2846,8.315 10.2846,8.824 C10.2846,9.334 10.6986,9.748 11.2076,9.748 C11.7176,9.748 12.1316,9.334 12.1316,8.824 C12.1316,8.315 11.7176,7.901 11.2076,7.901" id="Fill-3" fill="#DFDFDF"></path>
                    <path d="M6.1037,5.3875 C6.1297,5.3435 6.1727,5.3115 6.2217,5.2985 C6.2717,5.2855 6.3247,5.2925 6.3697,5.3195 L7.4257,5.9435 L8.4537,5.3205 C8.5457,5.2655 8.6647,5.2945 8.7197,5.3865 C8.7747,5.4775 8.7457,5.5965 8.6547,5.6525 L7.6207,6.2785 L7.6207,6.5725 L8.9017,6.5725 C9.0087,6.5725 9.0957,6.6585 9.0957,6.7665 C9.0957,6.8725 9.0087,6.9595 8.9017,6.9595 L7.6207,6.9595 L7.6207,7.4805 L8.9027,7.4905 C8.9727,7.4905 9.0357,7.5275 9.0697,7.5875 C9.1037,7.6485 9.1037,7.7215 9.0687,7.7825 C9.0337,7.8415 8.9697,7.8775 8.8997,7.8775 L7.6207,7.8675 L7.6207,8.4085 C7.6207,8.4775 7.5837,8.5405 7.5237,8.5755 C7.4637,8.6105 7.3897,8.6105 7.3307,8.5755 C7.2707,8.5405 7.2327,8.4775 7.2327,8.4085 L7.2327,7.8665 L5.9237,7.8665 C5.8167,7.8665 5.7297,7.7805 5.7297,7.6725 C5.7297,7.5665 5.8167,7.4795 5.9237,7.4795 L7.2337,7.4795 L7.2337,6.9595 L5.9237,6.9595 C5.8167,6.9595 5.7297,6.8725 5.7297,6.7665 C5.7297,6.6585 5.8167,6.5725 5.9237,6.5725 L7.2337,6.5725 L7.2337,6.2795 L6.1717,5.6535 C6.0797,5.5985 6.0497,5.4805 6.1037,5.3875" id="Fill-5" fill="#DFDFDF"></path>
                    <path d="M9.5691,1.1121 L5.1681,1.1121 C4.8801,1.1121 4.6441,0.8771 4.6441,0.5891 L4.6441,0.5241 C4.6441,0.2361 4.8801,0.0001 5.1681,0.0001 L9.5691,0.0001 C9.8571,0.0001 10.0931,0.2361 10.0931,0.5241 L10.0931,0.5891 C10.0931,0.8771 9.8571,1.1121 9.5691,1.1121" id="Fill-7" fill="#DFDFDF"></path>
                    <path d="M7.4128,10.8025 L3.0578,10.8025 C2.2008,10.8025 1.4998,10.1025 1.4998,9.2455 L1.4998,4.6485 C1.4998,3.7915 2.2008,3.0915 3.0578,3.0915 L11.7678,3.0915 C12.6248,3.0915 13.3258,3.7915 13.3258,4.6485 L13.3258,5.2975" id="Stroke-9" stroke="#DFDFDF" stroke-linecap="round"></path>
                </g>
            </g>
        </g>
    </g>
</svg>