<?xml version="1.0" encoding="UTF-8"?>
<svg width="14px" height="14px" viewBox="0 0 14 14" version="1.1" xmlns="http://www.w3.org/2000/svg" xmlns:xlink="http://www.w3.org/1999/xlink">
    <title>工单管理</title>
    <defs>
        <polygon id="path-1" points="0 0.12665409 3.78457036 0.12665409 3.78457036 3.8413 0 3.8413"></polygon>
    </defs>
    <g id="切图" stroke="none" stroke-width="1" fill="none" fill-rule="evenodd">
        <g transform="translate(-126.000000, -928.000000)" id="菜单栏">
            <g transform="translate(85.000000, 525.000000)">
                <g id="工单管理" transform="translate(41.000000, 403.000000)">
                    <path d="M5.2336,1.4996 L10.2006,1.4996 C11.3166,1.4996 12.2296,2.4126 12.2296,3.5286 L12.2296,6.0836" id="Stroke-1" stroke="#DFDFDF" stroke-linecap="round"></path>
                    <path d="M7.8049,13.403 L4.5329,13.403 C3.4169,13.403 2.5039,12.49 2.5039,11.375 L2.5039,4.254" id="Stroke-3" stroke="#DFDFDF" stroke-linecap="round"></path>
                    <g id="编组" transform="translate(2.000000, 0.902900)">
                        <mask id="mask-2" fill="white">
                            <use xlink:href="#path-1"></use>
                        </mask>
                        <g id="Clip-6"></g>
                        <path d="M3.1545,3.8223 L0.3795,3.8413 C-0.0015,3.7383 -0.1285,3.2613 0.1505,2.9823 L2.8565,0.2773 C3.1355,-0.0017 3.6115,0.1253 3.7145,0.5063 L3.7835,3.1933 C3.8015,3.5623 3.5925,3.8413 3.1545,3.8223" id="Fill-5" fill="#DFDFDF" mask="url(#mask-2)"></path>
                    </g>
                    <path d="M9.5407,6.567 L4.6277,6.567 C4.3507,6.567 4.1237,6.34 4.1237,6.062 C4.1237,5.785 4.3507,5.558 4.6277,5.558 L9.5407,5.558 C9.8177,5.558 10.0447,5.785 10.0447,6.062 C10.0447,6.34 9.8177,6.567 9.5407,6.567" id="Fill-7" fill="#DFDFDF"></path>
                    <path d="M8.7585,8.903 L4.6285,8.903 C4.3505,8.903 4.1235,8.675 4.1235,8.398 C4.1235,8.121 4.3505,7.893 4.6285,7.893 L8.7585,7.893 C9.0355,7.893 9.2625,8.121 9.2625,8.398 C9.2625,8.675 9.0355,8.903 8.7585,8.903" id="Fill-9" fill="#DFDFDF"></path>
                    <path d="M7.8356,11.2379 L4.6276,11.2379 C4.3506,11.2379 4.1236,11.0109 4.1236,10.7329 C4.1236,10.4559 4.3506,10.2289 4.6276,10.2289 L7.8356,10.2289 C8.1126,10.2289 8.3396,10.4559 8.3396,10.7329 C8.3396,11.0109 8.1126,11.2379 7.8356,11.2379" id="Fill-11" fill="#DFDFDF"></path>
                    <path d="M13.444,10.7321 C13.444,10.8671 13.417,11.0401 13.405,11.1121 C12.916,11.1521 12.537,11.5611 12.537,12.0551 C12.537,12.1951 12.581,12.3281 12.605,12.3891 L12.073,12.6831 C12.048,12.6561 11.97,12.5781 11.865,12.5001 C11.681,12.3631 11.505,12.2941 11.34,12.2941 C11.178,12.2941 11.003,12.3611 10.819,12.4961 C10.715,12.5721 10.639,12.6481 10.612,12.6751 L10.102,12.3901 C10.127,12.3261 10.17,12.1931 10.17,12.0551 C10.17,11.5611 9.791,11.1521 9.302,11.1121 C9.289,11.0401 9.262,10.8671 9.262,10.7321 C9.262,10.5971 9.289,10.4241 9.302,10.3521 C9.791,10.3121 10.17,9.9031 10.17,9.4091 C10.17,9.2701 10.125,9.1361 10.102,9.0751 L10.646,8.7761 C10.67,8.7991 10.747,8.8761 10.853,8.9511 C11.034,9.0801 11.206,9.1451 11.366,9.1451 C11.524,9.1451 11.694,9.0811 11.874,8.9551 C11.981,8.8791 12.059,8.8041 12.081,8.7831 L12.605,9.0741 C12.581,9.1351 12.537,9.2691 12.537,9.4091 C12.537,9.9031 12.916,10.3121 13.405,10.3521 C13.417,10.4241 13.444,10.5981 13.444,10.7321 M13.747,10.2531 C13.718,10.0991 13.624,10.0001 13.504,10.0001 L13.483,10.0001 C13.156,10.0001 12.891,9.7351 12.891,9.4091 C12.891,9.3051 12.941,9.1881 12.943,9.1831 C13.003,9.0481 12.957,8.8821 12.835,8.7971 L12.223,8.4571 L12.215,8.4521 C12.092,8.3991 11.924,8.4331 11.833,8.5281 C11.767,8.5961 11.539,8.7911 11.366,8.7911 C11.19,8.7911 10.962,8.5921 10.895,8.5231 C10.804,8.4271 10.638,8.3911 10.514,8.4441 L9.881,8.7921 L9.871,8.7971 C9.75,8.8821 9.703,9.0481 9.763,9.1831 C9.765,9.1881 9.815,9.3041 9.815,9.4091 C9.815,9.7351 9.55,10.0001 9.224,10.0001 L9.199,10.0001 C9.082,10.0001 8.988,10.0991 8.959,10.2531 C8.957,10.2631 8.908,10.5241 8.908,10.7321 C8.908,10.9401 8.957,11.2001 8.959,11.2111 C8.988,11.3651 9.082,11.4631 9.203,11.4631 L9.224,11.4631 C9.55,11.4631 9.815,11.7291 9.815,12.0551 C9.815,12.1591 9.765,12.2761 9.763,12.2801 C9.703,12.4161 9.749,12.5821 9.871,12.6671 L10.471,13.0031 L10.48,13.0071 C10.604,13.0621 10.772,13.0261 10.863,12.9261 C10.946,12.8361 11.174,12.6481 11.34,12.6481 C11.522,12.6481 11.754,12.8591 11.821,12.9321 C11.883,13.0011 11.978,13.0421 12.076,13.0421 C12.121,13.0421 12.164,13.0321 12.204,13.0151 L12.826,12.6721 L12.835,12.6671 C12.957,12.5821 13.003,12.4161 12.943,12.2811 C12.941,12.2761 12.891,12.1601 12.891,12.0551 C12.891,11.7291 13.156,11.4631 13.483,11.4631 L13.507,11.4631 C13.624,11.4631 13.718,11.3651 13.747,11.2111 C13.75,11.2001 13.798,10.9401 13.798,10.7321 C13.798,10.5241 13.75,10.2631 13.747,10.2531" id="Fill-13" fill="#DFDFDF"></path>
                    <path d="M11.8581,10.7291 C11.8581,11.0121 11.6271,11.2441 11.3421,11.2441 C11.0581,11.2441 10.8271,11.0121 10.8271,10.7291 C10.8271,10.4451 11.0581,10.2131 11.3421,10.2131 C11.6271,10.2131 11.8581,10.4451 11.8581,10.7291 M11.3421,9.8591 C10.8631,9.8591 10.4721,10.2491 10.4721,10.7291 C10.4721,11.2081 10.8631,11.5981 11.3421,11.5981 C11.8221,11.5981 12.2121,11.2081 12.2121,10.7291 C12.2121,10.2491 11.8221,9.8591 11.3421,9.8591" id="Fill-15" fill="#DFDFDF"></path>
                </g>
            </g>
        </g>
    </g>
</svg>