<?xml version="1.0" encoding="UTF-8"?>
<svg width="14px" height="14px" viewBox="0 0 14 14" version="1.1" xmlns="http://www.w3.org/2000/svg" xmlns:xlink="http://www.w3.org/1999/xlink">
    <title>消息中心</title>
    <g id="切图" stroke="none" stroke-width="1" fill="none" fill-rule="evenodd">
        <g transform="translate(-126.000000, -1339.000000)" fill="#D4D8DC" id="菜单栏">
            <g transform="translate(85.000000, 525.000000)">
                <g id="消息中心" transform="translate(41.000000, 814.000000)">
                    <path d="M11.46,1.2111 L1.763,1.2111 C0.793,1.2111 0,2.0041 0,2.9741 L0,10.0261 C0,10.9961 0.793,11.7891 1.763,11.7891 L11.46,11.7891 C12.43,11.7891 13.223,10.9961 13.223,10.0261 L13.223,2.9741 C13.223,2.0041 12.43,1.2111 11.46,1.2111 M11.46,2.0931 C11.989,2.0931 12.342,2.4451 12.342,2.9741 L12.342,10.0261 C12.342,10.5561 11.989,10.9081 11.46,10.9081 L1.763,10.9081 C1.234,10.9081 0.882,10.5561 0.882,10.0261 L0.882,2.9741 C0.882,2.4451 1.234,2.0931 1.763,2.0931 L11.46,2.0931" id="Fill-2"></path>
                    <path d="M11.46,1.2111 L1.763,1.2111 C1.058,1.2111 0.353,1.6511 0.088,2.3571 L5.29,7.5581 C5.73,7.9111 6.171,8.0871 6.612,8.0871 C7.052,8.0871 7.493,7.9111 7.846,7.5581 L13.047,2.3571 C12.871,1.6511 12.166,1.2111 11.46,1.2111 M11.46,2.0931 C11.637,2.0931 11.813,2.1811 11.901,2.2691 L7.229,6.9411 C7.052,7.1171 6.876,7.2051 6.612,7.2051 C6.347,7.2051 6.171,7.1171 5.995,6.9411 L1.322,2.2691 C1.411,2.1811 1.587,2.0931 1.763,2.0931 L11.46,2.0931" id="Fill-4"></path>
                    <path d="M0.5386,10.549 L5.0896,5.998 L5.7126,6.621 L1.1626,11.173 L0.5386,10.549 Z M7.5256,6.615 L8.1486,5.99 L12.6996,10.541 L12.0766,11.164 L7.5256,6.615 Z" id="Fill-6"></path>
                </g>
            </g>
        </g>
    </g>
</svg>