<?xml version="1.0" encoding="UTF-8"?>
<svg width="14px" height="14px" viewBox="0 0 14 14" version="1.1" xmlns="http://www.w3.org/2000/svg" xmlns:xlink="http://www.w3.org/1999/xlink">
    <title>运营中心</title>
    <defs>
        <polygon id="path-1" points="0 0.3972 3.4285 0.3972 3.4285 5.2932 0 5.2932"></polygon>
        <polygon id="path-3" points="0.0596 0.9652 12.8306 0.9652 12.8306 2 0.0596 2"></polygon>
    </defs>
    <g id="切图" stroke="none" stroke-width="1" fill="none" fill-rule="evenodd">
        <g transform="translate(-126.000000, -669.000000)" id="菜单栏">
            <g transform="translate(85.000000, 525.000000)">
                <g id="运营中心" transform="translate(41.000000, 144.000000)">
                    <g id="编组" transform="translate(1.000000, 4.864800)">
                        <mask id="mask-2" fill="white">
                            <use xlink:href="#path-1"></use>
                        </mask>
                        <g id="Clip-2"></g>
                        <path d="M2.4575,5.2932 L0.9705,5.2932 C0.4345,5.2932 -0.0005,4.8572 -0.0005,4.3222 L-0.0005,1.3682 C-0.0005,0.8322 0.4345,0.3972 0.9705,0.3972 L2.4575,0.3972 C2.9935,0.3972 3.4285,0.8322 3.4285,1.3682 L3.4285,4.3222 C3.4285,4.8572 2.9935,5.2932 2.4575,5.2932" id="Fill-1" fill="#DFDFDF" mask="url(#mask-2)"></path>
                    </g>
                    <g id="编组" transform="translate(1.000000, 10.864800)">
                        <mask id="mask-4" fill="white">
                            <use xlink:href="#path-3"></use>
                        </mask>
                        <g id="Clip-4"></g>
                        <path d="M12.3306,2.0002 L0.5596,2.0002 C0.2836,2.0002 0.0596,1.7762 0.0596,1.5002 L0.0596,1.4652 C0.0596,1.1882 0.2836,0.9652 0.5596,0.9652 L12.3306,0.9652 C12.6066,0.9652 12.8306,1.1882 12.8306,1.4652 L12.8306,1.5002 C12.8306,1.7762 12.6066,2.0002 12.3306,2.0002" id="Fill-3" fill="#DFDFDF" mask="url(#mask-4)"></path>
                    </g>
                    <path d="M7.6582,9.656 L6.5132,9.656 C6.0212,9.656 5.6182,9.254 5.6182,8.761 L5.6182,1.394 C5.6182,0.902 6.0212,0.5 6.5132,0.5 L7.6582,0.5 C8.1502,0.5 8.5532,0.902 8.5532,1.394 L8.5532,8.761 C8.5532,9.254 8.1502,9.656 7.6582,9.656 Z" id="Stroke-5" stroke="#DFDFDF"></path>
                    <path d="M12.356,9.656 L11.21,9.656 C10.719,9.656 10.316,9.254 10.316,8.761 L10.316,3.578 C10.316,3.087 10.719,2.683 11.21,2.683 L12.356,2.683 C12.848,2.683 13.25,3.087 13.25,3.578 L13.25,8.761 C13.25,9.254 12.848,9.656 12.356,9.656 Z" id="Stroke-7" stroke="#DFDFDF"></path>
                </g>
            </g>
        </g>
    </g>
</svg>