<?xml version="1.0" encoding="UTF-8"?>
<svg width="14px" height="14px" viewBox="0 0 14 14" version="1.1" xmlns="http://www.w3.org/2000/svg" xmlns:xlink="http://www.w3.org/1999/xlink">
    <title>资讯管理</title>
    <g id="切图" stroke="none" stroke-width="1" fill="none" fill-rule="evenodd">
        <g transform="translate(-126.000000, -1391.000000)" id="菜单栏">
            <g transform="translate(85.000000, 525.000000)">
                <g id="资讯管理" transform="translate(41.000000, 866.000000)">
                    <path d="M12.5259,10.4602 C12.5259,10.5942 12.4989,10.7682 12.4869,10.8402 C11.9979,10.8802 11.6189,11.2882 11.6189,11.7822 C11.6189,11.9222 11.6629,12.0562 11.6869,12.1172 L11.1559,12.4102 C11.1299,12.3832 11.0519,12.3052 10.9469,12.2272 C10.7629,12.0912 10.5869,12.0212 10.4219,12.0212 C10.2599,12.0212 10.0849,12.0892 9.9009,12.2242 C9.7969,12.3002 9.7209,12.3752 9.6939,12.4032 L9.1839,12.1172 C9.2089,12.0532 9.2519,11.9212 9.2519,11.7822 C9.2519,11.2882 8.8729,10.8802 8.3839,10.8402 C8.3709,10.7682 8.3439,10.5942 8.3439,10.4602 C8.3439,10.3242 8.3709,10.1512 8.3839,10.0792 C8.8729,10.0392 9.2519,9.6312 9.2519,9.1372 C9.2519,8.9972 9.2079,8.8632 9.1839,8.8022 L9.7279,8.5032 C9.7519,8.5262 9.8289,8.6032 9.9359,8.6792 C10.1159,8.8082 10.2879,8.8732 10.4479,8.8732 C10.6059,8.8732 10.7759,8.8092 10.9559,8.6822 C11.0629,8.6062 11.1409,8.5322 11.1629,8.5112 L11.6869,8.8022 C11.6629,8.8622 11.6189,8.9962 11.6189,9.1372 C11.6189,9.6312 11.9979,10.0392 12.4869,10.0792 C12.4989,10.1512 12.5259,10.3252 12.5259,10.4602 M12.8299,9.9812 C12.7999,9.8272 12.7059,9.7282 12.5859,9.7282 L12.5649,9.7282 C12.2389,9.7282 11.9729,9.4622 11.9729,9.1372 C11.9729,9.0332 12.0229,8.9162 12.0249,8.9112 C12.0849,8.7752 12.0389,8.6092 11.9169,8.5242 L11.3049,8.1852 L11.2969,8.1802 C11.1739,8.1272 11.0059,8.1602 10.9149,8.2562 C10.8489,8.3242 10.6219,8.5182 10.4479,8.5182 C10.2719,8.5182 10.0439,8.3202 9.9769,8.2512 C9.8859,8.1542 9.7199,8.1192 9.5969,8.1722 L8.9629,8.5192 L8.9539,8.5252 C8.8319,8.6092 8.7859,8.7752 8.8449,8.9102 C8.8469,8.9152 8.8969,9.0322 8.8969,9.1372 C8.8969,9.4622 8.6319,9.7282 8.3059,9.7282 L8.2809,9.7282 C8.1639,9.7282 8.0699,9.8272 8.0409,9.9812 C8.0389,9.9912 7.9899,10.2512 7.9899,10.4602 C7.9899,10.6682 8.0389,10.9282 8.0409,10.9392 C8.0699,11.0922 8.1639,11.1912 8.2849,11.1912 L8.3059,11.1912 C8.6319,11.1912 8.8969,11.4562 8.8969,11.7822 C8.8969,11.8862 8.8469,12.0032 8.8449,12.0082 C8.7859,12.1442 8.8319,12.3092 8.9529,12.3942 L9.5529,12.7312 L9.5619,12.7342 C9.6859,12.7892 9.8539,12.7542 9.9449,12.6542 C10.0289,12.5642 10.2559,12.3762 10.4219,12.3762 C10.6039,12.3762 10.8369,12.5862 10.9029,12.6602 C10.9649,12.7282 11.0599,12.7692 11.1579,12.7692 C11.2029,12.7692 11.2459,12.7602 11.2859,12.7432 L11.9079,12.3992 L11.9169,12.3942 C12.0389,12.3092 12.0849,12.1442 12.0249,12.0092 C12.0229,12.0032 11.9729,11.8872 11.9729,11.7822 C11.9729,11.4562 12.2389,11.1912 12.5649,11.1912 L12.5889,11.1912 C12.7059,11.1912 12.7999,11.0922 12.8299,10.9392 C12.8319,10.9282 12.8799,10.6682 12.8799,10.4602 C12.8799,10.2512 12.8319,9.9912 12.8299,9.9812" id="Fill-1" fill="#DFDFDF"></path>
                    <path d="M10.94,10.4563 C10.94,10.7403 10.709,10.9723 10.424,10.9723 C10.14,10.9723 9.909,10.7403 9.909,10.4563 C9.909,10.1723 10.14,9.9413 10.424,9.9413 C10.709,9.9413 10.94,10.1723 10.94,10.4563 M10.424,9.5863 C9.945,9.5863 9.555,9.9773 9.555,10.4563 C9.555,10.9353 9.945,11.3263 10.424,11.3263 C10.904,11.3263 11.294,10.9353 11.294,10.4563 C11.294,9.9773 10.904,9.5863 10.424,9.5863" id="Fill-3" fill="#DFDFDF"></path>
                    <path d="M6.77253537,8.593 C6.7675,8.865 6.5445,9.085 6.2715,9.085 L3.5595,9.085 C3.2865,9.085 3.0635,8.865 3.05846463,8.592 C3.0555,8.276 3.2435,8.086 3.5585,8.086 L6.2725,8.086 C6.5875,8.086 6.7755,8.276 6.77253537,8.593" id="Fill-5" fill="#DFDFDF"></path>
                    <path d="M4.8077,10.5569 C4.8027,10.8299 4.5797,11.0499 4.3067,11.0489 L3.5597,11.0489 C3.2867,11.0499 3.0637,10.8299 3.0587,10.5569 C3.0557,10.2399 3.2437,10.0499 3.5587,10.0499 L4.3087,10.0499 C4.6237,10.0499 4.8107,10.2399 4.8077,10.5569" id="Fill-7" fill="#DFDFDF"></path>
                    <path d="M6.3326,13.1741 L2.9766,13.1741 C2.1646,13.1741 1.4996,12.5101 1.4996,11.6971 L1.4996,2.9761 C1.4996,2.1641 2.1646,1.5001 2.9766,1.5001 L10.5686,1.5001 C11.3806,1.5001 12.0446,2.1641 12.0446,2.9761 L12.0446,5.3591" id="Stroke-9" stroke="#DFDFDF" stroke-linecap="round"></path>
                    <path d="M9.0201,6.0569 L3.7731,6.0569 C3.4791,6.0569 3.2381,5.8159 3.2381,5.5219 L3.2381,4.3139 C3.2381,4.0199 3.4791,3.7799 3.7731,3.7799 L9.0201,3.7799 C9.3141,3.7799 9.5551,4.0199 9.5551,4.3139 L9.5551,5.5219 C9.5551,5.8159 9.3141,6.0569 9.0201,6.0569 Z" id="Stroke-11" stroke="#DFDFDF" stroke-width="0.75"></path>
                </g>
            </g>
        </g>
    </g>
</svg>