<?xml version="1.0" encoding="UTF-8"?>
<svg width="14px" height="14px" viewBox="0 0 14 14" version="1.1" xmlns="http://www.w3.org/2000/svg" xmlns:xlink="http://www.w3.org/1999/xlink">
    <title>销售订单</title>
    <g id="切图" stroke="none" stroke-width="1" fill="none" fill-rule="evenodd">
        <g transform="translate(-126.000000, -876.000000)" id="菜单栏">
            <g transform="translate(85.000000, 525.000000)">
                <g id="销售订单" transform="translate(41.000000, 351.000000)">
                    <path d="M12.7547,10.7756 L10.9197,12.6106 C10.9137,12.6166 10.9067,12.6226 10.8997,12.6266 C10.8937,12.6216 10.8867,12.6166 10.8817,12.6106 L8.0937,9.8196 C8.0407,9.7666 7.9867,9.6346 7.9867,9.4856 L7.9867,7.7806 L9.6917,7.7806 C9.7687,7.7806 9.8497,7.8096 9.8947,7.8546 L12.7547,10.7146 C12.7647,10.7226 12.7717,10.7336 12.7747,10.7466 C12.7717,10.7576 12.7637,10.7676 12.7547,10.7756 M13.1807,10.2886 L10.3207,7.4276 C10.1637,7.2706 9.9287,7.1756 9.6917,7.1756 L7.9937,7.1756 C7.6057,7.1756 7.3827,7.3996 7.3827,7.7876 L7.3827,9.4856 C7.3827,9.7806 7.4907,10.0716 7.6657,10.2476 L10.4557,13.0376 C10.5727,13.1586 10.7327,13.2286 10.9007,13.2306 C11.0597,13.2306 11.2177,13.1666 11.3467,13.0376 L13.1807,11.2026 C13.3067,11.0846 13.3777,10.9186 13.3777,10.7456 C13.3777,10.5726 13.3067,10.4076 13.1807,10.2886 M4.8517,9.7986 C4.8477,10.0726 4.6247,10.2916 4.3507,10.2916 L3.6037,10.2916 C3.3307,10.2916 3.1077,10.0726 3.1037,9.7986 C3.1007,9.4816 3.2877,9.2926 3.6027,9.2926 L4.3537,9.2926 C4.6687,9.2926 4.8547,9.4816 4.8517,9.7986 M6.8167158,7.3346 C6.8117,7.6076 6.5887,7.8266 6.3157,7.8266 L3.6037,7.8266 C3.3297,7.8266 3.1077,7.6066 3.10266444,7.3346 C3.0997,7.0166 3.2867,6.8276 3.6027,6.8276 L6.3167,6.8276 C6.6307,6.8276 6.8187,7.0166 6.8167158,7.3346 M10.2107159,4.6346 C10.2057,4.9086 9.9827,5.1286 9.7097,5.1286 L3.6037,5.1286 C3.3297,5.1286 3.1077,4.9086 3.10266444,4.6346 C3.0997,4.3186 3.2867,4.1296 3.6027,4.1296 L9.7117,4.1296 C10.0257,4.1296 10.2127,4.3186 10.2107159,4.6346" id="Fill-1" fill="#DFDFDF"></path>
                    <path d="M9.5857,9.1398 C9.5857,9.3948 9.3797,9.6008 9.1247,9.6008 C8.8707,9.6008 8.6647,9.3948 8.6647,9.1398 C8.6647,8.8858 8.8707,8.6798 9.1247,8.6798 C9.3797,8.6798 9.5857,8.8858 9.5857,9.1398" id="Fill-3" fill="#DFDFDF"></path>
                    <path d="M7.0789,12.4035 L3.1549,12.4035 C2.2449,12.4035 1.4999,11.6595 1.4999,10.7495 L1.4999,2.4705 C1.4999,1.5605 2.2449,0.8155 3.1549,0.8155 L4.0649,0.8155" id="Stroke-5" stroke="#DFDFDF" stroke-linecap="round"></path>
                    <path d="M9.1248,0.8156 L9.8648,0.8156 C10.7748,0.8156 11.5198,1.5606 11.5198,2.4706 L11.5198,6.2996" id="Stroke-7" stroke="#DFDFDF" stroke-linecap="round"></path>
                    <path d="M7.1331,1.6613 L5.9741,1.6613 C5.5171,1.6613 5.1431,1.2873 5.1431,0.8303 C5.1431,0.3733 5.5171,0.0003 5.9741,0.0003 L7.1331,0.0003 C7.5901,0.0003 7.9641,0.3733 7.9641,0.8303 C7.9641,1.2873 7.5901,1.6613 7.1331,1.6613" id="Fill-9" fill="#DFDFDF"></path>
                </g>
            </g>
        </g>
    </g>
</svg>