<?xml version="1.0" encoding="UTF-8"?>
<svg width="15px" height="15px" viewBox="0 0 15 15" version="1.1" xmlns="http://www.w3.org/2000/svg" xmlns:xlink="http://www.w3.org/1999/xlink">
    <title>操作_上传</title>
    <defs>
        <polygon id="path-1" points="0 0.0160193548 14.9370652 0.0160193548 14.9370652 11.5404807 0 11.5404807"></polygon>
    </defs>
    <g id="切图" stroke="none" stroke-width="1" fill="none" fill-rule="evenodd">
        <g transform="translate(-449.000000, -235.000000)" id="编组-4">
            <g transform="translate(307.000000, 137.000000)">
                <g id="编组" transform="translate(142.000000, 98.000000)">
                    <g transform="translate(0.000000, 1.076155)">
                        <mask id="mask-2" fill="white">
                            <use xlink:href="#path-1"></use>
                        </mask>
                        <g id="Clip-2"></g>
                        <path d="M9.34459239,11.5404774 L11.2124185,11.5404774 L11.2124185,10.5796516 L9.34459239,10.5796516 L9.34459239,11.5404774 Z M3.74086957,11.5404774 L5.60877717,11.5404774 L5.60877717,10.5796516 L3.74086957,10.5796516 L3.74086957,11.5404774 Z M11.2124185,4.81452903 C11.2124185,2.69183871 9.53983696,0.971141935 7.47668478,0.971141935 C5.41345109,0.971141935 3.74086957,2.69183871 3.74086957,4.81452903 C2.19350543,4.81452903 0.939130435,6.10505161 0.939130435,7.69709032 C0.939130435,9.28904516 2.19350543,10.5796516 3.74086957,10.5796516 L3.74086957,11.5404807 C1.843125,11.5429935 0.245054348,10.0812903 0.0253532609,8.14194194 C-0.194266304,6.20259355 1.03418478,4.40196774 2.88163043,3.95552258 C3.28834239,1.67339355 5.22154891,0.0160193548 7.47668478,0.0160193548 C9.73173913,0.0160193548 11.6649457,1.67339355 12.0716576,3.95552258 C13.9122554,4.40884516 15.1330435,6.2062 14.9138315,8.14026452 C14.6947826,10.0744129 13.1050272,11.5346903 11.2124185,11.5404807 L11.2124185,10.5796516 C12.7597826,10.5796516 14.0142391,9.28904516 14.0142391,7.69709032 C14.0142391,6.10505161 12.7597826,4.81452903 11.2124185,4.81452903 L11.2124185,4.81452903 Z" id="Fill-1" fill="#1890FF" mask="url(#mask-2)"></path>
                    </g>
                    <path d="M7.86611413,8.49068387 L7.86611413,13.4909032 C7.86415761,13.7558516 7.65668478,13.9705613 7.39907609,13.9742516 C7.14154891,13.9705613 6.93415761,13.7558516 6.93220109,13.4909032 L6.93220109,8.49068387 L6.40540761,9.03265806 C6.2219837,9.21583226 5.92980978,9.21465806 5.7480163,9.02980645 C5.65956522,8.94090323 5.60934783,8.81929032 5.6089353,8.69214194 C5.60836957,8.56490968 5.65744565,8.44287742 5.74508152,8.35330323 L7.0713587,6.98889032 C7.15842391,6.89948387 7.27695652,6.84991613 7.40005435,6.85150968 C7.52282609,6.8479871 7.64127717,6.8973871 7.72695652,6.98796774 L9.05315217,8.35330323 C9.23127717,8.5420129 9.22997283,8.84260645 9.05029891,9.02980645 C8.96396739,9.12072258 8.84584239,9.17221935 8.72217391,9.17280645 C8.59858696,9.17339355 8.47997283,9.12290323 8.39282609,9.03265806 L7.86611413,8.49068387 Z" id="Fill-3" fill="#1890FF"></path>
                </g>
            </g>
        </g>
    </g>
</svg>