<svg width="22" height="22" viewBox="0 0 22 22" fill="none" xmlns="http://www.w3.org/2000/svg">
<g id="&#232;&#161;&#140;&#228;&#184;&#154;&#229;&#136;&#134;&#231;&#177;&#187;/&#231;&#153;&#190;&#232;&#180;&#167;">
<path id="Vector" d="M16.9532 13.2568C16.9532 12.9777 16.7277 12.7521 16.4485 12.7521C16.3965 12.7521 16.3496 12.7667 16.3026 12.7818C15.9286 12.9298 15.4501 13.0095 15.0893 12.9898C14.2938 12.9474 13.6876 12.7889 13.1036 12.2917C12.5277 12.7829 11.7928 13.0624 11.0105 13.0696C10.2171 13.0645 9.47812 12.8656 8.8992 12.3735C8.31673 12.8702 7.57331 13.1119 6.78135 13.1119H6.77832C6.29483 13.1119 6.02228 13.0201 5.58211 12.8575C5.57002 12.8515 5.55741 12.8484 5.54477 12.8439C5.52358 12.8359 5.50741 12.8303 5.4857 12.8222C5.4857 12.8222 5.41306 12.8096 5.37317 12.8096H5.37217C5.09353 12.8096 4.86795 13.0362 4.86841 13.3154L4.87195 16.0202C4.87195 16.7319 5.45188 17.3108 6.16505 17.3108L15.6631 17.3047C16.3753 17.3027 16.9547 16.7222 16.9547 16.0106L16.9532 13.2568Z" fill="#3370FF"/>
<path id="Subtract" fill-rule="evenodd" clip-rule="evenodd" d="M17.8602 8.70564C17.8617 8.71166 17.8632 8.71874 17.8642 8.72628C17.9521 8.99331 18 9.28605 17.9995 9.5788C17.9999 10.5958 17.4463 11.5311 16.5539 12.0182C16.1774 12.2251 15.7302 12.3306 15.2264 12.3336C14.3941 12.3336 13.626 11.9707 13.1031 11.3479C12.5847 11.9652 11.8261 12.3285 11.0059 12.3346C10.1792 12.3295 9.418 11.9676 8.89768 11.3504C8.37474 11.9733 7.60759 12.3372 6.77928 12.3392H6.77774C6.28415 12.3392 5.84454 12.2382 5.47156 12.0384C4.56554 11.5563 4.00124 10.6176 4.00024 9.58941C4.00024 9.29713 4.04666 9.00593 4.13902 8.72229C4.14456 8.6955 4.15119 8.66932 4.15719 8.6516L5.42911 5.64643C5.62549 5.05997 6.16754 4.68896 6.86508 4.68896H15.1695C15.8811 4.68896 16.4469 5.06707 16.6514 5.67569L17.8344 8.62084C17.846 8.64803 17.8541 8.6763 17.8602 8.70564ZM8.5 8C8.22386 8 8 8.22386 8 8.5C8 8.77614 8.22386 9 8.5 9H13.5C13.7761 9 14 8.77614 14 8.5C14 8.22386 13.7761 8 13.5 8H8.5Z" fill="#3370FF"/>
</g>
</svg>
