<svg width="23" height="23" viewBox="0 0 23 23" fill="none" xmlns="http://www.w3.org/2000/svg">
<g id="&#228;&#184;&#141;&#229;&#187;&#186;&#232;&#174;&#174;&#229;&#136;&#134;&#231;&#177;&#187;/&#231;&#153;&#190;&#232;&#180;&#167;&#232;&#182;&#133;&#229;&#184;&#130;">
<path id="Subtract" fill-rule="evenodd" clip-rule="evenodd" d="M21.0356 7.76431C21.0378 7.77325 21.04 7.78376 21.0415 7.79497C21.1721 8.19169 21.2432 8.6266 21.2425 9.06153C21.2432 10.5725 20.4206 11.962 19.0949 12.6856C18.5355 12.9931 17.8712 13.1498 17.1227 13.1543C15.8862 13.1543 14.7449 12.6151 13.9681 11.6898C13.198 12.6069 12.071 13.1467 10.8524 13.1558C9.62412 13.1482 8.49331 12.6105 7.72028 11.6935C6.94337 12.6189 5.80364 13.1596 4.57305 13.1625H4.57076C3.83746 13.1625 3.18435 13.0126 2.63021 12.7156C1.28418 11.9995 0.445812 10.6048 0.444336 9.07729C0.444336 8.64307 0.513301 8.21044 0.650504 7.78904C0.658735 7.74924 0.668588 7.71035 0.677504 7.68402L2.20312 4.07812L2.87908 2.41948C3.03251 2.043 3.39859 1.79688 3.80513 1.79688H17.9605C18.367 1.79688 18.7331 2.043 18.8865 2.41948L19.0911 2.92144C19.1496 3.02886 19.1993 3.14282 19.2396 3.26281L20.9973 7.63833C21.0145 7.67871 21.0265 7.72072 21.0356 7.76431ZM7.20703 6.55469C6.65475 6.55469 6.20703 7.0024 6.20703 7.55469C6.20703 8.10697 6.65475 8.55469 7.20703 8.55469H14.2197C14.772 8.55469 15.2197 8.10697 15.2197 7.55469C15.2197 7.0024 14.772 6.55469 14.2197 6.55469H7.20703Z" fill="#3370FF"/>
<path id="Union" fill-rule="evenodd" clip-rule="evenodd" d="M18.9394 13.7855C19.3542 13.7855 19.6893 14.1206 19.6893 14.5353L19.6907 17.1094H19.6914V18.3304L19.6916 18.6265C19.6916 18.635 19.6915 18.6434 19.6914 18.6518V19.5586C19.6914 20.1109 19.2437 20.5586 18.6914 20.5586H2.73535C2.18307 20.5586 1.73535 20.1109 1.73535 19.5586V17.1094H1.73861L1.73535 14.6223C1.73467 14.2075 2.06981 13.8709 2.48377 13.8709H2.48526C2.54452 13.8709 2.65244 13.8897 2.65244 13.8897C2.66623 13.8948 2.67852 13.8993 2.69053 13.9036C2.70661 13.9094 2.72218 13.9151 2.74019 13.9219C2.74599 13.924 2.75178 13.9258 2.75754 13.9277C2.77046 13.9318 2.78325 13.9359 2.79567 13.9421C3.44961 14.1836 3.85453 14.32 4.57285 14.32H4.57734C5.75392 14.32 6.85841 13.9609 7.72376 13.2231C8.58383 13.9541 9.68166 14.2496 10.8604 14.2571C12.0227 14.2466 13.1145 13.8312 13.9702 13.1016C14.8377 13.8402 15.7383 14.0756 16.9201 14.1387C17.4562 14.1679 18.1671 14.0495 18.7227 13.8297C18.7925 13.8072 18.8622 13.7855 18.9394 13.7855Z" fill="#3370FF"/>
<g id="Vector" filter="url(#filter0_b_1668_94960)">
<path d="M12.9473 17.1297C12.9473 19.622 14.9674 21.6402 17.4578 21.6402C19.9481 21.6402 21.9683 19.6201 21.9683 17.1297C21.9683 14.6394 19.9481 12.6172 17.4578 12.6172C14.9674 12.6172 12.9473 14.6374 12.9473 17.1297Z" fill="white" fill-opacity="0.05"/>
</g>
</g>
<defs>
<filter id="filter0_b_1668_94960" x="4.94727" y="4.61719" width="25.021" height="25.0229" filterUnits="userSpaceOnUse" color-interpolation-filters="sRGB">
<feFlood flood-opacity="0" result="BackgroundImageFix"/>
<feGaussianBlur in="BackgroundImageFix" stdDeviation="4"/>
<feComposite in2="SourceAlpha" operator="in" result="effect1_backgroundBlur_1668_94960"/>
<feBlend mode="normal" in="SourceGraphic" in2="effect1_backgroundBlur_1668_94960" result="shape"/>
</filter>
</defs>
</svg>
