<svg width="16" height="16" viewBox="0 0 16 16" fill="none" xmlns="http://www.w3.org/2000/svg">
<g id="Frame">
<path id="Vector" d="M7.88633 2.15771C6.4582 2.15771 5.1457 2.64834 4.10664 3.46865L4.91289 4.4624C5.73164 3.82022 6.76445 3.43584 7.88633 3.43584C10.5504 3.43584 12.7098 5.59521 12.7098 8.25928C12.7098 8.60147 12.6738 8.93584 12.6051 9.25928L13.8473 9.57334C13.9395 9.1499 13.9895 8.71084 13.9895 8.26084C13.9895 4.89053 11.2566 2.15771 7.88633 2.15771ZM10.9754 11.9655C10.1379 12.664 9.06133 13.0843 7.88633 13.0843C5.22227 13.0843 3.06289 10.9249 3.06289 8.26084C3.06289 7.69209 3.16133 7.14678 3.34258 6.64053L2.09727 6.32647C1.89414 6.93428 1.7832 7.58584 1.7832 8.2624C1.7832 11.6327 4.51602 14.3655 7.88633 14.3655C9.36758 14.3655 10.7254 13.8374 11.7816 12.9608L10.9754 11.9655Z" fill="#919498"/>
<path id="Vector_2" d="M2.07227 6.50625C2.07227 6.67574 2.1396 6.83829 2.25944 6.95814C2.37929 7.07798 2.54184 7.14531 2.71133 7.14531C2.88082 7.14531 3.04337 7.07798 3.16321 6.95814C3.28306 6.83829 3.35039 6.67574 3.35039 6.50625C3.35039 6.33676 3.28306 6.17421 3.16321 6.05436C3.04337 5.93452 2.88082 5.86719 2.71133 5.86719C2.54184 5.86719 2.37929 5.93452 2.25944 6.05436C2.1396 6.17421 2.07227 6.33676 2.07227 6.50625Z" fill="#242424"/>
<path id="Vector_3" d="M3.83789 4.00625C3.83789 4.17574 3.90522 4.33829 4.02507 4.45814C4.14492 4.57798 4.30746 4.64531 4.47695 4.64531C4.64644 4.64531 4.80899 4.57798 4.92884 4.45814C5.04869 4.33829 5.11602 4.17574 5.11602 4.00625C5.11602 3.83676 5.04869 3.67421 4.92884 3.55436C4.80899 3.43452 4.64644 3.36719 4.47695 3.36719C4.30746 3.36719 4.14492 3.43452 4.02507 3.55436C3.90522 3.67421 3.83789 3.83676 3.83789 4.00625Z" fill="#919498"/>
<path id="Vector_4" d="M10.7285 12.4906C10.7285 12.6601 10.7958 12.8227 10.9157 12.9425C11.0355 13.0624 11.1981 13.1297 11.3676 13.1297C11.5371 13.1297 11.6996 13.0624 11.8195 12.9425C11.9393 12.8227 12.0066 12.6601 12.0066 12.4906C12.0066 12.3211 11.9393 12.1586 11.8195 12.0387C11.6996 11.9189 11.5371 11.8516 11.3676 11.8516C11.1981 11.8516 11.0355 11.9189 10.9157 12.0387C10.7958 12.1586 10.7285 12.3211 10.7285 12.4906Z" fill="#919498"/>
<path id="Vector_5" d="M12.5762 9.46572C12.5762 9.63521 12.6435 9.79776 12.7633 9.91761C12.8832 10.0375 13.0457 10.1048 13.2152 10.1048C13.3847 10.1048 13.5473 10.0375 13.6671 9.91761C13.787 9.79776 13.8543 9.63521 13.8543 9.46572C13.8543 9.29623 13.787 9.13368 13.6671 9.01384C13.5473 8.89399 13.3847 8.82666 13.2152 8.82666C13.0457 8.82666 12.8832 8.89399 12.7633 9.01384C12.6435 9.13368 12.5762 9.29623 12.5762 9.46572Z" fill="#242424"/>
<path id="Vector_6" d="M0.523392 8.25625C0.30308 7.97969 0.348392 7.57657 0.624955 7.35625L2.31245 6.01094C2.58902 5.79063 2.99214 5.83594 3.21246 6.1125C3.43277 6.38907 3.38745 6.79219 3.11089 7.0125L1.42183 8.35782C1.14527 8.57813 0.743705 8.53282 0.523392 8.25625Z" fill="#919498"/>
<path id="Vector_7" d="M4.4562 8.69366C4.17964 8.91397 3.77652 8.86866 3.5562 8.59209L2.21089 6.90459C1.99058 6.62803 2.03589 6.22491 2.31245 6.00459C2.58902 5.78428 2.99214 5.82959 3.21245 6.10616L4.55777 7.79366C4.77808 8.07022 4.73277 8.47334 4.4562 8.69366ZM15.2765 7.55616C15.5171 7.81397 15.5031 8.22022 15.2453 8.46084L13.6671 9.93272C13.4093 10.1733 13.0031 10.1593 12.7625 9.90147C12.5218 9.64366 12.5359 9.23741 12.7937 8.99678L14.3718 7.52491C14.6312 7.28428 15.0359 7.29834 15.2765 7.55616Z" fill="#919498"/>
<path id="Vector_8" d="M11.2998 7.40776C11.5576 7.16713 11.9639 7.1812 12.2045 7.43901L13.6764 9.01713C13.917 9.27495 13.9029 9.6812 13.6451 9.92182C13.3873 10.1624 12.981 10.1484 12.7404 9.89057L11.2685 8.31245C11.0264 8.05307 11.0404 7.64838 11.2998 7.40776Z" fill="#919498"/>
</g>
</svg>
