<svg width="22" height="22" viewBox="0 0 22 22" fill="none" xmlns="http://www.w3.org/2000/svg">
<g id="&#232;&#161;&#140;&#228;&#184;&#154;&#229;&#136;&#134;&#231;&#177;&#187;/&#229;&#142;&#168;&#229;&#133;&#183;&#229;&#147;&#129;&#231;&#137;&#140;">
<g id="Group 427319214">
<path id="Subtract" fill-rule="evenodd" clip-rule="evenodd" d="M16.8933 9.57642H5.10718V15.2951C5.10718 15.8474 5.55489 16.2951 6.10718 16.2951H15.8933C16.4456 16.2951 16.8933 15.8474 16.8933 15.2951V9.57642ZM7.452 14.1959C7.452 14.5857 7.76794 14.9016 8.15769 14.9016L13.8426 14.9016C14.2324 14.9016 14.5483 14.5857 14.5483 14.1959C14.5483 13.8062 14.2324 13.4902 13.8426 13.4902L8.15769 13.4902C7.76794 13.4902 7.452 13.8062 7.452 14.1959Z" fill="#3370FF"/>
<path id="Rectangle 1007" d="M5.10718 9.57642H16.8933V7.7033C16.8933 6.59873 15.9979 5.7033 14.8933 5.7033H7.10718C6.00261 5.7033 5.10718 6.59873 5.10718 7.7033V9.57642Z" fill="#3370FF"/>
<path id="Rectangle 1008" d="M3.875 9.57342C3.875 9.9363 4.16917 10.2305 4.53205 10.2305H17.468C17.8308 10.2305 18.125 9.9363 18.125 9.57342C18.125 9.21055 17.8308 8.91638 17.468 8.91638H4.53205C4.16917 8.91638 3.875 9.21055 3.875 9.57342Z" fill="#3370FF"/>
<path id="Rectangle 1009" d="M8.96143 4.25287C8.96143 4.61574 9.2556 4.90991 9.61847 4.90991H12.3813C12.7442 4.90991 13.0383 4.61574 13.0383 4.25287C13.0383 3.88999 12.7442 3.59582 12.3813 3.59582H9.61847C9.2556 3.59582 8.96143 3.88999 8.96143 4.25287Z" fill="#3370FF"/>
<path id="Rectangle 1010" d="M7.00562 17.7421C7.00562 18.105 7.29978 18.3992 7.66266 18.3992H14.3381C14.701 18.3992 14.9952 18.105 14.9952 17.7421C14.9952 17.3792 14.701 17.0851 14.3381 17.0851H7.66266C7.29979 17.0851 7.00562 17.3792 7.00562 17.7421Z" fill="#3370FF"/>
</g>
</g>
</svg>
