<svg width="74" height="74" viewBox="0 0 74 74" fill="none" xmlns="http://www.w3.org/2000/svg">
<g id="Group 427319321">
<g id="Frame">
<g id="Group 427319324">
<path id="Vector" d="M63.5 64.5H9.5V58.5H63.5V64.5Z" fill="#F1F1F1"/>
<path id="Vector_2" d="M9.5 27C9.5 26.2043 9.81607 25.4413 10.3787 24.8787C10.9413 24.3161 11.7044 24 12.5 24H21.5C22.2956 24 23.0587 24.3161 23.6213 24.8787C24.1839 25.4413 24.5 26.2043 24.5 27V51C24.5 51.7956 24.1839 52.5587 23.6213 53.1213C23.0587 53.6839 22.2956 54 21.5 54H12.5C11.7044 54 10.9413 53.6839 10.3787 53.1213C9.81607 52.5587 9.5 51.7956 9.5 51V27Z" fill="#F1F1F1"/>
<path id="Vector_3" d="M29.001 13.5C29.001 13.106 29.0786 12.7159 29.2293 12.352C29.3801 11.988 29.6011 11.6573 29.8797 11.3787C30.1582 11.1001 30.4889 10.8791 30.8529 10.7284C31.2169 10.5776 31.607 10.5 32.001 10.5H41.001C41.7966 10.5 42.5597 10.8161 43.1223 11.3787C43.6849 11.9413 44.001 12.7044 44.001 13.5V51C44.001 51.7957 43.6849 52.5587 43.1223 53.1213C42.5597 53.6839 41.7966 54 41.001 54H32.001C31.607 54 31.2169 53.9224 30.8529 53.7717C30.4889 53.6209 30.1582 53.3999 29.8797 53.1213C29.6011 52.8428 29.3801 52.512 29.2293 52.1481C29.0786 51.7841 29.001 51.394 29.001 51V13.5Z" fill="#F1F1F1"/>
<path id="Vector_4" d="M48.5 36C48.5 35.2044 48.8161 34.4413 49.3787 33.8787C49.9413 33.3161 50.7043 33 51.5 33H60.5C61.2956 33 62.0587 33.3161 62.6213 33.8787C63.1839 34.4413 63.5 35.2044 63.5 36V51C63.5 51.7957 63.1839 52.5587 62.6213 53.1213C62.0587 53.6839 61.2956 54 60.5 54H51.5C50.7043 54 49.9413 53.6839 49.3787 53.1213C48.8161 52.5587 48.5 51.7957 48.5 51V36Z" fill="#F1F1F1"/>
</g>
</g>
</g>
</svg>
