<svg width="74" height="74" viewBox="0 0 74 74" fill="none" xmlns="http://www.w3.org/2000/svg">
<g id="Group 427319321">
<g id="Frame" clip-path="url(#clip0_710_102229)">
<g id="Frame_2">
<path id="Vector" d="M67.4226 60.8446V61.6668C67.4226 62.1207 67.0543 62.489 66.6004 62.489H10.6893C8.87299 62.489 7.40039 61.0164 7.40039 59.2001V12.3335C7.40039 11.8796 7.76875 11.5112 8.22261 11.5112H9.04483C9.4987 11.5112 9.86706 11.8796 9.86706 12.3335V59.2001C9.86706 59.654 10.2354 60.0223 10.6893 60.0223H66.6004C67.0543 60.0223 67.4226 60.3907 67.4226 60.8446ZM44.6931 22.1467L35.0262 30.447C34.7574 30.6772 34.3717 30.7101 34.0683 30.5284L23.5579 24.2318C23.2405 24.0419 22.8343 24.0871 22.5671 24.3428L12.5878 33.8962C12.425 34.0508 12.3337 34.2654 12.3337 34.4899V43.8089C12.3337 44.5341 13.2036 44.9041 13.7257 44.4018L22.526 35.9378C22.7924 35.6813 23.1969 35.6344 23.5151 35.8227L35.6075 42.9884C35.8838 43.152 36.23 43.1397 36.4939 42.9571L46.3178 36.1697C46.3976 36.1146 46.4864 36.0743 46.5793 36.0496L65.9829 31.0407C66.3463 30.9486 66.6004 30.6205 66.6004 30.2456V17.081C66.6004 16.5375 66.0824 16.1436 65.5586 16.2883L45.0088 21.9781C44.8921 22.011 44.7844 22.0686 44.6931 22.1467ZM46.3548 39.3788L36.6534 46.1539C36.3903 46.3381 36.0433 46.3513 35.7662 46.1893L23.5546 39.0253C23.2372 38.8394 22.8351 38.8863 22.5696 39.1404L12.5878 48.6962C12.425 48.8508 12.3337 49.0654 12.3337 49.2899V56.7335C12.3337 57.1873 12.7021 57.5557 13.1559 57.5557H65.7782C66.232 57.5557 66.6004 57.1873 66.6004 56.7335V35.1509C66.6004 34.6132 66.0931 34.2202 65.5726 34.355L46.6204 39.2571C46.525 39.2818 46.4354 39.3229 46.3548 39.3788Z" fill="#F1F1F1"/>
</g>
</g>
</g>
<defs>
<clipPath id="clip0_710_102229">
<rect width="74" height="74" fill="white"/>
</clipPath>
</defs>
</svg>
