<svg width="22" height="22" viewBox="0 0 22 22" fill="none" xmlns="http://www.w3.org/2000/svg">
<g id="&#232;&#161;&#140;&#228;&#184;&#154;&#229;&#136;&#134;&#231;&#177;&#187;/&#230;&#156;&#141;&#232;&#163;&#133;&#229;&#143;&#138;&#233;&#133;&#141;&#233;&#165;&#176;&#229;&#147;&#129;">
<path id="Subtract" fill-rule="evenodd" clip-rule="evenodd" d="M18.6373 9.34453L16.9998 10.9836C16.8623 11.1211 16.6811 11.1914 16.4998 11.1914C16.3186 11.1914 16.1373 11.1227 15.9998 10.9836V17.4836C15.9998 17.7602 15.7764 17.9836 15.4998 17.9836H10.9998V17.9992H6.4998C6.22324 17.9992 5.9998 17.7758 5.9998 17.4992V10.9992C5.8623 11.1367 5.68105 11.207 5.4998 11.207C5.31855 11.207 5.1373 11.1383 4.9998 10.9992L3.3623 9.36016C2.88574 8.88359 2.88574 8.11328 3.3623 7.63672L6.40293 4.59609C6.6248 4.37422 6.92637 4.24922 7.24199 4.24922H8.66543C8.78574 4.24922 8.90137 4.29297 8.99355 4.37109C9.30137 4.63828 10.1076 5.24922 11.0561 5.24922C12.0061 5.24922 12.8139 4.63516 13.1201 4.36953C13.2107 4.29141 13.3248 4.24766 13.4436 4.24766L14.7529 4.23828H14.7623C15.0764 4.23828 15.3795 4.36328 15.6014 4.58672L18.6373 7.62266C19.1139 8.09766 19.1139 8.86953 18.6373 9.34453ZM12.0625 8.92188C12.0625 8.64573 12.2864 8.42188 12.5625 8.42188H14.5625C14.8386 8.42188 15.0625 8.64573 15.0625 8.92188C15.0625 9.19802 14.8386 9.42188 14.5625 9.42188H12.5625C12.2864 9.42188 12.0625 9.19802 12.0625 8.92188ZM8.1875 15.7148C7.91136 15.7148 7.6875 15.9387 7.6875 16.2148C7.6875 16.491 7.91136 16.7148 8.1875 16.7148H13.8125C14.0886 16.7148 14.3125 16.491 14.3125 16.2148C14.3125 15.9387 14.0886 15.7148 13.8125 15.7148H8.1875Z" fill="#3370FF"/>
</g>
</svg>
