<svg width="14" height="14" viewBox="0 0 14 14" fill="none" xmlns="http://www.w3.org/2000/svg">
<g id="Frame">
<path id="Vector" d="M7 1.5C5.81332 1.5 4.65328 1.85189 3.66658 2.51118C2.67989 3.17047 1.91085 4.10754 1.45673 5.2039C1.0026 6.30026 0.88378 7.50666 1.11529 8.67054C1.3468 9.83443 1.91825 10.9035 2.75736 11.7426C3.59648 12.5818 4.66558 13.1532 5.82946 13.3847C6.99335 13.6162 8.19975 13.4974 9.2961 13.0433C10.3925 12.5892 11.3295 11.8201 11.9888 10.8334C12.6481 9.84673 13 8.68669 13 7.5C13 5.9087 12.3679 4.38258 11.2426 3.25736C10.1174 2.13214 8.5913 1.5 7 1.5ZM11.08 3.9576C10.84 4.26 10.7992 4.7352 10.7632 5.1072C10.7632 5.1864 10.7464 5.2872 10.7368 5.3472C10.672 5.3472 10.5808 5.328 10.5304 5.3184C10.348 5.2848 10.0984 5.2416 9.9808 5.4744C9.94877 5.55157 9.92542 5.63206 9.9112 5.7144C9.8968 5.7816 9.8632 5.928 9.832 6.0264C9.51063 5.92132 9.20411 5.77532 8.92 5.592L8.944 5.4696C9.04487 5.10345 9.03317 4.71541 8.9104 4.356C8.836 4.1496 8.6344 4.0632 8.4304 3.9696C8.2888 3.9072 8.092 3.8208 8.0512 3.7296C7.984 3.576 8.0008 2.8488 8.0512 2.1984C9.2277 2.43337 10.293 3.0521 11.08 3.9576ZM1.6 7.5V7.1952C2.17649 7.38664 2.77192 7.51539 3.376 7.5792C3.98711 7.62281 4.5957 7.46518 5.1088 7.1304C5.17895 7.08367 5.2528 7.04273 5.3296 7.008C5.51298 7.1047 5.67597 7.2359 5.8096 7.3944C5.94538 7.54819 6.10404 7.68014 6.28 7.7856C6.7 8.004 7.2856 8.0424 7.756 8.0736C7.97201 8.07637 8.187 8.10375 8.3968 8.1552C8.67908 8.34108 8.88914 8.61806 8.992 8.94C8.81577 8.99955 8.63272 9.03665 8.4472 9.0504C8.12096 9.06276 7.80176 9.14892 7.5136 9.3024C7.0624 9.6048 6.3832 10.7424 6.2848 11.3856C6.22319 11.8714 6.23046 12.3634 6.3064 12.8472C5.00723 12.6774 3.81391 12.0416 2.94825 11.0581C2.08259 10.0746 1.60349 8.81022 1.6 7.5ZM7 12.9H6.9208C6.83793 12.4342 6.82258 11.959 6.8752 11.4888C6.952 11.0088 7.5616 10.0032 7.8472 9.8088C8.06093 9.71812 8.28956 9.66768 8.5216 9.66C8.8768 9.6168 9.2104 9.5736 9.424 9.3768C9.49354 9.30935 9.54446 9.22507 9.57179 9.13213C9.59913 9.03919 9.60196 8.94076 9.58 8.8464C9.51296 8.58893 9.39549 8.34732 9.23441 8.13557C9.07333 7.92382 8.87184 7.74613 8.6416 7.6128C8.36918 7.52636 8.08501 7.48264 7.7992 7.4832C7.37567 7.48267 6.95557 7.4071 6.5584 7.26C6.44276 7.1793 6.3372 7.08503 6.244 6.9792C6.04433 6.7406 5.78874 6.55509 5.5 6.4392C5.37882 6.41888 5.2547 6.42463 5.13592 6.45609C5.01715 6.48754 4.90644 6.54397 4.8112 6.6216C4.39971 6.89645 3.90774 7.02493 3.4144 6.9864C2.82368 6.91453 2.24211 6.781 1.6792 6.588C1.89567 5.33316 2.54805 4.19498 3.5214 3.37397C4.49476 2.55296 5.72663 2.10181 7 2.1C7.1512 2.1 7.3 2.1 7.4464 2.1192C7.396 2.6592 7.3288 3.648 7.4896 3.9864C7.6442 4.2412 7.88662 4.43069 8.1712 4.5192C8.23373 4.5442 8.29465 4.57305 8.3536 4.6056C8.41903 4.84847 8.41903 5.10433 8.3536 5.3472C8.29964 5.50758 8.29964 5.68122 8.3536 5.8416C8.4952 6.1608 9.4696 6.588 9.7936 6.648C9.83949 6.65687 9.88607 6.66169 9.9328 6.6624C9.98575 6.6642 10.0385 6.65536 10.088 6.63639C10.1375 6.61743 10.1826 6.58873 10.2208 6.552C10.3613 6.37152 10.4516 6.15706 10.4824 5.9304C10.5978 5.96768 10.7203 5.97711 10.8401 5.95792C10.9598 5.93873 11.0733 5.89147 11.1712 5.82C11.3032 5.688 11.3224 5.4816 11.3512 5.1696C11.3661 4.93633 11.4063 4.70537 11.4712 4.4808C12.0188 5.29276 12.3352 6.23833 12.3866 7.21631C12.4381 8.19429 12.2226 9.16785 11.7633 10.0328C11.3039 10.8977 10.618 11.6214 9.77899 12.1265C8.93994 12.6316 7.97933 12.8989 7 12.9Z" fill="black" fill-opacity="0.6"/>
</g>
</svg>
