<svg width="23" height="23" viewBox="0 0 23 23" fill="none" xmlns="http://www.w3.org/2000/svg">
<g id="&#228;&#184;&#141;&#229;&#187;&#186;&#232;&#174;&#174;&#229;&#136;&#134;&#231;&#177;&#187;/&#229;&#155;&#189;&#233;&#153;&#133;&#232;&#180;&#184;&#230;&#152;&#147;&#229;&#185;&#179;&#229;&#143;&#176;">
<path id="Vector" d="M10.7949 6.39861C11.2048 6.37342 11.6239 6.46502 11.9811 6.67111C12.5444 6.98712 12.9497 7.57104 13.0413 8.21222C13.1054 8.64959 13.0322 9.10528 12.8306 9.49686C12.5352 10.0808 11.9582 10.5113 11.3124 10.6212C10.8636 10.7013 10.3896 10.6349 9.982 10.4289C9.42326 10.1518 8.99963 9.61593 8.85994 9.00911C8.75232 8.54883 8.8027 8.05421 9.00421 7.626C9.32022 6.93216 10.0324 6.44212 10.7949 6.39861Z" fill="#1375FF"/>
<path id="Subtract" fill-rule="evenodd" clip-rule="evenodd" d="M10.0945 0.868228C10.3487 0.682746 10.6601 0.57512 10.9738 0.56367C11.3265 0.549931 11.6837 0.657557 11.9699 0.865938L13.9072 2.27512C16.0856 3.85955 18.2643 5.44428 20.4403 7.03037C20.738 7.25707 20.9487 7.5914 21.0243 7.95779C21.141 8.51194 20.9418 9.11877 20.5205 9.49432C20.2548 9.73247 19.9068 9.87215 19.5495 9.89047V17.6075C20.1037 17.6418 20.6235 17.9853 20.8685 18.4845C21.0632 18.8715 21.0907 19.3386 20.9418 19.7462C20.8433 20.021 20.667 20.2683 20.438 20.4492C20.1518 20.6782 19.7831 20.8065 19.4167 20.795H2.35004C1.90122 20.7859 1.46155 20.5683 1.17761 20.2203C0.946325 19.9455 0.81809 19.5905 0.806641 19.231V19.1646C0.81809 18.6723 1.0654 18.1914 1.46613 17.9052C1.76611 17.683 2.14624 17.5823 2.5172 17.6029V9.88818C2.19662 9.87215 1.8829 9.75994 1.62872 9.56301C1.15013 9.19663 0.914266 8.54858 1.03792 7.96008C1.11349 7.58224 1.33561 7.23876 1.64475 7.00976C4.06751 5.2542 6.48688 3.49356 8.90724 1.73221L8.90853 1.73127L8.90865 1.73118L10.0945 0.868228ZM14.6144 8.5235C14.6144 10.5558 12.9669 12.2033 10.9346 12.2033C8.90236 12.2033 7.25488 10.5558 7.25488 8.5235C7.25488 6.49123 8.90236 4.84375 10.9346 4.84375C12.9669 4.84375 14.6144 6.49123 14.6144 8.5235ZM7.25507 13.5703C6.6741 13.5703 6.20312 14.0413 6.20312 14.6223V17.1864C6.20312 17.7673 6.6741 18.2383 7.25507 18.2383C7.83604 18.2383 8.30702 17.7673 8.30702 17.1864V14.6223C8.30702 14.0413 7.83604 13.5703 7.25507 13.5703ZM13.9941 14.6223C13.9941 14.0413 14.4651 13.5703 15.0461 13.5703C15.6271 13.5703 16.098 14.0413 16.098 14.6223V17.1864C16.098 17.7673 15.6271 18.2383 15.0461 18.2383C14.4651 18.2383 13.9941 17.7673 13.9941 17.1864V14.6223ZM11.1506 13.5703C10.5696 13.5703 10.0986 14.0413 10.0986 14.6223V17.1864C10.0986 17.7673 10.5696 18.2383 11.1506 18.2383C11.7316 18.2383 12.2025 17.7673 12.2025 17.1864V14.6223C12.2025 14.0413 11.7316 13.5703 11.1506 13.5703Z" fill="#1375FF"/>
<g id="Vector_2" filter="url(#filter0_b_1668_94921)">
<path d="M13.6367 17.679C13.6367 19.9505 15.4779 21.7898 17.7475 21.7898C20.0172 21.7898 21.8583 19.9487 21.8583 17.679C21.8583 15.4094 20.0172 13.5664 17.7475 13.5664C15.4779 13.5664 13.6367 15.4075 13.6367 17.679Z" fill="white" fill-opacity="0.05"/>
</g>
</g>
<defs>
<filter id="filter0_b_1668_94921" x="5.63672" y="5.56641" width="24.2217" height="24.2236" filterUnits="userSpaceOnUse" color-interpolation-filters="sRGB">
<feFlood flood-opacity="0" result="BackgroundImageFix"/>
<feGaussianBlur in="BackgroundImageFix" stdDeviation="4"/>
<feComposite in2="SourceAlpha" operator="in" result="effect1_backgroundBlur_1668_94921"/>
<feBlend mode="normal" in="SourceGraphic" in2="effect1_backgroundBlur_1668_94921" result="shape"/>
</filter>
</defs>
</svg>
