<svg width="23" height="23" viewBox="0 0 23 23" fill="none" xmlns="http://www.w3.org/2000/svg">
<g id="&#228;&#184;&#141;&#229;&#187;&#186;&#232;&#174;&#174;&#229;&#136;&#134;&#231;&#177;&#187;/&#229;&#155;&#189;&#229;&#174;&#182;&#229;&#144;&#141;&#229;&#173;&#151;">
<path id="Vector" d="M20.875 3.51198V16.4026C20.875 17.5354 20.1133 18.5276 19.0176 18.8186L15.6426 19.7151C15.4434 19.7678 15.25 19.6174 15.25 19.4124V3.77565C15.25 3.63893 15.3398 3.51784 15.4707 3.47682L19.2578 2.31667C20.0625 2.07057 20.875 2.67214 20.875 3.51198ZM14 4.0569V19.4202C14 19.6253 13.8066 19.7737 13.6094 19.7229L8.53125 18.3987C8.3974 18.3637 8.27895 18.2852 8.19448 18.1757C8.11 18.0661 8.06427 17.9316 8.06445 17.7932V2.42995C8.06445 2.22487 8.25781 2.07643 8.45508 2.12721L13.5332 3.45143C13.6671 3.48645 13.7855 3.5649 13.87 3.67447C13.9545 3.78404 14.0002 3.91855 14 4.0569ZM6.8125 2.43581V17.9788C6.8125 18.1272 6.70703 18.2561 6.56055 18.2854L2.36914 19.1214C1.5957 19.2757 0.875 18.6839 0.875 17.8967V5.53737C0.875 4.40651 1.63477 3.41432 2.72852 3.12331L6.41992 2.13503C6.61719 2.08034 6.8125 2.23073 6.8125 2.43581Z" fill="#1375FF"/>
<g id="Rectangle 993" filter="url(#filter0_b_1668_99155)">
<path d="M14.2188 15.3042C14.2188 14.8656 14.5046 14.4781 14.9237 14.3487L20.7675 12.5444C21.4107 12.3458 22.0625 12.8267 22.0625 13.4999V18.7622C22.0625 19.2008 21.7766 19.5883 21.3575 19.7177L15.5138 21.522C14.8705 21.7206 14.2188 21.2397 14.2188 20.5665V15.3042Z" fill="white" fill-opacity="0.05"/>
</g>
</g>
<defs>
<filter id="filter0_b_1668_99155" x="6.21875" y="4.49902" width="23.8438" height="25.0684" filterUnits="userSpaceOnUse" color-interpolation-filters="sRGB">
<feFlood flood-opacity="0" result="BackgroundImageFix"/>
<feGaussianBlur in="BackgroundImageFix" stdDeviation="4"/>
<feComposite in2="SourceAlpha" operator="in" result="effect1_backgroundBlur_1668_99155"/>
<feBlend mode="normal" in="SourceGraphic" in2="effect1_backgroundBlur_1668_99155" result="shape"/>
</filter>
</defs>
</svg>
