<svg width="14" height="14" viewBox="0 0 14 14" fill="none" xmlns="http://www.w3.org/2000/svg">
<g id="Frame">
<path id="Vector" d="M7 12.6667C9.40179 12.6667 11.3749 10.7633 11.3749 8.32028C11.3749 7.72052 11.3445 7.0776 11.012 6.07838C10.6796 5.07919 10.6126 4.95022 10.2611 4.33314C10.1109 5.59241 9.30738 6.11723 9.10324 6.27409C9.10324 6.1109 8.61715 4.3063 7.88013 3.22655C7.15663 2.16667 6.17266 1.47131 5.59571 1C5.59571 1.89535 5.34389 3.22655 4.98324 3.90482C4.6226 4.5831 4.55487 4.6078 4.10439 5.11256C3.65394 5.61732 3.44718 5.77321 3.07049 6.38565C2.69382 6.99812 2.625 7.81386 2.625 8.41361C2.625 10.8566 4.59821 12.6667 7 12.6667Z" fill="url(#paint0_linear_1044_125457)"/>
</g>
<defs>
<linearGradient id="paint0_linear_1044_125457" x1="10.4941" y1="12.6667" x2="2.37646" y2="12.4597" gradientUnits="userSpaceOnUse">
<stop stop-color="#FF594E"/>
<stop offset="1" stop-color="#FF6F26"/>
</linearGradient>
</defs>
</svg>
