<svg width="22" height="22" viewBox="0 0 22 22" fill="none" xmlns="http://www.w3.org/2000/svg">
<g id="&#232;&#161;&#140;&#228;&#184;&#154;&#229;&#136;&#134;&#231;&#177;&#187;/&#229;&#140;&#150;&#229;&#166;&#134;&#229;&#147;&#129;&#231;&#177;&#187;">
<path id="Vector" d="M17.383 17.9846H13.6467C13.3142 17.9846 13.0438 17.7124 13.0438 17.3795V10.2482C13.0438 9.91487 13.3147 9.64406 13.6472 9.64406H13.939V6.49669C13.9604 6.15106 14.2549 5.57812 14.8888 5.05457C15.0947 4.85938 15.3285 4.69179 15.5439 4.51953C15.9434 4.20016 16.224 4.01562 16.5456 4.01562C16.7915 4.01562 17.201 4.13944 17.201 4.96675V9.64362H17.3825C17.715 9.64362 17.9858 9.91487 17.9858 10.2487V17.3795C17.9858 17.7142 17.7155 17.9846 17.383 17.9846ZM16.588 11.7603C16.5881 11.703 16.5769 11.6463 16.555 11.5934C16.5331 11.5404 16.501 11.4924 16.4606 11.4518C16.4201 11.4113 16.372 11.3792 16.3191 11.3573C16.2662 11.3353 16.2095 11.3241 16.1523 11.3241C16.0949 11.3238 16.038 11.3349 15.9849 11.3568C15.9318 11.3786 15.8835 11.4107 15.8429 11.4512C15.8022 11.4918 15.77 11.5399 15.748 11.593C15.726 11.646 15.7147 11.7028 15.7148 11.7603V15.7091C15.7148 15.8249 15.7608 15.936 15.8427 16.0179C15.9245 16.0997 16.0356 16.1458 16.1514 16.1458C16.2672 16.1458 16.3783 16.0997 16.4601 16.0179C16.542 15.936 16.588 15.8249 16.588 15.7091V11.7603ZM10.0605 10.4377C10.054 10.4478 10.0408 10.4517 10.0321 10.4604C10.2049 11.9449 10.7548 16.7219 10.7548 17.1183C10.7548 17.7142 10.1935 17.9846 9.67291 17.9846H7.71509C7.22028 17.9846 6.86766 17.8577 6.66641 17.6039C6.50147 17.397 6.48003 17.1559 6.51766 16.9993L7.24084 10.4928C7.22072 10.4766 7.19709 10.467 7.17959 10.4464L4.11841 6.84406C4.05729 6.77221 4.02104 6.68253 4.01504 6.5884C4.00905 6.49426 4.03365 6.40071 4.08516 6.32169C4.14728 6.2285 5.62297 4.01606 8.51309 4.01606C11.3962 4.01606 12.9327 6.19613 12.9983 6.288C13.1073 6.44681 13.099 6.65944 12.9778 6.80994L10.0605 10.4377ZM9.33778 12.0691L9.23716 11.1959H8.03797L7.94172 12.0691H9.33778ZM8.13597 7.87962C8.10513 7.77083 8.03333 7.67823 7.93566 7.62126C7.83798 7.56429 7.72202 7.5474 7.61215 7.57414C7.50228 7.60087 7.40704 7.66914 7.34645 7.76461C7.28586 7.86009 7.26463 7.97533 7.28722 8.08612L7.67397 9.68213L8.57347 9.69044L8.13597 7.87962ZM9.45591 7.55281C9.34192 7.532 9.22433 7.55725 9.12894 7.62303C9.03355 7.68881 8.96815 7.78974 8.94709 7.90369L8.62116 9.69044H9.50928L9.80766 8.06119C9.82833 7.94714 9.80289 7.82955 9.73695 7.73424C9.671 7.63892 9.56992 7.57367 9.45591 7.55281Z" fill="#3370FF"/>
</g>
</svg>
