<svg width="23" height="23" viewBox="0 0 23 23" fill="none" xmlns="http://www.w3.org/2000/svg">
<g id="&#228;&#184;&#141;&#229;&#187;&#186;&#232;&#174;&#174;&#229;&#136;&#134;&#231;&#177;&#187;/&#229;&#190;&#189;&#231;&#171;&#160;">
<path id="Vector" d="M8.90919 17.1001C10.5365 17.1001 12.1273 16.6176 13.4804 15.7136C14.8336 14.8095 15.8882 13.5245 16.5109 12.021C17.1337 10.5176 17.2966 8.86322 16.9791 7.26716C16.6616 5.67109 15.878 4.20503 14.7272 3.05437C13.1842 1.51137 11.0915 0.644529 8.90935 0.644531C6.72723 0.644533 4.63447 1.51138 3.09148 3.05438C1.54848 4.59738 0.681639 6.69013 0.681641 8.87226C0.681643 11.0544 1.54849 13.1471 3.09149 14.6901C3.85368 15.4566 4.76032 16.0642 5.75894 16.4779C6.75756 16.8915 7.82831 17.103 8.90922 17.1001H8.90919ZM8.90919 6.01675C9.47402 6.01668 10.0262 6.18412 10.4958 6.49788C10.9655 6.81164 11.3316 7.25763 11.5477 7.77945C11.7639 8.30126 11.8205 8.87547 11.7103 9.42944C11.6001 9.98341 11.3281 10.4923 10.9288 10.8917C10.5294 11.291 10.0205 11.563 9.46654 11.6732C8.91257 11.7834 8.33836 11.7268 7.81655 11.5106C7.29473 11.2944 6.84874 10.9284 6.53498 10.4587C6.22122 9.98907 6.05378 9.43692 6.05384 8.8721C6.05476 8.11509 6.35588 7.38935 6.89117 6.85407C7.42645 6.31879 8.15219 6.01766 8.90919 6.01675Z" fill="#1375FF"/>
<path id="Subtract" fill-rule="evenodd" clip-rule="evenodd" d="M10.3488 17.8745C9.87451 17.9709 9.39783 18.0225 8.92149 18.0334C8.44516 18.0225 7.96848 17.9709 7.4942 17.8745C6.03368 17.5778 4.6448 17.189 3.50026 16.2344C3.43128 16.1769 3.34733 16.1402 3.25824 16.1287C3.16915 16.1172 3.07862 16.1313 2.99729 16.1695C2.91596 16.2076 2.8472 16.2681 2.79907 16.344C2.75094 16.4198 2.72545 16.5078 2.72559 16.5977L2.75061 19.8362C2.75028 20.1558 2.82976 20.4705 2.98184 20.7517C3.13392 21.0329 3.3538 21.2716 3.62152 21.4463C3.88924 21.621 4.19633 21.726 4.51495 21.752C4.83356 21.7779 5.15361 21.7239 5.44606 21.5948L8.64892 20.1849C8.73589 20.1471 8.82771 20.122 8.92149 20.1105C9.01528 20.122 9.1071 20.1471 9.19407 20.1849L12.3969 21.5948C12.6894 21.7239 13.0094 21.7779 13.328 21.752C13.6467 21.726 13.9538 21.621 14.2215 21.4463C14.4892 21.2716 14.7091 21.0329 14.8612 20.7517C15.0132 20.4705 15.0927 20.1558 15.0924 19.8362V16.5159C15.0925 16.426 15.067 16.338 15.0189 16.2622C14.9708 16.1863 14.902 16.1258 14.8207 16.0876C14.7394 16.0495 14.6488 16.0354 14.5597 16.0469C14.4707 16.0584 14.3867 16.095 14.3177 16.1526C13.1732 17.1072 11.8093 17.5778 10.3488 17.8745ZM11.54 18.6958C11.54 18.4064 11.7746 18.1719 12.0639 18.1719C12.3532 18.1719 12.5878 18.4064 12.5878 18.6958V20.0136C12.5878 20.303 12.3532 20.5375 12.0639 20.5375C11.7746 20.5375 11.54 20.303 11.54 20.0136V18.6958ZM5.53365 18.1719C5.24432 18.1719 5.00977 18.4064 5.00977 18.6958V20.0136C5.00977 20.303 5.24432 20.5375 5.53365 20.5375C5.82298 20.5375 6.05752 20.303 6.05752 20.0136V18.6958C6.05752 18.4064 5.82298 18.1719 5.53365 18.1719Z" fill="#1375FF"/>
<g id="Vector_2" filter="url(#filter0_b_1668_94947)">
<path d="M11.25 16.646C11.25 19.471 13.5398 21.7586 16.3625 21.7586C19.1852 21.7586 21.475 19.4688 21.475 16.646C21.475 13.8233 19.1852 11.5312 16.3625 11.5312C13.5398 11.5312 11.25 13.821 11.25 16.646Z" fill="white" fill-opacity="0.05"/>
</g>
</g>
<defs>
<filter id="filter0_b_1668_94947" x="3.25" y="3.53125" width="26.2251" height="26.2275" filterUnits="userSpaceOnUse" color-interpolation-filters="sRGB">
<feFlood flood-opacity="0" result="BackgroundImageFix"/>
<feGaussianBlur in="BackgroundImageFix" stdDeviation="4"/>
<feComposite in2="SourceAlpha" operator="in" result="effect1_backgroundBlur_1668_94947"/>
<feBlend mode="normal" in="SourceGraphic" in2="effect1_backgroundBlur_1668_94947" result="shape"/>
</filter>
</defs>
</svg>
