<svg width="22" height="22" viewBox="0 0 22 22" fill="none" xmlns="http://www.w3.org/2000/svg">
<g id="&#232;&#161;&#140;&#228;&#184;&#154;&#229;&#136;&#134;&#231;&#177;&#187;/&#229;&#174;&#182;&#229;&#133;&#183;&#229;&#174;&#182;&#231;&#186;&#186;&#229;&#147;&#129;&#231;&#137;&#140;">
<path id="Vector" d="M17.2448 5.2536C17.2882 5.38466 17.2937 5.52503 17.2603 5.6592C16.5678 8.44952 16.2211 10.3162 16.2211 11.2585C16.2211 12.1519 16.5329 13.7386 17.1572 16.0186L17.2402 16.3195C17.2747 16.4432 17.276 16.5738 17.2442 16.6982C17.2123 16.8226 17.1484 16.9364 17.0587 17.0283C16.969 17.1202 16.8567 17.1869 16.7332 17.2217C16.6096 17.2566 16.479 17.2584 16.3545 17.2269C13.7426 16.5677 11.9558 16.2381 10.9957 16.2381C10.0821 16.2381 8.42093 16.5367 6.01294 17.133L5.69497 17.2121C5.56839 17.2441 5.43556 17.2416 5.31024 17.205C5.18491 17.1684 5.07164 17.099 4.98213 17.004C4.89262 16.9089 4.83013 16.7917 4.80111 16.6644C4.77209 16.5371 4.77761 16.4044 4.81708 16.28C5.49954 14.1248 5.84077 12.5598 5.84077 11.5834C5.84077 10.6086 5.49954 8.74732 4.82019 6.00043L4.74031 5.68014C4.70825 5.5524 4.7112 5.41838 4.74886 5.29217C4.78652 5.16597 4.85749 5.05225 4.95432 4.96297C5.05114 4.87369 5.17023 4.81215 5.29906 4.78482C5.4279 4.75749 5.56171 4.76539 5.68644 4.80767C8.16811 5.65299 9.90683 6.07488 10.9026 6.07488C11.8673 6.07488 13.5704 5.67936 16.011 4.88755L16.3196 4.78674C16.5042 4.72598 16.7054 4.74103 16.8789 4.82858C17.0524 4.91613 17.184 5.06901 17.2448 5.2536ZM11.0189 8.75275L10.9631 8.75818C10.917 8.76773 10.8738 8.78801 10.837 8.81739C10.8002 8.84676 10.7709 8.8844 10.7514 8.92724L10.2349 10.02L9.0778 10.1952C9.01236 10.2055 8.95228 10.2374 8.90718 10.286C8.85131 10.3464 8.82067 10.426 8.82153 10.5083C8.8224 10.5906 8.8547 10.6695 8.91184 10.7288L9.74862 11.5787L9.55086 12.7824C9.53978 12.8501 9.55037 12.9196 9.58111 12.9809C9.65866 13.1337 9.83936 13.1926 9.98593 13.1127L11.0197 12.545L12.055 13.1135C12.1134 13.1457 12.1811 13.1566 12.2466 13.1445C12.3262 13.128 12.3962 13.0811 12.4417 13.0137C12.4871 12.9464 12.5045 12.8639 12.4901 12.7839L12.2931 11.5803L13.1291 10.7288C13.1761 10.68 13.2062 10.6175 13.2152 10.5504C13.2278 10.4697 13.2081 10.3872 13.1603 10.3209C13.1126 10.2546 13.0406 10.2097 12.9601 10.196L11.8045 10.0207L11.2873 8.92724C11.2639 8.87551 11.2263 8.83157 11.1787 8.80064C11.1311 8.76971 11.0757 8.75308 11.0189 8.75275Z" fill="#3370FF"/>
</g>
</svg>
