<svg width="22" height="22" viewBox="0 0 22 22" fill="none" xmlns="http://www.w3.org/2000/svg">
<g id="&#232;&#161;&#140;&#228;&#184;&#154;&#229;&#136;&#134;&#231;&#177;&#187;/&#229;&#174;&#182;&#231;&#148;&#168;&#231;&#148;&#181;&#229;&#153;&#168;&#229;&#147;&#129;&#231;&#137;&#140;">
<g id="Group 427319206">
<path id="Subtract" fill-rule="evenodd" clip-rule="evenodd" d="M6.5 4.57031C5.94772 4.57031 5.5 5.01803 5.5 5.57031V8.65365H16.5V5.57031C16.5 5.01803 16.0523 4.57031 15.5 4.57031H6.5ZM14.3919 7.61094C14.9425 7.61094 15.3888 7.16462 15.3888 6.61406C15.3888 6.0635 14.9425 5.61719 14.3919 5.61719C13.8413 5.61719 13.395 6.0635 13.395 6.61406C13.395 7.16462 13.8413 7.61094 14.3919 7.61094Z" fill="#3370FF"/>
<path id="Subtract_2" fill-rule="evenodd" clip-rule="evenodd" d="M16.5 9.54297H5.5V16.4283C5.5 16.9806 5.94771 17.4283 6.5 17.4283H15.5C16.0523 17.4283 16.5 16.9806 16.5 16.4283V9.54297ZM12.3948 13.3678C12.3948 14.1383 11.7701 14.7629 10.9996 14.7629C10.2291 14.7629 9.60449 14.1383 9.60449 13.3678C9.60449 12.5973 10.2291 11.9727 10.9996 11.9727C11.7701 11.9727 12.3948 12.5973 12.3948 13.3678ZM13.3948 13.3678C13.3948 14.6906 12.3224 15.7629 10.9996 15.7629C9.67683 15.7629 8.60449 14.6906 8.60449 13.3678C8.60449 12.045 9.67683 10.9727 10.9996 10.9727C12.3224 10.9727 13.3948 12.045 13.3948 13.3678Z" fill="#3370FF"/>
</g>
</g>
</svg>
