<svg width="22" height="22" viewBox="0 0 22 22" fill="none" xmlns="http://www.w3.org/2000/svg">
<g id="&#232;&#161;&#140;&#228;&#184;&#154;&#229;&#136;&#134;&#231;&#177;&#187;/&#229;&#146;&#150;&#229;&#149;&#161;&#229;&#147;&#129;&#231;&#137;&#140;">
<g id="Group 427319212">
<rect id="Rectangle 1012" x="9.83838" y="3.74536" width="1.1436" height="2.93049" rx="0.571802" fill="#3370FF"/>
<rect id="Rectangle 1013" x="7.33667" y="4.67456" width="1.1436" height="2.00131" rx="0.571802" fill="#3370FF"/>
<rect id="Rectangle 1014" x="12.3406" y="4.67456" width="1.1436" height="2.00131" rx="0.571802" fill="#3370FF"/>
<path id="Vector" d="M14.9859 13.3433C14.5793 12.9366 14.3508 12.3851 14.3508 11.81C14.3508 11.2349 14.5793 10.6834 14.9859 10.2767C15.3926 9.87006 15.9441 9.6416 16.5192 9.6416C17.0943 9.6416 17.6458 9.87006 18.0525 10.2767C18.4591 10.6834 18.6876 11.2349 18.6876 11.81C18.6876 12.3851 18.4591 12.9366 18.0525 13.3433C17.6458 13.7499 17.0943 13.9784 16.5192 13.9784C15.9441 13.9784 15.3926 13.7499 14.9859 13.3433Z" stroke="#3370FF"/>
<path id="Subtract" fill-rule="evenodd" clip-rule="evenodd" d="M4.1875 12.0295C4.1875 15.4676 6.9743 18.2544 10.4085 18.2544C13.8466 18.2544 16.6334 15.4676 16.6334 12.0295V9.38483C16.6334 8.51248 15.9268 7.80591 15.0544 7.80591H5.76642C4.89407 7.80591 4.1875 8.51248 4.1875 9.38483V12.0295ZM5.82484 9.62412C5.50905 9.62412 5.25304 9.88012 5.25304 10.1959V12.0185C5.25304 12.3343 5.50905 12.5903 5.82484 12.5903C6.14064 12.5903 6.39665 12.3343 6.39665 12.0185V10.1959C6.39665 9.88012 6.14064 9.62412 5.82484 9.62412Z" fill="#3370FF"/>
</g>
</g>
</svg>
