<svg width="23" height="23" viewBox="0 0 23 23" fill="none" xmlns="http://www.w3.org/2000/svg">
<g id="&#228;&#184;&#141;&#229;&#187;&#186;&#232;&#174;&#174;&#229;&#136;&#134;&#231;&#177;&#187;/&#232;&#183;&#168;&#229;&#162;&#131;&#231;&#148;&#181;&#229;&#173;&#144;">
<path id="Subtract" fill-rule="evenodd" clip-rule="evenodd" d="M3.90647 1.86719C3.39843 1.86719 2.97113 2.24812 2.91303 2.75283L0.999362 19.3778C0.931026 19.9715 1.39521 20.4922 1.9928 20.4922H19.3793C19.9769 20.4922 20.4411 19.9715 20.3728 19.3778L18.4591 2.75283C18.401 2.24813 17.9737 1.86719 17.4656 1.86719H3.90647ZM7.83496 6.92578C7.83496 6.3735 7.38724 5.92578 6.83496 5.92578C6.28267 5.92578 5.83496 6.3735 5.83496 6.92578C5.83496 9.60563 8.0074 11.7781 10.6872 11.7781C13.3671 11.7781 15.5395 9.60563 15.5395 6.92578C15.5395 6.3735 15.0918 5.92578 14.5395 5.92578C13.9873 5.92578 13.5395 6.3735 13.5395 6.92578C13.5395 8.50106 12.2625 9.77807 10.6872 9.77807C9.11197 9.77807 7.83496 8.50106 7.83496 6.92578Z" fill="#1375FF"/>
<g id="Vector" filter="url(#filter0_b_1668_99213)">
<path d="M11.25 17.125C11.25 19.9189 13.5146 22.1813 16.3063 22.1813C19.098 22.1813 21.3626 19.9166 21.3626 17.125C21.3626 14.3333 19.098 12.0664 16.3063 12.0664C13.5146 12.0664 11.25 14.331 11.25 17.125Z" fill="white" fill-opacity="0.05"/>
</g>
</g>
<defs>
<filter id="filter0_b_1668_99213" x="3.25" y="4.06641" width="26.1125" height="26.1147" filterUnits="userSpaceOnUse" color-interpolation-filters="sRGB">
<feFlood flood-opacity="0" result="BackgroundImageFix"/>
<feGaussianBlur in="BackgroundImageFix" stdDeviation="4"/>
<feComposite in2="SourceAlpha" operator="in" result="effect1_backgroundBlur_1668_99213"/>
<feBlend mode="normal" in="SourceGraphic" in2="effect1_backgroundBlur_1668_99213" result="shape"/>
</filter>
</defs>
</svg>
