<svg width="23" height="23" viewBox="0 0 23 23" fill="none" xmlns="http://www.w3.org/2000/svg">
<g id="&#228;&#184;&#141;&#229;&#187;&#186;&#232;&#174;&#174;&#229;&#136;&#134;&#231;&#177;&#187;/&#232;&#129;&#138;&#229;&#164;&#169;&#229;&#185;&#179;&#229;&#143;&#176;">
<path id="Vector" d="M14.7976 10.5759C14.4643 10.1949 13.8452 10.1473 13.4643 10.4807C11.6071 12.0997 9.89286 12.0997 8.03571 10.4807C7.65476 10.1473 7.03571 10.1949 6.70238 10.5759C6.36905 10.9568 6.41667 11.5759 6.79762 11.9092C9.36905 14.0997 12.131 14.0997 14.7024 11.9092C15.0833 11.5759 15.131 10.9568 14.7976 10.5759ZM10.75 0.71875C16.2738 0.71875 20.75 5.19494 20.75 10.7188C20.75 16.2426 16.2738 20.7188 10.75 20.7188C8.89286 20.7188 7.17857 20.2426 5.70238 19.3854L2.27381 20.3378C1.79762 20.4807 1.27381 20.1949 1.17857 19.7188C1.13095 19.5759 1.13095 19.3854 1.17857 19.2426L2.13095 15.814C1.22619 14.2902 0.75 12.5759 0.75 10.7188C0.75 5.19494 5.22619 0.71875 10.75 0.71875Z" fill="#3370FF"/>
<g id="Vector_2" filter="url(#filter0_b_1668_99259)">
<path d="M12.2754 17.1065C12.2754 19.8622 14.509 22.0936 17.2625 22.0936C20.0159 22.0936 22.2496 19.86 22.2496 17.1065C22.2496 14.353 20.0159 12.1172 17.2625 12.1172C14.509 12.1172 12.2754 14.3508 12.2754 17.1065Z" fill="white" fill-opacity="0.05"/>
</g>
</g>
<defs>
<filter id="filter0_b_1668_99259" x="4.27539" y="4.11719" width="25.9741" height="25.9766" filterUnits="userSpaceOnUse" color-interpolation-filters="sRGB">
<feFlood flood-opacity="0" result="BackgroundImageFix"/>
<feGaussianBlur in="BackgroundImageFix" stdDeviation="4"/>
<feComposite in2="SourceAlpha" operator="in" result="effect1_backgroundBlur_1668_99259"/>
<feBlend mode="normal" in="SourceGraphic" in2="effect1_backgroundBlur_1668_99259" result="shape"/>
</filter>
</defs>
</svg>
