<svg width="23" height="23" viewBox="0 0 23 23" fill="none" xmlns="http://www.w3.org/2000/svg">
<g id="&#228;&#184;&#141;&#229;&#187;&#186;&#232;&#174;&#174;&#229;&#136;&#134;&#231;&#177;&#187;/&#230;&#151;&#133;&#230;&#184;&#184;&#230;&#153;&#175;&#231;&#130;&#185;">
<path id="Vector" d="M4.01172 5.74876C4.01172 7.01316 5.0127 8.04048 6.25076 8.04048C7.48882 8.04048 8.4898 7.01316 8.4898 5.74876C8.4898 4.48436 7.48882 3.45703 6.25076 3.45703C5.0127 3.45703 4.01172 4.48436 4.01172 5.74876Z" fill="#1375FF"/>
<g id="Union" filter="url(#filter0_b_1668_99145)">
<path d="M14.1685 5.76837C13.7448 4.91575 12.5285 4.91575 12.1049 5.76837L8.48081 13.0616L7.11107 10.3051C6.6874 9.45245 5.47111 9.45245 5.04744 10.3051L0.905043 18.6415C0.524458 19.4074 1.0816 20.3064 1.93686 20.3064H6.67341C6.6951 20.3076 6.71699 20.3082 6.73909 20.3082H19.5343C20.3895 20.3082 20.9467 19.4092 20.5661 18.6433L14.1685 5.76837Z" fill="#1375FF"/>
</g>
<g id="Polygon 16" filter="url(#filter1_b_1668_99145)">
<path d="M15.0831 9.84129C15.4508 9.10128 16.5065 9.10128 16.8742 9.84129L22.0323 20.2217C22.3626 20.8865 21.879 21.6667 21.1367 21.6667H10.8206C10.0783 21.6667 9.59474 20.8865 9.92505 20.2217L15.0831 9.84129Z" fill="white" fill-opacity="0.05"/>
</g>
</g>
<defs>
<filter id="filter0_b_1668_99145" x="-7.2168" y="-2.87109" width="35.9048" height="31.1792" filterUnits="userSpaceOnUse" color-interpolation-filters="sRGB">
<feFlood flood-opacity="0" result="BackgroundImageFix"/>
<feGaussianBlur in="BackgroundImageFix" stdDeviation="4"/>
<feComposite in2="SourceAlpha" operator="in" result="effect1_backgroundBlur_1668_99145"/>
<feBlend mode="normal" in="SourceGraphic" in2="effect1_backgroundBlur_1668_99145" result="shape"/>
</filter>
<filter id="filter1_b_1668_99145" x="1.81934" y="1.28613" width="28.3186" height="28.3804" filterUnits="userSpaceOnUse" color-interpolation-filters="sRGB">
<feFlood flood-opacity="0" result="BackgroundImageFix"/>
<feGaussianBlur in="BackgroundImageFix" stdDeviation="4"/>
<feComposite in2="SourceAlpha" operator="in" result="effect1_backgroundBlur_1668_99145"/>
<feBlend mode="normal" in="SourceGraphic" in2="effect1_backgroundBlur_1668_99145" result="shape"/>
</filter>
</defs>
</svg>
