<svg width="22" height="22" viewBox="0 0 22 22" fill="none" xmlns="http://www.w3.org/2000/svg">
<g id="&#232;&#161;&#140;&#228;&#184;&#154;&#229;&#136;&#134;&#231;&#177;&#187;/&#229;&#144;&#141;&#232;&#161;&#168;&#229;&#147;&#129;&#231;&#137;&#140;">
<path id="Vector" d="M14.5219 16.102C14.507 16.1122 14.4921 16.1224 14.4771 16.1325C14.458 16.1455 14.439 16.1585 14.4196 16.1713C14.4062 16.1802 14.3927 16.1887 14.3795 16.1977C14.3584 16.2115 14.3373 16.2252 14.316 16.2388C14.3038 16.2465 14.2919 16.254 14.2797 16.2616C14.2569 16.2759 14.2341 16.29 14.2111 16.3041C14.2 16.3109 14.1887 16.3175 14.1776 16.3243C14.1535 16.3386 14.1295 16.3529 14.1054 16.3669C13.1719 16.9092 12.108 17.1987 10.9997 17.1987C9.89119 17.1987 8.82726 16.9092 7.89357 16.3667C7.86948 16.3529 7.8456 16.3386 7.82194 16.3243L7.78805 16.3038C7.76524 16.29 7.74243 16.2759 7.71983 16.2616C7.70768 16.254 7.69532 16.2463 7.68338 16.2386C7.66206 16.2252 7.64096 16.2113 7.61986 16.1975C7.60643 16.1887 7.59321 16.18 7.57978 16.1713C7.56038 16.1585 7.5412 16.1452 7.5218 16.132C7.50709 16.122 7.49238 16.112 7.47767 16.1018C7.34529 16.0101 7.2159 15.9129 7.09013 15.8104C6.94538 15.9879 6.86395 16.2115 6.86395 16.4516C6.86395 18.2533 8.32972 19.7191 10.1314 19.7191H11.8677C13.6694 19.7191 15.1354 18.2533 15.1354 16.4514C15.1354 16.2111 15.054 15.9877 14.9094 15.8101C14.7841 15.9125 14.6549 16.0098 14.5219 16.102ZM7.4766 5.89897C7.49195 5.88831 7.50752 5.87787 7.52286 5.86742C7.54141 5.85485 7.56017 5.84206 7.57871 5.82969C7.59257 5.82053 7.60643 5.81157 7.62028 5.80241C7.64096 5.78898 7.66164 5.77555 7.68231 5.76233C7.69489 5.75444 7.70747 5.74656 7.71983 5.73867C7.75352 5.71746 7.78748 5.69671 7.82173 5.67642C7.84539 5.66214 7.86927 5.64807 7.89314 5.63421C8.82683 5.09169 9.89077 4.80221 10.9993 4.80221C12.1077 4.80221 13.1715 5.09169 14.1049 5.634C14.1292 5.64807 14.1533 5.66235 14.1774 5.67664C14.1885 5.68324 14.1998 5.69007 14.2109 5.69689C14.2337 5.71074 14.2565 5.72481 14.2793 5.7391C14.2915 5.74677 14.3038 5.75444 14.316 5.76212C14.3371 5.77555 14.3582 5.78919 14.3791 5.80283C14.3927 5.81179 14.4062 5.82053 14.4196 5.82948C14.4388 5.84206 14.4575 5.85506 14.4765 5.86785C14.4916 5.87808 14.5068 5.88831 14.5217 5.89876C14.6539 5.99042 14.783 6.08742 14.9088 6.18995C15.0536 6.01238 15.1348 5.78876 15.1348 5.54873C15.1348 3.74701 13.669 2.28125 11.8673 2.28125H10.131C8.32929 2.28125 6.86353 3.74701 6.86353 5.54895C6.86353 5.78919 6.94496 6.01259 7.0897 6.19016C7.21526 6.08742 7.34444 5.99064 7.4766 5.89897Z" fill="#3370FF"/>
<path id="Vector_2" d="M10.2658 16.2092L10.2679 16.2094C10.5105 16.2434 10.7552 16.2605 11.0002 16.2606C11.2086 16.2606 11.4141 16.248 11.6164 16.2243C11.6552 16.2199 11.6938 16.2148 11.7322 16.2094L11.7345 16.209C11.9092 16.1844 12.0825 16.1511 12.2538 16.1092C14.551 15.5454 16.2604 13.4689 16.2604 11.0002C16.2604 8.53143 14.5507 6.45472 12.2534 5.8911C12.0837 5.84953 11.9108 5.81606 11.7352 5.79133L11.7318 5.79091C11.4926 5.75744 11.2485 5.73975 11.0002 5.73975C10.7915 5.73975 10.586 5.75232 10.3835 5.77598C10.3451 5.78046 10.3067 5.78536 10.2686 5.79069L10.2652 5.79112C10.0908 5.81546 9.91787 5.84869 9.74693 5.89067C7.44938 6.45429 5.73975 8.53101 5.73975 10.9997C5.73953 13.6516 7.71158 15.8509 10.2658 16.2092ZM10.531 8.68734C10.531 8.42833 10.7409 8.21836 11 8.21836C11.259 8.21836 11.4689 8.42833 11.4689 8.68734V10.2127C11.4689 10.3776 11.4689 10.3986 11.4689 10.5314H13.313C13.572 10.5314 13.782 10.7414 13.782 11.0004C13.782 11.2594 13.572 11.4694 13.313 11.4694H11.7876C11.4689 11.4694 11.3348 11.4694 11 11.4694C10.4937 11.4694 10.531 11.506 10.531 10.9997C10.531 10.6648 10.531 10.5314 10.531 10.2127V8.68734Z" fill="#3370FF"/>
</g>
</svg>
