<svg width="22" height="22" viewBox="0 0 22 22" fill="none" xmlns="http://www.w3.org/2000/svg">
<g id="&#232;&#161;&#140;&#228;&#184;&#154;&#229;&#136;&#134;&#231;&#177;&#187;/&#231;&#137;&#155;&#229;&#165;&#182;&#229;&#147;&#129;&#231;&#137;&#140;">
<g id="Group 427319208">
<path id="Subtract" fill-rule="evenodd" clip-rule="evenodd" d="M7 6.74756C6.44772 6.74756 6 7.19527 6 7.74756V17.4695C6 18.0218 6.44772 18.4695 7 18.4695H15C15.5523 18.4695 16 18.0218 16 17.4695V7.74756C16 7.19527 15.5523 6.74756 15 6.74756H7ZM8.28827 15.3162V10.2077H9.21124L10.9928 14.3002H11.0142L12.7886 10.2077H13.7116V15.3162H12.9317V11.6672H12.9031L11.3362 15.3162H10.6637L9.09676 11.6672H9.06814V15.3162H8.28827Z" fill="#3370FF"/>
<rect id="Rectangle 1004" x="6.88989" y="3.52734" width="8.22034" height="2.79661" rx="1" fill="#3370FF"/>
<path id="Rectangle 1005" d="M7.81166 4.92676H14.2639L15.1102 7.76574H6.88989L7.81166 4.92676Z" fill="#3370FF"/>
</g>
</g>
</svg>
