<svg width="22" height="22" viewBox="0 0 22 22" fill="none" xmlns="http://www.w3.org/2000/svg">
<g id="&#232;&#161;&#140;&#228;&#184;&#154;&#229;&#136;&#134;&#231;&#177;&#187;/&#230;&#177;&#189;&#232;&#189;&#166;">
<g id="Group 427319205">
<path id="Vector" d="M18.5824 8.3051H17.0835C17.0151 8.30631 16.9558 8.3051 16.8786 8.3051L16.2126 6.24783C15.8014 4.99291 15.1818 4.4668 14.1808 4.4668H7.83287C6.68314 4.4668 6.08067 5.25597 5.80065 6.24662L5.12846 8.3043C5.04022 8.3043 4.98892 8.30536 4.91583 8.30429H3.41731C3.36254 8.30419 3.3083 8.31531 3.25767 8.33701C3.20704 8.35872 3.16102 8.39058 3.12224 8.43079C3.08346 8.471 3.05268 8.51876 3.03167 8.57134C3.01065 8.62392 2.99981 8.68029 2.99976 8.73724V9.11283C2.99976 9.35151 3.18659 9.54617 3.41731 9.54617L3.9844 9.64714C3.79396 10.0384 3.6976 10.4719 3.70357 10.9104L3.51447 13.3872C3.51447 13.2933 3.51447 13.4591 3.51447 13.3872C3.50607 13.4339 3.49409 13.7159 3.49344 13.7633V16.7612C3.49344 17.188 3.8267 17.5334 4.23804 17.5334H5.37417C5.47186 17.5336 5.56864 17.5138 5.65897 17.4751C5.74929 17.4364 5.8314 17.3795 5.90059 17.3078C5.96977 17.2361 6.02469 17.1509 6.0622 17.0571C6.0997 16.9633 6.11906 16.8627 6.11916 16.7612V15.7984H15.8941V16.7612C15.8941 17.188 16.2274 17.5334 16.6387 17.5334H17.7756C17.8733 17.5335 17.97 17.5137 18.0603 17.4749C18.1506 17.4362 18.2327 17.3794 18.3018 17.3077C18.371 17.236 18.4258 17.1508 18.4633 17.057C18.5008 16.9632 18.5201 16.8627 18.5202 16.7612V13.7629C18.5202 13.7156 18.5152 13.6684 18.5063 13.6219C18.5148 13.5476 18.5202 13.4741 18.5202 13.4018L18.3097 10.91C18.3097 10.425 18.2072 10.0094 18.0277 9.64512L18.5824 9.56699C18.6654 9.54344 18.6912 9.53645 18.7419 9.51474C18.7926 9.49304 18.8386 9.46114 18.8775 9.42089C18.9163 9.38063 18.9471 9.33281 18.9681 9.28015C18.9891 9.2275 18.9999 9.17105 18.9999 9.11404V8.73845C18.9994 8.62347 18.9552 8.51337 18.8769 8.43219C18.7986 8.351 18.693 8.30531 18.5824 8.3051ZM6.5 7.86207L6.92951 6.49217L6.93572 6.45986C7.08089 6.10797 7.02942 5.9203 7.25811 5.9203L14.6192 5.95462C14.7921 5.95463 14.8141 6.22082 14.9311 6.49217L15.4356 7.89761L15.6892 8.64724C16.0053 9.51887 14.9311 9.66046 14.3939 9.66046L7.47524 9.62614C6.93689 9.62614 5.97794 9.64714 6.24783 8.62617L6.5 7.86207ZM6.64819 14.3772C6.49751 14.3749 6.3488 14.3412 6.21086 14.2781C6.07292 14.2151 5.94856 14.1238 5.84515 14.0099C5.74173 13.8959 5.66135 13.7615 5.60878 13.6147C5.55621 13.4678 5.53251 13.3115 5.53909 13.155C5.54567 12.9984 5.58238 12.8449 5.64707 12.7034C5.71175 12.5618 5.80309 12.4353 5.91567 12.3311C6.02825 12.227 6.15979 12.1473 6.30249 12.097C6.44519 12.0467 6.59616 12.0266 6.74646 12.038C7.03872 12.0602 7.31117 12.1999 7.50596 12.4276C7.70076 12.6552 7.80257 12.9528 7.78978 13.2572C7.77699 13.5616 7.65061 13.8488 7.43747 14.058C7.22433 14.2671 6.9412 14.3816 6.64819 14.3772ZM12.9487 13.5141C12.9484 13.6065 12.9129 13.6949 12.85 13.7601C12.7871 13.8252 12.702 13.8618 12.6132 13.8618H9.44869C9.35996 13.8618 9.27483 13.8253 9.21194 13.7602C9.14905 13.6951 9.11351 13.6068 9.1131 13.5145V12.5368C9.1131 12.3445 9.26381 12.189 9.44869 12.189H12.6132C12.798 12.189 12.9487 12.3445 12.9487 12.5364V13.5141ZM15.3624 14.3772C15.2144 14.3774 15.0679 14.3474 14.9311 14.2888C14.7943 14.2301 14.67 14.144 14.5652 14.0354C14.4604 13.9268 14.3772 13.7978 14.3204 13.6558C14.2636 13.5137 14.2342 13.3614 14.234 13.2076C14.2342 13.0537 14.2636 12.9015 14.3204 12.7594C14.3772 12.6174 14.4604 12.4884 14.5652 12.3798C14.67 12.2711 14.7943 12.1851 14.9311 12.1264C15.0679 12.0678 15.2144 12.0377 15.3624 12.038C15.5103 12.0378 15.6568 12.0679 15.7936 12.1265C15.9303 12.1852 16.0546 12.2713 16.1593 12.3799C16.2641 12.4885 16.3472 12.6175 16.404 12.7595C16.4608 12.9015 16.4902 13.0538 16.4904 13.2076C16.4897 13.5181 16.3706 13.8157 16.1591 14.035C15.9476 14.2543 15.6611 14.3774 15.3624 14.3772Z" fill="#3370FF"/>
<rect id="Rectangle 988" x="8.64722" y="11.5042" width="4.70594" height="3.01536" fill="#3370FF"/>
</g>
</g>
</svg>
