<svg width="22" height="22" viewBox="0 0 22 22" fill="none" xmlns="http://www.w3.org/2000/svg">
<g id="&#232;&#161;&#140;&#228;&#184;&#154;&#229;&#136;&#134;&#231;&#177;&#187;/&#230;&#151;&#165;&#231;&#148;&#168;&#229;&#147;&#129;&#229;&#147;&#129;&#231;&#137;&#140;">
<path id="Subtract" fill-rule="evenodd" clip-rule="evenodd" d="M17.0136 5.73439C17.279 5.97477 17.4114 6.23496 17.4114 6.51497C17.4114 6.79498 17.279 7.05518 17.0136 7.29608C16.7481 7.53646 16.3842 7.74608 15.9211 7.92545C15.4581 8.10431 14.9189 8.24457 14.3037 8.34521C13.6884 8.44585 13.0251 8.49642 12.3139 8.49642C11.6026 8.49642 10.9362 8.44585 10.3157 8.34521C9.6947 8.24457 9.15241 8.10431 8.68937 7.92545C8.22686 7.7466 7.85977 7.53594 7.58915 7.29608C7.318 7.05518 7.18243 6.79498 7.18243 6.51497C7.18243 6.23496 7.31487 5.97477 7.58028 5.73439C7.84569 5.49348 8.20965 5.28074 8.67269 5.09615C9.13572 4.91156 9.67749 4.76608 10.2985 4.65971C10.9195 4.55334 11.5854 4.50015 12.2967 4.50015C12.9662 4.49678 13.6348 4.55015 14.2953 4.65971C14.9163 4.76608 15.4581 4.91156 15.9211 5.09615C16.3842 5.28074 16.7481 5.49348 17.0136 5.73439ZM7.18243 11.4514C7.18285 10.2536 7.18841 9.05589 7.19911 7.85819C7.5151 8.10431 7.91661 8.32852 8.40154 8.5298C8.81921 8.6977 9.34742 8.85152 9.98514 8.99179C10.6229 9.13153 11.3935 9.2014 12.2967 9.2014C13.2113 9.2014 13.9903 9.13153 14.6342 8.99179C15.2772 8.85152 15.8085 8.6977 16.2262 8.5298C16.7002 8.32852 17.0954 8.10431 17.4114 7.85819V15.6828C17.4114 15.8398 17.3186 16.0212 17.1319 16.2283C16.9458 16.4358 16.6553 16.6345 16.2601 16.8248C15.8648 17.0151 15.3596 17.1747 14.7443 17.3035C14.129 17.4317 13.3922 17.4964 12.5339 17.4964C11.6647 17.4964 10.8971 17.4401 10.2307 17.328C9.56434 17.2164 9.00588 17.0735 8.55432 16.9004C8.10276 16.7267 7.76122 16.5307 7.5297 16.3127C7.29818 16.0942 7.18243 15.8841 7.18243 15.6828V11.4514ZM3.33789 8.02609H6.36951V15.6828H3.33789L4.65868 11.8545L3.33789 8.02609ZM13.0933 5.9375C12.8171 5.9375 12.5933 6.16136 12.5933 6.4375C12.5933 6.71364 12.8171 6.9375 13.0933 6.9375H15.0933C15.3694 6.9375 15.5933 6.71364 15.5933 6.4375C15.5933 6.16136 15.3694 5.9375 15.0933 5.9375H13.0933Z" fill="#3370FF"/>
</g>
</svg>
