<svg width="74" height="74" viewBox="0 0 74 74" fill="none" xmlns="http://www.w3.org/2000/svg">
<g id="Frame">
<g id="Group 427319322">
<path id="Vector" d="M36.9995 67.8333C32.9488 67.8442 28.9361 67.0516 25.1938 65.5015C21.4514 63.9513 18.0537 61.6743 15.1972 58.8022C12.3251 55.9457 10.0481 52.548 8.49794 48.8056C6.94776 45.0633 6.1552 41.0506 6.16613 36.9999C6.1552 32.9493 6.94776 28.9366 8.49794 25.1943C10.0481 21.4519 12.3251 18.0542 15.1972 15.1977C18.0537 12.3256 21.4514 10.0486 25.1938 8.49843C28.9361 6.94825 32.9488 6.15569 36.9995 6.16662V21.5833C32.9121 21.5878 28.9934 23.2135 26.1032 26.1037C23.213 28.9939 21.5873 32.9126 21.5828 36.9999C21.5873 41.0873 23.213 45.006 26.1032 47.8962C28.9934 50.7864 32.9121 52.4121 36.9995 52.4166C41.0868 52.4121 45.0055 50.7864 47.8957 47.8962C50.7859 45.006 52.4116 41.0873 52.4161 36.9999H67.8328C67.8437 41.0506 67.0512 45.0633 65.501 48.8056C63.9508 52.548 61.6738 55.9457 58.8017 58.8022C55.9452 61.6743 52.5475 63.9513 48.8051 65.5015C45.0628 67.0516 41.0502 67.8442 36.9995 67.8333ZM67.8158 36.0441C67.7727 34.6173 67.6321 33.1952 67.395 31.7876C67.6342 33.195 67.7759 34.6172 67.8189 36.0441H67.8158ZM49.1848 8.65332C46.6236 7.56163 43.9272 6.81959 41.1681 6.4472C43.9263 6.81458 46.6213 7.55681 49.1786 8.65332H49.1848Z" fill="#F0F0F0"/>
<path id="Vector_2" opacity="0.2" d="M52.4167 37.0003C52.4167 32.9116 50.7924 28.9903 47.9012 26.0991C45.01 23.2079 41.0888 21.5837 37 21.5837V6.16699C45.1775 6.16699 53.0201 9.41549 58.8025 15.1979C64.5848 20.9802 67.8333 28.8228 67.8333 37.0003H52.4167Z" fill="#E6E6E6"/>
</g>
</g>
</svg>
