<svg width="23" height="23" viewBox="0 0 23 23" fill="none" xmlns="http://www.w3.org/2000/svg">
<g id="&#228;&#184;&#141;&#229;&#187;&#186;&#232;&#174;&#174;&#229;&#136;&#134;&#231;&#177;&#187;/&#232;&#167;&#134;&#233;&#162;&#145;&#229;&#185;&#179;&#229;&#143;&#176;">
<path id="Subtract" fill-rule="evenodd" clip-rule="evenodd" d="M0.782227 3.09375C0.782227 2.54147 1.22994 2.09375 1.78223 2.09375H16.1409C16.6932 2.09375 17.1409 2.54147 17.1409 3.09375V6.46693L20.5605 5.9197C21.1681 5.82246 21.7185 6.29181 21.7185 6.90713V13.6506C21.7185 14.2659 21.1681 14.7352 20.5605 14.638L17.1409 14.0908V17.4688C17.1409 18.021 16.6932 18.4688 16.1409 18.4688H1.78223C1.22994 18.4688 0.782227 18.021 0.782227 17.4688V3.09375ZM4.03223 13.0156C3.47994 13.0156 3.03223 13.4633 3.03223 14.0156C3.03223 14.5679 3.47994 15.0156 4.03223 15.0156H7.03223C7.58451 15.0156 8.03223 14.5679 8.03223 14.0156C8.03223 13.4633 7.58451 13.0156 7.03223 13.0156H4.03223Z" fill="#3370FF"/>
<g id="Vector" filter="url(#filter0_b_1668_99268)">
<path d="M12.6973 16.8563C12.6973 19.3487 14.7175 21.3669 17.2078 21.3669C19.6982 21.3669 21.7184 19.3467 21.7184 16.8563C21.7184 14.3659 19.6982 12.3438 17.2078 12.3438C14.7175 12.3438 12.6973 14.3639 12.6973 16.8563Z" fill="white" fill-opacity="0.05"/>
</g>
</g>
<defs>
<filter id="filter0_b_1668_99268" x="4.69727" y="4.34375" width="25.0212" height="25.0229" filterUnits="userSpaceOnUse" color-interpolation-filters="sRGB">
<feFlood flood-opacity="0" result="BackgroundImageFix"/>
<feGaussianBlur in="BackgroundImageFix" stdDeviation="4"/>
<feComposite in2="SourceAlpha" operator="in" result="effect1_backgroundBlur_1668_99268"/>
<feBlend mode="normal" in="SourceGraphic" in2="effect1_backgroundBlur_1668_99268" result="shape"/>
</filter>
</defs>
</svg>
