<svg width="22" height="22" viewBox="0 0 22 22" fill="none" xmlns="http://www.w3.org/2000/svg">
<g id="&#232;&#161;&#140;&#228;&#184;&#154;&#229;&#136;&#134;&#231;&#177;&#187;/&#230;&#137;&#139;&#230;&#156;&#186;&#231;&#148;&#181;&#232;&#132;&#145;">
<g id="Group 427319209">
<path id="Subtract" fill-rule="evenodd" clip-rule="evenodd" d="M4.71405 4.78125H17.2864C17.6007 4.78125 17.8579 5.03841 17.8579 5.35272V14.2105C17.8579 14.5248 17.6007 14.782 17.2864 14.782H4.71405C4.39974 14.782 4.14258 14.5248 4.14258 14.2105V5.35272C4.14258 5.03841 4.39974 4.78125 4.71405 4.78125ZM13.8909 8.76844C14.0214 8.61209 14.0371 8.33668 13.9257 8.15328C13.8144 7.96988 13.6183 7.94795 13.4877 8.1043L11.8765 10.0334L9.87138 8.43849C9.75604 8.34675 9.61197 8.36787 9.51261 8.49108L8.10506 10.2365C7.97643 10.396 7.96422 10.6718 8.0778 10.8524C8.19137 11.0331 8.38772 11.0502 8.51635 10.8907L9.75787 9.35118L11.7595 10.9433C11.8731 11.0337 12.0148 11.0147 12.1141 10.8957L13.8909 8.76844Z" fill="#3370FF"/>
<rect id="Rectangle 992" x="7.25" y="16.2188" width="7.5" height="1" rx="0.5" fill="#3370FF"/>
</g>
</g>
</svg>
