<svg width="23" height="23" viewBox="0 0 23 23" fill="none" xmlns="http://www.w3.org/2000/svg">
<g id="&#228;&#184;&#141;&#229;&#187;&#186;&#232;&#174;&#174;&#229;&#136;&#134;&#231;&#177;&#187;/&#232;&#148;&#172;&#232;&#143;&#156;&#230;&#176;&#180;&#230;&#158;&#156;&#229;&#144;&#141;&#231;&#167;&#176;">
<path id="Vector" d="M16.98 14.6158C16.2694 14.6158 15.6048 14.4567 15.0117 14.1889C13.944 15.0096 13.1552 15.9547 12.5968 16.9047V15.0754C12.1341 15.1986 11.6439 15.2651 11.1357 15.2651C10.8869 15.2651 10.6442 15.2441 10.4052 15.2133V16.9047C9.94358 16.1196 9.32879 15.3352 8.52953 14.622C8.20261 14.4482 7.89602 14.2471 7.62115 14.0156C6.98102 14.3738 6.22993 14.5852 5.42383 14.6071C6.13314 15.0078 9.67465 17.2368 9.67465 21.8399H13.3273C13.3273 17.0652 17.1465 14.8393 17.6528 14.5651C17.433 14.5953 17.2095 14.6158 16.98 14.6158Z" fill="#1375FF"/>
<path id="Subtract" fill-rule="evenodd" clip-rule="evenodd" d="M19.9022 7.47439C19.9022 7.58694 19.8938 7.69766 19.8833 7.8077C20.7891 8.52157 21.3633 9.56076 21.3633 10.7214C21.3633 12.8733 19.4009 14.6177 16.98 14.6177C16.1228 14.6177 15.3258 14.3956 14.6503 14.0175C13.7337 14.79 12.4987 15.267 11.1357 15.267C9.77283 15.267 8.53776 14.79 7.62117 14.0175C6.94565 14.3958 6.14868 14.6177 5.29143 14.6177C2.87061 14.6177 0.908203 12.8733 0.908203 10.7214C0.908203 9.56076 1.48236 8.52157 2.38823 7.80792C2.37773 7.69789 2.36928 7.58716 2.36928 7.47462C2.36928 5.32272 4.33169 3.57833 6.75251 3.57833C6.79095 3.57833 6.82868 3.58061 6.86642 3.58288C6.88965 3.58428 6.91289 3.58568 6.93629 3.58655C7.85973 2.25811 9.39523 1.38672 11.1357 1.38672C12.8763 1.38672 14.4118 2.25811 15.3352 3.58655C15.3586 3.58568 15.3818 3.58428 15.4051 3.58288C15.4428 3.58061 15.4805 3.57833 15.519 3.57833C17.9398 3.57833 19.9022 5.32272 19.9022 7.47439ZM12.6049 7.39745C13.1355 7.55065 13.6898 7.24469 13.843 6.71408C13.9962 6.18347 13.6902 5.62913 13.1596 5.47594C12.0372 5.15187 10.9606 5.22241 10.0596 5.81305C9.42438 6.22941 8.96573 6.84671 8.64227 7.57082C7.71858 7.48243 6.85003 7.63051 6.13634 8.06459C5.15659 8.6605 4.64292 9.6906 4.64269 10.888C4.64258 11.4403 5.09021 11.8881 5.6425 11.8882C6.19478 11.8883 6.64258 11.4407 6.64269 10.8884C6.64281 10.2916 6.87114 9.95855 7.17564 9.77335C7.51974 9.56406 8.13736 9.4405 9.05706 9.66684C9.57814 9.79508 10.1076 9.48917 10.2567 8.97367C10.4967 8.14358 10.832 7.69809 11.156 7.48571C11.4503 7.2928 11.8899 7.19104 12.6049 7.39745Z" fill="#1375FF"/>
<g id="Vector_2" filter="url(#filter0_b_1668_99189)">
<path d="M11.251 16.6718C11.251 19.4658 13.5156 21.7281 16.3073 21.7281C19.099 21.7281 21.3636 19.4635 21.3636 16.6718C21.3636 13.8801 19.099 11.6133 16.3073 11.6133C13.5156 11.6133 11.251 13.8779 11.251 16.6718Z" fill="white" fill-opacity="0.05"/>
</g>
</g>
<defs>
<filter id="filter0_b_1668_99189" x="3.25098" y="3.61328" width="26.1127" height="26.1147" filterUnits="userSpaceOnUse" color-interpolation-filters="sRGB">
<feFlood flood-opacity="0" result="BackgroundImageFix"/>
<feGaussianBlur in="BackgroundImageFix" stdDeviation="4"/>
<feComposite in2="SourceAlpha" operator="in" result="effect1_backgroundBlur_1668_99189"/>
<feBlend mode="normal" in="SourceGraphic" in2="effect1_backgroundBlur_1668_99189" result="shape"/>
</filter>
</defs>
</svg>
