<svg width="23" height="23" viewBox="0 0 23 23" fill="none" xmlns="http://www.w3.org/2000/svg">
<g id="&#228;&#184;&#141;&#229;&#187;&#186;&#232;&#174;&#174;&#229;&#136;&#134;&#231;&#177;&#187;/&#232;&#161;&#140;&#228;&#184;&#154;&#230;&#136;&#150;&#228;&#186;&#167;&#229;&#147;&#129;&#233;&#128;&#154;&#231;&#148;&#168;&#232;&#175;&#141;">
<path id="Vector" d="M11.4777 9.864C11.2186 9.97921 11.2876 9.99802 10.972 9.85694L2.52658 5.90911C2.45763 5.83622 2.41793 5.73512 2.41375 5.62931C2.41166 5.5235 2.4451 5.42004 2.51196 5.34245L10.7464 1.39932C10.9324 1.30056 11.1246 1.24649 11.4652 1.40402L19.8542 5.27191C19.9984 5.42945 20.0046 5.68574 19.8709 5.84092L11.4777 9.864ZM11.7326 20.6141C11.7326 20.854 11.906 21.0491 12.1212 21.0491L20.1614 16.3324C20.4748 16.1114 20.5479 15.7211 20.5479 15.1544V7.19527C20.5479 7.08006 20.5082 6.96955 20.4351 6.88725C20.3619 6.80496 20.2637 6.76028 20.1614 6.76028L12.1191 10.5576C11.7305 10.7269 11.7305 10.9503 11.7305 11.1901L11.7326 20.6141ZM10.3807 10.5576L2.34062 6.76028C2.23824 6.76028 2.14004 6.80496 2.06691 6.88725C1.99378 6.96955 1.95408 7.08006 1.95408 7.19527V16.3442C1.95408 16.4406 1.90184 16.5817 2.34062 16.7792L10.3807 21.0515C10.5939 21.0515 10.7673 20.8563 10.7673 20.6165V11.1901C10.7673 10.9503 10.7673 10.7269 10.3807 10.5576Z" fill="#3370FF"/>
<g id="Rectangle 993" filter="url(#filter0_b_1668_94936)">
<path d="M14.4375 16.3326C14.4375 15.9438 14.6628 15.5903 15.0151 15.4261L20.8276 12.7175C21.4905 12.4086 22.25 12.8926 22.25 13.6239V18.7729C22.25 19.1616 22.0247 19.5151 21.6724 19.6793L15.8599 22.3879C15.197 22.6969 14.4375 22.2129 14.4375 21.4815V16.3326Z" fill="white" fill-opacity="0.05"/>
</g>
</g>
<defs>
<filter id="filter0_b_1668_94936" x="6.4375" y="4.62256" width="23.8125" height="25.8604" filterUnits="userSpaceOnUse" color-interpolation-filters="sRGB">
<feFlood flood-opacity="0" result="BackgroundImageFix"/>
<feGaussianBlur in="BackgroundImageFix" stdDeviation="4"/>
<feComposite in2="SourceAlpha" operator="in" result="effect1_backgroundBlur_1668_94936"/>
<feBlend mode="normal" in="SourceGraphic" in2="effect1_backgroundBlur_1668_94936" result="shape"/>
</filter>
</defs>
</svg>
