<svg width="70" height="14" viewBox="0 0 70 14" fill="none" xmlns="http://www.w3.org/2000/svg">
<path id="TOP500" d="M0.134 2.11L0.368 0.129999H11.042L10.808 2.11H6.47L5.084 13.648H2.96L4.346 2.11H0.134ZM19.0122 0.0579993C20.5962 0.0699991 21.7602 0.417999 22.5042 1.102C23.2482 1.774 23.6202 2.836 23.6202 4.288C23.6202 4.66 23.5902 5.116 23.5302 5.656L23.2602 8.122C22.9962 10.078 22.3962 11.5 21.4602 12.388C20.5242 13.264 19.1442 13.708 17.3202 13.72H15.9882C14.4042 13.708 13.2402 13.366 12.4962 12.694C11.7522 12.022 11.3802 10.966 11.3802 9.526C11.3802 9.154 11.4102 8.686 11.4702 8.122L11.7402 5.656C11.9922 3.7 12.5862 2.284 13.5222 1.408C14.4702 0.519999 15.8562 0.0699991 17.6802 0.0579993H19.0122ZM13.5762 8.23C13.5282 8.71 13.5042 9.046 13.5042 9.238C13.5042 10.114 13.7082 10.75 14.1162 11.146C14.5362 11.53 15.2202 11.728 16.1682 11.74H17.6082C18.7002 11.728 19.5102 11.452 20.0382 10.912C20.5782 10.36 20.9322 9.466 21.1002 8.23L21.4242 5.548C21.4722 5.068 21.4962 4.732 21.4962 4.54C21.4962 3.664 21.2862 3.034 20.8662 2.65C20.4582 2.254 19.7802 2.05 18.8322 2.038H17.3922C16.3002 2.05 15.4842 2.332 14.9442 2.884C14.4162 3.424 14.0682 4.312 13.9002 5.548L13.5762 8.23ZM32.3782 0.129999C33.6262 0.141999 34.5862 0.441999 35.2582 1.03C35.9422 1.606 36.2842 2.44 36.2842 3.532C36.2842 3.832 36.2722 4.066 36.2482 4.234L36.1402 5.152C35.9722 6.472 35.4682 7.486 34.6282 8.194C33.7882 8.89 32.6662 9.244 31.2622 9.256H27.5902L27.0502 13.648H24.9262L26.5822 0.129999H32.3782ZM31.5502 7.276C32.2942 7.264 32.8642 7.102 33.2602 6.79C33.6562 6.466 33.9022 5.956 33.9982 5.26L34.1422 4.162C34.1542 4.078 34.1602 3.964 34.1602 3.82C34.1602 3.232 33.9982 2.806 33.6742 2.542C33.3622 2.266 32.8702 2.122 32.1982 2.11H28.4722L27.8242 7.276H31.5502ZM37.7194 7.276V7.258L38.6014 0.129999H45.7654L45.5314 2.11H40.4914L40.0954 5.35H41.3554C44.1514 5.35 45.5494 6.382 45.5494 8.446C45.5494 8.674 45.5434 8.842 45.5314 8.95L45.4054 10.246C45.2494 11.422 44.7454 12.286 43.8934 12.838C43.0534 13.378 41.8234 13.648 40.2034 13.648C39.1954 13.648 38.1274 13.576 36.9994 13.432L37.2514 11.452C37.8754 11.524 38.4094 11.578 38.8534 11.614C39.2974 11.65 39.8254 11.668 40.4374 11.668C41.3974 11.668 42.0874 11.542 42.5074 11.29C42.9394 11.038 43.1914 10.63 43.2634 10.066L43.3714 9.13C43.4194 8.482 43.2694 8.014 42.9214 7.726C42.5734 7.438 41.9554 7.288 41.0674 7.276H37.7194ZM53.6116 0.0579993C54.9436 0.0699991 55.9336 0.405999 56.5816 1.066C57.2416 1.726 57.5716 2.74 57.5716 4.108C57.5716 4.456 57.5416 4.888 57.4816 5.404L57.1216 8.374C56.8936 10.198 56.3476 11.542 55.4836 12.406C54.6316 13.27 53.4436 13.708 51.9196 13.72H51.1996C49.8556 13.708 48.8536 13.378 48.1936 12.73C47.5456 12.082 47.2216 11.068 47.2216 9.688C47.2216 9.328 47.2516 8.89 47.3116 8.374L47.6716 5.404C48.1276 1.864 49.8976 0.0819997 52.9816 0.0579993H53.6116ZM49.4356 8.374C49.3876 8.722 49.3636 9.082 49.3636 9.454C49.3636 10.246 49.5196 10.822 49.8316 11.182C50.1556 11.542 50.6896 11.728 51.4336 11.74H52.1716C53.0236 11.728 53.6656 11.476 54.0976 10.984C54.5296 10.48 54.8236 9.61 54.9796 8.374L55.3576 5.404C55.4056 5.056 55.4296 4.69 55.4296 4.306C55.4296 3.514 55.2676 2.944 54.9436 2.596C54.6196 2.236 54.0916 2.05 53.3596 2.038H52.6216C52.0456 2.05 51.5716 2.164 51.1996 2.38C50.8276 2.584 50.5276 2.932 50.2996 3.424C50.0836 3.904 49.9216 4.564 49.8136 5.404L49.4356 8.374ZM65.512 0.0579993C66.844 0.0699991 67.834 0.405999 68.482 1.066C69.142 1.726 69.472 2.74 69.472 4.108C69.472 4.456 69.442 4.888 69.382 5.404L69.022 8.374C68.794 10.198 68.248 11.542 67.384 12.406C66.532 13.27 65.344 13.708 63.82 13.72H63.1C61.756 13.708 60.754 13.378 60.094 12.73C59.446 12.082 59.122 11.068 59.122 9.688C59.122 9.328 59.152 8.89 59.212 8.374L59.572 5.404C60.028 1.864 61.798 0.0819997 64.882 0.0579993H65.512ZM61.336 8.374C61.288 8.722 61.264 9.082 61.264 9.454C61.264 10.246 61.42 10.822 61.732 11.182C62.056 11.542 62.59 11.728 63.334 11.74H64.072C64.924 11.728 65.566 11.476 65.998 10.984C66.43 10.48 66.724 9.61 66.88 8.374L67.258 5.404C67.306 5.056 67.33 4.69 67.33 4.306C67.33 3.514 67.168 2.944 66.844 2.596C66.52 2.236 65.992 2.05 65.26 2.038H64.522C63.946 2.05 63.472 2.164 63.1 2.38C62.728 2.584 62.428 2.932 62.2 3.424C61.984 3.904 61.822 4.564 61.714 5.404L61.336 8.374Z" fill="url(#paint0_linear_286_101304)"/>
<defs>
<linearGradient id="paint0_linear_286_101304" x1="74.1362" y1="33.3105" x2="-4.9873" y2="29.0401" gradientUnits="userSpaceOnUse">
<stop stop-color="#FA8214"/>
<stop offset="1" stop-color="#FAC714"/>
</linearGradient>
</defs>
</svg>
