<svg width="22" height="22" viewBox="0 0 22 22" fill="none" xmlns="http://www.w3.org/2000/svg">
<g id="&#232;&#161;&#140;&#228;&#184;&#154;&#229;&#136;&#134;&#231;&#177;&#187;/&#229;&#141;&#171;&#231;&#148;&#159;&#228;&#191;&#157;&#229;&#129;&#165;&#229;&#147;&#129;&#229;&#147;&#129;&#231;&#137;&#140;">
<g id="Group 427319211">
<path id="Subtract" fill-rule="evenodd" clip-rule="evenodd" d="M10.9995 2.00784C8.5631 2.00784 6.58798 3.98295 6.58798 6.41939L6.58798 15.5954C6.58798 18.0318 8.5631 20.007 10.9995 20.007C13.436 20.007 15.4111 18.0318 15.4111 15.5954L15.4111 11.0077L6.58885 11.0077L6.58885 9.59604L15.4111 9.59604L15.4111 6.41939C15.4111 3.98295 13.436 2.00784 10.9995 2.00784ZM11.9508 13.6662C11.5609 13.6662 11.2449 13.9822 11.2449 14.3721C11.2449 14.7619 11.5609 15.0779 11.9508 15.0779L12.9213 15.0779C13.3111 15.0779 13.6272 14.7619 13.6272 14.3721C13.6272 13.9822 13.3111 13.6662 12.9213 13.6662L11.9508 13.6662ZM9.14843 16.6461C9.14843 16.2563 9.46445 15.9403 9.85428 15.9403L10.8248 15.9403C11.2146 15.9403 11.5307 16.2563 11.5307 16.6461C11.5307 17.0359 11.2146 17.352 10.8248 17.352L9.85428 17.352C9.46445 17.352 9.14843 17.0359 9.14843 16.6461Z" fill="#3370FF"/>
</g>
</g>
</svg>
