<svg width="22" height="22" viewBox="0 0 22 22" fill="none" xmlns="http://www.w3.org/2000/svg">
<g id="&#232;&#161;&#140;&#228;&#184;&#154;&#229;&#136;&#134;&#231;&#177;&#187;/&#233;&#166;&#153;&#230;&#176;&#180;&#229;&#147;&#129;&#231;&#137;&#140;">
<g id="Group 427319206">
<path id="Subtract" fill-rule="evenodd" clip-rule="evenodd" d="M4.49463 9.63672C4.49463 9.08444 4.94234 8.63672 5.49463 8.63672H16.5053C17.0576 8.63672 17.5053 9.08443 17.5053 9.63672V16.7483C17.5053 17.3006 17.0576 17.7483 16.5053 17.7483H5.49463C4.94234 17.7483 4.49463 17.3006 4.49463 16.7483V9.63672ZM9.16162 12.3282C9.16162 12.0887 9.35579 11.8945 9.59531 11.8945H12.8163C13.0558 11.8945 13.25 12.0887 13.25 12.3282C13.25 12.5677 13.0558 12.7619 12.8163 12.7619H9.59531C9.35579 12.7619 9.16162 12.5677 9.16162 12.3282ZM8.64658 13.8984C8.40706 13.8984 8.21289 14.0926 8.21289 14.3321C8.21289 14.5716 8.40706 14.7658 8.64658 14.7658H13.7648C14.0043 14.7658 14.1985 14.5716 14.1985 14.3321C14.1985 14.0926 14.0043 13.8984 13.7648 13.8984H8.64658Z" fill="#3370FF"/>
<rect id="Rectangle 994" width="6.40271" height="3.5297" rx="1" transform="matrix(1 0 0 -1 8.00391 10.4062)" fill="#3370FF"/>
<rect id="Rectangle 995" x="9.80981" y="4.25" width="2.79093" height="3.69387" rx="1" fill="#3370FF"/>
<path id="Polygon 14" d="M11.5561 6.97171C11.458 6.94478 11.458 6.80578 11.5561 6.77886L15.036 5.82277C15.3543 5.73532 15.6685 5.97483 15.6685 6.3049L15.6685 7.44567C15.6685 7.77574 15.3543 8.01524 15.036 7.9278L11.5561 6.97171Z" fill="#3370FF"/>
<path id="Polygon 15" d="M10.8541 6.97171C10.9521 6.94478 10.9521 6.80578 10.8541 6.77886L7.37411 5.82277C7.05583 5.73532 6.74165 5.97483 6.74165 6.3049L6.74165 7.44567C6.74165 7.77574 7.05583 8.01524 7.37411 7.9278L10.8541 6.97171Z" fill="#3370FF"/>
</g>
</g>
</svg>
