<svg width="23" height="23" viewBox="0 0 23 23" fill="none" xmlns="http://www.w3.org/2000/svg">
<g id="&#228;&#184;&#141;&#229;&#187;&#186;&#232;&#174;&#174;&#229;&#136;&#134;&#231;&#177;&#187;/&#232;&#130;&#150;&#229;&#131;&#143;">
<path id="Vector" d="M3.32567 5.39799C3.32567 3.2063 5.13856 1.42969 7.37506 1.42969C9.61263 1.42969 11.4255 3.2063 11.4255 5.39799C11.4255 7.58968 9.61157 9.36629 7.37506 9.36629C5.13856 9.36629 3.32567 7.58968 3.32567 5.39799ZM8.89239 16.3415V16.0673C8.89239 14.0442 9.90791 12.3049 11.4978 11.2571C10.7796 10.9093 9.96726 10.7885 9.08445 10.6894C9.08445 10.6894 8.03133 10.6011 7.37506 10.6011C6.7188 10.6011 5.78955 10.6894 5.78955 10.6894C2.93468 11.0306 0.625 12.9835 0.625 15.8144V16.1452C0.625 17.3029 2.96714 17.3029 5.85667 17.3029H9.08445C8.95311 16.9996 8.88764 16.6719 8.89239 16.3415ZM15.0825 4.12608C13.227 4.12608 11.7214 5.60073 11.7214 7.42002C11.7214 9.23932 13.227 10.714 15.0825 10.714C16.9392 10.714 18.4437 9.23932 18.4437 7.42002C18.4437 5.60073 16.9402 4.12608 15.0825 4.12608ZM15.0825 4.12608C13.227 4.12608 11.7214 5.60073 11.7214 7.42002C11.7214 9.23932 13.227 10.714 15.0825 10.714C16.9392 10.714 18.4437 9.23932 18.4437 7.42002C18.4437 5.60073 16.9402 4.12608 15.0825 4.12608ZM13.8234 11.813C11.4247 11.813 9.84375 13.7177 9.84375 16.0673V16.3415C9.92969 17.3594 11.4247 17.3018 13.8234 17.3018H16.6255C19.0231 17.3018 20.9662 17.2666 20.9662 16.3415V16.0673C20.9662 13.7177 19.0231 11.813 16.6255 11.813H13.8234Z" fill="#1375FF"/>
<g id="Vector_2" filter="url(#filter0_b_1668_99224)">
<path d="M11.876 16.2379C11.876 19.0317 14.1405 21.2939 16.932 21.2939C19.7235 21.2939 21.988 19.0294 21.988 16.2379C21.988 13.4464 19.7235 11.1797 16.932 11.1797C14.1405 11.1797 11.876 13.4442 11.876 16.2379Z" fill="white" fill-opacity="0.05"/>
</g>
</g>
<defs>
<filter id="filter0_b_1668_99224" x="3.87598" y="3.17969" width="26.1121" height="26.1143" filterUnits="userSpaceOnUse" color-interpolation-filters="sRGB">
<feFlood flood-opacity="0" result="BackgroundImageFix"/>
<feGaussianBlur in="BackgroundImageFix" stdDeviation="4"/>
<feComposite in2="SourceAlpha" operator="in" result="effect1_backgroundBlur_1668_99224"/>
<feBlend mode="normal" in="SourceGraphic" in2="effect1_backgroundBlur_1668_99224" result="shape"/>
</filter>
</defs>
</svg>
