<svg width="23" height="23" viewBox="0 0 23 23" fill="none" xmlns="http://www.w3.org/2000/svg">
<g id="&#228;&#184;&#141;&#229;&#187;&#186;&#232;&#174;&#174;&#229;&#136;&#134;&#231;&#177;&#187;/&#232;&#161;&#140;&#228;&#184;&#154;&#230;&#136;&#150;&#228;&#186;&#167;&#229;&#147;&#129;&#233;&#128;&#154;&#231;&#148;&#168;&#232;&#175;&#141;">
<path id="Vector" d="M11.4777 10.2976C11.2186 10.4128 11.2876 10.4316 10.972 10.2905L2.52658 6.3427C2.45763 6.26981 2.41793 6.16871 2.41375 6.0629C2.41166 5.95709 2.4451 5.85363 2.51196 5.77604L10.7464 1.83291C10.9324 1.73416 11.1246 1.68008 11.4652 1.83762L19.8542 5.7055C19.9984 5.86304 20.0046 6.11933 19.8709 6.27452L11.4777 10.2976ZM11.7326 21.0477C11.7326 21.2876 11.906 21.4827 12.1212 21.4827L20.1614 16.766C20.4748 16.545 20.5479 16.1547 20.5479 15.588V7.62887C20.5479 7.51365 20.5082 7.40314 20.4351 7.32085C20.3619 7.23855 20.2637 7.19388 20.1614 7.19388L12.1191 10.9912C11.7305 11.1605 11.7305 11.3839 11.7305 11.6237L11.7326 21.0477ZM10.3807 10.9912L2.34062 7.19388C2.23824 7.19388 2.14004 7.23855 2.06691 7.32085C1.99378 7.40314 1.95408 7.51365 1.95408 7.62887V16.7778C1.95408 16.8742 1.90184 17.0153 2.34062 17.2128L10.3807 21.4851C10.5939 21.4851 10.7673 21.2899 10.7673 21.0501V11.6237C10.7673 11.3839 10.7673 11.1605 10.3807 10.9912Z" fill="#3370FF"/>
<g id="Rectangle 993" filter="url(#filter0_b_1668_99120)">
<path d="M14.4375 16.7662C14.4375 16.3774 14.6628 16.0239 15.0151 15.8597L20.8276 13.1511C21.4905 12.8422 22.25 13.3261 22.25 14.0575V19.2065C22.25 19.5952 22.0247 19.9487 21.6724 20.1129L15.8599 22.8215C15.197 23.1305 14.4375 22.6465 14.4375 21.9151V16.7662Z" fill="white" fill-opacity="0.05"/>
</g>
</g>
<defs>
<filter id="filter0_b_1668_99120" x="6.4375" y="5.05615" width="23.8125" height="25.8604" filterUnits="userSpaceOnUse" color-interpolation-filters="sRGB">
<feFlood flood-opacity="0" result="BackgroundImageFix"/>
<feGaussianBlur in="BackgroundImageFix" stdDeviation="4"/>
<feComposite in2="SourceAlpha" operator="in" result="effect1_backgroundBlur_1668_99120"/>
<feBlend mode="normal" in="SourceGraphic" in2="effect1_backgroundBlur_1668_99120" result="shape"/>
</filter>
</defs>
</svg>
