<svg width="22" height="22" viewBox="0 0 22 22" fill="none" xmlns="http://www.w3.org/2000/svg">
<g id="&#232;&#161;&#140;&#228;&#184;&#154;&#229;&#136;&#134;&#231;&#177;&#187;/&#231;&#137;&#153;&#232;&#134;&#143;&#229;&#147;&#129;&#231;&#137;&#140;">
<g id="Group 427319207">
<path id="Subtract" fill-rule="evenodd" clip-rule="evenodd" d="M6.89155 18.5417H14.1743C14.8802 18.5417 15.4376 18.105 15.4376 17.5864L14.2857 6.85006C14.2857 6.33148 13.6912 5.89478 12.9852 5.89478H8.0434C7.33743 5.89478 6.74292 6.30419 6.74292 6.82277L5.59106 17.5864C5.59106 18.105 6.18557 18.5417 6.89155 18.5417ZM8.02857 15.7703C8.02857 16.3226 8.4763 16.7703 9.02859 16.7703H12.0287C12.581 16.7703 13.0287 16.3226 13.0287 15.7703C13.0287 15.218 12.581 14.7702 12.0287 14.7702H9.02859C8.47629 14.7702 8.02857 15.218 8.02857 15.7703Z" fill="#3370FF"/>
<rect id="Rectangle 1020" x="8.20166" y="4" width="4.7052" height="3.78342" rx="1" fill="#3370FF"/>
</g>
</g>
</svg>
