<svg width="22" height="22" viewBox="0 0 22 22" fill="none" xmlns="http://www.w3.org/2000/svg">
<g id="&#232;&#161;&#140;&#228;&#184;&#154;&#229;&#136;&#134;&#231;&#177;&#187;/&#231;&#156;&#188;&#233;&#149;&#156;&#229;&#147;&#129;&#231;&#137;&#140;">
<g id="Group 427319210">
<path id="Subtract" fill-rule="evenodd" clip-rule="evenodd" d="M12.8206 16.875H18.2684C18.5999 16.875 18.8684 16.6065 18.8684 16.275V12.4359C18.8684 12.1044 18.5999 11.8359 18.2684 11.8359H12.8206C12.4892 11.8359 12.2207 12.1044 12.2207 12.4359V16.275C12.2207 16.6065 12.4892 16.875 12.8206 16.875ZM3.73179 16.875H9.17959C9.51105 16.875 9.77955 16.6065 9.77955 16.275V12.4359C9.77955 12.1044 9.51105 11.8359 9.17959 11.8359H3.73179C3.40034 11.8359 3.13184 12.1044 3.13184 12.4359V16.275C3.13184 16.6065 3.40034 16.875 3.73179 16.875ZM15.3125 12.9844C15.0364 12.9844 14.8125 13.2082 14.8125 13.4844C14.8125 13.7605 15.0364 13.9844 15.3125 13.9844H17.3125C17.5886 13.9844 17.8125 13.7605 17.8125 13.4844C17.8125 13.2082 17.5886 12.9844 17.3125 12.9844H15.3125Z" fill="#3370FF"/>
</g>
<path id="Vector 89" d="M4 12.5L5.5 6.5L7.5 6" stroke="#3370FF" stroke-linecap="round" stroke-linejoin="round"/>
<path id="Vector 90" d="M17.9688 12.5L16.4688 6.5L14.4688 6" stroke="#3370FF" stroke-linecap="round" stroke-linejoin="round"/>
<path id="Ellipse 186" d="M13.75 11.8359C13.75 13.2274 12.5468 14.3555 11.0625 14.3555C9.57823 14.3555 8.0625 13.2274 8.0625 11.8359" stroke="#3370FF"/>
</g>
</svg>
