<svg width="22" height="22" viewBox="0 0 22 22" fill="none" xmlns="http://www.w3.org/2000/svg">
<g id="&#232;&#161;&#140;&#228;&#184;&#154;&#229;&#136;&#134;&#231;&#177;&#187;/&#231;&#131;&#159;&#233;&#133;&#146;&#231;&#177;&#187;">
<path id="Vector" d="M8.27279 6.11564C8.79814 6.28779 9.25887 6.64152 9.58648 7.12424C9.91409 7.60696 10.0911 8.19288 10.0911 8.79491V11H5.00033V8.79491C5.00044 8.19299 5.17742 7.60718 5.50496 7.12454C5.83251 6.6419 6.29312 6.2882 6.81836 6.116V4.2H8.27246L8.27279 6.11564ZM8.27279 3.8H6.81836V3.47055C6.81836 3.21055 7.01043 3 7.24687 3H7.84428C8.08105 3 8.27279 3.21091 8.27279 3.47055V3.8ZM10.0911 11.8V18.0589C10.0911 18.3085 10.0009 18.5479 9.84013 18.7244C9.67941 18.9008 9.46142 19 9.23413 19H5.85736C5.74478 19 5.6333 18.9757 5.52928 18.9285C5.42527 18.8812 5.33075 18.8119 5.25113 18.7245C5.17152 18.6371 5.10836 18.5333 5.06527 18.4191C5.02218 18.3049 5 18.1825 5 18.0589V11.8H10.0911ZM17 12.2H11.1816V11.1411C11.1816 11.0175 11.2038 10.8951 11.2469 10.7809C11.29 10.6667 11.3532 10.5629 11.4328 10.4755C11.5124 10.3881 11.6069 10.3188 11.7109 10.2715C11.8149 10.2243 11.9264 10.2 12.039 10.2H16.1426C16.2552 10.2 16.3667 10.2243 16.4707 10.2715C16.5747 10.3188 16.6692 10.3881 16.7489 10.4755C16.8285 10.5629 16.8916 10.6667 16.9347 10.7809C16.9778 10.8951 17 11.0175 17 11.1411V12.2ZM17 13V18.0589C17 18.1825 16.9778 18.3049 16.9347 18.4191C16.8916 18.5333 16.8285 18.6371 16.7489 18.7245C16.6692 18.8119 16.5747 18.8812 16.4707 18.9285C16.3667 18.9757 16.2552 19 16.1426 19H12.039C11.8117 19 11.5937 18.9008 11.433 18.7244C11.2723 18.5479 11.182 18.3085 11.182 18.0589V13H17ZM14.6097 15.4385C14.576 15.4014 14.5359 15.372 14.4918 15.3519C14.4477 15.3318 14.4004 15.3214 14.3526 15.3214C14.3048 15.3214 14.2575 15.3318 14.2134 15.3519C14.1693 15.372 14.1292 15.4014 14.0955 15.4385L12.5493 17.1367C12.4834 17.2121 12.447 17.3129 12.448 17.4174C12.4489 17.5219 12.4872 17.6218 12.5545 17.6957C12.6218 17.7696 12.7129 17.8115 12.8081 17.8126C12.9032 17.8136 12.995 17.7735 13.0636 17.7011L14.6101 16.0033C14.6439 15.9662 14.6707 15.9222 14.689 15.8738C14.7073 15.8253 14.7167 15.7734 14.7167 15.7209C14.7167 15.6685 14.7073 15.6165 14.689 15.5681C14.6707 15.5196 14.6435 15.4756 14.6097 15.4385ZM15.2538 14.7313C15.1852 14.6579 15.093 14.6172 14.9972 14.6179C14.9015 14.6186 14.8098 14.6608 14.7421 14.7352C14.6744 14.8095 14.6361 14.9102 14.6355 15.0154C14.6349 15.1206 14.672 15.2218 14.7389 15.2971L15.125 14.8731C15.1936 14.9465 15.2858 14.9872 15.3816 14.9864C15.4774 14.9857 15.569 14.9436 15.6367 14.8692C15.7045 14.7948 15.7428 14.6941 15.7434 14.589C15.744 14.4838 15.7068 14.3826 15.64 14.3073L15.2538 14.7313Z" fill="#3370FF"/>
</g>
</svg>
