<svg width="22" height="22" viewBox="0 0 22 22" fill="none" xmlns="http://www.w3.org/2000/svg">
<g id="&#232;&#161;&#140;&#228;&#184;&#154;&#229;&#136;&#134;&#231;&#177;&#187;/&#233;&#165;&#174;&#230;&#150;&#153;&#229;&#147;&#129;&#231;&#137;&#140;">
<g id="Group 427319213">
<path id="Union" d="M14.5707 7.71301C14.8334 8.36987 14.3496 9.0844 13.6422 9.0844L7.10768 9.0844C6.40021 9.0844 5.91645 8.36987 6.1792 7.71301L6.71266 6.37934C6.86453 5.99968 7.23224 5.75073 7.64114 5.75073L13.1087 5.75073C13.5176 5.75073 13.8853 5.99968 14.0372 6.37934L14.5707 7.71301Z" fill="#3370FF"/>
<path id="Subtract" fill-rule="evenodd" clip-rule="evenodd" d="M6.76064 7.75195C6.16027 7.75195 5.69523 8.27725 5.76802 8.87319L6.85721 17.7909C6.91848 18.2926 7.34443 18.6697 7.84983 18.6697H12.9009C13.4063 18.6697 13.8322 18.2926 13.8935 17.7909L14.9827 8.87319C15.0555 8.27725 14.5904 7.75195 13.9901 7.75195H6.76064ZM8.64619 16.5428C8.64619 16.911 8.9447 17.2095 9.31292 17.2095H11.4381C11.8064 17.2095 12.1049 16.911 12.1049 16.5428C12.1049 16.1746 11.8064 15.8761 11.4381 15.8761H9.31292C8.9447 15.8761 8.64619 16.1746 8.64619 16.5428Z" fill="#3370FF"/>
<path id="Rectangle 1016" d="M4.62451 8.41869C4.62451 8.05046 4.92302 7.75195 5.29124 7.75195H15.4583C15.8265 7.75195 16.125 8.05046 16.125 8.41869C16.125 8.78691 15.8265 9.08542 15.4583 9.08542H5.29124C4.92302 9.08542 4.62451 8.78691 4.62451 8.41869Z" fill="#3370FF"/>
<path id="Rectangle 1018" d="M14.2365 3.33447H11.9297C11.3774 3.33447 10.9297 3.78219 10.9297 4.33447V8.33497" stroke="#3370FF" stroke-linecap="round"/>
</g>
</g>
</svg>
