<svg width="22" height="22" viewBox="0 0 22 22" fill="none" xmlns="http://www.w3.org/2000/svg">
<g id="&#232;&#161;&#140;&#228;&#184;&#154;&#229;&#136;&#134;&#231;&#177;&#187;/&#231;&#143;&#160;&#229;&#174;&#157;&#229;&#147;&#129;&#231;&#137;&#140;">
<path id="Vector" d="M7.73524 9.69729L14.4458 9.66229L11.3089 18.3393C11.2775 18.4261 11.1554 18.4277 11.1217 18.3418L7.73524 9.69729ZM8.50427 6.28738L13.6163 6.33992L14.5211 8.63064L7.88596 8.57817L8.50427 6.28738ZM7.04144 8.50832L3.13698 6.61609C3.07224 6.58472 3.06082 6.4973 3.11532 6.45035L5.11676 4.72581C5.14944 4.69766 5.1965 4.69363 5.23349 4.71582L7.76524 6.23497L7.04144 8.50832ZM3.23379 8.01914C3.17371 7.93361 3.26858 7.82487 3.36147 7.87279L6.83033 9.66231L10.5392 18.0746C10.5879 18.1851 10.4353 18.2713 10.3659 18.1724L3.23379 8.01914ZM15.4107 9.64475L18.6234 7.71979C18.7146 7.66512 18.8168 7.77183 18.7582 7.86064L12.0545 18.0234C11.9874 18.1251 11.8313 18.0412 11.879 17.9291L15.4107 9.64475ZM15.3355 8.49071L14.325 6.07757L16.5653 4.63444C16.6045 4.6092 16.6559 4.61437 16.6893 4.64691L18.5297 6.44149C18.5767 6.48736 18.5675 6.56537 18.5111 6.599L15.3355 8.49071ZM8.4289 5.13346L7.55424 4.87113L6.06941 3.90771C6.00194 3.86393 6.01113 3.76246 6.08537 3.73152L7.82224 3.00769C7.83443 3.00262 7.8475 3 7.86071 3H14.1211C14.1362 3 14.1511 3.00341 14.1646 3.00998L15.8868 3.84324C15.9595 3.87844 15.9626 3.98094 15.8921 4.02048L14.2195 4.95851L13.6012 5.13346H8.4289Z" fill="#3370FF"/>
</g>
</svg>
