<svg width="23" height="23" viewBox="0 0 23 23" fill="none" xmlns="http://www.w3.org/2000/svg">
<g id="&#228;&#184;&#141;&#229;&#187;&#186;&#232;&#174;&#174;&#229;&#136;&#134;&#231;&#177;&#187;/&#229;&#174;&#151;&#230;&#149;&#153;&#231;&#187;&#132;&#231;&#187;&#135;">
<path id="Vector" d="M12.0101 20.9909C11.7497 21.418 11.1976 21.543 10.7705 21.2826C10.6559 21.2097 10.5518 21.1055 10.4789 20.9909L8.89551 18.3451H13.5935L12.0101 20.9909Z" fill="#3366FF"/>
<path id="Vector_2" d="M20.2299 15.6081C20.4695 16.0247 20.3237 16.556 19.907 16.7956C19.782 16.8685 19.6362 16.9102 19.4799 16.9102H16.3132L18.657 12.8684L20.2299 15.6081ZM3.8443 12.858L6.20892 16.9102H3.02138C2.5422 16.8997 2.15678 16.5143 2.1672 16.0247C2.1672 15.8789 2.20887 15.7331 2.28178 15.5976L3.8443 12.858Z" fill="#1375FF"/>
<path id="Vector_3" d="M17.812 11.1705C17.7599 11.2226 17.7078 11.2851 17.6662 11.358L14.437 16.9102H8.04105C8.02022 16.8268 7.99938 16.7539 7.95772 16.681L4.75976 11.2017L7.9473 5.72251H14.4995C14.5307 5.72251 14.562 5.72251 14.5932 5.71209L17.6662 10.983C17.7078 11.0559 17.7599 11.1184 17.812 11.1705ZM1.99931 7.00378C1.75972 6.59752 1.89514 6.07668 2.30139 5.83709C2.43681 5.75376 2.60348 5.71209 2.75973 5.72251H6.07227L3.67641 9.82673L1.99931 7.00378ZM20.4995 7.00378L18.8433 9.78506L16.4787 5.72251H19.7391C20.2079 5.70167 20.6037 6.07668 20.6245 6.54544C20.6245 6.70169 20.5829 6.86836 20.4995 7.00378Z" fill="#1375FF"/>
<path id="Vector_4" d="M10.5108 1.36454C10.7399 0.958289 11.2608 0.812454 11.667 1.04162C11.8024 1.11454 11.917 1.22913 11.9899 1.36454L13.6462 4.28125H8.85449L10.5108 1.36454Z" fill="#1375FF"/>
<g id="Vector_5" filter="url(#filter0_b_1668_99233)">
<path d="M11.8135 16.2382C11.8135 19.0322 14.0781 21.2945 16.8698 21.2945C19.6615 21.2945 21.9261 19.0299 21.9261 16.2382C21.9261 13.4465 19.6615 11.1797 16.8698 11.1797C14.0781 11.1797 11.8135 13.4443 11.8135 16.2382Z" fill="white" fill-opacity="0.05"/>
</g>
</g>
<defs>
<filter id="filter0_b_1668_99233" x="3.81348" y="3.17969" width="26.1125" height="26.1147" filterUnits="userSpaceOnUse" color-interpolation-filters="sRGB">
<feFlood flood-opacity="0" result="BackgroundImageFix"/>
<feGaussianBlur in="BackgroundImageFix" stdDeviation="4"/>
<feComposite in2="SourceAlpha" operator="in" result="effect1_backgroundBlur_1668_99233"/>
<feBlend mode="normal" in="SourceGraphic" in2="effect1_backgroundBlur_1668_99233" result="shape"/>
</filter>
</defs>
</svg>
