<?xml version="1.0" encoding="UTF-8"?>
<svg width="100px" height="28px" viewBox="0 0 100 28" version="1.1" xmlns="http://www.w3.org/2000/svg" xmlns:xlink="http://www.w3.org/1999/xlink">
    <!-- Generator: Sketch 58 (84663) - https://sketch.com -->
    <title>跨税云logo横版标准组合（标准色）</title>
    <desc>Created with Sketch.</desc>
    <defs>
        <path d="M17.6625349,0.0137382199 C12.8485108,0.0137382199 8.86652957,3.61758813 8.22468817,8.27870855 L8.22468817,8.27870855 C3.58647581,8.92368935 0,12.9215113 0,17.7549319 L0,17.7549319 C0,22.9561361 4.15123925,27.1928028 9.29964785,27.3213124 L9.29964785,27.3213124 C9.33982527,27.3244607 9.37843548,27.3333333 9.41904032,27.3333333 L9.41904032,27.3333333 C9.43286022,27.3333333 9.4451129,27.3296126 9.45864785,27.3290401 L9.45864785,27.3290401 C9.48529032,27.3293264 9.51065054,27.3333333 9.53715054,27.3333333 L9.53715054,27.3333333 L9.53715054,27.3213124 C10.2604866,27.2602059 10.830664,26.6577277 10.830664,25.9152914 L10.830664,25.9152914 L10.830664,21.9307784 C10.830664,21.1474136 10.1986532,20.5128796 9.41904032,20.5128796 L9.41904032,20.5128796 C8.63942742,20.5128796 8.00770161,21.1474136 8.00770161,21.9307784 L8.00770161,21.9307784 L8.00770161,24.3145026 C5.04112634,23.6165724 2.82310484,20.9437731 2.82310484,17.7549319 L2.82310484,17.7549319 C2.82310484,14.0371693 5.83413172,11.0129005 9.53544086,11.0129005 L9.53544086,11.0129005 C11.8497742,11.0129005 13.8944059,12.1941012 15.102578,13.9880838 L15.102578,13.9880838 C15.8274812,15.0641012 16.2510538,16.3609319 16.2510538,17.7549319 L16.2510538,17.7549319 C16.2510538,23.0362757 20.5289516,27.3333333 25.7867796,27.3333333 L25.7867796,27.3333333 C31.0466022,27.3333333 35.3257823,23.0362757 35.3257823,17.7549319 L35.3257823,17.7549319 C35.3257823,12.9233717 31.744578,8.91596161 27.1075054,8.26826178 L27.1075054,8.26826178 C26.462957,3.61057592 22.4734247,0.0137382199 17.6625349,0.0137382199 Z M19.0741586,17.7549319 C19.0741586,17.4400977 19.0569194,17.1294136 19.027,16.8224503 L19.027,16.8224503 C19.0173118,16.7202723 18.9987903,16.6208133 18.9856828,16.5190646 L18.9856828,16.5190646 C18.9593253,16.3159965 18.9321129,16.1137871 18.8933602,15.9148691 L18.8933602,15.9148691 C18.870422,15.7968063 18.8399328,15.6820349 18.8130054,15.5655462 L18.8130054,15.5655462 C18.7711183,15.3875218 18.7286613,15.2097836 18.6768011,15.0357661 L18.6768011,15.0357661 C18.6413253,14.9155567 18.600578,14.7972077 18.5602581,14.6788586 L18.5602581,14.6788586 C18.5045511,14.5137138 18.446422,14.3504293 18.3818817,14.190007 L18.3818817,14.190007 C18.3342957,14.0719442 18.2838602,13.9558848 18.2318575,13.8395393 L18.2318575,13.8395393 C18.1620457,13.6839825 18.0885296,13.5308586 18.0108817,13.3793089 L18.0108817,13.3793089 C17.9526102,13.2669703 17.8939113,13.1554904 17.831793,13.0457277 L17.831793,13.0457277 C17.7478763,12.8973264 17.6588306,12.7523595 17.5669355,12.6086806 L17.5669355,12.6086806 C17.500543,12.5039267 17.4347204,12.399459 17.3640538,12.2977103 L17.3640538,12.2977103 C17.2638952,12.1538883 17.1577527,12.015075 17.0506129,11.8771204 L17.0506129,11.8771204 C16.978379,11.783815 16.9082823,11.6893647 16.832629,11.5990646 L16.832629,11.5990646 C16.7110995,11.4539546 16.5820188,11.3162862 16.4520833,11.178904 L16.4520833,11.178904 C16.3815591,11.1037731 16.3147392,11.0257801 16.2416505,10.9532251 L16.2416505,10.9532251 C16.0551532,10.7677592 15.8601075,10.5908796 15.659078,10.4212984 L15.659078,10.4212984 C15.637422,10.4028377 15.6177608,10.3825166 15.5956774,10.3640558 L15.5956774,10.3640558 C15.3722796,10.1790192 15.1389086,10.005288 14.8992688,9.84085864 L14.8992688,9.84085864 C14.8173468,9.78447469 14.7307231,9.73538918 14.6468065,9.68186736 L14.6468065,9.68186736 C14.4839597,9.57725654 14.3209704,9.47393368 14.1517124,9.37962653 L14.1517124,9.37962653 C14.0492742,9.32209773 13.9431317,9.27186736 13.8388414,9.21848866 L13.8388414,9.21848866 C13.6811237,9.13820593 13.522836,9.05863874 13.3604167,8.98694241 L13.3604167,8.98694241 C13.2464382,8.93685515 13.1304651,8.89163351 13.0143495,8.84626876 L13.0143495,8.84626876 C12.8540672,8.7828726 12.6930726,8.72176614 12.5283737,8.66724258 L12.5283737,8.66724258 C12.4075565,8.62688656 12.2853145,8.59039442 12.1623602,8.55504712 L12.1623602,8.55504712 C11.9960941,8.50667714 11.8281183,8.46345899 11.6581478,8.42424782 L11.6581478,8.42424782 C11.5330565,8.39605585 11.4075376,8.36886562 11.2804516,8.34539616 L11.2804516,8.34539616 C11.2100699,8.33180105 11.1418253,8.31276789 11.0707312,8.30103316 L11.0707312,8.30103316 C11.6735349,5.19819895 14.4001855,2.84924956 17.6625349,2.84924956 L17.6625349,2.84924956 C21.364129,2.84924956 24.3752984,5.87552182 24.3752984,9.59485864 L24.3752984,9.59485864 C24.3752984,10.3779372 25.0074516,11.0129005 25.7867796,11.0129005 L25.7867796,11.0129005 C29.4902258,11.0129005 32.5026774,14.0371693 32.5026774,17.7549319 L32.5026774,17.7549319 C32.5026774,21.4725515 29.4902258,24.497822 25.7867796,24.497822 L25.7867796,24.497822 C22.0857554,24.497822 19.0741586,21.4725515 19.0741586,17.7549319 L19.0741586,17.7549319 Z" id="path-1"></path>
        <linearGradient x1="0%" y1="49.9998703%" x2="100.000119%" y2="49.9998703%" id="linearGradient-3">
            <stop stop-color="#016EFF" offset="0%"></stop>
            <stop stop-color="#00A3FF" offset="100%"></stop>
        </linearGradient>
        <polygon id="path-4" points="0 27.3333333 94.6238041 27.3333333 94.6238041 0.0137382199 0 0.0137382199"></polygon>
    </defs>
    <g id="页面-1" stroke="none" stroke-width="1" fill="none" fill-rule="evenodd">
        <g id="我的商标-填写商标信息-基本信息" transform="translate(-50.000000, -21.000000)">
            <g id="顶部" transform="translate(0.000000, 0.000000)">
                <g id="编组-8">
                    <g id="编组-9" transform="translate(50.000000, 21.000000)">
                        <g id="编组" transform="translate(2.666667, 0.666667)">
                            <g>
                                <mask id="mask-2" fill="white">
                                    <use xlink:href="#path-1"></use>
                                </mask>
                                <g id="Clip-2"></g>
                                <path d="M17.6625349,0.0137382199 C12.8485108,0.0137382199 8.86652957,3.61758813 8.22468817,8.27870855 L8.22468817,8.27870855 C3.58647581,8.92368935 0,12.9215113 0,17.7549319 L0,17.7549319 C0,22.9561361 4.15123925,27.1928028 9.29964785,27.3213124 L9.29964785,27.3213124 C9.33982527,27.3244607 9.37843548,27.3333333 9.41904032,27.3333333 L9.41904032,27.3333333 C9.43286022,27.3333333 9.4451129,27.3296126 9.45864785,27.3290401 L9.45864785,27.3290401 C9.48529032,27.3293264 9.51065054,27.3333333 9.53715054,27.3333333 L9.53715054,27.3333333 L9.53715054,27.3213124 C10.2604866,27.2602059 10.830664,26.6577277 10.830664,25.9152914 L10.830664,25.9152914 L10.830664,21.9307784 C10.830664,21.1474136 10.1986532,20.5128796 9.41904032,20.5128796 L9.41904032,20.5128796 C8.63942742,20.5128796 8.00770161,21.1474136 8.00770161,21.9307784 L8.00770161,21.9307784 L8.00770161,24.3145026 C5.04112634,23.6165724 2.82310484,20.9437731 2.82310484,17.7549319 L2.82310484,17.7549319 C2.82310484,14.0371693 5.83413172,11.0129005 9.53544086,11.0129005 L9.53544086,11.0129005 C11.8497742,11.0129005 13.8944059,12.1941012 15.102578,13.9880838 L15.102578,13.9880838 C15.8274812,15.0641012 16.2510538,16.3609319 16.2510538,17.7549319 L16.2510538,17.7549319 C16.2510538,23.0362757 20.5289516,27.3333333 25.7867796,27.3333333 L25.7867796,27.3333333 C31.0466022,27.3333333 35.3257823,23.0362757 35.3257823,17.7549319 L35.3257823,17.7549319 C35.3257823,12.9233717 31.744578,8.91596161 27.1075054,8.26826178 L27.1075054,8.26826178 C26.462957,3.61057592 22.4734247,0.0137382199 17.6625349,0.0137382199 Z M19.0741586,17.7549319 C19.0741586,17.4400977 19.0569194,17.1294136 19.027,16.8224503 L19.027,16.8224503 C19.0173118,16.7202723 18.9987903,16.6208133 18.9856828,16.5190646 L18.9856828,16.5190646 C18.9593253,16.3159965 18.9321129,16.1137871 18.8933602,15.9148691 L18.8933602,15.9148691 C18.870422,15.7968063 18.8399328,15.6820349 18.8130054,15.5655462 L18.8130054,15.5655462 C18.7711183,15.3875218 18.7286613,15.2097836 18.6768011,15.0357661 L18.6768011,15.0357661 C18.6413253,14.9155567 18.600578,14.7972077 18.5602581,14.6788586 L18.5602581,14.6788586 C18.5045511,14.5137138 18.446422,14.3504293 18.3818817,14.190007 L18.3818817,14.190007 C18.3342957,14.0719442 18.2838602,13.9558848 18.2318575,13.8395393 L18.2318575,13.8395393 C18.1620457,13.6839825 18.0885296,13.5308586 18.0108817,13.3793089 L18.0108817,13.3793089 C17.9526102,13.2669703 17.8939113,13.1554904 17.831793,13.0457277 L17.831793,13.0457277 C17.7478763,12.8973264 17.6588306,12.7523595 17.5669355,12.6086806 L17.5669355,12.6086806 C17.500543,12.5039267 17.4347204,12.399459 17.3640538,12.2977103 L17.3640538,12.2977103 C17.2638952,12.1538883 17.1577527,12.015075 17.0506129,11.8771204 L17.0506129,11.8771204 C16.978379,11.783815 16.9082823,11.6893647 16.832629,11.5990646 L16.832629,11.5990646 C16.7110995,11.4539546 16.5820188,11.3162862 16.4520833,11.178904 L16.4520833,11.178904 C16.3815591,11.1037731 16.3147392,11.0257801 16.2416505,10.9532251 L16.2416505,10.9532251 C16.0551532,10.7677592 15.8601075,10.5908796 15.659078,10.4212984 L15.659078,10.4212984 C15.637422,10.4028377 15.6177608,10.3825166 15.5956774,10.3640558 L15.5956774,10.3640558 C15.3722796,10.1790192 15.1389086,10.005288 14.8992688,9.84085864 L14.8992688,9.84085864 C14.8173468,9.78447469 14.7307231,9.73538918 14.6468065,9.68186736 L14.6468065,9.68186736 C14.4839597,9.57725654 14.3209704,9.47393368 14.1517124,9.37962653 L14.1517124,9.37962653 C14.0492742,9.32209773 13.9431317,9.27186736 13.8388414,9.21848866 L13.8388414,9.21848866 C13.6811237,9.13820593 13.522836,9.05863874 13.3604167,8.98694241 L13.3604167,8.98694241 C13.2464382,8.93685515 13.1304651,8.89163351 13.0143495,8.84626876 L13.0143495,8.84626876 C12.8540672,8.7828726 12.6930726,8.72176614 12.5283737,8.66724258 L12.5283737,8.66724258 C12.4075565,8.62688656 12.2853145,8.59039442 12.1623602,8.55504712 L12.1623602,8.55504712 C11.9960941,8.50667714 11.8281183,8.46345899 11.6581478,8.42424782 L11.6581478,8.42424782 C11.5330565,8.39605585 11.4075376,8.36886562 11.2804516,8.34539616 L11.2804516,8.34539616 C11.2100699,8.33180105 11.1418253,8.31276789 11.0707312,8.30103316 L11.0707312,8.30103316 C11.6735349,5.19819895 14.4001855,2.84924956 17.6625349,2.84924956 L17.6625349,2.84924956 C21.364129,2.84924956 24.3752984,5.87552182 24.3752984,9.59485864 L24.3752984,9.59485864 C24.3752984,10.3779372 25.0074516,11.0129005 25.7867796,11.0129005 L25.7867796,11.0129005 C29.4902258,11.0129005 32.5026774,14.0371693 32.5026774,17.7549319 L32.5026774,17.7549319 C32.5026774,21.4725515 29.4902258,24.497822 25.7867796,24.497822 L25.7867796,24.497822 C22.0857554,24.497822 19.0741586,21.4725515 19.0741586,17.7549319 L19.0741586,17.7549319 Z" id="Fill-1" fill="url(#linearGradient-3)" mask="url(#mask-2)"></path>
                            </g>
                            <g>
                                <path d="M7.97714983,17.75466 L7.97714983,17.7555187 C7.97714983,18.5388834 8.60688896,19.1725588 9.38338271,19.1725588 C10.1597345,19.1725588 10.7893317,18.5377386 10.7893317,17.75466 C10.7893317,16.9715815 10.1597345,16.3370475 9.38338271,16.3370475 C8.60688896,16.3370475 7.97714983,16.9715815 7.97714983,17.75466" id="Fill-3" fill="#FBB73C"></path>
                                <path d="M7.97714983,17.75466 L7.97714983,17.7555187 C7.97714983,18.5388834 8.60688896,19.1725588 9.38338271,19.1725588 C10.1597345,19.1725588 10.7893317,18.5377386 10.7893317,17.75466 C10.7893317,16.9715815 10.1597345,16.3370475 9.38338271,16.3370475 C8.60688896,16.3370475 7.97714983,16.9715815 7.97714983,17.75466" id="Fill-5" fill="#00A3FF"></path>
                                <mask id="mask-5" fill="white">
                                    <use xlink:href="#path-4"></use>
                                </mask>
                                <g id="Clip-10"></g>
                                <polygon id="Fill-7" fill="#4C4B4C" mask="url(#mask-5)" points="73.0838305 10.1495393 74.7991848 17.5336894 74.8363702 17.6879581 76.3460694 17.6879581 74.630715 10.1495393"></polygon>
                                <polygon id="Fill-9" fill="#4C4B4C" mask="url(#mask-5)" points="66.190025 3.31062478 75.2581549 3.31062478 75.2581549 1.90045375 66.190025 1.90045375"></polygon>
                                <polygon id="Fill-11" fill="#4C4B4C" mask="url(#mask-5)" points="76.1574741 7.93068796 65.3261597 7.93068796 65.3261597 9.34085899 70.1290383 9.34085899 70.1290383 16.4320702 67.2424856 16.4320702 67.9238869 17.8048904 71.629654 17.8048904 71.629654 9.34085899 76.1574741 9.34085899"></polygon>
                                <polygon id="Fill-12" fill="#4C4B4C" mask="url(#mask-5)" points="68.1325367 10.1495393 66.618012 10.1495393 64.538042 17.6879581 66.0894683 17.6879581 68.0629915 10.4019791"></polygon>
                                <polygon id="Fill-13" fill="#4C4B4C" mask="url(#mask-5)" points="64.2474991 6.52987609 63.4407744 6.52987609 63.4407744 5.80060558 65.6862337 5.80060558 65.6862337 4.39043455 63.4407744 4.39043455 63.4407744 1.00453578 61.9385975 1.00453578 61.9385975 4.39043455 59.4166605 4.39043455 59.4166605 5.80060558 60.9265015 5.80060558 59.3022657 13.7769302 60.8121067 13.7769302 61.9385975 8.23141187 61.9385975 17.8048045 63.4407744 17.8048045 63.4407744 8.81886387 64.2428154 11.170103 65.8359688 11.170103"></polygon>
                                <path d="M54.8018805,6.29614031 L47.3486191,6.29614031 L50.7376006,3.5832712 L52.1299244,3.5832712 L52.1299244,4.18002513 L54.8018805,6.29614031 Z M56.0149479,2.17310017 L51.3696106,2.17310017 L51.9569129,1.00449284 L50.372843,1.00449284 L49.7855406,2.17310017 L46.1169589,2.17310017 L46.1169589,3.5832712 L48.4719874,3.5832712 L46.0474137,5.5046185 L46.0474137,7.33695358 L47.2914217,6.34121885 L47.2914217,7.70788551 L54.9440934,7.70788551 L54.9440934,6.40833578 L56.0149479,7.25595532 L56.0149479,5.42662548 L53.7216586,3.5832712 L56.0149479,3.5832712 L56.0149479,2.17310017 Z" id="Fill-14" fill="#4C4B4C" mask="url(#mask-5)"></path>
                                <path d="M42.2272944,6.8414904 L44.4571414,6.8414904 L44.4571414,3.03800698 L42.2272944,3.03800698 L42.2272944,6.8414904 Z M44.4726117,11.2480244 L46.1509225,11.2480244 L46.1509225,9.8378534 L44.4726117,9.8378534 L44.4726117,8.25166143 L45.9593183,8.25166143 L45.9593183,1.62783595 L40.7252594,1.62783595 L40.7252594,8.25166143 L42.9721379,8.25166143 L42.9721379,16.296534 L42.1238281,16.296534 L42.1238281,9.01985689 L40.6572754,9.01985689 L40.6572754,16.296534 L40.0343488,16.296534 L40.0343488,16.7453159 L40.0343488,17.3187435 L40.0343488,17.6879581 L46.5511624,17.6879581 L46.5511624,16.296534 L44.4726117,16.296534 L44.4726117,11.2480244 Z" id="Fill-15" fill="#4C4B4C" mask="url(#mask-5)"></path>
                                <polygon id="Fill-16" fill="#4C4B4C" mask="url(#mask-5)" points="52.9644246 10.6652949 55.945502 10.6652949 55.945502 9.25354974 47.1105615 9.25354974 46.5512192 9.25354974 46.5512192 10.6652949 48.2459938 10.6652949 47.1105615 14.1274695 48.6127384 14.1274695 54.3645545 14.1274695 54.3645545 16.296534 49.3442407 16.296534 50.0351512 17.6879581 54.3645545 17.6879581 55.3025635 17.6879581 55.8665895 17.6879581 55.8665895 12.761089 55.8660218 12.761089 55.8665895 12.7563665 49.0385255 12.7563665 49.7481707 10.6652949"></polygon>
                                <polygon id="Fill-17" fill="#4C4B4C" mask="url(#mask-5)" points="80.7309385 3.19384991 92.9670665 3.19384991 92.9670665 1.78367888 80.7309385 1.78367888"></polygon>
                                <polygon id="Fill-18" fill="#4C4B4C" mask="url(#mask-5)" points="85.7267412 9.34121675 94.6238467 9.34121675 94.6238467 7.92961466 79.2444164 7.92961466 79.2444164 9.34121675 83.5961025 9.34121675 83.8400786 9.34121675 80.5301515 17.8048188 93.7585053 17.8048188 91.7936398 12.7690457 90.0926203 12.7690457 91.4835248 16.4139672 83.027109 16.4139672 85.5102995 9.34121675"></polygon>
                                <path d="M40.0854488,26.0847016 L41.1068444,26.0847016 L41.1068444,21.3620454 L40.0854488,21.3620454 L40.0854488,26.0847016 Z M40.0343488,20.5263037 L41.1579443,20.5263037 L41.1579443,19.7088796 L40.0343488,19.7088796 L40.0343488,20.5263037 Z" id="Fill-19" fill="#666465" mask="url(#mask-5)"></path>
                                <path d="M44.6904281,26.0847016 L45.7120066,26.0847016 L45.7120066,21.3620454 L44.6904281,21.3620454 L44.6904281,26.0847016 Z M44.6395202,20.5263037 L45.7631157,20.5263037 L45.7631157,19.7088796 L44.6395202,19.7088796 L44.6395202,20.5263037 Z" id="Fill-20" fill="#666465" mask="url(#mask-5)"></path>
                                <path d="M52.415145,23.714186 C52.415145,22.9514286 52.2348952,22.4185002 51.8745373,22.11583 L51.6764044,21.9795927 C51.5383074,21.9130482 51.3823274,21.8797044 51.2080386,21.8797044 C50.7876448,21.8797044 50.4484344,22.0884967 50.1902655,22.5063675 C50.1481125,22.5669016 50.1120626,22.6334461 50.0822575,22.7061442 C50.0101575,22.8575508 49.9741075,22.9664548 49.9741075,23.0329993 L49.9741075,24.2318021 C49.9741075,24.6194775 50.127249,24.9556346 50.4333899,25.2401302 C50.6675728,25.4582244 50.9257417,25.5669853 51.2080386,25.5669853 C51.8505513,25.5669853 52.2407142,25.1402419 52.3790951,24.2864688 C52.4029391,24.110734 52.415145,23.9201162 52.415145,23.714186 M53.2258437,23.6871389 C53.2258437,24.4742244 53.0335298,25.1037497 52.6493279,25.5761442 C52.3189171,25.9756974 51.8925623,26.175474 51.3702635,26.175474 C50.7696198,26.175474 50.3042345,25.8971319 49.9741075,25.3400185 L49.9741075,27.6287201 L49.2533919,27.6287201 L49.2533919,21.3619452 L49.9109491,21.3619452 L49.9109491,22.2700988 L49.9289741,22.2700988 C50.121146,21.7494775 50.4664594,21.4256276 50.9647722,21.2982628 C51.0969081,21.2560464 51.2318827,21.2347236 51.3702635,21.2347236 C52.0848762,21.2347236 52.607175,21.5922035 52.9375858,22.3064478 C53.1296158,22.7183082 53.2258437,23.1783955 53.2258437,23.6871389" id="Fill-21" fill="#666465" mask="url(#mask-5)"></path>
                                <path d="M58.776447,26.1210077 L57.9296984,26.1845469 C57.1490887,26.1845469 56.7587838,25.6669309 56.7587838,24.6315557 L56.7587838,21.897793 L55.9300602,21.897793 L55.9300602,21.3256534 L56.7587838,21.3256534 L56.7587838,20.1540408 L57.4793575,20.0721839 L57.4793575,21.3256534 L58.524381,21.3256534 L58.524381,21.897793 L57.4793575,21.897793 L57.4793575,24.7586342 C57.5334325,25.2915627 57.746468,25.5730531 58.1188898,25.6033916 L58.776447,25.5488681 L58.776447,26.1210077 Z" id="Fill-22" fill="#666465" mask="url(#mask-5)"></path>
                                <path d="M65.0209129,23.6870817 C65.0209129,22.8818216 64.810716,22.3307187 64.3903222,22.034059 C64.1981503,21.90097 63.9700704,21.8342824 63.7056566,21.8342824 C63.0932328,21.8342824 62.6938445,22.1916192 62.5077755,22.9058635 C62.4475976,23.1481428 62.4177925,23.4085965 62.4177925,23.6870817 C62.4177925,24.5588862 62.6458725,25.1341742 63.1023162,25.4126593 C63.2703602,25.5215634 63.4716156,25.5760869 63.7056566,25.5760869 C64.3722973,25.5760869 64.7895686,25.179682 64.9577545,24.3864429 C64.9997655,24.1683487 65.0209129,23.9353714 65.0209129,23.6870817 M65.8223862,23.6959543 C65.8223862,24.5013574 65.5852228,25.1371794 65.1110379,25.6034202 C64.7265521,25.984799 64.2373227,26.1755599 63.6426401,26.1755599 C62.8681333,26.1755599 62.3005591,25.827525 61.9403432,25.1311689 C61.7240434,24.7132981 61.6160354,24.231888 61.6160354,23.6870817 C61.6160354,22.8696576 61.8593017,22.2308304 62.3455506,21.7706 C62.7179724,21.4134063 63.1922993,21.2346663 63.7689569,21.2346663 C64.5133747,21.2346663 65.074846,21.5648129 65.4532288,22.2248199 C65.6993337,22.6487012 65.8223862,23.1391271 65.8223862,23.6959543" id="Fill-23" fill="#666465" mask="url(#mask-5)"></path>
                                <polygon id="Fill-24" fill="#666465" mask="url(#mask-5)" points="69.5269185 26.0847016 70.5537751 26.0847016 70.5537751 25.0312949 69.5269185 25.0312949"></polygon>
                                <path d="M77.8969421,24.5226517 C77.7707672,25.2250182 77.4466013,25.7122956 76.9241605,25.9847703 C76.6719526,26.111992 76.3926363,26.1755312 76.0864954,26.1755312 C75.3057437,26.1755312 74.741292,25.8183375 74.39314,25.103807 C74.1948652,24.7043969 74.0957987,24.2441665 74.0957987,23.723259 C74.0957987,22.9181421 74.3089761,22.2824632 74.7353309,21.8160792 C75.0895858,21.4286901 75.5429071,21.2346377 76.0954369,21.2346377 C76.8279326,21.2346377 77.3534959,21.5466098 77.6717007,22.1702677 C77.7799926,22.3823515 77.8547892,22.618334 77.8969421,22.8787878 L77.2304434,22.9968506 C77.1823294,22.5062817 76.9782355,22.1644003 76.6178777,21.970348 C76.5098697,21.9099571 76.3836948,21.8737511 76.2394949,21.861444 C76.1974839,21.8554335 76.1553309,21.8524283 76.1134619,21.8524283 C75.5370881,21.8524283 75.1527442,22.1944527 74.9605723,22.8787878 C74.8944334,23.1269344 74.8613639,23.3932555 74.8613639,23.6778942 C74.8613639,24.4469483 75.0384914,24.9918977 75.3927462,25.3127424 C75.5789571,25.47617 75.8041985,25.5578838 76.0684704,25.5578838 C76.6509471,25.5578838 77.029188,25.2160024 77.2033349,24.5315243 C77.2153989,24.489451 77.2243404,24.4469483 77.2304434,24.4045888 L77.8969421,24.5226517 Z" id="Fill-25" fill="#666465" mask="url(#mask-5)"></path>
                                <path d="M84.3755058,23.6870817 C84.3755058,22.8818216 84.1654509,22.3307187 83.7450571,22.034059 C83.5528852,21.90097 83.3246633,21.8342824 83.0603914,21.8342824 C82.4479676,21.8342824 82.0484374,22.1916192 81.8625103,22.9058635 C81.8023324,23.1481428 81.7725273,23.4085965 81.7725273,23.6870817 C81.7725273,24.5588862 82.0006073,25.1341742 82.4569091,25.4126593 C82.6250951,25.5215634 82.8263504,25.5760869 83.0603914,25.5760869 C83.7270321,25.5760869 84.1443034,25.179682 84.3124894,24.3864429 C84.3545003,24.1683487 84.3755058,23.9353714 84.3755058,23.6870817 M85.177121,23.6959543 C85.177121,24.5013574 84.9399576,25.1371794 84.4657727,25.6034202 C84.081287,25.984799 83.5919156,26.1755599 82.9973749,26.1755599 C82.2228682,26.1755599 81.655294,25.827525 81.2950781,25.1311689 C81.0787782,24.7132981 80.9707702,24.231888 80.9707702,23.6870817 C80.9707702,22.8696576 81.2140366,22.2308304 81.7002855,21.7706 C82.0725653,21.4134063 82.5470341,21.2346663 83.1235498,21.2346663 C83.8681095,21.2346663 84.4295808,21.5648129 84.8079636,22.2248199 C85.0540686,22.6487012 85.177121,23.1391271 85.177121,23.6959543" id="Fill-26" fill="#666465" mask="url(#mask-5)"></path>
                                <path d="M94.6237757,26.0846729 L93.9030601,26.0846729 L93.9030601,23.0784356 C93.9030601,22.4064077 93.6959856,22.0037061 93.2815528,21.870474 C93.1914279,21.8464321 93.0953419,21.8342681 92.993295,21.8342681 C92.6390401,21.8342681 92.3358797,22.0098597 92.0836718,22.3610429 C91.9214469,22.6094757 91.837283,22.9483518 91.8313219,23.3781005 L91.8313219,23.5326555 L91.8313219,26.0846729 L91.1107482,26.0846729 L91.1107482,23.0875944 C91.1107482,22.421577 90.8975708,22.0190185 90.471216,21.8796328 C90.3810911,21.8492942 90.2790441,21.8342681 90.1649331,21.8342681 C89.8707142,21.8342681 89.6033199,21.9703623 89.3634599,22.2429801 C89.3454349,22.2611546 89.3302485,22.2793291 89.3181845,22.2973606 C89.1321155,22.5396398 89.0390101,22.8999818 89.0390101,23.3781005 L89.0390101,26.0846729 L88.3184364,26.0846729 L88.3184364,21.3620168 L88.9670521,21.3620168 L88.9670521,22.2701703 L88.9850771,22.2701703 C89.177107,21.8100831 89.4804094,21.498111 89.8948422,21.3346834 C90.0508222,21.2681389 90.2158857,21.234652 90.3901745,21.234652 C90.8886293,21.234652 91.2668702,21.4527462 91.525181,21.8886485 C91.609203,22.0340447 91.6693809,22.1916049 91.7054309,22.3610429 C91.9214469,21.822104 92.2667602,21.4740691 92.7410871,21.3165089 C92.897209,21.2621284 93.0563114,21.234652 93.2185363,21.234652 C93.6270081,21.234652 93.9720376,21.3952175 94.2543344,21.7162052 L94.3985343,21.9159818 C94.5485533,22.1701389 94.6237757,22.5669731 94.6237757,23.1057689 L94.6237757,26.0846729 Z" id="Fill-27" fill="#666465" mask="url(#mask-5)"></path>
                            </g>
                        </g>
                    </g>
                </g>
            </g>
        </g>
    </g>
</svg>