<svg width="150" height="42" viewBox="0 0 150 42" fill="none" xmlns="http://www.w3.org/2000/svg">
<g id="&#231;&#188;&#150;&#231;&#187;&#132; 9">
<g id="Group 427318686">
<path id="Vector" d="M26.4319 21.6337C29.9065 21.6337 32.7232 18.9271 32.7232 15.5883C32.7232 12.2496 29.9065 9.54297 26.4319 9.54297C22.9573 9.54297 20.1406 12.2496 20.1406 15.5883C20.1406 18.9271 22.9573 21.6337 26.4319 21.6337Z" fill="#00EDFF"/>
<path id="Vector_2" d="M9.76361 5.36157H6.46396C5.81048 5.36157 5.18376 5.6144 4.72168 6.06444C4.2596 6.51448 4 7.12487 4 7.76132V37.6322C4.00054 37.7211 4.03706 37.8063 4.10163 37.8692C4.16621 37.932 4.25363 37.9676 4.34496 37.9681H9.76361C9.85493 37.9676 9.94236 37.932 10.0069 37.8692C10.0715 37.8063 10.108 37.7211 10.1086 37.6322V5.69754C10.108 5.60859 10.0715 5.52345 10.0069 5.46055C9.94236 5.39766 9.85493 5.3621 9.76361 5.36157Z" fill="#002FA8"/>
<path id="Vector_3" d="M19.4851 31.8286H14.397C14.1476 31.8286 13.9453 32.0256 13.9453 32.2686V37.52C13.9453 37.763 14.1476 37.96 14.397 37.96H19.4851C19.7346 37.96 19.9368 37.763 19.9368 37.52V32.2686C19.9368 32.0256 19.7346 31.8286 19.4851 31.8286Z" fill="#002FA8"/>
<path id="Vector_4" d="M38.2751 9.16517C37.6198 7.67556 36.4006 6.48893 34.8708 5.85151C34.0782 5.5209 33.2238 5.35407 32.3617 5.36157H20.2349C19.3944 5.35478 18.5612 5.51314 17.785 5.8272C17.0089 6.14126 16.3057 6.60455 15.7176 7.18937C15.1415 7.77127 14.6763 8.44844 14.344 9.18916C13.9953 9.9512 13.8169 10.7767 13.8204 11.6109L13.9477 29.915C13.9488 30.0559 14.007 30.1907 14.1097 30.29C14.2124 30.3892 14.3512 30.4449 14.4959 30.4449H19.3807C19.4526 30.4452 19.5238 30.4316 19.5903 30.405C19.6568 30.3784 19.7173 30.3393 19.7682 30.2898C19.8192 30.2404 19.8596 30.1817 19.8872 30.117C19.9147 30.0523 19.9289 29.983 19.9289 29.913V26.1874H32.3637C33.2259 26.1949 34.0803 26.028 34.8728 25.6974C35.6266 25.3825 36.3149 24.9359 36.9035 24.3796C37.4923 23.817 37.9594 23.1451 38.2772 22.4038C38.6117 21.6368 38.7815 20.8113 38.7762 19.978V11.6089C38.7843 10.7694 38.6137 9.93728 38.2751 9.16517V9.16517ZM26.4564 21.6339C25.2318 21.6181 24.0395 21.25 23.0292 20.5759C22.0189 19.9018 21.2359 18.9518 20.7785 17.8454C20.3212 16.7389 20.21 15.5255 20.459 14.3577C20.7079 13.1899 21.3059 12.1199 22.1776 11.2822C23.0494 10.4445 24.156 9.8766 25.3583 9.6499C26.5606 9.4232 27.8049 9.54782 28.9346 10.0081C30.0644 10.4684 31.0292 11.2437 31.7077 12.2367C32.3861 13.2296 32.748 14.3958 32.7477 15.5885C32.7423 16.3878 32.5753 17.1783 32.2562 17.9147C31.9371 18.6511 31.4721 19.3191 30.8879 19.8805C30.3037 20.4419 29.6116 20.8857 28.8512 21.1866C28.0908 21.4874 27.2771 21.6394 26.4564 21.6339V21.6339Z" fill="#002FA8"/>
<path id="Vector_5" d="M54.9136 28.6549H50.4785L51.4456 25.6872V5.27539H79.3171V8.27507H55.8417V14.9164H79.3171V17.8841H62.6299V24.6554C62.6247 24.7923 62.6485 24.9288 62.6997 25.0564C62.7509 25.1841 62.8285 25.3001 62.9277 25.3973C63.0219 25.4916 63.1351 25.5659 63.2602 25.6158C63.3852 25.6657 63.5194 25.69 63.6545 25.6872H65.675L66.7673 28.6549H62.1987C61.7196 28.6573 61.2447 28.5673 60.8014 28.3902C60.3581 28.2131 59.9551 27.9524 59.6157 27.623C59.277 27.2928 59.0089 26.9004 58.8271 26.4686C58.6452 26.0367 58.5531 25.574 58.5562 25.1073V17.8841H55.8417V25.6832L54.9136 28.6549ZM58.0593 12.8846V9.9189H77.0975V12.8846H58.0593ZM75.5123 25.8152H74.6479L76.7998 28.6549H72.3626L65.0795 19.0119H69.5146L72.8266 23.3655L74.7814 19.0119H78.5882L75.5123 25.8152Z" fill="#002FA8"/>
<path id="Vector_6" d="M83.4883 28.493L87.56 19.206H83.4883V16.0063H88.6215V10.2409H83.4883L85.673 5.44141H90.5722L89.8412 7.04724H97.8203V10.2469H93.6193V16.0203H98.1879V19.22H92.9211L91.9951 21.2837H95.6705L98.617 28.507H93.6193L91.3339 22.8176L88.8145 28.493H83.4883ZM111.432 6.85526H112.559V24.4294C112.562 24.9051 112.467 25.3766 112.278 25.8153C111.911 26.668 111.215 27.3461 110.339 27.7031C109.889 27.8871 109.405 27.9803 108.916 27.977H99.348V6.88726H99.3808V6.85526H111.432V6.85526ZM107.988 10.0549H103.949V24.7774H106.929C107.067 24.779 107.203 24.754 107.331 24.7039C107.459 24.6538 107.576 24.5795 107.674 24.4854C107.775 24.3958 107.855 24.2863 107.909 24.1643C107.963 24.0422 107.99 23.9104 107.988 23.7775V10.0549Z" fill="#002FA8"/>
<path id="Vector_7" d="M53.9102 33.9504L54.9163 37.1401L55.8444 33.9544H56.3249L55.0929 37.94H54.6945L53.6884 34.8523L52.7275 37.94H52.3353L51.0273 33.9544H51.553L52.5591 37.1401L53.4934 33.9504H53.9102Z" fill="#231815"/>
<path id="Vector_8" d="M61.096 33.9504L62.1021 37.1401L63.0302 33.9544H63.5107L62.2787 37.94H61.8804L60.8743 34.8523L59.9133 37.94H59.515L58.207 33.9544H58.7327L59.7388 37.1401L60.673 33.9504H61.096Z" fill="#231815"/>
<path id="Vector_9" d="M68.2815 33.9504L69.2876 37.1401L70.2157 33.9544H70.6962L69.4642 37.94H69.0617L68.0556 34.8523L67.0947 37.94H66.7025L65.3945 33.9544H65.9202L66.9263 37.1401L67.8708 33.9504H68.2815Z" fill="#231815"/>
<path id="Vector_10" d="M72.5436 37.9041C72.5139 37.8753 72.4905 37.841 72.4746 37.8032C72.4587 37.7655 72.4508 37.725 72.4512 37.6842C72.4506 37.6427 72.4584 37.6016 72.4743 37.5631C72.4901 37.5247 72.5137 37.4897 72.5436 37.4602C72.5719 37.4312 72.606 37.4081 72.6438 37.3923C72.6815 37.3764 72.7222 37.3683 72.7633 37.3682C72.8057 37.3676 72.8478 37.3755 72.887 37.3913C72.9262 37.4071 72.9617 37.4306 72.9912 37.4602C73.0211 37.4897 73.0447 37.5247 73.0606 37.5631C73.0764 37.6016 73.0843 37.6427 73.0836 37.6842C73.0844 37.7256 73.0766 37.7668 73.0607 37.8053C73.0449 37.8437 73.0212 37.8787 72.9912 37.9081C72.962 37.9381 72.9265 37.9618 72.8873 37.9777C72.848 37.9935 72.8058 38.0012 72.7633 38.0001C72.7218 38.0003 72.6807 37.9918 72.6428 37.9753C72.6049 37.9587 72.5711 37.9345 72.5436 37.9041V37.9041Z" fill="#231815"/>
<path id="Vector_11" d="M78.0793 36.9502L78.4899 37.1782C78.3799 37.4277 78.1925 37.6375 77.954 37.7781C77.7016 37.9265 77.4111 38.0021 77.1163 37.9961C76.7821 37.9995 76.454 37.9085 76.1718 37.7341C75.884 37.5557 75.6518 37.3039 75.5003 37.0062C75.3381 36.6724 75.2539 36.3076 75.2539 35.9383C75.2539 35.569 75.3381 35.2042 75.5003 34.8704C75.6511 34.5728 75.8835 34.3215 76.1718 34.1445C76.4548 33.9722 76.7826 33.8827 77.1163 33.8865C77.4108 33.8809 77.701 33.9557 77.954 34.1025C78.1923 34.2435 78.3796 34.4531 78.4899 34.7024L78.0793 34.9304C77.9966 34.7455 77.8584 34.5892 77.6829 34.4821C77.5074 34.375 77.3027 34.3222 77.0957 34.3305C76.8493 34.3252 76.6074 34.3951 76.4038 34.5305C76.1958 34.6721 76.0335 34.8684 75.9356 35.0964C75.8219 35.3616 75.7659 35.6469 75.7714 35.9343C75.7663 36.2229 75.8223 36.5095 75.9356 36.7762C76.0334 37.0048 76.1957 37.2018 76.4038 37.3442C76.6078 37.4787 76.8494 37.5485 77.0957 37.5441C77.302 37.5529 77.5062 37.501 77.6816 37.395C77.8571 37.289 77.9957 37.134 78.0793 36.9502V36.9502Z" fill="#231815"/>
<path id="Vector_12" d="M81.3779 35.6544H83.5728V33.9546H84.0718V37.9402H83.5728V36.0884H81.3779V37.9402H80.8789V33.9546H81.3779V35.6544Z" fill="#231815"/>
<path id="Vector_13" d="M89.1296 36.0942H87.3309V37.5101H89.4047V37.94H86.834V33.9504H89.3431V34.3764H87.3309V35.6603H89.1296V36.0942Z" fill="#231815"/>
<path id="Vector_14" d="M92.3716 33.9546L94.6467 37.0743V33.9546H95.1169V37.9402H94.7062L92.4311 34.8145V37.9402H91.9609V33.9546H92.3716Z" fill="#231815"/>
<path id="Vector_15" d="M98.3758 35.6544H100.573V33.9546H101.07V37.9402H100.573V36.0884H98.3758V37.9402H97.8789V33.9546H98.3758V35.6544Z" fill="#231815"/>
<path id="Vector_16" d="M105.376 33.9546L107.019 37.9402H106.474L106.021 36.7963H104.319L103.887 37.9402H103.395L104.965 33.9546H105.376ZM105.84 36.3543L105.146 34.5945L104.487 36.3543H105.84Z" fill="#231815"/>
<path id="Vector_17" d="M109.829 37.9402H109.332V33.9546H109.829V37.9402Z" fill="#231815"/>
<path id="Vector_18" d="M113.087 37.9402H112.59V33.9546H113.087V37.9402Z" fill="#231815"/>
<path id="Vector_19" d="M117.108 33.9545C117.365 33.9512 117.618 34.0052 117.85 34.1125C118.058 34.2104 118.235 34.3618 118.361 34.5504C118.454 34.6927 118.516 34.8528 118.541 35.02C118.566 35.1873 118.554 35.3578 118.506 35.5202C118.458 35.6826 118.375 35.8331 118.263 35.9618C118.15 36.0904 118.011 36.1942 117.854 36.2662C117.621 36.3728 117.366 36.4255 117.108 36.4202H116.349V37.9401H115.85V33.9545H117.108ZM117.047 35.9963C117.307 36.0148 117.565 35.9361 117.767 35.7763C117.848 35.7015 117.913 35.6115 117.957 35.5116C118.001 35.4117 118.024 35.3041 118.024 35.1954C118.024 35.0866 118.001 34.979 117.957 34.8791C117.913 34.7792 117.848 34.6892 117.767 34.6144C117.566 34.4517 117.308 34.3701 117.047 34.3864H116.349V36.0023L117.047 35.9963Z" fill="#231815"/>
<path id="Vector_20" d="M120.096 37.9041C120.067 37.8753 120.043 37.841 120.027 37.8032C120.011 37.7655 120.004 37.725 120.004 37.6842C120.003 37.6427 120.011 37.6016 120.027 37.5631C120.043 37.5247 120.066 37.4897 120.096 37.4602C120.125 37.4312 120.159 37.4081 120.197 37.3923C120.234 37.3764 120.275 37.3683 120.316 37.3682C120.358 37.3676 120.401 37.3755 120.44 37.3913C120.479 37.4071 120.514 37.4306 120.544 37.4602C120.574 37.4897 120.597 37.5247 120.613 37.5631C120.629 37.6016 120.637 37.6427 120.636 37.6842C120.637 37.7256 120.629 37.7668 120.613 37.8053C120.598 37.8437 120.574 37.8787 120.544 37.9081C120.515 37.9381 120.479 37.9618 120.44 37.9777C120.401 37.9935 120.359 38.0012 120.316 38.0001C120.275 38.0003 120.233 37.9918 120.196 37.9753C120.158 37.9587 120.124 37.9345 120.096 37.9041V37.9041Z" fill="#231815"/>
<path id="Vector_21" d="M125.63 36.9502L126.041 37.1782C125.931 37.4277 125.743 37.6375 125.505 37.7781C125.252 37.9265 124.962 38.0021 124.667 37.9961C124.333 37.9992 124.005 37.9082 123.723 37.7341C123.435 37.5557 123.203 37.3039 123.051 37.0062C122.889 36.6724 122.805 36.3076 122.805 35.9383C122.805 35.569 122.889 35.2042 123.051 34.8704C123.202 34.5728 123.434 34.3215 123.723 34.1445C124.006 33.9724 124.333 33.8829 124.667 33.8865C124.962 33.8809 125.252 33.9557 125.505 34.1025C125.743 34.2435 125.93 34.4531 126.041 34.7024L125.63 34.9304C125.547 34.7455 125.409 34.5892 125.234 34.4821C125.058 34.375 124.853 34.3222 124.647 34.3305C124.4 34.3252 124.158 34.3951 123.955 34.5305C123.747 34.6721 123.584 34.8684 123.486 35.0964C123.373 35.3616 123.317 35.6469 123.322 35.9343C123.317 36.2229 123.373 36.5095 123.486 36.7762C123.584 37.0048 123.747 37.2018 123.955 37.3442C124.159 37.4787 124.4 37.5485 124.647 37.5441C124.853 37.5529 125.057 37.501 125.232 37.395C125.408 37.289 125.546 37.134 125.63 36.9502V36.9502Z" fill="#231815"/>
<path id="Vector_22" d="M128.389 34.8583C128.534 34.5621 128.763 34.3129 129.05 34.1404C129.263 34.0114 129.502 33.9274 129.751 33.8939C129.999 33.8604 130.252 33.8782 130.494 33.946C130.735 34.0139 130.959 34.1304 131.151 34.2879C131.343 34.4454 131.499 34.6404 131.608 34.8603C131.774 35.1976 131.857 35.5682 131.849 35.9422C131.857 36.318 131.773 36.6902 131.604 37.0281C131.457 37.3228 131.228 37.5714 130.943 37.746C130.66 37.9167 130.332 38.0048 129.999 38C129.665 38.0043 129.336 37.9177 129.05 37.75C128.763 37.5768 128.534 37.3269 128.389 37.0301C128.229 36.6892 128.146 36.3189 128.146 35.9442C128.146 35.5695 128.229 35.1992 128.389 34.8583V34.8583ZM128.832 36.7801C128.927 37.0093 129.087 37.2072 129.294 37.3501C129.502 37.4865 129.748 37.5564 129.999 37.5501C130.248 37.5564 130.493 37.4864 130.699 37.3501C130.905 37.206 131.065 37.0085 131.161 36.7801C131.273 36.5145 131.328 36.2294 131.323 35.9422C131.328 35.6531 131.273 35.366 131.161 35.0983C131.065 34.8707 130.905 34.6744 130.699 34.5324C130.49 34.4006 130.246 34.3305 129.998 34.3305C129.749 34.3305 129.505 34.4006 129.296 34.5324C129.09 34.6744 128.93 34.8707 128.834 35.0983C128.722 35.366 128.667 35.6531 128.672 35.9422C128.667 36.2279 128.722 36.5116 128.832 36.7761V36.7801Z" fill="#231815"/>
<path id="Vector_23" d="M137.856 33.9546H138.266V37.9402H137.78V34.9025L136.488 36.9023H136.192L134.891 34.8845V37.9322H134.41V33.9546H134.845L136.355 36.3223L137.856 33.9546Z" fill="#231815"/>
<path id="Vector_24" d="M138.226 5.28149H117.949V8.51115H138.226V5.28149Z" fill="#002FA8"/>
<path id="Vector_25" d="M126.744 16.0702H139.807V12.8406H116.371V16.0702H122.531C122.387 16.7448 122.212 17.4354 122.005 18.142C121.583 19.6823 120.943 21.1577 120.102 22.5256C119.673 23.1935 119.012 23.9894 118.297 23.9894H117.398V28.017H134.173C134.652 28.0202 135.127 27.9306 135.571 27.7534C136.014 27.5762 136.417 27.315 136.755 26.9849C137.094 26.6548 137.362 26.2624 137.544 25.8306C137.726 25.3987 137.817 24.936 137.814 24.4693V22.4696V19.4979H133.682V22.4656C133.684 22.666 133.644 22.8646 133.566 23.05C133.487 23.2353 133.372 23.4037 133.227 23.5454C133.081 23.6872 132.908 23.7994 132.718 23.8756C132.528 23.9518 132.324 23.9905 132.118 23.9894H124.038C124.812 22.6466 125.421 21.2195 125.851 19.7378C126.216 18.5317 126.514 17.3074 126.744 16.0702V16.0702Z" fill="#002FA8"/>
<path id="Vector_26" d="M143.758 7.85519C143.314 7.85558 142.88 7.72768 142.51 7.48765C142.141 7.24763 141.853 6.90628 141.683 6.5068C141.513 6.10732 141.468 5.66767 141.555 5.24349C141.641 4.8193 141.855 4.42965 142.169 4.12384C142.483 3.81803 142.883 3.60982 143.319 3.52554C143.754 3.44127 144.206 3.48473 144.616 3.65041C145.026 3.81609 145.376 4.09656 145.623 4.45631C145.869 4.81607 146.001 5.23894 146 5.67141C145.999 6.25026 145.763 6.8051 145.342 7.21441C144.922 7.62372 144.352 7.85413 143.758 7.85519V7.85519ZM143.758 3.69762C143.357 3.69762 142.965 3.81338 142.632 4.03026C142.299 4.24715 142.039 4.55541 141.886 4.91608C141.732 5.27674 141.692 5.6736 141.77 6.05648C141.849 6.43936 142.042 6.79106 142.325 7.0671C142.608 7.34314 142.97 7.53112 143.363 7.60728C143.756 7.68344 144.163 7.64435 144.534 7.49496C144.904 7.34557 145.22 7.09258 145.443 6.76799C145.666 6.44341 145.785 6.06179 145.785 5.67141C145.784 5.14809 145.57 4.64636 145.19 4.27632C144.811 3.90628 144.295 3.69815 143.758 3.69762V3.69762Z" fill="#231815"/>
<path id="Vector_27" d="M144.972 6.90728H144.586L143.845 5.87338H143.332V6.90728H143.016V4.37954H143.812C143.975 4.37696 144.136 4.40904 144.285 4.47353C144.416 4.5297 144.528 4.62131 144.607 4.7375C144.684 4.85363 144.724 4.98928 144.722 5.12746C144.725 5.28281 144.674 5.43461 144.576 5.55742C144.474 5.68176 144.335 5.77251 144.178 5.81739L144.972 6.90728ZM143.33 4.65351V5.60541H143.771C143.935 5.6163 144.097 5.57023 144.229 5.47543C144.281 5.43365 144.322 5.38093 144.349 5.3213C144.377 5.26168 144.39 5.19674 144.387 5.13146C144.389 5.06593 144.376 5.00079 144.349 4.94089C144.321 4.88099 144.28 4.82787 144.229 4.7855C144.098 4.68917 143.935 4.6423 143.771 4.65351H143.33Z" fill="black"/>
</g>
</g>
</svg>
