<svg width="45" height="44" viewBox="0 0 45 44" fill="none" xmlns="http://www.w3.org/2000/svg">
<g id="Group 427318641">
<circle id="Ellipse 149" cx="23.083" cy="22" r="22" fill="#00A3FF"/>
<g id="Frame">
<path id="Vector" d="M23.9066 29.641C23.7785 29.641 23.6635 29.6154 23.5354 29.5641C23.1773 29.4235 22.9473 29.0654 22.9473 28.6816V21.0072C22.9473 20.4829 23.3823 20.0479 23.9066 20.0479C24.431 20.0479 24.866 20.4829 24.866 21.0072V26.3666L25.7866 25.446C26.1579 25.0747 26.7716 25.0747 27.1423 25.446C27.5135 25.8166 27.5135 26.431 27.1423 26.8016L24.5841 29.3597C24.4054 29.5385 24.1491 29.641 23.9066 29.641Z" fill="white"/>
<path id="Vector_2" d="M23.9047 29.6404C23.6616 29.6404 23.4184 29.5511 23.2266 29.3592L20.6691 26.8011C20.2978 26.4304 20.2978 25.8161 20.6691 25.4454C21.0403 25.0742 21.6541 25.0742 22.0247 25.4454L24.5828 28.0036C24.9541 28.3742 24.9541 28.9886 24.5828 29.3592C24.3909 29.5511 24.1478 29.6404 23.9047 29.6404Z" fill="white"/>
<path id="Subtract" fill-rule="evenodd" clip-rule="evenodd" d="M13.8755 13.0527C13.3238 13.0527 12.8765 13.4998 12.8765 14.0527V20.4751C12.8765 20.5428 12.8697 20.6089 12.8569 20.6728V29.3989C12.8569 29.9512 13.3046 30.3989 13.8569 30.3989H18.0991V32.3989H13.8569C12.2001 32.3989 10.8569 31.0557 10.8569 29.3989V17.0513C10.8569 16.9836 10.8637 16.9175 10.8765 16.8536V14.0527C10.8765 12.3965 12.218 11.0527 13.8755 11.0527H21.4544C22.0067 11.0527 22.4544 11.5004 22.4544 12.0527C22.4544 12.605 22.0067 13.0527 21.4544 13.0527H13.8755ZM28.9741 32.3989H33.2163C34.8732 32.3989 36.2163 31.0557 36.2163 29.3989V18.0513C36.2163 16.3944 34.8732 15.0513 33.2163 15.0513H18.8503C18.298 15.0513 17.8503 15.499 17.8503 16.0513C17.8503 16.6036 18.298 17.0513 18.8503 17.0513H33.2163C33.7686 17.0513 34.2163 17.499 34.2163 18.0513V29.3989C34.2163 29.9512 33.7686 30.3989 33.2163 30.3989H28.9741V32.3989Z" fill="white"/>
<path id="Rectangle 582" d="M20.8713 11.4461C21.2636 11.0538 21.9003 11.0558 22.2901 11.4506L23.2835 12.4571C23.6698 12.8483 23.6677 13.4779 23.279 13.8667V13.8667C22.8867 14.259 22.25 14.2569 21.8602 13.8621L20.8668 12.8557C20.4806 12.4644 20.4826 11.8348 20.8713 11.4461V11.4461Z" fill="white"/>
<rect id="Rectangle 580" x="28.2314" y="30.3906" width="4.1875" height="2" rx="1" fill="white"/>
<rect id="Rectangle 581" x="15.3281" y="30.3906" width="4.1875" height="2" rx="1" fill="white"/>
</g>
</g>
</svg>
