<?xml version="1.0" encoding="UTF-8"?>
<svg width="131px" height="36px" viewBox="0 0 131 36" version="1.1" xmlns="http://www.w3.org/2000/svg" xmlns:xlink="http://www.w3.org/1999/xlink">
    <title>辰海集团_logo</title>
    <defs>
        <polygon id="path-1" points="0 0.263871 32.944563 0.263871 32.944563 28.89 0 28.89"></polygon>
        <polygon id="path-3" points="0.183978 0.1647 19.031328 0.1647 19.031328 25.052733 0.183978 25.052733"></polygon>
        <polygon id="path-5" points="0 35.0253 130.1103 35.0253 130.1103 0.9 0 0.9"></polygon>
    </defs>
    <g id="切图" stroke="none" stroke-width="1" fill="none" fill-rule="evenodd">
        <g transform="translate(-327.000000, -40.000000)" id="head">
            <g transform="translate(295.000000, 25.000000)">
                <g id="编组" transform="translate(32.000000, 15.000000)">
                    <g transform="translate(0.000000, 5.505300)">
                        <mask id="mask-2" fill="white">
                            <use xlink:href="#path-1"></use>
                        </mask>
                        <g id="Clip-2"></g>
                        <path d="M20.169513,23.867271 C10.787013,23.867271 3.181383,16.261371 3.181383,6.879141 C3.181383,4.532301 3.657123,2.296971 4.517343,0.263871 C1.713663,3.304071 -2.7e-05,7.365411 -2.7e-05,11.827431 C-2.7e-05,21.250971 7.639083,28.890081 17.062623,28.890081 C24.280263,28.890081 30.451113,24.408351 32.944563,18.076311 C29.830923,21.625731 25.262253,23.867271 20.169513,23.867271" id="Fill-1" fill="#24569D" mask="url(#mask-2)"></path>
                    </g>
                    <g transform="translate(4.590000, 0.105300)">
                        <mask id="mask-4" fill="white">
                            <use xlink:href="#path-3"></use>
                        </mask>
                        <g id="Clip-4"></g>
                        <path d="M4.335228,14.017293 C4.335228,7.201413 9.860508,1.676133 16.676388,1.676133 C17.482068,1.676133 18.268848,1.755783 19.031328,1.903203 C17.169138,0.800253 14.996988,0.164673 12.675798,0.164673 C5.776758,0.164673 0.183978,5.757723 0.183978,12.656763 C0.183978,19.040103 4.972698,24.301323 11.152998,25.052733 C7.111098,23.025843 4.335228,18.847053 4.335228,14.017293" id="Fill-3" fill="#24569D" mask="url(#mask-4)"></path>
                    </g>
                    <path d="M13.003551,16.466247 C13.003551,11.234997 17.244171,6.994377 22.475421,6.994377 C25.949511,6.994377 28.984851,8.866017 30.633201,11.654577 C29.777301,7.248447 25.899291,3.921507 21.242871,3.921507 C15.958701,3.921507 11.674881,8.205327 11.674881,13.489497 C11.674881,15.465087 12.274011,17.300547 13.299741,18.824967 C13.106421,18.070857 13.003551,17.280567 13.003551,16.466247" id="Fill-5" fill="#24569D"></path>
                    <path d="M31.011957,18.293607 C27.603477,17.267877 24.840027,14.311647 24.658857,10.775457 C24.658857,10.775457 24.658587,10.725237 24.644817,10.725237 C24.631047,10.725237 24.631047,10.775457 24.631047,10.775457 C24.449607,14.311647 21.686157,17.267877 18.277677,18.293607 C18.243117,18.304137 18.243117,18.348417 18.277677,18.358947 C21.686157,19.384947 24.449607,22.340637 24.631047,25.877097 C24.631047,25.877097 24.631047,25.927317 24.644817,25.927317 C24.658587,25.927317 24.658857,25.877097 24.658857,25.877097 C24.840027,22.340637 27.603477,19.384947 31.011957,18.358947 C31.046517,18.348417 31.046517,18.304137 31.011957,18.293607" id="Fill-7" fill="#CB2B20"></path>
                    <polygon id="Fill-9" fill="#231916" points="59.869773 20.735217 59.869773 18.765027 51.238143 18.765027 51.238143 21.179637 56.449953 27.121257 60.273693 27.121257 54.690903 20.735217"></polygon>
                    <path d="M40.333545,8.030988 L40.333545,27.121338 L41.815035,27.121338 C43.042185,27.121338 44.037135,26.126658 44.037135,24.899238 L44.037135,16.718508 L46.009485,16.718508 L46.009485,26.380728 C46.009485,26.790048 46.341045,27.121338 46.750365,27.121338 L53.300565,27.121338 L53.300565,25.151148 L49.713075,25.151148 L49.713075,16.718508 L59.869665,16.718508 L59.869665,14.893578 L44.037135,14.893578 L44.037135,13.170438 L59.869665,13.170438 L59.869665,11.345238 L44.037135,11.345238 L44.037135,10.001718 L60.306525,10.001718 L60.306525,8.030988 L40.333545,8.030988 Z" id="Fill-11" fill="#231916"></path>
                    <mask id="mask-6" fill="white">
                        <use xlink:href="#path-5"></use>
                    </mask>
                    <g id="Clip-14"></g>
                    <path d="M113.90841,25.15104 L126.40644,25.15104 L126.40644,9.70515 L113.90841,9.70515 L113.90841,25.15104 Z M110.20455,7.73442 L110.20455,27.12123 L127.88793,27.12123 C129.11535,27.12123 130.1103,26.12655 130.1103,24.89913 L130.1103,7.73442 L110.20455,7.73442 Z" id="Fill-13" fill="#231916" mask="url(#mask-6)"></path>
                    <path d="M69.873354,10.595178 L83.705994,10.606248 L83.705994,8.635788 L72.785844,8.635788 L73.256184,7.527168 L70.113654,7.527168 L69.198354,9.548928 C68.976684,10.039248 69.335244,10.595178 69.873354,10.595178" id="Fill-15" fill="#231916" mask="url(#mask-6)"></path>
                    <path d="M79.544322,25.206822 L78.477282,25.206822 L77.324112,20.712942 L74.536092,20.712942 L75.655782,25.206822 L73.219842,25.206822 L73.219842,20.009592 L79.544322,20.009592 L79.544322,25.206822 Z M73.219842,13.719132 L79.544322,13.719132 L79.544322,18.184392 L78.107922,18.184392 L77.167242,14.491602 L74.513682,14.491602 L75.420612,18.184392 L73.219842,18.184392 L73.219842,13.719132 Z M83.925342,18.184392 L83.248182,18.184392 L83.248182,11.893932 L69.515982,11.893932 L69.515982,18.184392 L68.839092,18.184392 L68.839092,20.009592 L69.515982,20.009592 L69.515982,27.032022 L81.025812,27.032022 C82.252962,27.032022 83.248182,26.036802 83.248182,24.809652 L83.248182,20.009592 L83.925342,20.009592 L83.925342,18.184392 Z" id="Fill-16" fill="#231916" mask="url(#mask-6)"></path>
                    <path d="M66.906783,8.587863 L63.534483,8.587863 C63.534483,8.587863 62.881353,9.422703 62.808723,12.181023 L65.999583,12.181023 C65.999583,12.181023 65.745243,10.384443 66.906783,8.587863" id="Fill-17" fill="#231916" mask="url(#mask-6)"></path>
                    <path d="M63.847278,17.705088 C63.847278,17.705088 65.140578,22.475988 62.940078,27.121338 L66.460338,27.121338 C66.460338,27.121338 68.116518,24.701868 67.038138,17.705088 L63.847278,17.705088 Z" id="Fill-18" fill="#231916" mask="url(#mask-6)"></path>
                    <path d="M66.763089,16.843032 C66.055419,14.955732 66.073509,13.068702 66.073509,13.068702 L62.882649,13.068702 C62.955279,15.966072 63.608679,16.843032 63.608679,16.843032 L66.763089,16.843032 Z" id="Fill-19" fill="#231916" mask="url(#mask-6)"></path>
                    <polygon id="Fill-20" fill="#231916" mask="url(#mask-6)" points="125.543979 11.773539 124.609779 11.773539 124.609779 10.508319 120.905919 10.508319 120.905919 11.773539 114.850899 11.773539 114.850899 13.598739 117.198819 13.598739 114.974559 23.940549 118.064979 23.940549 120.208509 13.598739 120.905919 13.598739 120.905919 24.179499 124.609779 24.179499 124.609779 13.598739 125.543979 13.598739"></polygon>
                    <path d="M91.19601,16.5294 L96.44859,16.5294 L96.44859,15.61977 L91.19601,15.61977 L91.19601,16.5294 Z M91.19601,13.79457 L96.44859,13.79457 L96.44859,12.88494 L91.19601,12.88494 L91.19601,13.79457 Z M91.19601,11.06001 L96.44859,11.06001 L96.44859,10.15038 L91.19601,10.15038 L91.19601,11.06001 Z M107.78562,19.59984 L99.06408,19.59984 L99.06408,18.35433 L106.93215,18.35433 L106.93215,16.52913 L100.15245,16.52913 L100.15245,15.61977 L106.93215,15.61977 L106.93215,13.79457 L100.15245,13.79457 L100.15245,12.88494 L106.93215,12.88494 L106.93215,11.06001 L100.15245,11.06001 L100.15245,10.15038 L106.93215,10.15038 L106.93215,8.32518 L100.08792,8.32518 L99.83601,7.54974 L96.13215,7.54974 L96.38433,8.32518 L91.19601,8.32518 L91.19601,7.54974 L88.01109,7.54974 L86.63625,8.29521 L86.63625,10.52595 L87.49215,10.11069 L87.49215,17.63181 C87.49215,18.03087 87.81561,18.35433 88.21494,18.35433 L95.36049,18.35433 L95.36049,19.59984 L86.63868,19.59984 L86.63868,21.42504 L90.00936,21.42504 L86.7726,27.054 L90.64305,27.054 L93.85254,21.42504 L95.36049,21.42504 L95.36049,27.13824 L99.06408,27.13824 L99.06408,21.42504 L100.57176,21.42504 L103.78098,27.054 L107.6517,27.054 L104.41467,21.42504 L107.78562,21.42504 L107.78562,19.59984 Z" id="Fill-21" fill="#231916" mask="url(#mask-6)"></path>
                </g>
            </g>
        </g>
    </g>
</svg>