<svg width="45" height="45" viewBox="0 0 45 45" fill="none" xmlns="http://www.w3.org/2000/svg">
<g id="Property 1=Variant2">
<circle id="Ellipse 149" cx="22.9333" cy="22.9756" r="22" fill="#00A3FF"/>
<g id="Frame">
<path id="Vector" d="M22.8802 8.57582C23.0084 8.57582 23.1234 8.60145 23.2515 8.6527C23.6096 8.79332 23.8396 9.15145 23.8396 9.5352L23.8396 17.2096C23.8396 17.7339 23.4046 18.1689 22.8802 18.1689C22.3558 18.1689 21.9208 17.7339 21.9208 17.2096L21.9209 11.8502L21.0002 12.7708C20.629 13.1421 20.0152 13.1421 19.6446 12.7708C19.2733 12.4002 19.2733 11.7858 19.6446 11.4152L22.2027 8.85707C22.3815 8.67832 22.6377 8.57582 22.8802 8.57582Z" fill="white"/>
<path id="Vector_2" d="M22.8822 8.57637C23.1253 8.57637 23.3684 8.66574 23.5603 8.85762L26.1178 11.4157C26.4891 11.7864 26.4891 12.4007 26.1178 12.7714C25.7466 13.1426 25.1328 13.1426 24.7622 12.7714L22.2041 10.2132C21.8328 9.84262 21.8328 9.22824 22.2041 8.85762C22.3959 8.66574 22.6391 8.57637 22.8822 8.57637Z" fill="white"/>
<path id="Rectangle 573" d="M34.0667 22.0273V31.3749C34.0667 31.9272 33.6189 32.3749 33.0667 32.3749H12.7073C12.155 32.3749 11.7073 31.9272 11.7073 31.3749V22.0273C11.7073 21.4751 12.155 21.0273 12.7073 21.0273H17.6188C17.9471 21.0273 18.3131 21.1996 18.6043 21.5368C19.031 22.0309 19.6493 22.6601 20.3961 23.1503C21.1361 23.6359 22.0988 24.0472 23.1737 23.9341C24.1851 23.8276 25.1448 23.368 25.9216 22.8805C26.7109 22.3851 27.39 21.8105 27.8516 21.3839C28.1079 21.147 28.409 21.0273 28.686 21.0273H33.0667C33.6189 21.0273 34.0667 21.4751 34.0667 22.0273Z" stroke="white" stroke-width="2"/>
<path id="Rectangle 574" d="M31.4221 20.9517V14.5293C31.4221 13.4247 30.5267 12.5293 29.4221 12.5293H28.2892M14.3518 20.9517V14.5293C14.3518 13.4247 15.2472 12.5293 16.3518 12.5293H17.9297" stroke="white" stroke-width="2" stroke-linecap="round"/>
</g>
</g>
</svg>
