<svg width="16" height="16" viewBox="0 0 16 16" fill="none" xmlns="http://www.w3.org/2000/svg">
<path d="M10.1263 12.8457C10.6209 12.6408 10.9162 12.194 10.9162 11.6506C10.9162 11.3998 10.8509 11.1699 10.7255 10.9705C10.8872 10.8679 11.0243 10.7308 11.1268 10.5691C11.2294 10.4073 11.295 10.2249 11.3188 10.0348C11.3427 9.84476 11.3242 9.65178 11.2648 9.46969C11.2054 9.28759 11.1065 9.12089 10.9751 8.98149C11.1448 8.80145 11.2595 8.57673 11.3059 8.33372C11.3523 8.09072 11.3284 7.83952 11.2369 7.60965L13.3166 7.60965C13.6304 7.60965 13.9315 7.48497 14.1534 7.26304C14.3753 7.0411 14.5 6.7401 14.5 6.42624C14.5 6.11238 14.3753 5.81137 14.1534 5.58944C13.9315 5.36751 13.6304 5.24283 13.3166 5.24283L9.65356 5.24283C9.88315 5.02362 10.0247 4.72806 10.0516 4.41177C10.0785 4.09547 9.98889 3.78025 9.7996 3.52543C9.61032 3.2706 9.33443 3.09373 9.02385 3.02811C8.71327 2.96249 8.38942 3.01264 8.11323 3.16913C7.89855 3.2804 4.94019 4.81228 3.94719 5.36512C3.88596 5.39415 3.82715 5.42803 3.77132 5.46642C3.76194 5.47264 3.75291 5.47897 3.74411 5.48577C3.58108 5.60393 3.44836 5.75904 3.35683 5.93839C3.2653 6.11774 3.21757 6.31622 3.21754 6.51758L3.21754 10.5101C3.21754 11.1205 3.32998 11.5092 3.58207 11.7703C3.83193 12.0291 4.14582 12.0829 4.42264 12.1303L9.36547 12.9308C9.62207 12.9736 9.88549 12.9441 10.1263 12.8457V12.8457ZM9.49597 12.1203L4.55901 11.3215C4.35757 11.2863 4.23071 11.2614 4.17208 11.2007C4.1219 11.1487 4.03783 10.9896 4.03783 10.5106L4.03783 6.51781C4.03763 6.44675 4.05422 6.37665 4.08625 6.31322C4.11828 6.2498 4.16484 6.19483 4.22215 6.15281C4.25052 6.13651 4.28206 6.11869 4.31595 6.09934C4.31829 6.0984 4.32052 6.09723 4.32286 6.09629C4.35689 6.08272 4.38895 6.06466 4.41819 6.04259C5.48072 5.45634 8.46487 3.91097 8.49735 3.89421L8.51399 3.88506C8.62439 3.82133 8.75558 3.80406 8.87871 3.83704C9.00185 3.87002 9.10684 3.95056 9.1706 4.06094C9.23416 4.171 9.25155 4.30175 9.21897 4.4246C9.18638 4.54745 9.10647 4.6524 8.99672 4.71649C8.9429 4.7465 8.33085 5.08934 8.0505 5.24892C7.94889 5.26574 7.85733 5.32016 7.79397 5.40136C7.73062 5.48256 7.70012 5.58461 7.70852 5.68726C7.71692 5.78991 7.76361 5.88565 7.83932 5.95547C7.91503 6.02529 8.01423 6.06409 8.11722 6.06417L13.3166 6.06417C13.4128 6.06417 13.505 6.10238 13.573 6.17039C13.641 6.2384 13.6792 6.33064 13.6792 6.42682C13.6792 6.52301 13.641 6.61525 13.573 6.68326C13.505 6.75127 13.4128 6.78948 13.3166 6.78948L8.89025 6.78948C8.78141 6.78948 8.67703 6.83272 8.60007 6.90968C8.52311 6.98664 8.47987 7.09102 8.47987 7.19986C8.47987 7.3087 8.52311 7.41308 8.60007 7.49004C8.67703 7.567 8.78141 7.61024 8.89025 7.61024L10.0276 7.61024C10.1551 7.61024 10.2774 7.66089 10.3675 7.75104C10.4577 7.84119 10.5083 7.96347 10.5083 8.09097C10.5083 8.21846 10.4577 8.34074 10.3675 8.43089C10.2774 8.52105 10.1551 8.57169 10.0276 8.57169L9.0075 8.57169C8.89866 8.57169 8.79428 8.61493 8.71732 8.69189C8.64036 8.76885 8.59713 8.87323 8.59713 8.98207C8.59713 9.09091 8.64036 9.19529 8.71732 9.27225C8.79428 9.34921 8.89866 9.39245 9.0075 9.39245L10.0276 9.39245C10.0907 9.39245 10.1532 9.40488 10.2116 9.42904C10.2699 9.4532 10.3229 9.48861 10.3675 9.53325C10.4122 9.57789 10.4476 9.63089 10.4717 9.68921C10.4959 9.74754 10.5083 9.81005 10.5083 9.87318C10.5083 9.93631 10.4959 9.99882 10.4717 10.0571C10.4476 10.1155 10.4122 10.1685 10.3675 10.2131C10.3229 10.2577 10.2699 10.2932 10.2116 10.3173C10.1532 10.3415 10.0907 10.3539 10.0276 10.3539L9.0075 10.3539C8.89866 10.3539 8.79428 10.3971 8.71732 10.4741C8.64036 10.5511 8.59713 10.6554 8.59713 10.7643C8.59713 10.8731 8.64036 10.9775 8.71732 11.0545C8.79428 11.1314 8.89866 11.1747 9.0075 11.1747L9.6899 11.1747C9.77913 11.1988 9.86227 11.2415 9.9339 11.2999C10.0445 11.3915 10.0961 11.503 10.0961 11.6509C10.0961 11.915 9.94199 12.0342 9.81278 12.0878C9.71247 12.1279 9.60298 12.1393 9.49656 12.1208L9.49597 12.1203Z" fill="#1890FF"/>
<path d="M2.5 6.14701H3.67282V11.3503H2.5C2.16863 11.3503 1.9 11.0816 1.9 10.7503V6.74701C1.9 6.41564 2.16863 6.14701 2.5 6.14701Z" stroke="#1890FF" stroke-width="0.8"/>
</svg>
