<svg width="16" height="16" viewBox="0 0 16 16" fill="none" xmlns="http://www.w3.org/2000/svg">
<path d="M15.125 10.625H13.625V2.9375C13.625 2.31875 13.1188 1.8125 12.5 1.8125H8.1875L7.3625 0.65C7.30625 0.55625 7.175 0.5 7.0625 0.5H2.75C2.54375 0.5 2.375 0.66875 2.375 0.875V10.625H0.875C0.66875 10.625 0.5 10.7937 0.5 11V13.25C0.5 14.4875 1.5125 15.5 2.75 15.5H13.25C14.4875 15.5 15.5 14.4875 15.5 13.25V11C15.5 10.7937 15.3313 10.625 15.125 10.625V10.625ZM3.125 1.25H6.875L7.7 2.4125C7.775 2.50625 7.8875 2.5625 8 2.5625H12.5C12.7063 2.5625 12.875 2.73125 12.875 2.9375V10.625H9.875C9.66875 10.625 9.5 10.7937 9.5 11C9.5 11.825 8.825 12.5 8 12.5C7.175 12.5 6.5 11.825 6.5 11C6.5 10.7937 6.33125 10.625 6.125 10.625H3.125V1.25ZM14.75 13.25C14.75 14.075 14.075 14.75 13.25 14.75H2.75C1.925 14.75 1.25 14.075 1.25 13.25V11.375H5.7875C5.975 12.4438 6.89375 13.25 8 13.25C9.10625 13.25 10.0437 12.4438 10.2125 11.375H14.75V13.25V13.25Z" fill="#1890FF"/>
<path d="M7.62501 8.9375C7.62501 9.14375 7.79376 9.3125 8.00001 9.3125C8.20626 9.3125 8.37501 9.14375 8.37501 8.9375V5.13125L10.1 6.8375C10.25 6.9875 10.4938 6.9875 10.625 6.8375C10.775 6.6875 10.775 6.44375 10.625 6.3125L8.26251 3.96875H8.24376C8.22501 3.95 8.20626 3.95 8.20626 3.93125C8.18751 3.93125 8.18751 3.9125 8.16876 3.9125C8.15001 3.9125 8.15001 3.89375 8.13126 3.89375C8.11251 3.89375 8.11251 3.89375 8.09376 3.875H7.86876C7.85001 3.875 7.85001 3.875 7.83126 3.89375C7.81251 3.89375 7.81251 3.9125 7.79376 3.9125C7.77501 3.9125 7.77501 3.93125 7.75626 3.93125L7.71876 3.96875C7.71876 3.96875 7.70001 3.96875 7.70001 3.9875L5.37501 6.3125C5.22501 6.4625 5.22501 6.6875 5.37501 6.8375C5.45001 6.9125 5.54376 6.95 5.63751 6.95C5.73126 6.95 5.82501 6.9125 5.90001 6.8375L7.62501 5.13125V8.9375V8.9375Z" fill="#1890FF"/>
</svg>
