<?xml version="1.0" encoding="UTF-8"?>
<svg width="14px" height="14px" viewBox="0 0 14 14" version="1.1" xmlns="http://www.w3.org/2000/svg" xmlns:xlink="http://www.w3.org/1999/xlink">
    <!-- Generator: Sketch 58 (84663) - https://sketch.com -->
    <title>Shape</title>
    <desc>Created with Sketch.</desc>
    <g id="页面-1" stroke="none" stroke-width="1" fill="none" fill-rule="evenodd">
        <g id="数据分析" transform="translate(-347.000000, -198.000000)" fill-rule="nonzero">
            <g id="1" transform="translate(232.000000, 122.000000)">
                <g id="流程进度备份">
                    <g id="提示" transform="translate(115.000000, 76.000000)">
                        <path d="M7,0 C10.8660403,0 14,3.0831662 14,6.88654781 C14,10.6899294 10.8660403,13.7730956 7,13.7730956 C3.13395972,13.7730956 0,10.6899294 0,6.88654781 C0,3.0831662 3.13395972,0 7,0 Z" id="Shape" fill="#F2AB59"></path>
                        <path d="M7.0585492,2.95137763 C6.21530892,2.95137763 5.55945538,3.20485842 5.09098856,3.71182 C4.62252174,4.19573788 4.4,4.84096171 4.4,5.64749149 L5.32522197,5.64749149 C5.32522197,5.08292064 5.45405034,4.64509019 5.71170709,4.32247827 C5.99278719,3.94225709 6.42611899,3.75790742 7.01170252,3.75790742 C7.50359268,3.75790742 7.8900778,3.88464782 8.15944622,4.16117231 C8.41710297,4.4146531 8.55764302,4.77183058 8.55764302,5.23270475 C8.55764302,5.55531666 8.44052632,5.85488487 8.20629291,6.14293122 C8.13602288,6.23510605 7.99548284,6.3733683 7.80809611,6.55771797 C7.1756659,7.11076696 6.78918078,7.54859742 6.62521739,7.89425304 C6.48467735,8.1822994 6.41440732,8.51643317 6.41440732,8.89665435 L6.41440732,9.161657 L7.35134096,9.161657 L7.35134096,8.89665435 C7.35134096,8.58556429 7.42161098,8.30903979 7.5738627,8.055559 C7.67145995,7.88273119 7.80972273,7.70990338 8.0022062,7.53040783 L8.50150443,7.08786176 C8.79729671,6.82110184 8.98778074,6.63522862 9.07295652,6.53467426 C9.36574828,6.15445307 9.518,5.70510076 9.518,5.18661733 C9.518,4.49530608 9.29547826,3.95377894 8.86214645,3.5620359 C8.4053913,3.14724915 7.80809611,2.95137763 7.0585492,2.95137763 Z M6.88287414,9.96818678 C7.08197254,9.96818678 7.2576476,10.0257961 7.39818764,10.1640583 C7.52701602,10.2907987 7.59728604,10.4521047 7.59728604,10.6479762 C7.59728604,10.8553695 7.52701602,11.0166755 7.38647597,11.1434159 C7.24593593,11.2701563 7.08197254,11.3392874 6.88287414,11.3392874 C6.68377574,11.3392874 6.51981236,11.2701563 6.37927231,11.1434159 C6.23873227,11.0051537 6.18017391,10.8438477 6.18017391,10.6479762 C6.18017391,10.4521047 6.23873227,10.2907987 6.37927231,10.1640583 C6.51981236,10.0257961 6.68377574,9.96818678 6.88287414,9.96818678 Z" id="？" fill="#FFFFFF"></path>
                    </g>
                </g>
            </g>
        </g>
    </g>
</svg>