<?xml version="1.0" encoding="UTF-8"?>
<svg width="15px" height="15px" viewBox="0 0 15 15" version="1.1" xmlns="http://www.w3.org/2000/svg" xmlns:xlink="http://www.w3.org/1999/xlink">
    <title>操作_定位到字段</title>
    <defs>
        <polygon id="path-1" points="0 0 15.0250198 0 15.0250198 15.0250854 0 15.0250854"></polygon>
        <polygon id="path-3" points="0 0 15.0250198 0 15.0250198 15.0250854 0 15.0250854"></polygon>
    </defs>
    <g id="切图" stroke="none" stroke-width="1" fill="none" fill-rule="evenodd">
        <g transform="translate(-448.000000, -206.000000)">
            <rect fill="#787878" x="0" y="0" width="2736" height="1291"></rect>
            <g id="编组-4" transform="translate(307.000000, 137.000000)">
                <rect id="矩形" fill="#FFFFFF" x="0" y="28" width="375" height="123"></rect>
                <g id="编组" transform="translate(141.000000, 69.000000)">
                    <mask id="mask-2" fill="white">
                        <use xlink:href="#path-1"></use>
                    </mask>
                    <g id="Clip-2"></g>
                    <path d="M7.51250992,6.43931963 C8.1052258,6.43931963 8.58576575,6.91985958 8.58576575,7.51257546 C8.58576575,8.10529134 8.1052258,8.58583129 7.51250992,8.58583129 C6.91979404,8.58583129 6.43925408,8.10529134 6.43925408,7.51257546 C6.43925408,6.91985958 6.91979404,6.43931963 7.51250992,6.43931963 M8.0490442,2.17326347 L8.0490442,3.75627369 C8.0490442,4.05272526 7.80886786,4.2929016 7.51250992,4.2929016 C7.21615198,4.2929016 6.97597564,4.05272526 6.97597564,3.75627369 L6.97597564,2.17326347 C4.43666095,2.42879611 2.42826239,4.43663286 2.17226156,6.97594755 L3.75630178,6.97594755 C4.05265972,6.97594755 4.29283606,7.21621752 4.29283606,7.51257546 C4.29283606,7.8089334 4.05265972,8.04910974 3.75630178,8.04910974 L2.17329156,8.04910974 C2.42910511,10.5876753 4.43638004,12.5954184 6.974852,12.8517938 L6.97597564,11.2688772 C6.97597564,10.9724257 7.21615198,10.7322493 7.51250992,10.7322493 C7.80886786,10.7322493 8.0490442,10.9724257 8.0490442,11.2688772 L8.0490442,12.8517938 C10.5877034,12.5959803 12.5953529,10.5886117 12.8517283,8.05023337 L11.2688117,8.04910974 C10.9723601,8.04910974 10.7321838,7.8089334 10.7321838,7.51257546 C10.7321838,7.21621752 10.9723601,6.97594755 11.2688117,6.97594755 L12.8517283,6.97594755 C12.5958211,4.43710104 10.5879843,2.42926429 8.0490442,2.17326347 M7.51250992,-2.80908e-05 C7.80886786,-2.80908e-05 8.0490442,0.240335521 8.0490442,0.536693461 L8.0490442,1.09467039 C11.1821984,1.35685119 13.6683278,3.84279335 13.9303214,6.97594755 L14.4883919,6.97594755 C14.7848435,6.97594755 15.0250198,7.21621752 15.0250198,7.51257546 C15.0250198,7.8089334 14.7848435,8.04910974 14.4883919,8.04910974 L13.9303214,8.04910974 C13.6683278,11.1822639 11.1821984,13.6682997 8.0490442,13.9303869 L8.0490442,14.4884575 C8.0490442,14.784909 7.80886786,15.0250854 7.51250992,15.0250854 C7.21615198,15.0250854 6.97597564,14.784909 6.97597564,14.4884575 L6.97597564,13.9303869 C3.8427278,13.6682997 1.35678564,11.1822639 1.09469848,8.04910974 L0.536627916,8.04910974 C0.240269976,8.04910974 0,7.8089334 0,7.51257546 C0,7.21621752 0.240269976,6.97594755 0.536627916,6.97594755 L1.09469848,6.97594755 C1.35678564,3.84279335 3.8427278,1.35685119 6.97597564,1.09467039 L6.97597564,0.536693461 C6.97597564,0.240335521 7.21615198,-2.80908e-05 7.51250992,-2.80908e-05" id="Fill-1" fill="#1890FF" mask="url(#mask-2)"></path>
                </g>
                <g id="编组" transform="translate(141.000000, 69.000000)">
                    <mask id="mask-4" fill="white">
                        <use xlink:href="#path-3"></use>
                    </mask>
                    <g id="Clip-2"></g>
                    <path d="M7.51250992,6.43931963 C8.1052258,6.43931963 8.58576575,6.91985958 8.58576575,7.51257546 C8.58576575,8.10529134 8.1052258,8.58583129 7.51250992,8.58583129 C6.91979404,8.58583129 6.43925408,8.10529134 6.43925408,7.51257546 C6.43925408,6.91985958 6.91979404,6.43931963 7.51250992,6.43931963 M8.0490442,2.17326347 L8.0490442,3.75627369 C8.0490442,4.05272526 7.80886786,4.2929016 7.51250992,4.2929016 C7.21615198,4.2929016 6.97597564,4.05272526 6.97597564,3.75627369 L6.97597564,2.17326347 C4.43666095,2.42879611 2.42826239,4.43663286 2.17226156,6.97594755 L3.75630178,6.97594755 C4.05265972,6.97594755 4.29283606,7.21621752 4.29283606,7.51257546 C4.29283606,7.8089334 4.05265972,8.04910974 3.75630178,8.04910974 L2.17329156,8.04910974 C2.42910511,10.5876753 4.43638004,12.5954184 6.974852,12.8517938 L6.97597564,11.2688772 C6.97597564,10.9724257 7.21615198,10.7322493 7.51250992,10.7322493 C7.80886786,10.7322493 8.0490442,10.9724257 8.0490442,11.2688772 L8.0490442,12.8517938 C10.5877034,12.5959803 12.5953529,10.5886117 12.8517283,8.05023337 L11.2688117,8.04910974 C10.9723601,8.04910974 10.7321838,7.8089334 10.7321838,7.51257546 C10.7321838,7.21621752 10.9723601,6.97594755 11.2688117,6.97594755 L12.8517283,6.97594755 C12.5958211,4.43710104 10.5879843,2.42926429 8.0490442,2.17326347 M7.51250992,-2.80908e-05 C7.80886786,-2.80908e-05 8.0490442,0.240335521 8.0490442,0.536693461 L8.0490442,1.09467039 C11.1821984,1.35685119 13.6683278,3.84279335 13.9303214,6.97594755 L14.4883919,6.97594755 C14.7848435,6.97594755 15.0250198,7.21621752 15.0250198,7.51257546 C15.0250198,7.8089334 14.7848435,8.04910974 14.4883919,8.04910974 L13.9303214,8.04910974 C13.6683278,11.1822639 11.1821984,13.6682997 8.0490442,13.9303869 L8.0490442,14.4884575 C8.0490442,14.784909 7.80886786,15.0250854 7.51250992,15.0250854 C7.21615198,15.0250854 6.97597564,14.784909 6.97597564,14.4884575 L6.97597564,13.9303869 C3.8427278,13.6682997 1.35678564,11.1822639 1.09469848,8.04910974 L0.536627916,8.04910974 C0.240269976,8.04910974 0,7.8089334 0,7.51257546 C0,7.21621752 0.240269976,6.97594755 0.536627916,6.97594755 L1.09469848,6.97594755 C1.35678564,3.84279335 3.8427278,1.35685119 6.97597564,1.09467039 L6.97597564,0.536693461 C6.97597564,0.240335521 7.21615198,-2.80908e-05 7.51250992,-2.80908e-05" id="Fill-1" fill="#1890FF" mask="url(#mask-4)"></path>
                </g>
            </g>
        </g>
    </g>
</svg>