<?xml version="1.0" encoding="UTF-8"?>
<svg width="15px" height="15px" viewBox="0 0 15 15" version="1.1" xmlns="http://www.w3.org/2000/svg" xmlns:xlink="http://www.w3.org/1999/xlink">
    <title>操作_禁用</title>
    <defs>
        <polygon id="path-1" points="0.0021205632 0.00944111616 14.7784908 0.00944111616 14.7784908 14.7878305 0.0021205632 14.7878305"></polygon>
    </defs>
    <g id="切图" stroke="none" stroke-width="1" fill="none" fill-rule="evenodd">
        <g transform="translate(-543.000000, -206.000000)" id="编组-4">
            <g transform="translate(307.000000, 137.000000)">
                <g id="编组" transform="translate(236.000000, 69.000000)">
                    <mask id="mask-2" fill="white">
                        <use xlink:href="#path-1"></use>
                    </mask>
                    <g id="Clip-2"></g>
                    <path d="M12.1182903,11.6843401 L3.10349956,2.66954935 C4.21181653,1.63499111 5.7636078,0.969964047 7.38924999,0.969964047 C10.9360302,0.969964047 13.8178756,3.85180944 13.8178756,7.39868188 C13.8178756,9.02423187 13.1528486,10.5759309 12.1182903,11.6843401 M0.960532151,7.39868188 C0.960532151,5.84689061 1.47785737,4.44289338 2.36452939,3.33457641 L11.3794123,12.3493672 C10.2710032,13.2361314 8.86700594,13.7532722 7.31530687,13.7532722 C3.84237754,13.8272153 0.960532151,10.9453699 0.960532151,7.39868188 M7.38924999,0.00944111616 C3.32514452,0.00944111616 9.21984e-06,3.33457641 9.21984e-06,7.39868188 C9.21984e-06,11.4626952 3.32514452,14.7878305 7.38924999,14.7878305 C11.4532633,14.7878305 14.7784908,11.4626952 14.7784908,7.39868188 C14.7784908,3.33457641 11.4532633,0.00944111616 7.38924999,0.00944111616" id="Fill-1" fill="#1890FF" mask="url(#mask-2)"></path>
                </g>
            </g>
        </g>
    </g>
</svg>