<?xml version="1.0" encoding="UTF-8"?>
<svg width="15px" height="15px" viewBox="0 0 15 15" version="1.1" xmlns="http://www.w3.org/2000/svg" xmlns:xlink="http://www.w3.org/1999/xlink">
    <title>操作_替换模版</title>
    <defs>
        <polygon id="path-1" points="0 0.000864 14.738784 0.000864 14.738784 14.7396864 0 14.7396864"></polygon>
    </defs>
    <g id="切图" stroke="none" stroke-width="1" fill="none" fill-rule="evenodd">
        <g transform="translate(-543.000000, -233.000000)" id="编组-4">
            <g transform="translate(307.000000, 137.000000)">
                <g id="编组" transform="translate(236.000000, 96.000000)">
                    <mask id="mask-2" fill="white">
                        <use xlink:href="#path-1"></use>
                    </mask>
                    <g id="Clip-2"></g>
                    <path d="M5.853072,0.9739584 L5.854416,0.9739584 C6.060912,0.9739584 6.25128,1.1658624 6.2500381,1.4069184 L6.2500381,5.1681984 C6.2500381,5.4105024 6.075696,5.6022144 5.853072,5.6022144 L1.926096,5.6022144 C1.703472,5.6022144 1.529136,5.4105024 1.529136,5.1681984 L1.529136,1.4069184 C1.529136,1.1658624 1.703472,0.9739584 1.926096,0.9739584 L5.853072,0.9739584 Z M12.833328,9.1653504 L8.908944,9.1653504 C8.686032,9.1653504 8.511792,9.3572544 8.511792,9.5983104 L8.511792,13.3585344 C8.511792,13.6006464 8.686032,13.7924544 8.908944,13.7924544 L12.83448,13.7924544 C13.057008,13.7924544 13.231536,13.6006464 13.231536,13.3585344 L13.231536,9.5983104 C13.231536,9.3572544 13.042224,9.1653504 12.83592,9.1653504 L12.833328,9.1653504 Z M13.656816,8.1802944 C13.949424,8.1802944 14.218512,8.4519744 14.218512,8.7952704 L14.218512,14.1258624 C14.218512,14.4690624 13.9716,14.7396864 13.655664,14.7396864 L8.090352,14.7396864 C7.77288,14.7396864 7.527024,14.4690624 7.527024,14.1247104 L7.527024,8.7952704 C7.527024,8.4534144 7.77288,8.1818304 8.090352,8.1818304 L13.656816,8.1818304 L13.656816,8.1802944 Z M5.587536,13.5120384 C3.672528,13.3401024 2.207472,12.0619584 2.13864,9.9504384 L3.198192,9.9504384 L1.600368,7.5665664 L-4.8e-05,9.9479424 L1.059408,9.9479424 C1.103664,12.6757824 3.018768,14.4443904 5.476944,14.6902464 C5.791632,14.7153024 6.085488,14.4443904 6.085488,14.0999424 C6.090096,13.8070464 5.878416,13.5548544 5.588784,13.5098304 L5.587536,13.5120384 Z M6.671664,-5.76e-05 L1.103664,-5.76e-05 C0.789168,-5.76e-05 0.54072,0.2704704 0.54072,0.6149184 L0.54072,5.9209344 C0.54072,6.2653824 0.787728,6.5345664 1.103664,6.5345664 L6.66936,6.5345664 C6.985008,6.5345664 7.232208,6.2640384 7.232208,5.9197824 L7.232208,0.6160704 C7.232208,0.2718144 6.985008,0.0010944 6.66936,0.0010944 L6.671664,0.0010944 L6.671664,-5.76e-05 Z M9.14952,1.2052224 C10.86168,1.3775424 12.237264,2.4082944 12.529584,4.1769024 L11.539056,4.1769024 L13.13784,6.5603904 L14.739696,4.1780544 L13.63464,4.1780544 C13.34232,1.7958144 11.539056,0.2459904 9.262512,0.0257664 C8.948016,0.0010944 8.654256,0.2718144 8.654256,0.6160704 C8.674896,0.9114624 8.877936,1.1795904 9.14952,1.2052224 L9.14952,1.2052224 Z" id="Fill-1" fill="#1890FF" mask="url(#mask-2)"></path>
                </g>
            </g>
        </g>
    </g>
</svg>