<?xml version="1.0" encoding="UTF-8"?>
<svg width="15px" height="15px" viewBox="0 0 15 15" version="1.1" xmlns="http://www.w3.org/2000/svg" xmlns:xlink="http://www.w3.org/1999/xlink">
    <title>操作_查看详情</title>
    <defs>
        <polygon id="path-1" points="0.0249717114 0.00169771707 6.75646481 0.00169771707 6.75646481 6.64713816 0.0249717114 6.64713816"></polygon>
    </defs>
    <g id="切图" stroke="none" stroke-width="1" fill="none" fill-rule="evenodd">
        <g transform="translate(-330.000000, -206.000000)" id="编组-4">
            <g transform="translate(307.000000, 137.000000)">
                <g id="编组" transform="translate(23.000000, 69.000000)">
                    <path d="M2.79611307,9.78944983 L5.99168369,9.78944983 L5.99168369,8.72419973 L2.79611307,8.72419973 L2.79611307,9.78944983 Z M2.79611307,6.97061071 L9.98598977,6.97061071 L9.98598977,5.90554027 L2.79611307,5.90554027 L2.79611307,6.97061071 Z M2.79611307,4.20261327 L9.98598977,4.20261327 L9.98598977,3.13754283 L2.79611307,3.13754283 L2.79611307,4.20261327 Z" id="Fill-1" fill="#1890FF"></path>
                    <g transform="translate(0.000000, 0.021738)">
                        <path d="M5.7299568,13.3969639 L1.06527704,13.3969639 L1.06527704,1.14735133 L11.7169695,1.14735133 L11.7169695,6.94896257 C11.7169695,7.2431437 11.9554583,7.48163253 12.2495497,7.48163253 C12.543641,7.48163253 12.7821298,7.2431437 12.7821298,6.94896257 L12.7821298,1.14735133 C12.7821298,0.559977154 12.3042539,0.0821012382 11.7169695,0.0821012382 L1.06527704,0.0821012382 C0.477813038,0.0821012382 2.694789e-05,0.559977154 2.694789e-05,1.14735133 L2.694789e-05,13.3969639 C2.694789e-05,13.9842482 0.477813038,14.4620343 1.06527704,14.4620343 L5.7299568,14.4620343 C6.02413793,14.4620343 6.26262676,14.2235455 6.26262676,13.9294542 C6.26262676,13.635273 6.02413793,13.3969639 5.7299568,13.3969639" id="Fill-2" fill="#1890FF"></path>
                        <g transform="translate(7.186104, 7.994541)">
                            <mask id="mask-2" fill="white">
                                <use xlink:href="#path-1"></use>
                            </mask>
                            <g id="Clip-5"></g>
                            <path d="M2.82099495,4.52876358 C1.86659051,4.52876358 1.09013198,3.75212539 1.09013198,2.79772096 C1.09013198,1.84340635 1.86659051,1.06694781 2.82099495,1.06694781 C3.77539939,1.06694781 4.55194775,1.84340635 4.55194775,2.79772096 C4.55194775,3.75212539 3.77548922,4.52876358 2.82099495,4.52876358 M6.60393975,5.74150846 L5.18064203,4.2914425 C5.46557105,3.84536509 5.61692837,3.32715717 5.61710802,2.79772096 C5.61710802,1.256122 4.36295322,0.00169771707 2.82099495,0.00169771707 C1.27921634,0.00169771707 0.0249717114,1.256122 0.0249717114,2.79772096 C0.0249717114,4.3395894 1.27921634,5.59383402 2.82099495,5.59383402 C3.42858004,5.59383402 3.98972494,5.39693477 4.44891699,5.06664347 L5.84364995,6.48769553 C5.94371644,6.58991786 6.08070155,6.6474067 6.2236152,6.64713816 C6.43830005,6.64722704 6.63187573,6.51859578 6.71496506,6.32079827 C6.79796456,6.12300076 6.75430898,5.8946623 6.60393975,5.74150846" id="Fill-4" fill="#1890FF" mask="url(#mask-2)"></path>
                        </g>
                    </g>
                </g>
            </g>
        </g>
    </g>
</svg>