<?xml version="1.0" encoding="UTF-8"?>
<svg width="16px" height="16px" viewBox="0 0 16 16" version="1.1" xmlns="http://www.w3.org/2000/svg" xmlns:xlink="http://www.w3.org/1999/xlink">
    <title>操作_删除</title>
    <g id="切图" stroke="none" stroke-width="1" fill="none" fill-rule="evenodd">
        <g transform="translate(-415.000000, -234.000000)" id="编组-4" stroke="#1890FF">
            <g transform="translate(307.000000, 137.000000)">
                <g id="编组" transform="translate(108.000000, 97.000000)">
                    <path d="M4.99999094,3 L4.99999094,2 C4.99999094,1.44771525 5.44770619,1 5.99999094,1 L9.99999094,1 C10.5522757,1 10.9999909,1.44771525 10.9999909,2 L10.9999909,3" id="路径"></path>
                    <line x1="1" y1="3.07065018" x2="15" y2="3.07065018" id="路径-2" stroke-linecap="round"></line>
                    <path d="M12.9999909,3 L12.9999909,13.1538462 C12.9999909,14.1734488 12.2537989,15 11.3333243,15 L4.66665761,15 C3.74618302,15 2.99999094,14.1734488 2.99999094,13.1538462 L2.99999094,3 L2.99999094,3" id="路径"></path>
                    <line x1="6.75787304" y1="6.63108147" x2="6.75787304" y2="11.5731477" id="路径-5" stroke-linecap="round"></line>
                    <line x1="9.38995658" y1="6.63108147" x2="9.38995658" y2="11.5731477" id="路径-9" stroke-linecap="round"></line>
                </g>
            </g>
        </g>
    </g>
</svg>