<?xml version="1.0" encoding="UTF-8"?>
<svg width="16px" height="19px" viewBox="0 0 16 19" version="1.1" xmlns="http://www.w3.org/2000/svg" xmlns:xlink="http://www.w3.org/1999/xlink">
    <title>删除</title>
    <defs>
        <polygon id="path-1" points="0.0001 0.01662 15.061235 0.01662 15.061235 2.61342 0.0001 2.61342"></polygon>
    </defs>
    <g id="切图" stroke="none" stroke-width="1" fill="none" fill-rule="evenodd">
        <g transform="translate(-545.000000, -1238.000000)" id="编组-3">
            <g transform="translate(509.000000, 942.000000)">
                <g id="btn/delete" transform="translate(20.000000, 289.000000)">
                    <g id="编组" transform="translate(16.000000, 7.000000)">
                        <path d="M5.71297,5.24524 C5.99967,5.24524 6.23227,5.47764 6.23227,5.76454 L6.23227,13.99314 C6.23227,14.17854 6.13327,14.35004 5.97267,14.44294 C5.81187,14.53564 5.61397,14.53564 5.45317,14.44294 C5.29257,14.35004 5.19357,14.17854 5.19357,13.99314 L5.19357,5.76454 C5.19357,5.47764 5.42617,5.24524 5.71297,5.24524 M9.34837,5.24524 C9.63527,5.24524 9.86777,5.47764 9.86777,5.76454 L9.86777,13.99314 C9.86777,14.17854 9.76877,14.35004 9.60797,14.44294 C9.44737,14.53564 9.24937,14.53564 9.08867,14.44294 C8.92797,14.35004 8.82897,14.17854 8.82897,13.99314 L8.82897,5.76454 C8.82897,5.47764 9.06157,5.24524 9.34837,5.24524" id="Fill-1" fill="#FFFFFF"></path>
                        <g transform="translate(0.000000, 0.083900)">
                            <path d="M11.42576,17.67443 L3.63556,17.67443 C2.20366,17.67443 1.03876,16.60923 1.03876,15.30053 L1.03876,4.17143 C1.03876,3.98583 1.13776,3.81433 1.29856,3.72173 C1.45916,3.62893 1.65706,3.62893 1.81786,3.72173 C1.97846,3.81433 2.07756,3.98583 2.07756,4.17143 L2.07756,15.30053 C2.07756,16.03693 2.77656,16.63563 3.63556,16.63563 L11.42576,16.63563 C12.28476,16.63563 12.98376,16.03693 12.98376,15.30053 L12.98376,4.17143 C12.98376,3.88453 13.21626,3.65203 13.50306,3.65203 C13.78996,3.65203 14.02256,3.88453 14.02256,4.17143 L14.02256,15.30053 C14.02256,16.60923 12.85756,17.67443 11.42576,17.67443" id="Fill-3" fill="#FFFFFF"></path>
                            <g>
                                <mask id="mask-2" fill="white">
                                    <use xlink:href="#path-1"></use>
                                </mask>
                                <g id="Clip-6"></g>
                                <path d="M0.51951,1.57462 L14.54181,1.57462 C14.72741,1.57462 14.89891,1.67362 14.99171,1.83442 C15.08441,1.99502 15.08441,2.19302 14.99171,2.35372 C14.89891,2.51432 14.72741,2.61342 14.54181,2.61342 L0.51951,2.61342 C0.33401,2.61342 0.16241,2.51432 0.06961,2.35372 C-0.02319,2.19302 -0.02319,1.99502 0.06961,1.83442 C0.16241,1.67362 0.33401,1.57462 0.51951,1.57462 M6.23231,0.01662 L8.82901,0.01662 C9.11591,0.01662 9.34831,0.24912 9.34831,0.53602 C9.34831,0.82272 9.11591,1.05532 8.82901,1.05532 L6.23231,1.05532 C5.94541,1.05532 5.71301,0.82272 5.71301,0.53602 C5.71301,0.24912 5.94541,0.01662 6.23231,0.01662" id="Fill-5" fill="#FFFFFF" mask="url(#mask-2)"></path>
                            </g>
                        </g>
                    </g>
                </g>
            </g>
        </g>
    </g>
</svg>