<svg  xmlns="http://www.w3.org/2000/svg" xmlns:xlink="http://www.w3.org/1999/xlink" width="483px" height="205px"><defs><filter id="Filter_0">                <feOffset in="SourceAlpha" dx="0" dy="1" />                <feGaussianBlur result="blurOut" stdDeviation="1.414" />                <feFlood flood-color="rgb(222, 36, 5)" result="floodOut" />                <feComposite operator="out" in="floodOut" in2="blurOut" result="compOut" />                <feComposite operator="in" in="compOut" in2="SourceAlpha" />                <feComponentTransfer><feFuncA type="linear" slope="0.41"/></feComponentTransfer>                <feBlend mode="normal" in2="SourceGraphic" />            </filter><linearGradient id="PSgrad_0" x1="0%" x2="0%" y1="100%" y2="0%">  <stop offset="0%" stop-color="rgb(252,221,126)" stop-opacity="1" />  <stop offset="100%" stop-color="rgb(253,158,23)" stop-opacity="1" /></linearGradient><filter id="Filter_1">                <feFlood flood-color="rgb(248, 105, 18)" flood-opacity="1" result="floodOut" />                <feComposite operator="atop" in="floodOut" in2="SourceGraphic" result="compOut" />                <feBlend mode="normal" in="compOut" in2="SourceGraphic" />            </filter><filter id="Filter_2">                <feFlood flood-color="rgb(248, 105, 18)" flood-opacity="1" result="floodOut" />                <feComposite operator="atop" in="floodOut" in2="SourceGraphic" result="compOut" />                <feBlend mode="normal" in="compOut" in2="SourceGraphic" />            </filter><filter id="Filter_3">                <feFlood flood-color="rgb(248, 105, 18)" flood-opacity="1" result="floodOut" />                <feComposite operator="atop" in="floodOut" in2="SourceGraphic" result="compOut" />                <feBlend mode="normal" in="compOut" in2="SourceGraphic" />            </filter><filter id="Filter_4">                <feFlood flood-color="rgb(209, 45, 4)" flood-opacity="1" result="floodOut" />                <feComposite operator="atop" in="floodOut" in2="SourceGraphic" result="compOut" />                <feBlend mode="normal" in="compOut" in2="SourceGraphic" />            </filter><linearGradient id="PSgrad_1" x1="0%" x2="5.234%" y1="0%" y2="99.863%">  <stop offset="0%" stop-color="rgb(248,212,87)" stop-opacity="1" />  <stop offset="100%" stop-color="rgb(224,36,11)" stop-opacity="1" /></linearGradient><filter id="Filter_5">                <feFlood flood-color="rgb(252, 251, 226)" flood-opacity="1" result="floodOut" />                <feComposite operator="atop" in="floodOut" in2="SourceGraphic" result="compOut" />                <feBlend mode="normal" in="compOut" in2="SourceGraphic" />            </filter><filter id="Filter_6">                <feFlood flood-color="rgb(255, 160, 103)" flood-opacity="1" result="floodOut" />                <feComposite operator="atop" in="floodOut" in2="SourceGraphic" result="compOut" />                <feBlend mode="normal" in="compOut" in2="SourceGraphic" />            </filter><filter id="Filter_7">                <feFlood flood-color="rgb(224, 36, 11)" flood-opacity="1" result="floodOut" />                <feComposite operator="atop" in="floodOut" in2="SourceGraphic" result="compOut" />                <feBlend mode="normal" in="compOut" in2="SourceGraphic" />            </filter></defs><g filter="url(#Filter_0)"><path fill-rule="evenodd"  stroke="rgb(253, 213, 156)" stroke-width="4px" stroke-linecap="butt" stroke-linejoin="miter" fill="none" d="M23.0,2.817 L456.999,2.817 C468.45,2.817 477.0,11.771 477.0,22.817 L477.0,177.790 C477.0,188.835 468.45,197.790 456.999,197.790 L23.0,197.790 C11.954,197.790 3.0,188.835 3.0,177.790 L3.0,22.817 C3.0,11.771 11.954,2.817 23.0,2.817 Z"/></g><path fill-rule="evenodd"  fill="url(#PSgrad_0)" d="M26.814,30.444 L138.449,30.444 C143.972,30.444 148.449,34.921 148.449,40.444 L148.449,149.413 C148.449,154.935 143.972,159.413 138.449,159.413 L26.814,159.413 C21.291,159.413 16.814,154.935 16.814,149.413 L16.814,40.444 C16.814,34.921 21.291,30.444 26.814,30.444 Z"/><path fill-rule="evenodd"  fill="rgb(255, 243, 220)" d="M31.877,34.981 L133.386,34.981 C138.909,34.981 143.386,39.458 143.386,44.981 L143.386,144.876 C143.386,150.398 138.909,154.875 133.386,154.875 L31.877,154.875 C26.354,154.875 21.877,150.398 21.877,144.876 L21.877,44.981 C21.877,39.458 26.354,34.981 31.877,34.981 Z"/><path fill-rule="evenodd"  fill="rgb(254, 236, 202)" d="M36.459,39.31 L128.804,39.31 C134.327,39.31 138.804,43.508 138.804,49.31 L138.804,141.330 C138.804,146.853 134.327,151.330 128.804,151.330 L36.459,151.330 C30.936,151.330 26.459,146.853 26.459,141.330 L26.459,49.31 C26.459,43.508 30.936,39.31 36.459,39.31 Z"/><path fill-rule="evenodd"  fill="rgb(252, 220, 153)" d="M26.459,115.20 L138.804,115.20 L138.804,141.330 C138.804,146.853 134.327,151.330 128.804,151.330 L36.459,151.330 C30.936,151.330 26.459,146.853 26.459,141.330 L26.459,115.20 Z"/><g filter="url(#Filter_1)"><text kerning="auto" font-family="Adobe Heiti Std" fill="rgb(0, 0, 0)" font-size="12px" x="60px" y="73px"><tspan font-size="12px" font-family="HarmonyOS Sans" fill="#FFFFFF">A</tspan><tspan font-size="12px" fill="#FFFFFF">merica</tspan></text></g><g filter="url(#Filter_2)"><text kerning="auto" font-family="Adobe Heiti Std" fill="rgb(0, 0, 0)" font-size="26px" x="55px" y="99.8440000000001px"><tspan font-size="26px" font-family="lianmengqiyilushuaizhengruiheiti" fill="#FFFFFF">&#32654;&#22269;</tspan></text></g><g filter="url(#Filter_3)"><text kerning="auto" font-family="Adobe Heiti Std" fill="rgb(0, 0, 0)" font-size="16px" x="59px" y="136.797px"><tspan font-size="16px" font-family="lianmengqiyilushuaizhengruiheiti" fill="#FFFFFF">&#21830;&#26631;&#27880;&#20876;</tspan></text></g><path fill-rule="evenodd"  stroke="rgb(255, 243, 220)" stroke-width="1px" stroke-linecap="butt" stroke-linejoin="miter" fill="rgb(255, 255, 255)" d="M43.38,120.503 C48.919,120.503 53.686,125.270 53.686,131.150 C53.686,137.31 48.919,141.797 43.38,141.797 C37.156,141.797 32.389,137.31 32.389,131.150 C32.389,125.270 37.156,120.503 43.38,120.503 Z"/><g filter="url(#Filter_4)"><path fill-rule="evenodd"  fill="rgb(255, 255, 255)" d="M21.872,54.529 L21.872,54.604 L63.641,54.604 L63.641,54.529 C63.641,54.529 64.138,54.749 67.75,54.604 C67.311,56.79 46.4,78.805 42.757,78.805 C39.244,78.800 17.263,56.150 17.0,54.604 C21.497,54.688 21.872,54.529 21.872,54.529 Z"/></g><path fill-rule="evenodd"  fill="rgb(255, 255, 255)" d="M66.679,54.416 C66.879,55.751 45.292,76.264 42.555,76.264 C39.594,76.259 18.652,55.815 18.430,54.416 C23.564,54.111 24.950,54.416 24.950,54.416 L24.950,31.295 L29.549,31.295 C29.513,31.452 29.493,31.614 29.493,31.780 C29.493,33.118 30.736,34.203 32.270,34.203 C33.803,34.203 35.46,33.118 35.46,31.780 C35.46,31.614 35.26,31.452 34.990,31.295 L40.192,31.295 C40.156,31.452 40.136,31.614 40.136,31.780 C40.136,33.118 41.379,34.203 42.912,34.203 C44.446,34.203 45.689,33.118 45.689,31.780 C45.689,31.614 45.669,31.452 45.633,31.295 L50.835,31.295 C50.798,31.452 50.779,31.614 50.779,31.780 C50.779,33.118 52.22,34.203 53.555,34.203 C55.89,34.203 56.331,33.118 56.331,31.780 C56.331,31.614 56.312,31.452 56.275,31.295 L60.159,31.295 L60.159,54.416 C60.159,54.416 65.205,54.768 66.679,54.416 Z"/><path fill="url(#PSgrad_1)" d="M66.679,54.416 C66.879,55.751 45.292,76.264 42.555,76.264 C39.594,76.259 18.652,55.815 18.430,54.416 C23.564,54.111 24.950,54.416 24.950,54.416 L24.950,31.295 L29.549,31.295 C29.513,31.452 29.493,31.614 29.493,31.780 C29.493,33.118 30.736,34.203 32.270,34.203 C33.803,34.203 35.46,33.118 35.46,31.780 C35.46,31.614 35.26,31.452 34.990,31.295 L40.192,31.295 C40.156,31.452 40.136,31.614 40.136,31.780 C40.136,33.118 41.379,34.203 42.912,34.203 C44.446,34.203 45.689,33.118 45.689,31.780 C45.689,31.614 45.669,31.452 45.633,31.295 L50.835,31.295 C50.798,31.452 50.779,31.614 50.779,31.780 C50.779,33.118 52.22,34.203 53.555,34.203 C55.89,34.203 56.331,33.118 56.331,31.780 C56.331,31.614 56.312,31.452 56.275,31.295 L60.159,31.295 L60.159,54.416 C60.159,54.416 65.205,54.768 66.679,54.416 Z"/><g filter="url(#Filter_5)"><text kerning="auto" font-family="Adobe Heiti Std" fill="rgb(0, 0, 0)" font-size="12px" x="28px" y="63px"> <tspan dy="-14.938px"><tspan font-size="12px" font-family="Alibaba PuHuiTi" fill="#FFFFFF">&#30452;&#38477;</tspan> </tspan><tspan x="28px" dy="1.2em"><tspan font-size="12px" font-family="HarmonyOS Sans SC" fill="#FFFFFF">&#50;&#48;&#48;</tspan><tspan font-size="8px" font-family="Alibaba PuHuiTi" fill="#FFFFFF">&#20803;</tspan> </tspan></text></g><g filter="url(#Filter_6)"><text kerning="auto" font-family="Adobe Heiti Std" fill="rgb(0, 0, 0)" font-size="14px" x="310px" y="106.5px"><tspan font-size="14px" font-family="Alibaba PuHuiTi" text-decoration="line-through" fill="#FFFFFF">&#165;&#50;&#52;&#57;&#57;&#47;&#31867;</tspan></text></g><g filter="url(#Filter_7)"><text kerning="auto" font-family="Adobe Heiti Std" fill="rgb(0, 0, 0)" font-size="14px" x="163px" y="106.484px"><tspan font-size="14px" font-family="Alibaba PuHuiTi" fill="#FFFFFF">&#31186;&#26432;&#20215;&#65306;&#165;</tspan><tspan font-size="24px" font-family="HarmonyOS Sans SC" fill="#FFFFFF">&#50;&#50;&#57;&#57;</tspan><tspan font-size="14px" font-family="Alibaba PuHuiTi" fill="#FFFFFF">&#47;&#31867;</tspan></text></g></svg>