<svg  xmlns="http://www.w3.org/2000/svg" xmlns:xlink="http://www.w3.org/1999/xlink" width="483px" height="205px"><defs><filter id="Filter_0">                <feOffset in="SourceAlpha" dx="0" dy="1" />                <feGaussianBlur result="blurOut" stdDeviation="1.414" />                <feFlood flood-color="rgb(222, 36, 5)" result="floodOut" />                <feComposite operator="out" in="floodOut" in2="blurOut" result="compOut" />                <feComposite operator="in" in="compOut" in2="SourceAlpha" />                <feComponentTransfer><feFuncA type="linear" slope="0.41"/></feComponentTransfer>                <feBlend mode="normal" in2="SourceGraphic" />            </filter><linearGradient id="PSgrad_0" x1="0%" x2="0%" y1="100%" y2="0%">  <stop offset="0%" stop-color="rgb(252,221,126)" stop-opacity="1" />  <stop offset="100%" stop-color="rgb(253,158,23)" stop-opacity="1" /></linearGradient><filter id="Filter_1">                <feFlood flood-color="rgb(248, 105, 18)" flood-opacity="1" result="floodOut" />                <feComposite operator="atop" in="floodOut" in2="SourceGraphic" result="compOut" />                <feBlend mode="normal" in="compOut" in2="SourceGraphic" />            </filter><filter id="Filter_2">                <feFlood flood-color="rgb(248, 105, 18)" flood-opacity="1" result="floodOut" />                <feComposite operator="atop" in="floodOut" in2="SourceGraphic" result="compOut" />                <feBlend mode="normal" in="compOut" in2="SourceGraphic" />            </filter><filter id="Filter_3">                <feFlood flood-color="rgb(248, 105, 18)" flood-opacity="1" result="floodOut" />                <feComposite operator="atop" in="floodOut" in2="SourceGraphic" result="compOut" />                <feBlend mode="normal" in="compOut" in2="SourceGraphic" />            </filter><filter id="Filter_4">                <feFlood flood-color="rgb(209, 45, 4)" flood-opacity="1" result="floodOut" />                <feComposite operator="atop" in="floodOut" in2="SourceGraphic" result="compOut" />                <feBlend mode="normal" in="compOut" in2="SourceGraphic" />            </filter><linearGradient id="PSgrad_1" x1="0%" x2="5.234%" y1="0%" y2="99.863%">  <stop offset="0%" stop-color="rgb(248,212,87)" stop-opacity="1" />  <stop offset="100%" stop-color="rgb(224,36,11)" stop-opacity="1" /></linearGradient><filter id="Filter_5">                <feFlood flood-color="rgb(252, 251, 226)" flood-opacity="1" result="floodOut" />                <feComposite operator="atop" in="floodOut" in2="SourceGraphic" result="compOut" />                <feBlend mode="normal" in="compOut" in2="SourceGraphic" />            </filter><filter id="Filter_6">                <feFlood flood-color="rgb(224, 36, 11)" flood-opacity="1" result="floodOut" />                <feComposite operator="atop" in="floodOut" in2="SourceGraphic" result="compOut" />                <feBlend mode="normal" in="compOut" in2="SourceGraphic" />            </filter><filter id="Filter_7">                <feFlood flood-color="rgb(255, 160, 103)" flood-opacity="1" result="floodOut" />                <feComposite operator="atop" in="floodOut" in2="SourceGraphic" result="compOut" />                <feBlend mode="normal" in="compOut" in2="SourceGraphic" />            </filter></defs><g filter="url(#Filter_0)"><path fill-rule="evenodd"  stroke="rgb(253, 213, 156)" stroke-width="4px" stroke-linecap="butt" stroke-linejoin="miter" fill="none" d="M23.0,2.787 L457.0,2.787 C468.45,2.787 477.0,11.741 477.0,22.787 L477.0,177.759 C477.0,188.805 468.45,197.759 457.0,197.759 L23.0,197.759 C11.954,197.759 3.0,188.805 3.0,177.759 L3.0,22.787 C3.0,11.741 11.954,2.787 23.0,2.787 Z"/></g><path fill-rule="evenodd"  fill="url(#PSgrad_0)" d="M26.814,30.414 L138.449,30.414 C143.972,30.414 148.449,34.891 148.449,40.414 L148.449,149.382 C148.449,154.905 143.972,159.382 138.449,159.382 L26.814,159.382 C21.291,159.382 16.814,154.905 16.814,149.382 L16.814,40.414 C16.814,34.891 21.291,30.414 26.814,30.414 Z"/><path fill-rule="evenodd"  fill="rgb(255, 243, 220)" d="M31.877,34.951 L133.386,34.951 C138.909,34.951 143.386,39.428 143.386,44.951 L143.386,144.845 C143.386,150.368 138.909,154.845 133.386,154.845 L31.877,154.845 C26.354,154.845 21.877,150.368 21.877,144.845 L21.877,44.951 C21.877,39.428 26.354,34.951 31.877,34.951 Z"/><path fill-rule="evenodd"  fill="rgb(254, 236, 202)" d="M36.459,39.1 L128.804,39.1 C134.327,39.1 138.804,43.478 138.804,49.1 L138.804,141.300 C138.804,146.823 134.327,151.300 128.804,151.300 L36.459,151.300 C30.936,151.300 26.459,146.823 26.459,141.300 L26.459,49.1 C26.459,43.478 30.936,39.1 36.459,39.1 Z"/><path fill-rule="evenodd"  fill="rgb(252, 220, 153)" d="M26.459,114.990 L138.804,114.990 L138.804,141.300 C138.804,146.823 134.327,151.300 128.804,151.300 L36.459,151.300 C30.936,151.300 26.459,146.823 26.459,141.300 L26.459,114.990 Z"/><g filter="url(#Filter_1)"><text kerning="auto" font-family="Adobe Heiti Std" fill="rgb(0, 0, 0)" font-size="12px" x="40px" y="70.566px"><tspan font-size="12px" font-family="HarmonyOS Sans" fill="#FFFFFF">E</tspan><tspan font-size="12px" fill="#FFFFFF">uropean&#32;Union</tspan></text></g><g filter="url(#Filter_2)"><text kerning="auto" font-family="Adobe Heiti Std" fill="rgb(0, 0, 0)" font-size="26px" x="55px" y="99.797px"><tspan font-size="26px" font-family="lianmengqiyilushuaizhengruiheiti" fill="#FFFFFF">&#27431;&#30431;</tspan></text></g><g filter="url(#Filter_3)"><text kerning="auto" font-family="Adobe Heiti Std" fill="rgb(0, 0, 0)" font-size="16px" x="59px" y="136.797px"><tspan font-size="16px" font-family="lianmengqiyilushuaizhengruiheiti" fill="#FFFFFF">&#21830;&#26631;&#27880;&#20876;</tspan></text></g><path fill-rule="evenodd"  stroke="rgb(255, 243, 220)" stroke-width="1px" stroke-linecap="butt" stroke-linejoin="miter" fill="rgb(255, 255, 255)" d="M43.38,120.473 C48.919,120.473 53.686,125.240 53.686,131.120 C53.686,137.0 48.919,141.767 43.38,141.767 C37.156,141.767 32.389,137.0 32.389,131.120 C32.389,125.240 37.156,120.473 43.38,120.473 Z"/><g filter="url(#Filter_4)"><path fill-rule="evenodd"  fill="rgb(255, 255, 255)" d="M21.872,54.498 L21.872,54.574 L63.641,54.574 L63.641,54.498 C63.641,54.498 64.138,54.719 67.75,54.574 C67.312,56.49 46.4,78.775 42.757,78.775 C39.244,78.770 17.263,56.120 17.0,54.574 C21.497,54.657 21.872,54.498 21.872,54.498 Z"/></g><path fill-rule="evenodd"  fill="rgb(255, 255, 255)" d="M66.679,54.386 C66.879,55.721 45.292,76.234 42.555,76.234 C39.594,76.229 18.652,55.785 18.430,54.386 C23.564,54.80 24.950,54.386 24.950,54.386 L24.950,31.265 L29.549,31.265 C29.513,31.422 29.493,31.584 29.493,31.750 C29.493,33.88 30.736,34.173 32.270,34.173 C33.803,34.173 35.46,33.88 35.46,31.750 C35.46,31.584 35.26,31.422 34.990,31.265 L40.192,31.265 C40.155,31.422 40.136,31.584 40.136,31.750 C40.136,33.88 41.379,34.173 42.912,34.173 C44.446,34.173 45.689,33.88 45.689,31.750 C45.689,31.584 45.669,31.422 45.632,31.265 L50.835,31.265 C50.798,31.422 50.779,31.584 50.779,31.750 C50.779,33.88 52.22,34.173 53.555,34.173 C55.89,34.173 56.331,33.88 56.331,31.750 C56.331,31.584 56.312,31.422 56.275,31.265 L60.159,31.265 L60.159,54.386 C60.159,54.386 65.205,54.737 66.679,54.386 Z"/><path fill="url(#PSgrad_1)" d="M66.679,54.386 C66.879,55.721 45.292,76.234 42.555,76.234 C39.594,76.229 18.652,55.785 18.430,54.386 C23.564,54.80 24.950,54.386 24.950,54.386 L24.950,31.265 L29.549,31.265 C29.513,31.422 29.493,31.584 29.493,31.750 C29.493,33.88 30.736,34.173 32.270,34.173 C33.803,34.173 35.46,33.88 35.46,31.750 C35.46,31.584 35.26,31.422 34.990,31.265 L40.192,31.265 C40.155,31.422 40.136,31.584 40.136,31.750 C40.136,33.88 41.379,34.173 42.912,34.173 C44.446,34.173 45.689,33.88 45.689,31.750 C45.689,31.584 45.669,31.422 45.632,31.265 L50.835,31.265 C50.798,31.422 50.779,31.584 50.779,31.750 C50.779,33.88 52.22,34.173 53.555,34.173 C55.89,34.173 56.331,33.88 56.331,31.750 C56.331,31.584 56.312,31.422 56.275,31.265 L60.159,31.265 L60.159,54.386 C60.159,54.386 65.205,54.737 66.679,54.386 Z"/><g filter="url(#Filter_5)"><text kerning="auto" font-family="Adobe Heiti Std" fill="rgb(0, 0, 0)" font-size="12px" x="28px" y="63px"> <tspan dy="-14.938px"><tspan font-size="12px" font-family="Alibaba PuHuiTi" fill="#FFFFFF">&#30452;&#38477;</tspan> </tspan><tspan x="28px" dy="1.2em"><tspan font-size="12px" font-family="HarmonyOS Sans SC" fill="#FFFFFF">&#52;&#48;&#48;</tspan><tspan font-size="8px" font-family="Alibaba PuHuiTi" fill="#FFFFFF">&#20803;</tspan> </tspan></text></g><g filter="url(#Filter_6)"><text kerning="auto" font-family="Adobe Heiti Std" fill="rgb(0, 0, 0)" font-size="14px" x="164px" y="104.484px"><tspan font-size="14px" font-family="Alibaba PuHuiTi" fill="#FFFFFF">&#31186;&#26432;&#20215;&#65306;&#165;</tspan><tspan font-size="22px" font-family="HarmonyOS Sans SC" fill="#FFFFFF">&#55;&#57;&#57;&#57;</tspan><tspan font-size="14px" font-family="Alibaba PuHuiTi" fill="#FFFFFF">&#47;&#31867;</tspan></text></g><g filter="url(#Filter_7)"><text kerning="auto" font-family="Adobe Heiti Std" fill="rgb(0, 0, 0)" font-size="14px" x="307px" y="105.5px"><tspan font-size="14px" font-family="Alibaba PuHuiTi" text-decoration="line-through" fill="#FFFFFF">&#165;&#56;&#51;&#57;&#57;&#47;&#31867;</tspan></text></g></svg>