<svg width="64" height="36" viewBox="0 0 64 36" fill="none" xmlns="http://www.w3.org/2000/svg">
<rect x="1" y="1" width="62" height="34" rx="1" stroke="white" stroke-width="2"/>
<path fill-rule="evenodd" clip-rule="evenodd" d="M2 0C0.895431 0 0 0.895432 0 2V34C0 35.1046 0.895431 36 2 36H62C63.1046 36 64 35.1046 64 34V2C64 0.895431 63.1046 0 62 0H2Z" fill="white"/>
<path fill-rule="evenodd" clip-rule="evenodd" d="M4 23.1517V4H60V22.3109C58.5097 20.1403 56.6895 18.1399 54.75 18.1399C51.8749 18.1399 49.0708 20.4995 46.5867 22.5897C43.7789 24.9524 41.3801 26.9709 39.75 24.8485C26.7204 7.88405 12.1477 15.0743 4 23.1517ZM0.5 35.3229C0.188818 34.9703 0 34.5072 0 34V2C0 0.895432 0.895431 0 2 0H62C63.1046 0 64 0.895431 64 2V34C64 34.7403 63.5978 35.3866 63 35.7324V35.75H62.969C62.6819 35.9093 62.3516 36 62 36H2C1.64844 36 1.31806 35.9093 1.031 35.75H0.5V35.3229Z" fill="#DEDEDE"/>
<rect x="55.0999" y="7.50732" width="2.5" height="9.5" rx="1.25" transform="rotate(45 55.0999 7.50732)" fill="#D9D9D9"/>
<rect x="56.8676" y="14.2249" width="2.5" height="9.5" rx="1.25" transform="rotate(135 56.8676 14.2249)" fill="#D9D9D9"/>
</svg>
