<?xml version="1.0" standalone="no"?><!DOCTYPE svg PUBLIC "-//W3C//DTD SVG 1.1//EN" "http://www.w3.org/Graphics/SVG/1.1/DTD/svg11.dtd"><svg t="1632650538075" class="icon" viewBox="0 0 3960 1024" version="1.1" xmlns="http://www.w3.org/2000/svg" p-id="7237" xmlns:xlink="http://www.w3.org/1999/xlink" width="773.4375" height="200"><defs><style type="text/css"></style></defs><path d="M1482.085783 874.347952l3.947952-11.880868c1.085687-3.096675 2.134361-6.242699 3.146024-9.425735l2.899277-9.413397h-59.799132v-14.891181h63.993831c1.554506-5.12 2.911614-10.202988 4.071325-15.248964 1.159711-5.033639 2.368771-9.968578 3.602506-14.767807l15.82882 2.097349a1223.174169 1223.174169 0 0 1-6.98294 27.919422h100.290313v14.891181h-104.472675c-0.777253 3.096675-1.67788 6.242699-2.677204 9.413397l-2.911615 9.425735-1.39412 4.194699a80.933012 80.933012 0 0 0-0.579856 1.973976 49.534458 49.534458 0 0 1-1.973976 5.699855h127.272097v14.891181H1493.929639c-2.010988 5.588819-4.034313 10.943229-6.045302 16.063229l-4.034313 10.030265-2.010988 4.860916h115.872386v16.285301a664.699373 664.699373 0 0 1-22.799422 25.711036 404.072867 404.072867 0 0 1-23.97147 23.613687c17.062554 7.130988 31.410892 14.039904 43.05735 20.71441l-7.21735 14.422361a279.268241 279.268241 0 0 0-29.436916-14.891181l-10.054939-4.355084c-5.231036-2.220723-10.758169-4.51547-16.606073-6.871904l-12.090602-4.823903a914.876145 914.876145 0 0 0-39.430169-15.014555 316.983518 316.983518 0 0 0-31.299855-9.425734l5.588819-14.656772c7.846554 1.850602 16.593735 4.404434 26.266217 7.63682l4.910265 1.665542c8.315373 2.88694 17.445012 6.205687 27.425928 9.956241l23.292915 8.895229a369.269205 369.269205 0 0 0 41.885302-43.279422h-114.009446v-13.73147l4.441446-10.24 2.307084-5.342072c2.319422-5.428434 4.564819-11.165301 6.74853-17.22294h-57.71412V874.347952h63.056192z m430.585831-34.21147v15.347663h-65.141204v54.691469h57.232963v15.347663h-57.245301v64.919133h70.976771v15.12559h-158.226506V990.44241h71.889735v-64.919133h-56.529735v-15.347663h56.529735V855.471807h-58.627084v-15.347662h139.140626z m-201.037108 170.317108c3.096675-5.428434 6.316723-11.597108 9.660145-18.506024 3.331084-6.896578 6.51412-13.990554 9.536771-21.281927 3.022651-7.279036 5.897253-14.656771 8.61147-22.108531 2.714217-7.439422 5.082988-14.422361 7.093975-20.936481l14.656772 5.12a539.648 539.648 0 0 1-15.816482 43.624867c-3.109012 7.525783-6.292048 14.854169-9.549109 21.997494l-3.824578 8.216675c-1.887614 3.947952-3.701205 7.649157-5.477783 11.091277l-14.891181-7.21735z m3.022651-149.849445c3.417446 2.171373 7.291373 4.774554 11.63412 7.797204s8.722506 6.168675 13.151615 9.425735c4.416771 3.25706 8.685494 6.51412 12.793831 9.771181l6.686843 5.366747c1.332434 1.073349 2.553831 2.085012 3.664193 3.010313l-10.462072 12.793832a209.105735 209.105735 0 0 0-10.486747-9.191326c-4.021976-3.331084-8.204337-6.662169-12.547085-9.993253-4.355084-3.331084-8.61147-6.526458-12.806168-9.549108l-5.921928-4.219374c-1.875277-1.295422-3.614843-2.492145-5.243373-3.577831l9.536771-11.63412zM1727.228916 806.393831c3.405108 2.171373 7.168 4.651181 11.276337 7.451759 4.120675 2.788241 8.192 5.699855 12.213976 8.722506l7.809542 5.897253 3.713542 2.825253c3.651855 2.788241 6.637494 5.280386 8.956916 7.451759l-9.993253 12.090603a159.768675 159.768675 0 0 0-9.314699-8.019277c-3.577831-2.874602-7.254361-5.786217-11.054265-8.734844-3.799904-2.948627-7.649157-5.810892-11.523084-8.599132l-5.576482-3.960289c-1.788916-1.233735-3.49147-2.405783-5.12-3.49147l8.61147-11.634121z m94.467084-4.194698l13.953542-6.279711 2.442795 4.021976a396.238651 396.238651 0 0 1 11.831518 21.590361l1.665543 3.355759c1.62853 3.331084 2.985639 6.32906 4.071325 8.956916l-14.187952 5.354409a224.90988 224.90988 0 0 0-4.305735-9.536771 152.896771 152.896771 0 0 0-5.231036-10.00559l-5.477783-9.425735-4.762217-8.019277z m198.84106 117.513253v-15.36l4.046651-6.353735c7.649157-12.250988 16.458024-27.894747 26.426602-46.931278 0.320771-0.777253 0.703229-1.591518 1.172048-2.442795l1.394121-2.442795h-50.953253V831.290602h58.392675l4.145349-8.685494c4.577157-9.771181 8.315373-18.283952 11.226988-25.513638l15.347663 6.045301c-1.39412 3.873928-3.146024 8.142651-5.231037 12.793831l-3.355759 7.328386c-1.172048 2.566169-2.430458 5.243373-3.750554 8.031614h122.386506v14.891181h-129.825927l-9.771181 18.518362c-3.923277 7.377735-7.488771 14.002892-10.708819 19.875469l-3.72588 6.686844c-2.985639 5.268048-5.699855 9.783518-8.142651 13.558747h60.736771v-45.845591h15.36v45.845591h76.084434v14.891181h-76.084434v67.941783c0 3.873928-0.320771 7.254361-0.937638 10.116626-0.616867 2.874602-1.665542 5.280386-3.146024 7.21735a15.17494 15.17494 0 0 1-6.279711 4.65118c-2.714217 1.172048-6.168675 1.973976-10.351036 2.442795-5.280386 0.616867-10.363373 1.048675-15.236627 1.283085a121.029398 121.029398 0 0 1-14.076915-0.123374l-2.566169-16.741783c5.823229 0.641542 12.386699 0.912964 19.715084 0.801928l4.490796-0.111036c2.627855 0 4.811566-0.148048 6.51412-0.46882a7.279036 7.279036 0 0 0 3.947952-1.850602 8.031614 8.031614 0 0 0 1.973976-4.071325c0.394795-1.788916 0.592193-4.231711 0.592192-7.340723v-63.747084h-79.82265z m-24.896771 76.787662c4.959614-3.577831 9.968578-7.686169 15.002217-12.337349 5.045976-4.651181 10.116627-9.845205 15.248964-15.59441a232.608386 232.608386 0 0 0 26.056482-33.730313l13.26265 10.24c-3.577831 5.428434-7.599807 11.004916-12.090602 16.741783-3.380434 4.318072-7.019952 8.660819-10.918554 13.052916l-3.984964 4.404433c-5.268048 5.897253-10.511422 11.325687-15.705446 16.285302a333.355181 333.355181 0 0 1-15.236626 13.73147l-11.634121-12.793832z m152.403277-61.44c4.034313 3.269398 8.648482 7.254361 13.842506 11.991904 5.194024 4.725205 10.89388 10.363373 17.099567 16.865156 5.095325 5.095325 9.660145 9.808193 13.694457 14.15094l2.948627 3.183036c4.725205 5.206361 8.79653 9.82053 12.213976 13.842506l-11.634121 12.571759-3.380433-4.244048c-6.094651-7.40241-14.508723-16.532048-25.242217-27.401253l-6.538795-6.785542c-9.524434-9.697157-17.568386-17.198265-24.181205-22.528l11.177638-11.63412z m236.297253-109.580337V798.473253h15.125591v26.99412h96.330024v14.422362h-96.330024v25.36559h80.279132v120.054747c0 5.428434-0.468819 9.894554-1.39412 13.386024-0.937639 3.49147-2.368771 6.279711-4.305735 8.377061a16.532048 16.532048 0 0 1-7.451759 4.540144 50.237687 50.237687 0 0 1-11.041928 1.850603c-4.034313 0.320771-8.389398 0.505831-13.040578 0.592192a198.384578 198.384578 0 0 1-12.090603-0.123373l-2.800578-16.285301c1.554506 0.148048 3.417446 0.271422 5.588819 0.345445l13.386024 0.46882c2.097349 0.074024 3.824578 0.123373 5.231036 0.123373 2.788241 0 5.045976-0.160386 6.748531-0.468819a6.871904 6.871904 0 0 0 3.947951-1.973976 8.056289 8.056289 0 0 0 1.86294-4.194699c0.308434-1.788916 0.468819-4.145349 0.468819-7.093976v-105.644723h-146.357975v135.192675h-14.891181v-149.158554h80.735614v-25.353253h-96.552096v-14.434699h96.552096z m-16.519711 90.741205a73.690988 73.690988 0 0 0-2.430457-3.577832l-1.406458-1.887614c-1.480482-1.936964-3.059663-4.157687-4.762217-6.637494-4.503133-6.045301-8.389398-10.696482-11.634121-13.953542l10.462073-8.142651 2.775903 3.133687c2.516819 2.88694 5.551807 6.501783 9.092627 10.819855l5.588819 7.143326c2.220723 2.88694 4.071325 5.391422 5.576482 7.525783l-7.205012 5.576482h25.36559a428.019663 428.019663 0 0 0 24.662362-33.977061l11.399711 7.451759c-2.097349 3.133687-4.392096 6.427759-6.871904 9.86988l-2.553831 3.503807c-3.49147 4.737542-6.785542 9.117301-9.894555 13.151615h33.508241v13.26265h-50.484433V953.677108h55.838843v12.806169h-55.838843v43.513831h-14.434699v-43.513831h-56.307663V953.677108h56.307663V929.495904h-50.718843v-13.262651h33.964722z m281.908434 73.987084V827.564723h-62.821783v-14.434699h194.288578v14.434699h-63.290602v162.643277h70.039132v14.434699h-207.785638v-14.434699h69.582651z m15.36 0h37.46853V827.564723h-37.46853v162.643277z m58.639422-44.907952c3.417446-6.353735 6.98294-13.213301 10.696482-20.591036a834.695711 834.695711 0 0 0 21.170891-45.487807c3.269398-7.599807 6.218024-14.804819 8.84588-21.639711l15.12559 6.292048a650.548434 650.548434 0 0 1-9.77118 23.379277 937.934651 937.934651 0 0 1-9.993254 21.874121c-3.417446 7.205012-6.908916 14.422361-10.486746 21.639711a566.901205 566.901205 0 0 1-11.621784 22.207229l-13.965879-7.673832z m-134.255036-80.735614l13.49706-7.21735 2.936289 5.551808c2.072675 4.009639 4.355084 8.599133 6.834892 13.768481 3.713542 7.747855 7.476434 15.791807 11.276337 24.082507l7.40241 16.285301 3.540819 7.908241c3.49147 7.834217 6.316723 14.545735 8.488096 20.134554l-14.434698 6.74853-2.344097-5.835566a1377.625446 1377.625446 0 0 0-16.482699-38.258121 888.967711 888.967711 0 0 0-11.177638-23.97147l-6.723856-13.657445a605.517108 605.517108 0 0 0-2.812915-5.53947z m290.741976 122.386506v-87.718554h13.26265v86.090024c2.640193-0.308434 5.35441-0.690892 8.142651-1.159711l5.798554-1.036338 3.047325-0.592192 3.257061-0.46882v-99.352674h-31.176482v-68.645012h61.896482v68.645012h-17.22294v37.690602h23.97147v14.891181h-23.97147v44.45147l14.780144-3.022651c4.564819-0.937639 8.722506-1.86294 12.448386-2.800578l1.159711 14.434699c-5.428434 1.233735-11.794506 2.516819-19.08588 3.824578l-14.200289 2.504482-10.696482 1.81359a724.325783 724.325783 0 0 1-20.689735 3.232386l-3.614843 0.493494c-7.056964 0.925301-13.312 1.702554-18.740434 2.319421l-2.097349-14.434698 13.73147-1.159711z m61.193253-95.392386c17.383325-11.473735 30.794024-24.279904 40.256771-38.393831 1.39412-2.023325 2.714217-4.145349 3.960289-6.403084l3.725879-6.859567h-37.23412v-13.73147h43.513831c1.702554-4.194699 3.183036-8.61147 4.416771-13.26265l2.479808-9.512097 1.246072-4.910265 14.656771 2.09735c-1.085687 4.490795-2.245398 8.882892-3.49147 13.139277-1.233735 4.268723-2.553831 8.414072-3.947952 12.460723h65.387952v13.719132h-40.491181a112.26988 112.26988 0 0 0 18.506024 29.202506c7.35306 8.290699 16.544386 15.54506 27.561639 21.750747l-6.98294 12.090603a113.997108 113.997108 0 0 1-16.98853-11.856193 122.64559 122.64559 0 0 1-14.187952-14.187952V888.289157h-64.919132v-9.314699c-4.034313 4.342747-8.414072 8.537446-13.151615 12.571759a225.65012 225.65012 0 0 1-15.236626 11.86853l-9.067952-11.86853z m32.11412 33.039422h-19.542361V910.866506h120.535903v13.73147h-85.867952l-4.65118 23.73706h74.455903l-0.678554 8.290699a448.437976 448.437976 0 0 1-1.875277 17.64241 348.591807 348.591807 0 0 1-3.25706 20.603373c-0.777253 3.25706-1.67788 5.921928-2.677205 8.019277-1.011663 2.097349-2.368771 3.799904-4.071325 5.12a18.160578 18.160578 0 0 1-6.403085 3.022651c-1.924627 0.530506-4.170024 0.986988-6.736192 1.381783l-2.689543 0.37012c-2.171373 0.308434-4.811566 0.542843-7.908241 0.690892a365.160867 365.160867 0 0 1-19.196915 0.468819h-8.488097l-3.034988-16.050891c4.503133 0.308434 9.783518 0.542843 15.82882 0.690891 4.836241 0.123373 9.178988 0.098699 13.028241-0.074024l2.788241-0.148048c2.960964-0.160386 5.317398-0.357783 7.106313-0.592193a11.782169 11.782169 0 0 0 4.305735-1.270747 5.983614 5.983614 0 0 0 2.442795-2.566168c0.542843-1.085687 1.036337-2.479807 1.505157-4.194699l0.937638-4.416771c0.456482-2.393446 0.925301-5.021301 1.394121-7.895904 0.777253-4.811566 1.320096-9.943904 1.62853-15.372337h-76.084434l7.205012-37.456193z m-77.712964-55.382362h35.605591v-41.650891h-35.605591v41.650891z m99.858506-11.757494l-2.134361 3.146025a91.32106 91.32106 0 0 1-5.35441 7.451759c-1.850602 2.331759-3.799904 4.651181-5.810891 6.982939h59.799132a139.782169 139.782169 0 0 1-20.714409-35.136771h-16.285302a119.758651 119.758651 0 0 1-9.499759 17.556048z m211.36347 148.813109c16.75412-4.503133 29.671325-10.165976 38.739277-16.98853 9.080289-6.822554 14.70612-15.976867 16.877494-27.46294a4.688193 4.688193 0 0 0 0.209735-1.085687l0.024675-0.653879c0-0.703229 0.074024-1.431133 0.23441-2.220723h-26.994121v-70.261205h113.318554v70.273542h-31.879711v29.079133c0 2.960964 0.123373 5.280386 0.345446 6.98294a5.268048 5.268048 0 0 0 2.220723 3.836915c1.233735 0.863614 3.084337 1.406458 5.576482 1.62853 2.479807 0.246747 5.971277 0.357783 10.47441 0.357783l4.762217-0.037012c2.159036-0.037012 3.984964-0.111036 5.465445-0.197397 2.492145-0.160386 4.392096-0.666217 5.712193-1.517494a6.847229 6.847229 0 0 0 2.788241-3.72588 29.116145 29.116145 0 0 0 1.073349-5.317397l0.209735-1.776579c0.764916-7.130988 1.233735-13.805494 1.394121-20.01118l12.337349 3.947951c-0.160386 3.109012-0.357783 6.255036-0.592193 9.438073-0.23441 3.170699-0.579855 6.538795-1.048674 10.116626-0.616867 4.503133-1.505157 8.105639-2.677205 10.819856-1.159711 2.714217-2.899277 4.88559-5.231036 6.51412s-5.428434 2.714217-9.302362 3.25706a111.036145 111.036145 0 0 1-14.89118 0.814265c-7.291373 0-13.07759-0.345446-17.333976-1.048674-4.268723-0.690892-7.488771-1.81359-9.660145-3.368097a10.388048 10.388048 0 0 1-4.194699-6.292048 43.476819 43.476819 0 0 1-0.925301-9.758843V957.871807h-26.99412l-0.024675 1.07335-0.086361 0.900626a9.623133 9.623133 0 0 0-0.123374 1.283084c-0.925301 8.216675-2.985639 15.322988-6.168675 21.294266a53.445398 53.445398 0 0 1-12.904867 15.816481c-5.428434 4.577157-11.831518 8.574458-19.196916 11.979567a211.955663 211.955663 0 0 1-25.020144 9.549108l-6.514121-13.49706z m81.92-186.380337c-1.098024-3.577831-2.220723-7.130988-3.380434-10.70882a81.031711 81.031711 0 0 0-3.614843-9.302361l13.96588-3.022651c1.39412 3.25706 2.714217 6.908916 3.947951 10.930892 1.246072 4.034313 2.405783 8.068627 3.49147 12.090602h59.095904v11.646458h-39.319133l12.33735 4.88559-3.664193 6.871904a238.098506 238.098506 0 0 1-8.660819 14.98988h47.005301v11.880867h-141.941205v-11.86853h39.084723a843.381205 843.381205 0 0 0-6.625157-11.165301l-3.170698-5.181687a290.051084 290.051084 0 0 0-2.763567-4.367422l10.696482-6.045301h-36.062072v-11.63412h59.564723z m-102.856482 40.256771V798.473253h13.96588v61.662072h23.033831v14.656771h-23.033831v82.598555c3.30641-1.135036 6.51412-2.294747 9.623132-3.454458l4.56482-1.776579c4.503133-1.788916 8.37706-3.380434 11.63412-4.774554l2.331759 15.36c-3.49147 1.39412-7.328386 2.874602-11.523084 4.441446l-4.305735 1.603855c-5.897253 2.171373-11.942554 4.342747-18.135904 6.514121-6.218024 2.171373-12.300337 4.231711-18.271614 6.168675-5.983614 1.936964-11.362699 3.528482-16.174265 4.774554l-3.947952-14.891181c4.021976-1.085687 8.636145-2.405783 13.830169-3.947952 5.206361-1.566843 10.671807-3.269398 16.408674-5.132337v-87.484145h-25.6v-14.656771h25.6z m149.615036 85.621204v-17.445012h-86.090024v17.445012h86.090024z m-86.090024-29.313542h86.090024v-16.75412h-86.090024v16.75412z m16.98853-84.930313a309.173976 309.173976 0 0 1 15.59441 26.759711h25.587663c2.788241-4.034313 5.551807-8.537446 8.266024-13.49706 2.714217-4.959614 4.836241-9.376386 6.390747-13.262651h-55.838844z m290.273157-30.016771v32.570602h75.862361v122.855326h-75.862361v22.811759c0 2.788241 0.123373 5.157012 0.357783 7.093976 0.23441 1.936964 0.851277 3.49147 1.850603 4.65118 1.011663 1.159711 2.640193 2.060337 4.897927 2.677205 1.801253 0.493494 4.219373 0.83894 7.254362 1.048675l2.393446 0.123373c2.368771 0.123373 5.218699 0.209735 8.56212 0.283759l2.615518 0.061687c4.490795 0.074024 9.141976 0.111036 13.953542 0.111036l9.364048-0.049349 4.478458-0.061687c3.540819-0.061687 6.662169-0.148048 9.351711-0.271422l1.936964-0.086361c3.72588-0.148048 6.637494-0.493494 8.722506-1.048675a11.313349 11.313349 0 0 0 5.008964-2.553831c1.233735-1.159711 2.097349-2.788241 2.553831-4.88559l0.567518-2.862265c0.271422-1.603855 0.555181-3.49147 0.83894-5.625832 0.456482-3.72588 0.814265-7.40241 1.036337-11.054265l0.814265-11.991903 15.36 4.663518-1.048674 12.090602c-0.283759 3.146024-0.60453 5.983614-0.937639 8.512771l-0.333108 2.430458c-0.616867 4.490795-1.320096 8.340048-2.09735 11.510747a16.692434 16.692434 0 0 1-4.429108 8.031614c-2.171373 2.171373-5.30506 3.836916-9.413398 4.996627-3.528482 0.999325-8.105639 1.690217-13.73147 2.060337l-2.911614 0.160386c-7.760193 0.456482-16.248289 0.740241-25.476627 0.814265a394.943229 394.943229 0 0 1-20.726747-0.345446l-4.749879-0.246747a119.635277 119.635277 0 0 1-15.939855-1.62853c-4.108337-0.764916-7.254361-2.097349-9.425735-3.947952a14.064578 14.064578 0 0 1-4.416772-7.686169 55.777157 55.777157 0 0 1-1.172048-12.559421v-27.22853h-73.530602v-122.855326h73.530602v-32.570602h14.891181z m60.971181 141.472386v-41.885302h-60.971181v41.885302h60.971181z m-134.489446 0h58.627084v-41.885302h-58.627084v41.885302z m73.530602-94.935904v39.787952h60.946506v-39.787952h-60.946506z m-73.530602 39.787952h58.627084v-39.787952h-58.627084v39.787952z m322.621687-49.793542c3.109012 3.72588 6.366072 7.834217 9.77118 12.337349 3.417446 4.490795 6.74853 9.067952 10.005591 13.719132l-9.302362 6.045302h45.833253c3.886265-4.651181 7.649157-9.86988 11.288675-15.693109 3.651855-5.823229 6.711518-11.214651 9.191325-16.174265l13.262651 6.98294c-2.331759 4.034313-4.959614 8.179663-7.908241 12.448385-2.960964 4.256386-5.897253 8.414072-8.84588 12.448386h53.050603v117.032096c0 5.280386-0.345446 9.462747-1.048675 12.571759-0.690892 3.096675-1.973976 5.551807-3.824578 7.328386-1.875277 1.776578-4.46612 3.022651-7.809542 3.725879-3.331084 0.690892-7.562795 1.270747-12.682795 1.739567-2.677205 0.209735-5.453108 0.394795-8.315374 0.567518l-4.355084 0.246747c-4.429108 0.23441-8.500434 0.271422-12.213976 0.123373l-3.034988-15.36c3.577831 0.308434 7.451759 0.542843 11.63412 0.690892 2.800578 0.111036 5.453108 0.135711 7.969928 0.111036l7.599807-0.18506a44.414458 44.414458 0 0 0 4.56482-0.382458c2.097349-0.320771 3.639518-0.986988 4.65118-1.973976a7.82188 7.82188 0 0 0 1.973976-4.441446c0.246747-1.542169 0.394795-3.516145 0.444145-5.90959l0.024674-102.4h-144.729445v131.244723h-14.434699V870.153253h53.753831c-2.948627-4.503133-6.082313-9.006265-9.425735-13.49706l-3.86159-5.107663a181.038265 181.038265 0 0 0-5.329735-6.538795l11.177639-6.970602h-63.525013v-13.96588h100.290314a356.105253 356.105253 0 0 0-4.429109-11.63412l-3.220048-7.932916a456.728675 456.728675 0 0 0-0.962313-2.294747l15.582072-3.49147c1.246072 2.788241 2.677205 6.51412 4.318072 11.165301 1.616193 4.651181 3.207711 9.376386 4.762217 14.187952h90.975615v13.96588h-142.866506z m80.513542 89.581494v61.193253h-82.610892v-61.193253h82.610892z m-69.113831 48.633831h55.616771v-36.062072h-55.616771v36.062072z m16.532048-77.725301a340.399807 340.399807 0 0 1-35.371181 32.11412 453.02747 453.02747 0 0 1-12.571759 9.549109l-9.302361-11.177639a310.753157 310.753157 0 0 0 25.242216-18.962506c8.303036-6.908916 15.54506-13.91653 21.763085-21.059855l10.24 9.549108z m70.495614 40.96c-3.25706-3.25706-6.908916-6.74853-10.930891-10.47441a566.777831 566.777831 0 0 0-20.554024-18.086554l-3.997302-3.318747c-3.947952-3.25706-7.562795-6.131663-10.819855-8.61147l9.536771-10.24 4.737542 3.787566 5.391422 4.367422 7.858891 6.51412a836.287229 836.287229 0 0 1 16.680097 14.422362l11.63412 10.474409-9.536771 11.165302z" fill="#363944" p-id="7238"></path><path d="M1306.278554 918.639036m-18.999518 0a18.999518 18.999518 0 1 0 37.999036 0 18.999518 18.999518 0 1 0-37.999036 0Z" fill="#363944" p-id="7239"></path><path d="M1965.746892 3.022651v545.878361h-251.336482l-0.579856 125.58188h-92.209349l0.579855-125.58188h-240.343903V3.022651h583.889735zM472.150361 0v374.722313h123.496868V664.983133H320.154217v-94.997591h173.931952l-1.098024-91.765205H16.161928V170.995663h112.158843v203.738988l239.480289-0.012338 1.665542-270.311325H16.161928V4.897928L472.150361 0z m389.490121 227.994217L782.298988 664.983133H671.645301l87.015326-436.988916h102.979855z m347.197687 0l70.791711 436.988916h-107.408964L1108.634217 227.994217h100.203952zM253.655904 531.986506v94.99759H16.161928v-94.99759h237.493976z m1369.556819-199.49494h-148.319615v123.373494l147.752097-0.012337 0.567518-123.361157z m249.485879 0h-157.27653l-0.579855 123.361157h157.868723l-0.012338-123.361157zM1624.310747 96.07094h-149.405301l-0.012338 141.423036h148.763759l0.65388-141.423036z m248.400193 0h-156.190844l-0.653879 141.423036h156.832385V96.07094zM993.958554 0l26.772048 85.497831h260.614169v94.997591h-607.984578v-94.997591H907.412048L880.64 0h113.318554z" fill="#323540" p-id="7240"></path><path d="M2619.108241 18.999518a277.935807 277.935807 0 0 0-2.590843 37.999036l-0.012338 75.998073h-245.747662c-83.523855 0-151.231229 68.052819-151.231229 151.996144v113.997109c0 83.943325 67.707373 151.996145 151.231229 151.996144h245.747662v75.998072c0 12.880193 0.888289 25.575325 2.603181 37.999037h-248.350843c-146.160578 0-264.648482-119.092434-264.648482-265.993253V284.992771c0-146.900819 118.487904-265.993253 264.648482-265.993253zM3094.305928 18.999518c104.805783 0 189.773108 85.066024 189.773108 189.995181s-84.967325 189.995181-189.773108 189.995181l-370.071133-0.012338v-104.497349l370.071133 0.012337a85.448482 85.448482 0 0 0 85.399132-85.497831c0-47.215036-38.245783-85.497831-85.399132-85.497832l-370.071133-0.012337V37.999036c0-6.37841-0.209735-12.70747-0.641542-18.999518h370.712675zM3759.28906 18.999518c104.805783 0 189.773108 85.066024 189.773109 189.995181s-84.967325 189.995181-189.773109 189.995181l-370.071132-0.012338v-104.497349l370.071132 0.012337a85.448482 85.448482 0 0 0 85.399133-85.497831c0-47.215036-38.245783-85.497831-85.399133-85.497832l-370.071132-0.012337V37.999036c0-6.37841-0.209735-12.70747-0.641542-18.999518h370.712674z" fill="#FF6A00" p-id="7241"></path><path d="M3274.579277 664.983133a34830.410024 34830.410024 0 0 1-19.196916-149.516338c-4.799229-38.578892-9.598458-115.749012-86.373783-139.856193-51.2-16.075566-171.168386-24.119518-359.917494-24.119518v43.402796h187.157591c73.579952 16.075566 113.565301 49.842892 119.968385 101.289638a5343.799518 5343.799518 0 0 0 23.996145 168.799615h134.366072z" fill="#FF6A00" p-id="7242"></path><path d="M320.154217 569.985542l-66.498313-37.999036-99.74747 37.999036 99.74747 56.998554 66.498313 37.999037 71.248193-9.49976-9.499759-37.999036z" fill="#323540" p-id="7243"></path><path d="M2163.10747 398.98988h455.988434v-104.49735h-455.988434zM3493.073735 664.983133V18.999518h-104.497349V664.983133zM2828.090602 664.983133V18.999518h-104.497349V664.983133z" fill="#FF6A00" p-id="7244"></path><path d="M112.923759 995.377349v-15.631421H28.807711v-59.071229h71.704675v-15.631422H28.807711v-57.689446h84.116048v-15.631421H11.350361V995.377349h101.585735z m188.810795 0V831.72241h-17.469687l-51.94024 116.08212-53.322025-116.08212h-17.469686V995.377349h17.469686V871.029205l45.512482 98.600096h14.928193l44.82159-98.600096V995.377349h17.469687z m173.635856 0L415.398554 831.72241h-14.70612L340.461494 995.377349h18.61706l13.102265-37.012048h71.482603l13.089927 37.012048h18.629398z m-36.765302-52.17465h-61.143903l30.794024-86.423133 30.349879 86.423133z m176.621494 52.17465v-15.631421h-83.659566V831.72241H514.097349V995.377349h101.129253z m156.857061 0L712.111807 831.72241h-14.70612L637.174747 995.377349h18.61706l13.102265-37.012048h71.470265l13.102265 37.012048h18.629398z m-36.765302-52.17465h-61.143903l30.794024-86.423133 30.349879 86.423133z m180.988916 4.823903h-17.469687c-4.367422 19.998843-18.85147 33.101108-39.306795 33.101109-10.795181 0-21.146217-4.133012-28.264867-11.49841-9.980916-10.190651-11.399711-21.022843-11.486073-52.495421l0.037012-13.817832c0.308434-26.414265 2.220723-36.395181 11.449061-45.84559 7.118651-7.35306 17.469687-11.486072 28.264867-11.486072 20.455325 0 34.482892 13.089928 38.850313 33.088771h17.926169c-5.514795-30.794024-27.351904-48.73253-56.776482-48.73253-16.087904 0-30.794024 5.983614-41.823614 17.025542-13.12694 13.114602-15.063904 26.722699-15.347663 51.940241l-0.049349 14.249638c0 34.704964 0 50.792867 15.397012 66.18988 11.02959 11.02959 25.735711 17.013205 41.823614 17.013205 29.190169 0 51.496096-17.926169 56.776482-48.732531z m158.695325 0h-17.469686c-4.367422 19.998843-18.839133 33.101108-39.294458 33.101109-10.807518 0-21.146217-4.133012-28.277205-11.49841-10.338699-10.573108-11.486072-21.837108-11.486072-56.073253l0.049349-10.24c0.296096-26.414265 2.208386-36.395181 11.436723-45.84559 7.130988-7.35306 17.469687-11.486072 28.277205-11.486072 20.455325 0 34.470554 13.089928 38.837976 33.088771h17.926168c-5.514795-30.794024-27.351904-48.73253-56.764144-48.73253-16.087904 0-30.806361 5.983614-41.835952 17.025542-13.694458 13.68212-15.211952 27.907084-15.372337 55.271325v21.824771c0.160386 27.364241 1.690217 41.601542 15.372337 55.283663 11.02959 11.02959 25.748048 17.013205 41.823614 17.013205 29.202506 0 51.496096-17.926169 56.776482-48.732531z m162.606265 47.350747l-59.984192-163.654939H1162.918554L1102.699952 995.377349h18.61706l13.089928-37.012048h71.482602l13.102265 37.012048h18.629398z m-36.765301-52.17465h-61.143903l30.794024-86.423133 30.349879 86.423133z" fill="#363944" p-id="7245"></path></svg>